<svg width="683" height="55" viewBox="0 0 683 55" fill="none" xmlns="http://www.w3.org/2000/svg">
<path d="M0.17 43V4.5H17C21.18 4.5 24.8467 5.30666 28 6.92C31.1533 8.53333 33.61 10.77 35.37 13.63C37.13 16.49 38.01 19.8633 38.01 23.75C38.01 27.6 37.13 30.9733 35.37 33.87C33.61 36.73 31.1533 38.9667 28 40.58C24.8467 42.1933 21.18 43 17 43H0.17ZM7.32 36.95H16.67C19.5667 36.95 22.06 36.4 24.15 35.3C26.2767 34.2 27.9083 32.66 29.045 30.68C30.2183 28.7 30.805 26.39 30.805 23.75C30.805 21.0733 30.2183 18.7633 29.045 16.82C27.9083 14.84 26.2767 13.3 24.15 12.2C22.06 11.1 19.5667 10.55 16.67 10.55H7.32V36.95ZM44.9495 43V13.63H51.8245V43H44.9495ZM48.4145 8.79C47.1311 8.79 46.0678 8.38666 45.2245 7.58C44.4178 6.77333 44.0145 5.80167 44.0145 4.665C44.0145 3.49167 44.4178 2.52 45.2245 1.75C46.0678 0.943332 47.1311 0.539999 48.4145 0.539999C49.6978 0.539999 50.7428 0.924999 51.5495 1.695C52.3928 2.42833 52.8145 3.36333 52.8145 4.5C52.8145 5.71 52.4111 6.73666 51.6045 7.58C50.7978 8.38666 49.7345 8.79 48.4145 8.79ZM69.9229 43.385C67.4662 43.385 65.1012 43.0733 62.8279 42.45C60.5912 41.79 58.8129 41.0017 57.4929 40.085L60.1329 34.86C61.4529 35.7033 63.0296 36.4 64.8629 36.95C66.6962 37.5 68.5296 37.775 70.3629 37.775C72.5262 37.775 74.0846 37.4817 75.0379 36.895C76.0279 36.3083 76.5229 35.52 76.5229 34.53C76.5229 33.7233 76.1929 33.1183 75.5329 32.715C74.8729 32.275 74.0112 31.945 72.9479 31.725C71.8846 31.505 70.6929 31.3033 69.3729 31.12C68.0896 30.9367 66.7879 30.6983 65.4679 30.405C64.1846 30.075 63.0112 29.6167 61.9479 29.03C60.8846 28.4067 60.0229 27.5817 59.3629 26.555C58.7029 25.5283 58.3729 24.1717 58.3729 22.485C58.3729 20.615 58.9046 19.0017 59.9679 17.645C61.0312 16.2517 62.5162 15.1883 64.4229 14.455C66.3662 13.685 68.6579 13.3 71.2979 13.3C73.2779 13.3 75.2762 13.52 77.2929 13.96C79.3096 14.4 80.9779 15.0233 82.2979 15.83L79.6579 21.055C78.2646 20.2117 76.8529 19.6433 75.4229 19.35C74.0296 19.02 72.6362 18.855 71.2429 18.855C69.1529 18.855 67.5946 19.1667 66.5679 19.79C65.5779 20.4133 65.0829 21.2017 65.0829 22.155C65.0829 23.035 65.4129 23.695 66.0729 24.135C66.7329 24.575 67.5946 24.9233 68.6579 25.18C69.7212 25.4367 70.8946 25.6567 72.1779 25.84C73.4979 25.9867 74.7996 26.225 76.0829 26.555C77.3662 26.885 78.5396 27.3433 79.6029 27.93C80.7029 28.48 81.5829 29.2683 82.2429 30.295C82.9029 31.3217 83.2329 32.66 83.2329 34.31C83.2329 36.1433 82.6829 37.7383 81.5829 39.095C80.5196 40.4517 78.9979 41.515 77.0179 42.285C75.0379 43.0183 72.6729 43.385 69.9229 43.385ZM102.629 43.385C99.5486 43.385 96.7986 42.7433 94.3786 41.46C91.9952 40.14 90.1252 38.3433 88.7686 36.07C87.4119 33.7967 86.7336 31.2117 86.7336 28.315C86.7336 25.3817 87.4119 22.7967 88.7686 20.56C90.1252 18.2867 91.9952 16.5083 94.3786 15.225C96.7986 13.9417 99.5486 13.3 102.629 13.3C105.489 13.3 108 13.8867 110.164 15.06C112.364 16.1967 114.032 17.8833 115.169 20.12L109.889 23.2C109.009 21.8067 107.927 20.78 106.644 20.12C105.397 19.46 104.04 19.13 102.574 19.13C100.887 19.13 99.3652 19.4967 98.0086 20.23C96.6519 20.9633 95.5886 22.0267 94.8186 23.42C94.0486 24.7767 93.6636 26.4083 93.6636 28.315C93.6636 30.2217 94.0486 31.8717 94.8186 33.265C95.5886 34.6217 96.6519 35.6667 98.0086 36.4C99.3652 37.1333 100.887 37.5 102.574 37.5C104.04 37.5 105.397 37.17 106.644 36.51C107.927 35.85 109.009 34.8233 109.889 33.43L115.169 36.51C114.032 38.71 112.364 40.415 110.164 41.625C108 42.7983 105.489 43.385 102.629 43.385ZM133.882 43.385C130.875 43.385 128.199 42.7433 125.852 41.46C123.505 40.14 121.654 38.3433 120.297 36.07C118.94 33.7967 118.262 31.2117 118.262 28.315C118.262 25.3817 118.94 22.7967 120.297 20.56C121.654 18.2867 123.505 16.5083 125.852 15.225C128.199 13.9417 130.875 13.3 133.882 13.3C136.925 13.3 139.62 13.9417 141.967 15.225C144.35 16.5083 146.202 18.2683 147.522 20.505C148.879 22.7417 149.557 25.345 149.557 28.315C149.557 31.2117 148.879 33.7967 147.522 36.07C146.202 38.3433 144.35 40.14 141.967 41.46C139.62 42.7433 136.925 43.385 133.882 43.385ZM133.882 37.5C135.569 37.5 137.072 37.1333 138.392 36.4C139.712 35.6667 140.739 34.6033 141.472 33.21C142.242 31.8167 142.627 30.185 142.627 28.315C142.627 26.4083 142.242 24.7767 141.472 23.42C140.739 22.0267 139.712 20.9633 138.392 20.23C137.072 19.4967 135.587 19.13 133.937 19.13C132.25 19.13 130.747 19.4967 129.427 20.23C128.144 20.9633 127.117 22.0267 126.347 23.42C125.577 24.7767 125.192 26.4083 125.192 28.315C125.192 30.185 125.577 31.8167 126.347 33.21C127.117 34.6033 128.144 35.6667 129.427 36.4C130.747 37.1333 132.232 37.5 133.882 37.5ZM163.135 43L150.54 13.63H157.69L168.525 39.535H165.005L176.225 13.63H182.825L170.23 43H163.135ZM200.122 43.385C196.858 43.385 193.998 42.7433 191.542 41.46C189.122 40.14 187.233 38.3433 185.877 36.07C184.557 33.7967 183.897 31.2117 183.897 28.315C183.897 25.3817 184.538 22.7967 185.822 20.56C187.142 18.2867 188.938 16.5083 191.212 15.225C193.522 13.9417 196.143 13.3 199.077 13.3C201.937 13.3 204.485 13.9233 206.722 15.17C208.958 16.4167 210.718 18.1767 212.002 20.45C213.285 22.7233 213.927 25.4 213.927 28.48C213.927 28.7733 213.908 29.1033 213.872 29.47C213.872 29.8367 213.853 30.185 213.817 30.515H189.342V25.95H210.187L207.492 27.38C207.528 25.6933 207.18 24.2083 206.447 22.925C205.713 21.6417 204.705 20.6333 203.422 19.9C202.175 19.1667 200.727 18.8 199.077 18.8C197.39 18.8 195.905 19.1667 194.622 19.9C193.375 20.6333 192.385 21.66 191.652 22.98C190.955 24.2633 190.607 25.785 190.607 27.545V28.645C190.607 30.405 191.01 31.9633 191.817 33.32C192.623 34.6767 193.76 35.7217 195.227 36.455C196.693 37.1883 198.38 37.555 200.287 37.555C201.937 37.555 203.422 37.2983 204.742 36.785C206.062 36.2717 207.235 35.465 208.262 34.365L211.947 38.6C210.627 40.14 208.958 41.3317 206.942 42.175C204.962 42.9817 202.688 43.385 200.122 43.385ZM220.531 43V13.63H227.076V21.715L226.306 19.35C227.186 17.37 228.561 15.8667 230.431 14.84C232.337 13.8133 234.702 13.3 237.526 13.3V19.845C237.232 19.7717 236.957 19.735 236.701 19.735C236.444 19.6983 236.187 19.68 235.931 19.68C233.327 19.68 231.256 20.45 229.716 21.99C228.176 23.4933 227.406 25.7483 227.406 28.755V43H220.531ZM246.852 54.055C245.422 54.055 243.992 53.8167 242.562 53.34C241.132 52.8633 239.94 52.2033 238.987 51.36L241.737 46.3C242.434 46.9233 243.222 47.4183 244.102 47.785C244.982 48.1517 245.88 48.335 246.797 48.335C248.044 48.335 249.052 48.0233 249.822 47.4C250.592 46.7767 251.307 45.7317 251.967 44.265L253.672 40.415L254.222 39.59L265.332 13.63H271.932L258.182 45.365C257.265 47.565 256.239 49.3067 255.102 50.59C254.002 51.8733 252.755 52.7717 251.362 53.285C250.005 53.7983 248.502 54.055 246.852 54.055ZM252.902 44.045L239.647 13.63H246.797L257.577 38.985L252.902 44.045ZM310.129 43.55C307.122 43.55 304.354 43.055 301.824 42.065C299.294 41.075 297.094 39.7 295.224 37.94C293.354 36.1433 291.906 34.0533 290.879 31.67C289.852 29.25 289.339 26.61 289.339 23.75C289.339 20.89 289.852 18.2683 290.879 15.885C291.906 13.465 293.354 11.375 295.224 9.615C297.094 7.81833 299.294 6.425 301.824 5.435C304.354 4.445 307.104 3.95 310.074 3.95C313.081 3.95 315.831 4.445 318.324 5.435C320.854 6.425 323.054 7.81833 324.924 9.615C326.794 11.375 328.242 13.465 329.269 15.885C330.296 18.2683 330.809 20.89 330.809 23.75C330.809 26.61 330.296 29.25 329.269 31.67C328.242 34.09 326.794 36.18 324.924 37.94C323.054 39.7 320.854 41.075 318.324 42.065C315.831 43.055 313.099 43.55 310.129 43.55ZM310.074 37.28C312.017 37.28 313.814 36.95 315.464 36.29C317.114 35.63 318.544 34.695 319.754 33.485C320.964 32.2383 321.899 30.8083 322.559 29.195C323.256 27.545 323.604 25.73 323.604 23.75C323.604 21.77 323.256 19.9733 322.559 18.36C321.899 16.71 320.964 15.28 319.754 14.07C318.544 12.8233 317.114 11.87 315.464 11.21C313.814 10.55 312.017 10.22 310.074 10.22C308.131 10.22 306.334 10.55 304.684 11.21C303.071 11.87 301.641 12.8233 300.394 14.07C299.184 15.28 298.231 16.71 297.534 18.36C296.874 19.9733 296.544 21.77 296.544 23.75C296.544 25.6933 296.874 27.49 297.534 29.14C298.231 30.79 299.184 32.2383 300.394 33.485C301.604 34.695 303.034 35.63 304.684 36.29C306.334 36.95 308.131 37.28 310.074 37.28ZM354.008 43.385C351.624 43.385 349.443 42.835 347.463 41.735C345.519 40.635 343.961 38.985 342.788 36.785C341.651 34.5483 341.083 31.725 341.083 28.315C341.083 24.8683 341.633 22.045 342.733 19.845C343.869 17.645 345.409 16.0133 347.353 14.95C349.296 13.85 351.514 13.3 354.008 13.3C356.904 13.3 359.453 13.9233 361.653 15.17C363.889 16.4167 365.649 18.1583 366.933 20.395C368.253 22.6317 368.913 25.2717 368.913 28.315C368.913 31.3583 368.253 34.0167 366.933 36.29C365.649 38.5267 363.889 40.2683 361.653 41.515C359.453 42.7617 356.904 43.385 354.008 43.385ZM337.728 53.67V13.63H344.273V20.56L344.053 28.37L344.603 36.18V53.67H337.728ZM353.238 37.5C354.888 37.5 356.354 37.1333 357.638 36.4C358.958 35.6667 360.003 34.6033 360.773 33.21C361.543 31.8167 361.928 30.185 361.928 28.315C361.928 26.4083 361.543 24.7767 360.773 23.42C360.003 22.0267 358.958 20.9633 357.638 20.23C356.354 19.4967 354.888 19.13 353.238 19.13C351.588 19.13 350.103 19.4967 348.783 20.23C347.463 20.9633 346.418 22.0267 345.648 23.42C344.878 24.7767 344.493 26.4083 344.493 28.315C344.493 30.185 344.878 31.8167 345.648 33.21C346.418 34.6033 347.463 35.6667 348.783 36.4C350.103 37.1333 351.588 37.5 353.238 37.5ZM391.713 43.385C389.33 43.385 387.148 42.835 385.168 41.735C383.225 40.635 381.666 38.985 380.493 36.785C379.356 34.5483 378.788 31.725 378.788 28.315C378.788 24.8683 379.338 22.045 380.438 19.845C381.575 17.645 383.115 16.0133 385.058 14.95C387.001 13.85 389.22 13.3 391.713 13.3C394.61 13.3 397.158 13.9233 399.358 15.17C401.595 16.4167 403.355 18.1583 404.638 20.395C405.958 22.6317 406.618 25.2717 406.618 28.315C406.618 31.3583 405.958 34.0167 404.638 36.29C403.355 38.5267 401.595 40.2683 399.358 41.515C397.158 42.7617 394.61 43.385 391.713 43.385ZM375.433 53.67V13.63H381.978V20.56L381.758 28.37L382.308 36.18V53.67H375.433ZM390.943 37.5C392.593 37.5 394.06 37.1333 395.343 36.4C396.663 35.6667 397.708 34.6033 398.478 33.21C399.248 31.8167 399.633 30.185 399.633 28.315C399.633 26.4083 399.248 24.7767 398.478 23.42C397.708 22.0267 396.663 20.9633 395.343 20.23C394.06 19.4967 392.593 19.13 390.943 19.13C389.293 19.13 387.808 19.4967 386.488 20.23C385.168 20.9633 384.123 22.0267 383.353 23.42C382.583 24.7767 382.198 26.4083 382.198 28.315C382.198 30.185 382.583 31.8167 383.353 33.21C384.123 34.6033 385.168 35.6667 386.488 36.4C387.808 37.1333 389.293 37.5 390.943 37.5ZM426.338 43.385C423.331 43.385 420.655 42.7433 418.308 41.46C415.961 40.14 414.11 38.3433 412.753 36.07C411.396 33.7967 410.718 31.2117 410.718 28.315C410.718 25.3817 411.396 22.7967 412.753 20.56C414.11 18.2867 415.961 16.5083 418.308 15.225C420.655 13.9417 423.331 13.3 426.338 13.3C429.381 13.3 432.076 13.9417 434.423 15.225C436.806 16.5083 438.658 18.2683 439.978 20.505C441.335 22.7417 442.013 25.345 442.013 28.315C442.013 31.2117 441.335 33.7967 439.978 36.07C438.658 38.3433 436.806 40.14 434.423 41.46C432.076 42.7433 429.381 43.385 426.338 43.385ZM426.338 37.5C428.025 37.5 429.528 37.1333 430.848 36.4C432.168 35.6667 433.195 34.6033 433.928 33.21C434.698 31.8167 435.083 30.185 435.083 28.315C435.083 26.4083 434.698 24.7767 433.928 23.42C433.195 22.0267 432.168 20.9633 430.848 20.23C429.528 19.4967 428.043 19.13 426.393 19.13C424.706 19.13 423.203 19.4967 421.883 20.23C420.6 20.9633 419.573 22.0267 418.803 23.42C418.033 24.7767 417.648 26.4083 417.648 28.315C417.648 30.185 418.033 31.8167 418.803 33.21C419.573 34.6033 420.6 35.6667 421.883 36.4C423.203 37.1333 424.688 37.5 426.338 37.5ZM448.587 43V13.63H455.132V21.715L454.362 19.35C455.242 17.37 456.617 15.8667 458.487 14.84C460.394 13.8133 462.759 13.3 465.582 13.3V19.845C465.289 19.7717 465.014 19.735 464.757 19.735C464.5 19.6983 464.244 19.68 463.987 19.68C461.384 19.68 459.312 20.45 457.772 21.99C456.232 23.4933 455.462 25.7483 455.462 28.755V43H448.587ZM483.544 43.385C480.317 43.385 477.824 42.56 476.064 40.91C474.304 39.2233 473.424 36.7483 473.424 33.485V7.14H480.299V33.32C480.299 34.7133 480.647 35.795 481.344 36.565C482.077 37.335 483.085 37.72 484.369 37.72C485.909 37.72 487.192 37.3167 488.219 36.51L490.144 41.405C489.337 42.065 488.347 42.56 487.174 42.89C486 43.22 484.79 43.385 483.544 43.385ZM468.584 19.35V13.85H488.164V19.35H468.584ZM508.229 43.385C505.736 43.385 503.536 42.9267 501.629 42.01C499.722 41.0567 498.237 39.6267 497.174 37.72C496.111 35.7767 495.579 33.3383 495.579 30.405V13.63H502.454V29.47C502.454 32.11 503.041 34.09 504.214 35.41C505.424 36.6933 507.129 37.335 509.329 37.335C510.942 37.335 512.336 37.005 513.509 36.345C514.719 35.685 515.654 34.695 516.314 33.375C517.011 32.055 517.359 30.4233 517.359 28.48V13.63H524.234V43H517.689V35.08L518.844 37.5C517.854 39.4067 516.406 40.8733 514.499 41.9C512.592 42.89 510.502 43.385 508.229 43.385ZM549.901 13.3C552.247 13.3 554.337 13.7583 556.171 14.675C558.041 15.5917 559.507 17.0033 560.571 18.91C561.634 20.78 562.166 23.2 562.166 26.17V43H555.291V27.05C555.291 24.4467 554.667 22.5033 553.421 21.22C552.211 19.9367 550.506 19.295 548.306 19.295C546.692 19.295 545.262 19.625 544.016 20.285C542.769 20.945 541.797 21.935 541.101 23.255C540.441 24.5383 540.111 26.17 540.111 28.15V43H533.236V13.63H539.781V21.55L538.626 19.13C539.652 17.26 541.137 15.83 543.081 14.84C545.061 13.8133 547.334 13.3 549.901 13.3ZM570.887 43V13.63H577.762V43H570.887ZM574.352 8.79C573.069 8.79 572.005 8.38666 571.162 7.58C570.355 6.77333 569.952 5.80167 569.952 4.665C569.952 3.49167 570.355 2.52 571.162 1.75C572.005 0.943332 573.069 0.539999 574.352 0.539999C575.635 0.539999 576.68 0.924999 577.487 1.695C578.33 2.42833 578.752 3.36333 578.752 4.5C578.752 5.71 578.349 6.73666 577.542 7.58C576.735 8.38666 575.672 8.79 574.352 8.79ZM597.84 43.385C594.614 43.385 592.12 42.56 590.36 40.91C588.6 39.2233 587.72 36.7483 587.72 33.485V7.14H594.595V33.32C594.595 34.7133 594.944 35.795 595.64 36.565C596.374 37.335 597.382 37.72 598.665 37.72C600.205 37.72 601.489 37.3167 602.515 36.51L604.44 41.405C603.634 42.065 602.644 42.56 601.47 42.89C600.297 43.22 599.087 43.385 597.84 43.385ZM582.88 19.35V13.85H602.46V19.35H582.88ZM610.096 43V13.63H616.971V43H610.096ZM613.561 8.79C612.278 8.79 611.214 8.38666 610.371 7.58C609.564 6.77333 609.161 5.80167 609.161 4.665C609.161 3.49167 609.564 2.52 610.371 1.75C611.214 0.943332 612.278 0.539999 613.561 0.539999C614.844 0.539999 615.889 0.924999 616.696 1.695C617.539 2.42833 617.961 3.36333 617.961 4.5C617.961 5.71 617.558 6.73666 616.751 7.58C615.944 8.38666 614.881 8.79 613.561 8.79ZM639.799 43.385C636.536 43.385 633.676 42.7433 631.219 41.46C628.799 40.14 626.911 38.3433 625.554 36.07C624.234 33.7967 623.574 31.2117 623.574 28.315C623.574 25.3817 624.216 22.7967 625.499 20.56C626.819 18.2867 628.616 16.5083 630.889 15.225C633.199 13.9417 635.821 13.3 638.754 13.3C641.614 13.3 644.163 13.9233 646.399 15.17C648.636 16.4167 650.396 18.1767 651.679 20.45C652.963 22.7233 653.604 25.4 653.604 28.48C653.604 28.7733 653.586 29.1033 653.549 29.47C653.549 29.8367 653.531 30.185 653.494 30.515H629.019V25.95H649.864L647.169 27.38C647.206 25.6933 646.858 24.2083 646.124 22.925C645.391 21.6417 644.383 20.6333 643.099 19.9C641.853 19.1667 640.404 18.8 638.754 18.8C637.068 18.8 635.583 19.1667 634.299 19.9C633.053 20.6333 632.063 21.66 631.329 22.98C630.633 24.2633 630.284 25.785 630.284 27.545V28.645C630.284 30.405 630.688 31.9633 631.494 33.32C632.301 34.6767 633.438 35.7217 634.904 36.455C636.371 37.1883 638.058 37.555 639.964 37.555C641.614 37.555 643.099 37.2983 644.419 36.785C645.739 36.2717 646.913 35.465 647.939 34.365L651.624 38.6C650.304 40.14 648.636 41.3317 646.619 42.175C644.639 42.9817 642.366 43.385 639.799 43.385ZM669.283 43.385C666.827 43.385 664.462 43.0733 662.188 42.45C659.952 41.79 658.173 41.0017 656.853 40.085L659.493 34.86C660.813 35.7033 662.39 36.4 664.223 36.95C666.057 37.5 667.89 37.775 669.723 37.775C671.887 37.775 673.445 37.4817 674.398 36.895C675.388 36.3083 675.883 35.52 675.883 34.53C675.883 33.7233 675.553 33.1183 674.893 32.715C674.233 32.275 673.372 31.945 672.308 31.725C671.245 31.505 670.053 31.3033 668.733 31.12C667.45 30.9367 666.148 30.6983 664.828 30.405C663.545 30.075 662.372 29.6167 661.308 29.03C660.245 28.4067 659.383 27.5817 658.723 26.555C658.063 25.5283 657.733 24.1717 657.733 22.485C657.733 20.615 658.265 19.0017 659.328 17.645C660.392 16.2517 661.877 15.1883 663.783 14.455C665.727 13.685 668.018 13.3 670.658 13.3C672.638 13.3 674.637 13.52 676.653 13.96C678.67 14.4 680.338 15.0233 681.658 15.83L679.018 21.055C677.625 20.2117 676.213 19.6433 674.783 19.35C673.39 19.02 671.997 18.855 670.603 18.855C668.513 18.855 666.955 19.1667 665.928 19.79C664.938 20.4133 664.443 21.2017 664.443 22.155C664.443 23.035 664.773 23.695 665.433 24.135C666.093 24.575 666.955 24.9233 668.018 25.18C669.082 25.4367 670.255 25.6567 671.538 25.84C672.858 25.9867 674.16 26.225 675.443 26.555C676.727 26.885 677.9 27.3433 678.963 27.93C680.063 28.48 680.943 29.2683 681.603 30.295C682.263 31.3217 682.593 32.66 682.593 34.31C682.593 36.1433 682.043 37.7383 680.943 39.095C679.88 40.4517 678.358 41.515 676.378 42.285C674.398 43.0183 672.033 43.385 669.283 43.385Z" fill="#020126"/>
</svg>
