<svg
   width="555"
   height="123"
   viewBox="0 0 555 123"
   
fill="none" xmlns="http://www.w3.org/2000/svg">
  <rect
     style="fill:#9efbb2;fill-opacity:1;stroke-width:0.788455"
     id="rect5065"
     width="334.07068"
     height="8.7703514"
     x="0.81078237"
     y="106.44017" />
  <rect
     style="fill:#9efbb2;fill-opacity:1;stroke-width:1.00886"
     id="rect2798"
     width="546.95105"
     height="8.7703514"
     x="0.013476324"
     y="28.304316" />
  <path
     d="M 8.5614907,15.9628 H 23.525491 v 4.601 H 8.5614907 Z m 0.43,12.9 H 25.976491 v 4.687 H 3.4014927 v -30.1 H 25.374491 v 4.687 H 8.9914907 Z M 44.721091,10.3298 c 1.8347,0 3.4687,0.3583 4.902,1.075 1.462,0.7167 2.6087,1.8203 3.44,3.311 0.8314,1.462 1.247,3.354 1.247,5.676 v 13.158 h -5.375 v -12.47 c 0,-2.0353 -0.4873,-3.5547 -1.462,-4.558 -0.946,-1.0033 -2.279,-1.505 -3.999,-1.505 -1.2613,0 -2.3793,0.258 -3.354,0.774 -0.9746,0.516 -1.7343,1.29 -2.279,2.322 -0.516,1.0033 -0.774,2.279 -0.774,3.827 v 11.61 h -5.375 v -22.962 h 5.117 v 6.192 l -0.903,-1.892 c 0.8027,-1.462 1.9637,-2.58 3.483,-3.354 1.548,-0.8027 3.3254,-1.204 5.332,-1.204 z m 25.0506,23.521 c -2.5227,0 -4.472,-0.645 -5.848,-1.935 -1.376,-1.3187 -2.064,-3.2537 -2.064,-5.805 V 5.5138 h 5.375 v 20.468 c 0,1.0893 0.2723,1.935 0.817,2.537 0.5733,0.602 1.3616,0.903 2.365,0.903 1.204,0 2.2073,-0.3153 3.01,-0.946 l 1.505,3.827 c -0.6307,0.516 -1.4047,0.903 -2.322,1.161 -0.9174,0.258 -1.8634,0.387 -2.838,0.387 z m -11.696,-18.791 v -4.3 h 15.308 v 4.3 z m 21.2776,18.49 v -22.962 h 5.117 v 6.321 l -0.602,-1.849 c 0.688,-1.548 1.763,-2.7233 3.225,-3.526 1.4906,-0.8027 3.3396,-1.204 5.547,-1.204 v 5.117 c -0.2294,-0.0573 -0.4444,-0.086 -0.645,-0.086 -0.2007,-0.0287 -0.4014,-0.043 -0.602,-0.043 -2.0354,0 -3.655,0.602 -4.859,1.806 -1.204,1.1753 -1.806,2.9383 -1.806,5.289 v 11.137 z m 28.430099,0.301 c -2.552,0 -4.788,-0.5017 -6.7084,-1.505 -1.891999,-1.032 -3.368299,-2.4367 -4.428999,-4.214 -1.032,-1.7773 -1.548,-3.7983 -1.548,-6.063 0,-2.2933 0.5017,-4.3143 1.505,-6.063 1.032,-1.7773 2.4367,-3.1677 4.213999,-4.171 1.8064,-1.0033 3.8554,-1.505 6.1494,-1.505 2.236,0 4.228,0.4873 5.977,1.462 1.748,0.9747 3.124,2.3507 4.128,4.128 1.003,1.7773 1.505,3.87 1.505,6.278 0,0.2293 -0.015,0.4873 -0.043,0.774 0,0.2867 -0.015,0.559 -0.043,0.817 H 99.354991 v -3.569 h 16.297399 l -2.107,1.118 c 0.028,-1.3187 -0.244,-2.4797 -0.817,-3.483 -0.574,-1.0033 -1.362,-1.7917 -2.365,-2.365 -0.975,-0.5733 -2.107,-0.86 -3.397,-0.86 -1.319,0 -2.48,0.2867 -3.483,0.86 -0.975,0.5733 -1.7491,1.376 -2.3224,2.408 -0.5447,1.0033 -0.817,2.193 -0.817,3.569 v 0.86 c 0,1.376 0.3153,2.5943 0.946,3.655 0.6307,1.0607 1.5194,1.8777 2.6664,2.451 1.146,0.5733 2.465,0.86 3.956,0.86 1.29,0 2.451,-0.2007 3.483,-0.602 1.032,-0.4013 1.949,-1.032 2.752,-1.892 l 2.881,3.311 c -1.032,1.204 -2.337,2.1357 -3.913,2.795 -1.548,0.6307 -3.326,0.946 -5.332,0.946 z m 28.684,0 c -1.864,0 -3.569,-0.43 -5.117,-1.29 -1.52,-0.86 -2.738,-2.15 -3.655,-3.87 -0.889,-1.7487 -1.333,-3.956 -1.333,-6.622 0,-2.6947 0.43,-4.902 1.29,-6.622 0.888,-1.72 2.092,-2.9957 3.612,-3.827 1.519,-0.86 3.253,-1.29 5.203,-1.29 2.264,0 4.257,0.4873 5.977,1.462 1.748,0.9747 3.124,2.3363 4.128,4.085 1.032,1.7487 1.548,3.8127 1.548,6.192 0,2.3793 -0.516,4.4577 -1.548,6.235 -1.004,1.7487 -2.38,3.1103 -4.128,4.085 -1.72,0.9747 -3.713,1.462 -5.977,1.462 z m -12.728,8.041 v -31.304 h 5.117 v 5.418 l -0.172,6.106 0.43,6.106 v 13.674 z m 12.126,-12.642 c 1.29,0 2.436,-0.2867 3.44,-0.86 1.032,-0.5733 1.849,-1.4047 2.451,-2.494 0.602,-1.0893 0.903,-2.365 0.903,-3.827 0,-1.4907 -0.301,-2.7663 -0.903,-3.827 -0.602,-1.0893 -1.419,-1.9207 -2.451,-2.494 -1.004,-0.5733 -2.15,-0.86 -3.44,-0.86 -1.29,0 -2.451,0.2867 -3.483,0.86 -1.032,0.5733 -1.849,1.4047 -2.451,2.494 -0.602,1.0607 -0.903,2.3363 -0.903,3.827 0,1.462 0.301,2.7377 0.903,3.827 0.602,1.0893 1.419,1.9207 2.451,2.494 1.032,0.5733 2.193,0.86 3.483,0.86 z m 17.352,4.3 v -22.962 h 5.117 v 6.321 l -0.602,-1.849 c 0.688,-1.548 1.763,-2.7233 3.225,-3.526 1.491,-0.8027 3.34,-1.204 5.547,-1.204 v 5.117 c -0.229,-0.0573 -0.444,-0.086 -0.645,-0.086 -0.201,-0.0287 -0.401,-0.043 -0.602,-0.043 -2.035,0 -3.655,0.602 -4.859,1.806 -1.204,1.1753 -1.806,2.9383 -1.806,5.289 v 11.137 z m 28.43,0.301 c -2.551,0 -4.787,-0.5017 -6.708,-1.505 -1.892,-1.032 -3.368,-2.4367 -4.429,-4.214 -1.032,-1.7773 -1.548,-3.7983 -1.548,-6.063 0,-2.2933 0.502,-4.3143 1.505,-6.063 1.032,-1.7773 2.437,-3.1677 4.214,-4.171 1.806,-1.0033 3.856,-1.505 6.149,-1.505 2.236,0 4.228,0.4873 5.977,1.462 1.749,0.9747 3.125,2.3507 4.128,4.128 1.003,1.7773 1.505,3.87 1.505,6.278 0,0.2293 -0.014,0.4873 -0.043,0.774 0,0.2867 -0.014,0.559 -0.043,0.817 h -19.135 v -3.569 h 16.297 l -2.107,1.118 c 0.029,-1.3187 -0.244,-2.4797 -0.817,-3.483 -0.573,-1.0033 -1.362,-1.7917 -2.365,-2.365 -0.975,-0.5733 -2.107,-0.86 -3.397,-0.86 -1.319,0 -2.48,0.2867 -3.483,0.86 -0.975,0.5733 -1.749,1.376 -2.322,2.408 -0.545,1.0033 -0.817,2.193 -0.817,3.569 v 0.86 c 0,1.376 0.315,2.5943 0.946,3.655 0.631,1.0607 1.519,1.8777 2.666,2.451 1.147,0.5733 2.465,0.86 3.956,0.86 1.29,0 2.451,-0.2007 3.483,-0.602 1.032,-0.4013 1.949,-1.032 2.752,-1.892 l 2.881,3.311 c -1.032,1.204 -2.336,2.1357 -3.913,2.795 -1.548,0.6307 -3.325,0.946 -5.332,0.946 z m 28.985,-23.521 c 1.835,0 3.469,0.3583 4.902,1.075 1.462,0.7167 2.609,1.8203 3.44,3.311 0.831,1.462 1.247,3.354 1.247,5.676 v 13.158 h -5.375 v -12.47 c 0,-2.0353 -0.487,-3.5547 -1.462,-4.558 -0.946,-1.0033 -2.279,-1.505 -3.999,-1.505 -1.261,0 -2.379,0.258 -3.354,0.774 -0.975,0.516 -1.734,1.29 -2.279,2.322 -0.516,1.0033 -0.774,2.279 -0.774,3.827 v 11.61 h -5.375 v -22.962 h 5.117 v 6.192 l -0.903,-1.892 c 0.803,-1.462 1.964,-2.58 3.483,-3.354 1.548,-0.8027 3.325,-1.204 5.332,-1.204 z m 27.242,23.521 c -2.551,0 -4.787,-0.5017 -6.708,-1.505 -1.892,-1.032 -3.368,-2.4367 -4.429,-4.214 -1.032,-1.7773 -1.548,-3.7983 -1.548,-6.063 0,-2.2933 0.502,-4.3143 1.505,-6.063 1.032,-1.7773 2.437,-3.1677 4.214,-4.171 1.806,-1.0033 3.856,-1.505 6.149,-1.505 2.236,0 4.229,0.4873 5.977,1.462 1.749,0.9747 3.125,2.3507 4.128,4.128 1.004,1.7773 1.505,3.87 1.505,6.278 0,0.2293 -0.014,0.4873 -0.043,0.774 0,0.2867 -0.014,0.559 -0.043,0.817 h -19.135 v -3.569 h 16.297 l -2.107,1.118 c 0.029,-1.3187 -0.243,-2.4797 -0.817,-3.483 -0.573,-1.0033 -1.361,-1.7917 -2.365,-2.365 -0.974,-0.5733 -2.107,-0.86 -3.397,-0.86 -1.318,0 -2.479,0.2867 -3.483,0.86 -0.974,0.5733 -1.748,1.376 -2.322,2.408 -0.544,1.0033 -0.817,2.193 -0.817,3.569 v 0.86 c 0,1.376 0.316,2.5943 0.946,3.655 0.631,1.0607 1.52,1.8777 2.666,2.451 1.147,0.5733 2.466,0.86 3.956,0.86 1.29,0 2.451,-0.2007 3.483,-0.602 1.032,-0.4013 1.95,-1.032 2.752,-1.892 l 2.881,3.311 c -1.032,1.204 -2.336,2.1357 -3.913,2.795 -1.548,0.6307 -3.325,0.946 -5.332,0.946 z m 25.674,0 c -1.949,0 -3.669,-0.3583 -5.16,-1.075 -1.49,-0.7453 -2.651,-1.8633 -3.483,-3.354 -0.831,-1.5193 -1.247,-3.4257 -1.247,-5.719 v -13.115 h 5.375 v 12.384 c 0,2.064 0.459,3.612 1.376,4.644 0.946,1.0033 2.279,1.505 3.999,1.505 1.262,0 2.351,-0.258 3.268,-0.774 0.946,-0.516 1.677,-1.29 2.193,-2.322 0.545,-1.032 0.817,-2.3077 0.817,-3.827 v -11.61 h 5.375 v 22.962 h -5.117 v -6.192 l 0.903,1.892 c -0.774,1.4907 -1.906,2.6373 -3.397,3.44 -1.49,0.774 -3.124,1.161 -4.902,1.161 z m 19.551,-0.301 v -22.962 h 5.117 v 6.321 l -0.602,-1.849 c 0.688,-1.548 1.763,-2.7233 3.225,-3.526 1.491,-0.8027 3.34,-1.204 5.547,-1.204 v 5.117 c -0.229,-0.0573 -0.444,-0.086 -0.645,-0.086 -0.201,-0.0287 -0.401,-0.043 -0.602,-0.043 -2.035,0 -3.655,0.602 -4.859,1.806 -1.204,1.1753 -1.806,2.9383 -1.806,5.289 v 11.137 z m 30.456,0 v -30.1 h 4.601 l 13.158,21.973 h -2.408 l 12.943,-21.973 h 4.601 l 0.043,30.1 h -5.289 l -0.043,-21.801 h 1.118 l -11.008,18.361 h -2.494 l -11.18,-18.361 h 1.29 v 21.801 z m 54.7,0 v -4.644 l -0.301,-0.989 v -8.127 c 0,-1.5767 -0.473,-2.795 -1.419,-3.655 -0.946,-0.8887 -2.38,-1.333 -4.3,-1.333 -1.29,0 -2.566,0.2007 -3.827,0.602 -1.233,0.4013 -2.279,0.9603 -3.139,1.677 l -2.107,-3.913 c 1.232,-0.946 2.694,-1.6483 4.386,-2.107 1.72,-0.4873 3.497,-0.731 5.332,-0.731 3.325,0 5.891,0.8027 7.697,2.408 1.834,1.5767 2.752,4.0277 2.752,7.353 v 13.459 z m -7.224,0.301 c -1.72,0 -3.225,-0.2867 -4.515,-0.86 -1.29,-0.602 -2.294,-1.419 -3.01,-2.451 -0.688,-1.0607 -1.032,-2.2503 -1.032,-3.569 0,-1.29 0.301,-2.451 0.903,-3.483 0.63,-1.032 1.648,-1.849 3.053,-2.451 1.404,-0.602 3.268,-0.903 5.59,-0.903 h 6.665 v 3.569 h -6.278 c -1.835,0 -3.068,0.301 -3.698,0.903 -0.631,0.5733 -0.946,1.29 -0.946,2.15 0,0.9747 0.387,1.7487 1.161,2.322 0.774,0.5733 1.849,0.86 3.225,0.86 1.318,0 2.494,-0.301 3.526,-0.903 1.06,-0.602 1.82,-1.4907 2.279,-2.666 l 0.903,3.225 c -0.516,1.3473 -1.448,2.3937 -2.795,3.139 -1.319,0.7453 -2.996,1.118 -5.031,1.118 z m 19.196,-0.301 v -22.962 h 5.117 v 6.321 l -0.602,-1.849 c 0.688,-1.548 1.763,-2.7233 3.225,-3.526 1.491,-0.8027 3.34,-1.204 5.547,-1.204 v 5.117 c -0.229,-0.0573 -0.444,-0.086 -0.645,-0.086 -0.201,-0.0287 -0.401,-0.043 -0.602,-0.043 -2.035,0 -3.655,0.602 -4.859,1.806 -1.204,1.1753 -1.806,2.9383 -1.806,5.289 v 11.137 z m 22.233,-5.117 0.129,-6.751 11.997,-11.094 h 6.45 l -10.191,10.234 -2.838,2.365 z m -4.386,5.117 V 1.6438 h 5.375 v 31.906 z m 17.329,0 -8.385,-10.363 3.397,-4.3 11.524,14.663 z m 19.877,0.301 c -2.552,0 -4.788,-0.5017 -6.708,-1.505 -1.892,-1.032 -3.369,-2.4367 -4.429,-4.214 -1.032,-1.7773 -1.548,-3.7983 -1.548,-6.063 0,-2.2933 0.501,-4.3143 1.505,-6.063 1.032,-1.7773 2.436,-3.1677 4.214,-4.171 1.806,-1.0033 3.855,-1.505 6.149,-1.505 2.236,0 4.228,0.4873 5.977,1.462 1.748,0.9747 3.124,2.3507 4.128,4.128 1.003,1.7773 1.505,3.87 1.505,6.278 0,0.2293 -0.015,0.4873 -0.043,0.774 0,0.2867 -0.015,0.559 -0.043,0.817 h -19.135 v -3.569 h 16.297 l -2.107,1.118 c 0.028,-1.3187 -0.244,-2.4797 -0.817,-3.483 -0.574,-1.0033 -1.362,-1.7917 -2.365,-2.365 -0.975,-0.5733 -2.107,-0.86 -3.397,-0.86 -1.319,0 -2.48,0.2867 -3.483,0.86 -0.975,0.5733 -1.749,1.376 -2.322,2.408 -0.545,1.0033 -0.817,2.193 -0.817,3.569 v 0.86 c 0,1.376 0.315,2.5943 0.946,3.655 0.63,1.0607 1.519,1.8777 2.666,2.451 1.146,0.5733 2.465,0.86 3.956,0.86 1.29,0 2.451,-0.2007 3.483,-0.602 1.032,-0.4013 1.949,-1.032 2.752,-1.892 l 2.881,3.311 c -1.032,1.204 -2.337,2.1357 -3.913,2.795 -1.548,0.6307 -3.326,0.946 -5.332,0.946 z m 24.599,0 c -2.523,0 -4.472,-0.645 -5.848,-1.935 -1.376,-1.3187 -2.064,-3.2537 -2.064,-5.805 V 5.5138 h 5.375 v 20.468 c 0,1.0893 0.272,1.935 0.817,2.537 0.573,0.602 1.361,0.903 2.365,0.903 1.204,0 2.207,-0.3153 3.01,-0.946 l 1.505,3.827 c -0.631,0.516 -1.405,0.903 -2.322,1.161 -0.918,0.258 -1.864,0.387 -2.838,0.387 z m -11.696,-18.791 v -4.3 h 15.308 v 4.3 z m 19.696,8.772 v -4.472 h 11.825 v 4.472 z m 23.339,-6.536 h 15.007 v 4.73 h -15.007 z m 0.473,16.254 h -5.59 v -30.1 h 21.973 v 4.687 h -16.383 z m 21.273,0 v -22.962 h 5.375 v 22.962 z m 2.709,-26.746 c -1.003,0 -1.834,-0.31533 -2.494,-0.946 -0.63,-0.63066 -0.946,-1.39033 -0.946,-2.279 0,-0.91733 0.316,-1.677 0.946,-2.279 0.66,-0.630663 1.491,-0.945996 2.494,-0.945996 1.004,0 1.821,0.301 2.451,0.902996 0.66,0.57334 0.989,1.30434 0.989,2.193 0,0.946 -0.315,1.74867 -0.946,2.408 -0.63,0.63067 -1.462,0.946 -2.494,0.946 z m 18.364,27.047 c -2.523,0 -4.472,-0.645 -5.848,-1.935 -1.376,-1.3187 -2.064,-3.2537 -2.064,-5.805 V 5.5138 h 5.375 v 20.468 c 0,1.0893 0.272,1.935 0.817,2.537 0.573,0.602 1.362,0.903 2.365,0.903 1.204,0 2.207,-0.3153 3.01,-0.946 l 1.505,3.827 c -0.631,0.516 -1.405,0.903 -2.322,1.161 -0.917,0.258 -1.863,0.387 -2.838,0.387 z m -11.696,-18.791 v -4.3 h 15.308 v 4.3 z M 3.4014927,113.55 V 83.4498 H 15.785491 c 2.666,0 4.945,0.43 6.837,1.29 1.9207,0.86 3.397,2.0927 4.429,3.698 1.032,1.6053 1.548,3.5117 1.548,5.719 0,2.2073 -0.516,4.1137 -1.548,5.719 -1.032,1.6052 -2.5083,2.8382 -4.429,3.6982 -1.892,0.86 -4.171,1.29 -6.837,1.29 H 6.4974907 l 2.494,-2.623 v 11.309 z m 5.589998,-10.707 -2.494,-2.709 h 9.0300003 c 2.4653,0 4.3143,-0.5162 5.547,-1.5482 1.2613,-1.0607 1.892,-2.537 1.892,-4.429 0,-1.9207 -0.6307,-3.397 -1.892,-4.429 -1.2327,-1.032 -3.0817,-1.548 -5.547,-1.548 H 6.4974907 l 2.494,-2.752 z M 33.455791,113.55 V 90.5878 h 5.117 v 6.321 l -0.602,-1.849 c 0.688,-1.548 1.763,-2.7233 3.225,-3.526 1.4907,-0.8027 3.3397,-1.204 5.547,-1.204 v 5.117 c -0.2293,-0.0573 -0.4443,-0.086 -0.645,-0.086 -0.2007,-0.0287 -0.4013,-0.043 -0.602,-0.043 -2.0353,0 -3.655,0.602 -4.859,1.806 -1.204,1.1753 -1.806,2.9382 -1.806,5.2892 v 11.137 z m 27.9567,0.301 c -2.3506,0 -4.4433,-0.502 -6.278,-1.505 -1.8346,-1.032 -3.2823,-2.437 -4.343,-4.214 -1.0606,-1.778 -1.591,-3.799 -1.591,-6.063 0,-2.2935 0.5304,-4.3145 1.591,-6.0632 1.0607,-1.7773 2.5084,-3.1677 4.343,-4.171 1.8347,-1.0033 3.9274,-1.505 6.278,-1.505 2.3794,0 4.4864,0.5017 6.321,1.505 1.8634,1.0033 3.311,2.3793 4.343,4.128 1.0607,1.7487 1.591,3.784 1.591,6.1062 0,2.264 -0.5303,4.285 -1.591,6.063 -1.032,1.777 -2.4796,3.182 -4.343,4.214 -1.8346,1.003 -3.9416,1.505 -6.321,1.505 z m 0,-4.601 c 1.3187,0 2.494,-0.287 3.526,-0.86 1.032,-0.574 1.8347,-1.405 2.408,-2.494 0.602,-1.09 0.903,-2.365 0.903,-3.827 0,-1.491 -0.301,-2.7665 -0.903,-3.8272 -0.5733,-1.0893 -1.376,-1.9207 -2.408,-2.494 -1.032,-0.5733 -2.193,-0.86 -3.483,-0.86 -1.3186,0 -2.494,0.2867 -3.526,0.86 -1.0033,0.5733 -1.806,1.4047 -2.408,2.494 -0.602,1.0607 -0.903,2.3362 -0.903,3.8272 0,1.462 0.301,2.737 0.903,3.827 0.602,1.089 1.4047,1.92 2.408,2.494 1.032,0.573 2.193,0.86 3.483,0.86 z m 27.8009,12.943 c -2.1214,0 -4.1997,-0.287 -6.235,-0.86 -2.0067,-0.545 -3.655,-1.348 -4.945,-2.408 l 2.408,-4.042 c 1.0033,0.831 2.2646,1.49 3.784,1.978 1.548,0.516 3.1103,0.774 4.687,0.774 2.5226,0 4.3716,-0.588 5.547,-1.763 1.1753,-1.147 1.763,-2.881 1.763,-5.203 v -4.085 l 0.43,-5.203 -0.172,-5.2032 v -5.59 h 5.116999 v 19.4792 c 0,4.156 -1.0607,7.209 -3.181999,9.159 -2.1214,1.978 -5.1887,2.967 -9.202,2.967 z m -0.688,-9.675 c -2.1787,0 -4.1567,-0.459 -5.934,-1.376 -1.7487,-0.946 -3.139,-2.251 -4.171,-3.913 -1.0034,-1.663 -1.505,-3.612 -1.505,-5.848 0,-2.2075 0.5016,-4.1425 1.505,-5.8052 1.032,-1.6627 2.4223,-2.9527 4.171,-3.87 1.7773,-0.9173 3.7553,-1.376 5.934,-1.376 1.9493,0 3.698,0.387 5.246,1.161 1.548,0.774 2.7806,1.978 3.698,3.612 0.946,1.634 1.419,3.7267 1.419,6.2782 0,2.551 -0.473,4.658 -1.419,6.321 -0.9174,1.634 -2.15,2.852 -3.698,3.655 -1.548,0.774 -3.2967,1.161 -5.246,1.161 z m 0.817,-4.558 c 1.3473,0 2.5513,-0.273 3.612,-0.817 1.0606,-0.574 1.8776,-1.348 2.451,-2.322 0.602,-1.004 0.903,-2.15 0.903,-3.44 0,-1.29 -0.301,-2.4225 -0.903,-3.3972 -0.5734,-1.0033 -1.3904,-1.763 -2.451,-2.279 -1.0607,-0.5447 -2.2647,-0.817 -3.612,-0.817 -1.3474,0 -2.5657,0.2723 -3.655,0.817 -1.0607,0.516 -1.892,1.2757 -2.494,2.279 -0.5734,0.9747 -0.86,2.1072 -0.86,3.3972 0,1.29 0.2866,2.436 0.86,3.44 0.602,0.974 1.4333,1.748 2.494,2.322 1.0893,0.544 2.3076,0.817 3.655,0.817 z m 19.320999,5.59 V 90.5878 h 5.117 v 6.321 l -0.602,-1.849 c 0.688,-1.548 1.763,-2.7233 3.225,-3.526 1.491,-0.8027 3.34,-1.204 5.547,-1.204 v 5.117 c -0.229,-0.0573 -0.444,-0.086 -0.645,-0.086 -0.2,-0.0287 -0.401,-0.043 -0.602,-0.043 -2.035,0 -3.655,0.602 -4.859,1.806 -1.204,1.1753 -1.806,2.9382 -1.806,5.2892 v 11.137 z m 30.356,0 v -4.644 l -0.301,-0.989 v -8.1272 c 0,-1.5767 -0.473,-2.795 -1.419,-3.655 -0.946,-0.8887 -2.379,-1.333 -4.3,-1.333 -1.29,0 -2.565,0.2007 -3.827,0.602 -1.232,0.4013 -2.279,0.9603 -3.139,1.677 l -2.107,-3.913 c 1.233,-0.946 2.695,-1.6483 4.386,-2.107 1.72,-0.4873 3.498,-0.731 5.332,-0.731 3.326,0 5.891,0.8027 7.697,2.408 1.835,1.5767 2.752,4.0277 2.752,7.3532 v 13.459 z m -7.224,0.301 c -1.72,0 -3.225,-0.287 -4.515,-0.86 -1.29,-0.602 -2.293,-1.419 -3.01,-2.451 -0.688,-1.061 -1.032,-2.251 -1.032,-3.569 0,-1.29 0.301,-2.451 0.903,-3.483 0.631,-1.032 1.649,-1.849 3.053,-2.451 1.405,-0.602 3.268,-0.903 5.59,-0.903 h 6.665 v 3.569 h -6.278 c -1.834,0 -3.067,0.301 -3.698,0.903 -0.63,0.573 -0.946,1.29 -0.946,2.15 0,0.974 0.387,1.748 1.161,2.322 0.774,0.573 1.849,0.86 3.225,0.86 1.319,0 2.494,-0.301 3.526,-0.903 1.061,-0.602 1.821,-1.491 2.279,-2.666 l 0.903,3.225 c -0.516,1.347 -1.447,2.393 -2.795,3.139 -1.318,0.745 -2.995,1.118 -5.031,1.118 z m 48.179,-23.5212 c 1.834,0 3.454,0.3583 4.859,1.075 1.433,0.7167 2.551,1.8203 3.354,3.311 0.802,1.462 1.204,3.354 1.204,5.6762 v 13.158 h -5.375 v -12.47 c 0,-2.0355 -0.445,-3.5549 -1.333,-4.5582 -0.889,-1.0033 -2.165,-1.505 -3.827,-1.505 -1.176,0 -2.222,0.258 -3.139,0.774 -0.889,0.516 -1.591,1.2757 -2.107,2.279 -0.488,1.0033 -0.731,2.2792 -0.731,3.8272 v 11.653 h -5.375 v -12.47 c 0,-2.0355 -0.445,-3.5549 -1.333,-4.5582 -0.889,-1.0033 -2.165,-1.505 -3.827,-1.505 -1.176,0 -2.222,0.258 -3.139,0.774 -0.889,0.516 -1.591,1.2757 -2.107,2.279 -0.488,1.0033 -0.731,2.2792 -0.731,3.8272 v 11.653 h -5.375 V 90.5878 h 5.117 v 6.106 l -0.903,-1.806 c 0.774,-1.4907 1.892,-2.623 3.354,-3.397 1.49,-0.774 3.182,-1.161 5.074,-1.161 2.15,0 4.013,0.5303 5.59,1.591 1.605,1.0607 2.666,2.666 3.182,4.816 l -2.107,-0.731 c 0.745,-1.72 1.978,-3.096 3.698,-4.128 1.72,-1.032 3.712,-1.548 5.977,-1.548 z m 33.501,31.5622 c -1.691,-2.609 -2.996,-5.619 -3.913,-9.03 -0.889,-3.44 -1.333,-7.138 -1.333,-11.094 0,-3.9562 0.444,-7.6542 1.333,-11.0942 0.917,-3.4687 2.222,-6.4787 3.913,-9.03 h 5.117 c -1.749,3.1533 -3.039,6.3783 -3.87,9.675 -0.803,3.268 -1.204,6.751 -1.204,10.4492 0,3.698 0.401,7.195 1.204,10.492 0.831,3.268 2.121,6.478 3.87,9.632 z m 15.251,-25.9292 h 14.964 v 4.6012 h -14.964 z m 0.43,12.9002 h 16.985 v 4.687 h -22.575 V 83.4498 h 21.973 v 4.687 h -16.383 z m 23.217,4.687 V 83.4498 h 4.601 l 13.158,21.9732 h -2.408 l 12.943,-21.9732 h 4.601 l 0.043,30.1002 h -5.289 l -0.043,-21.8012 h 1.118 l -11.008,18.3612 h -2.494 l -11.18,-18.3612 h 1.29 V 113.55 Z m 46.185,-16.2542 h 15.007 v 4.7302 h -15.007 z m 0.473,16.2542 h -5.59 V 83.4498 h 21.973 v 4.687 h -16.383 z m 23.6,8.342 h -5.117 c 1.777,-3.154 3.067,-6.364 3.87,-9.632 0.831,-3.297 1.247,-6.794 1.247,-10.492 0,-3.6982 -0.416,-7.1812 -1.247,-10.4492 -0.803,-3.2967 -2.093,-6.5217 -3.87,-9.675 h 5.117 c 1.72,2.5513 3.024,5.5613 3.913,9.03 0.889,3.44 1.333,7.138 1.333,11.0942 0,3.956 -0.444,7.654 -1.333,11.094 -0.889,3.411 -2.193,6.421 -3.913,9.03 z"
     fill="#000000"
     id="path2634" />
</svg>
