<svg width="49" height="154" viewBox="0 0 49 154" fill="none" xmlns="http://www.w3.org/2000/svg">
<path d="M0 0.58L49 0.58L49 20.74C49 25.08 48.3 28.79 46.9 31.87C45.5 34.9967 43.4933 37.4 40.88 39.08C38.2667 40.76 35.1633 41.6 31.57 41.6C27.9767 41.6 24.8733 40.76 22.26 39.08C19.6467 37.4 17.64 34.9967 16.24 31.87C14.84 28.79 14.14 25.08 14.14 20.74V5.62L18.41 9.68L0 9.68V0.58ZM17.43 9.68L21.84 5.62L21.84 20.32C21.84 24.3333 22.68 27.3433 24.36 29.35C26.0867 31.4033 28.49 32.43 31.57 32.43C34.6967 32.43 37.1 31.4033 38.78 29.35C40.46 27.3433 41.3 24.3333 41.3 20.32L41.3 5.62L45.78 9.68L17.43 9.68ZM0 50.6874L49 50.6874V58.1774L13.23 79.5974V75.6774L49 96.7474V104.237L0 104.307L0 95.6974L35.49 95.6274V97.4474L5.6 79.5274V75.4674L35.49 57.2674V59.3674H0V50.6874ZM26.46 125.873L26.46 150.303H18.76L18.76 125.873H26.46ZM0 126.643V117.543L49 117.543V153.313H41.37L41.37 126.643L0 126.643Z" fill="white"/>
</svg>
