<svg width="51" height="161" viewBox="0 0 51 161" fill="none" xmlns="http://www.w3.org/2000/svg">
<path d="M0.3 26.47C0.3 22.6433 0.906667 19.12 2.12 15.9C3.38 12.7267 5.13 9.95 7.37 7.57C9.65667 5.19 12.34 3.34667 15.42 2.04C18.5 0.733334 21.86 0.0800002 25.5 0.0800002C29.14 0.0800002 32.5 0.733334 35.58 2.04C38.66 3.34667 41.32 5.19 43.56 7.57C45.8467 9.99667 47.5967 12.82 48.81 16.04C50.07 19.26 50.7 22.7833 50.7 26.61C50.7 30.7633 50.0233 34.4967 48.67 37.81C47.3167 41.17 45.3333 43.9933 42.72 46.28L37.12 40.54C39.0333 38.6267 40.4333 36.55 41.32 34.31C42.2533 32.1167 42.72 29.69 42.72 27.03C42.72 24.4633 42.3 22.0833 41.46 19.89C40.62 17.6967 39.43 15.8067 37.89 14.22C36.35 12.6333 34.53 11.3967 32.43 10.51C30.33 9.67 28.02 9.25 25.5 9.25C23.0267 9.25 20.74 9.67 18.64 10.51C16.54 11.3967 14.6967 12.6333 13.11 14.22C11.57 15.8067 10.38 17.6733 9.54 19.82C8.7 21.9667 8.28 24.3467 8.28 26.96C8.28 29.3867 8.65333 31.72 9.4 33.96C10.1933 36.2467 11.5 38.4167 13.32 40.47L6.53 45.65C4.47667 43.0833 2.91333 40.0967 1.84 36.69C0.813333 33.33 0.3 29.9233 0.3 26.47ZM7.72 37.04H26.06V45.65H6.53L7.72 37.04ZM1 57.6523L50 57.6523V65.1423L14.23 86.5623V82.6423L50 103.712L50 111.202L1 111.272V102.662L36.49 102.592V104.412L6.6 86.4923V82.4323L36.49 64.2323V66.3323H1V57.6523ZM27.46 132.838L27.46 157.268H19.76L19.76 132.838H27.46ZM1 133.608V124.508L50 124.508V160.278H42.37L42.37 133.608L1 133.608Z" fill="white"/>
</svg>
