<svg width="49" height="151" viewBox="0 0 49 151" fill="none" xmlns="http://www.w3.org/2000/svg">
<path d="M28.63 8.98L28.63 33.34L21.14 33.34L21.14 8.98L28.63 8.98ZM7.63 9.68L7.63 37.33H0L0 0.58L49 0.58L49 36.35H41.37L41.37 9.68L7.63 9.68ZM0 47.4745L49 47.4745V54.9645L13.23 76.3845V72.4645L49 93.5345V101.025L0 101.095L0 92.4845L35.49 92.4145V94.2345L5.6 76.3145V72.2545L35.49 54.0545V56.1545L0 56.1545V47.4745ZM26.46 122.66V147.09H18.76V122.66H26.46ZM0 123.43V114.33L49 114.33V150.1H41.37V123.43L0 123.43Z" fill="white"/>
</svg>
