<svg
   width="110"
   height="33"
   viewBox="0 0 110 33"
   fill="none"
   xmlns="http://www.w3.org/2000/svg">
  <rect
     style="fill:#ffc1a7;fill-opacity:1;stroke-width:1.60708"
     id="rect304"
     width="110"
     height="10"
     x="0"
     y="16.110785" />
  <path
     d="M 6.35,19.225 6.105,13.835 18.95,0.499998 h 5.11 L 13.385,11.84 10.865,14.605 Z M 2.29,25 V 0.499998 H 6.84 V 25 Z M 19.37,25 9.99,13.835 13,10.51 24.69,25 Z m 5.8226,-7.91 v -3.64 h 9.625 v 3.64 z M 40.0244,25 V 0.499998 h 10.71 c 2.66,0 4.9933,0.513332 7,1.540002 2.0066,1.02667 3.57,2.45 4.69,4.27 1.12,1.82 1.68,3.9667 1.68,6.44 0,2.45 -0.56,4.5967 -1.68,6.44 -1.12,1.82 -2.6834,3.2433 -4.69,4.27 -2.0067,1.0267 -4.34,1.54 -7,1.54 z m 4.55,-3.85 h 5.95 c 1.8433,0 3.43,-0.35 4.76,-1.05 1.3533,-0.7 2.3916,-1.68 3.115,-2.94 0.7466,-1.26 1.12,-2.73 1.12,-4.41 0,-1.7033 -0.3734,-3.17333 -1.12,-4.41 C 57.676,7.08 56.6377,6.1 55.2844,5.4 53.9544,4.7 52.3677,4.35 50.5244,4.35 h -5.95 z M 80.0354,25 v -3.78 l -0.245,-0.805 V 13.8 c 0,-1.2833 -0.385,-2.275 -1.155,-2.975 -0.77,-0.7233 -1.9367,-1.085 -3.5,-1.085 -1.05,0 -2.0883,0.16333 -3.115,0.49 -1.0033,0.3267 -1.855,0.7817 -2.555,1.365 L 67.7504,8.41 c 1.0033,-0.77 2.1933,-1.34167 3.57,-1.715 1.4,-0.39667 2.8467,-0.595 4.34,-0.595 2.7067,0 4.795,0.65333 6.265,1.96 1.4933,1.28333 2.24,3.2783 2.24,5.985 V 25 Z m -5.88,0.245 c -1.4,0 -2.625,-0.2333 -3.675,-0.7 -1.05,-0.49 -1.8667,-1.155 -2.45,-1.995 -0.56,-0.8633 -0.84,-1.8317 -0.84,-2.905 0,-1.05 0.245,-1.995 0.735,-2.835 0.5133,-0.84 1.3417,-1.505 2.485,-1.995 1.1433,-0.49 2.66,-0.735 4.55,-0.735 h 5.425 v 2.905 h -5.11 c -1.4933,0 -2.4967,0.245 -3.01,0.735 -0.5133,0.4667 -0.77,1.05 -0.77,1.75 0,0.7933 0.315,1.4233 0.945,1.89 0.63,0.4667 1.505,0.7 2.625,0.7 1.0733,0 2.03,-0.245 2.87,-0.735 0.8633,-0.49 1.4817,-1.2133 1.855,-2.17 l 0.735,2.625 c -0.42,1.0967 -1.1783,1.9483 -2.275,2.555 -1.0733,0.6067 -2.4383,0.91 -4.095,0.91 z m 16.823,6.79 c -0.91,0 -1.82,-0.1517 -2.73,-0.455 -0.91,-0.3033 -1.6684,-0.7233 -2.275,-1.26 l 1.75,-3.22 c 0.4433,0.3967 0.945,0.7117 1.505,0.945 0.56,0.2333 1.1316,0.35 1.715,0.35 0.7933,0 1.435,-0.1983 1.925,-0.595 0.49,-0.3967 0.945,-1.0617 1.365,-1.995 l 1.085,-2.45 0.35,-0.525 7.0696,-16.52 h 4.2 l -8.7496,20.195 c -0.5834,1.4 -1.2367,2.5083 -1.96,3.325 -0.7,0.8167 -1.4934,1.3883 -2.38,1.715 -0.8634,0.3267 -1.82,0.49 -2.87,0.49 z m 3.85,-6.37 -8.435,-19.355 h 4.55 l 6.86,16.135 z"
     fill="#020126"
     id="path140" />
</svg>
