<svg width="537" height="123" viewBox="0 0 537 123" fill="none" xmlns="http://www.w3.org/2000/svg">
<path d="M6.1561 15.9628H21.1201V20.5638H6.1561V15.9628ZM6.5861 28.8628H23.5711V33.5498H0.996102V3.4498H22.9691V8.1368H6.5861V28.8628ZM42.3157 10.3298C44.1504 10.3298 45.7844 10.6881 47.2177 11.4048C48.6797 12.1215 49.8264 13.2251 50.6577 14.7158C51.4891 16.1778 51.9047 18.0698 51.9047 20.3918V33.5498H46.5297V21.0798C46.5297 19.0445 46.0424 17.5251 45.0677 16.5218C44.1217 15.5185 42.7887 15.0168 41.0687 15.0168C39.8074 15.0168 38.6894 15.2748 37.7147 15.7908C36.7401 16.3068 35.9804 17.0808 35.4357 18.1128C34.9197 19.1161 34.6617 20.3918 34.6617 21.9398V33.5498H29.2867V10.5878H34.4037V16.7798L33.5007 14.8878C34.3034 13.4258 35.4644 12.3078 36.9837 11.5338C38.5317 10.7311 40.3091 10.3298 42.3157 10.3298ZM67.3663 33.8508C64.8436 33.8508 62.8943 33.2058 61.5183 31.9158C60.1423 30.5971 59.4543 28.6621 59.4543 26.1108V5.5138H64.8293V25.9818C64.8293 27.0711 65.1016 27.9168 65.6463 28.5188C66.2196 29.1208 67.0079 29.4218 68.0113 29.4218C69.2153 29.4218 70.2186 29.1065 71.0213 28.4758L72.5263 32.3028C71.8956 32.8188 71.1216 33.2058 70.2043 33.4638C69.2869 33.7218 68.3409 33.8508 67.3663 33.8508ZM55.6703 15.0598V10.7598H70.9783V15.0598H55.6703ZM76.9479 33.5498V10.5878H82.0649V16.9088L81.4629 15.0598C82.1509 13.5118 83.2259 12.3365 84.6879 11.5338C86.1785 10.7311 88.0275 10.3298 90.2349 10.3298V15.4468C90.0055 15.3895 89.7905 15.3608 89.5899 15.3608C89.3892 15.3321 89.1885 15.3178 88.9879 15.3178C86.9525 15.3178 85.3329 15.9198 84.1289 17.1238C82.9249 18.2991 82.3229 20.0621 82.3229 22.4128V33.5498H76.9479ZM105.378 33.8508C102.826 33.8508 100.59 33.3491 98.6696 32.3458C96.7776 31.3138 95.3013 29.9091 94.2406 28.1318C93.2086 26.3545 92.6926 24.3335 92.6926 22.0688C92.6926 19.7755 93.1943 17.7545 94.1976 16.0058C95.2296 14.2285 96.6343 12.8381 98.4116 11.8348C100.218 10.8315 102.267 10.3298 104.561 10.3298C106.797 10.3298 108.789 10.8171 110.538 11.7918C112.286 12.7665 113.662 14.1425 114.666 15.9198C115.669 17.6971 116.171 19.7898 116.171 22.1978C116.171 22.4271 116.156 22.6851 116.128 22.9718C116.128 23.2585 116.113 23.5308 116.085 23.7888H96.9496V20.2198H113.247L111.14 21.3378C111.168 20.0191 110.896 18.8581 110.323 17.8548C109.749 16.8515 108.961 16.0631 107.958 15.4898C106.983 14.9165 105.851 14.6298 104.561 14.6298C103.242 14.6298 102.081 14.9165 101.078 15.4898C100.103 16.0631 99.3289 16.8658 98.7556 17.8978C98.2109 18.9011 97.9386 20.0908 97.9386 21.4668V22.3268C97.9386 23.7028 98.2539 24.9211 98.8846 25.9818C99.5153 27.0425 100.404 27.8595 101.551 28.4328C102.697 29.0061 104.016 29.2928 105.507 29.2928C106.797 29.2928 107.958 29.0921 108.99 28.6908C110.022 28.2895 110.939 27.6588 111.742 26.7988L114.623 30.1098C113.591 31.3138 112.286 32.2455 110.71 32.9048C109.162 33.5355 107.384 33.8508 105.378 33.8508ZM134.062 33.8508C132.198 33.8508 130.493 33.4208 128.945 32.5608C127.425 31.7008 126.207 30.4108 125.29 28.6908C124.401 26.9421 123.957 24.7348 123.957 22.0688C123.957 19.3741 124.387 17.1668 125.247 15.4468C126.135 13.7268 127.339 12.4511 128.859 11.6198C130.378 10.7598 132.112 10.3298 134.062 10.3298C136.326 10.3298 138.319 10.8171 140.039 11.7918C141.787 12.7665 143.163 14.1281 144.167 15.8768C145.199 17.6255 145.715 19.6895 145.715 22.0688C145.715 24.4481 145.199 26.5265 144.167 28.3038C143.163 30.0525 141.787 31.4141 140.039 32.3888C138.319 33.3635 136.326 33.8508 134.062 33.8508ZM121.334 41.8918V10.5878H126.451V16.0058L126.279 22.1118L126.709 28.2178V41.8918H121.334ZM133.46 29.2498C134.75 29.2498 135.896 28.9631 136.9 28.3898C137.932 27.8165 138.749 26.9851 139.351 25.8958C139.953 24.8065 140.254 23.5308 140.254 22.0688C140.254 20.5781 139.953 19.3025 139.351 18.2418C138.749 17.1525 137.932 16.3211 136.9 15.7478C135.896 15.1745 134.75 14.8878 133.46 14.8878C132.17 14.8878 131.009 15.1745 129.977 15.7478C128.945 16.3211 128.128 17.1525 127.526 18.2418C126.924 19.3025 126.623 20.5781 126.623 22.0688C126.623 23.5308 126.924 24.8065 127.526 25.8958C128.128 26.9851 128.945 27.8165 129.977 28.3898C131.009 28.9631 132.17 29.2498 133.46 29.2498ZM150.812 33.5498V10.5878H155.929V16.9088L155.327 15.0598C156.015 13.5118 157.09 12.3365 158.552 11.5338C160.043 10.7311 161.892 10.3298 164.099 10.3298V15.4468C163.87 15.3895 163.655 15.3608 163.454 15.3608C163.253 15.3321 163.053 15.3178 162.852 15.3178C160.817 15.3178 159.197 15.9198 157.993 17.1238C156.789 18.2991 156.187 20.0621 156.187 22.4128V33.5498H150.812ZM179.242 33.8508C176.691 33.8508 174.455 33.3491 172.534 32.3458C170.642 31.3138 169.166 29.9091 168.105 28.1318C167.073 26.3545 166.557 24.3335 166.557 22.0688C166.557 19.7755 167.059 17.7545 168.062 16.0058C169.094 14.2285 170.499 12.8381 172.276 11.8348C174.082 10.8315 176.132 10.3298 178.425 10.3298C180.661 10.3298 182.653 10.8171 184.402 11.7918C186.151 12.7665 187.527 14.1425 188.53 15.9198C189.533 17.6971 190.035 19.7898 190.035 22.1978C190.035 22.4271 190.021 22.6851 189.992 22.9718C189.992 23.2585 189.978 23.5308 189.949 23.7888H170.814V20.2198H187.111L185.004 21.3378C185.033 20.0191 184.76 18.8581 184.187 17.8548C183.614 16.8515 182.825 16.0631 181.822 15.4898C180.847 14.9165 179.715 14.6298 178.425 14.6298C177.106 14.6298 175.945 14.9165 174.942 15.4898C173.967 16.0631 173.193 16.8658 172.62 17.8978C172.075 18.9011 171.803 20.0908 171.803 21.4668V22.3268C171.803 23.7028 172.118 24.9211 172.749 25.9818C173.38 27.0425 174.268 27.8595 175.415 28.4328C176.562 29.0061 177.88 29.2928 179.371 29.2928C180.661 29.2928 181.822 29.0921 182.854 28.6908C183.886 28.2895 184.803 27.6588 185.606 26.7988L188.487 30.1098C187.455 31.3138 186.151 32.2455 184.574 32.9048C183.026 33.5355 181.249 33.8508 179.242 33.8508ZM208.227 10.3298C210.062 10.3298 211.696 10.6881 213.129 11.4048C214.591 12.1215 215.738 13.2251 216.569 14.7158C217.4 16.1778 217.816 18.0698 217.816 20.3918V33.5498H212.441V21.0798C212.441 19.0445 211.954 17.5251 210.979 16.5218C210.033 15.5185 208.7 15.0168 206.98 15.0168C205.719 15.0168 204.601 15.2748 203.626 15.7908C202.651 16.3068 201.892 17.0808 201.347 18.1128C200.831 19.1161 200.573 20.3918 200.573 21.9398V33.5498H195.198V10.5878H200.315V16.7798L199.412 14.8878C200.215 13.4258 201.376 12.3078 202.895 11.5338C204.443 10.7311 206.22 10.3298 208.227 10.3298ZM235.469 33.8508C232.918 33.8508 230.682 33.3491 228.761 32.3458C226.869 31.3138 225.393 29.9091 224.332 28.1318C223.3 26.3545 222.784 24.3335 222.784 22.0688C222.784 19.7755 223.286 17.7545 224.289 16.0058C225.321 14.2285 226.726 12.8381 228.503 11.8348C230.309 10.8315 232.359 10.3298 234.652 10.3298C236.888 10.3298 238.881 10.8171 240.629 11.7918C242.378 12.7665 243.754 14.1425 244.757 15.9198C245.761 17.6971 246.262 19.7898 246.262 22.1978C246.262 22.4271 246.248 22.6851 246.219 22.9718C246.219 23.2585 246.205 23.5308 246.176 23.7888H227.041V20.2198H243.338L241.231 21.3378C241.26 20.0191 240.988 18.8581 240.414 17.8548C239.841 16.8515 239.053 16.0631 238.049 15.4898C237.075 14.9165 235.942 14.6298 234.652 14.6298C233.334 14.6298 232.173 14.9165 231.169 15.4898C230.195 16.0631 229.421 16.8658 228.847 17.8978C228.303 18.9011 228.03 20.0908 228.03 21.4668V22.3268C228.03 23.7028 228.346 24.9211 228.976 25.9818C229.607 27.0425 230.496 27.8595 231.642 28.4328C232.789 29.0061 234.108 29.2928 235.598 29.2928C236.888 29.2928 238.049 29.0921 239.081 28.6908C240.113 28.2895 241.031 27.6588 241.833 26.7988L244.714 30.1098C243.682 31.3138 242.378 32.2455 240.801 32.9048C239.253 33.5355 237.476 33.8508 235.469 33.8508ZM261.143 33.8508C259.194 33.8508 257.474 33.4925 255.983 32.7758C254.493 32.0305 253.332 30.9125 252.5 29.4218C251.669 27.9025 251.253 25.9961 251.253 23.7028V10.5878H256.628V22.9718C256.628 25.0358 257.087 26.5838 258.004 27.6158C258.95 28.6191 260.283 29.1208 262.003 29.1208C263.265 29.1208 264.354 28.8628 265.271 28.3468C266.217 27.8308 266.948 27.0568 267.464 26.0248C268.009 24.9928 268.281 23.7171 268.281 22.1978V10.5878H273.656V33.5498H268.539V27.3578L269.442 29.2498C268.668 30.7405 267.536 31.8871 266.045 32.6898C264.555 33.4638 262.921 33.8508 261.143 33.8508ZM280.694 33.5498V10.5878H285.811V16.9088L285.209 15.0598C285.897 13.5118 286.972 12.3365 288.434 11.5338C289.925 10.7311 291.774 10.3298 293.981 10.3298V15.4468C293.752 15.3895 293.537 15.3608 293.336 15.3608C293.135 15.3321 292.935 15.3178 292.734 15.3178C290.699 15.3178 289.079 15.9198 287.875 17.1238C286.671 18.2991 286.069 20.0621 286.069 22.4128V33.5498H280.694ZM311.15 33.5498V3.4498H315.751L328.909 25.4228H326.501L339.444 3.4498H344.045L344.088 33.5498H338.799L338.756 11.7488H339.874L328.866 30.1098H326.372L315.192 11.7488H316.482V33.5498H311.15ZM365.85 33.5498V28.9058L365.549 27.9168V19.7898C365.549 18.2131 365.076 16.9948 364.13 16.1348C363.184 15.2461 361.75 14.8018 359.83 14.8018C358.54 14.8018 357.264 15.0025 356.003 15.4038C354.77 15.8051 353.724 16.3641 352.864 17.0808L350.757 13.1678C351.989 12.2218 353.451 11.5195 355.143 11.0608C356.863 10.5735 358.64 10.3298 360.475 10.3298C363.8 10.3298 366.366 11.1325 368.172 12.7378C370.006 14.3145 370.924 16.7655 370.924 20.0908V33.5498H365.85ZM358.626 33.8508C356.906 33.8508 355.401 33.5641 354.111 32.9908C352.821 32.3888 351.817 31.5718 351.101 30.5398C350.413 29.4791 350.069 28.2895 350.069 26.9708C350.069 25.6808 350.37 24.5198 350.972 23.4878C351.602 22.4558 352.62 21.6388 354.025 21.0368C355.429 20.4348 357.293 20.1338 359.615 20.1338H366.28V23.7028H360.002C358.167 23.7028 356.934 24.0038 356.304 24.6058C355.673 25.1791 355.358 25.8958 355.358 26.7558C355.358 27.7305 355.745 28.5045 356.519 29.0778C357.293 29.6511 358.368 29.9378 359.744 29.9378C361.062 29.9378 362.238 29.6368 363.27 29.0348C364.33 28.4328 365.09 27.5441 365.549 26.3688L366.452 29.5938C365.936 30.9411 365.004 31.9875 363.657 32.7328C362.338 33.4781 360.661 33.8508 358.626 33.8508ZM377.822 33.5498V10.5878H382.939V16.9088L382.337 15.0598C383.025 13.5118 384.1 12.3365 385.562 11.5338C387.053 10.7311 388.902 10.3298 391.109 10.3298V15.4468C390.88 15.3895 390.665 15.3608 390.464 15.3608C390.263 15.3321 390.063 15.3178 389.862 15.3178C387.827 15.3178 386.207 15.9198 385.003 17.1238C383.799 18.2991 383.197 20.0621 383.197 22.4128V33.5498H377.822ZM400.055 28.4328L400.184 21.6818L412.181 10.5878H418.631L408.44 20.8218L405.602 23.1868L400.055 28.4328ZM395.669 33.5498V1.6438H401.044V33.5498H395.669ZM412.998 33.5498L404.613 23.1868L408.01 18.8868L419.534 33.5498H412.998ZM432.875 33.8508C430.323 33.8508 428.087 33.3491 426.167 32.3458C424.275 31.3138 422.798 29.9091 421.738 28.1318C420.706 26.3545 420.19 24.3335 420.19 22.0688C420.19 19.7755 420.691 17.7545 421.695 16.0058C422.727 14.2285 424.131 12.8381 425.909 11.8348C427.715 10.8315 429.764 10.3298 432.058 10.3298C434.294 10.3298 436.286 10.8171 438.035 11.7918C439.783 12.7665 441.159 14.1425 442.163 15.9198C443.166 17.6971 443.668 19.7898 443.668 22.1978C443.668 22.4271 443.653 22.6851 443.625 22.9718C443.625 23.2585 443.61 23.5308 443.582 23.7888H424.447V20.2198H440.744L438.637 21.3378C438.665 20.0191 438.393 18.8581 437.82 17.8548C437.246 16.8515 436.458 16.0631 435.455 15.4898C434.48 14.9165 433.348 14.6298 432.058 14.6298C430.739 14.6298 429.578 14.9165 428.575 15.4898C427.6 16.0631 426.826 16.8658 426.253 17.8978C425.708 18.9011 425.436 20.0908 425.436 21.4668V22.3268C425.436 23.7028 425.751 24.9211 426.382 25.9818C427.012 27.0425 427.901 27.8595 429.048 28.4328C430.194 29.0061 431.513 29.2928 433.004 29.2928C434.294 29.2928 435.455 29.0921 436.487 28.6908C437.519 28.2895 438.436 27.6588 439.239 26.7988L442.12 30.1098C441.088 31.3138 439.783 32.2455 438.207 32.9048C436.659 33.5355 434.881 33.8508 432.875 33.8508ZM457.474 33.8508C454.951 33.8508 453.002 33.2058 451.626 31.9158C450.25 30.5971 449.562 28.6621 449.562 26.1108V5.5138H454.937V25.9818C454.937 27.0711 455.209 27.9168 455.754 28.5188C456.327 29.1208 457.115 29.4218 458.119 29.4218C459.323 29.4218 460.326 29.1065 461.129 28.4758L462.634 32.3028C462.003 32.8188 461.229 33.2058 460.312 33.4638C459.394 33.7218 458.448 33.8508 457.474 33.8508ZM445.778 15.0598V10.7598H461.086V15.0598H445.778ZM465.474 23.8318V19.3598H477.299V23.8318H465.474ZM488.813 17.2958H503.82V22.0258H488.813V17.2958ZM489.286 33.5498H483.696V3.4498H505.669V8.1368H489.286V33.5498ZM510.559 33.5498V10.5878H515.934V33.5498H510.559ZM513.268 6.8038C512.265 6.8038 511.434 6.48847 510.774 5.8578C510.144 5.22714 509.828 4.46747 509.828 3.5788C509.828 2.66147 510.144 1.9018 510.774 1.2998C511.434 0.669137 512.265 0.353804 513.268 0.353804C514.272 0.353804 515.089 0.654804 515.719 1.2568C516.379 1.83014 516.708 2.56114 516.708 3.4498C516.708 4.3958 516.393 5.19847 515.762 5.8578C515.132 6.48847 514.3 6.8038 513.268 6.8038ZM531.632 33.8508C529.109 33.8508 527.16 33.2058 525.784 31.9158C524.408 30.5971 523.72 28.6621 523.72 26.1108V5.5138H529.095V25.9818C529.095 27.0711 529.367 27.9168 529.912 28.5188C530.485 29.1208 531.274 29.4218 532.277 29.4218C533.481 29.4218 534.484 29.1065 535.287 28.4758L536.792 32.3028C536.161 32.8188 535.387 33.2058 534.47 33.4638C533.553 33.7218 532.607 33.8508 531.632 33.8508ZM519.936 15.0598V10.7598H535.244V15.0598H519.936ZM0.996102 113.55V83.4498H13.3801C16.0461 83.4498 18.3251 83.8798 20.2171 84.7398C22.1378 85.5998 23.6141 86.8325 24.6461 88.4378C25.6781 90.0431 26.1941 91.9495 26.1941 94.1568C26.1941 96.3641 25.6781 98.2705 24.6461 99.8758C23.6141 101.481 22.1378 102.714 20.2171 103.574C18.3251 104.434 16.0461 104.864 13.3801 104.864H4.0921L6.5861 102.241V113.55H0.996102ZM6.5861 102.843L4.0921 100.134H13.1221C15.5874 100.134 17.4364 99.6178 18.6691 98.5858C19.9304 97.5251 20.5611 96.0488 20.5611 94.1568C20.5611 92.2361 19.9304 90.7598 18.6691 89.7278C17.4364 88.6958 15.5874 88.1798 13.1221 88.1798H4.0921L6.5861 85.4278V102.843ZM31.0504 113.55V90.5878H36.1674V96.9088L35.5654 95.0598C36.2534 93.5118 37.3284 92.3365 38.7904 91.5338C40.2811 90.7311 42.1301 90.3298 44.3374 90.3298V95.4468C44.1081 95.3895 43.8931 95.3608 43.6924 95.3608C43.4917 95.3321 43.2911 95.3178 43.0904 95.3178C41.0551 95.3178 39.4354 95.9198 38.2314 97.1238C37.0274 98.2991 36.4254 100.062 36.4254 102.413V113.55H31.0504ZM59.0071 113.851C56.6565 113.851 54.5638 113.349 52.7291 112.346C50.8945 111.314 49.4468 109.909 48.3861 108.132C47.3255 106.354 46.7951 104.333 46.7951 102.069C46.7951 99.7755 47.3255 97.7545 48.3861 96.0058C49.4468 94.2285 50.8945 92.8381 52.7291 91.8348C54.5638 90.8315 56.6565 90.3298 59.0071 90.3298C61.3865 90.3298 63.4935 90.8315 65.3281 91.8348C67.1915 92.8381 68.6391 94.2141 69.6711 95.9628C70.7318 97.7115 71.2621 99.7468 71.2621 102.069C71.2621 104.333 70.7318 106.354 69.6711 108.132C68.6391 109.909 67.1915 111.314 65.3281 112.346C63.4935 113.349 61.3865 113.851 59.0071 113.851ZM59.0071 109.25C60.3258 109.25 61.5011 108.963 62.5331 108.39C63.5651 107.816 64.3678 106.985 64.9411 105.896C65.5431 104.806 65.8441 103.531 65.8441 102.069C65.8441 100.578 65.5431 99.3025 64.9411 98.2418C64.3678 97.1525 63.5651 96.3211 62.5331 95.7478C61.5011 95.1745 60.3401 94.8878 59.0501 94.8878C57.7315 94.8878 56.5561 95.1745 55.5241 95.7478C54.5208 96.3211 53.7181 97.1525 53.1161 98.2418C52.5141 99.3025 52.2131 100.578 52.2131 102.069C52.2131 103.531 52.5141 104.806 53.1161 105.896C53.7181 106.985 54.5208 107.816 55.5241 108.39C56.5561 108.963 57.7171 109.25 59.0071 109.25ZM86.808 122.193C84.6866 122.193 82.6083 121.906 80.573 121.333C78.5663 120.788 76.918 119.985 75.628 118.925L78.036 114.883C79.0393 115.714 80.3006 116.373 81.82 116.861C83.368 117.377 84.9303 117.635 86.507 117.635C89.0296 117.635 90.8786 117.047 92.054 115.872C93.2293 114.725 93.817 112.991 93.817 110.669V106.584L94.247 101.381L94.075 96.1778V90.5878H99.192V110.067C99.192 114.223 98.1313 117.276 96.01 119.226C93.8886 121.204 90.8213 122.193 86.808 122.193ZM86.12 112.518C83.9413 112.518 81.9633 112.059 80.186 111.142C78.4373 110.196 77.047 108.891 76.015 107.229C75.0116 105.566 74.51 103.617 74.51 101.381C74.51 99.1735 75.0116 97.2385 76.015 95.5758C77.047 93.9131 78.4373 92.6231 80.186 91.7058C81.9633 90.7885 83.9413 90.3298 86.12 90.3298C88.0693 90.3298 89.818 90.7168 91.366 91.4908C92.914 92.2648 94.1466 93.4688 95.064 95.1028C96.01 96.7368 96.483 98.8295 96.483 101.381C96.483 103.932 96.01 106.039 95.064 107.702C94.1466 109.336 92.914 110.554 91.366 111.357C89.818 112.131 88.0693 112.518 86.12 112.518ZM86.937 107.96C88.2843 107.96 89.4883 107.687 90.549 107.143C91.6096 106.569 92.4266 105.795 93 104.821C93.602 103.817 93.903 102.671 93.903 101.381C93.903 100.091 93.602 98.9585 93 97.9838C92.4266 96.9805 91.6096 96.2208 90.549 95.7048C89.4883 95.1601 88.2843 94.8878 86.937 94.8878C85.5896 94.8878 84.3713 95.1601 83.282 95.7048C82.2213 96.2208 81.39 96.9805 80.788 97.9838C80.2146 98.9585 79.928 100.091 79.928 101.381C79.928 102.671 80.2146 103.817 80.788 104.821C81.39 105.795 82.2213 106.569 83.282 107.143C84.3713 107.687 85.5896 107.96 86.937 107.96ZM106.258 113.55V90.5878H111.375V96.9088L110.773 95.0598C111.461 93.5118 112.536 92.3365 113.998 91.5338C115.489 90.7311 117.338 90.3298 119.545 90.3298V95.4468C119.316 95.3895 119.101 95.3608 118.9 95.3608C118.7 95.3321 118.499 95.3178 118.298 95.3178C116.263 95.3178 114.643 95.9198 113.439 97.1238C112.235 98.2991 111.633 100.062 111.633 102.413V113.55H106.258ZM136.614 113.55V108.906L136.313 107.917V99.7898C136.313 98.2131 135.84 96.9948 134.894 96.1348C133.948 95.2461 132.515 94.8018 130.594 94.8018C129.304 94.8018 128.029 95.0025 126.767 95.4038C125.535 95.8051 124.488 96.3641 123.628 97.0808L121.521 93.1678C122.754 92.2218 124.216 91.5195 125.907 91.0608C127.627 90.5735 129.405 90.3298 131.239 90.3298C134.565 90.3298 137.13 91.1325 138.936 92.7378C140.771 94.3145 141.688 96.7655 141.688 100.091V113.55H136.614ZM129.39 113.851C127.67 113.851 126.165 113.564 124.875 112.991C123.585 112.389 122.582 111.572 121.865 110.54C121.177 109.479 120.833 108.289 120.833 106.971C120.833 105.681 121.134 104.52 121.736 103.488C122.367 102.456 123.385 101.639 124.789 101.037C126.194 100.435 128.057 100.134 130.379 100.134H137.044V103.703H130.766C128.932 103.703 127.699 104.004 127.068 104.606C126.438 105.179 126.122 105.896 126.122 106.756C126.122 107.73 126.509 108.504 127.283 109.078C128.057 109.651 129.132 109.938 130.508 109.938C131.827 109.938 133.002 109.637 134.034 109.035C135.095 108.433 135.855 107.544 136.313 106.369L137.216 109.594C136.7 110.941 135.769 111.987 134.421 112.733C133.103 113.478 131.426 113.851 129.39 113.851ZM177.569 90.3298C179.403 90.3298 181.023 90.6881 182.428 91.4048C183.861 92.1215 184.979 93.2251 185.782 94.7158C186.584 96.1778 186.986 98.0698 186.986 100.392V113.55H181.611V101.08C181.611 99.0445 181.166 97.5251 180.278 96.5218C179.389 95.5185 178.113 95.0168 176.451 95.0168C175.275 95.0168 174.229 95.2748 173.312 95.7908C172.423 96.3068 171.721 97.0665 171.205 98.0698C170.717 99.0731 170.474 100.349 170.474 101.897V113.55H165.099V101.08C165.099 99.0445 164.654 97.5251 163.766 96.5218C162.877 95.5185 161.601 95.0168 159.939 95.0168C158.763 95.0168 157.717 95.2748 156.8 95.7908C155.911 96.3068 155.209 97.0665 154.693 98.0698C154.205 99.0731 153.962 100.349 153.962 101.897V113.55H148.587V90.5878H153.704V96.6938L152.801 94.8878C153.575 93.3971 154.693 92.2648 156.155 91.4908C157.645 90.7168 159.337 90.3298 161.229 90.3298C163.379 90.3298 165.242 90.8601 166.819 91.9208C168.424 92.9815 169.485 94.5868 170.001 96.7368L167.894 96.0058C168.639 94.2858 169.872 92.9098 171.592 91.8778C173.312 90.8458 175.304 90.3298 177.569 90.3298ZM211.07 121.892C209.379 119.283 208.074 116.273 207.157 112.862C206.268 109.422 205.824 105.724 205.824 101.768C205.824 97.8118 206.268 94.1138 207.157 90.6738C208.074 87.2051 209.379 84.1951 211.07 81.6438H216.187C214.438 84.7971 213.148 88.0221 212.317 91.3188C211.514 94.5868 211.113 98.0698 211.113 101.768C211.113 105.466 211.514 108.963 212.317 112.26C213.148 115.528 214.438 118.738 216.187 121.892H211.07ZM226.321 95.9628H241.285V100.564H226.321V95.9628ZM226.751 108.863H243.736V113.55H221.161V83.4498H243.134V88.1368H226.751V108.863ZM249.968 113.55V83.4498H254.569L267.727 105.423H265.319L278.262 83.4498H282.863L282.906 113.55H277.617L277.574 91.7488H278.692L267.684 110.11H265.19L254.01 91.7488H255.3V113.55H249.968ZM296.153 97.2958H311.16V102.026H296.153V97.2958ZM296.626 113.55H291.036V83.4498H313.009V88.1368H296.626V113.55ZM320.226 121.892H315.109C316.886 118.738 318.176 115.528 318.979 112.26C319.81 108.963 320.226 105.466 320.226 101.768C320.226 98.0698 319.81 94.5868 318.979 91.3188C318.176 88.0221 316.886 84.7971 315.109 81.6438H320.226C321.946 84.1951 323.25 87.2051 324.139 90.6738C325.028 94.1138 325.472 97.8118 325.472 101.768C325.472 105.724 325.028 109.422 324.139 112.862C323.25 116.273 321.946 119.283 320.226 121.892Z" fill="black"/>
</svg>
