<svg
   width="345"
   height="122"
   viewBox="0 0 345 122"
   fill="none"
   xmlns="http://www.w3.org/2000/svg">
  <rect
     style="fill:#fdffa0;stroke-width:0.987324;fill-opacity:1"
     id="rect305"
     width="296.18875"
     height="8"
     x="0.49737829"
     y="20.889889" />
  <rect
     style="fill:#fdffa0;fill-opacity:1;stroke-width:1.06278"
     id="rect305-0"
     width="343.19101"
     height="8"
     x="0.12436171"
     y="102.19026" />
  <path
     d="m 20.5429,32.8172 c -2.3506,0 -4.515,-0.3727 -6.493,-1.118 -1.94929,-0.774 -3.65496,-1.849 -5.11696,-3.225 -1.462,-1.4047 -2.59433,-3.053 -3.397,-4.945 -0.802665,-1.892 -1.203998,-3.956 -1.203998,-6.192 0,-2.236 0.401333,-4.3 1.203998,-6.192 0.80267,-1.89199 1.935,-3.52599 3.397,-4.90199 1.49067,-1.40467 3.225,-2.47967 5.20296,-3.225 1.978,-0.774 4.1424,-1.161 6.493,-1.161 2.5514,0 4.8447,0.41566 6.88,1.24699 2.064,0.83134 3.7984,2.04967 5.203,3.65501 l -3.526,3.43999 c -1.1753,-1.17533 -2.451,-2.03533 -3.827,-2.57999 -1.3473,-0.57334 -2.838,-0.86 -4.472,-0.86 -1.5766,0 -3.0386,0.258 -4.386,0.774 -1.3473,0.516 -2.50829,1.247 -3.48296,2.193 -0.97466,0.94599 -1.73433,2.06399 -2.279,3.35399 -0.516,1.29 -0.774,2.709 -0.774,4.257 0,1.5193 0.258,2.924 0.774,4.214 0.54467,1.29 1.30434,2.4223 2.279,3.397 0.97467,0.946 2.12136,1.677 3.43996,2.193 1.3187,0.516 2.7807,0.774 4.386,0.774 1.4907,0 2.924,-0.2293 4.3,-0.688 1.4047,-0.4873 2.7377,-1.29 3.999,-2.408 l 3.182,4.171 c -1.5766,1.2613 -3.4113,2.2217 -5.504,2.881 -2.064,0.6307 -4.1566,0.946 -6.278,0.946 z m 6.493,-4.558 v -11.266 h 5.289 v 11.997 z m 22.4659,4.429 c -2.3507,0 -4.4434,-0.5017 -6.278,-1.505 -1.8347,-1.032 -3.2824,-2.4367 -4.343,-4.214 -1.0607,-1.7773 -1.591,-3.7983 -1.591,-6.063 0,-2.2933 0.5303,-4.3143 1.591,-6.063 1.0606,-1.7773 2.5083,-3.1677 4.343,-4.171 1.8346,-1.00333 3.9273,-1.50499 6.278,-1.50499 2.3793,0 4.4863,0.50166 6.321,1.50499 1.8633,1.0033 3.311,2.3793 4.343,4.128 1.0606,1.7487 1.591,3.784 1.591,6.106 0,2.2647 -0.5304,4.2857 -1.591,6.063 -1.032,1.7773 -2.4797,3.182 -4.343,4.214 -1.8347,1.0033 -3.9417,1.505 -6.321,1.505 z m 0,-4.601 c 1.3186,0 2.494,-0.2867 3.526,-0.86 1.032,-0.5733 1.8346,-1.4047 2.408,-2.494 0.602,-1.0893 0.903,-2.365 0.903,-3.827 0,-1.4907 -0.301,-2.7663 -0.903,-3.827 -0.5734,-1.0893 -1.376,-1.9207 -2.408,-2.494 -1.032,-0.5733 -2.193,-0.86 -3.483,-0.86 -1.3187,0 -2.494,0.2867 -3.526,0.86 -1.0034,0.5733 -1.806,1.4047 -2.408,2.494 -0.602,1.0607 -0.903,2.3363 -0.903,3.827 0,1.462 0.301,2.7377 0.903,3.827 0.602,1.0893 1.4046,1.9207 2.408,2.494 1.032,0.5733 2.193,0.86 3.483,0.86 z m 37.9216,4.601 c -2.5227,0 -4.472,-0.645 -5.848,-1.935 -1.376,-1.3187 -2.064,-3.2537 -2.064,-5.805 V 4.35121 h 5.375 V 24.8192 c 0,1.0893 0.2723,1.935 0.817,2.537 0.5733,0.602 1.3617,0.903 2.365,0.903 1.204,0 2.2073,-0.3153 3.01,-0.946 l 1.505,3.827 c -0.6307,0.516 -1.4047,0.903 -2.322,1.161 -0.9173,0.258 -1.8633,0.387 -2.838,0.387 z M 75.7274,13.8972 V 9.59721 h 15.308 v 4.29999 z m 30.8416,18.791 c -2.351,0 -4.4432,-0.5017 -6.2779,-1.505 -1.8346,-1.032 -3.2823,-2.4367 -4.343,-4.214 -1.0606,-1.7773 -1.591,-3.7983 -1.591,-6.063 0,-2.2933 0.5304,-4.3143 1.591,-6.063 1.0607,-1.7773 2.5084,-3.1677 4.343,-4.171 1.8347,-1.00333 3.9269,-1.50499 6.2779,-1.50499 2.379,0 4.486,0.50166 6.321,1.50499 1.863,1.0033 3.311,2.3793 4.343,4.128 1.061,1.7487 1.591,3.784 1.591,6.106 0,2.2647 -0.53,4.2857 -1.591,6.063 -1.032,1.7773 -2.48,3.182 -4.343,4.214 -1.835,1.0033 -3.942,1.505 -6.321,1.505 z m 0,-4.601 c 1.319,0 2.494,-0.2867 3.526,-0.86 1.032,-0.5733 1.835,-1.4047 2.408,-2.494 0.602,-1.0893 0.903,-2.365 0.903,-3.827 0,-1.4907 -0.301,-2.7663 -0.903,-3.827 -0.573,-1.0893 -1.376,-1.9207 -2.408,-2.494 -1.032,-0.5733 -2.193,-0.86 -3.483,-0.86 -1.319,0 -2.494,0.2867 -3.5259,0.86 -1.0033,0.5733 -1.806,1.4047 -2.408,2.494 -0.602,1.0607 -0.903,2.3363 -0.903,3.827 0,1.462 0.301,2.7377 0.903,3.827 0.602,1.0893 1.4047,1.9207 2.408,2.494 1.0319,0.5733 2.1929,0.86 3.4829,0.86 z m 29.795,4.3 v -30.1 h 4.601 l 13.158,21.973 h -2.408 l 12.943,-21.973 h 4.601 l 0.043,30.1 h -5.289 l -0.043,-21.801 h 1.118 l -11.008,18.361 h -2.494 l -11.18,-18.361 h 1.29 v 21.801 z m 54.699,0 v -4.644 l -0.301,-0.989 v -8.127 c 0,-1.5767 -0.473,-2.795 -1.419,-3.655 -0.946,-0.8887 -2.379,-1.333 -4.3,-1.333 -1.29,0 -2.566,0.2007 -3.827,0.602 -1.233,0.4013 -2.279,0.9603 -3.139,1.677 l -2.107,-3.913 c 1.233,-0.946 2.695,-1.6483 4.386,-2.10699 1.72,-0.48734 3.497,-0.731 5.332,-0.731 3.325,0 5.891,0.80266 7.697,2.40799 1.835,1.5767 2.752,4.0277 2.752,7.353 v 13.459 z m -7.224,0.301 c -1.72,0 -3.225,-0.2867 -4.515,-0.86 -1.29,-0.602 -2.293,-1.419 -3.01,-2.451 -0.688,-1.0607 -1.032,-2.2503 -1.032,-3.569 0,-1.29 0.301,-2.451 0.903,-3.483 0.631,-1.032 1.648,-1.849 3.053,-2.451 1.405,-0.602 3.268,-0.903 5.59,-0.903 h 6.665 v 3.569 h -6.278 c -1.835,0 -3.067,0.301 -3.698,0.903 -0.631,0.5733 -0.946,1.29 -0.946,2.15 0,0.9747 0.387,1.7487 1.161,2.322 0.774,0.5733 1.849,0.86 3.225,0.86 1.319,0 2.494,-0.301 3.526,-0.903 1.061,-0.602 1.82,-1.4907 2.279,-2.666 l 0.903,3.225 c -0.516,1.3473 -1.448,2.3937 -2.795,3.139 -1.319,0.7453 -2.996,1.118 -5.031,1.118 z m 19.196,-0.301 V 9.42521 h 5.117 v 6.32099 l -0.602,-1.849 c 0.688,-1.548 1.763,-2.7233 3.225,-3.526 1.491,-0.80266 3.34,-1.20399 5.547,-1.20399 v 5.11699 c -0.229,-0.0573 -0.444,-0.086 -0.645,-0.086 -0.2,-0.0287 -0.401,-0.043 -0.602,-0.043 -2.035,0 -3.655,0.602 -4.859,1.806 -1.204,1.1753 -1.806,2.9383 -1.806,5.289 v 11.137 z m 22.233,-5.117 0.129,-6.751 11.997,-11.09399 h 6.45 l -10.191,10.23399 -2.838,2.365 z m -4.386,5.117 V 0.481205 h 5.375 V 32.3872 Z m 17.329,0 -8.385,-10.363 3.397,-4.3 11.524,14.663 z m 19.877,0.301 c -2.551,0 -4.787,-0.5017 -6.708,-1.505 -1.892,-1.032 -3.368,-2.4367 -4.429,-4.214 -1.032,-1.7773 -1.548,-3.7983 -1.548,-6.063 0,-2.2933 0.502,-4.3143 1.505,-6.063 1.032,-1.7773 2.437,-3.1677 4.214,-4.171 1.806,-1.00333 3.856,-1.50499 6.149,-1.50499 2.236,0 4.228,0.48733 5.977,1.46199 1.749,0.9747 3.125,2.3507 4.128,4.128 1.003,1.7773 1.505,3.87 1.505,6.278 0,0.2293 -0.014,0.4873 -0.043,0.774 0,0.2867 -0.014,0.559 -0.043,0.817 H 249.66 v -3.569 h 16.297 l -2.107,1.118 c 0.029,-1.3187 -0.244,-2.4797 -0.817,-3.483 -0.573,-1.0033 -1.362,-1.7917 -2.365,-2.365 -0.975,-0.5733 -2.107,-0.86 -3.397,-0.86 -1.319,0 -2.48,0.2867 -3.483,0.86 -0.975,0.5733 -1.749,1.376 -2.322,2.408 -0.545,1.0033 -0.817,2.193 -0.817,3.569 v 0.86 c 0,1.376 0.315,2.5943 0.946,3.655 0.631,1.0607 1.519,1.8777 2.666,2.451 1.147,0.5733 2.465,0.86 3.956,0.86 1.29,0 2.451,-0.2007 3.483,-0.602 1.032,-0.4013 1.949,-1.032 2.752,-1.892 l 2.881,3.311 c -1.032,1.204 -2.336,2.1357 -3.913,2.795 -1.548,0.6307 -3.325,0.946 -5.332,0.946 z m 24.599,0 c -2.523,0 -4.472,-0.645 -5.848,-1.935 -1.376,-1.3187 -2.064,-3.2537 -2.064,-5.805 V 4.35121 h 5.375 V 24.8192 c 0,1.0893 0.272,1.935 0.817,2.537 0.573,0.602 1.362,0.903 2.365,0.903 1.204,0 2.207,-0.3153 3.01,-0.946 l 1.505,3.827 c -0.631,0.516 -1.405,0.903 -2.322,1.161 -0.917,0.258 -1.863,0.387 -2.838,0.387 z M 270.991,13.8972 V 9.59721 h 15.308 V 13.8972 Z M 6.48194,112.387 V 82.2872 H 18.8659 c 2.666,0 4.945,0.43 6.837,1.29 1.9207,0.86 3.397,2.0927 4.429,3.698 1.032,1.6053 1.548,3.5117 1.548,5.719 0,2.2073 -0.516,4.1137 -1.548,5.719 -1.032,1.6058 -2.5083,2.8378 -4.429,3.6978 -1.892,0.86 -4.171,1.29 -6.837,1.29 H 9.57794 l 2.494,-2.623 v 11.309 z m 5.59,-10.707 -2.494,-2.7088 h 9.02996 c 2.4654,0 4.3144,-0.516 5.547,-1.548 1.2614,-1.0607 1.892,-2.537 1.892,-4.429 0,-1.9207 -0.6306,-3.397 -1.892,-4.429 -1.2326,-1.032 -3.0816,-1.548 -5.547,-1.548 H 9.57794 l 2.494,-2.752 z M 36.5363,112.387 V 89.4252 h 5.117 v 6.321 l -0.602,-1.849 c 0.688,-1.548 1.763,-2.7233 3.225,-3.526 1.4906,-0.8027 3.3396,-1.204 5.547,-1.204 v 5.117 c -0.2294,-0.0573 -0.4444,-0.086 -0.645,-0.086 -0.2007,-0.0287 -0.4014,-0.043 -0.602,-0.043 -2.0354,0 -3.655,0.602 -4.859,1.806 -1.204,1.1753 -1.806,2.9383 -1.806,5.2888 v 11.137 z m 27.9567,0.301 c -2.3507,0 -4.4434,-0.501 -6.278,-1.505 -1.8347,-1.032 -3.2824,-2.436 -4.343,-4.214 -1.0607,-1.777 -1.591,-3.798 -1.591,-6.063 0,-2.2931 0.5303,-4.3141 1.591,-6.0628 1.0606,-1.7773 2.5083,-3.1677 4.343,-4.171 1.8346,-1.0033 3.9273,-1.505 6.278,-1.505 2.3793,0 4.4863,0.5017 6.321,1.505 1.8633,1.0033 3.311,2.3793 4.343,4.128 1.0606,1.7487 1.591,3.784 1.591,6.1058 0,2.265 -0.5304,4.286 -1.591,6.063 -1.032,1.778 -2.4797,3.182 -4.343,4.214 -1.8347,1.004 -3.9417,1.505 -6.321,1.505 z m 0,-4.601 c 1.3186,0 2.494,-0.286 3.526,-0.86 1.032,-0.573 1.8346,-1.404 2.408,-2.494 0.602,-1.089 0.903,-2.365 0.903,-3.827 0,-1.4905 -0.301,-2.7661 -0.903,-3.8268 -0.5734,-1.0893 -1.376,-1.9207 -2.408,-2.494 -1.032,-0.5733 -2.193,-0.86 -3.483,-0.86 -1.3187,0 -2.494,0.2867 -3.526,0.86 -1.0034,0.5733 -1.806,1.4047 -2.408,2.494 -0.602,1.0607 -0.903,2.3363 -0.903,3.8268 0,1.462 0.301,2.738 0.903,3.827 0.602,1.09 1.4046,1.921 2.408,2.494 1.032,0.574 2.193,0.86 3.483,0.86 z m 27.8008,12.943 c -2.1213,0 -4.1997,-0.286 -6.235,-0.86 -2.0067,-0.544 -3.655,-1.347 -4.945,-2.408 l 2.408,-4.042 c 1.0033,0.832 2.2647,1.491 3.784,1.978 1.548,0.516 3.1104,0.774 4.687,0.774 2.5227,0 4.3717,-0.587 5.547,-1.763 1.1754,-1.146 1.763,-2.881 1.763,-5.203 v -4.085 l 0.43,-5.203 -0.172,-5.2028 v -5.59 h 5.1172 v 19.4788 c 0,4.157 -1.0608,7.21 -3.1822,9.159 -2.1213,1.978 -5.1886,2.967 -9.202,2.967 z m -0.688,-9.675 c -2.1786,0 -4.1566,-0.458 -5.934,-1.376 -1.7487,-0.946 -3.139,-2.25 -4.171,-3.913 -1.0033,-1.662 -1.505,-3.612 -1.505,-5.848 0,-2.2071 0.5017,-4.1421 1.505,-5.8048 1.032,-1.6627 2.4223,-2.9527 4.171,-3.87 1.7774,-0.9173 3.7554,-1.376 5.934,-1.376 1.9494,0 3.698,0.387 5.246,1.161 1.548,0.774 2.7807,1.978 3.698,3.612 0.946,1.634 1.419,3.7267 1.419,6.2778 0,2.552 -0.473,4.659 -1.419,6.321 -0.9173,1.634 -2.15,2.853 -3.698,3.655 -1.548,0.774 -3.2966,1.161 -5.246,1.161 z m 0.817,-4.558 c 1.3474,0 2.5514,-0.272 3.612,-0.817 1.0607,-0.573 1.8777,-1.347 2.451,-2.322 0.602,-1.003 0.903,-2.15 0.903,-3.44 0,-1.2898 -0.301,-2.4221 -0.903,-3.3968 -0.5733,-1.0033 -1.3903,-1.763 -2.451,-2.279 -1.0606,-0.5447 -2.2646,-0.817 -3.612,-0.817 -1.3473,0 -2.5657,0.2723 -3.655,0.817 -1.0606,0.516 -1.892,1.2757 -2.494,2.279 -0.5733,0.9747 -0.86,2.107 -0.86,3.3968 0,1.29 0.2867,2.437 0.86,3.44 0.602,0.975 1.4334,1.749 2.494,2.322 1.0893,0.545 2.3077,0.817 3.655,0.817 z m 19.3212,5.59 V 89.4252 h 5.117 v 6.321 l -0.602,-1.849 c 0.688,-1.548 1.763,-2.7233 3.225,-3.526 1.491,-0.8027 3.34,-1.204 5.547,-1.204 v 5.117 c -0.229,-0.0573 -0.444,-0.086 -0.645,-0.086 -0.2,-0.0287 -0.401,-0.043 -0.602,-0.043 -2.035,0 -3.655,0.602 -4.859,1.806 -1.204,1.1753 -1.806,2.9383 -1.806,5.2888 v 11.137 z m 30.356,0 v -4.644 l -0.301,-0.989 v -8.1268 c 0,-1.5767 -0.473,-2.795 -1.419,-3.655 -0.946,-0.8887 -2.379,-1.333 -4.3,-1.333 -1.29,0 -2.565,0.2007 -3.827,0.602 -1.232,0.4013 -2.279,0.9603 -3.139,1.677 l -2.107,-3.913 c 1.233,-0.946 2.695,-1.6483 4.386,-2.107 1.72,-0.4873 3.498,-0.731 5.332,-0.731 3.326,0 5.891,0.8027 7.697,2.408 1.835,1.5767 2.752,4.0277 2.752,7.353 v 13.4588 z m -7.224,0.301 c -1.72,0 -3.225,-0.286 -4.515,-0.86 -1.29,-0.602 -2.293,-1.419 -3.01,-2.451 -0.688,-1.06 -1.032,-2.25 -1.032,-3.569 0,-1.29 0.301,-2.451 0.903,-3.483 0.631,-1.032 1.649,-1.849 3.053,-2.4508 1.405,-0.602 3.268,-0.903 5.59,-0.903 h 6.665 v 3.5688 h -6.278 c -1.834,0 -3.067,0.301 -3.698,0.903 -0.63,0.574 -0.946,1.29 -0.946,2.15 0,0.975 0.387,1.749 1.161,2.322 0.774,0.574 1.849,0.86 3.225,0.86 1.319,0 2.494,-0.301 3.526,-0.903 1.061,-0.602 1.821,-1.49 2.279,-2.666 l 0.903,3.225 c -0.516,1.348 -1.447,2.394 -2.795,3.139 -1.318,0.746 -2.995,1.118 -5.031,1.118 z m 48.178,-23.5208 c 1.835,0 3.455,0.3583 4.859,1.075 1.434,0.7167 2.552,1.8203 3.354,3.311 0.803,1.462 1.204,3.354 1.204,5.676 v 13.1578 h -5.375 V 99.9172 c 0,-2.0353 -0.444,-3.5547 -1.333,-4.558 -0.888,-1.0033 -2.164,-1.505 -3.827,-1.505 -1.175,0 -2.221,0.258 -3.139,0.774 -0.888,0.516 -1.591,1.2757 -2.107,2.279 -0.487,1.0033 -0.731,2.279 -0.731,3.8268 v 11.653 h -5.375 V 99.9172 c 0,-2.0353 -0.444,-3.5547 -1.333,-4.558 -0.888,-1.0033 -2.164,-1.505 -3.827,-1.505 -1.175,0 -2.221,0.258 -3.139,0.774 -0.888,0.516 -1.591,1.2757 -2.107,2.279 -0.487,1.0033 -0.731,2.279 -0.731,3.8268 v 11.653 h -5.375 V 89.4252 h 5.117 v 6.106 l -0.903,-1.806 c 0.774,-1.4907 1.892,-2.623 3.354,-3.397 1.491,-0.774 3.182,-1.161 5.074,-1.161 2.15,0 4.014,0.5303 5.59,1.591 1.606,1.0607 2.666,2.666 3.182,4.816 l -2.107,-0.731 c 0.746,-1.72 1.978,-3.096 3.698,-4.128 1.72,-1.032 3.713,-1.548 5.977,-1.548 z m 33.502,31.5618 c -1.692,-2.608 -2.996,-5.618 -3.913,-9.03 -0.889,-3.44 -1.333,-7.138 -1.333,-11.094 0,-3.9558 0.444,-7.6538 1.333,-11.0938 0.917,-3.4687 2.221,-6.4787 3.913,-9.03 h 5.117 c -1.749,3.1533 -3.039,6.3783 -3.87,9.675 -0.803,3.268 -1.204,6.751 -1.204,10.4488 0,3.698 0.401,7.196 1.204,10.492 0.831,3.268 2.121,6.479 3.87,9.632 z m 24.152,-7.912 c -2.351,0 -4.515,-0.372 -6.493,-1.118 -1.949,-0.774 -3.655,-1.849 -5.117,-3.225 -1.462,-1.404 -2.594,-3.053 -3.397,-4.945 -0.803,-1.892 -1.204,-3.9558 -1.204,-6.1918 0,-2.236 0.401,-4.3 1.204,-6.192 0.803,-1.892 1.935,-3.526 3.397,-4.902 1.491,-1.4047 3.225,-2.4797 5.203,-3.225 1.978,-0.774 4.142,-1.161 6.493,-1.161 2.551,0 4.845,0.4157 6.88,1.247 2.064,0.8313 3.798,2.0497 5.203,3.655 l -3.526,3.44 c -1.175,-1.1753 -2.451,-2.0353 -3.827,-2.58 -1.347,-0.5733 -2.838,-0.86 -4.472,-0.86 -1.577,0 -3.039,0.258 -4.386,0.774 -1.347,0.516 -2.508,1.247 -3.483,2.193 -0.975,0.946 -1.734,2.064 -2.279,3.354 -0.516,1.29 -0.774,2.709 -0.774,4.257 0,1.5193 0.258,2.9238 0.774,4.2138 0.545,1.29 1.304,2.423 2.279,3.397 0.975,0.946 2.121,1.677 3.44,2.193 1.319,0.516 2.781,0.774 4.386,0.774 1.491,0 2.924,-0.229 4.3,-0.688 1.405,-0.487 2.738,-1.29 3.999,-2.408 l 3.182,4.171 c -1.577,1.262 -3.411,2.222 -5.504,2.881 -2.064,0.631 -4.157,0.946 -6.278,0.946 z m 6.493,-4.558 V 96.9932 h 5.289 V 108.99 Z m 12.662,4.128 V 82.2872 h 4.601 l 13.158,21.9728 h -2.408 l 12.943,-21.9728 h 4.601 l 0.043,30.0998 h -5.289 l -0.043,-21.8008 h 1.118 l -11.008,18.3608 h -2.494 l -11.18,-18.3608 h 1.29 v 21.8008 z m 46.185,-16.2538 h 15.007 v 4.7298 h -15.007 z m 0.473,16.2538 h -5.59 V 82.2872 h 21.973 v 4.687 h -16.383 z m 23.6,8.342 h -5.117 c 1.777,-3.153 3.067,-6.364 3.87,-9.632 0.831,-3.296 1.247,-6.794 1.247,-10.492 0,-3.6978 -0.416,-7.1808 -1.247,-10.4488 -0.803,-3.2967 -2.093,-6.5217 -3.87,-9.675 h 5.117 c 1.72,2.5513 3.024,5.5613 3.913,9.03 0.889,3.44 1.333,7.138 1.333,11.0938 0,3.956 -0.444,7.654 -1.333,11.094 -0.889,3.412 -2.193,6.422 -3.913,9.03 z"
     fill="#000000"
     id="path18" />
</svg>
