<?xml version="1.0" encoding="UTF-8" standalone="no"?>
<svg
   width="255"
   height="32"
   viewBox="0 0 255 32"
   fill="none"
   xmlns="http://www.w3.org/2000/svg">
  <rect
     style="fill:#ffc1a7;fill-opacity:1;stroke-width:0.849837"
     id="rect2011"
     width="255"
     height="13"
     x="0"
     y="17" />
  <path
     d="M0.29 25V0.499998H11C13.66 0.499998 15.9933 1.01333 18 2.04C20.0067 3.06667 21.57 4.49 22.69 6.31C23.81 8.13 24.37 10.2767 24.37 12.75C24.37 15.2 23.81 17.3467 22.69 19.19C21.57 21.01 20.0067 22.4333 18 23.46C15.9933 24.4867 13.66 25 11 25H0.29ZM4.84 21.15H10.79C12.6333 21.15 14.22 20.8 15.55 20.1C16.9033 19.4 17.9417 18.42 18.665 17.16C19.4117 15.9 19.785 14.43 19.785 12.75C19.785 11.0467 19.4117 9.57667 18.665 8.34C17.9417 7.08 16.9033 6.1 15.55 5.4C14.22 4.7 12.6333 4.35 10.79 4.35H4.84V21.15ZM37.571 25.245C35.4943 25.245 33.6743 24.8367 32.111 24.02C30.571 23.18 29.3693 22.0367 28.506 20.59C27.666 19.1433 27.246 17.4983 27.246 15.655C27.246 13.7883 27.6543 12.1433 28.471 10.72C29.311 9.27333 30.4543 8.14167 31.901 7.325C33.371 6.50833 35.0393 6.1 36.906 6.1C38.726 6.1 40.3477 6.49667 41.771 7.29C43.1943 8.08333 44.3143 9.20333 45.131 10.65C45.9477 12.0967 46.356 13.8 46.356 15.76C46.356 15.9467 46.3444 16.1567 46.321 16.39C46.321 16.6233 46.3093 16.845 46.286 17.055H30.711V14.15H43.976L42.261 15.06C42.2843 13.9867 42.0627 13.0417 41.596 12.225C41.1293 11.4083 40.4877 10.7667 39.671 10.3C38.8777 9.83333 37.956 9.6 36.906 9.6C35.8327 9.6 34.8877 9.83333 34.071 10.3C33.2777 10.7667 32.6477 11.42 32.181 12.26C31.7377 13.0767 31.516 14.045 31.516 15.165V15.865C31.516 16.985 31.7727 17.9767 32.286 18.84C32.7993 19.7033 33.5227 20.3683 34.456 20.835C35.3893 21.3017 36.4627 21.535 37.676 21.535C38.726 21.535 39.671 21.3717 40.511 21.045C41.351 20.7183 42.0977 20.205 42.751 19.505L45.096 22.2C44.256 23.18 43.1943 23.9383 41.911 24.475C40.651 24.9883 39.2043 25.245 37.571 25.245ZM59.3435 25.245C57.2668 25.245 55.4468 24.8367 53.8835 24.02C52.3435 23.18 51.1418 22.0367 50.2785 20.59C49.4385 19.1433 49.0185 17.4983 49.0185 15.655C49.0185 13.7883 49.4268 12.1433 50.2435 10.72C51.0835 9.27333 52.2268 8.14167 53.6735 7.325C55.1435 6.50833 56.8118 6.1 58.6785 6.1C60.4985 6.1 62.1201 6.49667 63.5435 7.29C64.9668 8.08333 66.0868 9.20333 66.9035 10.65C67.7201 12.0967 68.1285 13.8 68.1285 15.76C68.1285 15.9467 68.1168 16.1567 68.0935 16.39C68.0935 16.6233 68.0818 16.845 68.0585 17.055H52.4835V14.15H65.7485L64.0335 15.06C64.0568 13.9867 63.8351 13.0417 63.3685 12.225C62.9018 11.4083 62.2601 10.7667 61.4435 10.3C60.6501 9.83333 59.7285 9.6 58.6785 9.6C57.6051 9.6 56.6601 9.83333 55.8435 10.3C55.0501 10.7667 54.4201 11.42 53.9535 12.26C53.5101 13.0767 53.2885 14.045 53.2885 15.165V15.865C53.2885 16.985 53.5451 17.9767 54.0585 18.84C54.5718 19.7033 55.2951 20.3683 56.2285 20.835C57.1618 21.3017 58.2351 21.535 59.4485 21.535C60.4985 21.535 61.4435 21.3717 62.2835 21.045C63.1235 20.7183 63.8701 20.205 64.5235 19.505L66.8685 22.2C66.0285 23.18 64.9668 23.9383 63.6835 24.475C62.4235 24.9883 60.9768 25.245 59.3435 25.245ZM82.6909 25.245C81.1743 25.245 79.7859 24.895 78.5259 24.195C77.2893 23.495 76.2976 22.445 75.5509 21.045C74.8276 19.6217 74.4659 17.825 74.4659 15.655C74.4659 13.4617 74.8159 11.665 75.5159 10.265C76.2393 8.865 77.2193 7.82667 78.4559 7.15C79.6926 6.45 81.1043 6.1 82.6909 6.1C84.5343 6.1 86.1559 6.49667 87.5559 7.29C88.9793 8.08333 90.0993 9.19167 90.9159 10.615C91.7559 12.0383 92.1759 13.7183 92.1759 15.655C92.1759 17.5917 91.7559 19.2833 90.9159 20.73C90.0993 22.1533 88.9793 23.2617 87.5559 24.055C86.1559 24.8483 84.5343 25.245 82.6909 25.245ZM72.3309 31.79V6.31H76.4959V10.72L76.3559 15.69L76.7059 20.66V31.79H72.3309ZM82.2009 21.5C83.2509 21.5 84.1843 21.2667 85.0009 20.8C85.8409 20.3333 86.5059 19.6567 86.9959 18.77C87.4859 17.8833 87.7309 16.845 87.7309 15.655C87.7309 14.4417 87.4859 13.4033 86.9959 12.54C86.5059 11.6533 85.8409 10.9767 85.0009 10.51C84.1843 10.0433 83.2509 9.81 82.2009 9.81C81.1509 9.81 80.2059 10.0433 79.3659 10.51C78.5259 10.9767 77.8609 11.6533 77.3709 12.54C76.8809 13.4033 76.6359 14.4417 76.6359 15.655C76.6359 16.845 76.8809 17.8833 77.3709 18.77C77.8609 19.6567 78.5259 20.3333 79.3659 20.8C80.2059 21.2667 81.1509 21.5 82.2009 21.5ZM117.758 25.35C115.891 25.35 114.153 25.0467 112.543 24.44C110.956 23.81 109.568 22.935 108.378 21.815C107.211 20.6717 106.301 19.33 105.648 17.79C104.995 16.25 104.668 14.57 104.668 12.75C104.668 10.93 104.995 9.25 105.648 7.71C106.301 6.17 107.223 4.84 108.413 3.72C109.603 2.57667 110.991 1.70167 112.578 1.095C114.165 0.464999 115.903 0.149999 117.793 0.149999C119.8 0.149999 121.631 0.499999 123.288 1.2C124.945 1.87667 126.345 2.89167 127.488 4.245L124.548 7.01C123.661 6.05333 122.67 5.34167 121.573 4.875C120.476 4.385 119.286 4.14 118.003 4.14C116.72 4.14 115.541 4.35 114.468 4.77C113.418 5.19 112.496 5.785 111.703 6.555C110.933 7.325 110.326 8.235 109.883 9.285C109.463 10.335 109.253 11.49 109.253 12.75C109.253 14.01 109.463 15.165 109.883 16.215C110.326 17.265 110.933 18.175 111.703 18.945C112.496 19.715 113.418 20.31 114.468 20.73C115.541 21.15 116.72 21.36 118.003 21.36C119.286 21.36 120.476 21.1267 121.573 20.66C122.67 20.17 123.661 19.435 124.548 18.455L127.488 21.255C126.345 22.585 124.945 23.6 123.288 24.3C121.631 25 119.788 25.35 117.758 25.35ZM139.11 25.245C137.197 25.245 135.493 24.8367 134 24.02C132.507 23.18 131.328 22.0367 130.465 20.59C129.602 19.1433 129.17 17.4983 129.17 15.655C129.17 13.7883 129.602 12.1433 130.465 10.72C131.328 9.27333 132.507 8.14167 134 7.325C135.493 6.50833 137.197 6.1 139.11 6.1C141.047 6.1 142.762 6.50833 144.255 7.325C145.772 8.14167 146.95 9.26167 147.79 10.685C148.653 12.1083 149.085 13.765 149.085 15.655C149.085 17.4983 148.653 19.1433 147.79 20.59C146.95 22.0367 145.772 23.18 144.255 24.02C142.762 24.8367 141.047 25.245 139.11 25.245ZM139.11 21.5C140.183 21.5 141.14 21.2667 141.98 20.8C142.82 20.3333 143.473 19.6567 143.94 18.77C144.43 17.8833 144.675 16.845 144.675 15.655C144.675 14.4417 144.43 13.4033 143.94 12.54C143.473 11.6533 142.82 10.9767 141.98 10.51C141.14 10.0433 140.195 9.81 139.145 9.81C138.072 9.81 137.115 10.0433 136.275 10.51C135.458 10.9767 134.805 11.6533 134.315 12.54C133.825 13.4033 133.58 14.4417 133.58 15.655C133.58 16.845 133.825 17.8833 134.315 18.77C134.805 19.6567 135.458 20.3333 136.275 20.8C137.115 21.2667 138.06 21.5 139.11 21.5ZM163.873 6.1C165.367 6.1 166.697 6.39167 167.863 6.975C169.053 7.55833 169.987 8.45667 170.663 9.67C171.34 10.86 171.678 12.4 171.678 14.29V25H167.303V14.85C167.303 13.1933 166.907 11.9567 166.113 11.14C165.343 10.3233 164.258 9.915 162.858 9.915C161.832 9.915 160.922 10.125 160.128 10.545C159.335 10.965 158.717 11.595 158.273 12.435C157.853 13.2517 157.643 14.29 157.643 15.55V25H153.268V6.31H157.433V11.35L156.698 9.81C157.352 8.62 158.297 7.71 159.533 7.08C160.793 6.42667 162.24 6.1 163.873 6.1ZM187.833 6.1C189.327 6.1 190.657 6.39167 191.823 6.975C193.013 7.55833 193.947 8.45667 194.623 9.67C195.3 10.86 195.638 12.4 195.638 14.29V25H191.263V14.85C191.263 13.1933 190.867 11.9567 190.073 11.14C189.303 10.3233 188.218 9.915 186.818 9.915C185.792 9.915 184.882 10.125 184.088 10.545C183.295 10.965 182.677 11.595 182.233 12.435C181.813 13.2517 181.603 14.29 181.603 15.55V25H177.228V6.31H181.393V11.35L180.658 9.81C181.312 8.62 182.257 7.71 183.493 7.08C184.753 6.42667 186.2 6.1 187.833 6.1ZM210.008 25.245C207.931 25.245 206.111 24.8367 204.548 24.02C203.008 23.18 201.806 22.0367 200.943 20.59C200.103 19.1433 199.683 17.4983 199.683 15.655C199.683 13.7883 200.091 12.1433 200.908 10.72C201.748 9.27333 202.891 8.14167 204.338 7.325C205.808 6.50833 207.476 6.1 209.343 6.1C211.163 6.1 212.784 6.49667 214.208 7.29C215.631 8.08333 216.751 9.20333 217.568 10.65C218.384 12.0967 218.793 13.8 218.793 15.76C218.793 15.9467 218.781 16.1567 218.758 16.39C218.758 16.6233 218.746 16.845 218.723 17.055H203.148V14.15H216.413L214.698 15.06C214.721 13.9867 214.499 13.0417 214.033 12.225C213.566 11.4083 212.924 10.7667 212.108 10.3C211.314 9.83333 210.393 9.6 209.343 9.6C208.269 9.6 207.324 9.83333 206.508 10.3C205.714 10.7667 205.084 11.42 204.618 12.26C204.174 13.0767 203.953 14.045 203.953 15.165V15.865C203.953 16.985 204.209 17.9767 204.723 18.84C205.236 19.7033 205.959 20.3683 206.893 20.835C207.826 21.3017 208.899 21.535 210.113 21.535C211.163 21.535 212.108 21.3717 212.948 21.045C213.788 20.7183 214.534 20.205 215.188 19.505L217.533 22.2C216.693 23.18 215.631 23.9383 214.348 24.475C213.088 24.9883 211.641 25.245 210.008 25.245ZM231.57 25.245C229.61 25.245 227.86 24.8367 226.32 24.02C224.803 23.18 223.613 22.0367 222.75 20.59C221.887 19.1433 221.455 17.4983 221.455 15.655C221.455 13.7883 221.887 12.1433 222.75 10.72C223.613 9.27333 224.803 8.14167 226.32 7.325C227.86 6.50833 229.61 6.1 231.57 6.1C233.39 6.1 234.988 6.47333 236.365 7.22C237.765 7.94333 238.827 9.01667 239.55 10.44L236.19 12.4C235.63 11.5133 234.942 10.86 234.125 10.44C233.332 10.02 232.468 9.81 231.535 9.81C230.462 9.81 229.493 10.0433 228.63 10.51C227.767 10.9767 227.09 11.6533 226.6 12.54C226.11 13.4033 225.865 14.4417 225.865 15.655C225.865 16.8683 226.11 17.9183 226.6 18.805C227.09 19.6683 227.767 20.3333 228.63 20.8C229.493 21.2667 230.462 21.5 231.535 21.5C232.468 21.5 233.332 21.29 234.125 20.87C234.942 20.45 235.63 19.7967 236.19 18.91L239.55 20.87C238.827 22.27 237.765 23.355 236.365 24.125C234.988 24.8717 233.39 25.245 231.57 25.245ZM250.606 25.245C248.553 25.245 246.966 24.72 245.846 23.67C244.726 22.5967 244.166 21.0217 244.166 18.945V2.18H248.541V18.84C248.541 19.7267 248.763 20.415 249.206 20.905C249.673 21.395 250.315 21.64 251.131 21.64C252.111 21.64 252.928 21.3833 253.581 20.87L254.806 23.985C254.293 24.405 253.663 24.72 252.916 24.93C252.17 25.14 251.4 25.245 250.606 25.245ZM241.086 9.95V6.45H253.546V9.95H241.086Z"
     fill="#020126"
     id="path1886" />
</svg>
