<svg width="875" height="19" viewBox="0 0 875 19" fill="none" xmlns="http://www.w3.org/2000/svg">
<path d="M6.14 15.12C5.1 15.12 4.1 14.9533 3.14 14.62C2.19333 14.2733 1.46 13.8333 0.94 13.3L1.52 12.16C2.01333 12.64 2.67333 13.0467 3.5 13.38C4.34 13.7 5.22 13.86 6.14 13.86C7.02 13.86 7.73333 13.7533 8.28 13.54C8.84 13.3133 9.24667 13.0133 9.5 12.64C9.76667 12.2667 9.9 11.8533 9.9 11.4C9.9 10.8533 9.74 10.4133 9.42 10.08C9.11333 9.74667 8.70667 9.48667 8.2 9.3C7.69333 9.1 7.13333 8.92667 6.52 8.78C5.90667 8.63333 5.29333 8.48 4.68 8.32C4.06667 8.14667 3.5 7.92 2.98 7.64C2.47333 7.36 2.06 6.99333 1.74 6.54C1.43333 6.07333 1.28 5.46667 1.28 4.72C1.28 4.02667 1.46 3.39333 1.82 2.82C2.19333 2.23333 2.76 1.76667 3.52 1.42C4.28 1.06 5.25333 0.879999 6.44 0.879999C7.22667 0.879999 8.00667 0.993333 8.78 1.22C9.55333 1.43333 10.22 1.73333 10.78 2.12L10.28 3.3C9.68 2.9 9.04 2.60667 8.36 2.42C7.69333 2.23333 7.04667 2.14 6.42 2.14C5.58 2.14 4.88667 2.25333 4.34 2.48C3.79333 2.70667 3.38667 3.01333 3.12 3.4C2.86667 3.77333 2.74 4.2 2.74 4.68C2.74 5.22667 2.89333 5.66667 3.2 6C3.52 6.33333 3.93333 6.59333 4.44 6.78C4.96 6.96667 5.52667 7.13333 6.14 7.28C6.75333 7.42667 7.36 7.58667 7.96 7.76C8.57333 7.93333 9.13333 8.16 9.64 8.44C10.16 8.70667 10.5733 9.06667 10.88 9.52C11.2 9.97333 11.36 10.5667 11.36 11.3C11.36 11.98 11.1733 12.6133 10.8 13.2C10.4267 13.7733 9.85333 14.24 9.08 14.6C8.32 14.9467 7.34 15.12 6.14 15.12ZM17.6047 15.1C16.618 15.1 15.858 14.8333 15.3247 14.3C14.7914 13.7667 14.5247 13.0133 14.5247 12.04V2.18H15.9447V11.96C15.9447 12.5733 16.098 13.0467 16.4047 13.38C16.7247 13.7133 17.178 13.88 17.7647 13.88C18.3914 13.88 18.9114 13.7 19.3247 13.34L19.8247 14.36C19.5447 14.6133 19.2047 14.8 18.8047 14.92C18.418 15.04 18.018 15.1 17.6047 15.1ZM12.6447 5.68V4.5H19.1447V5.68H12.6447ZM26.4986 15.1C25.4053 15.1 24.4453 14.8733 23.6186 14.42C22.7919 13.9533 22.1453 13.32 21.6786 12.52C21.2119 11.7067 20.9786 10.78 20.9786 9.74C20.9786 8.7 21.1986 7.78 21.6386 6.98C22.0919 6.18 22.7053 5.55333 23.4786 5.1C24.2653 4.63333 25.1453 4.4 26.1186 4.4C27.1053 4.4 27.9786 4.62667 28.7386 5.08C29.5119 5.52 30.1186 6.14667 30.5586 6.96C30.9986 7.76 31.2186 8.68667 31.2186 9.74C31.2186 9.80667 31.2119 9.88 31.1986 9.96C31.1986 10.0267 31.1986 10.1 31.1986 10.18H22.0586V9.12H30.4386L29.8786 9.54C29.8786 8.78 29.7119 8.10667 29.3786 7.52C29.0586 6.92 28.6186 6.45333 28.0586 6.12C27.4986 5.78667 26.8519 5.62 26.1186 5.62C25.3986 5.62 24.7519 5.78667 24.1786 6.12C23.6053 6.45333 23.1586 6.92 22.8386 7.52C22.5186 8.12 22.3586 8.80667 22.3586 9.58V9.8C22.3586 10.6 22.5319 11.3067 22.8786 11.92C23.2386 12.52 23.7319 12.9933 24.3586 13.34C24.9986 13.6733 25.7253 13.84 26.5386 13.84C27.1786 13.84 27.7719 13.7267 28.3186 13.5C28.8786 13.2733 29.3586 12.9267 29.7586 12.46L30.5586 13.38C30.0919 13.94 29.5053 14.3667 28.7986 14.66C28.1053 14.9533 27.3386 15.1 26.4986 15.1ZM39.5289 15.1C38.6222 15.1 37.8022 14.8933 37.0689 14.48C36.3356 14.0533 35.7489 13.4467 35.3089 12.66C34.8822 11.86 34.6689 10.8867 34.6689 9.74C34.6689 8.59333 34.8822 7.62667 35.3089 6.84C35.7356 6.04 36.3156 5.43333 37.0489 5.02C37.7822 4.60667 38.6089 4.4 39.5289 4.4C40.5289 4.4 41.4222 4.62667 42.2089 5.08C43.0089 5.52 43.6356 6.14667 44.0889 6.96C44.5422 7.76 44.7689 8.68667 44.7689 9.74C44.7689 10.8067 44.5422 11.74 44.0889 12.54C43.6356 13.34 43.0089 13.9667 42.2089 14.42C41.4222 14.8733 40.5289 15.1 39.5289 15.1ZM34.1089 18.88V4.5H35.4689V7.66L35.3289 9.76L35.5289 11.88V18.88H34.1089ZM39.4289 13.84C40.1756 13.84 40.8422 13.6733 41.4289 13.34C42.0156 12.9933 42.4822 12.5133 42.8289 11.9C43.1756 11.2733 43.3489 10.5533 43.3489 9.74C43.3489 8.92667 43.1756 8.21333 42.8289 7.6C42.4822 6.98667 42.0156 6.50667 41.4289 6.16C40.8422 5.81333 40.1756 5.64 39.4289 5.64C38.6822 5.64 38.0089 5.81333 37.4089 6.16C36.8222 6.50667 36.3556 6.98667 36.0089 7.6C35.6756 8.21333 35.5089 8.92667 35.5089 9.74C35.5089 10.5533 35.6756 11.2733 36.0089 11.9C36.3556 12.5133 36.8222 12.9933 37.4089 13.34C38.0089 13.6733 38.6822 13.84 39.4289 13.84ZM52.898 15V4.5H54.318V15H52.898ZM53.618 2.18C53.3246 2.18 53.078 2.08 52.878 1.88C52.678 1.68 52.578 1.44 52.578 1.16C52.578 0.879999 52.678 0.646665 52.878 0.459999C53.078 0.259999 53.3246 0.159999 53.618 0.159999C53.9113 0.159999 54.158 0.253332 54.358 0.439999C54.558 0.626666 54.658 0.859999 54.658 1.14C54.658 1.43333 54.558 1.68 54.358 1.88C54.1713 2.08 53.9246 2.18 53.618 2.18ZM63.6291 4.4C64.4824 4.4 65.2291 4.56667 65.8691 4.9C66.5224 5.22 67.0291 5.71333 67.3891 6.38C67.7624 7.04667 67.9491 7.88667 67.9491 8.9V15H66.5291V9.04C66.5291 7.93333 66.2491 7.1 65.6891 6.54C65.1424 5.96667 64.3691 5.68 63.3691 5.68C62.6224 5.68 61.9691 5.83333 61.4091 6.14C60.8624 6.43333 60.4357 6.86667 60.1291 7.44C59.8357 8 59.6891 8.68 59.6891 9.48V15H58.2691V4.5H59.6291V7.38L59.4091 6.84C59.7424 6.08 60.2757 5.48667 61.0091 5.06C61.7424 4.62 62.6157 4.4 63.6291 4.4ZM75.1047 15.1C74.118 15.1 73.358 14.8333 72.8247 14.3C72.2914 13.7667 72.0247 13.0133 72.0247 12.04V2.18H73.4447V11.96C73.4447 12.5733 73.598 13.0467 73.9047 13.38C74.2247 13.7133 74.678 13.88 75.2647 13.88C75.8914 13.88 76.4114 13.7 76.8247 13.34L77.3247 14.36C77.0447 14.6133 76.7047 14.8 76.3047 14.92C75.918 15.04 75.518 15.1 75.1047 15.1ZM70.1447 5.68V4.5H76.6447V5.68H70.1447ZM83.8186 15.1C82.8053 15.1 81.8919 14.8733 81.0786 14.42C80.2786 13.9533 79.6453 13.32 79.1786 12.52C78.7119 11.7067 78.4786 10.78 78.4786 9.74C78.4786 8.68667 78.7119 7.76 79.1786 6.96C79.6453 6.16 80.2786 5.53333 81.0786 5.08C81.8786 4.62667 82.7919 4.4 83.8186 4.4C84.8586 4.4 85.7786 4.62667 86.5786 5.08C87.3919 5.53333 88.0253 6.16 88.4786 6.96C88.9453 7.76 89.1786 8.68667 89.1786 9.74C89.1786 10.78 88.9453 11.7067 88.4786 12.52C88.0253 13.32 87.3919 13.9533 86.5786 14.42C85.7653 14.8733 84.8453 15.1 83.8186 15.1ZM83.8186 13.84C84.5786 13.84 85.2519 13.6733 85.8386 13.34C86.4253 12.9933 86.8853 12.5133 87.2186 11.9C87.5653 11.2733 87.7386 10.5533 87.7386 9.74C87.7386 8.91333 87.5653 8.19333 87.2186 7.58C86.8853 6.96667 86.4253 6.49333 85.8386 6.16C85.2519 5.81333 84.5853 5.64 83.8386 5.64C83.0919 5.64 82.4253 5.81333 81.8386 6.16C81.2519 6.49333 80.7853 6.96667 80.4386 7.58C80.0919 8.19333 79.9186 8.91333 79.9186 9.74C79.9186 10.5533 80.0919 11.2733 80.4386 11.9C80.7853 12.5133 81.2519 12.9933 81.8386 13.34C82.4253 13.6733 83.0853 13.84 83.8186 13.84ZM103.892 15V12.68L103.832 12.3V8.42C103.832 7.52667 103.579 6.84 103.072 6.36C102.579 5.88 101.839 5.64 100.852 5.64C100.172 5.64 99.5254 5.75333 98.912 5.98C98.2987 6.20667 97.7787 6.50667 97.352 6.88L96.712 5.82C97.2454 5.36667 97.8854 5.02 98.632 4.78C99.3787 4.52667 100.165 4.4 100.992 4.4C102.352 4.4 103.399 4.74 104.132 5.42C104.879 6.08667 105.252 7.10667 105.252 8.48V15H103.892ZM100.272 15.1C99.4854 15.1 98.7987 14.9733 98.212 14.72C97.6387 14.4533 97.1987 14.0933 96.892 13.64C96.5854 13.1733 96.432 12.64 96.432 12.04C96.432 11.4933 96.5587 11 96.812 10.56C97.0787 10.1067 97.5054 9.74667 98.092 9.48C98.692 9.2 99.492 9.06 100.492 9.06H104.112V10.12H100.532C99.5187 10.12 98.812 10.3 98.412 10.66C98.0254 11.02 97.832 11.4667 97.832 12C97.832 12.6 98.0654 13.08 98.532 13.44C98.9987 13.8 99.652 13.98 100.492 13.98C101.292 13.98 101.979 13.8 102.552 13.44C103.139 13.0667 103.565 12.5333 103.832 11.84L104.152 12.82C103.885 13.5133 103.419 14.0667 102.752 14.48C102.099 14.8933 101.272 15.1 100.272 15.1ZM118.523 15.1C117.523 15.1 116.623 14.8733 115.823 14.42C115.037 13.9667 114.417 13.34 113.963 12.54C113.51 11.7267 113.283 10.7933 113.283 9.74C113.283 8.67333 113.51 7.74 113.963 6.94C114.417 6.14 115.037 5.52 115.823 5.08C116.623 4.62667 117.523 4.4 118.523 4.4C119.443 4.4 120.263 4.60667 120.983 5.02C121.717 5.43333 122.297 6.04 122.723 6.84C123.163 7.62667 123.383 8.59333 123.383 9.74C123.383 10.8733 123.17 11.84 122.743 12.64C122.317 13.44 121.737 14.0533 121.003 14.48C120.283 14.8933 119.457 15.1 118.523 15.1ZM118.623 13.84C119.37 13.84 120.037 13.6733 120.623 13.34C121.223 12.9933 121.69 12.5133 122.023 11.9C122.37 11.2733 122.543 10.5533 122.543 9.74C122.543 8.91333 122.37 8.19333 122.023 7.58C121.69 6.96667 121.223 6.49333 120.623 6.16C120.037 5.81333 119.37 5.64 118.623 5.64C117.89 5.64 117.23 5.81333 116.643 6.16C116.057 6.49333 115.59 6.96667 115.243 7.58C114.897 8.19333 114.723 8.91333 114.723 9.74C114.723 10.5533 114.897 11.2733 115.243 11.9C115.59 12.5133 116.057 12.9933 116.643 13.34C117.23 13.6733 117.89 13.84 118.623 13.84ZM122.583 15V11.84L122.723 9.72L122.523 7.6V0.159999H123.943V15H122.583ZM127.978 18.98C127.485 18.98 127.011 18.9 126.558 18.74C126.118 18.58 125.738 18.34 125.418 18.02L126.078 16.96C126.345 17.2133 126.631 17.4067 126.938 17.54C127.258 17.6867 127.611 17.76 127.998 17.76C128.465 17.76 128.865 17.6267 129.198 17.36C129.545 17.1067 129.871 16.6533 130.178 16L130.858 14.46L131.018 14.24L135.338 4.5H136.738L131.478 16.26C131.185 16.94 130.858 17.48 130.498 17.88C130.151 18.28 129.771 18.56 129.358 18.72C128.945 18.8933 128.485 18.98 127.978 18.98ZM130.778 15.3L125.938 4.5H127.418L131.698 14.14L130.778 15.3ZM144.098 4.4C144.951 4.4 145.698 4.56667 146.338 4.9C146.991 5.22 147.498 5.71333 147.858 6.38C148.231 7.04667 148.418 7.88667 148.418 8.9V15H146.998V9.04C146.998 7.93333 146.718 7.1 146.158 6.54C145.611 5.96667 144.838 5.68 143.838 5.68C143.091 5.68 142.438 5.83333 141.878 6.14C141.331 6.43333 140.904 6.86667 140.598 7.44C140.304 8 140.158 8.68 140.158 9.48V15H138.738V4.5H140.098V7.38L139.878 6.84C140.211 6.08 140.744 5.48667 141.478 5.06C142.211 4.62 143.084 4.4 144.098 4.4ZM158.833 15V12.68L158.773 12.3V8.42C158.773 7.52667 158.52 6.84 158.013 6.36C157.52 5.88 156.78 5.64 155.793 5.64C155.113 5.64 154.467 5.75333 153.853 5.98C153.24 6.20667 152.72 6.50667 152.293 6.88L151.653 5.82C152.187 5.36667 152.827 5.02 153.573 4.78C154.32 4.52667 155.107 4.4 155.933 4.4C157.293 4.4 158.34 4.74 159.073 5.42C159.82 6.08667 160.193 7.10667 160.193 8.48V15H158.833ZM155.213 15.1C154.427 15.1 153.74 14.9733 153.153 14.72C152.58 14.4533 152.14 14.0933 151.833 13.64C151.527 13.1733 151.373 12.64 151.373 12.04C151.373 11.4933 151.5 11 151.753 10.56C152.02 10.1067 152.447 9.74667 153.033 9.48C153.633 9.2 154.433 9.06 155.433 9.06H159.053V10.12H155.473C154.46 10.12 153.753 10.3 153.353 10.66C152.967 11.02 152.773 11.4667 152.773 12C152.773 12.6 153.007 13.08 153.473 13.44C153.94 13.8 154.593 13.98 155.433 13.98C156.233 13.98 156.92 13.8 157.493 13.44C158.08 13.0667 158.507 12.5333 158.773 11.84L159.093 12.82C158.827 13.5133 158.36 14.0667 157.693 14.48C157.04 14.8933 156.213 15.1 155.213 15.1ZM177.17 4.4C178.024 4.4 178.764 4.56667 179.39 4.9C180.03 5.22 180.524 5.71333 180.87 6.38C181.23 7.04667 181.41 7.88667 181.41 8.9V15H179.99V9.04C179.99 7.93333 179.724 7.1 179.19 6.54C178.67 5.96667 177.93 5.68 176.97 5.68C176.25 5.68 175.624 5.83333 175.09 6.14C174.57 6.43333 174.164 6.86667 173.87 7.44C173.59 8 173.45 8.68 173.45 9.48V15H172.03V9.04C172.03 7.93333 171.764 7.1 171.23 6.54C170.697 5.96667 169.95 5.68 168.99 5.68C168.284 5.68 167.664 5.83333 167.13 6.14C166.597 6.43333 166.184 6.86667 165.89 7.44C165.61 8 165.47 8.68 165.47 9.48V15H164.05V4.5H165.41V7.34L165.19 6.84C165.51 6.08 166.024 5.48667 166.73 5.06C167.45 4.62 168.297 4.4 169.27 4.4C170.297 4.4 171.17 4.66 171.89 5.18C172.61 5.68667 173.077 6.45333 173.29 7.48L172.73 7.26C173.037 6.40667 173.577 5.72 174.35 5.2C175.137 4.66667 176.077 4.4 177.17 4.4ZM185.261 15V4.5H186.681V15H185.261ZM185.981 2.18C185.688 2.18 185.441 2.08 185.241 1.88C185.041 1.68 184.941 1.44 184.941 1.16C184.941 0.879999 185.041 0.646665 185.241 0.459999C185.441 0.259999 185.688 0.159999 185.981 0.159999C186.275 0.159999 186.521 0.253332 186.721 0.439999C186.921 0.626666 187.021 0.859999 187.021 1.14C187.021 1.43333 186.921 1.68 186.721 1.88C186.535 2.08 186.288 2.18 185.981 2.18ZM194.992 15.1C193.952 15.1 193.019 14.8733 192.192 14.42C191.379 13.9533 190.739 13.32 190.272 12.52C189.806 11.7067 189.572 10.78 189.572 9.74C189.572 8.68667 189.806 7.76 190.272 6.96C190.739 6.16 191.379 5.53333 192.192 5.08C193.019 4.62667 193.952 4.4 194.992 4.4C195.886 4.4 196.692 4.57333 197.412 4.92C198.132 5.26667 198.699 5.78667 199.112 6.48L198.052 7.2C197.692 6.66667 197.246 6.27333 196.712 6.02C196.179 5.76667 195.599 5.64 194.972 5.64C194.226 5.64 193.552 5.81333 192.952 6.16C192.352 6.49333 191.879 6.96667 191.532 7.58C191.186 8.19333 191.012 8.91333 191.012 9.74C191.012 10.5667 191.186 11.2867 191.532 11.9C191.879 12.5133 192.352 12.9933 192.952 13.34C193.552 13.6733 194.226 13.84 194.972 13.84C195.599 13.84 196.179 13.7133 196.712 13.46C197.246 13.2067 197.692 12.82 198.052 12.3L199.112 13.02C198.699 13.7 198.132 14.22 197.412 14.58C196.692 14.9267 195.886 15.1 194.992 15.1ZM211.596 15.1C210.503 15.1 209.543 14.8733 208.716 14.42C207.89 13.9533 207.243 13.32 206.776 12.52C206.31 11.7067 206.076 10.78 206.076 9.74C206.076 8.7 206.296 7.78 206.736 6.98C207.19 6.18 207.803 5.55333 208.576 5.1C209.363 4.63333 210.243 4.4 211.216 4.4C212.203 4.4 213.076 4.62667 213.836 5.08C214.61 5.52 215.216 6.14667 215.656 6.96C216.096 7.76 216.316 8.68667 216.316 9.74C216.316 9.80667 216.31 9.88 216.296 9.96C216.296 10.0267 216.296 10.1 216.296 10.18H207.156V9.12H215.536L214.976 9.54C214.976 8.78 214.81 8.10667 214.476 7.52C214.156 6.92 213.716 6.45333 213.156 6.12C212.596 5.78667 211.95 5.62 211.216 5.62C210.496 5.62 209.85 5.78667 209.276 6.12C208.703 6.45333 208.256 6.92 207.936 7.52C207.616 8.12 207.456 8.80667 207.456 9.58V9.8C207.456 10.6 207.63 11.3067 207.976 11.92C208.336 12.52 208.83 12.9933 209.456 13.34C210.096 13.6733 210.823 13.84 211.636 13.84C212.276 13.84 212.87 13.7267 213.416 13.5C213.976 13.2733 214.456 12.9267 214.856 12.46L215.656 13.38C215.19 13.94 214.603 14.3667 213.896 14.66C213.203 14.9533 212.436 15.1 211.596 15.1ZM223.567 15.1C222.527 15.1 221.593 14.8733 220.767 14.42C219.953 13.9533 219.313 13.32 218.847 12.52C218.38 11.7067 218.147 10.78 218.147 9.74C218.147 8.68667 218.38 7.76 218.847 6.96C219.313 6.16 219.953 5.53333 220.767 5.08C221.593 4.62667 222.527 4.4 223.567 4.4C224.46 4.4 225.267 4.57333 225.987 4.92C226.707 5.26667 227.273 5.78667 227.687 6.48L226.627 7.2C226.267 6.66667 225.82 6.27333 225.287 6.02C224.753 5.76667 224.173 5.64 223.547 5.64C222.8 5.64 222.127 5.81333 221.527 6.16C220.927 6.49333 220.453 6.96667 220.107 7.58C219.76 8.19333 219.587 8.91333 219.587 9.74C219.587 10.5667 219.76 11.2867 220.107 11.9C220.453 12.5133 220.927 12.9933 221.527 13.34C222.127 13.6733 222.8 13.84 223.547 13.84C224.173 13.84 224.753 13.7133 225.287 13.46C225.82 13.2067 226.267 12.82 226.627 12.3L227.687 13.02C227.273 13.7 226.707 14.22 225.987 14.58C225.267 14.9267 224.46 15.1 223.567 15.1ZM234.58 15.1C233.567 15.1 232.654 14.8733 231.84 14.42C231.04 13.9533 230.407 13.32 229.94 12.52C229.474 11.7067 229.24 10.78 229.24 9.74C229.24 8.68667 229.474 7.76 229.94 6.96C230.407 6.16 231.04 5.53333 231.84 5.08C232.64 4.62667 233.554 4.4 234.58 4.4C235.62 4.4 236.54 4.62667 237.34 5.08C238.154 5.53333 238.787 6.16 239.24 6.96C239.707 7.76 239.94 8.68667 239.94 9.74C239.94 10.78 239.707 11.7067 239.24 12.52C238.787 13.32 238.154 13.9533 237.34 14.42C236.527 14.8733 235.607 15.1 234.58 15.1ZM234.58 13.84C235.34 13.84 236.014 13.6733 236.6 13.34C237.187 12.9933 237.647 12.5133 237.98 11.9C238.327 11.2733 238.5 10.5533 238.5 9.74C238.5 8.91333 238.327 8.19333 237.98 7.58C237.647 6.96667 237.187 6.49333 236.6 6.16C236.014 5.81333 235.347 5.64 234.6 5.64C233.854 5.64 233.187 5.81333 232.6 6.16C232.014 6.49333 231.547 6.96667 231.2 7.58C230.854 8.19333 230.68 8.91333 230.68 9.74C230.68 10.5533 230.854 11.2733 231.2 11.9C231.547 12.5133 232.014 12.9933 232.6 13.34C233.187 13.6733 233.847 13.84 234.58 13.84ZM245.659 15.1C244.793 15.1 243.973 14.98 243.199 14.74C242.426 14.4867 241.819 14.1733 241.379 13.8L242.019 12.68C242.446 13 242.993 13.28 243.659 13.52C244.326 13.7467 245.026 13.86 245.759 13.86C246.759 13.86 247.479 13.7067 247.919 13.4C248.359 13.08 248.579 12.66 248.579 12.14C248.579 11.7533 248.453 11.4533 248.199 11.24C247.959 11.0133 247.639 10.8467 247.239 10.74C246.839 10.62 246.393 10.52 245.899 10.44C245.406 10.36 244.913 10.2667 244.419 10.16C243.939 10.0533 243.499 9.9 243.099 9.7C242.699 9.48667 242.373 9.2 242.119 8.84C241.879 8.48 241.759 8 241.759 7.4C241.759 6.82667 241.919 6.31333 242.239 5.86C242.559 5.40667 243.026 5.05333 243.639 4.8C244.266 4.53333 245.026 4.4 245.919 4.4C246.599 4.4 247.279 4.49333 247.959 4.68C248.639 4.85333 249.199 5.08667 249.639 5.38L249.019 6.52C248.553 6.2 248.053 5.97333 247.519 5.84C246.986 5.69333 246.453 5.62 245.919 5.62C244.973 5.62 244.273 5.78667 243.819 6.12C243.379 6.44 243.159 6.85333 243.159 7.36C243.159 7.76 243.279 8.07333 243.519 8.3C243.773 8.52667 244.099 8.70667 244.499 8.84C244.913 8.96 245.359 9.06 245.839 9.14C246.333 9.22 246.819 9.32 247.299 9.44C247.793 9.54667 248.239 9.7 248.639 9.9C249.053 10.0867 249.379 10.36 249.619 10.72C249.873 11.0667 249.999 11.5267 249.999 12.1C249.999 12.7133 249.826 13.2467 249.479 13.7C249.146 14.14 248.653 14.4867 247.999 14.74C247.359 14.98 246.579 15.1 245.659 15.1ZM252.49 18.98C251.996 18.98 251.523 18.9 251.07 18.74C250.63 18.58 250.25 18.34 249.93 18.02L250.59 16.96C250.856 17.2133 251.143 17.4067 251.45 17.54C251.77 17.6867 252.123 17.76 252.51 17.76C252.976 17.76 253.376 17.6267 253.71 17.36C254.056 17.1067 254.383 16.6533 254.69 16L255.37 14.46L255.53 14.24L259.85 4.5H261.25L255.99 16.26C255.696 16.94 255.37 17.48 255.01 17.88C254.663 18.28 254.283 18.56 253.87 18.72C253.456 18.8933 252.996 18.98 252.49 18.98ZM255.29 15.3L250.45 4.5H251.93L256.21 14.14L255.29 15.3ZM265.952 15.1C265.086 15.1 264.266 14.98 263.492 14.74C262.719 14.4867 262.112 14.1733 261.672 13.8L262.312 12.68C262.739 13 263.286 13.28 263.952 13.52C264.619 13.7467 265.319 13.86 266.052 13.86C267.052 13.86 267.772 13.7067 268.212 13.4C268.652 13.08 268.872 12.66 268.872 12.14C268.872 11.7533 268.746 11.4533 268.492 11.24C268.252 11.0133 267.932 10.8467 267.532 10.74C267.132 10.62 266.686 10.52 266.192 10.44C265.699 10.36 265.206 10.2667 264.712 10.16C264.232 10.0533 263.792 9.9 263.392 9.7C262.992 9.48667 262.666 9.2 262.412 8.84C262.172 8.48 262.052 8 262.052 7.4C262.052 6.82667 262.212 6.31333 262.532 5.86C262.852 5.40667 263.319 5.05333 263.932 4.8C264.559 4.53333 265.319 4.4 266.212 4.4C266.892 4.4 267.572 4.49333 268.252 4.68C268.932 4.85333 269.492 5.08667 269.932 5.38L269.312 6.52C268.846 6.2 268.346 5.97333 267.812 5.84C267.279 5.69333 266.746 5.62 266.212 5.62C265.266 5.62 264.566 5.78667 264.112 6.12C263.672 6.44 263.452 6.85333 263.452 7.36C263.452 7.76 263.572 8.07333 263.812 8.3C264.066 8.52667 264.392 8.70667 264.792 8.84C265.206 8.96 265.652 9.06 266.132 9.14C266.626 9.22 267.112 9.32 267.592 9.44C268.086 9.54667 268.532 9.7 268.932 9.9C269.346 10.0867 269.672 10.36 269.912 10.72C270.166 11.0667 270.292 11.5267 270.292 12.1C270.292 12.7133 270.119 13.2467 269.772 13.7C269.439 14.14 268.946 14.4867 268.292 14.74C267.652 14.98 266.872 15.1 265.952 15.1ZM276.218 15.1C275.231 15.1 274.471 14.8333 273.938 14.3C273.405 13.7667 273.138 13.0133 273.138 12.04V2.18H274.558V11.96C274.558 12.5733 274.711 13.0467 275.018 13.38C275.338 13.7133 275.791 13.88 276.378 13.88C277.005 13.88 277.525 13.7 277.938 13.34L278.438 14.36C278.158 14.6133 277.818 14.8 277.418 14.92C277.031 15.04 276.631 15.1 276.218 15.1ZM271.258 5.68V4.5H277.758V5.68H271.258ZM285.112 15.1C284.019 15.1 283.059 14.8733 282.232 14.42C281.405 13.9533 280.759 13.32 280.292 12.52C279.825 11.7067 279.592 10.78 279.592 9.74C279.592 8.7 279.812 7.78 280.252 6.98C280.705 6.18 281.319 5.55333 282.092 5.1C282.879 4.63333 283.759 4.4 284.732 4.4C285.719 4.4 286.592 4.62667 287.352 5.08C288.125 5.52 288.732 6.14667 289.172 6.96C289.612 7.76 289.832 8.68667 289.832 9.74C289.832 9.80667 289.825 9.88 289.812 9.96C289.812 10.0267 289.812 10.1 289.812 10.18H280.672V9.12H289.052L288.492 9.54C288.492 8.78 288.325 8.10667 287.992 7.52C287.672 6.92 287.232 6.45333 286.672 6.12C286.112 5.78667 285.465 5.62 284.732 5.62C284.012 5.62 283.365 5.78667 282.792 6.12C282.219 6.45333 281.772 6.92 281.452 7.52C281.132 8.12 280.972 8.80667 280.972 9.58V9.8C280.972 10.6 281.145 11.3067 281.492 11.92C281.852 12.52 282.345 12.9933 282.972 13.34C283.612 13.6733 284.339 13.84 285.152 13.84C285.792 13.84 286.385 13.7267 286.932 13.5C287.492 13.2733 287.972 12.9267 288.372 12.46L289.172 13.38C288.705 13.94 288.119 14.3667 287.412 14.66C286.719 14.9533 285.952 15.1 285.112 15.1ZM305.842 4.4C306.696 4.4 307.436 4.56667 308.062 4.9C308.702 5.22 309.196 5.71333 309.542 6.38C309.902 7.04667 310.082 7.88667 310.082 8.9V15H308.662V9.04C308.662 7.93333 308.396 7.1 307.862 6.54C307.342 5.96667 306.602 5.68 305.642 5.68C304.922 5.68 304.296 5.83333 303.762 6.14C303.242 6.43333 302.836 6.86667 302.542 7.44C302.262 8 302.122 8.68 302.122 9.48V15H300.702V9.04C300.702 7.93333 300.436 7.1 299.902 6.54C299.369 5.96667 298.622 5.68 297.662 5.68C296.956 5.68 296.336 5.83333 295.802 6.14C295.269 6.43333 294.856 6.86667 294.562 7.44C294.282 8 294.142 8.68 294.142 9.48V15H292.722V4.5H294.082V7.34L293.862 6.84C294.182 6.08 294.696 5.48667 295.402 5.06C296.122 4.62 296.969 4.4 297.942 4.4C298.969 4.4 299.842 4.66 300.562 5.18C301.282 5.68667 301.749 6.45333 301.962 7.48L301.402 7.26C301.709 6.40667 302.249 5.72 303.022 5.2C303.809 4.66667 304.749 4.4 305.842 4.4ZM321.308 15L317.348 4.5H318.708L322.308 14.24H321.688L325.388 4.5H326.608L330.268 14.24H329.648L333.308 4.5H334.608L330.628 15H329.288L325.768 5.84H326.188L322.648 15H321.308ZM342.106 4.4C342.959 4.4 343.706 4.56667 344.346 4.9C344.999 5.22 345.506 5.71333 345.866 6.38C346.239 7.04667 346.426 7.88667 346.426 8.9V15H345.006V9.04C345.006 7.93333 344.726 7.1 344.166 6.54C343.619 5.96667 342.846 5.68 341.846 5.68C341.099 5.68 340.446 5.83333 339.886 6.14C339.339 6.43333 338.912 6.86667 338.606 7.44C338.312 8 338.166 8.68 338.166 9.48V15H336.746V0.159999H338.166V7.38L337.886 6.84C338.219 6.08 338.752 5.48667 339.486 5.06C340.219 4.62 341.092 4.4 342.106 4.4ZM354.721 15.1C353.628 15.1 352.668 14.8733 351.841 14.42C351.015 13.9533 350.368 13.32 349.901 12.52C349.435 11.7067 349.201 10.78 349.201 9.74C349.201 8.7 349.421 7.78 349.861 6.98C350.315 6.18 350.928 5.55333 351.701 5.1C352.488 4.63333 353.368 4.4 354.341 4.4C355.328 4.4 356.201 4.62667 356.961 5.08C357.735 5.52 358.341 6.14667 358.781 6.96C359.221 7.76 359.441 8.68667 359.441 9.74C359.441 9.80667 359.435 9.88 359.421 9.96C359.421 10.0267 359.421 10.1 359.421 10.18H350.281V9.12H358.661L358.101 9.54C358.101 8.78 357.935 8.10667 357.601 7.52C357.281 6.92 356.841 6.45333 356.281 6.12C355.721 5.78667 355.075 5.62 354.341 5.62C353.621 5.62 352.975 5.78667 352.401 6.12C351.828 6.45333 351.381 6.92 351.061 7.52C350.741 8.12 350.581 8.80667 350.581 9.58V9.8C350.581 10.6 350.755 11.3067 351.101 11.92C351.461 12.52 351.955 12.9933 352.581 13.34C353.221 13.6733 353.948 13.84 354.761 13.84C355.401 13.84 355.995 13.7267 356.541 13.5C357.101 13.2733 357.581 12.9267 357.981 12.46L358.781 13.38C358.315 13.94 357.728 14.3667 357.021 14.66C356.328 14.9533 355.561 15.1 354.721 15.1ZM362.332 15V4.5H363.692V7.36L363.552 6.86C363.845 6.06 364.338 5.45333 365.032 5.04C365.725 4.61333 366.585 4.4 367.612 4.4V5.78C367.558 5.78 367.505 5.78 367.452 5.78C367.398 5.76667 367.345 5.76 367.292 5.76C366.185 5.76 365.318 6.1 364.692 6.78C364.065 7.44667 363.752 8.4 363.752 9.64V15H362.332ZM374.565 15.1C373.472 15.1 372.512 14.8733 371.685 14.42C370.858 13.9533 370.212 13.32 369.745 12.52C369.278 11.7067 369.045 10.78 369.045 9.74C369.045 8.7 369.265 7.78 369.705 6.98C370.158 6.18 370.772 5.55333 371.545 5.1C372.332 4.63333 373.212 4.4 374.185 4.4C375.172 4.4 376.045 4.62667 376.805 5.08C377.578 5.52 378.185 6.14667 378.625 6.96C379.065 7.76 379.285 8.68667 379.285 9.74C379.285 9.80667 379.278 9.88 379.265 9.96C379.265 10.0267 379.265 10.1 379.265 10.18H370.125V9.12H378.505L377.945 9.54C377.945 8.78 377.778 8.10667 377.445 7.52C377.125 6.92 376.685 6.45333 376.125 6.12C375.565 5.78667 374.918 5.62 374.185 5.62C373.465 5.62 372.818 5.78667 372.245 6.12C371.672 6.45333 371.225 6.92 370.905 7.52C370.585 8.12 370.425 8.80667 370.425 9.58V9.8C370.425 10.6 370.598 11.3067 370.945 11.92C371.305 12.52 371.798 12.9933 372.425 13.34C373.065 13.6733 373.792 13.84 374.605 13.84C375.245 13.84 375.838 13.7267 376.385 13.5C376.945 13.2733 377.425 12.9267 377.825 12.46L378.625 13.38C378.158 13.94 377.572 14.3667 376.865 14.66C376.172 14.9533 375.405 15.1 374.565 15.1ZM387.41 15V4.5H388.83V15H387.41ZM388.13 2.18C387.836 2.18 387.59 2.08 387.39 1.88C387.19 1.68 387.09 1.44 387.09 1.16C387.09 0.879999 387.19 0.646665 387.39 0.459999C387.59 0.259999 387.836 0.159999 388.13 0.159999C388.423 0.159999 388.67 0.253332 388.87 0.439999C389.07 0.626666 389.17 0.859999 389.17 1.14C389.17 1.43333 389.07 1.68 388.87 1.88C388.683 2.08 388.436 2.18 388.13 2.18ZM398.141 4.4C398.994 4.4 399.741 4.56667 400.381 4.9C401.034 5.22 401.541 5.71333 401.901 6.38C402.274 7.04667 402.461 7.88667 402.461 8.9V15H401.041V9.04C401.041 7.93333 400.761 7.1 400.201 6.54C399.654 5.96667 398.881 5.68 397.881 5.68C397.134 5.68 396.481 5.83333 395.921 6.14C395.374 6.43333 394.947 6.86667 394.641 7.44C394.347 8 394.201 8.68 394.201 9.48V15H392.781V4.5H394.141V7.38L393.921 6.84C394.254 6.08 394.787 5.48667 395.521 5.06C396.254 4.62 397.127 4.4 398.141 4.4ZM408.801 15L404.141 4.5H405.621L409.901 14.24H409.201L413.541 4.5H414.941L410.261 15H408.801ZM421.108 15.1C420.015 15.1 419.055 14.8733 418.228 14.42C417.401 13.9533 416.755 13.32 416.288 12.52C415.821 11.7067 415.588 10.78 415.588 9.74C415.588 8.7 415.808 7.78 416.248 6.98C416.701 6.18 417.315 5.55333 418.088 5.1C418.875 4.63333 419.755 4.4 420.728 4.4C421.715 4.4 422.588 4.62667 423.348 5.08C424.121 5.52 424.728 6.14667 425.168 6.96C425.608 7.76 425.828 8.68667 425.828 9.74C425.828 9.80667 425.821 9.88 425.808 9.96C425.808 10.0267 425.808 10.1 425.808 10.18H416.668V9.12H425.048L424.488 9.54C424.488 8.78 424.321 8.10667 423.988 7.52C423.668 6.92 423.228 6.45333 422.668 6.12C422.108 5.78667 421.461 5.62 420.728 5.62C420.008 5.62 419.361 5.78667 418.788 6.12C418.215 6.45333 417.768 6.92 417.448 7.52C417.128 8.12 416.968 8.80667 416.968 9.58V9.8C416.968 10.6 417.141 11.3067 417.488 11.92C417.848 12.52 418.341 12.9933 418.968 13.34C419.608 13.6733 420.335 13.84 421.148 13.84C421.788 13.84 422.381 13.7267 422.928 13.5C423.488 13.2733 423.968 12.9267 424.368 12.46L425.168 13.38C424.701 13.94 424.115 14.3667 423.408 14.66C422.715 14.9533 421.948 15.1 421.108 15.1ZM431.538 15.1C430.672 15.1 429.852 14.98 429.078 14.74C428.305 14.4867 427.698 14.1733 427.258 13.8L427.898 12.68C428.325 13 428.872 13.28 429.538 13.52C430.205 13.7467 430.905 13.86 431.638 13.86C432.638 13.86 433.358 13.7067 433.798 13.4C434.238 13.08 434.458 12.66 434.458 12.14C434.458 11.7533 434.332 11.4533 434.078 11.24C433.838 11.0133 433.518 10.8467 433.118 10.74C432.718 10.62 432.272 10.52 431.778 10.44C431.285 10.36 430.792 10.2667 430.298 10.16C429.818 10.0533 429.378 9.9 428.978 9.7C428.578 9.48667 428.252 9.2 427.998 8.84C427.758 8.48 427.638 8 427.638 7.4C427.638 6.82667 427.798 6.31333 428.118 5.86C428.438 5.40667 428.905 5.05333 429.518 4.8C430.145 4.53333 430.905 4.4 431.798 4.4C432.478 4.4 433.158 4.49333 433.838 4.68C434.518 4.85333 435.078 5.08667 435.518 5.38L434.898 6.52C434.432 6.2 433.932 5.97333 433.398 5.84C432.865 5.69333 432.332 5.62 431.798 5.62C430.852 5.62 430.152 5.78667 429.698 6.12C429.258 6.44 429.038 6.85333 429.038 7.36C429.038 7.76 429.158 8.07333 429.398 8.3C429.652 8.52667 429.978 8.70667 430.378 8.84C430.792 8.96 431.238 9.06 431.718 9.14C432.212 9.22 432.698 9.32 433.178 9.44C433.672 9.54667 434.118 9.7 434.518 9.9C434.932 10.0867 435.258 10.36 435.498 10.72C435.752 11.0667 435.878 11.5267 435.878 12.1C435.878 12.7133 435.705 13.2467 435.358 13.7C435.025 14.14 434.532 14.4867 433.878 14.74C433.238 14.98 432.458 15.1 431.538 15.1ZM441.804 15.1C440.817 15.1 440.057 14.8333 439.524 14.3C438.991 13.7667 438.724 13.0133 438.724 12.04V2.18H440.144V11.96C440.144 12.5733 440.297 13.0467 440.604 13.38C440.924 13.7133 441.377 13.88 441.964 13.88C442.591 13.88 443.111 13.7 443.524 13.34L444.024 14.36C443.744 14.6133 443.404 14.8 443.004 14.92C442.617 15.04 442.217 15.1 441.804 15.1ZM436.844 5.68V4.5H443.344V5.68H436.844ZM450.518 15.1C449.504 15.1 448.591 14.8733 447.778 14.42C446.978 13.9533 446.344 13.32 445.878 12.52C445.411 11.7067 445.178 10.78 445.178 9.74C445.178 8.68667 445.411 7.76 445.878 6.96C446.344 6.16 446.978 5.53333 447.778 5.08C448.578 4.62667 449.491 4.4 450.518 4.4C451.558 4.4 452.478 4.62667 453.278 5.08C454.091 5.53333 454.724 6.16 455.178 6.96C455.644 7.76 455.878 8.68667 455.878 9.74C455.878 10.78 455.644 11.7067 455.178 12.52C454.724 13.32 454.091 13.9533 453.278 14.42C452.464 14.8733 451.544 15.1 450.518 15.1ZM450.518 13.84C451.278 13.84 451.951 13.6733 452.538 13.34C453.124 12.9933 453.584 12.5133 453.918 11.9C454.264 11.2733 454.438 10.5533 454.438 9.74C454.438 8.91333 454.264 8.19333 453.918 7.58C453.584 6.96667 453.124 6.49333 452.538 6.16C451.951 5.81333 451.284 5.64 450.538 5.64C449.791 5.64 449.124 5.81333 448.538 6.16C447.951 6.49333 447.484 6.96667 447.138 7.58C446.791 8.19333 446.618 8.91333 446.618 9.74C446.618 10.5533 446.791 11.2733 447.138 11.9C447.484 12.5133 447.951 12.9933 448.538 13.34C449.124 13.6733 449.784 13.84 450.518 13.84ZM458.777 15V4.5H460.137V7.36L459.997 6.86C460.29 6.06 460.784 5.45333 461.477 5.04C462.17 4.61333 463.03 4.4 464.057 4.4V5.78C464.004 5.78 463.95 5.78 463.897 5.78C463.844 5.76667 463.79 5.76 463.737 5.76C462.63 5.76 461.764 6.1 461.137 6.78C460.51 7.44667 460.197 8.4 460.197 9.64V15H458.777ZM469.585 15.1C468.718 15.1 467.898 14.98 467.125 14.74C466.352 14.4867 465.745 14.1733 465.305 13.8L465.945 12.68C466.372 13 466.918 13.28 467.585 13.52C468.252 13.7467 468.952 13.86 469.685 13.86C470.685 13.86 471.405 13.7067 471.845 13.4C472.285 13.08 472.505 12.66 472.505 12.14C472.505 11.7533 472.378 11.4533 472.125 11.24C471.885 11.0133 471.565 10.8467 471.165 10.74C470.765 10.62 470.318 10.52 469.825 10.44C469.332 10.36 468.838 10.2667 468.345 10.16C467.865 10.0533 467.425 9.9 467.025 9.7C466.625 9.48667 466.298 9.2 466.045 8.84C465.805 8.48 465.685 8 465.685 7.4C465.685 6.82667 465.845 6.31333 466.165 5.86C466.485 5.40667 466.952 5.05333 467.565 4.8C468.192 4.53333 468.952 4.4 469.845 4.4C470.525 4.4 471.205 4.49333 471.885 4.68C472.565 4.85333 473.125 5.08667 473.565 5.38L472.945 6.52C472.478 6.2 471.978 5.97333 471.445 5.84C470.912 5.69333 470.378 5.62 469.845 5.62C468.898 5.62 468.198 5.78667 467.745 6.12C467.305 6.44 467.085 6.85333 467.085 7.36C467.085 7.76 467.205 8.07333 467.445 8.3C467.698 8.52667 468.025 8.70667 468.425 8.84C468.838 8.96 469.285 9.06 469.765 9.14C470.258 9.22 470.745 9.32 471.225 9.44C471.718 9.54667 472.165 9.7 472.565 9.9C472.978 10.0867 473.305 10.36 473.545 10.72C473.798 11.0667 473.925 11.5267 473.925 12.1C473.925 12.7133 473.752 13.2467 473.405 13.7C473.072 14.14 472.578 14.4867 471.925 14.74C471.285 14.98 470.505 15.1 469.585 15.1ZM486.125 15.1C485.085 15.1 484.152 14.8733 483.325 14.42C482.512 13.9533 481.872 13.32 481.405 12.52C480.938 11.7067 480.705 10.78 480.705 9.74C480.705 8.68667 480.938 7.76 481.405 6.96C481.872 6.16 482.512 5.53333 483.325 5.08C484.152 4.62667 485.085 4.4 486.125 4.4C487.018 4.4 487.825 4.57333 488.545 4.92C489.265 5.26667 489.832 5.78667 490.245 6.48L489.185 7.2C488.825 6.66667 488.378 6.27333 487.845 6.02C487.312 5.76667 486.732 5.64 486.105 5.64C485.358 5.64 484.685 5.81333 484.085 6.16C483.485 6.49333 483.012 6.96667 482.665 7.58C482.318 8.19333 482.145 8.91333 482.145 9.74C482.145 10.5667 482.318 11.2867 482.665 11.9C483.012 12.5133 483.485 12.9933 484.085 13.34C484.685 13.6733 485.358 13.84 486.105 13.84C486.732 13.84 487.312 13.7133 487.845 13.46C488.378 13.2067 488.825 12.82 489.185 12.3L490.245 13.02C489.832 13.7 489.265 14.22 488.545 14.58C487.825 14.9267 487.018 15.1 486.125 15.1ZM499.615 15V12.68L499.555 12.3V8.42C499.555 7.52667 499.301 6.84 498.795 6.36C498.301 5.88 497.561 5.64 496.575 5.64C495.895 5.64 495.248 5.75333 494.635 5.98C494.021 6.20667 493.501 6.50667 493.075 6.88L492.435 5.82C492.968 5.36667 493.608 5.02 494.355 4.78C495.101 4.52667 495.888 4.4 496.715 4.4C498.075 4.4 499.121 4.74 499.855 5.42C500.601 6.08667 500.975 7.10667 500.975 8.48V15H499.615ZM495.995 15.1C495.208 15.1 494.521 14.9733 493.935 14.72C493.361 14.4533 492.921 14.0933 492.615 13.64C492.308 13.1733 492.155 12.64 492.155 12.04C492.155 11.4933 492.281 11 492.535 10.56C492.801 10.1067 493.228 9.74667 493.815 9.48C494.415 9.2 495.215 9.06 496.215 9.06H499.835V10.12H496.255C495.241 10.12 494.535 10.3 494.135 10.66C493.748 11.02 493.555 11.4667 493.555 12C493.555 12.6 493.788 13.08 494.255 13.44C494.721 13.8 495.375 13.98 496.215 13.98C497.015 13.98 497.701 13.8 498.275 13.44C498.861 13.0667 499.288 12.5333 499.555 11.84L499.875 12.82C499.608 13.5133 499.141 14.0667 498.475 14.48C497.821 14.8933 496.995 15.1 495.995 15.1ZM510.192 4.4C511.045 4.4 511.792 4.56667 512.432 4.9C513.085 5.22 513.592 5.71333 513.952 6.38C514.325 7.04667 514.512 7.88667 514.512 8.9V15H513.092V9.04C513.092 7.93333 512.812 7.1 512.252 6.54C511.705 5.96667 510.932 5.68 509.932 5.68C509.185 5.68 508.532 5.83333 507.972 6.14C507.425 6.43333 506.998 6.86667 506.692 7.44C506.398 8 506.252 8.68 506.252 9.48V15H504.832V4.5H506.192V7.38L505.972 6.84C506.305 6.08 506.838 5.48667 507.572 5.06C508.305 4.62 509.178 4.4 510.192 4.4ZM536.702 4.4C537.555 4.4 538.295 4.56667 538.922 4.9C539.562 5.22 540.055 5.71333 540.402 6.38C540.762 7.04667 540.942 7.88667 540.942 8.9V15H539.522V9.04C539.522 7.93333 539.255 7.1 538.722 6.54C538.202 5.96667 537.462 5.68 536.502 5.68C535.782 5.68 535.155 5.83333 534.622 6.14C534.102 6.43333 533.695 6.86667 533.402 7.44C533.122 8 532.982 8.68 532.982 9.48V15H531.562V9.04C531.562 7.93333 531.295 7.1 530.762 6.54C530.228 5.96667 529.482 5.68 528.522 5.68C527.815 5.68 527.195 5.83333 526.662 6.14C526.128 6.43333 525.715 6.86667 525.422 7.44C525.142 8 525.002 8.68 525.002 9.48V15H523.582V4.5H524.942V7.34L524.722 6.84C525.042 6.08 525.555 5.48667 526.262 5.06C526.982 4.62 527.828 4.4 528.802 4.4C529.828 4.4 530.702 4.66 531.422 5.18C532.142 5.68667 532.608 6.45333 532.822 7.48L532.262 7.26C532.568 6.40667 533.108 5.72 533.882 5.2C534.668 4.66667 535.608 4.4 536.702 4.4ZM549.253 15.1C548.159 15.1 547.199 14.8733 546.373 14.42C545.546 13.9533 544.899 13.32 544.433 12.52C543.966 11.7067 543.733 10.78 543.733 9.74C543.733 8.7 543.953 7.78 544.393 6.98C544.846 6.18 545.459 5.55333 546.233 5.1C547.019 4.63333 547.899 4.4 548.873 4.4C549.859 4.4 550.733 4.62667 551.493 5.08C552.266 5.52 552.873 6.14667 553.313 6.96C553.753 7.76 553.973 8.68667 553.973 9.74C553.973 9.80667 553.966 9.88 553.953 9.96C553.953 10.0267 553.953 10.1 553.953 10.18H544.813V9.12H553.193L552.633 9.54C552.633 8.78 552.466 8.10667 552.133 7.52C551.813 6.92 551.373 6.45333 550.813 6.12C550.253 5.78667 549.606 5.62 548.873 5.62C548.153 5.62 547.506 5.78667 546.933 6.12C546.359 6.45333 545.913 6.92 545.593 7.52C545.273 8.12 545.113 8.80667 545.113 9.58V9.8C545.113 10.6 545.286 11.3067 545.633 11.92C545.993 12.52 546.486 12.9933 547.113 13.34C547.753 13.6733 548.479 13.84 549.293 13.84C549.933 13.84 550.526 13.7267 551.073 13.5C551.633 13.2733 552.113 12.9267 552.513 12.46L553.313 13.38C552.846 13.94 552.259 14.3667 551.553 14.66C550.859 14.9533 550.093 15.1 549.253 15.1ZM561.323 15.1C560.229 15.1 559.269 14.8733 558.443 14.42C557.616 13.9533 556.969 13.32 556.503 12.52C556.036 11.7067 555.803 10.78 555.803 9.74C555.803 8.7 556.023 7.78 556.463 6.98C556.916 6.18 557.529 5.55333 558.303 5.1C559.089 4.63333 559.969 4.4 560.943 4.4C561.929 4.4 562.803 4.62667 563.563 5.08C564.336 5.52 564.943 6.14667 565.383 6.96C565.823 7.76 566.043 8.68667 566.043 9.74C566.043 9.80667 566.036 9.88 566.023 9.96C566.023 10.0267 566.023 10.1 566.023 10.18H556.883V9.12H565.263L564.703 9.54C564.703 8.78 564.536 8.10667 564.203 7.52C563.883 6.92 563.443 6.45333 562.883 6.12C562.323 5.78667 561.676 5.62 560.943 5.62C560.223 5.62 559.576 5.78667 559.003 6.12C558.429 6.45333 557.983 6.92 557.663 7.52C557.343 8.12 557.183 8.80667 557.183 9.58V9.8C557.183 10.6 557.356 11.3067 557.703 11.92C558.063 12.52 558.556 12.9933 559.183 13.34C559.823 13.6733 560.549 13.84 561.363 13.84C562.003 13.84 562.596 13.7267 563.143 13.5C563.703 13.2733 564.183 12.9267 564.583 12.46L565.383 13.38C564.916 13.94 564.329 14.3667 563.623 14.66C562.929 14.9533 562.163 15.1 561.323 15.1ZM572.253 15.1C571.266 15.1 570.506 14.8333 569.973 14.3C569.44 13.7667 569.173 13.0133 569.173 12.04V2.18H570.593V11.96C570.593 12.5733 570.746 13.0467 571.053 13.38C571.373 13.7133 571.826 13.88 572.413 13.88C573.04 13.88 573.56 13.7 573.973 13.34L574.473 14.36C574.193 14.6133 573.853 14.8 573.453 14.92C573.066 15.04 572.666 15.1 572.253 15.1ZM567.293 5.68V4.5H573.793V5.68H567.293ZM585.613 15.1C584.626 15.1 583.866 14.8333 583.333 14.3C582.799 13.7667 582.533 13.0133 582.533 12.04V2.18H583.953V11.96C583.953 12.5733 584.106 13.0467 584.413 13.38C584.733 13.7133 585.186 13.88 585.773 13.88C586.399 13.88 586.919 13.7 587.333 13.34L587.833 14.36C587.553 14.6133 587.213 14.8 586.813 14.92C586.426 15.04 586.026 15.1 585.613 15.1ZM580.653 5.68V4.5H587.153V5.68H580.653ZM595.778 4.4C596.631 4.4 597.378 4.56667 598.018 4.9C598.671 5.22 599.178 5.71333 599.538 6.38C599.911 7.04667 600.098 7.88667 600.098 8.9V15H598.678V9.04C598.678 7.93333 598.398 7.1 597.838 6.54C597.291 5.96667 596.518 5.68 595.518 5.68C594.771 5.68 594.118 5.83333 593.558 6.14C593.011 6.43333 592.584 6.86667 592.278 7.44C591.984 8 591.838 8.68 591.838 9.48V15H590.418V0.159999H591.838V7.38L591.558 6.84C591.891 6.08 592.424 5.48667 593.158 5.06C593.891 4.62 594.764 4.4 595.778 4.4ZM608.393 15.1C607.3 15.1 606.34 14.8733 605.513 14.42C604.686 13.9533 604.04 13.32 603.573 12.52C603.106 11.7067 602.873 10.78 602.873 9.74C602.873 8.7 603.093 7.78 603.533 6.98C603.986 6.18 604.6 5.55333 605.373 5.1C606.16 4.63333 607.04 4.4 608.013 4.4C609 4.4 609.873 4.62667 610.633 5.08C611.406 5.52 612.013 6.14667 612.453 6.96C612.893 7.76 613.113 8.68667 613.113 9.74C613.113 9.80667 613.106 9.88 613.093 9.96C613.093 10.0267 613.093 10.1 613.093 10.18H603.953V9.12H612.333L611.773 9.54C611.773 8.78 611.606 8.10667 611.273 7.52C610.953 6.92 610.513 6.45333 609.953 6.12C609.393 5.78667 608.746 5.62 608.013 5.62C607.293 5.62 606.646 5.78667 606.073 6.12C605.5 6.45333 605.053 6.92 604.733 7.52C604.413 8.12 604.253 8.80667 604.253 9.58V9.8C604.253 10.6 604.426 11.3067 604.773 11.92C605.133 12.52 605.626 12.9933 606.253 13.34C606.893 13.6733 607.62 13.84 608.433 13.84C609.073 13.84 609.666 13.7267 610.213 13.5C610.773 13.2733 611.253 12.9267 611.653 12.46L612.453 13.38C611.986 13.94 611.4 14.3667 610.693 14.66C610 14.9533 609.233 15.1 608.393 15.1ZM626.658 15.1C625.738 15.1 624.911 14.8933 624.178 14.48C623.444 14.0533 622.864 13.44 622.438 12.64C622.011 11.84 621.798 10.8733 621.798 9.74C621.798 8.59333 622.011 7.62667 622.438 6.84C622.878 6.04 623.464 5.43333 624.198 5.02C624.931 4.60667 625.751 4.4 626.658 4.4C627.658 4.4 628.551 4.62667 629.338 5.08C630.138 5.52 630.764 6.14 631.218 6.94C631.671 7.74 631.898 8.67333 631.898 9.74C631.898 10.7933 631.671 11.7267 631.218 12.54C630.764 13.34 630.138 13.9667 629.338 14.42C628.551 14.8733 627.658 15.1 626.658 15.1ZM621.238 15V0.159999H622.658V7.6L622.458 9.72L622.598 11.84V15H621.238ZM626.558 13.84C627.304 13.84 627.971 13.6733 628.558 13.34C629.144 12.9933 629.611 12.5133 629.958 11.9C630.304 11.2733 630.478 10.5533 630.478 9.74C630.478 8.91333 630.304 8.19333 629.958 7.58C629.611 6.96667 629.144 6.49333 628.558 6.16C627.971 5.81333 627.304 5.64 626.558 5.64C625.811 5.64 625.138 5.81333 624.538 6.16C623.951 6.49333 623.484 6.96667 623.138 7.58C622.804 8.19333 622.638 8.91333 622.638 9.74C622.638 10.5533 622.804 11.2733 623.138 11.9C623.484 12.5133 623.951 12.9933 624.538 13.34C625.138 13.6733 625.811 13.84 626.558 13.84ZM634.793 15V4.5H636.153V7.36L636.013 6.86C636.306 6.06 636.799 5.45333 637.493 5.04C638.186 4.61333 639.046 4.4 640.073 4.4V5.78C640.019 5.78 639.966 5.78 639.913 5.78C639.859 5.76667 639.806 5.76 639.753 5.76C638.646 5.76 637.779 6.1 637.153 6.78C636.526 7.44667 636.213 8.4 636.213 9.64V15H634.793ZM642.664 15V4.5H644.084V15H642.664ZM643.384 2.18C643.09 2.18 642.844 2.08 642.644 1.88C642.444 1.68 642.344 1.44 642.344 1.16C642.344 0.879999 642.444 0.646665 642.644 0.459999C642.844 0.259999 643.09 0.159999 643.384 0.159999C643.677 0.159999 643.924 0.253332 644.124 0.439999C644.324 0.626666 644.424 0.859999 644.424 1.14C644.424 1.43333 644.324 1.68 644.124 1.88C643.937 2.08 643.69 2.18 643.384 2.18ZM652.515 18.98C651.555 18.98 650.635 18.84 649.755 18.56C648.875 18.28 648.161 17.88 647.615 17.36L648.335 16.28C648.828 16.72 649.435 17.0667 650.155 17.32C650.888 17.5867 651.661 17.72 652.475 17.72C653.808 17.72 654.788 17.4067 655.415 16.78C656.041 16.1667 656.355 15.2067 656.355 13.9V11.28L656.555 9.48L656.415 7.68V4.5H657.775V13.72C657.775 15.5333 657.328 16.86 656.435 17.7C655.555 18.5533 654.248 18.98 652.515 18.98ZM652.255 14.6C651.255 14.6 650.355 14.3867 649.555 13.96C648.755 13.52 648.121 12.9133 647.655 12.14C647.201 11.3667 646.975 10.48 646.975 9.48C646.975 8.48 647.201 7.6 647.655 6.84C648.121 6.06667 648.755 5.46667 649.555 5.04C650.355 4.61333 651.255 4.4 652.255 4.4C653.188 4.4 654.028 4.59333 654.775 4.98C655.521 5.36667 656.115 5.94 656.555 6.7C656.995 7.46 657.215 8.38667 657.215 9.48C657.215 10.5733 656.995 11.5 656.555 12.26C656.115 13.02 655.521 13.6 654.775 14C654.028 14.4 653.188 14.6 652.255 14.6ZM652.395 13.34C653.168 13.34 653.855 13.18 654.455 12.86C655.055 12.5267 655.528 12.0733 655.875 11.5C656.221 10.9133 656.395 10.24 656.395 9.48C656.395 8.72 656.221 8.05333 655.875 7.48C655.528 6.90667 655.055 6.46 654.455 6.14C653.855 5.80667 653.168 5.64 652.395 5.64C651.635 5.64 650.948 5.80667 650.335 6.14C649.735 6.46 649.261 6.90667 648.915 7.48C648.581 8.05333 648.415 8.72 648.415 9.48C648.415 10.24 648.581 10.9133 648.915 11.5C649.261 12.0733 649.735 12.5267 650.335 12.86C650.948 13.18 651.635 13.34 652.395 13.34ZM667.086 4.4C667.939 4.4 668.686 4.56667 669.326 4.9C669.979 5.22 670.486 5.71333 670.846 6.38C671.219 7.04667 671.406 7.88667 671.406 8.9V15H669.986V9.04C669.986 7.93333 669.706 7.1 669.146 6.54C668.599 5.96667 667.826 5.68 666.826 5.68C666.079 5.68 665.426 5.83333 664.866 6.14C664.319 6.43333 663.893 6.86667 663.586 7.44C663.293 8 663.146 8.68 663.146 9.48V15H661.726V0.159999H663.146V7.38L662.866 6.84C663.199 6.08 663.733 5.48667 664.466 5.06C665.199 4.62 666.073 4.4 667.086 4.4ZM678.562 15.1C677.575 15.1 676.815 14.8333 676.282 14.3C675.748 13.7667 675.482 13.0133 675.482 12.04V2.18H676.902V11.96C676.902 12.5733 677.055 13.0467 677.362 13.38C677.682 13.7133 678.135 13.88 678.722 13.88C679.348 13.88 679.868 13.7 680.282 13.34L680.782 14.36C680.502 14.6133 680.162 14.8 679.762 14.92C679.375 15.04 678.975 15.1 678.562 15.1ZM673.602 5.68V4.5H680.102V5.68H673.602ZM687.456 15.1C686.362 15.1 685.402 14.8733 684.576 14.42C683.749 13.9533 683.102 13.32 682.636 12.52C682.169 11.7067 681.936 10.78 681.936 9.74C681.936 8.7 682.156 7.78 682.596 6.98C683.049 6.18 683.662 5.55333 684.436 5.1C685.222 4.63333 686.102 4.4 687.076 4.4C688.062 4.4 688.936 4.62667 689.696 5.08C690.469 5.52 691.076 6.14667 691.516 6.96C691.956 7.76 692.176 8.68667 692.176 9.74C692.176 9.80667 692.169 9.88 692.156 9.96C692.156 10.0267 692.156 10.1 692.156 10.18H683.016V9.12H691.396L690.836 9.54C690.836 8.78 690.669 8.10667 690.336 7.52C690.016 6.92 689.576 6.45333 689.016 6.12C688.456 5.78667 687.809 5.62 687.076 5.62C686.356 5.62 685.709 5.78667 685.136 6.12C684.562 6.45333 684.116 6.92 683.796 7.52C683.476 8.12 683.316 8.80667 683.316 9.58V9.8C683.316 10.6 683.489 11.3067 683.836 11.92C684.196 12.52 684.689 12.9933 685.316 13.34C685.956 13.6733 686.682 13.84 687.496 13.84C688.136 13.84 688.729 13.7267 689.276 13.5C689.836 13.2733 690.316 12.9267 690.716 12.46L691.516 13.38C691.049 13.94 690.462 14.3667 689.756 14.66C689.062 14.9533 688.296 15.1 687.456 15.1ZM697.886 15.1C697.019 15.1 696.199 14.98 695.426 14.74C694.653 14.4867 694.046 14.1733 693.606 13.8L694.246 12.68C694.673 13 695.219 13.28 695.886 13.52C696.553 13.7467 697.253 13.86 697.986 13.86C698.986 13.86 699.706 13.7067 700.146 13.4C700.586 13.08 700.806 12.66 700.806 12.14C700.806 11.7533 700.679 11.4533 700.426 11.24C700.186 11.0133 699.866 10.8467 699.466 10.74C699.066 10.62 698.619 10.52 698.126 10.44C697.633 10.36 697.139 10.2667 696.646 10.16C696.166 10.0533 695.726 9.9 695.326 9.7C694.926 9.48667 694.599 9.2 694.346 8.84C694.106 8.48 693.986 8 693.986 7.4C693.986 6.82667 694.146 6.31333 694.466 5.86C694.786 5.40667 695.253 5.05333 695.866 4.8C696.493 4.53333 697.253 4.4 698.146 4.4C698.826 4.4 699.506 4.49333 700.186 4.68C700.866 4.85333 701.426 5.08667 701.866 5.38L701.246 6.52C700.779 6.2 700.279 5.97333 699.746 5.84C699.213 5.69333 698.679 5.62 698.146 5.62C697.199 5.62 696.499 5.78667 696.046 6.12C695.606 6.44 695.386 6.85333 695.386 7.36C695.386 7.76 695.506 8.07333 695.746 8.3C695.999 8.52667 696.326 8.70667 696.726 8.84C697.139 8.96 697.586 9.06 698.066 9.14C698.559 9.22 699.046 9.32 699.526 9.44C700.019 9.54667 700.466 9.7 700.866 9.9C701.279 10.0867 701.606 10.36 701.846 10.72C702.099 11.0667 702.226 11.5267 702.226 12.1C702.226 12.7133 702.053 13.2467 701.706 13.7C701.373 14.14 700.879 14.4867 700.226 14.74C699.586 14.98 698.806 15.1 697.886 15.1ZM708.152 15.1C707.165 15.1 706.405 14.8333 705.872 14.3C705.338 13.7667 705.072 13.0133 705.072 12.04V2.18H706.492V11.96C706.492 12.5733 706.645 13.0467 706.952 13.38C707.272 13.7133 707.725 13.88 708.312 13.88C708.938 13.88 709.458 13.7 709.872 13.34L710.372 14.36C710.092 14.6133 709.752 14.8 709.352 14.92C708.965 15.04 708.565 15.1 708.152 15.1ZM703.192 5.68V4.5H709.692V5.68H703.192ZM719.771 11.52L719.711 9.72L728.191 0.999999H729.891L723.711 7.48L722.871 8.38L719.771 11.52ZM718.491 15V0.999999H719.971V15H718.491ZM728.551 15L722.511 8.04L723.511 6.96L730.311 15H728.551ZM736.201 15.1C735.188 15.1 734.275 14.8733 733.461 14.42C732.661 13.9533 732.028 13.32 731.561 12.52C731.095 11.7067 730.861 10.78 730.861 9.74C730.861 8.68667 731.095 7.76 731.561 6.96C732.028 6.16 732.661 5.53333 733.461 5.08C734.261 4.62667 735.175 4.4 736.201 4.4C737.241 4.4 738.161 4.62667 738.961 5.08C739.775 5.53333 740.408 6.16 740.861 6.96C741.328 7.76 741.561 8.68667 741.561 9.74C741.561 10.78 741.328 11.7067 740.861 12.52C740.408 13.32 739.775 13.9533 738.961 14.42C738.148 14.8733 737.228 15.1 736.201 15.1ZM736.201 13.84C736.961 13.84 737.635 13.6733 738.221 13.34C738.808 12.9933 739.268 12.5133 739.601 11.9C739.948 11.2733 740.121 10.5533 740.121 9.74C740.121 8.91333 739.948 8.19333 739.601 7.58C739.268 6.96667 738.808 6.49333 738.221 6.16C737.635 5.81333 736.968 5.64 736.221 5.64C735.475 5.64 734.808 5.81333 734.221 6.16C733.635 6.49333 733.168 6.96667 732.821 7.58C732.475 8.19333 732.301 8.91333 732.301 9.74C732.301 10.5533 732.475 11.2733 732.821 11.9C733.168 12.5133 733.635 12.9933 734.221 13.34C734.808 13.6733 735.468 13.84 736.201 13.84ZM744.46 15V4.5H745.82V7.36L745.68 6.86C745.974 6.06 746.467 5.45333 747.16 5.04C747.854 4.61333 748.714 4.4 749.74 4.4V5.78C749.687 5.78 749.634 5.78 749.58 5.78C749.527 5.76667 749.474 5.76 749.42 5.76C748.314 5.76 747.447 6.1 746.82 6.78C746.194 7.44667 745.88 8.4 745.88 9.64V15H744.46ZM756.694 15.1C755.601 15.1 754.641 14.8733 753.814 14.42C752.987 13.9533 752.341 13.32 751.874 12.52C751.407 11.7067 751.174 10.78 751.174 9.74C751.174 8.7 751.394 7.78 751.834 6.98C752.287 6.18 752.901 5.55333 753.674 5.1C754.461 4.63333 755.341 4.4 756.314 4.4C757.301 4.4 758.174 4.62667 758.934 5.08C759.707 5.52 760.314 6.14667 760.754 6.96C761.194 7.76 761.414 8.68667 761.414 9.74C761.414 9.80667 761.407 9.88 761.394 9.96C761.394 10.0267 761.394 10.1 761.394 10.18H752.254V9.12H760.634L760.074 9.54C760.074 8.78 759.907 8.10667 759.574 7.52C759.254 6.92 758.814 6.45333 758.254 6.12C757.694 5.78667 757.047 5.62 756.314 5.62C755.594 5.62 754.947 5.78667 754.374 6.12C753.801 6.45333 753.354 6.92 753.034 7.52C752.714 8.12 752.554 8.80667 752.554 9.58V9.8C752.554 10.6 752.727 11.3067 753.074 11.92C753.434 12.52 753.927 12.9933 754.554 13.34C755.194 13.6733 755.921 13.84 756.734 13.84C757.374 13.84 757.967 13.7267 758.514 13.5C759.074 13.2733 759.554 12.9267 759.954 12.46L760.754 13.38C760.287 13.94 759.701 14.3667 758.994 14.66C758.301 14.9533 757.534 15.1 756.694 15.1ZM770.591 15V12.68L770.531 12.3V8.42C770.531 7.52667 770.278 6.84 769.771 6.36C769.278 5.88 768.538 5.64 767.551 5.64C766.871 5.64 766.225 5.75333 765.611 5.98C764.998 6.20667 764.478 6.50667 764.051 6.88L763.411 5.82C763.945 5.36667 764.585 5.02 765.331 4.78C766.078 4.52667 766.865 4.4 767.691 4.4C769.051 4.4 770.098 4.74 770.831 5.42C771.578 6.08667 771.951 7.10667 771.951 8.48V15H770.591ZM766.971 15.1C766.185 15.1 765.498 14.9733 764.911 14.72C764.338 14.4533 763.898 14.0933 763.591 13.64C763.285 13.1733 763.131 12.64 763.131 12.04C763.131 11.4933 763.258 11 763.511 10.56C763.778 10.1067 764.205 9.74667 764.791 9.48C765.391 9.2 766.191 9.06 767.191 9.06H770.811V10.12H767.231C766.218 10.12 765.511 10.3 765.111 10.66C764.725 11.02 764.531 11.4667 764.531 12C764.531 12.6 764.765 13.08 765.231 13.44C765.698 13.8 766.351 13.98 767.191 13.98C767.991 13.98 768.678 13.8 769.251 13.44C769.838 13.0667 770.265 12.5333 770.531 11.84L770.851 12.82C770.585 13.5133 770.118 14.0667 769.451 14.48C768.798 14.8933 767.971 15.1 766.971 15.1ZM781.168 4.4C782.021 4.4 782.768 4.56667 783.408 4.9C784.061 5.22 784.568 5.71333 784.928 6.38C785.301 7.04667 785.488 7.88667 785.488 8.9V15H784.068V9.04C784.068 7.93333 783.788 7.1 783.228 6.54C782.681 5.96667 781.908 5.68 780.908 5.68C780.161 5.68 779.508 5.83333 778.948 6.14C778.401 6.43333 777.975 6.86667 777.668 7.44C777.375 8 777.228 8.68 777.228 9.48V15H775.808V4.5H777.168V7.38L776.948 6.84C777.281 6.08 777.815 5.48667 778.548 5.06C779.281 4.62 780.155 4.4 781.168 4.4ZM797.378 15.1C796.511 15.1 795.691 14.98 794.918 14.74C794.145 14.4867 793.538 14.1733 793.098 13.8L793.738 12.68C794.165 13 794.711 13.28 795.378 13.52C796.045 13.7467 796.745 13.86 797.478 13.86C798.478 13.86 799.198 13.7067 799.638 13.4C800.078 13.08 800.298 12.66 800.298 12.14C800.298 11.7533 800.171 11.4533 799.918 11.24C799.678 11.0133 799.358 10.8467 798.958 10.74C798.558 10.62 798.111 10.52 797.618 10.44C797.125 10.36 796.631 10.2667 796.138 10.16C795.658 10.0533 795.218 9.9 794.818 9.7C794.418 9.48667 794.091 9.2 793.838 8.84C793.598 8.48 793.478 8 793.478 7.4C793.478 6.82667 793.638 6.31333 793.958 5.86C794.278 5.40667 794.745 5.05333 795.358 4.8C795.985 4.53333 796.745 4.4 797.638 4.4C798.318 4.4 798.998 4.49333 799.678 4.68C800.358 4.85333 800.918 5.08667 801.358 5.38L800.738 6.52C800.271 6.2 799.771 5.97333 799.238 5.84C798.705 5.69333 798.171 5.62 797.638 5.62C796.691 5.62 795.991 5.78667 795.538 6.12C795.098 6.44 794.878 6.85333 794.878 7.36C794.878 7.76 794.998 8.07333 795.238 8.3C795.491 8.52667 795.818 8.70667 796.218 8.84C796.631 8.96 797.078 9.06 797.558 9.14C798.051 9.22 798.538 9.32 799.018 9.44C799.511 9.54667 799.958 9.7 800.358 9.9C800.771 10.0867 801.098 10.36 801.338 10.72C801.591 11.0667 801.718 11.5267 801.718 12.1C801.718 12.7133 801.545 13.2467 801.198 13.7C800.865 14.14 800.371 14.4867 799.718 14.74C799.078 14.98 798.298 15.1 797.378 15.1ZM807.644 15.1C806.657 15.1 805.897 14.8333 805.364 14.3C804.83 13.7667 804.564 13.0133 804.564 12.04V2.18H805.984V11.96C805.984 12.5733 806.137 13.0467 806.444 13.38C806.764 13.7133 807.217 13.88 807.804 13.88C808.43 13.88 808.95 13.7 809.364 13.34L809.864 14.36C809.584 14.6133 809.244 14.8 808.844 14.92C808.457 15.04 808.057 15.1 807.644 15.1ZM802.684 5.68V4.5H809.184V5.68H802.684ZM819.029 15V12.68L818.969 12.3V8.42C818.969 7.52667 818.715 6.84 818.209 6.36C817.715 5.88 816.975 5.64 815.989 5.64C815.309 5.64 814.662 5.75333 814.049 5.98C813.435 6.20667 812.915 6.50667 812.489 6.88L811.849 5.82C812.382 5.36667 813.022 5.02 813.769 4.78C814.515 4.52667 815.302 4.4 816.129 4.4C817.489 4.4 818.535 4.74 819.269 5.42C820.015 6.08667 820.389 7.10667 820.389 8.48V15H819.029ZM815.409 15.1C814.622 15.1 813.935 14.9733 813.349 14.72C812.775 14.4533 812.335 14.0933 812.029 13.64C811.722 13.1733 811.569 12.64 811.569 12.04C811.569 11.4933 811.695 11 811.949 10.56C812.215 10.1067 812.642 9.74667 813.229 9.48C813.829 9.2 814.629 9.06 815.629 9.06H819.249V10.12H815.669C814.655 10.12 813.949 10.3 813.549 10.66C813.162 11.02 812.969 11.4667 812.969 12C812.969 12.6 813.202 13.08 813.669 13.44C814.135 13.8 814.789 13.98 815.629 13.98C816.429 13.98 817.115 13.8 817.689 13.44C818.275 13.0667 818.702 12.5333 818.969 11.84L819.289 12.82C819.022 13.5133 818.555 14.0667 817.889 14.48C817.235 14.8933 816.409 15.1 815.409 15.1ZM824.246 15V4.5H825.606V7.36L825.466 6.86C825.759 6.06 826.252 5.45333 826.946 5.04C827.639 4.61333 828.499 4.4 829.526 4.4V5.78C829.472 5.78 829.419 5.78 829.366 5.78C829.312 5.76667 829.259 5.76 829.206 5.76C828.099 5.76 827.232 6.1 826.606 6.78C825.979 7.44667 825.666 8.4 825.666 9.64V15H824.246ZM835.886 15.1C834.899 15.1 834.139 14.8333 833.606 14.3C833.073 13.7667 832.806 13.0133 832.806 12.04V2.18H834.226V11.96C834.226 12.5733 834.379 13.0467 834.686 13.38C835.006 13.7133 835.459 13.88 836.046 13.88C836.673 13.88 837.193 13.7 837.606 13.34L838.106 14.36C837.826 14.6133 837.486 14.8 837.086 14.92C836.699 15.04 836.299 15.1 835.886 15.1ZM830.926 5.68V4.5H837.426V5.68H830.926ZM845.031 15.1C844.138 15.1 843.358 14.9333 842.691 14.6C842.024 14.2667 841.504 13.7667 841.131 13.1C840.771 12.4333 840.591 11.6 840.591 10.6V4.5H842.011V10.44C842.011 11.56 842.284 12.4067 842.831 12.98C843.391 13.54 844.171 13.82 845.171 13.82C845.904 13.82 846.538 13.6733 847.071 13.38C847.618 13.0733 848.031 12.6333 848.311 12.06C848.604 11.4867 848.751 10.8 848.751 10V4.5H850.171V15H848.811V12.12L849.031 12.64C848.698 13.4133 848.178 14.02 847.471 14.46C846.778 14.8867 845.964 15.1 845.031 15.1ZM859.548 15.1C858.642 15.1 857.822 14.8933 857.088 14.48C856.355 14.0533 855.768 13.4467 855.328 12.66C854.902 11.86 854.688 10.8867 854.688 9.74C854.688 8.59333 854.902 7.62667 855.328 6.84C855.755 6.04 856.335 5.43333 857.068 5.02C857.802 4.60667 858.628 4.4 859.548 4.4C860.548 4.4 861.442 4.62667 862.228 5.08C863.028 5.52 863.655 6.14667 864.108 6.96C864.562 7.76 864.788 8.68667 864.788 9.74C864.788 10.8067 864.562 11.74 864.108 12.54C863.655 13.34 863.028 13.9667 862.228 14.42C861.442 14.8733 860.548 15.1 859.548 15.1ZM854.128 18.88V4.5H855.488V7.66L855.348 9.76L855.548 11.88V18.88H854.128ZM859.448 13.84C860.195 13.84 860.862 13.6733 861.448 13.34C862.035 12.9933 862.502 12.5133 862.848 11.9C863.195 11.2733 863.368 10.5533 863.368 9.74C863.368 8.92667 863.195 8.21333 862.848 7.6C862.502 6.98667 862.035 6.50667 861.448 6.16C860.862 5.81333 860.195 5.64 859.448 5.64C858.702 5.64 858.028 5.81333 857.428 6.16C856.842 6.50667 856.375 6.98667 856.028 7.6C855.695 8.21333 855.528 8.92667 855.528 9.74C855.528 10.5533 855.695 11.2733 856.028 11.9C856.375 12.5133 856.842 12.9933 857.428 13.34C858.028 13.6733 858.702 13.84 859.448 13.84ZM870.503 15.1C869.636 15.1 868.816 14.98 868.043 14.74C867.27 14.4867 866.663 14.1733 866.223 13.8L866.863 12.68C867.29 13 867.836 13.28 868.503 13.52C869.17 13.7467 869.87 13.86 870.603 13.86C871.603 13.86 872.323 13.7067 872.763 13.4C873.203 13.08 873.423 12.66 873.423 12.14C873.423 11.7533 873.296 11.4533 873.043 11.24C872.803 11.0133 872.483 10.8467 872.083 10.74C871.683 10.62 871.236 10.52 870.743 10.44C870.25 10.36 869.756 10.2667 869.263 10.16C868.783 10.0533 868.343 9.9 867.943 9.7C867.543 9.48667 867.216 9.2 866.963 8.84C866.723 8.48 866.603 8 866.603 7.4C866.603 6.82667 866.763 6.31333 867.083 5.86C867.403 5.40667 867.87 5.05333 868.483 4.8C869.11 4.53333 869.87 4.4 870.763 4.4C871.443 4.4 872.123 4.49333 872.803 4.68C873.483 4.85333 874.043 5.08667 874.483 5.38L873.863 6.52C873.396 6.2 872.896 5.97333 872.363 5.84C871.83 5.69333 871.296 5.62 870.763 5.62C869.816 5.62 869.116 5.78667 868.663 6.12C868.223 6.44 868.003 6.85333 868.003 7.36C868.003 7.76 868.123 8.07333 868.363 8.3C868.616 8.52667 868.943 8.70667 869.343 8.84C869.756 8.96 870.203 9.06 870.683 9.14C871.176 9.22 871.663 9.32 872.143 9.44C872.636 9.54667 873.083 9.7 873.483 9.9C873.896 10.0867 874.223 10.36 874.463 10.72C874.716 11.0667 874.843 11.5267 874.843 12.1C874.843 12.7133 874.67 13.2467 874.323 13.7C873.99 14.14 873.496 14.4867 872.843 14.74C872.203 14.98 871.423 15.1 870.503 15.1Z" fill="black"/>
</svg>
