<svg
   width="430"
   height="123"
   viewBox="0 0 430 123"
   fill="none" xmlns="http://www.w3.org/2000/svg">
  <rect
     style="fill:#9ae7ff;fill-opacity:1;stroke-width:1.19328"
     id="rect5231"
     width="428.24493"
     height="8"
     x="3.0806819e-09"
     y="24.988762" />
  <rect
     style="fill:#9ae7ff;fill-opacity:1;stroke-width:1.05811"
     id="rect5231-9"
     width="336.7236"
     height="8"
     x="6.137805e-06"
     y="104.95281" />
  <path
     d="m 4.481942,33.3872 v -30.1 H 16.8659 c 2.666,0 4.945,0.43001 6.837,1.29001 1.9207,0.86 3.397,2.09266 4.429,3.69799 1.032,1.60534 1.548,3.5117 1.548,5.719 0,2.2073 -0.516,4.1137 -1.548,5.719 -1.032,1.6053 -2.5083,2.838 -4.429,3.698 -1.892,0.86 -4.171,1.29 -6.837,1.29 H 7.57794 l 2.494,-2.623 v 11.309 z m 5.589998,-10.707 -2.494,-2.709 h 9.02996 c 2.4654,0 4.3144,-0.516 5.547,-1.548 1.2614,-1.0607 1.892,-2.537 1.892,-4.429 0,-1.9207 -0.6306,-3.397 -1.892,-4.42899 -1.2326,-1.032 -3.0816,-1.548 -5.547,-1.548 H 7.57794 l 2.494,-2.752 z m 24.46436,10.707 v -22.962 h 5.117 v 6.321 l -0.602,-1.849 c 0.688,-1.548 1.763,-2.7233 3.225,-3.526 1.4906,-0.8027 3.3396,-1.204 5.547,-1.204 v 5.117 c -0.2294,-0.0573 -0.4444,-0.086 -0.645,-0.086 -0.2007,-0.0287 -0.4014,-0.043 -0.602,-0.043 -2.0354,0 -3.655,0.602 -4.859,1.806 -1.204,1.1753 -1.806,2.9383 -1.806,5.289 v 11.137 z m 27.9567,0.301 c -2.3507,0 -4.4434,-0.5017 -6.278,-1.505 -1.8347,-1.032 -3.2824,-2.4367 -4.343,-4.214 -1.0607,-1.7773 -1.591,-3.7983 -1.591,-6.063 0,-2.2933 0.5303,-4.3143 1.591,-6.063 1.0606,-1.7773 2.5083,-3.1677 4.343,-4.171 1.8346,-1.0033 3.9273,-1.505 6.278,-1.505 2.3793,0 4.4863,0.5017 6.321,1.505 1.8633,1.0033 3.311,2.3793 4.343,4.128 1.0606,1.7487 1.591,3.784 1.591,6.106 0,2.2647 -0.5304,4.2857 -1.591,6.063 -1.032,1.7773 -2.4797,3.182 -4.343,4.214 -1.8347,1.0033 -3.9417,1.505 -6.321,1.505 z m 0,-4.601 c 1.3186,0 2.494,-0.2867 3.526,-0.86 1.032,-0.5733 1.8346,-1.4047 2.408,-2.494 0.602,-1.0893 0.903,-2.365 0.903,-3.827 0,-1.4907 -0.301,-2.7663 -0.903,-3.827 -0.5734,-1.0893 -1.376,-1.9207 -2.408,-2.494 -1.032,-0.5733 -2.193,-0.86 -3.483,-0.86 -1.3187,0 -2.494,0.2867 -3.526,0.86 -1.0034,0.5733 -1.806,1.4047 -2.408,2.494 -0.602,1.0607 -0.903,2.3363 -0.903,3.827 0,1.462 0.301,2.7377 0.903,3.827 0.602,1.0893 1.4046,1.9207 2.408,2.494 1.032,0.5733 2.193,0.86 3.483,0.86 z m 27.1128,4.601 c -2.2073,0 -4.1996,-0.4873 -5.977,-1.462 -1.7486,-1.0033 -3.1247,-2.3793 -4.128,-4.128 -1.0033,-1.7487 -1.505,-3.8127 -1.505,-6.192 0,-2.3793 0.5017,-4.4433 1.505,-6.192 1.0033,-1.7487 2.3794,-3.1103 4.128,-4.085 1.7774,-0.9747 3.7697,-1.462 5.977,-1.462 1.9207,0 3.6407,0.43 5.16,1.29 1.5194,0.8313 2.7234,2.107 3.612,3.827 0.8887,1.72 1.333,3.9273 1.333,6.622 0,2.666 -0.43,4.8733 -1.29,6.622 -0.86,1.72 -2.0496,3.01 -3.569,3.87 -1.5193,0.86 -3.268,1.29 -5.246,1.29 z m 0.645,-4.601 c 1.29,0 2.4367,-0.2867 3.44,-0.86 1.032,-0.5733 1.849,-1.4047 2.451,-2.494 0.6307,-1.0893 0.946,-2.365 0.946,-3.827 0,-1.4907 -0.3153,-2.7663 -0.946,-3.827 -0.602,-1.0893 -1.419,-1.9207 -2.451,-2.494 -1.0033,-0.5733 -2.15,-0.86 -3.44,-0.86 -1.29,0 -2.451,0.2867 -3.483,0.86 -1.0033,0.5733 -1.8203,1.4047 -2.451,2.494 -0.602,1.0607 -0.903,2.3363 -0.903,3.827 0,1.462 0.301,2.7377 0.903,3.827 0.6307,1.0893 1.4477,1.9207 2.451,2.494 1.032,0.5733 2.193,0.86 3.483,0.86 z m 6.966,4.3 v -5.418 l 0.215,-6.106 -0.43,-6.106 V 1.48121 h 5.332 V 33.3872 Z m 21.9092,0.301 c -1.949,0 -3.669,-0.3583 -5.16,-1.075 -1.49,-0.7453 -2.651,-1.8633 -3.483,-3.354 -0.831,-1.5193 -1.247,-3.4257 -1.247,-5.719 v -13.115 h 5.375 v 12.384 c 0,2.064 0.459,3.612 1.376,4.644 0.946,1.0033 2.279,1.505 3.999,1.505 1.262,0 2.351,-0.258 3.268,-0.774 0.946,-0.516 1.677,-1.29 2.193,-2.322 0.545,-1.032 0.817,-2.3077 0.817,-3.827 v -11.61 h 5.375 v 22.962 h -5.117 v -6.192 l 0.903,1.892 c -0.774,1.4907 -1.906,2.6373 -3.397,3.44 -1.49,0.774 -3.124,1.161 -4.902,1.161 z m 30.086,0 c -2.408,0 -4.558,-0.5017 -6.45,-1.505 -1.863,-1.032 -3.325,-2.4367 -4.386,-4.214 -1.061,-1.7773 -1.591,-3.7983 -1.591,-6.063 0,-2.2933 0.53,-4.3143 1.591,-6.063 1.061,-1.7773 2.523,-3.1677 4.386,-4.171 1.892,-1.0033 4.042,-1.505 6.45,-1.505 2.236,0 4.2,0.4587 5.891,1.376 1.72,0.8887 3.024,2.2073 3.913,3.956 l -4.128,2.408 c -0.688,-1.0893 -1.534,-1.892 -2.537,-2.408 -0.975,-0.516 -2.035,-0.774 -3.182,-0.774 -1.319,0 -2.508,0.2867 -3.569,0.86 -1.061,0.5733 -1.892,1.4047 -2.494,2.494 -0.602,1.0607 -0.903,2.3363 -0.903,3.827 0,1.4907 0.301,2.7807 0.903,3.87 0.602,1.0607 1.433,1.8777 2.494,2.451 1.061,0.5733 2.25,0.86 3.569,0.86 1.147,0 2.207,-0.258 3.182,-0.774 1.003,-0.516 1.849,-1.3187 2.537,-2.408 l 4.128,2.408 c -0.889,1.72 -2.193,3.053 -3.913,3.999 -1.691,0.9173 -3.655,1.376 -5.891,1.376 z m 23.387,0 c -2.522,0 -4.472,-0.645 -5.848,-1.935 -1.376,-1.3187 -2.064,-3.2537 -2.064,-5.805 V 5.35121 h 5.375 V 25.8192 c 0,1.0893 0.273,1.935 0.817,2.537 0.574,0.602 1.362,0.903 2.365,0.903 1.204,0 2.208,-0.3153 3.01,-0.946 l 1.505,3.827 c -0.63,0.516 -1.404,0.903 -2.322,1.161 -0.917,0.258 -1.863,0.387 -2.838,0.387 z m -11.696,-18.791 v -4.3 h 15.308 v 4.3 z m 33.678,18.49 v -30.1 h 4.601 l 13.158,21.973 h -2.408 l 12.943,-21.973 h 4.601 l 0.043,30.1 h -5.289 l -0.043,-21.801 h 1.118 l -11.008,18.361 h -2.494 l -11.18,-18.361 h 1.29 v 21.801 z m 54.699,0 v -4.644 l -0.301,-0.989 v -8.127 c 0,-1.5767 -0.473,-2.795 -1.419,-3.655 -0.946,-0.8887 -2.379,-1.333 -4.3,-1.333 -1.29,0 -2.566,0.2007 -3.827,0.602 -1.233,0.4013 -2.279,0.9603 -3.139,1.677 l -2.107,-3.913 c 1.233,-0.946 2.695,-1.6483 4.386,-2.107 1.72,-0.4873 3.497,-0.731 5.332,-0.731 3.325,0 5.891,0.8027 7.697,2.408 1.835,1.5767 2.752,4.0277 2.752,7.353 v 13.459 z m -7.224,0.301 c -1.72,0 -3.225,-0.2867 -4.515,-0.86 -1.29,-0.602 -2.293,-1.419 -3.01,-2.451 -0.688,-1.0607 -1.032,-2.2503 -1.032,-3.569 0,-1.29 0.301,-2.451 0.903,-3.483 0.631,-1.032 1.648,-1.849 3.053,-2.451 1.405,-0.602 3.268,-0.903 5.59,-0.903 h 6.665 v 3.569 h -6.278 c -1.835,0 -3.067,0.301 -3.698,0.903 -0.631,0.5733 -0.946,1.29 -0.946,2.15 0,0.9747 0.387,1.7487 1.161,2.322 0.774,0.5733 1.849,0.86 3.225,0.86 1.319,0 2.494,-0.301 3.526,-0.903 1.061,-0.602 1.82,-1.4907 2.279,-2.666 l 0.903,3.225 c -0.516,1.3473 -1.448,2.3937 -2.795,3.139 -1.319,0.7453 -2.996,1.118 -5.031,1.118 z m 19.196,-0.301 v -22.962 h 5.117 v 6.321 l -0.602,-1.849 c 0.688,-1.548 1.763,-2.7233 3.225,-3.526 1.491,-0.8027 3.34,-1.204 5.547,-1.204 v 5.117 c -0.229,-0.0573 -0.444,-0.086 -0.645,-0.086 -0.201,-0.0287 -0.401,-0.043 -0.602,-0.043 -2.035,0 -3.655,0.602 -4.859,1.806 -1.204,1.1753 -1.806,2.9383 -1.806,5.289 v 11.137 z m 22.233,-5.117 0.129,-6.751 11.997,-11.094 h 6.45 l -10.191,10.234 -2.838,2.365 z m -4.386,5.117 V 1.48121 h 5.375 V 33.3872 Z m 17.329,0 -8.385,-10.363 3.397,-4.3 11.524,14.663 z m 19.877,0.301 c -2.551,0 -4.787,-0.5017 -6.708,-1.505 -1.892,-1.032 -3.368,-2.4367 -4.429,-4.214 -1.032,-1.7773 -1.548,-3.7983 -1.548,-6.063 0,-2.2933 0.502,-4.3143 1.505,-6.063 1.032,-1.7773 2.437,-3.1677 4.214,-4.171 1.806,-1.0033 3.856,-1.505 6.149,-1.505 2.236,0 4.228,0.4873 5.977,1.462 1.749,0.9747 3.125,2.3507 4.128,4.128 1.003,1.7773 1.505,3.87 1.505,6.278 0,0.2293 -0.014,0.4873 -0.043,0.774 0,0.2867 -0.014,0.559 -0.043,0.817 h -19.135 v -3.569 h 16.297 l -2.107,1.118 c 0.029,-1.3187 -0.244,-2.4797 -0.817,-3.483 -0.573,-1.0033 -1.362,-1.7917 -2.365,-2.365 -0.975,-0.5733 -2.107,-0.86 -3.397,-0.86 -1.319,0 -2.48,0.2867 -3.483,0.86 -0.975,0.5733 -1.749,1.376 -2.322,2.408 -0.545,1.0033 -0.817,2.193 -0.817,3.569 v 0.86 c 0,1.376 0.315,2.5943 0.946,3.655 0.631,1.0607 1.519,1.8777 2.666,2.451 1.147,0.5733 2.465,0.86 3.956,0.86 1.29,0 2.451,-0.2007 3.483,-0.602 1.032,-0.4013 1.949,-1.032 2.752,-1.892 l 2.881,3.311 c -1.032,1.204 -2.336,2.1357 -3.913,2.795 -1.548,0.6307 -3.325,0.946 -5.332,0.946 z m 24.599,0 c -2.523,0 -4.472,-0.645 -5.848,-1.935 -1.376,-1.3187 -2.064,-3.2537 -2.064,-5.805 V 5.35121 h 5.375 V 25.8192 c 0,1.0893 0.272,1.935 0.817,2.537 0.573,0.602 1.362,0.903 2.365,0.903 1.204,0 2.207,-0.3153 3.01,-0.946 l 1.505,3.827 c -0.631,0.516 -1.405,0.903 -2.322,1.161 -0.917,0.258 -1.863,0.387 -2.838,0.387 z m -11.696,-18.791 v -4.3 h 15.308 v 4.3 z m 19.697,8.772 v -4.472 h 11.825 v 4.472 z m 23.338,-6.536 h 15.007 v 4.73 h -15.007 z m 0.473,16.254 h -5.59 v -30.1 h 21.973 v 4.68701 h -16.383 z m 21.273,0 v -22.962 h 5.375 v 22.962 z m 2.709,-26.74599 c -1.003,0 -1.834,-0.31534 -2.494,-0.94601 -0.63,-0.63066 -0.946,-1.39033 -0.946,-2.27899 0,-0.91734 0.316,-1.677 0.946,-2.27901 0.66,-0.630661 1.491,-0.945994 2.494,-0.945994 1.004,0 1.821,0.301 2.451,0.903004 0.66,0.57333 0.989,1.30433 0.989,2.19299 0,0.946 -0.315,1.74867 -0.946,2.408 -0.63,0.63067 -1.462,0.94601 -2.494,0.94601 z m 18.364,27.04699 c -2.523,0 -4.472,-0.645 -5.848,-1.935 -1.376,-1.3187 -2.064,-3.2537 -2.064,-5.805 V 5.35121 h 5.375 V 25.8192 c 0,1.0893 0.272,1.935 0.817,2.537 0.573,0.602 1.362,0.903 2.365,0.903 1.204,0 2.207,-0.3153 3.01,-0.946 l 1.505,3.827 c -0.631,0.516 -1.405,0.903 -2.322,1.161 -0.917,0.258 -1.863,0.387 -2.838,0.387 z m -11.696,-18.791 v -4.3 h 15.308 v 4.3 z M 4.481942,113.387 V 83.2872 H 16.8659 c 2.666,0 4.945,0.43 6.837,1.29 1.9207,0.86 3.397,2.0927 4.429,3.698 1.032,1.6053 1.548,3.5117 1.548,5.719 0,2.2073 -0.516,4.1137 -1.548,5.719 -1.032,1.6058 -2.5083,2.8378 -4.429,3.6978 -1.892,0.86 -4.171,1.29 -6.837,1.29 H 7.57794 l 2.494,-2.623 v 11.309 z m 5.589998,-10.707 -2.494,-2.7088 h 9.02996 c 2.4654,0 4.3144,-0.516 5.547,-1.548 1.2614,-1.0607 1.892,-2.537 1.892,-4.429 0,-1.9207 -0.6306,-3.397 -1.892,-4.429 -1.2326,-1.032 -3.0816,-1.548 -5.547,-1.548 H 7.57794 l 2.494,-2.752 z M 34.5363,113.387 V 90.4252 h 5.117 v 6.321 l -0.602,-1.849 c 0.688,-1.548 1.763,-2.7233 3.225,-3.526 1.4906,-0.8027 3.3396,-1.204 5.547,-1.204 v 5.117 c -0.2294,-0.0573 -0.4444,-0.086 -0.645,-0.086 -0.2007,-0.0287 -0.4014,-0.043 -0.602,-0.043 -2.0354,0 -3.655,0.602 -4.859,1.806 -1.204,1.1753 -1.806,2.9383 -1.806,5.2888 v 11.137 z m 27.9567,0.301 c -2.3507,0 -4.4434,-0.501 -6.278,-1.505 -1.8347,-1.032 -3.2824,-2.436 -4.343,-4.214 -1.0607,-1.777 -1.591,-3.798 -1.591,-6.063 0,-2.2931 0.5303,-4.3141 1.591,-6.0628 1.0606,-1.7773 2.5083,-3.1677 4.343,-4.171 1.8346,-1.0033 3.9273,-1.505 6.278,-1.505 2.3793,0 4.4863,0.5017 6.321,1.505 1.8633,1.0033 3.311,2.3793 4.343,4.128 1.0606,1.7487 1.591,3.784 1.591,6.1058 0,2.265 -0.5304,4.286 -1.591,6.063 -1.032,1.778 -2.4797,3.182 -4.343,4.214 -1.8347,1.004 -3.9417,1.505 -6.321,1.505 z m 0,-4.601 c 1.3186,0 2.494,-0.286 3.526,-0.86 1.032,-0.573 1.8346,-1.404 2.408,-2.494 0.602,-1.089 0.903,-2.365 0.903,-3.827 0,-1.49 -0.301,-2.7661 -0.903,-3.8268 -0.5734,-1.0893 -1.376,-1.9207 -2.408,-2.494 -1.032,-0.5733 -2.193,-0.86 -3.483,-0.86 -1.3187,0 -2.494,0.2867 -3.526,0.86 -1.0034,0.5733 -1.806,1.4047 -2.408,2.494 -0.602,1.0607 -0.903,2.3368 -0.903,3.8268 0,1.462 0.301,2.738 0.903,3.827 0.602,1.09 1.4046,1.921 2.408,2.494 1.032,0.574 2.193,0.86 3.483,0.86 z m 27.8008,12.943 c -2.1213,0 -4.1997,-0.286 -6.235,-0.86 -2.0067,-0.544 -3.655,-1.347 -4.945,-2.408 l 2.408,-4.042 c 1.0033,0.832 2.2647,1.491 3.784,1.978 1.548,0.516 3.1104,0.774 4.687,0.774 2.5227,0 4.3717,-0.587 5.547,-1.763 1.1754,-1.146 1.763,-2.881 1.763,-5.203 v -4.085 l 0.43,-5.203 -0.172,-5.2028 v -5.59 h 5.117 v 19.4788 c 0,4.157 -1.0606,7.21 -3.182,9.159 -2.1213,1.978 -5.1886,2.967 -9.202,2.967 z m -0.688,-9.675 c -2.1786,0 -4.1566,-0.458 -5.934,-1.376 -1.7487,-0.946 -3.139,-2.25 -4.171,-3.913 -1.0033,-1.662 -1.505,-3.612 -1.505,-5.848 0,-2.2071 0.5017,-4.1421 1.505,-5.8048 1.032,-1.6627 2.4223,-2.9527 4.171,-3.87 1.7774,-0.9173 3.7554,-1.376 5.934,-1.376 1.9494,0 3.698,0.387 5.246,1.161 1.548,0.774 2.7807,1.978 3.698,3.612 0.946,1.634 1.419,3.7267 1.419,6.2778 0,2.552 -0.473,4.659 -1.419,6.321 -0.9173,1.634 -2.15,2.853 -3.698,3.655 -1.548,0.774 -3.2966,1.161 -5.246,1.161 z m 0.817,-4.558 c 1.3474,0 2.5514,-0.272 3.612,-0.817 1.0607,-0.573 1.8777,-1.347 2.451,-2.322 0.602,-1.003 0.903,-2.15 0.903,-3.44 0,-1.2898 -0.301,-2.4221 -0.903,-3.3968 -0.5733,-1.0033 -1.3903,-1.763 -2.451,-2.279 -1.0606,-0.5447 -2.2646,-0.817 -3.612,-0.817 -1.3473,0 -2.5657,0.2723 -3.655,0.817 -1.0606,0.516 -1.892,1.2757 -2.494,2.279 -0.5733,0.9747 -0.86,2.107 -0.86,3.3968 0,1.29 0.2867,2.437 0.86,3.44 0.602,0.975 1.4334,1.749 2.494,2.322 1.0893,0.545 2.3077,0.817 3.655,0.817 z m 19.3212,5.59 V 90.4252 h 5.117 v 6.321 l -0.602,-1.849 c 0.688,-1.548 1.763,-2.7233 3.225,-3.526 1.491,-0.8027 3.34,-1.204 5.547,-1.204 v 5.117 c -0.229,-0.0573 -0.444,-0.086 -0.645,-0.086 -0.2,-0.0287 -0.401,-0.043 -0.602,-0.043 -2.035,0 -3.655,0.602 -4.859,1.806 -1.204,1.1753 -1.806,2.9383 -1.806,5.2888 v 11.137 z m 30.356,0 v -4.644 l -0.301,-0.989 v -8.1268 c 0,-1.5767 -0.473,-2.795 -1.419,-3.655 -0.946,-0.8887 -2.379,-1.333 -4.3,-1.333 -1.29,0 -2.565,0.2007 -3.827,0.602 -1.232,0.4013 -2.279,0.9603 -3.139,1.677 l -2.107,-3.913 c 1.233,-0.946 2.695,-1.6483 4.386,-2.107 1.72,-0.4873 3.498,-0.731 5.332,-0.731 3.326,0 5.891,0.8027 7.697,2.408 1.835,1.5767 2.752,4.0277 2.752,7.353 v 13.4588 z m -7.224,0.301 c -1.72,0 -3.225,-0.286 -4.515,-0.86 -1.29,-0.602 -2.293,-1.419 -3.01,-2.451 -0.688,-1.06 -1.032,-2.25 -1.032,-3.569 0,-1.29 0.301,-2.451 0.903,-3.483 0.631,-1.032 1.649,-1.849 3.053,-2.451 1.405,-0.602 3.268,-0.9028 5.59,-0.9028 h 6.665 v 3.5688 h -6.278 c -1.834,0 -3.067,0.301 -3.698,0.903 -0.63,0.574 -0.946,1.29 -0.946,2.15 0,0.975 0.387,1.749 1.161,2.322 0.774,0.574 1.849,0.86 3.225,0.86 1.319,0 2.494,-0.301 3.526,-0.903 1.061,-0.602 1.821,-1.49 2.279,-2.666 l 0.903,3.225 c -0.516,1.348 -1.447,2.394 -2.795,3.139 -1.318,0.746 -2.995,1.118 -5.031,1.118 z m 48.178,-23.5208 c 1.835,0 3.455,0.3583 4.859,1.075 1.434,0.7167 2.552,1.8203 3.354,3.311 0.803,1.462 1.204,3.354 1.204,5.6758 v 13.158 h -5.375 v -12.47 c 0,-2.0351 -0.444,-3.5545 -1.333,-4.5578 -0.888,-1.0033 -2.164,-1.505 -3.827,-1.505 -1.175,0 -2.221,0.258 -3.139,0.774 -0.888,0.516 -1.591,1.2757 -2.107,2.279 -0.487,1.0033 -0.731,2.2788 -0.731,3.8268 v 11.653 h -5.375 v -12.47 c 0,-2.0351 -0.444,-3.5545 -1.333,-4.5578 -0.888,-1.0033 -2.164,-1.505 -3.827,-1.505 -1.175,0 -2.221,0.258 -3.139,0.774 -0.888,0.516 -1.591,1.2757 -2.107,2.279 -0.487,1.0033 -0.731,2.2788 -0.731,3.8268 v 11.653 h -5.375 V 90.4252 h 5.117 v 6.106 l -0.903,-1.806 c 0.774,-1.4907 1.892,-2.623 3.354,-3.397 1.491,-0.774 3.182,-1.161 5.074,-1.161 2.15,0 4.014,0.5303 5.59,1.591 1.606,1.0607 2.666,2.666 3.182,4.816 l -2.107,-0.731 c 0.746,-1.72 1.978,-3.096 3.698,-4.128 1.72,-1.032 3.713,-1.548 5.977,-1.548 z m 33.502,31.5618 c -1.692,-2.608 -2.996,-5.618 -3.913,-9.03 -0.889,-3.44 -1.333,-7.138 -1.333,-11.094 0,-3.9558 0.444,-7.6538 1.333,-11.0938 0.917,-3.4687 2.221,-6.4787 3.913,-9.03 h 5.117 c -1.749,3.1533 -3.039,6.3783 -3.87,9.675 -0.803,3.268 -1.204,6.751 -1.204,10.4488 0,3.698 0.401,7.196 1.204,10.492 0.831,3.268 2.121,6.479 3.87,9.632 z m 10.091,-8.342 V 83.2872 h 12.384 c 2.666,0 4.945,0.43 6.837,1.29 1.921,0.86 3.397,2.0927 4.429,3.698 1.032,1.6053 1.548,3.5117 1.548,5.719 0,2.2073 -0.516,4.1137 -1.548,5.719 -1.032,1.6058 -2.508,2.8378 -4.429,3.6978 -1.892,0.86 -4.171,1.29 -6.837,1.29 h -9.288 l 2.494,-2.623 v 11.309 z m 5.59,-10.707 -2.494,-2.7088 h 9.03 c 2.465,0 4.314,-0.516 5.547,-1.548 1.261,-1.0607 1.892,-2.537 1.892,-4.429 0,-1.9207 -0.631,-3.397 -1.892,-4.429 -1.233,-1.032 -3.082,-1.548 -5.547,-1.548 h -9.03 l 2.494,-2.752 z m 25.19,10.707 V 83.2872 h 4.601 l 13.158,21.9728 h -2.408 l 12.943,-21.9728 h 4.601 l 0.043,30.0998 h -5.289 l -0.043,-21.8008 h 1.118 l -11.008,18.3608 h -2.494 l -11.18,-18.3608 h 1.29 v 21.8008 z m 46.186,-16.2538 h 15.007 v 4.7298 h -15.007 z m 0.473,16.2538 h -5.59 V 83.2872 h 21.973 v 4.687 h -16.383 z m 23.6,8.342 h -5.117 c 1.777,-3.153 3.067,-6.364 3.87,-9.632 0.831,-3.296 1.247,-6.794 1.247,-10.492 0,-3.6978 -0.416,-7.1808 -1.247,-10.4488 -0.803,-3.2967 -2.093,-6.5217 -3.87,-9.675 h 5.117 c 1.72,2.5513 3.024,5.5613 3.913,9.03 0.888,3.44 1.333,7.138 1.333,11.0938 0,3.956 -0.445,7.654 -1.333,11.094 -0.889,3.412 -2.193,6.422 -3.913,9.03 z"
     fill="#000000"
     id="path5106" />
</svg>
