<svg width="242" height="24" viewBox="0 0 242 24" fill="none" xmlns="http://www.w3.org/2000/svg">
<path d="M0.15 23V2H8.34C10.18 2 11.75 2.29 13.05 2.87C14.35 3.45 15.35 4.29 16.05 5.39C16.75 6.49 17.1 7.8 17.1 9.32C17.1 10.84 16.75 12.15 16.05 13.25C15.35 14.33 14.35 15.17 13.05 15.77C11.75 16.35 10.18 16.64 8.34 16.64H1.8L3.15 15.23V23H0.15ZM3.15 15.53L1.8 14.03H8.25C10.17 14.03 11.62 13.62 12.6 12.8C13.6 11.98 14.1 10.82 14.1 9.32C14.1 7.82 13.6 6.66 12.6 5.84C11.62 5.02 10.17 4.61 8.25 4.61H1.8L3.15 3.11V15.53ZM30.8109 23V19.64L30.6609 19.01V13.28C30.6609 12.06 30.3009 11.12 29.5809 10.46C28.8809 9.78 27.8209 9.44 26.4009 9.44C25.4609 9.44 24.5409 9.6 23.6409 9.92C22.7409 10.22 21.9809 10.63 21.3609 11.15L20.1609 8.99C20.9809 8.33 21.9609 7.83 23.1009 7.49C24.2609 7.13 25.4709 6.95 26.7309 6.95C28.9109 6.95 30.5909 7.48 31.7709 8.54C32.9509 9.6 33.5409 11.22 33.5409 13.4V23H30.8109ZM25.5909 23.18C24.4109 23.18 23.3709 22.98 22.4709 22.58C21.5909 22.18 20.9109 21.63 20.4309 20.93C19.9509 20.21 19.7109 19.4 19.7109 18.5C19.7109 17.64 19.9109 16.86 20.3109 16.16C20.7309 15.46 21.4009 14.9 22.3209 14.48C23.2609 14.06 24.5209 13.85 26.1009 13.85H31.1409V15.92H26.2209C24.7809 15.92 23.8109 16.16 23.3109 16.64C22.8109 17.12 22.5609 17.7 22.5609 18.38C22.5609 19.16 22.8709 19.79 23.4909 20.27C24.1109 20.73 24.9709 20.96 26.0709 20.96C27.1509 20.96 28.0909 20.72 28.8909 20.24C29.7109 19.76 30.3009 19.06 30.6609 18.14L31.2309 20.12C30.8509 21.06 30.1809 21.81 29.2209 22.37C28.2609 22.91 27.0509 23.18 25.5909 23.18ZM43.4306 23.18C42.1106 23.18 40.8506 23 39.6506 22.64C38.4706 22.28 37.5406 21.84 36.8606 21.32L38.0606 19.04C38.7406 19.5 39.5806 19.89 40.5806 20.21C41.5806 20.53 42.6006 20.69 43.6406 20.69C44.9806 20.69 45.9406 20.5 46.5206 20.12C47.1206 19.74 47.4206 19.21 47.4206 18.53C47.4206 18.03 47.2406 17.64 46.8806 17.36C46.5206 17.08 46.0406 16.87 45.4406 16.73C44.8606 16.59 44.2106 16.47 43.4906 16.37C42.7706 16.25 42.0506 16.11 41.3306 15.95C40.6106 15.77 39.9506 15.53 39.3506 15.23C38.7506 14.91 38.2706 14.48 37.9106 13.94C37.5506 13.38 37.3706 12.64 37.3706 11.72C37.3706 10.76 37.6406 9.92 38.1806 9.2C38.7206 8.48 39.4806 7.93 40.4606 7.55C41.4606 7.15 42.6406 6.95 44.0006 6.95C45.0406 6.95 46.0906 7.08 47.1506 7.34C48.2306 7.58 49.1106 7.93 49.7906 8.39L48.5606 10.67C47.8406 10.19 47.0906 9.86 46.3106 9.68C45.5306 9.5 44.7506 9.41 43.9706 9.41C42.7106 9.41 41.7706 9.62 41.1506 10.04C40.5306 10.44 40.2206 10.96 40.2206 11.6C40.2206 12.14 40.4006 12.56 40.7606 12.86C41.1406 13.14 41.6206 13.36 42.2006 13.52C42.8006 13.68 43.4606 13.82 44.1806 13.94C44.9006 14.04 45.6206 14.18 46.3406 14.36C47.0606 14.52 47.7106 14.75 48.2906 15.05C48.8906 15.35 49.3706 15.77 49.7306 16.31C50.1106 16.85 50.3006 17.57 50.3006 18.47C50.3006 19.43 50.0206 20.26 49.4606 20.96C48.9006 21.66 48.1106 22.21 47.0906 22.61C46.0706 22.99 44.8506 23.18 43.4306 23.18ZM59.3599 23.18C57.7599 23.18 56.5199 22.75 55.6399 21.89C54.7599 21.03 54.3199 19.8 54.3199 18.2V3.62H57.1999V18.08C57.1999 18.94 57.4099 19.6 57.8299 20.06C58.2699 20.52 58.8899 20.75 59.6899 20.75C60.5899 20.75 61.3399 20.5 61.9399 20L62.8399 22.07C62.3999 22.45 61.8699 22.73 61.2499 22.91C60.6499 23.09 60.0199 23.18 59.3599 23.18ZM51.6199 9.47V7.1H61.7599V9.47H51.6199ZM71.6184 23L81.1284 2H84.0984L93.6384 23H90.4884L81.9984 3.68H83.1984L74.7084 23H71.6184ZM75.6684 17.75L76.4784 15.35H88.2984L89.1684 17.75H75.6684ZM101.665 23.18C100.065 23.18 98.8246 22.75 97.9446 21.89C97.0646 21.03 96.6246 19.8 96.6246 18.2V3.62H99.5046V18.08C99.5046 18.94 99.7146 19.6 100.135 20.06C100.575 20.52 101.195 20.75 101.995 20.75C102.895 20.75 103.645 20.5 104.245 20L105.145 22.07C104.705 22.45 104.175 22.73 103.555 22.91C102.955 23.09 102.325 23.18 101.665 23.18ZM93.9246 9.47V7.1H104.065V9.47H93.9246ZM113.706 23.18C112.106 23.18 110.866 22.75 109.986 21.89C109.106 21.03 108.666 19.8 108.666 18.2V3.62H111.546V18.08C111.546 18.94 111.756 19.6 112.176 20.06C112.616 20.52 113.236 20.75 114.036 20.75C114.936 20.75 115.686 20.5 116.286 20L117.186 22.07C116.746 22.45 116.216 22.73 115.596 22.91C114.996 23.09 114.366 23.18 113.706 23.18ZM105.966 9.47V7.1H116.106V9.47H105.966ZM127.22 23.18C125.52 23.18 124.02 22.83 122.72 22.13C121.44 21.43 120.44 20.47 119.72 19.25C119.02 18.03 118.67 16.63 118.67 15.05C118.67 13.47 119.01 12.07 119.69 10.85C120.39 9.63 121.34 8.68 122.54 8C123.76 7.3 125.13 6.95 126.65 6.95C128.19 6.95 129.55 7.29 130.73 7.97C131.91 8.65 132.83 9.61 133.49 10.85C134.17 12.07 134.51 13.5 134.51 15.14C134.51 15.26 134.5 15.4 134.48 15.56C134.48 15.72 134.47 15.87 134.45 16.01H120.92V13.94H132.95L131.78 14.66C131.8 13.64 131.59 12.73 131.15 11.93C130.71 11.13 130.1 10.51 129.32 10.07C128.56 9.61 127.67 9.38 126.65 9.38C125.65 9.38 124.76 9.61 123.98 10.07C123.2 10.51 122.59 11.14 122.15 11.96C121.71 12.76 121.49 13.68 121.49 14.72V15.2C121.49 16.26 121.73 17.21 122.21 18.05C122.71 18.87 123.4 19.51 124.28 19.97C125.16 20.43 126.17 20.66 127.31 20.66C128.25 20.66 129.1 20.5 129.86 20.18C130.64 19.86 131.32 19.38 131.9 18.74L133.49 20.6C132.77 21.44 131.87 22.08 130.79 22.52C129.73 22.96 128.54 23.18 127.22 23.18ZM146.999 6.95C148.299 6.95 149.439 7.2 150.419 7.7C151.419 8.2 152.199 8.96 152.759 9.98C153.319 11 153.599 12.29 153.599 13.85V23H150.719V14.18C150.719 12.64 150.339 11.48 149.579 10.7C148.839 9.92 147.789 9.53 146.429 9.53C145.409 9.53 144.519 9.73 143.759 10.13C142.999 10.53 142.409 11.12 141.989 11.9C141.589 12.68 141.389 13.65 141.389 14.81V23H138.509V7.1H141.269V11.39L140.819 10.25C141.339 9.21 142.139 8.4 143.219 7.82C144.299 7.24 145.559 6.95 146.999 6.95ZM165.499 23.18C163.959 23.18 162.579 22.84 161.359 22.16C160.159 21.48 159.209 20.53 158.509 19.31C157.809 18.09 157.459 16.67 157.459 15.05C157.459 13.43 157.809 12.02 158.509 10.82C159.209 9.6 160.159 8.65 161.359 7.97C162.579 7.29 163.959 6.95 165.499 6.95C166.839 6.95 168.049 7.25 169.129 7.85C170.209 8.45 171.069 9.35 171.709 10.55C172.369 11.75 172.699 13.25 172.699 15.05C172.699 16.85 172.379 18.35 171.739 19.55C171.119 20.75 170.269 21.66 169.189 22.28C168.109 22.88 166.879 23.18 165.499 23.18ZM165.739 20.66C166.739 20.66 167.639 20.43 168.439 19.97C169.259 19.51 169.899 18.86 170.359 18.02C170.839 17.16 171.079 16.17 171.079 15.05C171.079 13.91 170.839 12.93 170.359 12.11C169.899 11.27 169.259 10.62 168.439 10.16C167.639 9.7 166.739 9.47 165.739 9.47C164.719 9.47 163.809 9.7 163.009 10.16C162.209 10.62 161.569 11.27 161.089 12.11C160.609 12.93 160.369 13.91 160.369 15.05C160.369 16.17 160.609 17.16 161.089 18.02C161.569 18.86 162.209 19.51 163.009 19.97C163.809 20.43 164.719 20.66 165.739 20.66ZM171.169 23V18.71L171.349 15.02L171.049 11.33V0.739999H173.929V23H171.169ZM186.458 23.18C184.758 23.18 183.258 22.83 181.958 22.13C180.678 21.43 179.678 20.47 178.958 19.25C178.258 18.03 177.908 16.63 177.908 15.05C177.908 13.47 178.248 12.07 178.928 10.85C179.628 9.63 180.578 8.68 181.778 8C182.998 7.3 184.368 6.95 185.888 6.95C187.428 6.95 188.788 7.29 189.968 7.97C191.148 8.65 192.068 9.61 192.728 10.85C193.408 12.07 193.748 13.5 193.748 15.14C193.748 15.26 193.738 15.4 193.718 15.56C193.718 15.72 193.708 15.87 193.688 16.01H180.158V13.94H192.188L191.018 14.66C191.038 13.64 190.828 12.73 190.388 11.93C189.948 11.13 189.338 10.51 188.558 10.07C187.798 9.61 186.908 9.38 185.888 9.38C184.888 9.38 183.998 9.61 183.218 10.07C182.438 10.51 181.828 11.14 181.388 11.96C180.948 12.76 180.728 13.68 180.728 14.72V15.2C180.728 16.26 180.968 17.21 181.448 18.05C181.948 18.87 182.638 19.51 183.518 19.97C184.398 20.43 185.408 20.66 186.548 20.66C187.488 20.66 188.338 20.5 189.098 20.18C189.878 19.86 190.558 19.38 191.138 18.74L192.728 20.6C192.008 21.44 191.108 22.08 190.028 22.52C188.968 22.96 187.778 23.18 186.458 23.18ZM204.828 23.18C203.128 23.18 201.628 22.83 200.328 22.13C199.048 21.43 198.048 20.47 197.328 19.25C196.628 18.03 196.278 16.63 196.278 15.05C196.278 13.47 196.618 12.07 197.298 10.85C197.998 9.63 198.948 8.68 200.148 8C201.368 7.3 202.738 6.95 204.258 6.95C205.798 6.95 207.158 7.29 208.338 7.97C209.518 8.65 210.438 9.61 211.098 10.85C211.778 12.07 212.118 13.5 212.118 15.14C212.118 15.26 212.108 15.4 212.088 15.56C212.088 15.72 212.078 15.87 212.058 16.01H198.528V13.94H210.558L209.388 14.66C209.408 13.64 209.198 12.73 208.758 11.93C208.318 11.13 207.708 10.51 206.928 10.07C206.168 9.61 205.278 9.38 204.258 9.38C203.258 9.38 202.368 9.61 201.588 10.07C200.808 10.51 200.198 11.14 199.758 11.96C199.318 12.76 199.098 13.68 199.098 14.72V15.2C199.098 16.26 199.338 17.21 199.818 18.05C200.318 18.87 201.008 19.51 201.888 19.97C202.768 20.43 203.778 20.66 204.918 20.66C205.858 20.66 206.708 20.5 207.468 20.18C208.248 19.86 208.928 19.38 209.508 18.74L211.098 20.6C210.378 21.44 209.478 22.08 208.398 22.52C207.338 22.96 206.148 23.18 204.828 23.18ZM220.677 23.18C219.357 23.18 218.097 23 216.897 22.64C215.717 22.28 214.787 21.84 214.107 21.32L215.307 19.04C215.987 19.5 216.827 19.89 217.827 20.21C218.827 20.53 219.847 20.69 220.887 20.69C222.227 20.69 223.187 20.5 223.767 20.12C224.367 19.74 224.667 19.21 224.667 18.53C224.667 18.03 224.487 17.64 224.127 17.36C223.767 17.08 223.287 16.87 222.687 16.73C222.107 16.59 221.457 16.47 220.737 16.37C220.017 16.25 219.297 16.11 218.577 15.95C217.857 15.77 217.197 15.53 216.597 15.23C215.997 14.91 215.517 14.48 215.157 13.94C214.797 13.38 214.617 12.64 214.617 11.72C214.617 10.76 214.887 9.92 215.427 9.2C215.967 8.48 216.727 7.93 217.707 7.55C218.707 7.15 219.887 6.95 221.247 6.95C222.287 6.95 223.337 7.08 224.397 7.34C225.477 7.58 226.357 7.93 227.037 8.39L225.807 10.67C225.087 10.19 224.337 9.86 223.557 9.68C222.777 9.5 221.997 9.41 221.217 9.41C219.957 9.41 219.017 9.62 218.397 10.04C217.777 10.44 217.467 10.96 217.467 11.6C217.467 12.14 217.647 12.56 218.007 12.86C218.387 13.14 218.867 13.36 219.447 13.52C220.047 13.68 220.707 13.82 221.427 13.94C222.147 14.04 222.867 14.18 223.587 14.36C224.307 14.52 224.957 14.75 225.537 15.05C226.137 15.35 226.617 15.77 226.977 16.31C227.357 16.85 227.547 17.57 227.547 18.47C227.547 19.43 227.267 20.26 226.707 20.96C226.147 21.66 225.357 22.21 224.337 22.61C223.317 22.99 222.097 23.18 220.677 23.18ZM239.893 11.06C239.333 11.06 238.853 10.87 238.453 10.49C238.053 10.09 237.853 9.59 237.853 8.99C237.853 8.39 238.053 7.9 238.453 7.52C238.853 7.14 239.333 6.95 239.893 6.95C240.433 6.95 240.893 7.14 241.273 7.52C241.673 7.9 241.873 8.39 241.873 8.99C241.873 9.59 241.673 10.09 241.273 10.49C240.893 10.87 240.433 11.06 239.893 11.06ZM239.893 23.18C239.333 23.18 238.853 22.99 238.453 22.61C238.053 22.21 237.853 21.71 237.853 21.11C237.853 20.51 238.053 20.02 238.453 19.64C238.853 19.26 239.333 19.07 239.893 19.07C240.433 19.07 240.893 19.26 241.273 19.64C241.673 20.02 241.873 20.51 241.873 21.11C241.873 21.71 241.673 22.21 241.273 22.61C240.893 22.99 240.433 23.18 239.893 23.18Z" fill="black"/>
</svg>
