<svg
   width="1536"
   height="1298"
   viewBox="0 0 1536 1298"
   fill="none"
   xmlns="http://www.w3.org/2000/svg"><path
     d="M 0,0 H 1536 V 880 C 936.155,880 599.845,880 0,880 Z"
     fill="#9099f1"
     id="path154" /><path
     id="path1495"
     d="M 1536,1296.5215 C 1471.9284,1314.94 1156.4294,1155.51 774.94965,1155.51 346.9569,1155.51 0,959.04293 0,884.093 c 0,-74.94893 336.86715,-39.914 764.85991,-39.914 369.20569,-8.33771 613.90409,4.49968 770.99799,30.39981"
     style="fill:#9099f1;fill-opacity:1;stroke-width:0.999641" /><path
     d="m 121.6,257 25.2,-56 h 10.24 l 25.28,56 h -10.88 l -21.68,-50.48 h 4.16 L 132.32,257 Z m 11.6,-12.96 2.8,-8.16 h 30.24 l 2.8,8.16 z m 74.491,13.52 c -4.48,0 -8.48,-0.933 -12,-2.8 -3.466,-1.92 -6.186,-4.533 -8.16,-7.84 -1.973,-3.307 -2.96,-7.067 -2.96,-11.28 0,-4.267 0.987,-8.027 2.96,-11.28 1.974,-3.307 4.694,-5.893 8.16,-7.76 3.52,-1.867 7.52,-2.8 12,-2.8 4.16,0 7.814,0.853 10.96,2.56 3.2,1.653 5.627,4.107 7.28,7.36 l -7.68,4.48 c -1.28,-2.027 -2.853,-3.52 -4.72,-4.48 -1.813,-0.96 -3.786,-1.44 -5.92,-1.44 -2.453,0 -4.666,0.533 -6.64,1.6 -1.973,1.067 -3.52,2.613 -4.64,4.64 -1.12,1.973 -1.68,4.347 -1.68,7.12 0,2.773 0.56,5.173 1.68,7.2 1.12,1.973 2.667,3.493 4.64,4.56 1.974,1.067 4.187,1.6 6.64,1.6 2.134,0 4.107,-0.48 5.92,-1.44 1.867,-0.96 3.44,-2.453 4.72,-4.48 l 7.68,4.48 c -1.653,3.2 -4.08,5.68 -7.28,7.44 -3.146,1.707 -6.8,2.56 -10.96,2.56 z m 45.86,0 c -4.48,0 -8.48,-0.933 -12,-2.8 -3.467,-1.92 -6.187,-4.533 -8.16,-7.84 -1.974,-3.307 -2.96,-7.067 -2.96,-11.28 0,-4.267 0.986,-8.027 2.96,-11.28 1.973,-3.307 4.693,-5.893 8.16,-7.76 3.52,-1.867 7.52,-2.8 12,-2.8 4.16,0 7.813,0.853 10.96,2.56 3.2,1.653 5.626,4.107 7.28,7.36 l -7.68,4.48 c -1.28,-2.027 -2.854,-3.52 -4.72,-4.48 -1.814,-0.96 -3.787,-1.44 -5.92,-1.44 -2.454,0 -4.667,0.533 -6.64,1.6 -1.974,1.067 -3.52,2.613 -4.64,4.64 -1.12,1.973 -1.68,4.347 -1.68,7.12 0,2.773 0.56,5.173 1.68,7.2 1.12,1.973 2.666,3.493 4.64,4.56 1.973,1.067 4.186,1.6 6.64,1.6 2.133,0 4.106,-0.48 5.92,-1.44 1.866,-0.96 3.44,-2.453 4.72,-4.48 l 7.68,4.48 c -1.654,3.2 -4.08,5.68 -7.28,7.44 -3.147,1.707 -6.8,2.56 -10.96,2.56 z m 46.339,0 c -4.747,0 -8.907,-0.933 -12.48,-2.8 -3.52,-1.92 -6.267,-4.533 -8.24,-7.84 -1.92,-3.307 -2.88,-7.067 -2.88,-11.28 0,-4.267 0.933,-8.027 2.8,-11.28 1.92,-3.307 4.533,-5.893 7.84,-7.76 3.36,-1.867 7.173,-2.8 11.44,-2.8 4.16,0 7.867,0.907 11.12,2.72 3.253,1.813 5.813,4.373 7.68,7.68 1.867,3.307 2.8,7.2 2.8,11.68 0,0.427 -0.027,0.907 -0.08,1.44 0,0.533 -0.027,1.04 -0.08,1.52 h -35.6 v -6.64 h 30.32 l -3.92,2.08 c 0.053,-2.453 -0.453,-4.613 -1.52,-6.48 -1.067,-1.867 -2.533,-3.333 -4.4,-4.4 -1.813,-1.067 -3.92,-1.6 -6.32,-1.6 -2.453,0 -4.613,0.533 -6.48,1.6 -1.813,1.067 -3.253,2.56 -4.32,4.48 -1.013,1.867 -1.52,4.08 -1.52,6.64 v 1.6 c 0,2.56 0.587,4.827 1.76,6.8 1.173,1.973 2.827,3.493 4.96,4.56 2.133,1.067 4.587,1.6 7.36,1.6 2.4,0 4.56,-0.373 6.48,-1.12 1.92,-0.747 3.627,-1.92 5.12,-3.52 l 5.36,6.16 c -1.92,2.24 -4.347,3.973 -7.28,5.2 -2.88,1.173 -6.187,1.76 -9.92,1.76 z M 329.576,257 v -59.36 h 10 V 257 Z m 43.205,0.56 c -4.747,0 -8.907,-0.933 -12.48,-2.8 -3.52,-1.92 -6.267,-4.533 -8.24,-7.84 -1.92,-3.307 -2.88,-7.067 -2.88,-11.28 0,-4.267 0.933,-8.027 2.8,-11.28 1.92,-3.307 4.533,-5.893 7.84,-7.76 3.36,-1.867 7.173,-2.8 11.44,-2.8 4.16,0 7.866,0.907 11.12,2.72 3.253,1.813 5.813,4.373 7.68,7.68 1.866,3.307 2.8,7.2 2.8,11.68 0,0.427 -0.027,0.907 -0.08,1.44 0,0.533 -0.027,1.04 -0.08,1.52 h -35.6 v -6.64 h 30.32 l -3.92,2.08 c 0.053,-2.453 -0.454,-4.613 -1.52,-6.48 -1.067,-1.867 -2.534,-3.333 -4.4,-4.4 -1.814,-1.067 -3.92,-1.6 -6.32,-1.6 -2.454,0 -4.614,0.533 -6.48,1.6 -1.814,1.067 -3.254,2.56 -4.32,4.48 -1.014,1.867 -1.52,4.08 -1.52,6.64 v 1.6 c 0,2.56 0.586,4.827 1.76,6.8 1.173,1.973 2.826,3.493 4.96,4.56 2.133,1.067 4.586,1.6 7.36,1.6 2.4,0 4.56,-0.373 6.48,-1.12 1.92,-0.747 3.626,-1.92 5.12,-3.52 l 5.36,6.16 c -1.92,2.24 -4.347,3.973 -7.28,5.2 -2.88,1.173 -6.187,1.76 -9.92,1.76 z M 402.466,257 v -42.72 h 9.52 v 11.76 l -1.12,-3.44 c 1.28,-2.88 3.28,-5.067 6,-6.56 2.774,-1.493 6.214,-2.24 10.32,-2.24 v 9.52 c -0.426,-0.107 -0.826,-0.16 -1.2,-0.16 -0.373,-0.053 -0.746,-0.08 -1.12,-0.08 -3.786,0 -6.8,1.12 -9.04,3.36 -2.24,2.187 -3.36,5.467 -3.36,9.84 V 257 Z m 56.477,0 v -8.64 l -0.56,-1.84 V 231.4 c 0,-2.933 -0.88,-5.2 -2.64,-6.8 -1.76,-1.653 -4.427,-2.48 -8,-2.48 -2.4,0 -4.774,0.373 -7.12,1.12 -2.294,0.747 -4.24,1.787 -5.84,3.12 l -3.92,-7.28 c 2.293,-1.76 5.013,-3.067 8.16,-3.92 3.2,-0.907 6.506,-1.36 9.92,-1.36 6.186,0 10.96,1.493 14.32,4.48 3.413,2.933 5.12,7.493 5.12,13.68 V 257 Z m -13.44,0.56 c -3.2,0 -6,-0.533 -8.4,-1.6 -2.4,-1.12 -4.267,-2.64 -5.6,-4.56 -1.28,-1.973 -1.92,-4.187 -1.92,-6.64 0,-2.4 0.56,-4.56 1.68,-6.48 1.173,-1.92 3.066,-3.44 5.68,-4.56 2.613,-1.12 6.08,-1.68 10.4,-1.68 h 12.4 v 6.64 h -11.68 c -3.414,0 -5.707,0.56 -6.88,1.68 -1.174,1.067 -1.76,2.4 -1.76,4 0,1.813 0.72,3.253 2.16,4.32 1.44,1.067 3.44,1.6 6,1.6 2.453,0 4.64,-0.56 6.56,-1.68 1.973,-1.12 3.386,-2.773 4.24,-4.96 l 1.68,6 c -0.96,2.507 -2.694,4.453 -5.2,5.84 -2.454,1.387 -5.574,2.08 -9.36,2.08 z m 51.793,0 c -4.693,0 -8.32,-1.2 -10.88,-3.6 -2.56,-2.453 -3.84,-6.053 -3.84,-10.8 v -38.32 h 10 v 38.08 c 0,2.027 0.507,3.6 1.52,4.72 1.067,1.12 2.534,1.68 4.4,1.68 2.24,0 4.107,-0.587 5.6,-1.76 l 2.8,7.12 c -1.173,0.96 -2.613,1.68 -4.32,2.16 -1.706,0.48 -3.466,0.72 -5.28,0.72 z m -21.76,-34.96 v -8 h 28.48 v 8 z m 39.587,34.4 v -42.72 h 10 V 257 Z m 5.04,-49.76 c -1.867,0 -3.414,-0.587 -4.64,-1.76 -1.174,-1.173 -1.76,-2.587 -1.76,-4.24 0,-1.707 0.586,-3.12 1.76,-4.24 1.226,-1.173 2.773,-1.76 4.64,-1.76 1.866,0 3.386,0.56 4.56,1.68 1.226,1.067 1.84,2.427 1.84,4.08 0,1.76 -0.587,3.253 -1.76,4.48 -1.174,1.173 -2.72,1.76 -4.64,1.76 z m 42.325,6.56 c 3.413,0 6.453,0.667 9.12,2 2.72,1.333 4.853,3.387 6.4,6.16 1.546,2.72 2.32,6.24 2.32,10.56 V 257 h -10 v -23.2 c 0,-3.787 -0.907,-6.613 -2.72,-8.48 -1.76,-1.867 -4.24,-2.8 -7.44,-2.8 -2.347,0 -4.427,0.48 -6.24,1.44 -1.814,0.96 -3.227,2.4 -4.24,4.32 -0.96,1.867 -1.44,4.24 -1.44,7.12 V 257 h -10 v -42.72 h 9.52 v 11.52 l -1.68,-3.52 c 1.493,-2.72 3.653,-4.8 6.48,-6.24 2.88,-1.493 6.186,-2.24 9.92,-2.24 z m 49.963,59.28 c -3.946,0 -7.813,-0.533 -11.6,-1.6 -3.733,-1.013 -6.8,-2.507 -9.2,-4.48 l 4.48,-7.52 c 1.867,1.547 4.214,2.773 7.04,3.68 2.88,0.96 5.787,1.44 8.72,1.44 4.694,0 8.134,-1.093 10.32,-3.28 2.187,-2.133 3.28,-5.36 3.28,-9.68 v -7.6 l 0.8,-9.68 -0.32,-9.68 v -10.4 h 9.52 v 36.24 c 0,7.733 -1.973,13.413 -5.92,17.04 -3.946,3.68 -9.653,5.52 -17.12,5.52 z m -1.28,-18 c -4.053,0 -7.733,-0.853 -11.04,-2.56 -3.253,-1.76 -5.84,-4.187 -7.76,-7.28 -1.866,-3.093 -2.8,-6.72 -2.8,-10.88 0,-4.107 0.934,-7.707 2.8,-10.8 1.92,-3.093 4.507,-5.493 7.76,-7.2 3.307,-1.707 6.987,-2.56 11.04,-2.56 3.627,0 6.88,0.72 9.76,2.16 2.88,1.44 5.174,3.68 6.88,6.72 1.76,3.04 2.64,6.933 2.64,11.68 0,4.747 -0.88,8.667 -2.64,11.76 -1.706,3.04 -4,5.307 -6.88,6.8 -2.88,1.44 -6.133,2.16 -9.76,2.16 z m 1.52,-8.48 c 2.507,0 4.747,-0.507 6.72,-1.52 1.974,-1.067 3.494,-2.507 4.56,-4.32 1.12,-1.867 1.68,-4 1.68,-6.4 0,-2.4 -0.56,-4.507 -1.68,-6.32 -1.066,-1.867 -2.586,-3.28 -4.56,-4.24 -1.973,-1.013 -4.213,-1.52 -6.72,-1.52 -2.506,0 -4.773,0.507 -6.8,1.52 -1.973,0.96 -3.52,2.373 -4.64,4.24 -1.066,1.813 -1.6,3.92 -1.6,6.32 0,2.4 0.534,4.533 1.6,6.4 1.12,1.813 2.667,3.253 4.64,4.32 2.027,1.013 4.294,1.52 6.8,1.52 z m 71.257,10.96 c -3.574,0 -7.014,-0.453 -10.32,-1.36 -3.254,-0.96 -5.84,-2.107 -7.76,-3.44 l 3.84,-7.6 c 1.92,1.227 4.213,2.24 6.88,3.04 2.666,0.8 5.333,1.2 8,1.2 3.146,0 5.413,-0.427 6.8,-1.28 1.44,-0.853 2.16,-2 2.16,-3.44 0,-1.173 -0.48,-2.053 -1.44,-2.64 -0.96,-0.64 -2.214,-1.12 -3.76,-1.44 -1.547,-0.32 -3.28,-0.613 -5.2,-0.88 -1.867,-0.267 -3.76,-0.613 -5.68,-1.04 -1.867,-0.48 -3.574,-1.147 -5.12,-2 -1.547,-0.907 -2.8,-2.107 -3.76,-3.6 -0.96,-1.493 -1.44,-3.467 -1.44,-5.92 0,-2.72 0.773,-5.067 2.319,-7.04 1.547,-2.027 3.707,-3.573 6.48,-4.64 2.827,-1.12 6.161,-1.68 10.001,-1.68 2.88,0 5.786,0.32 8.72,0.96 2.933,0.64 5.36,1.547 7.28,2.72 l -3.84,7.6 c -2.027,-1.227 -4.08,-2.053 -6.16,-2.48 -2.027,-0.48 -4.054,-0.72 -6.08,-0.72 -3.04,0 -5.307,0.453 -6.8,1.36 -1.44,0.907 -2.16,2.053 -2.16,3.44 0,1.28 0.48,2.24 1.44,2.88 0.96,0.64 2.213,1.147 3.76,1.52 1.546,0.373 3.253,0.693 5.12,0.96 1.92,0.213 3.813,0.56 5.68,1.04 1.866,0.48 3.573,1.147 5.12,2 1.6,0.8 2.88,1.947 3.84,3.44 0.96,1.493 1.44,3.44 1.44,5.84 0,2.667 -0.8,4.987 -2.4,6.96 -1.547,1.973 -3.76,3.52 -6.64,4.64 -2.88,1.067 -6.32,1.6 -10.32,1.6 z m 44.051,0 c -4.693,0 -8.32,-1.2 -10.88,-3.6 -2.56,-2.453 -3.84,-6.053 -3.84,-10.8 v -38.32 h 10 v 38.08 c 0,2.027 0.507,3.6 1.52,4.72 1.067,1.12 2.534,1.68 4.4,1.68 2.24,0 4.107,-0.587 5.6,-1.76 l 2.8,7.12 c -1.173,0.96 -2.613,1.68 -4.32,2.16 -1.706,0.48 -3.466,0.72 -5.28,0.72 z m -21.76,-34.96 v -8 h 28.48 v 8 z m 65.907,34.4 v -8.64 l -0.56,-1.84 V 231.4 c 0,-2.933 -0.88,-5.2 -2.64,-6.8 -1.76,-1.653 -4.427,-2.48 -8,-2.48 -2.4,0 -4.774,0.373 -7.12,1.12 -2.294,0.747 -4.24,1.787 -5.84,3.12 l -3.92,-7.28 c 2.293,-1.76 5.013,-3.067 8.16,-3.92 3.2,-0.907 6.506,-1.36 9.92,-1.36 6.186,0 10.96,1.493 14.32,4.48 3.413,2.933 5.12,7.493 5.12,13.68 V 257 Z m -13.44,0.56 c -3.2,0 -6,-0.533 -8.4,-1.6 -2.4,-1.12 -4.267,-2.64 -5.6,-4.56 -1.28,-1.973 -1.92,-4.187 -1.92,-6.64 0,-2.4 0.56,-4.56 1.68,-6.48 1.173,-1.92 3.066,-3.44 5.68,-4.56 2.613,-1.12 6.08,-1.68 10.4,-1.68 h 12.4 v 6.64 h -11.68 c -3.414,0 -5.707,0.56 -6.88,1.68 -1.174,1.067 -1.76,2.4 -1.76,4 0,1.813 0.72,3.253 2.16,4.32 1.44,1.067 3.44,1.6 6,1.6 2.453,0 4.64,-0.56 6.56,-1.68 1.973,-1.12 3.386,-2.773 4.24,-4.96 l 1.68,6 c -0.96,2.507 -2.694,4.453 -5.2,5.84 -2.454,1.387 -5.574,2.08 -9.36,2.08 z M 794.419,257 v -42.72 h 9.52 v 11.76 l -1.12,-3.44 c 1.28,-2.88 3.28,-5.067 6,-6.56 2.774,-1.493 6.214,-2.24 10.32,-2.24 v 9.52 c -0.426,-0.107 -0.826,-0.16 -1.2,-0.16 -0.373,-0.053 -0.746,-0.08 -1.12,-0.08 -3.786,0 -6.8,1.12 -9.04,3.36 -2.24,2.187 -3.36,5.467 -3.36,9.84 V 257 Z m 50.846,0.56 c -4.693,0 -8.32,-1.2 -10.88,-3.6 -2.56,-2.453 -3.84,-6.053 -3.84,-10.8 v -38.32 h 10 v 38.08 c 0,2.027 0.507,3.6 1.52,4.72 1.067,1.12 2.533,1.68 4.4,1.68 2.24,0 4.107,-0.587 5.6,-1.76 l 2.8,7.12 c -1.173,0.96 -2.613,1.68 -4.32,2.16 -1.707,0.48 -3.467,0.72 -5.28,0.72 z m -21.76,-34.96 v -8 h 28.48 v 8 z m 57.666,34.96 c -3.626,0 -6.826,-0.667 -9.6,-2 -2.773,-1.387 -4.933,-3.467 -6.48,-6.24 -1.546,-2.827 -2.32,-6.373 -2.32,-10.64 v -24.4 h 10 v 23.04 c 0,3.84 0.854,6.72 2.56,8.64 1.76,1.867 4.24,2.8 7.44,2.8 2.347,0 4.374,-0.48 6.08,-1.44 1.76,-0.96 3.12,-2.4 4.08,-4.32 1.014,-1.92 1.52,-4.293 1.52,-7.12 v -21.6 h 10 V 257 h -9.52 v -11.52 l 1.68,3.52 c -1.44,2.773 -3.546,4.907 -6.32,6.4 -2.773,1.44 -5.813,2.16 -9.12,2.16 z m 60.053,0 c -3.466,0 -6.64,-0.8 -9.52,-2.4 -2.826,-1.6 -5.093,-4 -6.8,-7.2 -1.653,-3.253 -2.48,-7.36 -2.48,-12.32 0,-5.013 0.8,-9.12 2.4,-12.32 1.654,-3.2 3.894,-5.573 6.72,-7.12 2.827,-1.6 6.054,-2.4 9.68,-2.4 4.214,0 7.92,0.907 11.12,2.72 3.254,1.813 5.814,4.347 7.68,7.6 1.92,3.253 2.88,7.093 2.88,11.52 0,4.427 -0.96,8.293 -2.88,11.6 -1.866,3.253 -4.426,5.787 -7.68,7.6 -3.2,1.813 -6.906,2.72 -11.12,2.72 z m -23.68,14.96 v -58.24 h 9.52 v 10.08 l -0.32,11.36 0.8,11.36 v 25.44 z M 940.104,249 c 2.4,0 4.534,-0.533 6.4,-1.6 1.92,-1.067 3.44,-2.613 4.56,-4.64 1.12,-2.027 1.68,-4.4 1.68,-7.12 0,-2.773 -0.56,-5.147 -1.68,-7.12 -1.12,-2.027 -2.64,-3.573 -4.56,-4.64 -1.866,-1.067 -4,-1.6 -6.4,-1.6 -2.4,0 -4.56,0.533 -6.48,1.6 -1.92,1.067 -3.44,2.613 -4.56,4.64 -1.12,1.973 -1.68,4.347 -1.68,7.12 0,2.72 0.56,5.093 1.68,7.12 1.12,2.027 2.64,3.573 4.56,4.64 1.92,1.067 4.08,1.6 6.48,1.6 z m 45.484,8.56 c -3.573,0 -7.013,-0.453 -10.32,-1.36 -3.253,-0.96 -5.84,-2.107 -7.76,-3.44 l 3.84,-7.6 c 1.92,1.227 4.213,2.24 6.88,3.04 2.667,0.8 5.333,1.2 8,1.2 3.147,0 5.413,-0.427 6.8,-1.28 1.44,-0.853 2.16,-2 2.16,-3.44 0,-1.173 -0.48,-2.053 -1.44,-2.64 -0.96,-0.64 -2.213,-1.12 -3.76,-1.44 -1.547,-0.32 -3.28,-0.613 -5.2,-0.88 -1.867,-0.267 -3.76,-0.613 -5.68,-1.04 -1.867,-0.48 -3.573,-1.147 -5.12,-2 -1.547,-0.907 -2.8,-2.107 -3.76,-3.6 -0.96,-1.493 -1.44,-3.467 -1.44,-5.92 0,-2.72 0.773,-5.067 2.32,-7.04 1.547,-2.027 3.707,-3.573 6.48,-4.64 2.827,-1.12 6.16,-1.68 10,-1.68 2.88,0 5.787,0.32 8.72,0.96 2.933,0.64 5.362,1.547 7.282,2.72 l -3.842,7.6 c -2.027,-1.227 -4.08,-2.053 -6.16,-2.48 -2.027,-0.48 -4.053,-0.72 -6.08,-0.72 -3.04,0 -5.307,0.453 -6.8,1.36 -1.44,0.907 -2.16,2.053 -2.16,3.44 0,1.28 0.48,2.24 1.44,2.88 0.96,0.64 2.213,1.147 3.76,1.52 1.547,0.373 3.253,0.693 5.12,0.96 1.92,0.213 3.813,0.56 5.68,1.04 1.867,0.48 3.573,1.147 5.12,2 1.602,0.8 2.882,1.947 3.842,3.44 0.96,1.493 1.44,3.44 1.44,5.84 0,2.667 -0.8,4.987 -2.4,6.96 -1.55,1.973 -3.762,3.52 -6.642,4.64 -2.88,1.067 -6.32,1.6 -10.32,1.6 z m -840.948,115 c -4.693,0 -8.32,-1.2 -10.88,-3.6 -2.56,-2.453 -3.84,-6.053 -3.84,-10.8 v -38.32 h 10 v 38.08 c 0,2.027 0.507,3.6 1.52,4.72 1.067,1.12 2.533,1.68 4.4,1.68 2.24,0 4.107,-0.587 5.6,-1.76 l 2.8,7.12 c -1.173,0.96 -2.613,1.68 -4.32,2.16 -1.707,0.48 -3.467,0.72 -5.28,0.72 z M 122.88,337.6 v -8 h 28.48 v 8 z m 63.826,-8.8 c 3.414,0 6.454,0.667 9.12,2 2.72,1.333 4.854,3.387 6.4,6.16 1.547,2.72 2.32,6.24 2.32,10.56 V 372 h -10 v -23.2 c 0,-3.787 -0.906,-6.613 -2.72,-8.48 -1.76,-1.867 -4.24,-2.8 -7.44,-2.8 -2.346,0 -4.426,0.48 -6.24,1.44 -1.813,0.96 -3.226,2.4 -4.24,4.32 -0.96,1.867 -1.44,4.24 -1.44,7.12 V 372 h -10 v -59.36 h 10 v 28.16 l -2.16,-3.52 c 1.494,-2.72 3.654,-4.8 6.48,-6.24 2.88,-1.493 6.187,-2.24 9.92,-2.24 z m 49.804,43.76 c -4.373,0 -8.267,-0.933 -11.68,-2.8 -3.413,-1.92 -6.107,-4.533 -8.08,-7.84 -1.973,-3.307 -2.96,-7.067 -2.96,-11.28 0,-4.267 0.987,-8.027 2.96,-11.28 1.973,-3.307 4.667,-5.893 8.08,-7.76 3.413,-1.867 7.307,-2.8 11.68,-2.8 4.427,0 8.347,0.933 11.76,2.8 3.467,1.867 6.16,4.427 8.08,7.68 1.973,3.253 2.96,7.04 2.96,11.36 0,4.213 -0.987,7.973 -2.96,11.28 -1.92,3.307 -4.613,5.92 -8.08,7.84 -3.413,1.867 -7.333,2.8 -11.76,2.8 z m 0,-8.56 c 2.453,0 4.64,-0.533 6.56,-1.6 1.92,-1.067 3.413,-2.613 4.48,-4.64 1.12,-2.027 1.68,-4.4 1.68,-7.12 0,-2.773 -0.56,-5.147 -1.68,-7.12 -1.067,-2.027 -2.56,-3.573 -4.48,-4.64 -1.92,-1.067 -4.08,-1.6 -6.48,-1.6 -2.453,0 -4.64,0.533 -6.56,1.6 -1.867,1.067 -3.36,2.613 -4.48,4.64 -1.12,1.973 -1.68,4.347 -1.68,7.12 0,2.72 0.56,5.093 1.68,7.12 1.12,2.027 2.613,3.573 4.48,4.64 1.92,1.067 4.08,1.6 6.48,1.6 z m 32.363,8 v -42.72 h 9.52 v 11.76 l -1.12,-3.44 c 1.28,-2.88 3.28,-5.067 6,-6.56 2.773,-1.493 6.213,-2.24 10.32,-2.24 v 9.52 c -0.427,-0.107 -0.827,-0.16 -1.2,-0.16 -0.374,-0.053 -0.747,-0.08 -1.12,-0.08 -3.787,0 -6.8,1.12 -9.04,3.36 -2.24,2.187 -3.36,5.467 -3.36,9.84 V 372 Z m 51.673,0.56 c -3.626,0 -6.826,-0.667 -9.6,-2 -2.773,-1.387 -4.933,-3.467 -6.48,-6.24 -1.546,-2.827 -2.32,-6.373 -2.32,-10.64 v -24.4 h 10 v 23.04 c 0,3.84 0.854,6.72 2.56,8.64 1.76,1.867 4.24,2.8 7.44,2.8 2.347,0 4.374,-0.48 6.08,-1.44 1.76,-0.96 3.12,-2.4 4.08,-4.32 1.014,-1.92 1.52,-4.293 1.52,-7.12 v -21.6 h 10 V 372 h -9.52 v -11.52 l 1.68,3.52 c -1.44,2.773 -3.546,4.907 -6.32,6.4 -2.773,1.44 -5.813,2.16 -9.12,2.16 z m 55.733,15.52 c -3.946,0 -7.813,-0.533 -11.6,-1.6 -3.733,-1.013 -6.8,-2.507 -9.2,-4.48 l 4.48,-7.52 c 1.867,1.547 4.214,2.773 7.04,3.68 2.88,0.96 5.787,1.44 8.72,1.44 4.694,0 8.134,-1.093 10.32,-3.28 2.187,-2.133 3.28,-5.36 3.28,-9.68 v -7.6 l 0.8,-9.68 -0.32,-9.68 v -10.4 h 9.52 v 36.24 c 0,7.733 -1.973,13.413 -5.92,17.04 -3.946,3.68 -9.653,5.52 -17.12,5.52 z m -1.28,-18 c -4.053,0 -7.733,-0.853 -11.04,-2.56 -3.253,-1.76 -5.84,-4.187 -7.76,-7.28 -1.866,-3.093 -2.8,-6.72 -2.8,-10.88 0,-4.107 0.934,-7.707 2.8,-10.8 1.92,-3.093 4.507,-5.493 7.76,-7.2 3.307,-1.707 6.987,-2.56 11.04,-2.56 3.627,0 6.88,0.72 9.76,2.16 2.88,1.44 5.174,3.68 6.88,6.72 1.76,3.04 2.64,6.933 2.64,11.68 0,4.747 -0.88,8.667 -2.64,11.76 -1.706,3.04 -4,5.307 -6.88,6.8 -2.88,1.44 -6.133,2.16 -9.76,2.16 z m 1.52,-8.48 c 2.507,0 4.747,-0.507 6.72,-1.52 1.974,-1.067 3.494,-2.507 4.56,-4.32 1.12,-1.867 1.68,-4 1.68,-6.4 0,-2.4 -0.56,-4.507 -1.68,-6.32 -1.066,-1.867 -2.586,-3.28 -4.56,-4.24 -1.973,-1.013 -4.213,-1.52 -6.72,-1.52 -2.506,0 -4.773,0.507 -6.8,1.52 -1.973,0.96 -3.52,2.373 -4.64,4.24 -1.066,1.813 -1.6,3.92 -1.6,6.32 0,2.4 0.534,4.533 1.6,6.4 1.12,1.813 2.667,3.253 4.64,4.32 2.027,1.013 4.294,1.52 6.8,1.52 z m 60.187,-32.8 c 3.414,0 6.454,0.667 9.12,2 2.72,1.333 4.854,3.387 6.4,6.16 1.547,2.72 2.32,6.24 2.32,10.56 V 372 h -10 v -23.2 c 0,-3.787 -0.906,-6.613 -2.72,-8.48 -1.76,-1.867 -4.24,-2.8 -7.44,-2.8 -2.346,0 -4.426,0.48 -6.24,1.44 -1.813,0.96 -3.226,2.4 -4.24,4.32 -0.96,1.867 -1.44,4.24 -1.44,7.12 V 372 h -10 v -59.36 h 10 v 28.16 l -2.16,-3.52 c 1.494,-2.72 3.654,-4.8 6.48,-6.24 2.88,-1.493 6.187,-2.24 9.92,-2.24 z m 72.715,43.76 c -4.746,0 -8.906,-0.933 -12.48,-2.8 -3.52,-1.92 -6.266,-4.533 -8.24,-7.84 -1.92,-3.307 -2.88,-7.067 -2.88,-11.28 0,-4.267 0.934,-8.027 2.8,-11.28 1.92,-3.307 4.534,-5.893 7.84,-7.76 3.36,-1.867 7.174,-2.8 11.44,-2.8 4.16,0 7.867,0.907 11.12,2.72 3.254,1.813 5.814,4.373 7.68,7.68 1.867,3.307 2.8,7.2 2.8,11.68 0,0.427 -0.026,0.907 -0.08,1.44 0,0.533 -0.026,1.04 -0.08,1.52 h -35.6 v -6.64 h 30.32 l -3.92,2.08 c 0.054,-2.453 -0.453,-4.613 -1.52,-6.48 -1.066,-1.867 -2.533,-3.333 -4.4,-4.4 -1.813,-1.067 -3.92,-1.6 -6.32,-1.6 -2.453,0 -4.613,0.533 -6.48,1.6 -1.813,1.067 -3.253,2.56 -4.32,4.48 -1.013,1.867 -1.52,4.08 -1.52,6.64 v 1.6 c 0,2.56 0.587,4.827 1.76,6.8 1.174,1.973 2.827,3.493 4.96,4.56 2.134,1.067 4.587,1.6 7.36,1.6 2.4,0 4.56,-0.373 6.48,-1.12 1.92,-0.747 3.627,-1.92 5.12,-3.52 l 5.36,6.16 c -1.92,2.24 -4.346,3.973 -7.28,5.2 -2.88,1.173 -6.186,1.76 -9.92,1.76 z M 564.255,372 v -8.64 l -0.56,-1.84 V 346.4 c 0,-2.933 -0.88,-5.2 -2.64,-6.8 -1.76,-1.653 -4.427,-2.48 -8,-2.48 -2.4,0 -4.773,0.373 -7.12,1.12 -2.293,0.747 -4.24,1.787 -5.84,3.12 l -3.92,-7.28 c 2.293,-1.76 5.013,-3.067 8.16,-3.92 3.2,-0.907 6.507,-1.36 9.92,-1.36 6.187,0 10.96,1.493 14.32,4.48 3.413,2.933 5.12,7.493 5.12,13.68 V 372 Z m -13.44,0.56 c -3.2,0 -6,-0.533 -8.4,-1.6 -2.4,-1.12 -4.267,-2.64 -5.6,-4.56 -1.28,-1.973 -1.92,-4.187 -1.92,-6.64 0,-2.4 0.56,-4.56 1.68,-6.48 1.173,-1.92 3.067,-3.44 5.68,-4.56 2.613,-1.12 6.08,-1.68 10.4,-1.68 h 12.4 v 6.64 h -11.68 c -3.413,0 -5.707,0.56 -6.88,1.68 -1.173,1.067 -1.76,2.4 -1.76,4 0,1.813 0.72,3.253 2.16,4.32 1.44,1.067 3.44,1.6 6,1.6 2.453,0 4.64,-0.56 6.56,-1.68 1.973,-1.12 3.387,-2.773 4.24,-4.96 l 1.68,6 c -0.96,2.507 -2.693,4.453 -5.2,5.84 -2.453,1.387 -5.573,2.08 -9.36,2.08 z m 55.392,0 c -4.48,0 -8.48,-0.933 -12,-2.8 -3.467,-1.92 -6.187,-4.533 -8.16,-7.84 -1.973,-3.307 -2.96,-7.067 -2.96,-11.28 0,-4.267 0.987,-8.027 2.96,-11.28 1.973,-3.307 4.693,-5.893 8.16,-7.76 3.52,-1.867 7.52,-2.8 12,-2.8 4.16,0 7.813,0.853 10.96,2.56 3.2,1.653 5.627,4.107 7.28,7.36 l -7.68,4.48 c -1.28,-2.027 -2.853,-3.52 -4.72,-4.48 -1.813,-0.96 -3.787,-1.44 -5.92,-1.44 -2.453,0 -4.667,0.533 -6.64,1.6 -1.973,1.067 -3.52,2.613 -4.64,4.64 -1.12,1.973 -1.68,4.347 -1.68,7.12 0,2.773 0.56,5.173 1.68,7.2 1.12,1.973 2.667,3.493 4.64,4.56 1.973,1.067 4.187,1.6 6.64,1.6 2.133,0 4.107,-0.48 5.92,-1.44 1.867,-0.96 3.44,-2.453 4.72,-4.48 l 7.68,4.48 c -1.653,3.2 -4.08,5.68 -7.28,7.44 -3.147,1.707 -6.8,2.56 -10.96,2.56 z m 50.734,-43.76 c 3.413,0 6.453,0.667 9.12,2 2.72,1.333 4.853,3.387 6.4,6.16 1.546,2.72 2.32,6.24 2.32,10.56 V 372 h -10 v -23.2 c 0,-3.787 -0.907,-6.613 -2.72,-8.48 -1.76,-1.867 -4.24,-2.8 -7.44,-2.8 -2.347,0 -4.427,0.48 -6.24,1.44 -1.814,0.96 -3.227,2.4 -4.24,4.32 -0.96,1.867 -1.44,4.24 -1.44,7.12 V 372 h -10 v -59.36 h 10 v 28.16 l -2.16,-3.52 c 1.493,-2.72 3.653,-4.8 6.48,-6.24 2.88,-1.493 6.186,-2.24 9.92,-2.24 z m 65.835,43.76 c -3.574,0 -7.014,-0.453 -10.32,-1.36 -3.254,-0.96 -5.84,-2.107 -7.76,-3.44 l 3.84,-7.6 c 1.92,1.227 4.213,2.24 6.88,3.04 2.666,0.8 5.333,1.2 8,1.2 3.146,0 5.413,-0.427 6.8,-1.28 1.44,-0.853 2.16,-2 2.16,-3.44 0,-1.173 -0.48,-2.053 -1.44,-2.64 -0.96,-0.64 -2.214,-1.12 -3.76,-1.44 -1.547,-0.32 -3.28,-0.613 -5.2,-0.88 -1.867,-0.267 -3.76,-0.613 -5.68,-1.04 -1.867,-0.48 -3.574,-1.147 -5.12,-2 -1.547,-0.907 -2.8,-2.107 -3.76,-3.6 -0.96,-1.493 -1.44,-3.467 -1.44,-5.92 0,-2.72 0.773,-5.067 2.32,-7.04 1.546,-2.027 3.706,-3.573 6.48,-4.64 2.826,-1.12 6.16,-1.68 10,-1.68 2.88,0 5.786,0.32 8.72,0.96 2.933,0.64 5.36,1.547 7.28,2.72 l -3.84,7.6 c -2.027,-1.227 -4.08,-2.053 -6.16,-2.48 -2.027,-0.48 -4.054,-0.72 -6.08,-0.72 -3.04,0 -5.307,0.453 -6.8,1.36 -1.44,0.907 -2.16,2.053 -2.16,3.44 0,1.28 0.48,2.24 1.44,2.88 0.96,0.64 2.213,1.147 3.76,1.52 1.546,0.373 3.253,0.693 5.12,0.96 1.92,0.213 3.813,0.56 5.68,1.04 1.866,0.48 3.573,1.147 5.12,2 1.6,0.8 2.88,1.947 3.84,3.44 0.96,1.493 1.44,3.44 1.44,5.84 0,2.667 -0.8,4.987 -2.4,6.96 -1.547,1.973 -3.76,3.52 -6.64,4.64 -2.88,1.067 -6.32,1.6 -10.32,1.6 z m 44.052,0 c -4.694,0 -8.32,-1.2 -10.881,-3.6 -2.559,-2.453 -3.839,-6.053 -3.839,-10.8 v -38.32 h 10 v 38.08 c 0,2.027 0.506,3.6 1.52,4.72 1.066,1.12 2.533,1.68 4.4,1.68 2.24,0 4.106,-0.587 5.6,-1.76 l 2.8,7.12 c -1.174,0.96 -2.614,1.68 -4.32,2.16 -1.707,0.48 -3.467,0.72 -5.28,0.72 z m -21.76,-34.96 v -8 h 28.48 v 8 z m 65.906,34.4 v -8.64 l -0.56,-1.84 V 346.4 c 0,-2.933 -0.88,-5.2 -2.64,-6.8 -1.76,-1.653 -4.427,-2.48 -8,-2.48 -2.4,0 -4.774,0.373 -7.12,1.12 -2.294,0.747 -4.24,1.787 -5.84,3.12 l -3.92,-7.28 c 2.293,-1.76 5.013,-3.067 8.16,-3.92 3.2,-0.907 6.506,-1.36 9.92,-1.36 6.186,0 10.96,1.493 14.32,4.48 3.413,2.933 5.12,7.493 5.12,13.68 V 372 Z m -13.44,0.56 c -3.2,0 -6,-0.533 -8.4,-1.6 -2.4,-1.12 -4.267,-2.64 -5.6,-4.56 -1.28,-1.973 -1.92,-4.187 -1.92,-6.64 0,-2.4 0.56,-4.56 1.68,-6.48 1.173,-1.92 3.066,-3.44 5.68,-4.56 2.613,-1.12 6.08,-1.68 10.4,-1.68 h 12.4 v 6.64 h -11.68 c -3.414,0 -5.707,0.56 -6.88,1.68 -1.174,1.067 -1.76,2.4 -1.76,4 0,1.813 0.72,3.253 2.16,4.32 1.44,1.067 3.44,1.6 6,1.6 2.453,0 4.64,-0.56 6.56,-1.68 1.973,-1.12 3.386,-2.773 4.24,-4.96 l 1.68,6 c -0.96,2.507 -2.694,4.453 -5.2,5.84 -2.454,1.387 -5.574,2.08 -9.36,2.08 z m 55.152,15.52 c -3.947,0 -7.814,-0.533 -11.6,-1.6 -3.734,-1.013 -6.8,-2.507 -9.2,-4.48 l 4.48,-7.52 c 1.866,1.547 4.213,2.773 7.04,3.68 2.88,0.96 5.786,1.44 8.72,1.44 4.693,0 8.133,-1.093 10.32,-3.28 2.186,-2.133 3.28,-5.36 3.28,-9.68 v -7.6 l 0.8,-9.68 -0.32,-9.68 v -10.4 h 9.52 v 36.24 c 0,7.733 -1.974,13.413 -5.92,17.04 -3.947,3.68 -9.654,5.52 -17.12,5.52 z m -1.28,-18 c -4.054,0 -7.734,-0.853 -11.04,-2.56 -3.254,-1.76 -5.84,-4.187 -7.76,-7.28 -1.867,-3.093 -2.8,-6.72 -2.8,-10.88 0,-4.107 0.933,-7.707 2.8,-10.8 1.92,-3.093 4.506,-5.493 7.76,-7.2 3.306,-1.707 6.986,-2.56 11.04,-2.56 3.626,0 6.88,0.72 9.76,2.16 2.88,1.44 5.173,3.68 6.88,6.72 1.76,3.04 2.64,6.933 2.64,11.68 0,4.747 -0.88,8.667 -2.64,11.76 -1.707,3.04 -4,5.307 -6.88,6.8 -2.88,1.44 -6.134,2.16 -9.76,2.16 z m 1.52,-8.48 c 2.506,0 4.746,-0.507 6.72,-1.52 1.973,-1.067 3.493,-2.507 4.56,-4.32 1.12,-1.867 1.68,-4 1.68,-6.4 0,-2.4 -0.56,-4.507 -1.68,-6.32 -1.067,-1.867 -2.587,-3.28 -4.56,-4.24 -1.974,-1.013 -4.214,-1.52 -6.72,-1.52 -2.507,0 -4.774,0.507 -6.8,1.52 -1.974,0.96 -3.52,2.373 -4.64,4.24 -1.067,1.813 -1.6,3.92 -1.6,6.32 0,2.4 0.533,4.533 1.6,6.4 1.12,1.813 2.666,3.253 4.64,4.32 2.026,1.013 4.293,1.52 6.8,1.52 z m 56.027,10.96 c -4.747,0 -8.907,-0.933 -12.48,-2.8 -3.52,-1.92 -6.267,-4.533 -8.24,-7.84 -1.92,-3.307 -2.88,-7.067 -2.88,-11.28 0,-4.267 0.933,-8.027 2.8,-11.28 1.92,-3.307 4.533,-5.893 7.84,-7.76 3.36,-1.867 7.173,-2.8 11.44,-2.8 4.16,0 7.866,0.907 11.12,2.72 3.253,1.813 5.813,4.373 7.68,7.68 1.866,3.307 2.8,7.2 2.8,11.68 0,0.427 -0.027,0.907 -0.08,1.44 0,0.533 -0.027,1.04 -0.08,1.52 h -35.6 v -6.64 h 30.32 l -3.92,2.08 c 0.053,-2.453 -0.454,-4.613 -1.52,-6.48 -1.067,-1.867 -2.534,-3.333 -4.4,-4.4 -1.814,-1.067 -3.92,-1.6 -6.32,-1.6 -2.454,0 -4.614,0.533 -6.48,1.6 -1.814,1.067 -3.254,2.56 -4.32,4.48 -1.014,1.867 -1.52,4.08 -1.52,6.64 v 1.6 c 0,2.56 0.586,4.827 1.76,6.8 1.173,1.973 2.826,3.493 4.96,4.56 2.133,1.067 4.586,1.6 7.36,1.6 2.4,0 4.56,-0.373 6.48,-1.12 1.92,-0.747 3.626,-1.92 5.12,-3.52 l 5.36,6.16 c -1.92,2.24 -4.347,3.973 -7.28,5.2 -2.88,1.173 -6.187,1.76 -9.92,1.76 z"
     fill="#ffffff"
     id="path158" /><path
     d="m 138.8,490.24 c -2.107,0 -4.067,-0.347 -5.88,-1.04 -1.787,-0.72 -3.347,-1.72 -4.68,-3 -1.307,-1.307 -2.333,-2.813 -3.08,-4.52 -0.72,-1.733 -1.08,-3.627 -1.08,-5.68 0,-2.053 0.36,-3.933 1.08,-5.64 0.747,-1.733 1.773,-3.24 3.08,-4.52 1.333,-1.307 2.893,-2.307 4.68,-3 1.787,-0.72 3.747,-1.08 5.88,-1.08 2.107,0 4.053,0.36 5.84,1.08 1.787,0.693 3.333,1.68 4.64,2.96 1.333,1.28 2.36,2.787 3.08,4.52 0.747,1.733 1.12,3.627 1.12,5.68 0,2.053 -0.373,3.947 -1.12,5.68 -0.72,1.733 -1.747,3.24 -3.08,4.52 -1.307,1.28 -2.853,2.28 -4.64,3 -1.787,0.693 -3.733,1.04 -5.84,1.04 z m 0,-2.64 c 1.68,0 3.227,-0.28 4.64,-0.84 1.44,-0.587 2.68,-1.4 3.72,-2.44 1.067,-1.067 1.893,-2.293 2.48,-3.68 0.587,-1.413 0.88,-2.96 0.88,-4.64 0,-1.68 -0.293,-3.213 -0.88,-4.6 -0.587,-1.413 -1.413,-2.64 -2.48,-3.68 -1.04,-1.067 -2.28,-1.88 -3.72,-2.44 -1.413,-0.587 -2.96,-0.88 -4.64,-0.88 -1.68,0 -3.24,0.293 -4.68,0.88 -1.44,0.56 -2.693,1.373 -3.76,2.44 -1.04,1.04 -1.867,2.267 -2.48,3.68 -0.587,1.387 -0.88,2.92 -0.88,4.6 0,1.653 0.293,3.187 0.88,4.6 0.613,1.413 1.44,2.653 2.48,3.72 1.067,1.04 2.32,1.853 3.76,2.44 1.44,0.56 3,0.84 4.68,0.84 z m 29.395,2.6 c -1.787,0 -3.347,-0.333 -4.68,-1 -1.334,-0.667 -2.374,-1.667 -3.12,-3 -0.72,-1.333 -1.08,-3 -1.08,-5 V 469 h 2.84 v 11.88 c 0,2.24 0.546,3.933 1.64,5.08 1.12,1.12 2.68,1.68 4.68,1.68 1.466,0 2.733,-0.293 3.8,-0.88 1.093,-0.613 1.92,-1.493 2.48,-2.64 0.586,-1.147 0.88,-2.52 0.88,-4.12 v -11 h 2.84 v 21 h -2.72 v -5.76 l 0.44,1.04 c -0.667,1.547 -1.707,2.76 -3.12,3.64 -1.387,0.853 -3.014,1.28 -4.88,1.28 z M 186.39,490 v -21 h 2.72 v 5.72 l -0.28,-1 c 0.586,-1.6 1.573,-2.813 2.96,-3.64 1.386,-0.853 3.106,-1.28 5.16,-1.28 v 2.76 c -0.107,0 -0.214,0 -0.32,0 -0.107,-0.027 -0.214,-0.04 -0.32,-0.04 -2.214,0 -3.947,0.68 -5.2,2.04 -1.254,1.333 -1.88,3.24 -1.88,5.72 V 490 Z m 37.363,0.2 c -1.813,0 -3.453,-0.413 -4.92,-1.24 -1.467,-0.853 -2.64,-2.067 -3.52,-3.64 -0.853,-1.6 -1.28,-3.547 -1.28,-5.84 0,-2.293 0.427,-4.227 1.28,-5.8 0.853,-1.6 2.013,-2.813 3.48,-3.64 1.467,-0.827 3.12,-1.24 4.96,-1.24 2,0 3.787,0.453 5.36,1.36 1.6,0.88 2.853,2.133 3.76,3.76 0.907,1.6 1.36,3.453 1.36,5.56 0,2.133 -0.453,4 -1.36,5.6 -0.907,1.6 -2.16,2.853 -3.76,3.76 -1.573,0.907 -3.36,1.36 -5.36,1.36 z m -10.84,7.56 V 469 h 2.72 v 6.32 l -0.28,4.2 0.4,4.24 v 14 z m 10.64,-10.08 c 1.493,0 2.827,-0.333 4,-1 1.173,-0.693 2.107,-1.653 2.8,-2.88 0.693,-1.253 1.04,-2.693 1.04,-4.32 0,-1.627 -0.347,-3.053 -1.04,-4.28 -0.693,-1.227 -1.627,-2.187 -2.8,-2.88 -1.173,-0.693 -2.507,-1.04 -4,-1.04 -1.493,0 -2.84,0.347 -4.04,1.04 -1.173,0.693 -2.107,1.653 -2.8,2.88 -0.667,1.227 -1,2.653 -1,4.28 0,1.627 0.333,3.067 1,4.32 0.693,1.227 1.627,2.187 2.8,2.88 1.2,0.667 2.547,1 4.04,1 z m 16.47,2.32 v -21 h 2.72 v 5.72 l -0.28,-1 c 0.586,-1.6 1.573,-2.813 2.96,-3.64 1.386,-0.853 3.106,-1.28 5.16,-1.28 v 2.76 c -0.107,0 -0.214,0 -0.32,0 -0.107,-0.027 -0.214,-0.04 -0.32,-0.04 -2.214,0 -3.947,0.68 -5.2,2.04 -1.254,1.333 -1.88,3.24 -1.88,5.72 V 490 Z m 24.106,0.2 c -2.026,0 -3.853,-0.453 -5.48,-1.36 -1.6,-0.933 -2.866,-2.2 -3.8,-3.8 -0.933,-1.627 -1.4,-3.48 -1.4,-5.56 0,-2.107 0.467,-3.96 1.4,-5.56 0.934,-1.6 2.2,-2.853 3.8,-3.76 1.6,-0.907 3.427,-1.36 5.48,-1.36 2.08,0 3.92,0.453 5.52,1.36 1.627,0.907 2.894,2.16 3.8,3.76 0.934,1.6 1.4,3.453 1.4,5.56 0,2.08 -0.466,3.933 -1.4,5.56 -0.906,1.6 -2.173,2.867 -3.8,3.8 -1.626,0.907 -3.466,1.36 -5.52,1.36 z m 0,-2.52 c 1.52,0 2.867,-0.333 4.04,-1 1.174,-0.693 2.094,-1.653 2.76,-2.88 0.694,-1.253 1.04,-2.693 1.04,-4.32 0,-1.653 -0.346,-3.093 -1.04,-4.32 -0.666,-1.227 -1.586,-2.173 -2.76,-2.84 -1.173,-0.693 -2.506,-1.04 -4,-1.04 -1.493,0 -2.826,0.347 -4,1.04 -1.173,0.667 -2.106,1.613 -2.8,2.84 -0.693,1.227 -1.04,2.667 -1.04,4.32 0,1.627 0.347,3.067 1.04,4.32 0.694,1.227 1.627,2.187 2.8,2.88 1.174,0.667 2.494,1 3.96,1 z m 25.479,10.28 c -1.92,0 -3.76,-0.28 -5.52,-0.84 -1.76,-0.56 -3.187,-1.36 -4.28,-2.4 l 1.44,-2.16 c 0.986,0.88 2.2,1.573 3.64,2.08 1.466,0.533 3.013,0.8 4.64,0.8 2.666,0 4.626,-0.627 5.88,-1.88 1.253,-1.227 1.88,-3.147 1.88,-5.76 v -5.24 l 0.4,-3.6 -0.28,-3.6 V 469 h 2.72 v 18.44 c 0,3.627 -0.894,6.28 -2.68,7.96 -1.76,1.707 -4.374,2.56 -7.84,2.56 z m -0.52,-8.76 c -2,0 -3.8,-0.427 -5.4,-1.28 -1.6,-0.88 -2.867,-2.093 -3.8,-3.64 -0.907,-1.547 -1.36,-3.32 -1.36,-5.32 0,-2 0.453,-3.76 1.36,-5.28 0.933,-1.547 2.2,-2.747 3.8,-3.6 1.6,-0.853 3.4,-1.28 5.4,-1.28 1.866,0 3.546,0.387 5.04,1.16 1.493,0.773 2.68,1.92 3.56,3.44 0.88,1.52 1.32,3.373 1.32,5.56 0,2.187 -0.44,4.04 -1.32,5.56 -0.88,1.52 -2.067,2.68 -3.56,3.48 -1.494,0.8 -3.174,1.2 -5.04,1.2 z m 0.28,-2.52 c 1.546,0 2.92,-0.32 4.12,-0.96 1.2,-0.667 2.146,-1.573 2.84,-2.72 0.693,-1.173 1.04,-2.52 1.04,-4.04 0,-1.52 -0.347,-2.853 -1.04,-4 -0.694,-1.147 -1.64,-2.04 -2.84,-2.68 -1.2,-0.667 -2.574,-1 -4.12,-1 -1.52,0 -2.894,0.333 -4.12,1 -1.2,0.64 -2.147,1.533 -2.84,2.68 -0.667,1.147 -1,2.48 -1,4 0,1.52 0.333,2.867 1,4.04 0.693,1.147 1.64,2.053 2.84,2.72 1.226,0.64 2.6,0.96 4.12,0.96 z M 308.03,490 v -21 h 2.72 v 5.72 l -0.28,-1 c 0.587,-1.6 1.574,-2.813 2.96,-3.64 1.387,-0.853 3.107,-1.28 5.16,-1.28 v 2.76 c -0.106,0 -0.213,0 -0.32,0 -0.106,-0.027 -0.213,-0.04 -0.32,-0.04 -2.213,0 -3.946,0.68 -5.2,2.04 -1.253,1.333 -1.88,3.24 -1.88,5.72 V 490 Z m 27.34,0 v -4.64 l -0.12,-0.76 v -7.76 c 0,-1.787 -0.507,-3.16 -1.52,-4.12 -0.987,-0.96 -2.467,-1.44 -4.44,-1.44 -1.36,0 -2.653,0.227 -3.88,0.68 -1.227,0.453 -2.267,1.053 -3.12,1.8 l -1.28,-2.12 c 1.067,-0.907 2.347,-1.6 3.84,-2.08 1.493,-0.507 3.067,-0.76 4.72,-0.76 2.72,0 4.813,0.68 6.28,2.04 1.493,1.333 2.24,3.373 2.24,6.12 V 490 Z m -7.24,0.2 c -1.573,0 -2.947,-0.253 -4.12,-0.76 -1.147,-0.533 -2.027,-1.253 -2.64,-2.16 -0.613,-0.933 -0.92,-2 -0.92,-3.2 0,-1.093 0.253,-2.08 0.76,-2.96 0.533,-0.907 1.387,-1.627 2.56,-2.16 1.2,-0.56 2.8,-0.84 4.8,-0.84 h 7.24 v 2.12 h -7.16 c -2.027,0 -3.44,0.36 -4.24,1.08 -0.773,0.72 -1.16,1.613 -1.16,2.68 0,1.2 0.467,2.16 1.4,2.88 0.933,0.72 2.24,1.08 3.92,1.08 1.6,0 2.973,-0.36 4.12,-1.08 1.173,-0.747 2.027,-1.813 2.56,-3.2 l 0.64,1.96 c -0.533,1.387 -1.467,2.493 -2.8,3.32 -1.307,0.827 -2.96,1.24 -4.96,1.24 z m 43.914,-21.4 c 1.706,0 3.186,0.333 4.44,1 1.28,0.64 2.266,1.627 2.96,2.96 0.72,1.333 1.08,3.013 1.08,5.04 V 490 h -2.84 v -11.92 c 0,-2.213 -0.534,-3.88 -1.6,-5 -1.04,-1.147 -2.52,-1.72 -4.44,-1.72 -1.44,0 -2.694,0.307 -3.76,0.92 -1.04,0.587 -1.854,1.453 -2.44,2.6 -0.56,1.12 -0.84,2.48 -0.84,4.08 V 490 h -2.84 v -11.92 c 0,-2.213 -0.534,-3.88 -1.6,-5 -1.067,-1.147 -2.56,-1.72 -4.48,-1.72 -1.414,0 -2.654,0.307 -3.72,0.92 -1.067,0.587 -1.894,1.453 -2.48,2.6 -0.56,1.12 -0.84,2.48 -0.84,4.08 V 490 h -2.84 v -21 h 2.72 v 5.68 l -0.44,-1 c 0.64,-1.52 1.666,-2.707 3.08,-3.56 1.44,-0.88 3.133,-1.32 5.08,-1.32 2.053,0 3.8,0.52 5.24,1.56 1.44,1.013 2.373,2.547 2.8,4.6 l -1.12,-0.44 c 0.613,-1.707 1.693,-3.08 3.24,-4.12 1.573,-1.067 3.453,-1.6 5.64,-1.6 z m 21.822,21.4 c -1.734,0 -3.374,-0.24 -4.92,-0.72 -1.547,-0.507 -2.76,-1.133 -3.64,-1.88 l 1.28,-2.24 c 0.853,0.64 1.946,1.2 3.28,1.68 1.333,0.453 2.733,0.68 4.2,0.68 2,0 3.44,-0.307 4.32,-0.92 0.88,-0.64 1.32,-1.48 1.32,-2.52 0,-0.773 -0.254,-1.373 -0.76,-1.8 -0.48,-0.453 -1.12,-0.787 -1.92,-1 -0.8,-0.24 -1.694,-0.44 -2.68,-0.6 -0.987,-0.16 -1.974,-0.347 -2.96,-0.56 -0.96,-0.213 -1.84,-0.52 -2.64,-0.92 -0.8,-0.427 -1.454,-1 -1.96,-1.72 -0.48,-0.72 -0.72,-1.68 -0.72,-2.88 0,-1.147 0.32,-2.173 0.96,-3.08 0.64,-0.907 1.573,-1.613 2.8,-2.12 1.253,-0.533 2.773,-0.8 4.56,-0.8 1.36,0 2.72,0.187 4.08,0.56 1.36,0.347 2.48,0.813 3.36,1.4 l -1.24,2.28 c -0.934,-0.64 -1.934,-1.093 -3,-1.36 -1.067,-0.293 -2.134,-0.44 -3.2,-0.44 -1.894,0 -3.294,0.333 -4.2,1 -0.88,0.64 -1.32,1.467 -1.32,2.48 0,0.8 0.24,1.427 0.72,1.88 0.506,0.453 1.16,0.813 1.96,1.08 0.826,0.24 1.72,0.44 2.68,0.6 0.986,0.16 1.96,0.36 2.92,0.6 0.986,0.213 1.88,0.52 2.68,0.92 0.826,0.373 1.48,0.92 1.96,1.64 0.506,0.693 0.76,1.613 0.76,2.76 0,1.227 -0.347,2.293 -1.04,3.2 -0.667,0.88 -1.654,1.573 -2.96,2.08 -1.28,0.48 -2.84,0.72 -4.68,0.72 z m 37.52,-0.2 v -4.64 l -0.12,-0.76 v -7.76 c 0,-1.787 -0.507,-3.16 -1.52,-4.12 -0.987,-0.96 -2.467,-1.44 -4.44,-1.44 -1.36,0 -2.654,0.227 -3.88,0.68 -1.227,0.453 -2.267,1.053 -3.12,1.8 l -1.28,-2.12 c 1.066,-0.907 2.346,-1.6 3.84,-2.08 1.493,-0.507 3.066,-0.76 4.72,-0.76 2.72,0 4.813,0.68 6.28,2.04 1.493,1.333 2.24,3.373 2.24,6.12 V 490 Z m -7.24,0.2 c -1.574,0 -2.947,-0.253 -4.12,-0.76 -1.147,-0.533 -2.027,-1.253 -2.64,-2.16 -0.614,-0.933 -0.92,-2 -0.92,-3.2 0,-1.093 0.253,-2.08 0.76,-2.96 0.533,-0.907 1.386,-1.627 2.56,-2.16 1.2,-0.56 2.8,-0.84 4.8,-0.84 h 7.24 v 2.12 h -7.16 c -2.027,0 -3.44,0.36 -4.24,1.08 -0.774,0.72 -1.16,1.613 -1.16,2.68 0,1.2 0.466,2.16 1.4,2.88 0.933,0.72 2.24,1.08 3.92,1.08 1.6,0 2.973,-0.36 4.12,-1.08 1.173,-0.747 2.026,-1.813 2.56,-3.2 l 0.64,1.96 c -0.534,1.387 -1.467,2.493 -2.8,3.32 -1.307,0.827 -2.96,1.24 -4.96,1.24 z m 17.673,-0.2 v -21 h 2.72 v 5.72 l -0.28,-1 c 0.587,-1.6 1.574,-2.813 2.96,-3.64 1.387,-0.853 3.107,-1.28 5.16,-1.28 v 2.76 c -0.106,0 -0.213,0 -0.32,0 -0.106,-0.027 -0.213,-0.04 -0.32,-0.04 -2.213,0 -3.946,0.68 -5.2,2.04 -1.253,1.333 -1.88,3.24 -1.88,5.72 V 490 Z m 24.467,0.2 c -2.186,0 -4.106,-0.453 -5.76,-1.36 -1.653,-0.933 -2.946,-2.2 -3.88,-3.8 -0.933,-1.627 -1.4,-3.48 -1.4,-5.56 0,-2.08 0.44,-3.92 1.32,-5.52 0.907,-1.6 2.134,-2.853 3.68,-3.76 1.574,-0.933 3.334,-1.4 5.28,-1.4 1.974,0 3.72,0.453 5.24,1.36 1.547,0.88 2.76,2.133 3.64,3.76 0.88,1.6 1.32,3.453 1.32,5.56 0,0.133 -0.013,0.28 -0.04,0.44 0,0.133 0,0.28 0,0.44 h -18.28 v -2.12 h 16.76 l -1.12,0.84 c 0,-1.52 -0.333,-2.867 -1,-4.04 -0.64,-1.2 -1.52,-2.133 -2.64,-2.8 -1.12,-0.667 -2.413,-1 -3.88,-1 -1.44,0 -2.733,0.333 -3.88,1 -1.146,0.667 -2.04,1.6 -2.68,2.8 -0.64,1.2 -0.96,2.573 -0.96,4.12 v 0.44 c 0,1.6 0.347,3.013 1.04,4.24 0.72,1.2 1.707,2.147 2.96,2.84 1.28,0.667 2.734,1 4.36,1 1.28,0 2.467,-0.227 3.56,-0.68 1.12,-0.453 2.08,-1.147 2.88,-2.08 l 1.6,1.84 c -0.933,1.12 -2.106,1.973 -3.52,2.56 -1.386,0.587 -2.92,0.88 -4.6,0.88 z m 34.05,0 c -2,0 -3.8,-0.453 -5.4,-1.36 -1.574,-0.907 -2.814,-2.16 -3.72,-3.76 -0.907,-1.627 -1.36,-3.493 -1.36,-5.6 0,-2.133 0.453,-4 1.36,-5.6 0.906,-1.6 2.146,-2.84 3.72,-3.72 1.6,-0.907 3.4,-1.36 5.4,-1.36 1.84,0 3.48,0.413 4.92,1.24 1.466,0.827 2.626,2.04 3.48,3.64 0.88,1.573 1.32,3.507 1.32,5.8 0,2.267 -0.427,4.2 -1.28,5.8 -0.854,1.6 -2.014,2.827 -3.48,3.68 -1.44,0.827 -3.094,1.24 -4.96,1.24 z m 0.2,-2.52 c 1.493,0 2.826,-0.333 4,-1 1.2,-0.693 2.133,-1.653 2.8,-2.88 0.693,-1.253 1.04,-2.693 1.04,-4.32 0,-1.653 -0.347,-3.093 -1.04,-4.32 -0.667,-1.227 -1.6,-2.173 -2.8,-2.84 -1.174,-0.693 -2.507,-1.04 -4,-1.04 -1.467,0 -2.787,0.347 -3.96,1.04 -1.174,0.667 -2.107,1.613 -2.8,2.84 -0.694,1.227 -1.04,2.667 -1.04,4.32 0,1.627 0.346,3.067 1.04,4.32 0.693,1.227 1.626,2.187 2.8,2.88 1.173,0.667 2.493,1 3.96,1 z m 7.92,2.32 v -6.32 l 0.28,-4.24 -0.4,-4.24 v -14.88 h 2.84 V 490 Z m 19.549,0.2 c -2.187,0 -4.107,-0.453 -5.76,-1.36 -1.653,-0.933 -2.947,-2.2 -3.88,-3.8 -0.933,-1.627 -1.4,-3.48 -1.4,-5.56 0,-2.08 0.44,-3.92 1.32,-5.52 0.907,-1.6 2.133,-2.853 3.68,-3.76 1.573,-0.933 3.333,-1.4 5.28,-1.4 1.973,0 3.72,0.453 5.24,1.36 1.547,0.88 2.76,2.133 3.64,3.76 0.88,1.6 1.32,3.453 1.32,5.56 0,0.133 -0.013,0.28 -0.04,0.44 0,0.133 0,0.28 0,0.44 h -18.28 v -2.12 h 16.76 l -1.12,0.84 c 0,-1.52 -0.333,-2.867 -1,-4.04 -0.64,-1.2 -1.52,-2.133 -2.64,-2.8 -1.12,-0.667 -2.413,-1 -3.88,-1 -1.44,0 -2.733,0.333 -3.88,1 -1.147,0.667 -2.04,1.6 -2.68,2.8 -0.64,1.2 -0.96,2.573 -0.96,4.12 v 0.44 c 0,1.6 0.347,3.013 1.04,4.24 0.72,1.2 1.707,2.147 2.96,2.84 1.28,0.667 2.733,1 4.36,1 1.28,0 2.467,-0.227 3.56,-0.68 1.12,-0.453 2.08,-1.147 2.88,-2.08 l 1.6,1.84 c -0.933,1.12 -2.107,1.973 -3.52,2.56 -1.387,0.587 -2.92,0.88 -4.6,0.88 z m 20.861,0 c -1.734,0 -3.374,-0.24 -4.92,-0.72 -1.547,-0.507 -2.76,-1.133 -3.64,-1.88 l 1.28,-2.24 c 0.853,0.64 1.946,1.2 3.28,1.68 1.333,0.453 2.733,0.68 4.2,0.68 2,0 3.44,-0.307 4.32,-0.92 0.88,-0.64 1.32,-1.48 1.32,-2.52 0,-0.773 -0.254,-1.373 -0.76,-1.8 -0.48,-0.453 -1.12,-0.787 -1.92,-1 -0.8,-0.24 -1.694,-0.44 -2.68,-0.6 -0.987,-0.16 -1.974,-0.347 -2.96,-0.56 -0.96,-0.213 -1.84,-0.52 -2.64,-0.92 -0.8,-0.427 -1.454,-1 -1.96,-1.72 -0.48,-0.72 -0.72,-1.68 -0.72,-2.88 0,-1.147 0.32,-2.173 0.96,-3.08 0.64,-0.907 1.573,-1.613 2.8,-2.12 1.253,-0.533 2.773,-0.8 4.56,-0.8 1.36,0 2.72,0.187 4.08,0.56 1.36,0.347 2.48,0.813 3.36,1.4 l -1.24,2.28 c -0.934,-0.64 -1.934,-1.093 -3,-1.36 -1.067,-0.293 -2.134,-0.44 -3.2,-0.44 -1.894,0 -3.294,0.333 -4.2,1 -0.88,0.64 -1.32,1.467 -1.32,2.48 0,0.8 0.24,1.427 0.72,1.88 0.506,0.453 1.16,0.813 1.96,1.08 0.826,0.24 1.72,0.44 2.68,0.6 0.986,0.16 1.96,0.36 2.92,0.6 0.986,0.213 1.88,0.52 2.68,0.92 0.826,0.373 1.48,0.92 1.96,1.64 0.506,0.693 0.76,1.613 0.76,2.76 0,1.227 -0.347,2.293 -1.04,3.2 -0.667,0.88 -1.654,1.573 -2.96,2.08 -1.28,0.48 -2.84,0.72 -4.68,0.72 z m 13.891,-0.2 v -21 h 2.84 v 21 z m 1.44,-25.64 c -0.587,0 -1.08,-0.2 -1.48,-0.6 -0.4,-0.4 -0.6,-0.88 -0.6,-1.44 0,-0.56 0.2,-1.027 0.6,-1.4 0.4,-0.4 0.893,-0.6 1.48,-0.6 0.587,0 1.08,0.187 1.48,0.56 0.4,0.373 0.6,0.84 0.6,1.4 0,0.587 -0.2,1.08 -0.6,1.48 -0.373,0.4 -0.867,0.6 -1.48,0.6 z m 18.262,33.6 c -1.92,0 -3.76,-0.28 -5.52,-0.84 -1.76,-0.56 -3.187,-1.36 -4.28,-2.4 l 1.44,-2.16 c 0.987,0.88 2.2,1.573 3.64,2.08 1.467,0.533 3.013,0.8 4.64,0.8 2.667,0 4.627,-0.627 5.88,-1.88 1.253,-1.227 1.88,-3.147 1.88,-5.76 v -5.24 l 0.4,-3.6 -0.28,-3.6 V 469 h 2.72 v 18.44 c 0,3.627 -0.893,6.28 -2.68,7.96 -1.76,1.707 -4.373,2.56 -7.84,2.56 z m -0.52,-8.76 c -2,0 -3.8,-0.427 -5.4,-1.28 -1.6,-0.88 -2.867,-2.093 -3.8,-3.64 -0.907,-1.547 -1.36,-3.32 -1.36,-5.32 0,-2 0.453,-3.76 1.36,-5.28 0.933,-1.547 2.2,-2.747 3.8,-3.6 1.6,-0.853 3.4,-1.28 5.4,-1.28 1.867,0 3.547,0.387 5.04,1.16 1.493,0.773 2.68,1.92 3.56,3.44 0.88,1.52 1.32,3.373 1.32,5.56 0,2.187 -0.44,4.04 -1.32,5.56 -0.88,1.52 -2.067,2.68 -3.56,3.48 -1.493,0.8 -3.173,1.2 -5.04,1.2 z m 0.28,-2.52 c 1.547,0 2.92,-0.32 4.12,-0.96 1.2,-0.667 2.147,-1.573 2.84,-2.72 0.693,-1.173 1.04,-2.52 1.04,-4.04 0,-1.52 -0.347,-2.853 -1.04,-4 -0.693,-1.147 -1.64,-2.04 -2.84,-2.68 -1.2,-0.667 -2.573,-1 -4.12,-1 -1.52,0 -2.893,0.333 -4.12,1 -1.2,0.64 -2.147,1.533 -2.84,2.68 -0.667,1.147 -1,2.48 -1,4 0,1.52 0.333,2.867 1,4.04 0.693,1.147 1.64,2.053 2.84,2.72 1.227,0.64 2.6,0.96 4.12,0.96 z m 29.383,-17.88 c 1.707,0 3.2,0.333 4.48,1 1.307,0.64 2.32,1.627 3.04,2.96 0.747,1.333 1.12,3.013 1.12,5.04 V 490 h -2.84 v -11.92 c 0,-2.213 -0.56,-3.88 -1.68,-5 -1.093,-1.147 -2.64,-1.72 -4.64,-1.72 -1.493,0 -2.8,0.307 -3.92,0.92 -1.093,0.587 -1.947,1.453 -2.56,2.6 -0.587,1.12 -0.88,2.48 -0.88,4.08 V 490 h -2.84 v -21 h 2.72 v 5.76 l -0.44,-1.08 c 0.667,-1.52 1.733,-2.707 3.2,-3.56 1.467,-0.88 3.213,-1.32 5.24,-1.32 z m 25.231,21.4 c -2.187,0 -4.107,-0.453 -5.76,-1.36 -1.653,-0.933 -2.947,-2.2 -3.88,-3.8 -0.933,-1.627 -1.4,-3.48 -1.4,-5.56 0,-2.08 0.44,-3.92 1.32,-5.52 0.907,-1.6 2.133,-2.853 3.68,-3.76 1.573,-0.933 3.333,-1.4 5.28,-1.4 1.973,0 3.72,0.453 5.24,1.36 1.547,0.88 2.76,2.133 3.64,3.76 0.88,1.6 1.32,3.453 1.32,5.56 0,0.133 -0.013,0.28 -0.04,0.44 0,0.133 0,0.28 0,0.44 h -18.28 v -2.12 h 16.76 l -1.12,0.84 c 0,-1.52 -0.333,-2.867 -1,-4.04 -0.64,-1.2 -1.52,-2.133 -2.64,-2.8 -1.12,-0.667 -2.413,-1 -3.88,-1 -1.44,0 -2.733,0.333 -3.88,1 -1.147,0.667 -2.04,1.6 -2.68,2.8 -0.64,1.2 -0.96,2.573 -0.96,4.12 v 0.44 c 0,1.6 0.347,3.013 1.04,4.24 0.72,1.2 1.707,2.147 2.96,2.84 1.28,0.667 2.733,1 4.36,1 1.28,0 2.467,-0.227 3.56,-0.68 1.12,-0.453 2.08,-1.147 2.88,-2.08 l 1.6,1.84 c -0.933,1.12 -2.107,1.973 -3.52,2.56 -1.387,0.587 -2.92,0.88 -4.6,0.88 z m 23.581,0 c -2,0 -3.8,-0.453 -5.4,-1.36 -1.574,-0.907 -2.814,-2.16 -3.72,-3.76 -0.907,-1.627 -1.36,-3.493 -1.36,-5.6 0,-2.133 0.453,-4 1.36,-5.6 0.906,-1.6 2.146,-2.84 3.72,-3.72 1.6,-0.907 3.4,-1.36 5.4,-1.36 1.84,0 3.48,0.413 4.92,1.24 1.466,0.827 2.626,2.04 3.48,3.64 0.88,1.573 1.32,3.507 1.32,5.8 0,2.267 -0.427,4.2 -1.28,5.8 -0.854,1.6 -2.014,2.827 -3.48,3.68 -1.44,0.827 -3.094,1.24 -4.96,1.24 z m 0.2,-2.52 c 1.493,0 2.826,-0.333 4,-1 1.2,-0.693 2.133,-1.653 2.8,-2.88 0.693,-1.253 1.04,-2.693 1.04,-4.32 0,-1.653 -0.347,-3.093 -1.04,-4.32 -0.667,-1.227 -1.6,-2.173 -2.8,-2.84 -1.174,-0.693 -2.507,-1.04 -4,-1.04 -1.467,0 -2.787,0.347 -3.96,1.04 -1.174,0.667 -2.107,1.613 -2.8,2.84 -0.694,1.227 -1.04,2.667 -1.04,4.32 0,1.627 0.346,3.067 1.04,4.32 0.693,1.227 1.626,2.187 2.8,2.88 1.173,0.667 2.493,1 3.96,1 z m 7.92,2.32 v -6.32 l 0.28,-4.24 -0.4,-4.24 v -14.88 h 2.84 V 490 Z m 21.578,0 v -23.64 c 0,-1.867 0.547,-3.373 1.64,-4.52 1.093,-1.147 2.667,-1.72 4.72,-1.72 0.8,0 1.573,0.107 2.32,0.32 0.747,0.213 1.373,0.547 1.88,1 l -0.96,2.12 c -0.4,-0.347 -0.867,-0.6 -1.4,-0.76 -0.533,-0.187 -1.107,-0.28 -1.72,-0.28 -1.2,0 -2.12,0.333 -2.76,1 -0.64,0.667 -0.96,1.653 -0.96,2.96 v 3.2 l 0.08,1.32 v 19 z m -3.76,-18.64 V 469 h 13 v 2.36 z m 25.043,18.84 c -2.027,0 -3.853,-0.453 -5.48,-1.36 -1.6,-0.933 -2.867,-2.2 -3.8,-3.8 -0.933,-1.627 -1.4,-3.48 -1.4,-5.56 0,-2.107 0.467,-3.96 1.4,-5.56 0.933,-1.6 2.2,-2.853 3.8,-3.76 1.6,-0.907 3.427,-1.36 5.48,-1.36 2.08,0 3.92,0.453 5.52,1.36 1.627,0.907 2.893,2.16 3.8,3.76 0.933,1.6 1.4,3.453 1.4,5.56 0,2.08 -0.467,3.933 -1.4,5.56 -0.907,1.6 -2.173,2.867 -3.8,3.8 -1.627,0.907 -3.467,1.36 -5.52,1.36 z m 0,-2.52 c 1.52,0 2.867,-0.333 4.04,-1 1.173,-0.693 2.093,-1.653 2.76,-2.88 0.693,-1.253 1.04,-2.693 1.04,-4.32 0,-1.653 -0.347,-3.093 -1.04,-4.32 -0.667,-1.227 -1.587,-2.173 -2.76,-2.84 -1.173,-0.693 -2.507,-1.04 -4,-1.04 -1.493,0 -2.827,0.347 -4,1.04 -1.173,0.667 -2.107,1.613 -2.8,2.84 -0.693,1.227 -1.04,2.667 -1.04,4.32 0,1.627 0.347,3.067 1.04,4.32 0.693,1.227 1.627,2.187 2.8,2.88 1.173,0.667 2.493,1 3.96,1 z m 16.518,2.32 v -21 h 2.72 v 5.72 l -0.28,-1 c 0.587,-1.6 1.573,-2.813 2.96,-3.64 1.387,-0.853 3.107,-1.28 5.16,-1.28 v 2.76 c -0.107,0 -0.213,0 -0.32,0 -0.107,-0.027 -0.213,-0.04 -0.32,-0.04 -2.213,0 -3.947,0.68 -5.2,2.04 -1.253,1.333 -1.88,3.24 -1.88,5.72 V 490 Z M 129.12,543.04 129,539.44 145.96,522 h 3.4 l -12.36,12.96 -1.68,1.8 z m -2.56,6.96 v -28 h 2.96 v 28 z m 20.12,0 -12.08,-13.92 2,-2.16 13.6,16.08 z m 15.301,0.2 c -2.027,0 -3.853,-0.453 -5.48,-1.36 -1.6,-0.933 -2.867,-2.2 -3.8,-3.8 -0.933,-1.627 -1.4,-3.48 -1.4,-5.56 0,-2.107 0.467,-3.96 1.4,-5.56 0.933,-1.6 2.2,-2.853 3.8,-3.76 1.6,-0.907 3.427,-1.36 5.48,-1.36 2.08,0 3.92,0.453 5.52,1.36 1.627,0.907 2.893,2.16 3.8,3.76 0.933,1.6 1.4,3.453 1.4,5.56 0,2.08 -0.467,3.933 -1.4,5.56 -0.907,1.6 -2.173,2.867 -3.8,3.8 -1.627,0.907 -3.467,1.36 -5.52,1.36 z m 0,-2.52 c 1.52,0 2.867,-0.333 4.04,-1 1.173,-0.693 2.093,-1.653 2.76,-2.88 0.693,-1.253 1.04,-2.693 1.04,-4.32 0,-1.653 -0.347,-3.093 -1.04,-4.32 -0.667,-1.227 -1.587,-2.173 -2.76,-2.84 -1.173,-0.693 -2.507,-1.04 -4,-1.04 -1.493,0 -2.827,0.347 -4,1.04 -1.173,0.667 -2.107,1.613 -2.8,2.84 -0.693,1.227 -1.04,2.667 -1.04,4.32 0,1.627 0.347,3.067 1.04,4.32 0.693,1.227 1.627,2.187 2.8,2.88 1.173,0.667 2.493,1 3.96,1 z m 16.518,2.32 v -21 h 2.72 v 5.72 l -0.28,-1 c 0.587,-1.6 1.573,-2.813 2.96,-3.64 1.387,-0.853 3.107,-1.28 5.16,-1.28 v 2.76 c -0.107,0 -0.213,0 -0.32,0 -0.107,-0.027 -0.213,-0.04 -0.32,-0.04 -2.213,0 -3.947,0.68 -5.2,2.04 -1.253,1.333 -1.88,3.24 -1.88,5.72 V 550 Z m 24.467,0.2 c -2.187,0 -4.107,-0.453 -5.76,-1.36 -1.653,-0.933 -2.947,-2.2 -3.88,-3.8 -0.933,-1.627 -1.4,-3.48 -1.4,-5.56 0,-2.08 0.44,-3.92 1.32,-5.52 0.907,-1.6 2.133,-2.853 3.68,-3.76 1.573,-0.933 3.333,-1.4 5.28,-1.4 1.973,0 3.72,0.453 5.24,1.36 1.547,0.88 2.76,2.133 3.64,3.76 0.88,1.6 1.32,3.453 1.32,5.56 0,0.133 -0.013,0.28 -0.04,0.44 0,0.133 0,0.28 0,0.44 h -18.28 v -2.12 h 16.76 l -1.12,0.84 c 0,-1.52 -0.333,-2.867 -1,-4.04 -0.64,-1.2 -1.52,-2.133 -2.64,-2.8 -1.12,-0.667 -2.413,-1 -3.88,-1 -1.44,0 -2.733,0.333 -3.88,1 -1.147,0.667 -2.04,1.6 -2.68,2.8 -0.64,1.2 -0.96,2.573 -0.96,4.12 v 0.44 c 0,1.6 0.347,3.013 1.04,4.24 0.72,1.2 1.707,2.147 2.96,2.84 1.28,0.667 2.733,1 4.36,1 1.28,0 2.467,-0.227 3.56,-0.68 1.12,-0.453 2.08,-1.147 2.88,-2.08 l 1.6,1.84 c -0.933,1.12 -2.107,1.973 -3.52,2.56 -1.387,0.587 -2.92,0.88 -4.6,0.88 z m 27.795,-0.2 v -4.64 l -0.12,-0.76 v -7.76 c 0,-1.787 -0.507,-3.16 -1.52,-4.12 -0.987,-0.96 -2.467,-1.44 -4.44,-1.44 -1.36,0 -2.654,0.227 -3.88,0.68 -1.227,0.453 -2.267,1.053 -3.12,1.8 l -1.28,-2.12 c 1.066,-0.907 2.346,-1.6 3.84,-2.08 1.493,-0.507 3.066,-0.76 4.72,-0.76 2.72,0 4.813,0.68 6.28,2.04 1.493,1.333 2.24,3.373 2.24,6.12 V 550 Z m -7.24,0.2 c -1.574,0 -2.947,-0.253 -4.12,-0.76 -1.147,-0.533 -2.027,-1.253 -2.64,-2.16 -0.614,-0.933 -0.92,-2 -0.92,-3.2 0,-1.093 0.253,-2.08 0.76,-2.96 0.533,-0.907 1.386,-1.627 2.56,-2.16 1.2,-0.56 2.8,-0.84 4.8,-0.84 h 7.24 v 2.12 h -7.16 c -2.027,0 -3.44,0.36 -4.24,1.08 -0.774,0.72 -1.16,1.613 -1.16,2.68 0,1.2 0.466,2.16 1.4,2.88 0.933,0.72 2.24,1.08 3.92,1.08 1.6,0 2.973,-0.36 4.12,-1.08 1.173,-0.747 2.026,-1.813 2.56,-3.2 l 0.64,1.96 c -0.534,1.387 -1.467,2.493 -2.8,3.32 -1.307,0.827 -2.96,1.24 -4.96,1.24 z m 28.393,-21.4 c 1.707,0 3.2,0.333 4.48,1 1.307,0.64 2.32,1.627 3.04,2.96 0.747,1.333 1.12,3.013 1.12,5.04 V 550 h -2.84 v -11.92 c 0,-2.213 -0.56,-3.88 -1.68,-5 -1.093,-1.147 -2.64,-1.72 -4.64,-1.72 -1.493,0 -2.8,0.307 -3.92,0.92 -1.093,0.587 -1.946,1.453 -2.56,2.6 -0.586,1.12 -0.88,2.48 -0.88,4.08 V 550 h -2.84 v -21 h 2.72 v 5.76 l -0.44,-1.08 c 0.667,-1.52 1.734,-2.707 3.2,-3.56 1.467,-0.88 3.214,-1.32 5.24,-1.32 z m 32.42,21.4 c -1.733,0 -3.373,-0.24 -4.92,-0.72 -1.546,-0.507 -2.76,-1.133 -3.64,-1.88 l 1.28,-2.24 c 0.854,0.64 1.947,1.2 3.28,1.68 1.334,0.453 2.734,0.68 4.2,0.68 2,0 3.44,-0.307 4.32,-0.92 0.88,-0.64 1.32,-1.48 1.32,-2.52 0,-0.773 -0.253,-1.373 -0.76,-1.8 -0.48,-0.453 -1.12,-0.787 -1.92,-1 -0.8,-0.24 -1.693,-0.44 -2.68,-0.6 -0.986,-0.16 -1.973,-0.347 -2.96,-0.56 -0.96,-0.213 -1.84,-0.52 -2.64,-0.92 -0.8,-0.427 -1.453,-1 -1.96,-1.72 -0.48,-0.72 -0.72,-1.68 -0.72,-2.88 0,-1.147 0.32,-2.173 0.96,-3.08 0.64,-0.907 1.574,-1.613 2.8,-2.12 1.254,-0.533 2.774,-0.8 4.56,-0.8 1.36,0 2.72,0.187 4.08,0.56 1.36,0.347 2.48,0.813 3.36,1.4 l -1.24,2.28 c -0.933,-0.64 -1.933,-1.093 -3,-1.36 -1.066,-0.293 -2.133,-0.44 -3.2,-0.44 -1.893,0 -3.293,0.333 -4.2,1 -0.88,0.64 -1.32,1.467 -1.32,2.48 0,0.8 0.24,1.427 0.72,1.88 0.507,0.453 1.16,0.813 1.96,1.08 0.827,0.24 1.72,0.44 2.68,0.6 0.987,0.16 1.96,0.36 2.92,0.6 0.987,0.213 1.88,0.52 2.68,0.92 0.827,0.373 1.48,0.92 1.96,1.64 0.507,0.693 0.76,1.613 0.76,2.76 0,1.227 -0.346,2.293 -1.04,3.2 -0.666,0.88 -1.653,1.573 -2.96,2.08 -1.28,0.48 -2.84,0.72 -4.68,0.72 z m 20.532,0 c -1.974,0 -3.494,-0.533 -4.56,-1.6 -1.067,-1.067 -1.6,-2.573 -1.6,-4.52 v -19.72 h 2.84 v 19.56 c 0,1.227 0.306,2.173 0.92,2.84 0.64,0.667 1.546,1 2.72,1 1.253,0 2.293,-0.36 3.12,-1.08 l 1,2.04 c -0.56,0.507 -1.24,0.88 -2.04,1.12 -0.774,0.24 -1.574,0.36 -2.4,0.36 z m -9.92,-18.84 V 529 h 13 v 2.36 z m 32.69,18.64 v -4.64 l -0.12,-0.76 v -7.76 c 0,-1.787 -0.507,-3.16 -1.52,-4.12 -0.987,-0.96 -2.467,-1.44 -4.44,-1.44 -1.36,0 -2.654,0.227 -3.88,0.68 -1.227,0.453 -2.267,1.053 -3.12,1.8 l -1.28,-2.12 c 1.066,-0.907 2.346,-1.6 3.84,-2.08 1.493,-0.507 3.066,-0.76 4.72,-0.76 2.72,0 4.813,0.68 6.28,2.04 1.493,1.333 2.24,3.373 2.24,6.12 V 550 Z m -7.24,0.2 c -1.574,0 -2.947,-0.253 -4.12,-0.76 -1.147,-0.533 -2.027,-1.253 -2.64,-2.16 -0.614,-0.933 -0.92,-2 -0.92,-3.2 0,-1.093 0.253,-2.08 0.76,-2.96 0.533,-0.907 1.386,-1.627 2.56,-2.16 1.2,-0.56 2.8,-0.84 4.8,-0.84 h 7.24 v 2.12 h -7.16 c -2.027,0 -3.44,0.36 -4.24,1.08 -0.774,0.72 -1.16,1.613 -1.16,2.68 0,1.2 0.466,2.16 1.4,2.88 0.933,0.72 2.24,1.08 3.92,1.08 1.6,0 2.973,-0.36 4.12,-1.08 1.173,-0.747 2.026,-1.813 2.56,-3.2 l 0.64,1.96 c -0.534,1.387 -1.467,2.493 -2.8,3.32 -1.307,0.827 -2.96,1.24 -4.96,1.24 z m 17.673,-0.2 v -21 h 2.72 v 5.72 l -0.28,-1 c 0.587,-1.6 1.574,-2.813 2.96,-3.64 1.387,-0.853 3.107,-1.28 5.16,-1.28 v 2.76 c -0.106,0 -0.213,0 -0.32,0 -0.106,-0.027 -0.213,-0.04 -0.32,-0.04 -2.213,0 -3.946,0.68 -5.2,2.04 -1.253,1.333 -1.88,3.24 -1.88,5.72 V 550 Z m 23.281,0.2 c -1.973,0 -3.493,-0.533 -4.56,-1.6 -1.067,-1.067 -1.6,-2.573 -1.6,-4.52 v -19.72 h 2.84 v 19.56 c 0,1.227 0.307,2.173 0.92,2.84 0.64,0.667 1.547,1 2.72,1 1.253,0 2.293,-0.36 3.12,-1.08 l 1,2.04 c -0.56,0.507 -1.24,0.88 -2.04,1.12 -0.773,0.24 -1.573,0.36 -2.4,0.36 z m -9.92,-18.84 V 529 h 13 v 2.36 z m 28.21,18.84 c -1.787,0 -3.347,-0.333 -4.68,-1 -1.333,-0.667 -2.373,-1.667 -3.12,-3 -0.72,-1.333 -1.08,-3 -1.08,-5 V 529 h 2.84 v 11.88 c 0,2.24 0.547,3.933 1.64,5.08 1.12,1.12 2.68,1.68 4.68,1.68 1.467,0 2.733,-0.293 3.8,-0.88 1.093,-0.613 1.92,-1.493 2.48,-2.64 0.587,-1.147 0.88,-2.52 0.88,-4.12 v -11 h 2.84 v 21 h -2.72 v -5.76 l 0.44,1.04 c -0.667,1.547 -1.707,2.76 -3.12,3.64 -1.387,0.853 -3.013,1.28 -4.88,1.28 z m 29.035,0 c -1.813,0 -3.453,-0.413 -4.92,-1.24 -1.467,-0.853 -2.64,-2.067 -3.52,-3.64 -0.853,-1.6 -1.28,-3.547 -1.28,-5.84 0,-2.293 0.427,-4.227 1.28,-5.8 0.853,-1.6 2.013,-2.813 3.48,-3.64 1.467,-0.827 3.12,-1.24 4.96,-1.24 2,0 3.787,0.453 5.36,1.36 1.6,0.88 2.853,2.133 3.76,3.76 0.907,1.6 1.36,3.453 1.36,5.56 0,2.133 -0.453,4 -1.36,5.6 -0.907,1.6 -2.16,2.853 -3.76,3.76 -1.573,0.907 -3.36,1.36 -5.36,1.36 z m -10.84,7.56 V 529 h 2.72 v 6.32 l -0.28,4.2 0.4,4.24 v 14 z m 10.64,-10.08 c 1.493,0 2.827,-0.333 4,-1 1.173,-0.693 2.107,-1.653 2.8,-2.88 0.693,-1.253 1.04,-2.693 1.04,-4.32 0,-1.627 -0.347,-3.053 -1.04,-4.28 -0.693,-1.227 -1.627,-2.187 -2.8,-2.88 -1.173,-0.693 -2.507,-1.04 -4,-1.04 -1.493,0 -2.84,0.347 -4.04,1.04 -1.173,0.693 -2.107,1.653 -2.8,2.88 -0.667,1.227 -1,2.653 -1,4.28 0,1.627 0.333,3.067 1,4.32 0.693,1.227 1.627,2.187 2.8,2.88 1.2,0.667 2.547,1 4.04,1 z m 22.109,2.52 c -1.733,0 -3.373,-0.24 -4.92,-0.72 -1.546,-0.507 -2.76,-1.133 -3.64,-1.88 l 1.28,-2.24 c 0.854,0.64 1.947,1.2 3.28,1.68 1.334,0.453 2.734,0.68 4.2,0.68 2,0 3.44,-0.307 4.32,-0.92 0.88,-0.64 1.32,-1.48 1.32,-2.52 0,-0.773 -0.253,-1.373 -0.76,-1.8 -0.48,-0.453 -1.12,-0.787 -1.92,-1 -0.8,-0.24 -1.693,-0.44 -2.68,-0.6 -0.986,-0.16 -1.973,-0.347 -2.96,-0.56 -0.96,-0.213 -1.84,-0.52 -2.64,-0.92 -0.8,-0.427 -1.453,-1 -1.96,-1.72 -0.48,-0.72 -0.72,-1.68 -0.72,-2.88 0,-1.147 0.32,-2.173 0.96,-3.08 0.64,-0.907 1.574,-1.613 2.8,-2.12 1.254,-0.533 2.774,-0.8 4.56,-0.8 1.36,0 2.72,0.187 4.08,0.56 1.36,0.347 2.48,0.813 3.36,1.4 l -1.24,2.28 c -0.933,-0.64 -1.933,-1.093 -3,-1.36 -1.066,-0.293 -2.133,-0.44 -3.2,-0.44 -1.893,0 -3.293,0.333 -4.2,1 -0.88,0.64 -1.32,1.467 -1.32,2.48 0,0.8 0.24,1.427 0.72,1.88 0.507,0.453 1.16,0.813 1.96,1.08 0.827,0.24 1.72,0.44 2.68,0.6 0.987,0.16 1.96,0.36 2.92,0.6 0.987,0.213 1.88,0.52 2.68,0.92 0.827,0.373 1.48,0.92 1.96,1.64 0.507,0.693 0.76,1.613 0.76,2.76 0,1.227 -0.346,2.293 -1.04,3.2 -0.666,0.88 -1.653,1.573 -2.96,2.08 -1.28,0.48 -2.84,0.72 -4.68,0.72 z m 28.64,-0.2 -7.92,-21 h 2.72 l 7.2,19.48 h -1.24 l 7.4,-19.48 h 2.44 l 7.32,19.48 h -1.24 l 7.32,-19.48 h 2.6 l -7.96,21 h -2.68 l -7.04,-18.32 h 0.84 l -7.08,18.32 z m 41.597,-21.2 c 1.706,0 3.2,0.333 4.48,1 1.306,0.64 2.32,1.627 3.04,2.96 0.746,1.333 1.12,3.013 1.12,5.04 V 550 h -2.84 v -11.92 c 0,-2.213 -0.56,-3.88 -1.68,-5 -1.094,-1.147 -2.64,-1.72 -4.64,-1.72 -1.494,0 -2.8,0.307 -3.92,0.92 -1.094,0.587 -1.947,1.453 -2.56,2.6 -0.587,1.12 -0.88,2.48 -0.88,4.08 V 550 h -2.84 v -29.68 h 2.84 v 14.44 l -0.56,-1.08 c 0.666,-1.52 1.733,-2.707 3.2,-3.56 1.466,-0.88 3.213,-1.32 5.24,-1.32 z m 24.871,21.4 c -2.027,0 -3.853,-0.453 -5.48,-1.36 -1.6,-0.933 -2.867,-2.2 -3.8,-3.8 -0.933,-1.627 -1.4,-3.48 -1.4,-5.56 0,-2.107 0.467,-3.96 1.4,-5.56 0.933,-1.6 2.2,-2.853 3.8,-3.76 1.6,-0.907 3.427,-1.36 5.48,-1.36 2.08,0 3.92,0.453 5.52,1.36 1.627,0.907 2.893,2.16 3.8,3.76 0.933,1.6 1.4,3.453 1.4,5.56 0,2.08 -0.467,3.933 -1.4,5.56 -0.907,1.6 -2.173,2.867 -3.8,3.8 -1.627,0.907 -3.467,1.36 -5.52,1.36 z m 0,-2.52 c 1.52,0 2.867,-0.333 4.04,-1 1.173,-0.693 2.093,-1.653 2.76,-2.88 0.693,-1.253 1.04,-2.693 1.04,-4.32 0,-1.653 -0.347,-3.093 -1.04,-4.32 -0.667,-1.227 -1.587,-2.173 -2.76,-2.84 -1.173,-0.693 -2.507,-1.04 -4,-1.04 -1.493,0 -2.827,0.347 -4,1.04 -1.173,0.667 -2.107,1.613 -2.8,2.84 -0.693,1.227 -1.04,2.667 -1.04,4.32 0,1.627 0.347,3.067 1.04,4.32 0.693,1.227 1.627,2.187 2.8,2.88 1.173,0.667 2.493,1 3.96,1 z m 40.147,2.32 v -4.64 l -0.12,-0.76 v -7.76 c 0,-1.787 -0.507,-3.16 -1.52,-4.12 -0.987,-0.96 -2.467,-1.44 -4.44,-1.44 -1.36,0 -2.654,0.227 -3.88,0.68 -1.227,0.453 -2.267,1.053 -3.12,1.8 l -1.28,-2.12 c 1.066,-0.907 2.346,-1.6 3.84,-2.08 1.493,-0.507 3.066,-0.76 4.72,-0.76 2.72,0 4.813,0.68 6.28,2.04 1.493,1.333 2.24,3.373 2.24,6.12 V 550 Z m -7.24,0.2 c -1.574,0 -2.947,-0.253 -4.12,-0.76 -1.147,-0.533 -2.027,-1.253 -2.64,-2.16 -0.614,-0.933 -0.92,-2 -0.92,-3.2 0,-1.093 0.253,-2.08 0.76,-2.96 0.533,-0.907 1.386,-1.627 2.56,-2.16 1.2,-0.56 2.8,-0.84 4.8,-0.84 h 7.24 v 2.12 h -7.16 c -2.027,0 -3.44,0.36 -4.24,1.08 -0.774,0.72 -1.16,1.613 -1.16,2.68 0,1.2 0.466,2.16 1.4,2.88 0.933,0.72 2.24,1.08 3.92,1.08 1.6,0 2.973,-0.36 4.12,-1.08 1.173,-0.747 2.026,-1.813 2.56,-3.2 l 0.64,1.96 c -0.534,1.387 -1.467,2.493 -2.8,3.32 -1.307,0.827 -2.96,1.24 -4.96,1.24 z m 17.674,-0.2 v -21 h 2.72 v 5.72 l -0.28,-1 c 0.586,-1.6 1.573,-2.813 2.96,-3.64 1.386,-0.853 3.106,-1.28 5.16,-1.28 v 2.76 c -0.107,0 -0.214,0 -0.32,0 -0.107,-0.027 -0.214,-0.04 -0.32,-0.04 -2.214,0 -3.947,0.68 -5.2,2.04 -1.254,1.333 -1.88,3.24 -1.88,5.72 V 550 Z m 24.466,0.2 c -2.186,0 -4.106,-0.453 -5.76,-1.36 -1.653,-0.933 -2.946,-2.2 -3.88,-3.8 -0.933,-1.627 -1.4,-3.48 -1.4,-5.56 0,-2.08 0.44,-3.92 1.32,-5.52 0.907,-1.6 2.134,-2.853 3.68,-3.76 1.574,-0.933 3.334,-1.4 5.28,-1.4 1.974,0 3.72,0.453 5.24,1.36 1.547,0.88 2.76,2.133 3.64,3.76 0.88,1.6 1.32,3.453 1.32,5.56 0,0.133 -0.013,0.28 -0.04,0.44 0,0.133 0,0.28 0,0.44 h -18.28 v -2.12 h 16.76 l -1.12,0.84 c 0,-1.52 -0.333,-2.867 -1,-4.04 -0.64,-1.2 -1.52,-2.133 -2.64,-2.8 -1.12,-0.667 -2.413,-1 -3.88,-1 -1.44,0 -2.733,0.333 -3.88,1 -1.146,0.667 -2.04,1.6 -2.68,2.8 -0.64,1.2 -0.96,2.573 -0.96,4.12 v 0.44 c 0,1.6 0.347,3.013 1.04,4.24 0.72,1.2 1.707,2.147 2.96,2.84 1.28,0.667 2.734,1 4.36,1 1.28,0 2.467,-0.227 3.56,-0.68 1.12,-0.453 2.08,-1.147 2.88,-2.08 l 1.6,1.84 c -0.933,1.12 -2.106,1.973 -3.52,2.56 -1.386,0.587 -2.92,0.88 -4.6,0.88 z m 25.69,-0.2 v -21 h 2.72 v 5.72 l -0.28,-1 c 0.586,-1.6 1.573,-2.813 2.96,-3.64 1.386,-0.853 3.106,-1.28 5.16,-1.28 v 2.76 c -0.107,0 -0.214,0 -0.32,0 -0.107,-0.027 -0.214,-0.04 -0.32,-0.04 -2.214,0 -3.947,0.68 -5.2,2.04 -1.254,1.333 -1.88,3.24 -1.88,5.72 V 550 Z m 24.467,0.2 c -2.187,0 -4.107,-0.453 -5.76,-1.36 -1.654,-0.933 -2.947,-2.2 -3.88,-3.8 -0.934,-1.627 -1.4,-3.48 -1.4,-5.56 0,-2.08 0.44,-3.92 1.32,-5.52 0.906,-1.6 2.133,-2.853 3.68,-3.76 1.573,-0.933 3.333,-1.4 5.28,-1.4 1.973,0 3.72,0.453 5.24,1.36 1.546,0.88 2.76,2.133 3.64,3.76 0.88,1.6 1.32,3.453 1.32,5.56 0,0.133 -0.014,0.28 -0.04,0.44 0,0.133 0,0.28 0,0.44 h -18.28 v -2.12 h 16.76 l -1.12,0.84 c 0,-1.52 -0.334,-2.867 -1,-4.04 -0.64,-1.2 -1.52,-2.133 -2.64,-2.8 -1.12,-0.667 -2.414,-1 -3.88,-1 -1.44,0 -2.734,0.333 -3.88,1 -1.147,0.667 -2.04,1.6 -2.68,2.8 -0.64,1.2 -0.96,2.573 -0.96,4.12 v 0.44 c 0,1.6 0.346,3.013 1.04,4.24 0.72,1.2 1.706,2.147 2.96,2.84 1.28,0.667 2.733,1 4.36,1 1.28,0 2.466,-0.227 3.56,-0.68 1.12,-0.453 2.08,-1.147 2.88,-2.08 l 1.6,1.84 c -0.934,1.12 -2.107,1.973 -3.52,2.56 -1.387,0.587 -2.92,0.88 -4.6,0.88 z M 678.69,550 v -4.64 l -0.12,-0.76 v -7.76 c 0,-1.787 -0.506,-3.16 -1.52,-4.12 -0.986,-0.96 -2.466,-1.44 -4.44,-1.44 -1.36,0 -2.653,0.227 -3.88,0.68 -1.226,0.453 -2.266,1.053 -3.12,1.8 l -1.28,-2.12 c 1.067,-0.907 2.347,-1.6 3.84,-2.08 1.494,-0.507 3.067,-0.76 4.72,-0.76 2.72,0 4.814,0.68 6.28,2.04 1.494,1.333 2.24,3.373 2.24,6.12 V 550 Z m -7.24,0.2 c -1.573,0 -2.946,-0.253 -4.12,-0.76 -1.146,-0.533 -2.026,-1.253 -2.64,-2.16 -0.613,-0.933 -0.92,-2 -0.92,-3.2 0,-1.093 0.254,-2.08 0.76,-2.96 0.534,-0.907 1.387,-1.627 2.56,-2.16 1.2,-0.56 2.8,-0.84 4.8,-0.84 h 7.24 v 2.12 h -7.16 c -2.026,0 -3.44,0.36 -4.24,1.08 -0.773,0.72 -1.16,1.613 -1.16,2.68 0,1.2 0.467,2.16 1.4,2.88 0.934,0.72 2.24,1.08 3.92,1.08 1.6,0 2.974,-0.36 4.12,-1.08 1.174,-0.747 2.027,-1.813 2.56,-3.2 l 0.64,1.96 c -0.533,1.387 -1.466,2.493 -2.8,3.32 -1.306,0.827 -2.96,1.24 -4.96,1.24 z m 26.034,0 c -2,0 -3.8,-0.453 -5.4,-1.36 -1.573,-0.907 -2.813,-2.16 -3.72,-3.76 -0.907,-1.627 -1.36,-3.493 -1.36,-5.6 0,-2.133 0.453,-4 1.36,-5.6 0.907,-1.6 2.147,-2.84 3.72,-3.72 1.6,-0.907 3.4,-1.36 5.4,-1.36 1.84,0 3.48,0.413 4.92,1.24 1.467,0.827 2.627,2.04 3.48,3.64 0.88,1.573 1.32,3.507 1.32,5.8 0,2.267 -0.427,4.2 -1.28,5.8 -0.853,1.6 -2.013,2.827 -3.48,3.68 -1.44,0.827 -3.093,1.24 -4.96,1.24 z m 0.2,-2.52 c 1.493,0 2.827,-0.333 4,-1 1.2,-0.693 2.133,-1.653 2.8,-2.88 0.693,-1.253 1.04,-2.693 1.04,-4.32 0,-1.653 -0.347,-3.093 -1.04,-4.32 -0.667,-1.227 -1.6,-2.173 -2.8,-2.84 -1.173,-0.693 -2.507,-1.04 -4,-1.04 -1.467,0 -2.787,0.347 -3.96,1.04 -1.173,0.667 -2.107,1.613 -2.8,2.84 -0.693,1.227 -1.04,2.667 -1.04,4.32 0,1.627 0.347,3.067 1.04,4.32 0.693,1.227 1.627,2.187 2.8,2.88 1.173,0.667 2.493,1 3.96,1 z m 7.92,2.32 v -6.32 l 0.28,-4.24 -0.4,-4.24 v -14.88 h 2.84 V 550 Z m 10.789,7.96 c -0.986,0 -1.933,-0.16 -2.84,-0.48 -0.88,-0.32 -1.64,-0.8 -2.28,-1.44 l 1.32,-2.12 c 0.534,0.507 1.107,0.893 1.72,1.16 0.64,0.293 1.347,0.44 2.12,0.44 0.934,0 1.734,-0.267 2.4,-0.8 0.694,-0.507 1.347,-1.413 1.96,-2.72 l 1.36,-3.08 0.32,-0.44 8.64,-19.48 h 2.8 l -10.52,23.52 c -0.586,1.36 -1.24,2.44 -1.96,3.24 -0.693,0.8 -1.453,1.36 -2.28,1.68 -0.826,0.347 -1.746,0.52 -2.76,0.52 z m 5.6,-7.36 -9.68,-21.6 h 2.96 l 8.56,19.28 z M 132.6,610.2 c -1.973,0 -3.493,-0.533 -4.56,-1.6 -1.067,-1.067 -1.6,-2.573 -1.6,-4.52 v -19.72 h 2.84 v 19.56 c 0,1.227 0.307,2.173 0.92,2.84 0.64,0.667 1.547,1 2.72,1 1.253,0 2.293,-0.36 3.12,-1.08 l 1,2.04 c -0.56,0.507 -1.24,0.88 -2.04,1.12 -0.773,0.24 -1.573,0.36 -2.4,0.36 z m -9.92,-18.84 V 589 h 13 v 2.36 z m 27.348,18.84 c -2.027,0 -3.854,-0.453 -5.48,-1.36 -1.6,-0.933 -2.867,-2.2 -3.8,-3.8 -0.934,-1.627 -1.4,-3.48 -1.4,-5.56 0,-2.107 0.466,-3.96 1.4,-5.56 0.933,-1.6 2.2,-2.853 3.8,-3.76 1.6,-0.907 3.426,-1.36 5.48,-1.36 2.08,0 3.92,0.453 5.52,1.36 1.626,0.907 2.893,2.16 3.8,3.76 0.933,1.6 1.4,3.453 1.4,5.56 0,2.08 -0.467,3.933 -1.4,5.56 -0.907,1.6 -2.174,2.867 -3.8,3.8 -1.627,0.907 -3.467,1.36 -5.52,1.36 z m 0,-2.52 c 1.52,0 2.866,-0.333 4.04,-1 1.173,-0.693 2.093,-1.653 2.76,-2.88 0.693,-1.253 1.04,-2.693 1.04,-4.32 0,-1.653 -0.347,-3.093 -1.04,-4.32 -0.667,-1.227 -1.587,-2.173 -2.76,-2.84 -1.174,-0.693 -2.507,-1.04 -4,-1.04 -1.494,0 -2.827,0.347 -4,1.04 -1.174,0.667 -2.107,1.613 -2.8,2.84 -0.694,1.227 -1.04,2.667 -1.04,4.32 0,1.627 0.346,3.067 1.04,4.32 0.693,1.227 1.626,2.187 2.8,2.88 1.173,0.667 2.493,1 3.96,1 z m 35.707,2.52 c -2.08,0 -3.947,-0.453 -5.6,-1.36 -1.627,-0.933 -2.907,-2.2 -3.84,-3.8 -0.934,-1.627 -1.4,-3.48 -1.4,-5.56 0,-2.107 0.466,-3.96 1.4,-5.56 0.933,-1.6 2.213,-2.853 3.84,-3.76 1.653,-0.907 3.52,-1.36 5.6,-1.36 1.786,0 3.4,0.347 4.84,1.04 1.44,0.693 2.573,1.733 3.4,3.12 l -2.12,1.44 c -0.72,-1.067 -1.614,-1.853 -2.68,-2.36 -1.067,-0.507 -2.227,-0.76 -3.48,-0.76 -1.494,0 -2.84,0.347 -4.04,1.04 -1.2,0.667 -2.147,1.613 -2.84,2.84 -0.694,1.227 -1.04,2.667 -1.04,4.32 0,1.653 0.346,3.093 1.04,4.32 0.693,1.227 1.64,2.187 2.84,2.88 1.2,0.667 2.546,1 4.04,1 1.253,0 2.413,-0.253 3.48,-0.76 1.066,-0.507 1.96,-1.28 2.68,-2.32 l 2.12,1.44 c -0.827,1.36 -1.96,2.4 -3.4,3.12 -1.44,0.693 -3.054,1.04 -4.84,1.04 z m 22.027,0 c -2.026,0 -3.853,-0.453 -5.48,-1.36 -1.6,-0.933 -2.866,-2.2 -3.8,-3.8 -0.933,-1.627 -1.4,-3.48 -1.4,-5.56 0,-2.107 0.467,-3.96 1.4,-5.56 0.934,-1.6 2.2,-2.853 3.8,-3.76 1.6,-0.907 3.427,-1.36 5.48,-1.36 2.08,0 3.92,0.453 5.52,1.36 1.627,0.907 2.894,2.16 3.8,3.76 0.934,1.6 1.4,3.453 1.4,5.56 0,2.08 -0.466,3.933 -1.4,5.56 -0.906,1.6 -2.173,2.867 -3.8,3.8 -1.626,0.907 -3.466,1.36 -5.52,1.36 z m 0,-2.52 c 1.52,0 2.867,-0.333 4.04,-1 1.174,-0.693 2.094,-1.653 2.76,-2.88 0.694,-1.253 1.04,-2.693 1.04,-4.32 0,-1.653 -0.346,-3.093 -1.04,-4.32 -0.666,-1.227 -1.586,-2.173 -2.76,-2.84 -1.173,-0.693 -2.506,-1.04 -4,-1.04 -1.493,0 -2.826,0.347 -4,1.04 -1.173,0.667 -2.106,1.613 -2.8,2.84 -0.693,1.227 -1.04,2.667 -1.04,4.32 0,1.627 0.347,3.067 1.04,4.32 0.694,1.227 1.627,2.187 2.8,2.88 1.174,0.667 2.494,1 3.96,1 z M 235,588.8 c 1.707,0 3.2,0.333 4.48,1 1.307,0.64 2.32,1.627 3.04,2.96 0.747,1.333 1.12,3.013 1.12,5.04 V 610 h -2.84 v -11.92 c 0,-2.213 -0.56,-3.88 -1.68,-5 -1.093,-1.147 -2.64,-1.72 -4.64,-1.72 -1.493,0 -2.8,0.307 -3.92,0.92 -1.093,0.587 -1.946,1.453 -2.56,2.6 -0.586,1.12 -0.88,2.48 -0.88,4.08 V 610 h -2.84 V 589 H 227 v 5.76 l -0.44,-1.08 c 0.667,-1.52 1.734,-2.707 3.2,-3.56 1.467,-0.88 3.214,-1.32 5.24,-1.32 z m 24.672,21.4 c -2,0 -3.8,-0.453 -5.4,-1.36 -1.574,-0.907 -2.814,-2.16 -3.72,-3.76 -0.907,-1.6 -1.36,-3.467 -1.36,-5.6 0,-2.107 0.453,-3.96 1.36,-5.56 0.906,-1.627 2.146,-2.88 3.72,-3.76 1.6,-0.907 3.4,-1.36 5.4,-1.36 1.866,0 3.52,0.413 4.96,1.24 1.466,0.827 2.626,2.04 3.48,3.64 0.853,1.573 1.28,3.507 1.28,5.8 0,2.293 -0.44,4.24 -1.32,5.84 -0.854,1.573 -2.014,2.787 -3.48,3.64 -1.44,0.827 -3.08,1.24 -4.92,1.24 z m 0.2,-2.52 c 1.493,0 2.826,-0.333 4,-1 1.2,-0.693 2.133,-1.653 2.8,-2.88 0.693,-1.253 1.04,-2.693 1.04,-4.32 0,-1.627 -0.347,-3.053 -1.04,-4.28 -0.667,-1.227 -1.6,-2.187 -2.8,-2.88 -1.174,-0.693 -2.507,-1.04 -4,-1.04 -1.467,0 -2.787,0.347 -3.96,1.04 -1.174,0.693 -2.107,1.653 -2.8,2.88 -0.694,1.227 -1.04,2.653 -1.04,4.28 0,1.627 0.346,3.067 1.04,4.32 0.693,1.227 1.626,2.187 2.8,2.88 1.173,0.667 2.493,1 3.96,1 z m 7.8,10.08 v -14 l 0.4,-4.24 -0.28,-4.2 V 589 h 2.72 v 28.76 z m 19.429,-7.56 c -1.787,0 -3.347,-0.333 -4.68,-1 -1.333,-0.667 -2.373,-1.667 -3.12,-3 -0.72,-1.333 -1.08,-3 -1.08,-5 V 589 h 2.84 v 11.88 c 0,2.24 0.547,3.933 1.64,5.08 1.12,1.12 2.68,1.68 4.68,1.68 1.467,0 2.733,-0.293 3.8,-0.88 1.093,-0.613 1.92,-1.493 2.48,-2.64 0.587,-1.147 0.88,-2.52 0.88,-4.12 v -11 h 2.84 v 21 h -2.72 v -5.76 l 0.44,1.04 c -0.667,1.547 -1.707,2.76 -3.12,3.64 -1.387,0.853 -3.013,1.28 -4.88,1.28 z m 27.115,0 c -2.187,0 -4.107,-0.453 -5.76,-1.36 -1.653,-0.933 -2.947,-2.2 -3.88,-3.8 -0.933,-1.627 -1.4,-3.48 -1.4,-5.56 0,-2.08 0.44,-3.92 1.32,-5.52 0.907,-1.6 2.133,-2.853 3.68,-3.76 1.573,-0.933 3.333,-1.4 5.28,-1.4 1.973,0 3.72,0.453 5.24,1.36 1.547,0.88 2.76,2.133 3.64,3.76 0.88,1.6 1.32,3.453 1.32,5.56 0,0.133 -0.013,0.28 -0.04,0.44 0,0.133 0,0.28 0,0.44 h -18.28 v -2.12 h 16.76 l -1.12,0.84 c 0,-1.52 -0.333,-2.867 -1,-4.04 -0.64,-1.2 -1.52,-2.133 -2.64,-2.8 -1.12,-0.667 -2.413,-1 -3.88,-1 -1.44,0 -2.733,0.333 -3.88,1 -1.147,0.667 -2.04,1.6 -2.68,2.8 -0.64,1.2 -0.96,2.573 -0.96,4.12 v 0.44 c 0,1.6 0.347,3.013 1.04,4.24 0.72,1.2 1.707,2.147 2.96,2.84 1.28,0.667 2.733,1 4.36,1 1.28,0 2.467,-0.227 3.56,-0.68 1.12,-0.453 2.08,-1.147 2.88,-2.08 l 1.6,1.84 c -0.933,1.12 -2.107,1.973 -3.52,2.56 -1.387,0.587 -2.92,0.88 -4.6,0.88 z m 15.221,-0.2 v -21 h 2.72 v 5.72 l -0.28,-1 c 0.586,-1.6 1.573,-2.813 2.96,-3.64 1.386,-0.853 3.106,-1.28 5.16,-1.28 v 2.76 c -0.107,0 -0.214,0 -0.32,0 -0.107,-0.027 -0.214,-0.04 -0.32,-0.04 -2.214,0 -3.947,0.68 -5.2,2.04 -1.254,1.333 -1.88,3.24 -1.88,5.72 V 610 Z m 33.163,0.2 c -1.973,0 -3.493,-0.533 -4.56,-1.6 -1.067,-1.067 -1.6,-2.573 -1.6,-4.52 v -19.72 h 2.84 v 19.56 c 0,1.227 0.307,2.173 0.92,2.84 0.64,0.667 1.547,1 2.72,1 1.253,0 2.293,-0.36 3.12,-1.08 l 1,2.04 c -0.56,0.507 -1.24,0.88 -2.04,1.12 -0.773,0.24 -1.573,0.36 -2.4,0.36 z m -9.92,-18.84 V 589 h 13 v 2.36 z m 30.25,-2.56 c 1.707,0 3.2,0.333 4.48,1 1.307,0.64 2.32,1.627 3.04,2.96 0.747,1.333 1.12,3.013 1.12,5.04 V 610 h -2.84 v -11.92 c 0,-2.213 -0.56,-3.88 -1.68,-5 -1.093,-1.147 -2.64,-1.72 -4.64,-1.72 -1.493,0 -2.8,0.307 -3.92,0.92 -1.093,0.587 -1.947,1.453 -2.56,2.6 -0.587,1.12 -0.88,2.48 -0.88,4.08 V 610 h -2.84 v -29.68 h 2.84 v 14.44 l -0.56,-1.08 c 0.667,-1.52 1.733,-2.707 3.2,-3.56 1.467,-0.88 3.213,-1.32 5.24,-1.32 z m 25.231,21.4 c -2.186,0 -4.106,-0.453 -5.76,-1.36 -1.653,-0.933 -2.946,-2.2 -3.88,-3.8 -0.933,-1.627 -1.4,-3.48 -1.4,-5.56 0,-2.08 0.44,-3.92 1.32,-5.52 0.907,-1.6 2.134,-2.853 3.68,-3.76 1.574,-0.933 3.334,-1.4 5.28,-1.4 1.974,0 3.72,0.453 5.24,1.36 1.547,0.88 2.76,2.133 3.64,3.76 0.88,1.6 1.32,3.453 1.32,5.56 0,0.133 -0.013,0.28 -0.04,0.44 0,0.133 0,0.28 0,0.44 h -18.28 v -2.12 h 16.76 l -1.12,0.84 c 0,-1.52 -0.333,-2.867 -1,-4.04 -0.64,-1.2 -1.52,-2.133 -2.64,-2.8 -1.12,-0.667 -2.413,-1 -3.88,-1 -1.44,0 -2.733,0.333 -3.88,1 -1.146,0.667 -2.04,1.6 -2.68,2.8 -0.64,1.2 -0.96,2.573 -0.96,4.12 v 0.44 c 0,1.6 0.347,3.013 1.04,4.24 0.72,1.2 1.707,2.147 2.96,2.84 1.28,0.667 2.734,1 4.36,1 1.28,0 2.467,-0.227 3.56,-0.68 1.12,-0.453 2.08,-1.147 2.88,-2.08 l 1.6,1.84 c -0.933,1.12 -2.106,1.973 -3.52,2.56 -1.386,0.587 -2.92,0.88 -4.6,0.88 z m 34.65,7.76 c -1.92,0 -3.76,-0.28 -5.52,-0.84 -1.76,-0.56 -3.187,-1.36 -4.28,-2.4 l 1.44,-2.16 c 0.986,0.88 2.2,1.573 3.64,2.08 1.466,0.533 3.013,0.8 4.64,0.8 2.666,0 4.626,-0.627 5.88,-1.88 1.253,-1.227 1.88,-3.147 1.88,-5.76 v -5.24 l 0.4,-3.6 -0.28,-3.6 V 589 h 2.72 v 18.44 c 0,3.627 -0.894,6.28 -2.68,7.96 -1.76,1.707 -4.374,2.56 -7.84,2.56 z m -0.52,-8.76 c -2,0 -3.8,-0.427 -5.4,-1.28 -1.6,-0.88 -2.867,-2.093 -3.8,-3.64 -0.907,-1.547 -1.36,-3.32 -1.36,-5.32 0,-2 0.453,-3.76 1.36,-5.28 0.933,-1.547 2.2,-2.747 3.8,-3.6 1.6,-0.853 3.4,-1.28 5.4,-1.28 1.866,0 3.546,0.387 5.04,1.16 1.493,0.773 2.68,1.92 3.56,3.44 0.88,1.52 1.32,3.373 1.32,5.56 0,2.187 -0.44,4.04 -1.32,5.56 -0.88,1.52 -2.067,2.68 -3.56,3.48 -1.494,0.8 -3.174,1.2 -5.04,1.2 z m 0.28,-2.52 c 1.546,0 2.92,-0.32 4.12,-0.96 1.2,-0.667 2.146,-1.573 2.84,-2.72 0.693,-1.173 1.04,-2.52 1.04,-4.04 0,-1.52 -0.347,-2.853 -1.04,-4 -0.694,-1.147 -1.64,-2.04 -2.84,-2.68 -1.2,-0.667 -2.574,-1 -4.12,-1 -1.52,0 -2.894,0.333 -4.12,1 -1.2,0.64 -2.147,1.533 -2.84,2.68 -0.667,1.147 -1,2.48 -1,4 0,1.52 0.333,2.867 1,4.04 0.693,1.147 1.64,2.053 2.84,2.72 1.226,0.64 2.6,0.96 4.12,0.96 z m 18.662,3.32 v -29.68 h 2.84 V 610 Z m 19.303,0.2 c -2.027,0 -3.854,-0.453 -5.48,-1.36 -1.6,-0.933 -2.867,-2.2 -3.8,-3.8 -0.934,-1.627 -1.4,-3.48 -1.4,-5.56 0,-2.107 0.466,-3.96 1.4,-5.56 0.933,-1.6 2.2,-2.853 3.8,-3.76 1.6,-0.907 3.426,-1.36 5.48,-1.36 2.08,0 3.92,0.453 5.52,1.36 1.626,0.907 2.893,2.16 3.8,3.76 0.933,1.6 1.4,3.453 1.4,5.56 0,2.08 -0.467,3.933 -1.4,5.56 -0.907,1.6 -2.174,2.867 -3.8,3.8 -1.627,0.907 -3.467,1.36 -5.52,1.36 z m 0,-2.52 c 1.52,0 2.866,-0.333 4.04,-1 1.173,-0.693 2.093,-1.653 2.76,-2.88 0.693,-1.253 1.04,-2.693 1.04,-4.32 0,-1.653 -0.347,-3.093 -1.04,-4.32 -0.667,-1.227 -1.587,-2.173 -2.76,-2.84 -1.174,-0.693 -2.507,-1.04 -4,-1.04 -1.494,0 -2.827,0.347 -4,1.04 -1.174,0.667 -2.107,1.613 -2.8,2.84 -0.694,1.227 -1.04,2.667 -1.04,4.32 0,1.627 0.346,3.067 1.04,4.32 0.693,1.227 1.626,2.187 2.8,2.88 1.173,0.667 2.493,1 3.96,1 z m 27.358,2.52 c -1.84,0 -3.494,-0.413 -4.96,-1.24 -1.467,-0.853 -2.627,-2.08 -3.48,-3.68 -0.854,-1.6 -1.28,-3.533 -1.28,-5.8 0,-2.293 0.426,-4.227 1.28,-5.8 0.88,-1.6 2.053,-2.813 3.52,-3.64 1.466,-0.827 3.106,-1.24 4.92,-1.24 2,0 3.786,0.453 5.36,1.36 1.6,0.88 2.853,2.12 3.76,3.72 0.906,1.6 1.36,3.467 1.36,5.6 0,2.107 -0.454,3.973 -1.36,5.6 -0.907,1.6 -2.16,2.853 -3.76,3.76 -1.574,0.907 -3.36,1.36 -5.36,1.36 z m -10.84,-0.2 v -29.68 h 2.84 v 14.88 l -0.4,4.24 0.28,4.24 V 610 Z m 10.64,-2.32 c 1.493,0 2.826,-0.333 4,-1 1.173,-0.693 2.106,-1.653 2.8,-2.88 0.693,-1.253 1.04,-2.693 1.04,-4.32 0,-1.653 -0.347,-3.093 -1.04,-4.32 -0.694,-1.227 -1.627,-2.173 -2.8,-2.84 -1.174,-0.693 -2.507,-1.04 -4,-1.04 -1.494,0 -2.84,0.347 -4.04,1.04 -1.174,0.667 -2.107,1.613 -2.8,2.84 -0.667,1.227 -1,2.667 -1,4.32 0,1.627 0.333,3.067 1,4.32 0.693,1.227 1.626,2.187 2.8,2.88 1.2,0.667 2.546,1 4.04,1 z m 29.512,2.32 v -4.64 l -0.12,-0.76 v -7.76 c 0,-1.787 -0.507,-3.16 -1.52,-4.12 -0.987,-0.96 -2.467,-1.44 -4.44,-1.44 -1.36,0 -2.653,0.227 -3.88,0.68 -1.227,0.453 -2.267,1.053 -3.12,1.8 l -1.28,-2.12 c 1.067,-0.907 2.347,-1.6 3.84,-2.08 1.493,-0.507 3.067,-0.76 4.72,-0.76 2.72,0 4.813,0.68 6.28,2.04 1.493,1.333 2.24,3.373 2.24,6.12 V 610 Z m -7.24,0.2 c -1.573,0 -2.947,-0.253 -4.12,-0.76 -1.147,-0.533 -2.027,-1.253 -2.64,-2.16 -0.613,-0.933 -0.92,-2 -0.92,-3.2 0,-1.093 0.253,-2.08 0.76,-2.96 0.533,-0.907 1.387,-1.627 2.56,-2.16 1.2,-0.56 2.8,-0.84 4.8,-0.84 h 7.24 v 2.12 h -7.16 c -2.027,0 -3.44,0.36 -4.24,1.08 -0.773,0.72 -1.16,1.613 -1.16,2.68 0,1.2 0.467,2.16 1.4,2.88 0.933,0.72 2.24,1.08 3.92,1.08 1.6,0 2.973,-0.36 4.12,-1.08 1.173,-0.747 2.027,-1.813 2.56,-3.2 l 0.64,1.96 c -0.533,1.387 -1.467,2.493 -2.8,3.32 -1.307,0.827 -2.96,1.24 -4.96,1.24 z M 547.64,610 v -29.68 h 2.84 V 610 Z m 47.451,-21.2 c 1.706,0 3.186,0.333 4.44,1 1.28,0.64 2.266,1.627 2.96,2.96 0.72,1.333 1.08,3.013 1.08,5.04 V 610 h -2.84 v -11.92 c 0,-2.213 -0.534,-3.88 -1.6,-5 -1.04,-1.147 -2.52,-1.72 -4.44,-1.72 -1.44,0 -2.694,0.307 -3.76,0.92 -1.04,0.587 -1.854,1.453 -2.44,2.6 -0.56,1.12 -0.84,2.48 -0.84,4.08 V 610 h -2.84 v -11.92 c 0,-2.213 -0.534,-3.88 -1.6,-5 -1.067,-1.147 -2.56,-1.72 -4.48,-1.72 -1.414,0 -2.654,0.307 -3.72,0.92 -1.067,0.587 -1.894,1.453 -2.48,2.6 -0.56,1.12 -0.84,2.48 -0.84,4.08 V 610 h -2.84 v -21 h 2.72 v 5.68 l -0.44,-1 c 0.64,-1.52 1.666,-2.707 3.08,-3.56 1.44,-0.88 3.133,-1.32 5.08,-1.32 2.053,0 3.8,0.52 5.24,1.56 1.44,1.013 2.373,2.547 2.8,4.6 l -1.12,-0.44 c 0.613,-1.707 1.693,-3.08 3.24,-4.12 1.573,-1.067 3.453,-1.6 5.64,-1.6 z m 29.342,21.2 v -4.64 l -0.12,-0.76 v -7.76 c 0,-1.787 -0.507,-3.16 -1.52,-4.12 -0.987,-0.96 -2.467,-1.44 -4.44,-1.44 -1.36,0 -2.654,0.227 -3.88,0.68 -1.227,0.453 -2.267,1.053 -3.12,1.8 l -1.28,-2.12 c 1.066,-0.907 2.346,-1.6 3.84,-2.08 1.493,-0.507 3.066,-0.76 4.72,-0.76 2.72,0 4.813,0.68 6.28,2.04 1.493,1.333 2.24,3.373 2.24,6.12 V 610 Z m -7.24,0.2 c -1.574,0 -2.947,-0.253 -4.12,-0.76 -1.147,-0.533 -2.027,-1.253 -2.64,-2.16 -0.614,-0.933 -0.92,-2 -0.92,-3.2 0,-1.093 0.253,-2.08 0.76,-2.96 0.533,-0.907 1.386,-1.627 2.56,-2.16 1.2,-0.56 2.8,-0.84 4.8,-0.84 h 7.24 v 2.12 h -7.16 c -2.027,0 -3.44,0.36 -4.24,1.08 -0.774,0.72 -1.161,1.613 -1.161,2.68 0,1.2 0.467,2.16 1.401,2.88 0.933,0.72 2.24,1.08 3.92,1.08 1.6,0 2.973,-0.36 4.12,-1.08 1.173,-0.747 2.026,-1.813 2.56,-3.2 l 0.64,1.96 c -0.534,1.387 -1.467,2.493 -2.8,3.32 -1.307,0.827 -2.96,1.24 -4.96,1.24 z m 17.673,-0.2 v -21 h 2.72 v 5.72 l -0.28,-1 c 0.587,-1.6 1.574,-2.813 2.96,-3.64 1.387,-0.853 3.107,-1.28 5.16,-1.28 v 2.76 c -0.106,0 -0.213,0 -0.32,0 -0.106,-0.027 -0.213,-0.04 -0.32,-0.04 -2.213,0 -3.946,0.68 -5.2,2.04 -1.253,1.333 -1.88,3.24 -1.88,5.72 V 610 Z m 17.982,-5.44 0.08,-3.64 13.08,-11.92 h 3.48 l -9.24,8.84 -1.6,1.36 z m -2.24,5.44 v -29.68 h 2.84 V 610 Z m 16.28,0 -8.76,-10.92 1.84,-2.2 10.4,13.12 z m 15.844,0.2 c -2.187,0 -4.107,-0.453 -5.76,-1.36 -1.654,-0.933 -2.947,-2.2 -3.88,-3.8 -0.934,-1.627 -1.4,-3.48 -1.4,-5.56 0,-2.08 0.44,-3.92 1.32,-5.52 0.906,-1.6 2.133,-2.853 3.68,-3.76 1.573,-0.933 3.333,-1.4 5.28,-1.4 1.973,0 3.72,0.453 5.24,1.36 1.546,0.88 2.76,2.133 3.64,3.76 0.88,1.6 1.32,3.453 1.32,5.56 0,0.133 -0.014,0.28 -0.04,0.44 0,0.133 0,0.28 0,0.44 h -18.28 v -2.12 h 16.76 l -1.12,0.84 c 0,-1.52 -0.334,-2.867 -1,-4.04 -0.64,-1.2 -1.52,-2.133 -2.64,-2.8 -1.12,-0.667 -2.414,-1 -3.88,-1 -1.44,0 -2.734,0.333 -3.88,1 -1.147,0.667 -2.04,1.6 -2.68,2.8 -0.64,1.2 -0.96,2.573 -0.96,4.12 v 0.44 c 0,1.6 0.346,3.013 1.04,4.24 0.72,1.2 1.706,2.147 2.96,2.84 1.28,0.667 2.733,1 4.36,1 1.28,0 2.466,-0.227 3.56,-0.68 1.12,-0.453 2.08,-1.147 2.88,-2.08 l 1.6,1.84 c -0.934,1.12 -2.107,1.973 -3.52,2.56 -1.387,0.587 -2.92,0.88 -4.6,0.88 z m 21.86,0 c -1.973,0 -3.493,-0.533 -4.56,-1.6 -1.066,-1.067 -1.6,-2.573 -1.6,-4.52 v -19.72 h 2.84 v 19.56 c 0,1.227 0.307,2.173 0.92,2.84 0.64,0.667 1.547,1 2.72,1 1.254,0 2.294,-0.36 3.12,-1.08 l 1,2.04 c -0.56,0.507 -1.24,0.88 -2.04,1.12 -0.773,0.24 -1.573,0.36 -2.4,0.36 z m -9.92,-18.84 V 589 h 13 v 2.36 z"
     fill="#ffffff"
     id="path160" /><defs
     id="defs168" /></svg>
