<svg width="184" height="71" viewBox="0 0 184 71" fill="none" xmlns="http://www.w3.org/2000/svg">
<path d="M1.11 22V19.96L9.66 11.71C10.42 10.99 10.98 10.36 11.34 9.82C11.72 9.26 11.97 8.75 12.09 8.29C12.23 7.81 12.3 7.35 12.3 6.91C12.3 5.83 11.92 4.98 11.16 4.36C10.4 3.74 9.29 3.43 7.83 3.43C6.71 3.43 5.7 3.62 4.8 4C3.9 4.36 3.12 4.93 2.46 5.71L0.42 3.94C1.22 2.92 2.29 2.14 3.63 1.6C4.99 1.04 6.48 0.76 8.1 0.76C9.56 0.76 10.83 1 11.91 1.48C12.99 1.94 13.82 2.61 14.4 3.49C15 4.37 15.3 5.41 15.3 6.61C15.3 7.29 15.21 7.96 15.03 8.62C14.85 9.28 14.51 9.98 14.01 10.72C13.51 11.46 12.79 12.29 11.85 13.21L4.23 20.56L3.51 19.39H16.2V22H1.11ZM27.2173 22.24C25.5773 22.24 24.1073 21.82 22.8073 20.98C21.5273 20.14 20.5073 18.92 19.7473 17.32C19.0073 15.72 18.6373 13.78 18.6373 11.5C18.6373 9.22 19.0073 7.28 19.7473 5.68C20.5073 4.08 21.5273 2.86 22.8073 2.02C24.1073 1.18 25.5773 0.76 27.2173 0.76C28.8373 0.76 30.2973 1.18 31.5973 2.02C32.8973 2.86 33.9173 4.08 34.6573 5.68C35.3973 7.28 35.7673 9.22 35.7673 11.5C35.7673 13.78 35.3973 15.72 34.6573 17.32C33.9173 18.92 32.8973 20.14 31.5973 20.98C30.2973 21.82 28.8373 22.24 27.2173 22.24ZM27.2173 19.57C28.3173 19.57 29.2773 19.27 30.0973 18.67C30.9373 18.07 31.5873 17.17 32.0473 15.97C32.5273 14.77 32.7673 13.28 32.7673 11.5C32.7673 9.72 32.5273 8.23 32.0473 7.03C31.5873 5.83 30.9373 4.93 30.0973 4.33C29.2773 3.73 28.3173 3.43 27.2173 3.43C26.1173 3.43 25.1473 3.73 24.3073 4.33C23.4673 4.93 22.8073 5.83 22.3273 7.03C21.8673 8.23 21.6373 9.72 21.6373 11.5C21.6373 13.28 21.8673 14.77 22.3273 15.97C22.8073 17.17 23.4673 18.07 24.3073 18.67C25.1473 19.27 26.1173 19.57 27.2173 19.57ZM38.317 22V19.96L46.867 11.71C47.627 10.99 48.187 10.36 48.547 9.82C48.927 9.26 49.177 8.75 49.297 8.29C49.437 7.81 49.507 7.35 49.507 6.91C49.507 5.83 49.127 4.98 48.367 4.36C47.607 3.74 46.497 3.43 45.037 3.43C43.917 3.43 42.907 3.62 42.007 4C41.107 4.36 40.327 4.93 39.667 5.71L37.627 3.94C38.427 2.92 39.497 2.14 40.837 1.6C42.197 1.04 43.687 0.76 45.307 0.76C46.767 0.76 48.037 1 49.117 1.48C50.197 1.94 51.027 2.61 51.607 3.49C52.207 4.37 52.507 5.41 52.507 6.61C52.507 7.29 52.417 7.96 52.237 8.62C52.057 9.28 51.717 9.98 51.217 10.72C50.717 11.46 49.997 12.29 49.057 13.21L41.437 20.56L40.717 19.39H53.407V22H38.317ZM62.2936 22.24C60.8136 22.24 59.3736 22.01 57.9736 21.55C56.5936 21.09 55.4636 20.47 54.5836 19.69L55.9636 17.32C56.6636 17.98 57.5736 18.52 58.6936 18.94C59.8136 19.36 61.0136 19.57 62.2936 19.57C63.8536 19.57 65.0636 19.24 65.9236 18.58C66.8036 17.9 67.2436 16.99 67.2436 15.85C67.2436 14.75 66.8236 13.87 65.9836 13.21C65.1636 12.53 63.8536 12.19 62.0536 12.19H60.3736V10.09L66.6136 2.41L67.0336 3.61H55.5436V0.999999H69.4036V3.04L63.1936 10.69L61.6336 9.76H62.6236C65.1636 9.76 67.0636 10.33 68.3236 11.47C69.6036 12.61 70.2436 14.06 70.2436 15.82C70.2436 17 69.9536 18.08 69.3736 19.06C68.7936 20.04 67.9136 20.82 66.7336 21.4C65.5736 21.96 64.0936 22.24 62.2936 22.24ZM85.5382 10.06H96.3382V12.61H85.5382V10.06ZM85.8082 19.39H98.0482V22H82.8082V0.999999H97.6282V3.61H85.8082V19.39ZM102.906 22V0.999999H105.366L114.786 16.87H113.466L122.766 0.999999H125.226L125.256 22H122.376L122.346 5.53H123.036L114.756 19.45H113.376L105.036 5.53H105.786V22H102.906ZM134.258 10.93H145.088V13.51H134.258V10.93ZM134.558 22H131.558V0.999999H146.378V3.61H134.558V22ZM3.15 65V44H11.34C13.18 44 14.75 44.29 16.05 44.87C17.35 45.45 18.35 46.29 19.05 47.39C19.75 48.49 20.1 49.8 20.1 51.32C20.1 52.84 19.75 54.15 19.05 55.25C18.35 56.33 17.35 57.17 16.05 57.77C14.75 58.35 13.18 58.64 11.34 58.64H4.8L6.15 57.23V65H3.15ZM6.15 57.53L4.8 56.03H11.25C13.17 56.03 14.62 55.62 15.6 54.8C16.6 53.98 17.1 52.82 17.1 51.32C17.1 49.82 16.6 48.66 15.6 47.84C14.62 47.02 13.17 46.61 11.25 46.61H4.8L6.15 45.11V57.53ZM33.8109 65V61.64L33.6609 61.01V55.28C33.6609 54.06 33.3009 53.12 32.5809 52.46C31.8809 51.78 30.8209 51.44 29.4009 51.44C28.4609 51.44 27.5409 51.6 26.6409 51.92C25.7409 52.22 24.9809 52.63 24.3609 53.15L23.1609 50.99C23.9809 50.33 24.9609 49.83 26.1009 49.49C27.2609 49.13 28.4709 48.95 29.7309 48.95C31.9109 48.95 33.5909 49.48 34.7709 50.54C35.9509 51.6 36.5409 53.22 36.5409 55.4V65H33.8109ZM28.5909 65.18C27.4109 65.18 26.3709 64.98 25.4709 64.58C24.5909 64.18 23.9109 63.63 23.4309 62.93C22.9509 62.21 22.7109 61.4 22.7109 60.5C22.7109 59.64 22.9109 58.86 23.3109 58.16C23.7309 57.46 24.4009 56.9 25.3209 56.48C26.2609 56.06 27.5209 55.85 29.1009 55.85H34.1409V57.92H29.2209C27.7809 57.92 26.8109 58.16 26.3109 58.64C25.8109 59.12 25.5609 59.7 25.5609 60.38C25.5609 61.16 25.8709 61.79 26.4909 62.27C27.1109 62.73 27.9709 62.96 29.0709 62.96C30.1509 62.96 31.0909 62.72 31.8909 62.24C32.7109 61.76 33.3009 61.06 33.6609 60.14L34.2309 62.12C33.8509 63.06 33.1809 63.81 32.2209 64.37C31.2609 64.91 30.0509 65.18 28.5909 65.18ZM41.8706 65V49.1H44.6306V53.42L44.3606 52.34C44.8006 51.24 45.5406 50.4 46.5806 49.82C47.6206 49.24 48.9006 48.95 50.4206 48.95V51.74C50.3006 51.72 50.1806 51.71 50.0606 51.71C49.9606 51.71 49.8606 51.71 49.7606 51.71C48.2206 51.71 47.0006 52.17 46.1006 53.09C45.2006 54.01 44.7506 55.34 44.7506 57.08V65H41.8706ZM60.0748 65.18C58.4748 65.18 57.2348 64.75 56.3548 63.89C55.4748 63.03 55.0348 61.8 55.0348 60.2V45.62H57.9148V60.08C57.9148 60.94 58.1248 61.6 58.5448 62.06C58.9848 62.52 59.6048 62.75 60.4048 62.75C61.3048 62.75 62.0548 62.5 62.6548 62L63.5548 64.07C63.1148 64.45 62.5848 64.73 61.9648 64.91C61.3648 65.09 60.7348 65.18 60.0748 65.18ZM52.3348 51.47V49.1H62.4748V51.47H52.3348ZM67.0366 65V49.1H69.9166V65H67.0366ZM68.4766 46.04C67.9166 46.04 67.4466 45.86 67.0666 45.5C66.7066 45.14 66.5266 44.7 66.5266 44.18C66.5266 43.64 66.7066 43.19 67.0666 42.83C67.4466 42.47 67.9166 42.29 68.4766 42.29C69.0366 42.29 69.4966 42.47 69.8566 42.83C70.2366 43.17 70.4266 43.6 70.4266 44.12C70.4266 44.66 70.2466 45.12 69.8866 45.5C69.5266 45.86 69.0566 46.04 68.4766 46.04ZM82.3455 65.18C80.7255 65.18 79.2755 64.83 77.9955 64.13C76.7355 63.43 75.7455 62.47 75.0255 61.25C74.3055 60.03 73.9455 58.63 73.9455 57.05C73.9455 55.47 74.3055 54.07 75.0255 52.85C75.7455 51.63 76.7355 50.68 77.9955 50C79.2755 49.3 80.7255 48.95 82.3455 48.95C83.7855 48.95 85.0655 49.24 86.1855 49.82C87.3255 50.38 88.2055 51.22 88.8255 52.34L86.6355 53.75C86.1155 52.97 85.4755 52.4 84.7155 52.04C83.9755 51.66 83.1755 51.47 82.3155 51.47C81.2755 51.47 80.3455 51.7 79.5255 52.16C78.7055 52.62 78.0555 53.27 77.5755 54.11C77.0955 54.93 76.8555 55.91 76.8555 57.05C76.8555 58.19 77.0955 59.18 77.5755 60.02C78.0555 60.86 78.7055 61.51 79.5255 61.97C80.3455 62.43 81.2755 62.66 82.3155 62.66C83.1755 62.66 83.9755 62.48 84.7155 62.12C85.4755 61.74 86.1155 61.16 86.6355 60.38L88.8255 61.76C88.2055 62.86 87.3255 63.71 86.1855 64.31C85.0655 64.89 83.7855 65.18 82.3455 65.18ZM92.3491 65V49.1H95.2291V65H92.3491ZM93.7891 46.04C93.2291 46.04 92.7591 45.86 92.3791 45.5C92.0191 45.14 91.8391 44.7 91.8391 44.18C91.8391 43.64 92.0191 43.19 92.3791 42.83C92.7591 42.47 93.2291 42.29 93.7891 42.29C94.3491 42.29 94.8091 42.47 95.1691 42.83C95.5491 43.17 95.7391 43.6 95.7391 44.12C95.7391 44.66 95.5591 45.12 95.1991 45.5C94.8391 45.86 94.3691 46.04 93.7891 46.04ZM109.158 65.18C107.838 65.18 106.628 64.88 105.528 64.28C104.448 63.66 103.578 62.75 102.918 61.55C102.278 60.35 101.958 58.85 101.958 57.05C101.958 55.25 102.268 53.75 102.888 52.55C103.528 51.35 104.388 50.45 105.468 49.85C106.568 49.25 107.798 48.95 109.158 48.95C110.718 48.95 112.098 49.29 113.298 49.97C114.498 50.65 115.448 51.6 116.148 52.82C116.848 54.02 117.198 55.43 117.198 57.05C117.198 58.67 116.848 60.09 116.148 61.31C115.448 62.53 114.498 63.48 113.298 64.16C112.098 64.84 110.718 65.18 109.158 65.18ZM100.728 70.82V49.1H103.488V53.39L103.308 57.08L103.608 60.77V70.82H100.728ZM108.918 62.66C109.938 62.66 110.848 62.43 111.648 61.97C112.468 61.51 113.108 60.86 113.568 60.02C114.048 59.16 114.288 58.17 114.288 57.05C114.288 55.91 114.048 54.93 113.568 54.11C113.108 53.27 112.468 52.62 111.648 52.16C110.848 51.7 109.938 51.47 108.918 51.47C107.918 51.47 107.008 51.7 106.188 52.16C105.388 52.62 104.748 53.27 104.268 54.11C103.808 54.93 103.578 55.91 103.578 57.05C103.578 58.17 103.808 59.16 104.268 60.02C104.748 60.86 105.388 61.51 106.188 61.97C107.008 62.43 107.918 62.66 108.918 62.66ZM130.901 65V61.64L130.751 61.01V55.28C130.751 54.06 130.391 53.12 129.671 52.46C128.971 51.78 127.911 51.44 126.491 51.44C125.551 51.44 124.631 51.6 123.731 51.92C122.831 52.22 122.071 52.63 121.451 53.15L120.251 50.99C121.071 50.33 122.051 49.83 123.191 49.49C124.351 49.13 125.561 48.95 126.821 48.95C129.001 48.95 130.681 49.48 131.861 50.54C133.041 51.6 133.631 53.22 133.631 55.4V65H130.901ZM125.681 65.18C124.501 65.18 123.461 64.98 122.561 64.58C121.681 64.18 121.001 63.63 120.521 62.93C120.041 62.21 119.801 61.4 119.801 60.5C119.801 59.64 120.001 58.86 120.401 58.16C120.821 57.46 121.491 56.9 122.411 56.48C123.351 56.06 124.611 55.85 126.191 55.85H131.231V57.92H126.311C124.871 57.92 123.901 58.16 123.401 58.64C122.901 59.12 122.651 59.7 122.651 60.38C122.651 61.16 122.961 61.79 123.581 62.27C124.201 62.73 125.061 62.96 126.161 62.96C127.241 62.96 128.181 62.72 128.981 62.24C129.801 61.76 130.391 61.06 130.751 60.14L131.321 62.12C130.941 63.06 130.271 63.81 129.311 64.37C128.351 64.91 127.141 65.18 125.681 65.18ZM147.45 48.95C148.75 48.95 149.89 49.2 150.87 49.7C151.87 50.2 152.65 50.96 153.21 51.98C153.77 53 154.05 54.29 154.05 55.85V65H151.17V56.18C151.17 54.64 150.79 53.48 150.03 52.7C149.29 51.92 148.24 51.53 146.88 51.53C145.86 51.53 144.97 51.73 144.21 52.13C143.45 52.53 142.86 53.12 142.44 53.9C142.04 54.68 141.84 55.65 141.84 56.81V65H138.96V49.1H141.72V53.39L141.27 52.25C141.79 51.21 142.59 50.4 143.67 49.82C144.75 49.24 146.01 48.95 147.45 48.95ZM164.84 65.18C163.24 65.18 162 64.75 161.12 63.89C160.24 63.03 159.8 61.8 159.8 60.2V45.62H162.68V60.08C162.68 60.94 162.89 61.6 163.31 62.06C163.75 62.52 164.37 62.75 165.17 62.75C166.07 62.75 166.82 62.5 167.42 62L168.32 64.07C167.88 64.45 167.35 64.73 166.73 64.91C166.13 65.09 165.5 65.18 164.84 65.18ZM157.1 51.47V49.1H167.24V51.47H157.1ZM176.362 65.18C175.042 65.18 173.782 65 172.582 64.64C171.402 64.28 170.472 63.84 169.792 63.32L170.992 61.04C171.672 61.5 172.512 61.89 173.512 62.21C174.512 62.53 175.532 62.69 176.572 62.69C177.912 62.69 178.872 62.5 179.452 62.12C180.052 61.74 180.352 61.21 180.352 60.53C180.352 60.03 180.172 59.64 179.812 59.36C179.452 59.08 178.972 58.87 178.372 58.73C177.792 58.59 177.142 58.47 176.422 58.37C175.702 58.25 174.982 58.11 174.262 57.95C173.542 57.77 172.882 57.53 172.282 57.23C171.682 56.91 171.202 56.48 170.842 55.94C170.482 55.38 170.302 54.64 170.302 53.72C170.302 52.76 170.572 51.92 171.112 51.2C171.652 50.48 172.412 49.93 173.392 49.55C174.392 49.15 175.572 48.95 176.932 48.95C177.972 48.95 179.022 49.08 180.082 49.34C181.162 49.58 182.042 49.93 182.722 50.39L181.492 52.67C180.772 52.19 180.022 51.86 179.242 51.68C178.462 51.5 177.682 51.41 176.902 51.41C175.642 51.41 174.702 51.62 174.082 52.04C173.462 52.44 173.152 52.96 173.152 53.6C173.152 54.14 173.332 54.56 173.692 54.86C174.072 55.14 174.552 55.36 175.132 55.52C175.732 55.68 176.392 55.82 177.112 55.94C177.832 56.04 178.552 56.18 179.272 56.36C179.992 56.52 180.642 56.75 181.222 57.05C181.822 57.35 182.302 57.77 182.662 58.31C183.042 58.85 183.232 59.57 183.232 60.47C183.232 61.43 182.952 62.26 182.392 62.96C181.832 63.66 181.042 64.21 180.022 64.61C179.002 64.99 177.782 65.18 176.362 65.18Z" fill="white"/>
</svg>
