<svg width="137" height="19" viewBox="0 0 137 19" fill="none" xmlns="http://www.w3.org/2000/svg">
<path d="M0.625 18V0.499999H3.125V15.825H12.6V18H0.625ZM20.0979 18.15C18.6812 18.15 17.4312 17.8583 16.3479 17.275C15.2812 16.6917 14.4479 15.8917 13.8479 14.875C13.2645 13.8583 12.9729 12.6917 12.9729 11.375C12.9729 10.0583 13.2562 8.89167 13.8229 7.875C14.4062 6.85833 15.1979 6.06667 16.1979 5.5C17.2145 4.91667 18.3562 4.625 19.6229 4.625C20.9062 4.625 22.0395 4.90833 23.0229 5.475C24.0062 6.04167 24.7729 6.84167 25.3229 7.875C25.8895 8.89167 26.1729 10.0833 26.1729 11.45C26.1729 11.55 26.1645 11.6667 26.1479 11.8C26.1479 11.9333 26.1395 12.0583 26.1229 12.175H14.8479V10.45H24.8729L23.8979 11.05C23.9145 10.2 23.7395 9.44167 23.3729 8.775C23.0062 8.10833 22.4979 7.59167 21.8479 7.225C21.2145 6.84167 20.4729 6.65 19.6229 6.65C18.7895 6.65 18.0479 6.84167 17.3979 7.225C16.7479 7.59167 16.2395 8.11667 15.8729 8.8C15.5062 9.46667 15.3229 10.2333 15.3229 11.1V11.5C15.3229 12.3833 15.5229 13.175 15.9229 13.875C16.3395 14.5583 16.9145 15.0917 17.6479 15.475C18.3812 15.8583 19.2229 16.05 20.1729 16.05C20.9562 16.05 21.6645 15.9167 22.2979 15.65C22.9479 15.3833 23.5145 14.9833 23.9979 14.45L25.3229 16C24.7229 16.7 23.9729 17.2333 23.0729 17.6C22.1895 17.9667 21.1979 18.15 20.0979 18.15ZM36.6143 18V15.2L36.4893 14.675V9.9C36.4893 8.88333 36.1893 8.1 35.5893 7.55C35.0059 6.98333 34.1226 6.7 32.9393 6.7C32.1559 6.7 31.3893 6.83333 30.6393 7.1C29.8893 7.35 29.2559 7.69167 28.7393 8.125L27.7393 6.325C28.4226 5.775 29.2393 5.35833 30.1893 5.075C31.1559 4.775 32.1643 4.625 33.2143 4.625C35.0309 4.625 36.4309 5.06667 37.4143 5.95C38.3976 6.83333 38.8893 8.18333 38.8893 10V18H36.6143ZM32.2643 18.15C31.2809 18.15 30.4143 17.9833 29.6643 17.65C28.9309 17.3167 28.3643 16.8583 27.9643 16.275C27.5643 15.675 27.3643 15 27.3643 14.25C27.3643 13.5333 27.5309 12.8833 27.8643 12.3C28.2143 11.7167 28.7726 11.25 29.5393 10.9C30.3226 10.55 31.3726 10.375 32.6893 10.375H36.8893V12.1H32.7893C31.5893 12.1 30.7809 12.3 30.3643 12.7C29.9476 13.1 29.7393 13.5833 29.7393 14.15C29.7393 14.8 29.9976 15.325 30.5143 15.725C31.0309 16.1083 31.7476 16.3 32.6643 16.3C33.5643 16.3 34.3476 16.1 35.0143 15.7C35.6976 15.3 36.1893 14.7167 36.4893 13.95L36.9643 15.6C36.6476 16.3833 36.0893 17.0083 35.2893 17.475C34.4893 17.925 33.4809 18.15 32.2643 18.15ZM42.5807 18V4.75H44.8807V8.35L44.6557 7.45C45.0223 6.53333 45.639 5.83333 46.5057 5.35C47.3723 4.86667 48.439 4.625 49.7057 4.625V6.95C49.6057 6.93333 49.5057 6.925 49.4057 6.925C49.3223 6.925 49.239 6.925 49.1557 6.925C47.8723 6.925 46.8557 7.30833 46.1057 8.075C45.3557 8.84167 44.9807 9.95 44.9807 11.4V18H42.5807ZM58.9887 4.625C60.072 4.625 61.022 4.83333 61.8387 5.25C62.672 5.66667 63.322 6.3 63.7887 7.15C64.2553 8 64.4887 9.075 64.4887 10.375V18H62.0887V10.65C62.0887 9.36667 61.772 8.4 61.1387 7.75C60.522 7.1 59.647 6.775 58.5137 6.775C57.6637 6.775 56.922 6.94167 56.2887 7.275C55.6553 7.60833 55.1637 8.1 54.8137 8.75C54.4803 9.4 54.3137 10.2083 54.3137 11.175V18H51.9137V4.75H54.2137V8.325L53.8387 7.375C54.272 6.50833 54.9387 5.83333 55.8387 5.35C56.7387 4.86667 57.7887 4.625 58.9887 4.625ZM90.7191 4.625C91.7858 4.625 92.7275 4.83333 93.5441 5.25C94.3608 5.66667 94.9941 6.3 95.4441 7.15C95.9108 8 96.1441 9.075 96.1441 10.375V18H93.7441V10.65C93.7441 9.36667 93.4441 8.4 92.8441 7.75C92.2441 7.1 91.4025 6.775 90.3191 6.775C89.5191 6.775 88.8191 6.94167 88.2191 7.275C87.6191 7.60833 87.1525 8.1 86.8191 8.75C86.5025 9.4 86.3441 10.2083 86.3441 11.175V18H83.9441V10.65C83.9441 9.36667 83.6441 8.4 83.0441 7.75C82.4608 7.1 81.6191 6.775 80.5191 6.775C79.7358 6.775 79.0441 6.94167 78.4441 7.275C77.8441 7.60833 77.3775 8.1 77.0441 8.75C76.7108 9.4 76.5441 10.2083 76.5441 11.175V18H74.1441V4.75H76.4441V8.275L76.0691 7.375C76.4858 6.50833 77.1275 5.83333 77.9941 5.35C78.8608 4.86667 79.8691 4.625 81.0191 4.625C82.2858 4.625 83.3775 4.94167 84.2941 5.575C85.2108 6.19167 85.8108 7.13333 86.0941 8.4L85.1191 8C85.5191 6.98333 86.2191 6.16667 87.2191 5.55C88.2191 4.93333 89.3858 4.625 90.7191 4.625ZM105.485 18.15C104.152 18.15 102.968 17.8583 101.935 17.275C100.902 16.6917 100.085 15.8917 99.4852 14.875C98.8852 13.8417 98.5852 12.675 98.5852 11.375C98.5852 10.0583 98.8852 8.89167 99.4852 7.875C100.085 6.85833 100.902 6.06667 101.935 5.5C102.968 4.91667 104.152 4.625 105.485 4.625C106.802 4.625 107.977 4.91667 109.01 5.5C110.06 6.06667 110.877 6.85833 111.46 7.875C112.06 8.875 112.36 10.0417 112.36 11.375C112.36 12.6917 112.06 13.8583 111.46 14.875C110.877 15.8917 110.06 16.6917 109.01 17.275C107.977 17.8583 106.802 18.15 105.485 18.15ZM105.485 16.05C106.335 16.05 107.093 15.8583 107.76 15.475C108.443 15.0917 108.977 14.55 109.36 13.85C109.743 13.1333 109.935 12.3083 109.935 11.375C109.935 10.425 109.743 9.60833 109.36 8.925C108.977 8.225 108.443 7.68333 107.76 7.3C107.093 6.91667 106.335 6.725 105.485 6.725C104.635 6.725 103.877 6.91667 103.21 7.3C102.543 7.68333 102.01 8.225 101.61 8.925C101.21 9.60833 101.01 10.425 101.01 11.375C101.01 12.3083 101.21 13.1333 101.61 13.85C102.01 14.55 102.543 15.0917 103.21 15.475C103.877 15.8583 104.635 16.05 105.485 16.05ZM114.929 18V4.75H117.229V8.35L117.004 7.45C117.371 6.53333 117.988 5.83333 118.854 5.35C119.721 4.86667 120.788 4.625 122.054 4.625V6.95C121.954 6.93333 121.854 6.925 121.754 6.925C121.671 6.925 121.588 6.925 121.504 6.925C120.221 6.925 119.204 7.30833 118.454 8.075C117.704 8.84167 117.329 9.95 117.329 11.4V18H114.929ZM130.04 18.15C128.624 18.15 127.374 17.8583 126.29 17.275C125.224 16.6917 124.39 15.8917 123.79 14.875C123.207 13.8583 122.915 12.6917 122.915 11.375C122.915 10.0583 123.199 8.89167 123.765 7.875C124.349 6.85833 125.14 6.06667 126.14 5.5C127.157 4.91667 128.299 4.625 129.565 4.625C130.849 4.625 131.982 4.90833 132.965 5.475C133.949 6.04167 134.715 6.84167 135.265 7.875C135.832 8.89167 136.115 10.0833 136.115 11.45C136.115 11.55 136.107 11.6667 136.09 11.8C136.09 11.9333 136.082 12.0583 136.065 12.175H124.79V10.45H134.815L133.84 11.05C133.857 10.2 133.682 9.44167 133.315 8.775C132.949 8.10833 132.44 7.59167 131.79 7.225C131.157 6.84167 130.415 6.65 129.565 6.65C128.732 6.65 127.99 6.84167 127.34 7.225C126.69 7.59167 126.182 8.11667 125.815 8.8C125.449 9.46667 125.265 10.2333 125.265 11.1V11.5C125.265 12.3833 125.465 13.175 125.865 13.875C126.282 14.5583 126.857 15.0917 127.59 15.475C128.324 15.8583 129.165 16.05 130.115 16.05C130.899 16.05 131.607 15.9167 132.24 15.65C132.89 15.3833 133.457 14.9833 133.94 14.45L135.265 16C134.665 16.7 133.915 17.2333 133.015 17.6C132.132 17.9667 131.14 18.15 130.04 18.15Z" fill="#9747FF"/>
</svg>
