<svg width="478" height="218" viewBox="0 0 478 218" fill="none" xmlns="http://www.w3.org/2000/svg">
<path d="M5.64 47V5H25.32C30.36 5 34.2 6 36.84 8C39.48 9.96 40.8 12.6 40.8 15.92C40.8 18.16 40.28 20.08 39.24 21.68C38.2 23.24 36.8 24.46 35.04 25.34C33.32 26.18 31.44 26.6 29.4 26.6L30.48 24.44C32.84 24.44 34.96 24.88 36.84 25.76C38.72 26.6 40.2 27.84 41.28 29.48C42.4 31.12 42.96 33.16 42.96 35.6C42.96 39.2 41.58 42 38.82 44C36.06 46 31.96 47 26.52 47H5.64ZM13.44 40.88H26.04C28.96 40.88 31.2 40.4 32.76 39.44C34.32 38.48 35.1 36.94 35.1 34.82C35.1 32.74 34.32 31.22 32.76 30.26C31.2 29.26 28.96 28.76 26.04 28.76H12.84V22.7H24.48C27.2 22.7 29.28 22.22 30.72 21.26C32.2 20.3 32.94 18.86 32.94 16.94C32.94 14.98 32.2 13.52 30.72 12.56C29.28 11.6 27.2 11.12 24.48 11.12H13.44V40.88ZM48.7645 47V14.96H55.9045V23.78L55.0645 21.2C56.0245 19.04 57.5245 17.4 59.5645 16.28C61.6445 15.16 64.2245 14.6 67.3045 14.6V21.74C66.9845 21.66 66.6845 21.62 66.4045 21.62C66.1245 21.58 65.8445 21.56 65.5645 21.56C62.7245 21.56 60.4645 22.4 58.7845 24.08C57.1045 25.72 56.2645 28.18 56.2645 31.46V47H48.7645ZM71.8669 47V14.96H79.3669V47H71.8669ZM75.6469 9.68C74.2469 9.68 73.0869 9.24 72.1669 8.36C71.2869 7.48 70.8469 6.42 70.8469 5.18C70.8469 3.9 71.2869 2.84 72.1669 2C73.0869 1.12 74.2469 0.679999 75.6469 0.679999C77.0469 0.679999 78.1869 1.1 79.0669 1.94C79.9869 2.74 80.4469 3.76 80.4469 5C80.4469 6.32 80.0069 7.44 79.1269 8.36C78.2469 9.24 77.0869 9.68 75.6469 9.68ZM100.971 47.42C97.8906 47.42 95.1106 46.74 92.6306 45.38C90.1906 43.98 88.2706 42.06 86.8706 39.62C85.4706 37.18 84.7706 34.3 84.7706 30.98C84.7706 27.66 85.4706 24.78 86.8706 22.34C88.2706 19.9 90.1906 18 92.6306 16.64C95.1106 15.28 97.8906 14.6 100.971 14.6C103.651 14.6 106.051 15.2 108.171 16.4C110.291 17.56 111.971 19.34 113.211 21.74C114.451 24.14 115.071 27.22 115.071 30.98C115.071 34.7 114.471 37.78 113.271 40.22C112.071 42.62 110.411 44.42 108.291 45.62C106.171 46.82 103.731 47.42 100.971 47.42ZM101.871 41C103.671 41 105.271 40.6 106.671 39.8C108.111 39 109.251 37.84 110.091 36.32C110.971 34.8 111.411 33.02 111.411 30.98C111.411 28.9 110.971 27.12 110.091 25.64C109.251 24.12 108.111 22.96 106.671 22.16C105.271 21.36 103.671 20.96 101.871 20.96C100.071 20.96 98.4506 21.36 97.0106 22.16C95.6106 22.96 94.4706 24.12 93.5906 25.64C92.7506 27.12 92.3306 28.9 92.3306 30.98C92.3306 33.02 92.7506 34.8 93.5906 36.32C94.4706 37.84 95.6106 39 97.0106 39.8C98.4506 40.6 100.071 41 101.871 41ZM111.591 47V39.44L111.891 30.92L111.291 22.4V2.48H118.731V47H111.591ZM141.322 59.06C138.362 59.06 135.462 58.66 132.622 57.86C129.822 57.1 127.522 55.98 125.722 54.5L129.082 48.86C130.482 50.02 132.242 50.94 134.362 51.62C136.522 52.34 138.702 52.7 140.902 52.7C144.422 52.7 147.002 51.88 148.642 50.24C150.282 48.64 151.102 46.22 151.102 42.98V37.28L151.702 30.02L151.462 22.76V14.96H158.602V42.14C158.602 47.94 157.122 52.2 154.162 54.92C151.202 57.68 146.922 59.06 141.322 59.06ZM140.362 45.56C137.322 45.56 134.562 44.92 132.082 43.64C129.642 42.32 127.702 40.5 126.262 38.18C124.862 35.86 124.162 33.14 124.162 30.02C124.162 26.94 124.862 24.24 126.262 21.92C127.702 19.6 129.642 17.8 132.082 16.52C134.562 15.24 137.322 14.6 140.362 14.6C143.082 14.6 145.522 15.14 147.682 16.22C149.842 17.3 151.562 18.98 152.842 21.26C154.162 23.54 154.822 26.46 154.822 30.02C154.822 33.58 154.162 36.52 152.842 38.84C151.562 41.12 149.842 42.82 147.682 43.94C145.522 45.02 143.082 45.56 140.362 45.56ZM141.502 39.2C143.382 39.2 145.062 38.82 146.542 38.06C148.022 37.26 149.162 36.18 149.962 34.82C150.802 33.42 151.222 31.82 151.222 30.02C151.222 28.22 150.802 26.64 149.962 25.28C149.162 23.88 148.022 22.82 146.542 22.1C145.062 21.34 143.382 20.96 141.502 20.96C139.622 20.96 137.922 21.34 136.402 22.1C134.922 22.82 133.762 23.88 132.922 25.28C132.122 26.64 131.722 28.22 131.722 30.02C131.722 31.82 132.122 33.42 132.922 34.82C133.762 36.18 134.922 37.26 136.402 38.06C137.922 38.82 139.622 39.2 141.502 39.2ZM166.662 47V14.96H174.162V47H166.662ZM170.442 9.68C169.042 9.68 167.882 9.24 166.962 8.36C166.082 7.48 165.642 6.42 165.642 5.18C165.642 3.9 166.082 2.84 166.962 2C167.882 1.12 169.042 0.679999 170.442 0.679999C171.842 0.679999 172.982 1.1 173.862 1.94C174.782 2.74 175.242 3.76 175.242 5C175.242 6.32 174.802 7.44 173.922 8.36C173.042 9.24 171.882 9.68 170.442 9.68ZM200.386 14.6C202.946 14.6 205.226 15.1 207.226 16.1C209.266 17.1 210.866 18.64 212.026 20.72C213.186 22.76 213.766 25.4 213.766 28.64V47H206.266V29.6C206.266 26.76 205.586 24.64 204.226 23.24C202.906 21.84 201.046 21.14 198.646 21.14C196.886 21.14 195.326 21.5 193.966 22.22C192.606 22.94 191.546 24.02 190.786 25.46C190.066 26.86 189.706 28.64 189.706 30.8V47H182.206V14.96H189.346V23.6L188.086 20.96C189.206 18.92 190.826 17.36 192.946 16.28C195.106 15.16 197.586 14.6 200.386 14.6ZM236.059 59.06C233.099 59.06 230.199 58.66 227.359 57.86C224.559 57.1 222.259 55.98 220.459 54.5L223.819 48.86C225.219 50.02 226.979 50.94 229.099 51.62C231.259 52.34 233.439 52.7 235.639 52.7C239.159 52.7 241.739 51.88 243.379 50.24C245.019 48.64 245.839 46.22 245.839 42.98V37.28L246.439 30.02L246.199 22.76V14.96H253.339V42.14C253.339 47.94 251.859 52.2 248.899 54.92C245.939 57.68 241.659 59.06 236.059 59.06ZM235.099 45.56C232.059 45.56 229.299 44.92 226.819 43.64C224.379 42.32 222.439 40.5 220.999 38.18C219.599 35.86 218.899 33.14 218.899 30.02C218.899 26.94 219.599 24.24 220.999 21.92C222.439 19.6 224.379 17.8 226.819 16.52C229.299 15.24 232.059 14.6 235.099 14.6C237.819 14.6 240.259 15.14 242.419 16.22C244.579 17.3 246.299 18.98 247.579 21.26C248.899 23.54 249.559 26.46 249.559 30.02C249.559 33.58 248.899 36.52 247.579 38.84C246.299 41.12 244.579 42.82 242.419 43.94C240.259 45.02 237.819 45.56 235.099 45.56ZM236.239 39.2C238.119 39.2 239.799 38.82 241.279 38.06C242.759 37.26 243.899 36.18 244.699 34.82C245.539 33.42 245.959 31.82 245.959 30.02C245.959 28.22 245.539 26.64 244.699 25.28C243.899 23.88 242.759 22.82 241.279 22.1C239.799 21.34 238.119 20.96 236.239 20.96C234.359 20.96 232.659 21.34 231.139 22.1C229.659 22.82 228.499 23.88 227.659 25.28C226.859 26.64 226.459 28.22 226.459 30.02C226.459 31.82 226.859 33.42 227.659 34.82C228.499 36.18 229.659 37.26 231.139 38.06C232.659 38.82 234.359 39.2 236.239 39.2ZM283.861 37.1L283.441 27.86L305.461 5H314.221L295.921 24.44L291.601 29.18L283.861 37.1ZM276.901 47V5H284.701V47H276.901ZM306.181 47L290.101 27.86L295.261 22.16L315.301 47H306.181ZM331.086 47.42C327.806 47.42 324.886 46.72 322.326 45.32C319.766 43.88 317.746 41.92 316.266 39.44C314.786 36.96 314.046 34.14 314.046 30.98C314.046 27.78 314.786 24.96 316.266 22.52C317.746 20.04 319.766 18.1 322.326 16.7C324.886 15.3 327.806 14.6 331.086 14.6C334.406 14.6 337.346 15.3 339.906 16.7C342.506 18.1 344.526 20.02 345.966 22.46C347.446 24.9 348.186 27.74 348.186 30.98C348.186 34.14 347.446 36.96 345.966 39.44C344.526 41.92 342.506 43.88 339.906 45.32C337.346 46.72 334.406 47.42 331.086 47.42ZM331.086 41C332.926 41 334.566 40.6 336.006 39.8C337.446 39 338.566 37.84 339.366 36.32C340.206 34.8 340.626 33.02 340.626 30.98C340.626 28.9 340.206 27.12 339.366 25.64C338.566 24.12 337.446 22.96 336.006 22.16C334.566 21.36 332.946 20.96 331.146 20.96C329.306 20.96 327.666 21.36 326.226 22.16C324.826 22.96 323.706 24.12 322.866 25.64C322.026 27.12 321.606 28.9 321.606 30.98C321.606 33.02 322.026 34.8 322.866 36.32C323.706 37.84 324.826 39 326.226 39.8C327.666 40.6 329.286 41 331.086 41ZM353.558 47V14.96H360.698V23.78L359.858 21.2C360.818 19.04 362.318 17.4 364.358 16.28C366.438 15.16 369.018 14.6 372.098 14.6V21.74C371.778 21.66 371.478 21.62 371.198 21.62C370.918 21.58 370.638 21.56 370.358 21.56C367.518 21.56 365.258 22.4 363.578 24.08C361.898 25.72 361.058 28.18 361.058 31.46V47H353.558ZM391.427 47.42C387.867 47.42 384.747 46.72 382.067 45.32C379.427 43.88 377.367 41.92 375.887 39.44C374.447 36.96 373.727 34.14 373.727 30.98C373.727 27.78 374.427 24.96 375.827 22.52C377.267 20.04 379.227 18.1 381.707 16.7C384.227 15.3 387.087 14.6 390.287 14.6C393.407 14.6 396.187 15.28 398.627 16.64C401.067 18 402.987 19.92 404.387 22.4C405.787 24.88 406.487 27.8 406.487 31.16C406.487 31.48 406.467 31.84 406.427 32.24C406.427 32.64 406.407 33.02 406.367 33.38H379.667V28.4H402.407L399.467 29.96C399.507 28.12 399.127 26.5 398.327 25.1C397.527 23.7 396.427 22.6 395.027 21.8C393.667 21 392.087 20.6 390.287 20.6C388.447 20.6 386.827 21 385.427 21.8C384.067 22.6 382.987 23.72 382.187 25.16C381.427 26.56 381.047 28.22 381.047 30.14V31.34C381.047 33.26 381.487 34.96 382.367 36.44C383.247 37.92 384.487 39.06 386.087 39.86C387.687 40.66 389.527 41.06 391.607 41.06C393.407 41.06 395.027 40.78 396.467 40.22C397.907 39.66 399.187 38.78 400.307 37.58L404.327 42.2C402.887 43.88 401.067 45.18 398.867 46.1C396.707 46.98 394.227 47.42 391.427 47.42ZM430.752 47V40.52L430.332 39.14V27.8C430.332 25.6 429.672 23.9 428.352 22.7C427.032 21.46 425.032 20.84 422.352 20.84C420.552 20.84 418.772 21.12 417.012 21.68C415.292 22.24 413.832 23.02 412.632 24.02L409.692 18.56C411.412 17.24 413.452 16.26 415.812 15.62C418.212 14.94 420.692 14.6 423.252 14.6C427.892 14.6 431.472 15.72 433.992 17.96C436.552 20.16 437.832 23.58 437.832 28.22V47H430.752ZM420.672 47.42C418.272 47.42 416.172 47.02 414.372 46.22C412.572 45.38 411.172 44.24 410.172 42.8C409.212 41.32 408.732 39.66 408.732 37.82C408.732 36.02 409.152 34.4 409.992 32.96C410.872 31.52 412.292 30.38 414.252 29.54C416.212 28.7 418.812 28.28 422.052 28.28H431.352V33.26H422.592C420.032 33.26 418.312 33.68 417.432 34.52C416.552 35.32 416.112 36.32 416.112 37.52C416.112 38.88 416.652 39.96 417.732 40.76C418.812 41.56 420.312 41.96 422.232 41.96C424.072 41.96 425.712 41.54 427.152 40.7C428.632 39.86 429.692 38.62 430.332 36.98L431.592 41.48C430.872 43.36 429.572 44.82 427.692 45.86C425.852 46.9 423.512 47.42 420.672 47.42ZM463.837 14.6C466.397 14.6 468.677 15.1 470.677 16.1C472.717 17.1 474.317 18.64 475.477 20.72C476.637 22.76 477.217 25.4 477.217 28.64V47H469.717V29.6C469.717 26.76 469.037 24.64 467.677 23.24C466.357 21.84 464.497 21.14 462.097 21.14C460.337 21.14 458.777 21.5 457.417 22.22C456.057 22.94 454.997 24.02 454.237 25.46C453.517 26.86 453.157 28.64 453.157 30.8V47H445.657V14.96H452.797V23.6L451.537 20.96C452.657 18.92 454.277 17.36 456.397 16.28C458.557 15.16 461.037 14.6 463.837 14.6ZM5.64 132V90H13.44V132H5.64ZM40.4602 99.6C43.0202 99.6 45.3002 100.1 47.3002 101.1C49.3402 102.1 50.9402 103.64 52.1002 105.72C53.2602 107.76 53.8402 110.4 53.8402 113.64V132H46.3402V114.6C46.3402 111.76 45.6602 109.64 44.3002 108.24C42.9802 106.84 41.1202 106.14 38.7202 106.14C36.9602 106.14 35.4002 106.5 34.0402 107.22C32.6802 107.94 31.6202 109.02 30.8602 110.46C30.1402 111.86 29.7802 113.64 29.7802 115.8V132H22.2802V99.96H29.4202V108.6L28.1602 105.96C29.2802 103.92 30.9002 102.36 33.0202 101.28C35.1802 100.16 37.6602 99.6 40.4602 99.6ZM79.7344 99.6C82.2944 99.6 84.5744 100.1 86.5744 101.1C88.6144 102.1 90.2144 103.64 91.3744 105.72C92.5344 107.76 93.1144 110.4 93.1144 113.64V132H85.6144V114.6C85.6144 111.76 84.9344 109.64 83.5744 108.24C82.2544 106.84 80.3944 106.14 77.9944 106.14C76.2344 106.14 74.6744 106.5 73.3144 107.22C71.9544 107.94 70.8944 109.02 70.1344 110.46C69.4144 111.86 69.0544 113.64 69.0544 115.8V132H61.5544V99.96H68.6944V108.6L67.4344 105.96C68.5544 103.92 70.1744 102.36 72.2944 101.28C74.4544 100.16 76.9344 99.6 79.7344 99.6ZM115.287 132.42C112.007 132.42 109.087 131.72 106.527 130.32C103.967 128.88 101.947 126.92 100.467 124.44C98.9872 121.96 98.2472 119.14 98.2472 115.98C98.2472 112.78 98.9872 109.96 100.467 107.52C101.947 105.04 103.967 103.1 106.527 101.7C109.087 100.3 112.007 99.6 115.287 99.6C118.607 99.6 121.547 100.3 124.107 101.7C126.707 103.1 128.727 105.02 130.167 107.46C131.647 109.9 132.387 112.74 132.387 115.98C132.387 119.14 131.647 121.96 130.167 124.44C128.727 126.92 126.707 128.88 124.107 130.32C121.547 131.72 118.607 132.42 115.287 132.42ZM115.287 126C117.127 126 118.767 125.6 120.207 124.8C121.647 124 122.767 122.84 123.567 121.32C124.407 119.8 124.827 118.02 124.827 115.98C124.827 113.9 124.407 112.12 123.567 110.64C122.767 109.12 121.647 107.96 120.207 107.16C118.767 106.36 117.147 105.96 115.347 105.96C113.507 105.96 111.867 106.36 110.427 107.16C109.027 107.96 107.907 109.12 107.067 110.64C106.227 112.12 105.807 113.9 105.807 115.98C105.807 118.02 106.227 119.8 107.067 121.32C107.907 122.84 109.027 124 110.427 124.8C111.867 125.6 113.487 126 115.287 126ZM145.4 132L131.66 99.96H139.46L151.28 128.22H147.44L159.68 99.96H166.88L153.14 132H145.4ZM188.512 132V125.52L188.092 124.14V112.8C188.092 110.6 187.432 108.9 186.112 107.7C184.792 106.46 182.792 105.84 180.112 105.84C178.312 105.84 176.532 106.12 174.772 106.68C173.052 107.24 171.592 108.02 170.392 109.02L167.452 103.56C169.172 102.24 171.212 101.26 173.572 100.62C175.972 99.94 178.452 99.6 181.012 99.6C185.652 99.6 189.232 100.72 191.752 102.96C194.312 105.16 195.592 108.58 195.592 113.22V132H188.512ZM178.432 132.42C176.032 132.42 173.932 132.02 172.132 131.22C170.332 130.38 168.932 129.24 167.932 127.8C166.972 126.32 166.492 124.66 166.492 122.82C166.492 121.02 166.912 119.4 167.752 117.96C168.632 116.52 170.052 115.38 172.012 114.54C173.972 113.7 176.572 113.28 179.812 113.28H189.112V118.26H180.352C177.792 118.26 176.072 118.68 175.192 119.52C174.312 120.32 173.872 121.32 173.872 122.52C173.872 123.88 174.412 124.96 175.492 125.76C176.572 126.56 178.072 126.96 179.992 126.96C181.832 126.96 183.472 126.54 184.912 125.7C186.392 124.86 187.452 123.62 188.092 121.98L189.352 126.48C188.632 128.36 187.332 129.82 185.452 130.86C183.612 131.9 181.272 132.42 178.432 132.42ZM215.477 132.42C211.957 132.42 209.237 131.52 207.317 129.72C205.397 127.88 204.437 125.18 204.437 121.62V92.88H211.937V121.44C211.937 122.96 212.317 124.14 213.077 124.98C213.877 125.82 214.977 126.24 216.377 126.24C218.057 126.24 219.457 125.8 220.577 124.92L222.677 130.26C221.797 130.98 220.717 131.52 219.437 131.88C218.157 132.24 216.837 132.42 215.477 132.42ZM199.157 106.2V100.2H220.517V106.2H199.157ZM227.047 132V99.96H234.547V132H227.047ZM230.827 94.68C229.427 94.68 228.267 94.24 227.347 93.36C226.467 92.48 226.027 91.42 226.027 90.18C226.027 88.9 226.467 87.84 227.347 87C228.267 86.12 229.427 85.68 230.827 85.68C232.227 85.68 233.367 86.1 234.247 86.94C235.167 87.74 235.627 88.76 235.627 90C235.627 91.32 235.187 92.44 234.307 93.36C233.427 94.24 232.267 94.68 230.827 94.68ZM256.99 132.42C253.71 132.42 250.79 131.72 248.23 130.32C245.67 128.88 243.65 126.92 242.17 124.44C240.69 121.96 239.95 119.14 239.95 115.98C239.95 112.78 240.69 109.96 242.17 107.52C243.65 105.04 245.67 103.1 248.23 101.7C250.79 100.3 253.71 99.6 256.99 99.6C260.31 99.6 263.25 100.3 265.81 101.7C268.41 103.1 270.43 105.02 271.87 107.46C273.35 109.9 274.09 112.74 274.09 115.98C274.09 119.14 273.35 121.96 271.87 124.44C270.43 126.92 268.41 128.88 265.81 130.32C263.25 131.72 260.31 132.42 256.99 132.42ZM256.99 126C258.83 126 260.47 125.6 261.91 124.8C263.35 124 264.47 122.84 265.27 121.32C266.11 119.8 266.53 118.02 266.53 115.98C266.53 113.9 266.11 112.12 265.27 110.64C264.47 109.12 263.35 107.96 261.91 107.16C260.47 106.36 258.85 105.96 257.05 105.96C255.21 105.96 253.57 106.36 252.13 107.16C250.73 107.96 249.61 109.12 248.77 110.64C247.93 112.12 247.51 113.9 247.51 115.98C247.51 118.02 247.93 119.8 248.77 121.32C249.61 122.84 250.73 124 252.13 124.8C253.57 125.6 255.19 126 256.99 126ZM297.642 99.6C300.202 99.6 302.482 100.1 304.482 101.1C306.522 102.1 308.122 103.64 309.282 105.72C310.442 107.76 311.022 110.4 311.022 113.64V132H303.522V114.6C303.522 111.76 302.842 109.64 301.482 108.24C300.162 106.84 298.302 106.14 295.902 106.14C294.142 106.14 292.582 106.5 291.222 107.22C289.862 107.94 288.802 109.02 288.042 110.46C287.322 111.86 286.962 113.64 286.962 115.8V132H279.462V99.96H286.602V108.6L285.342 105.96C286.462 103.92 288.082 102.36 290.202 101.28C292.362 100.16 294.842 99.6 297.642 99.6ZM345.578 132.42C342.058 132.42 339.338 131.52 337.418 129.72C335.498 127.88 334.538 125.18 334.538 121.62V92.88H342.038V121.44C342.038 122.96 342.418 124.14 343.178 124.98C343.978 125.82 345.078 126.24 346.478 126.24C348.158 126.24 349.558 125.8 350.678 124.92L352.778 130.26C351.898 130.98 350.818 131.52 349.538 131.88C348.258 132.24 346.938 132.42 345.578 132.42ZM329.258 106.2V100.2H350.618V106.2H329.258ZM370.493 132.42C367.213 132.42 364.293 131.72 361.733 130.32C359.173 128.88 357.153 126.92 355.673 124.44C354.193 121.96 353.453 119.14 353.453 115.98C353.453 112.78 354.193 109.96 355.673 107.52C357.153 105.04 359.173 103.1 361.733 101.7C364.293 100.3 367.213 99.6 370.493 99.6C373.813 99.6 376.753 100.3 379.313 101.7C381.913 103.1 383.933 105.02 385.373 107.46C386.853 109.9 387.593 112.74 387.593 115.98C387.593 119.14 386.853 121.96 385.373 124.44C383.933 126.92 381.913 128.88 379.313 130.32C376.753 131.72 373.813 132.42 370.493 132.42ZM370.493 126C372.333 126 373.973 125.6 375.413 124.8C376.853 124 377.973 122.84 378.773 121.32C379.613 119.8 380.033 118.02 380.033 115.98C380.033 113.9 379.613 112.12 378.773 110.64C377.973 109.12 376.853 107.96 375.413 107.16C373.973 106.36 372.353 105.96 370.553 105.96C368.713 105.96 367.073 106.36 365.633 107.16C364.233 107.96 363.113 109.12 362.273 110.64C361.433 112.12 361.013 113.9 361.013 115.98C361.013 118.02 361.433 119.8 362.273 121.32C363.113 122.84 364.233 124 365.633 124.8C367.073 125.6 368.693 126 370.493 126ZM16.98 217.42C13.46 217.42 10.74 216.52 8.82 214.72C6.9 212.88 5.94 210.18 5.94 206.62V177.88H13.44V206.44C13.44 207.96 13.82 209.14 14.58 209.98C15.38 210.82 16.48 211.24 17.88 211.24C19.56 211.24 20.96 210.8 22.08 209.92L24.18 215.26C23.3 215.98 22.22 216.52 20.94 216.88C19.66 217.24 18.34 217.42 16.98 217.42ZM0.66 191.2V185.2H22.02V191.2H0.66ZM46.7297 184.6C49.2897 184.6 51.5697 185.1 53.5697 186.1C55.6097 187.1 57.2097 188.64 58.3697 190.72C59.5297 192.76 60.1097 195.4 60.1097 198.64V217H52.6097V199.6C52.6097 196.76 51.9297 194.64 50.5697 193.24C49.2497 191.84 47.3897 191.14 44.9897 191.14C43.2297 191.14 41.6697 191.5 40.3097 192.22C38.9497 192.94 37.8897 194.02 37.1297 195.46C36.4097 196.86 36.0497 198.64 36.0497 200.8V217H28.5497V172.48H36.0497V193.6L34.4297 190.96C35.5497 188.92 37.1697 187.36 39.2897 186.28C41.4497 185.16 43.9297 184.6 46.7297 184.6ZM82.9425 217.42C79.3825 217.42 76.2625 216.72 73.5825 215.32C70.9425 213.88 68.8825 211.92 67.4025 209.44C65.9625 206.96 65.2425 204.14 65.2425 200.98C65.2425 197.78 65.9425 194.96 67.3425 192.52C68.7825 190.04 70.7425 188.1 73.2225 186.7C75.7425 185.3 78.6025 184.6 81.8025 184.6C84.9225 184.6 87.7025 185.28 90.1425 186.64C92.5825 188 94.5025 189.92 95.9025 192.4C97.3025 194.88 98.0025 197.8 98.0025 201.16C98.0025 201.48 97.9825 201.84 97.9425 202.24C97.9425 202.64 97.9225 203.02 97.8825 203.38H71.1825V198.4H93.9225L90.9825 199.96C91.0225 198.12 90.6425 196.5 89.8425 195.1C89.0425 193.7 87.9425 192.6 86.5425 191.8C85.1825 191 83.6025 190.6 81.8025 190.6C79.9625 190.6 78.3425 191 76.9425 191.8C75.5825 192.6 74.5025 193.72 73.7025 195.16C72.9425 196.56 72.5625 198.22 72.5625 200.14V201.34C72.5625 203.26 73.0025 204.96 73.8825 206.44C74.7625 207.92 76.0025 209.06 77.6025 209.86C79.2025 210.66 81.0425 211.06 83.1225 211.06C84.9225 211.06 86.5425 210.78 87.9825 210.22C89.4225 209.66 90.7025 208.78 91.8225 207.58L95.8425 212.2C94.4025 213.88 92.5825 215.18 90.3825 216.1C88.2225 216.98 85.7425 217.42 82.9425 217.42ZM136.969 217.6C131.209 217.6 126.689 215.98 123.409 212.74C120.169 209.5 118.549 204.82 118.549 198.7V175H126.349V198.4C126.349 202.72 127.269 205.86 129.109 207.82C130.989 209.78 133.629 210.76 137.029 210.76C140.429 210.76 143.049 209.78 144.889 207.82C146.729 205.86 147.649 202.72 147.649 198.4V175H155.329V198.7C155.329 204.82 153.689 209.5 150.409 212.74C147.169 215.98 142.689 217.6 136.969 217.6ZM177.473 217.6C174.193 217.6 171.053 217.14 168.053 216.22C165.053 215.26 162.673 214.04 160.913 212.56L163.613 206.5C165.293 207.82 167.373 208.92 169.853 209.8C172.333 210.68 174.873 211.12 177.473 211.12C179.673 211.12 181.453 210.88 182.813 210.4C184.173 209.92 185.173 209.28 185.813 208.48C186.453 207.64 186.773 206.7 186.773 205.66C186.773 204.38 186.313 203.36 185.393 202.6C184.473 201.8 183.273 201.18 181.793 200.74C180.353 200.26 178.733 199.82 176.933 199.42C175.173 199.02 173.393 198.56 171.593 198.04C169.833 197.48 168.213 196.78 166.732 195.94C165.293 195.06 164.113 193.9 163.193 192.46C162.273 191.02 161.813 189.18 161.813 186.94C161.813 184.66 162.413 182.58 163.613 180.7C164.853 178.78 166.713 177.26 169.193 176.14C171.713 174.98 174.893 174.4 178.733 174.4C181.253 174.4 183.753 174.72 186.233 175.36C188.713 176 190.873 176.92 192.712 178.12L190.253 184.18C188.373 183.06 186.433 182.24 184.433 181.72C182.433 181.16 180.513 180.88 178.673 180.88C176.513 180.88 174.753 181.14 173.393 181.66C172.073 182.18 171.093 182.86 170.453 183.7C169.853 184.54 169.553 185.5 169.553 186.58C169.553 187.86 169.993 188.9 170.873 189.7C171.793 190.46 172.973 191.06 174.413 191.5C175.893 191.94 177.533 192.38 179.333 192.82C181.133 193.22 182.913 193.68 184.673 194.2C186.473 194.72 188.093 195.4 189.533 196.24C191.013 197.08 192.193 198.22 193.073 199.66C193.993 201.1 194.453 202.92 194.453 205.12C194.453 207.36 193.833 209.44 192.593 211.36C191.393 213.24 189.533 214.76 187.013 215.92C184.493 217.04 181.313 217.6 177.473 217.6ZM215.169 217V175H221.589L239.949 205.66H236.589L254.649 175H261.069L261.129 217H253.749L253.689 186.58H255.249L239.889 212.2H236.409L220.809 186.58H222.609V217H215.169ZM289.694 217V210.52L289.274 209.14V197.8C289.274 195.6 288.614 193.9 287.294 192.7C285.974 191.46 283.974 190.84 281.294 190.84C279.494 190.84 277.714 191.12 275.954 191.68C274.234 192.24 272.774 193.02 271.574 194.02L268.634 188.56C270.354 187.24 272.394 186.26 274.754 185.62C277.154 184.94 279.634 184.6 282.194 184.6C286.834 184.6 290.414 185.72 292.934 187.96C295.494 190.16 296.774 193.58 296.774 198.22V217H289.694ZM279.614 217.42C277.214 217.42 275.114 217.02 273.314 216.22C271.514 215.38 270.114 214.24 269.114 212.8C268.154 211.32 267.674 209.66 267.674 207.82C267.674 206.02 268.094 204.4 268.934 202.96C269.814 201.52 271.234 200.38 273.194 199.54C275.154 198.7 277.754 198.28 280.994 198.28H290.294V203.26H281.534C278.974 203.26 277.254 203.68 276.374 204.52C275.494 205.32 275.054 206.32 275.054 207.52C275.054 208.88 275.594 209.96 276.674 210.76C277.754 211.56 279.254 211.96 281.174 211.96C283.014 211.96 284.654 211.54 286.094 210.7C287.574 209.86 288.634 208.62 289.274 206.98L290.534 211.48C289.814 213.36 288.514 214.82 286.634 215.86C284.794 216.9 282.454 217.42 279.614 217.42ZM304.599 217V184.96H311.739V193.78L310.899 191.2C311.859 189.04 313.359 187.4 315.399 186.28C317.479 185.16 320.059 184.6 323.139 184.6V191.74C322.819 191.66 322.519 191.62 322.239 191.62C321.959 191.58 321.679 191.56 321.399 191.56C318.559 191.56 316.299 192.4 314.619 194.08C312.939 195.72 312.099 198.18 312.099 201.46V217H304.599ZM333.821 209.86L334.001 200.44L350.741 184.96H359.741L345.521 199.24L341.561 202.54L333.821 209.86ZM327.701 217V172.48H335.201V217H327.701ZM351.881 217L340.181 202.54L344.921 196.54L361.001 217H351.881ZM377.817 217.42C374.257 217.42 371.137 216.72 368.457 215.32C365.817 213.88 363.757 211.92 362.277 209.44C360.837 206.96 360.117 204.14 360.117 200.98C360.117 197.78 360.817 194.96 362.217 192.52C363.657 190.04 365.617 188.1 368.097 186.7C370.617 185.3 373.477 184.6 376.677 184.6C379.797 184.6 382.577 185.28 385.017 186.64C387.457 188 389.377 189.92 390.777 192.4C392.177 194.88 392.877 197.8 392.877 201.16C392.877 201.48 392.857 201.84 392.817 202.24C392.817 202.64 392.797 203.02 392.757 203.38H366.057V198.4H388.797L385.857 199.96C385.897 198.12 385.517 196.5 384.717 195.1C383.917 193.7 382.817 192.6 381.417 191.8C380.057 191 378.477 190.6 376.677 190.6C374.837 190.6 373.217 191 371.817 191.8C370.457 192.6 369.377 193.72 368.577 195.16C367.817 196.56 367.437 198.22 367.437 200.14V201.34C367.437 203.26 367.877 204.96 368.757 206.44C369.637 207.92 370.877 209.06 372.477 209.86C374.077 210.66 375.917 211.06 377.997 211.06C379.797 211.06 381.417 210.78 382.857 210.22C384.297 209.66 385.577 208.78 386.697 207.58L390.717 212.2C389.277 213.88 387.457 215.18 385.257 216.1C383.097 216.98 380.617 217.42 377.817 217.42ZM410.341 217.42C406.821 217.42 404.101 216.52 402.181 214.72C400.261 212.88 399.301 210.18 399.301 206.62V177.88H406.801V206.44C406.801 207.96 407.181 209.14 407.941 209.98C408.741 210.82 409.841 211.24 411.241 211.24C412.921 211.24 414.321 210.8 415.441 209.92L417.541 215.26C416.661 215.98 415.581 216.52 414.301 216.88C413.021 217.24 411.701 217.42 410.341 217.42ZM394.021 191.2V185.2H415.381V191.2H394.021Z" fill="black"/>
</svg>
