<svg width="396" height="115" viewBox="0 0 396 115" fill="none" xmlns="http://www.w3.org/2000/svg">
<path d="M14.55 36.5C11.8167 36.5 9.2 36.1167 6.7 35.35C4.2 34.55 2.21667 33.5333 0.75 32.3L3 27.25C4.4 28.35 6.13333 29.2667 8.2 30C10.2667 30.7333 12.3833 31.1 14.55 31.1C16.3833 31.1 17.8667 30.9 19 30.5C20.1333 30.1 20.9667 29.5667 21.5 28.9C22.0333 28.2 22.3 27.4167 22.3 26.55C22.3 25.4833 21.9167 24.6333 21.15 24C20.3833 23.3333 19.3833 22.8167 18.15 22.45C16.95 22.05 15.6 21.6833 14.1 21.35C12.6333 21.0167 11.15 20.6333 9.65 20.2C8.18333 19.7333 6.83333 19.15 5.6 18.45C4.4 17.7167 3.41667 16.75 2.65 15.55C1.88333 14.35 1.5 12.8167 1.5 10.95C1.5 9.05 2 7.31667 3 5.75C4.03333 4.15 5.58333 2.88333 7.65 1.95C9.75 0.983331 12.4 0.499998 15.6 0.499998C17.7 0.499998 19.7833 0.766665 21.85 1.3C23.9167 1.83333 25.7167 2.6 27.25 3.6L25.2 8.65C23.6333 7.71666 22.0167 7.03333 20.35 6.6C18.6833 6.13333 17.0833 5.9 15.55 5.9C13.75 5.9 12.2833 6.11666 11.15 6.55C10.05 6.98333 9.23333 7.55 8.7 8.25C8.2 8.95 7.95 9.75 7.95 10.65C7.95 11.7167 8.31667 12.5833 9.05 13.25C9.81667 13.8833 10.8 14.3833 12 14.75C13.2333 15.1167 14.6 15.4833 16.1 15.85C17.6 16.1833 19.0833 16.5667 20.55 17C22.05 17.4333 23.4 18 24.6 18.7C25.8333 19.4 26.8167 20.35 27.55 21.55C28.3167 22.75 28.7 24.2667 28.7 26.1C28.7 27.9667 28.1833 29.7 27.15 31.3C26.15 32.8667 24.6 34.1333 22.5 35.1C20.4 36.0333 17.75 36.5 14.55 36.5ZM44.5953 36.35C41.662 36.35 39.3953 35.6 37.7953 34.1C36.1953 32.5667 35.3953 30.3167 35.3953 27.35V3.4H41.6453V27.2C41.6453 28.4667 41.962 29.45 42.5953 30.15C43.262 30.85 44.1786 31.2 45.3453 31.2C46.7453 31.2 47.912 30.8333 48.8453 30.1L50.5953 34.55C49.862 35.15 48.962 35.6 47.8953 35.9C46.8286 36.2 45.7286 36.35 44.5953 36.35ZM30.9953 14.5V9.5H48.7953V14.5H30.9953ZM55.7367 36V9.3H61.6867V16.65L60.9867 14.5C61.7867 12.7 63.0367 11.3333 64.7367 10.4C66.4701 9.46667 68.6201 9 71.1867 9V14.95C70.9201 14.8833 70.6701 14.85 70.4367 14.85C70.2034 14.8167 69.9701 14.8 69.7367 14.8C67.3701 14.8 65.4867 15.5 64.0867 16.9C62.6867 18.2667 61.9867 20.3167 61.9867 23.05V36H55.7367ZM88.2445 36.35C85.5112 36.35 83.0779 35.7667 80.9445 34.6C78.8112 33.4 77.1279 31.7667 75.8945 29.7C74.6612 27.6333 74.0445 25.2833 74.0445 22.65C74.0445 19.9833 74.6612 17.6333 75.8945 15.6C77.1279 13.5333 78.8112 11.9167 80.9445 10.75C83.0779 9.58333 85.5112 9 88.2445 9C91.0112 9 93.4612 9.58333 95.5945 10.75C97.7612 11.9167 99.4445 13.5167 100.645 15.55C101.878 17.5833 102.495 19.95 102.495 22.65C102.495 25.2833 101.878 27.6333 100.645 29.7C99.4445 31.7667 97.7612 33.4 95.5945 34.6C93.4612 35.7667 91.0112 36.35 88.2445 36.35ZM88.2445 31C89.7779 31 91.1445 30.6667 92.3445 30C93.5445 29.3333 94.4779 28.3667 95.1445 27.1C95.8445 25.8333 96.1945 24.35 96.1945 22.65C96.1945 20.9167 95.8445 19.4333 95.1445 18.2C94.4779 16.9333 93.5445 15.9667 92.3445 15.3C91.1445 14.6333 89.7945 14.3 88.2945 14.3C86.7612 14.3 85.3945 14.6333 84.1945 15.3C83.0279 15.9667 82.0945 16.9333 81.3945 18.2C80.6945 19.4333 80.3445 20.9167 80.3445 22.65C80.3445 24.35 80.6945 25.8333 81.3945 27.1C82.0945 28.3667 83.0279 29.3333 84.1945 30C85.3945 30.6667 86.7445 31 88.2445 31ZM123.621 9C125.754 9 127.654 9.41667 129.321 10.25C131.021 11.0833 132.354 12.3667 133.321 14.1C134.288 15.8 134.771 18 134.771 20.7V36H128.521V21.5C128.521 19.1333 127.954 17.3667 126.821 16.2C125.721 15.0333 124.171 14.45 122.171 14.45C120.704 14.45 119.404 14.75 118.271 15.35C117.138 15.95 116.254 16.85 115.621 18.05C115.021 19.2167 114.721 20.7 114.721 22.5V36H108.471V9.3H114.421V16.5L113.371 14.3C114.304 12.6 115.654 11.3 117.421 10.4C119.221 9.46667 121.288 9 123.621 9ZM154.848 46.05C152.382 46.05 149.965 45.7167 147.598 45.05C145.265 44.4167 143.348 43.4833 141.848 42.25L144.648 37.55C145.815 38.5167 147.282 39.2833 149.048 39.85C150.848 40.45 152.665 40.75 154.498 40.75C157.432 40.75 159.582 40.0667 160.948 38.7C162.315 37.3667 162.998 35.35 162.998 32.65V27.9L163.498 21.85L163.298 15.8V9.3H169.248V31.95C169.248 36.7833 168.015 40.3333 165.548 42.6C163.082 44.9 159.515 46.05 154.848 46.05ZM154.048 34.8C151.515 34.8 149.215 34.2667 147.148 33.2C145.115 32.1 143.498 30.5833 142.298 28.65C141.132 26.7167 140.548 24.45 140.548 21.85C140.548 19.2833 141.132 17.0333 142.298 15.1C143.498 13.1667 145.115 11.6667 147.148 10.6C149.215 9.53333 151.515 9 154.048 9C156.315 9 158.348 9.45 160.148 10.35C161.948 11.25 163.382 12.65 164.448 14.55C165.548 16.45 166.098 18.8833 166.098 21.85C166.098 24.8167 165.548 27.2667 164.448 29.2C163.382 31.1 161.948 32.5167 160.148 33.45C158.348 34.35 156.315 34.8 154.048 34.8ZM154.998 29.5C156.565 29.5 157.965 29.1833 159.198 28.55C160.432 27.8833 161.382 26.9833 162.048 25.85C162.748 24.6833 163.098 23.35 163.098 21.85C163.098 20.35 162.748 19.0333 162.048 17.9C161.382 16.7333 160.432 15.85 159.198 15.25C157.965 14.6167 156.565 14.3 154.998 14.3C153.432 14.3 152.015 14.6167 150.748 15.25C149.515 15.85 148.548 16.7333 147.848 17.9C147.182 19.0333 146.848 20.35 146.848 21.85C146.848 23.35 147.182 24.6833 147.848 25.85C148.548 26.9833 149.515 27.8833 150.748 28.55C152.015 29.1833 153.432 29.5 154.998 29.5ZM202.734 36.5C200 36.5 197.384 36.1167 194.884 35.35C192.384 34.55 190.4 33.5333 188.934 32.3L191.184 27.25C192.584 28.35 194.317 29.2667 196.384 30C198.45 30.7333 200.567 31.1 202.734 31.1C204.567 31.1 206.05 30.9 207.184 30.5C208.317 30.1 209.15 29.5667 209.684 28.9C210.217 28.2 210.484 27.4167 210.484 26.55C210.484 25.4833 210.1 24.6333 209.334 24C208.567 23.3333 207.567 22.8167 206.334 22.45C205.134 22.05 203.784 21.6833 202.284 21.35C200.817 21.0167 199.334 20.6333 197.834 20.2C196.367 19.7333 195.017 19.15 193.784 18.45C192.584 17.7167 191.6 16.75 190.834 15.55C190.067 14.35 189.684 12.8167 189.684 10.95C189.684 9.05 190.184 7.31667 191.184 5.75C192.217 4.15 193.767 2.88333 195.834 1.95C197.934 0.983331 200.584 0.499998 203.784 0.499998C205.884 0.499998 207.967 0.766665 210.034 1.3C212.1 1.83333 213.9 2.6 215.434 3.6L213.384 8.65C211.817 7.71666 210.2 7.03333 208.534 6.6C206.867 6.13333 205.267 5.9 203.734 5.9C201.934 5.9 200.467 6.11666 199.334 6.55C198.234 6.98333 197.417 7.55 196.884 8.25C196.384 8.95 196.134 9.75 196.134 10.65C196.134 11.7167 196.5 12.5833 197.234 13.25C198 13.8833 198.984 14.3833 200.184 14.75C201.417 15.1167 202.784 15.4833 204.284 15.85C205.784 16.1833 207.267 16.5667 208.734 17C210.234 17.4333 211.584 18 212.784 18.7C214.017 19.4 215 20.35 215.734 21.55C216.5 22.75 216.884 24.2667 216.884 26.1C216.884 27.9667 216.367 29.7 215.334 31.3C214.334 32.8667 212.784 34.1333 210.684 35.1C208.584 36.0333 205.934 36.5 202.734 36.5ZM234.029 36.35C231.762 36.35 229.762 35.9333 228.029 35.1C226.296 34.2333 224.946 32.9333 223.979 31.2C223.012 29.4333 222.529 27.2167 222.529 24.55V9.3H228.779V23.7C228.779 26.1 229.312 27.9 230.379 29.1C231.479 30.2667 233.029 30.85 235.029 30.85C236.496 30.85 237.762 30.55 238.829 29.95C239.929 29.35 240.779 28.45 241.379 27.25C242.012 26.05 242.329 24.5667 242.329 22.8V9.3H248.579V36H242.629V28.8L243.679 31C242.779 32.7333 241.462 34.0667 239.729 35C237.996 35.9 236.096 36.35 234.029 36.35ZM271.562 36.35C269.395 36.35 267.412 35.85 265.612 34.85C263.845 33.85 262.429 32.35 261.362 30.35C260.329 28.3167 259.812 25.75 259.812 22.65C259.812 19.5167 260.312 16.95 261.312 14.95C262.345 12.95 263.745 11.4667 265.512 10.5C267.279 9.5 269.295 9 271.562 9C274.195 9 276.512 9.56667 278.512 10.7C280.545 11.8333 282.145 13.4167 283.312 15.45C284.512 17.4833 285.112 19.8833 285.112 22.65C285.112 25.4167 284.512 27.8333 283.312 29.9C282.145 31.9333 280.545 33.5167 278.512 34.65C276.512 35.7833 274.195 36.35 271.562 36.35ZM256.762 45.7V9.3H262.712V15.6L262.512 22.7L263.012 29.8V45.7H256.762ZM270.862 31C272.362 31 273.695 30.6667 274.862 30C276.062 29.3333 277.012 28.3667 277.712 27.1C278.412 25.8333 278.762 24.35 278.762 22.65C278.762 20.9167 278.412 19.4333 277.712 18.2C277.012 16.9333 276.062 15.9667 274.862 15.3C273.695 14.6333 272.362 14.3 270.862 14.3C269.362 14.3 268.012 14.6333 266.812 15.3C265.612 15.9667 264.662 16.9333 263.962 18.2C263.262 19.4333 262.912 20.9167 262.912 22.65C262.912 24.35 263.262 25.8333 263.962 27.1C264.662 28.3667 265.612 29.3333 266.812 30C268.012 30.6667 269.362 31 270.862 31ZM305.839 36.35C303.673 36.35 301.689 35.85 299.889 34.85C298.123 33.85 296.706 32.35 295.639 30.35C294.606 28.3167 294.089 25.75 294.089 22.65C294.089 19.5167 294.589 16.95 295.589 14.95C296.623 12.95 298.023 11.4667 299.789 10.5C301.556 9.5 303.573 9 305.839 9C308.473 9 310.789 9.56667 312.789 10.7C314.823 11.8333 316.423 13.4167 317.589 15.45C318.789 17.4833 319.389 19.8833 319.389 22.65C319.389 25.4167 318.789 27.8333 317.589 29.9C316.423 31.9333 314.823 33.5167 312.789 34.65C310.789 35.7833 308.473 36.35 305.839 36.35ZM291.039 45.7V9.3H296.989V15.6L296.789 22.7L297.289 29.8V45.7H291.039ZM305.139 31C306.639 31 307.973 30.6667 309.139 30C310.339 29.3333 311.289 28.3667 311.989 27.1C312.689 25.8333 313.039 24.35 313.039 22.65C313.039 20.9167 312.689 19.4333 311.989 18.2C311.289 16.9333 310.339 15.9667 309.139 15.3C307.973 14.6333 306.639 14.3 305.139 14.3C303.639 14.3 302.289 14.6333 301.089 15.3C299.889 15.9667 298.939 16.9333 298.239 18.2C297.539 19.4333 297.189 20.9167 297.189 22.65C297.189 24.35 297.539 25.8333 298.239 27.1C298.939 28.3667 299.889 29.3333 301.089 30C302.289 30.6667 303.639 31 305.139 31ZM337.317 36.35C334.583 36.35 332.15 35.7667 330.017 34.6C327.883 33.4 326.2 31.7667 324.967 29.7C323.733 27.6333 323.117 25.2833 323.117 22.65C323.117 19.9833 323.733 17.6333 324.967 15.6C326.2 13.5333 327.883 11.9167 330.017 10.75C332.15 9.58333 334.583 9 337.317 9C340.083 9 342.533 9.58333 344.667 10.75C346.833 11.9167 348.517 13.5167 349.717 15.55C350.95 17.5833 351.567 19.95 351.567 22.65C351.567 25.2833 350.95 27.6333 349.717 29.7C348.517 31.7667 346.833 33.4 344.667 34.6C342.533 35.7667 340.083 36.35 337.317 36.35ZM337.317 31C338.85 31 340.217 30.6667 341.417 30C342.617 29.3333 343.55 28.3667 344.217 27.1C344.917 25.8333 345.267 24.35 345.267 22.65C345.267 20.9167 344.917 19.4333 344.217 18.2C343.55 16.9333 342.617 15.9667 341.417 15.3C340.217 14.6333 338.867 14.3 337.367 14.3C335.833 14.3 334.467 14.6333 333.267 15.3C332.1 15.9667 331.167 16.9333 330.467 18.2C329.767 19.4333 329.417 20.9167 329.417 22.65C329.417 24.35 329.767 25.8333 330.467 27.1C331.167 28.3667 332.1 29.3333 333.267 30C334.467 30.6667 335.817 31 337.317 31ZM357.543 36V9.3H363.493V16.65L362.793 14.5C363.593 12.7 364.843 11.3333 366.543 10.4C368.277 9.46667 370.427 9 372.993 9V14.95C372.727 14.8833 372.477 14.85 372.243 14.85C372.01 14.8167 371.777 14.8 371.543 14.8C369.177 14.8 367.293 15.5 365.893 16.9C364.493 18.2667 363.793 20.3167 363.793 23.05V36H357.543ZM389.322 36.35C386.389 36.35 384.122 35.6 382.522 34.1C380.922 32.5667 380.122 30.3167 380.122 27.35V3.4H386.372V27.2C386.372 28.4667 386.689 29.45 387.322 30.15C387.989 30.85 388.905 31.2 390.072 31.2C391.472 31.2 392.639 30.8333 393.572 30.1L395.322 34.55C394.589 35.15 393.689 35.6 392.622 35.9C391.555 36.2 390.455 36.35 389.322 36.35ZM375.722 14.5V9.5H393.522V14.5H375.722ZM14.55 104.5C11.8167 104.5 9.2 104.117 6.7 103.35C4.2 102.55 2.21667 101.533 0.75 100.3L3 95.25C4.4 96.35 6.13333 97.2667 8.2 98C10.2667 98.7333 12.3833 99.1 14.55 99.1C16.3833 99.1 17.8667 98.9 19 98.5C20.1333 98.1 20.9667 97.5667 21.5 96.9C22.0333 96.2 22.3 95.4167 22.3 94.55C22.3 93.4833 21.9167 92.6333 21.15 92C20.3833 91.3333 19.3833 90.8167 18.15 90.45C16.95 90.05 15.6 89.6833 14.1 89.35C12.6333 89.0167 11.15 88.6333 9.65 88.2C8.18333 87.7333 6.83333 87.15 5.6 86.45C4.4 85.7167 3.41667 84.75 2.65 83.55C1.88333 82.35 1.5 80.8167 1.5 78.95C1.5 77.05 2 75.3167 3 73.75C4.03333 72.15 5.58333 70.8833 7.65 69.95C9.75 68.9833 12.4 68.5 15.6 68.5C17.7 68.5 19.7833 68.7667 21.85 69.3C23.9167 69.8333 25.7167 70.6 27.25 71.6L25.2 76.65C23.6333 75.7167 22.0167 75.0333 20.35 74.6C18.6833 74.1333 17.0833 73.9 15.55 73.9C13.75 73.9 12.2833 74.1167 11.15 74.55C10.05 74.9833 9.23333 75.55 8.7 76.25C8.2 76.95 7.95 77.75 7.95 78.65C7.95 79.7167 8.31667 80.5833 9.05 81.25C9.81667 81.8833 10.8 82.3833 12 82.75C13.2333 83.1167 14.6 83.4833 16.1 83.85C17.6 84.1833 19.0833 84.5667 20.55 85C22.05 85.4333 23.4 86 24.6 86.7C25.8333 87.4 26.8167 88.35 27.55 89.55C28.3167 90.75 28.7 92.2667 28.7 94.1C28.7 95.9667 28.1833 97.7 27.15 99.3C26.15 100.867 24.6 102.133 22.5 103.1C20.4 104.033 17.75 104.5 14.55 104.5ZM36.257 114.05C34.957 114.05 33.657 113.833 32.357 113.4C31.057 112.967 29.9737 112.367 29.107 111.6L31.607 107C32.2404 107.567 32.957 108.017 33.757 108.35C34.557 108.683 35.3737 108.85 36.207 108.85C37.3404 108.85 38.257 108.567 38.957 108C39.657 107.433 40.307 106.483 40.907 105.15L42.457 101.65L42.957 100.9L53.057 77.3H59.057L46.557 106.15C45.7237 108.15 44.7904 109.733 43.757 110.9C42.757 112.067 41.6237 112.883 40.357 113.35C39.1237 113.817 37.757 114.05 36.257 114.05ZM41.757 104.95L29.707 77.3H36.207L46.007 100.35L41.757 104.95ZM70.8715 104.35C68.6382 104.35 66.4882 104.067 64.4215 103.5C62.3882 102.9 60.7715 102.183 59.5715 101.35L61.9715 96.6C63.1715 97.3667 64.6048 98 66.2715 98.5C67.9382 99 69.6048 99.25 71.2715 99.25C73.2382 99.25 74.6548 98.9833 75.5215 98.45C76.4215 97.9167 76.8715 97.2 76.8715 96.3C76.8715 95.5667 76.5715 95.0167 75.9715 94.65C75.3715 94.25 74.5882 93.95 73.6215 93.75C72.6548 93.55 71.5715 93.3667 70.3715 93.2C69.2048 93.0333 68.0215 92.8167 66.8215 92.55C65.6548 92.25 64.5882 91.8333 63.6215 91.3C62.6548 90.7333 61.8715 89.9833 61.2715 89.05C60.6715 88.1167 60.3715 86.8833 60.3715 85.35C60.3715 83.65 60.8548 82.1833 61.8215 80.95C62.7882 79.6833 64.1382 78.7167 65.8715 78.05C67.6382 77.35 69.7215 77 72.1215 77C73.9215 77 75.7382 77.2 77.5715 77.6C79.4048 78 80.9215 78.5667 82.1215 79.3L79.7215 84.05C78.4548 83.2833 77.1715 82.7667 75.8715 82.5C74.6048 82.2 73.3382 82.05 72.0715 82.05C70.1715 82.05 68.7548 82.3333 67.8215 82.9C66.9215 83.4667 66.4715 84.1833 66.4715 85.05C66.4715 85.85 66.7715 86.45 67.3715 86.85C67.9715 87.25 68.7548 87.5667 69.7215 87.8C70.6882 88.0333 71.7548 88.2333 72.9215 88.4C74.1215 88.5333 75.3048 88.75 76.4715 89.05C77.6382 89.35 78.7048 89.7667 79.6715 90.3C80.6715 90.8 81.4715 91.5167 82.0715 92.45C82.6715 93.3833 82.9715 94.6 82.9715 96.1C82.9715 97.7667 82.4715 99.2167 81.4715 100.45C80.5048 101.683 79.1215 102.65 77.3215 103.35C75.5215 104.017 73.3715 104.35 70.8715 104.35ZM98.4039 104.35C95.4706 104.35 93.2039 103.6 91.6039 102.1C90.0039 100.567 89.2039 98.3167 89.2039 95.35V71.4H95.4539V95.2C95.4539 96.4667 95.7706 97.45 96.4039 98.15C97.0706 98.85 97.9872 99.2 99.1539 99.2C100.554 99.2 101.721 98.8333 102.654 98.1L104.404 102.55C103.671 103.15 102.771 103.6 101.704 103.9C100.637 104.2 99.5372 104.35 98.4039 104.35ZM84.8039 82.5V77.5H102.604V82.5H84.8039ZM121.216 104.35C118.25 104.35 115.65 103.767 113.416 102.6C111.216 101.4 109.5 99.7667 108.266 97.7C107.066 95.6333 106.466 93.2833 106.466 90.65C106.466 87.9833 107.05 85.6333 108.216 83.6C109.416 81.5333 111.05 79.9167 113.116 78.75C115.216 77.5833 117.6 77 120.266 77C122.866 77 125.183 77.5667 127.216 78.7C129.25 79.8333 130.85 81.4333 132.016 83.5C133.183 85.5667 133.766 88 133.766 90.8C133.766 91.0667 133.75 91.3667 133.716 91.7C133.716 92.0333 133.7 92.35 133.666 92.65H111.416V88.5H130.366L127.916 89.8C127.95 88.2667 127.633 86.9167 126.966 85.75C126.3 84.5833 125.383 83.6667 124.216 83C123.083 82.3333 121.766 82 120.266 82C118.733 82 117.383 82.3333 116.216 83C115.083 83.6667 114.183 84.6 113.516 85.8C112.883 86.9667 112.566 88.35 112.566 89.95V90.95C112.566 92.55 112.933 93.9667 113.666 95.2C114.4 96.4333 115.433 97.3833 116.766 98.05C118.1 98.7167 119.633 99.05 121.366 99.05C122.866 99.05 124.216 98.8167 125.416 98.35C126.616 97.8833 127.683 97.15 128.616 96.15L131.966 100C130.766 101.4 129.25 102.483 127.416 103.25C125.616 103.983 123.55 104.35 121.216 104.35ZM173.47 77C175.603 77 177.487 77.4167 179.12 78.25C180.787 79.0833 182.087 80.3667 183.02 82.1C183.953 83.8 184.42 86 184.42 88.7V104H178.17V89.5C178.17 87.1333 177.653 85.3667 176.62 84.2C175.587 83.0333 174.103 82.45 172.17 82.45C170.803 82.45 169.587 82.75 168.52 83.35C167.487 83.95 166.67 84.8333 166.07 86C165.503 87.1667 165.22 88.65 165.22 90.45V104H158.97V89.5C158.97 87.1333 158.453 85.3667 157.42 84.2C156.387 83.0333 154.903 82.45 152.97 82.45C151.603 82.45 150.387 82.75 149.32 83.35C148.287 83.95 147.47 84.8333 146.87 86C146.303 87.1667 146.02 88.65 146.02 90.45V104H139.77V77.3H145.72V84.4L144.67 82.3C145.57 80.5667 146.87 79.25 148.57 78.35C150.303 77.45 152.27 77 154.47 77C156.97 77 159.137 77.6167 160.97 78.85C162.837 80.0833 164.07 81.95 164.67 84.45L162.22 83.6C163.087 81.6 164.52 80 166.52 78.8C168.52 77.6 170.837 77 173.47 77Z" fill="#020126"/>
</svg>
