<svg width="413" height="40" viewBox="0 0 413 40" fill="none" xmlns="http://www.w3.org/2000/svg">
<path d="M0.75 39L16.5 4H22.9L38.7 39H31.9L18.35 7.45H20.95L7.45 39H0.75ZM8 30.9L9.75 25.8H28.65L30.4 30.9H8ZM64.0695 39V9.5H52.4695V4H82.1695V9.5H70.5695V39H64.0695ZM85.8129 39V12.3H91.7629V19.65L91.0629 17.5C91.8629 15.7 93.1129 14.3333 94.8129 13.4C96.5462 12.4667 98.6962 12 101.263 12V17.95C100.996 17.8833 100.746 17.85 100.513 17.85C100.28 17.8167 100.046 17.8 99.8129 17.8C97.4462 17.8 95.5629 18.5 94.1629 19.9C92.7629 21.2667 92.0629 23.3167 92.0629 26.05V39H85.8129ZM118.109 39.35C115.842 39.35 113.842 38.9333 112.109 38.1C110.376 37.2333 109.026 35.9333 108.059 34.2C107.092 32.4333 106.609 30.2167 106.609 27.55V12.3H112.859V26.7C112.859 29.1 113.392 30.9 114.459 32.1C115.559 33.2667 117.109 33.85 119.109 33.85C120.576 33.85 121.842 33.55 122.909 32.95C124.009 32.35 124.859 31.45 125.459 30.25C126.092 29.05 126.409 27.5667 126.409 25.8V12.3H132.659V39H126.709V31.8L127.759 34C126.859 35.7333 125.542 37.0667 123.809 38C122.076 38.9 120.176 39.35 118.109 39.35ZM149.092 39.35C146.859 39.35 144.709 39.0667 142.642 38.5C140.609 37.9 138.992 37.1833 137.792 36.35L140.192 31.6C141.392 32.3667 142.826 33 144.492 33.5C146.159 34 147.826 34.25 149.492 34.25C151.459 34.25 152.876 33.9833 153.742 33.45C154.642 32.9167 155.092 32.2 155.092 31.3C155.092 30.5667 154.792 30.0167 154.192 29.65C153.592 29.25 152.809 28.95 151.842 28.75C150.876 28.55 149.792 28.3667 148.592 28.2C147.426 28.0333 146.242 27.8167 145.042 27.55C143.876 27.25 142.809 26.8333 141.842 26.3C140.876 25.7333 140.092 24.9833 139.492 24.05C138.892 23.1167 138.592 21.8833 138.592 20.35C138.592 18.65 139.076 17.1833 140.042 15.95C141.009 14.6833 142.359 13.7167 144.092 13.05C145.859 12.35 147.942 12 150.342 12C152.142 12 153.959 12.2 155.792 12.6C157.626 13 159.142 13.5667 160.342 14.3L157.942 19.05C156.676 18.2833 155.392 17.7667 154.092 17.5C152.826 17.2 151.559 17.05 150.292 17.05C148.392 17.05 146.976 17.3333 146.042 17.9C145.142 18.4667 144.692 19.1833 144.692 20.05C144.692 20.85 144.992 21.45 145.592 21.85C146.192 22.25 146.976 22.5667 147.942 22.8C148.909 23.0333 149.976 23.2333 151.142 23.4C152.342 23.5333 153.526 23.75 154.692 24.05C155.859 24.35 156.926 24.7667 157.892 25.3C158.892 25.8 159.692 26.5167 160.292 27.45C160.892 28.3833 161.192 29.6 161.192 31.1C161.192 32.7667 160.692 34.2167 159.692 35.45C158.726 36.6833 157.342 37.65 155.542 38.35C153.742 39.0167 151.592 39.35 149.092 39.35ZM176.625 39.35C173.691 39.35 171.425 38.6 169.825 37.1C168.225 35.5667 167.425 33.3167 167.425 30.35V6.4H173.675V30.2C173.675 31.4667 173.991 32.45 174.625 33.15C175.291 33.85 176.208 34.2 177.375 34.2C178.775 34.2 179.941 33.8333 180.875 33.1L182.625 37.55C181.891 38.15 180.991 38.6 179.925 38.9C178.858 39.2 177.758 39.35 176.625 39.35ZM163.025 17.5V12.5H180.825V17.5H163.025ZM199.437 39.35C196.47 39.35 193.87 38.7667 191.637 37.6C189.437 36.4 187.72 34.7667 186.487 32.7C185.287 30.6333 184.687 28.2833 184.687 25.65C184.687 22.9833 185.27 20.6333 186.437 18.6C187.637 16.5333 189.27 14.9167 191.337 13.75C193.437 12.5833 195.82 12 198.487 12C201.087 12 203.404 12.5667 205.437 13.7C207.47 14.8333 209.07 16.4333 210.237 18.5C211.404 20.5667 211.987 23 211.987 25.8C211.987 26.0667 211.97 26.3667 211.937 26.7C211.937 27.0333 211.92 27.35 211.887 27.65H189.637V23.5H208.587L206.137 24.8C206.17 23.2667 205.854 21.9167 205.187 20.75C204.52 19.5833 203.604 18.6667 202.437 18C201.304 17.3333 199.987 17 198.487 17C196.954 17 195.604 17.3333 194.437 18C193.304 18.6667 192.404 19.6 191.737 20.8C191.104 21.9667 190.787 23.35 190.787 24.95V25.95C190.787 27.55 191.154 28.9667 191.887 30.2C192.62 31.4333 193.654 32.3833 194.987 33.05C196.32 33.7167 197.854 34.05 199.587 34.05C201.087 34.05 202.437 33.8167 203.637 33.35C204.837 32.8833 205.904 32.15 206.837 31.15L210.187 35C208.987 36.4 207.47 37.4833 205.637 38.25C203.837 38.9833 201.77 39.35 199.437 39.35ZM229.291 39.35C226.724 39.35 224.407 38.7833 222.341 37.65C220.307 36.4833 218.707 34.8833 217.541 32.85C216.374 30.8167 215.791 28.4167 215.791 25.65C215.791 22.8833 216.374 20.4833 217.541 18.45C218.707 16.4167 220.307 14.8333 222.341 13.7C224.407 12.5667 226.724 12 229.291 12C231.524 12 233.524 12.5 235.291 13.5C237.057 14.4667 238.457 15.95 239.491 17.95C240.524 19.95 241.041 22.5167 241.041 25.65C241.041 28.75 240.541 31.3167 239.541 33.35C238.541 35.35 237.157 36.85 235.391 37.85C233.624 38.85 231.591 39.35 229.291 39.35ZM230.041 34C231.541 34 232.874 33.6667 234.041 33C235.241 32.3333 236.191 31.3667 236.891 30.1C237.624 28.8333 237.991 27.35 237.991 25.65C237.991 23.9167 237.624 22.4333 236.891 21.2C236.191 19.9333 235.241 18.9667 234.041 18.3C232.874 17.6333 231.541 17.3 230.041 17.3C228.541 17.3 227.191 17.6333 225.991 18.3C224.824 18.9667 223.874 19.9333 223.141 21.2C222.441 22.4333 222.091 23.9167 222.091 25.65C222.091 27.35 222.441 28.8333 223.141 30.1C223.874 31.3667 224.824 32.3333 225.991 33C227.191 33.6667 228.541 34 230.041 34ZM238.141 39V32.7L238.391 25.6L237.891 18.5V1.9H244.091V39H238.141ZM283.085 39.5C280.352 39.5 277.835 39.0667 275.535 38.2C273.268 37.3 271.285 36.05 269.585 34.45C267.885 32.8167 266.568 30.9 265.635 28.7C264.702 26.5 264.235 24.1 264.235 21.5C264.235 18.9 264.702 16.5 265.635 14.3C266.568 12.1 267.885 10.2 269.585 8.6C271.318 6.96667 273.335 5.71667 275.635 4.85C277.935 3.95 280.452 3.5 283.185 3.5C286.152 3.5 288.818 3.98333 291.185 4.95C293.585 5.91667 295.602 7.33333 297.235 9.2L293.135 13.2C291.768 11.8333 290.285 10.8333 288.685 10.2C287.118 9.53333 285.385 9.2 283.485 9.2C281.652 9.2 279.952 9.5 278.385 10.1C276.818 10.7 275.468 11.55 274.335 12.65C273.202 13.75 272.318 15.05 271.685 16.55C271.085 18.05 270.785 19.7 270.785 21.5C270.785 23.2667 271.085 24.9 271.685 26.4C272.318 27.9 273.202 29.2167 274.335 30.35C275.468 31.45 276.802 32.3 278.335 32.9C279.868 33.5 281.568 33.8 283.435 33.8C285.168 33.8 286.835 33.5333 288.435 33C290.068 32.4333 291.618 31.5 293.085 30.2L296.785 35.05C294.952 36.5167 292.818 37.6333 290.385 38.4C287.985 39.1333 285.552 39.5 283.085 39.5ZM290.635 34.2V21.1H296.785V35.05L290.635 34.2ZM316.058 39.35C313.792 39.35 311.792 38.9333 310.058 38.1C308.325 37.2333 306.975 35.9333 306.008 34.2C305.042 32.4333 304.558 30.2167 304.558 27.55V12.3H310.808V26.7C310.808 29.1 311.342 30.9 312.408 32.1C313.508 33.2667 315.058 33.85 317.058 33.85C318.525 33.85 319.792 33.55 320.858 32.95C321.958 32.35 322.808 31.45 323.408 30.25C324.042 29.05 324.358 27.5667 324.358 25.8V12.3H330.608V39H324.658V31.8L325.708 34C324.808 35.7333 323.492 37.0667 321.758 38C320.025 38.9 318.125 39.35 316.058 39.35ZM338.791 39V12.3H345.041V39H338.791ZM341.941 7.9C340.775 7.9 339.808 7.53333 339.041 6.8C338.308 6.06667 337.941 5.18333 337.941 4.15C337.941 3.08333 338.308 2.2 339.041 1.5C339.808 0.766665 340.775 0.399999 341.941 0.399999C343.108 0.399999 344.058 0.749999 344.791 1.45C345.558 2.11667 345.941 2.96667 345.941 4C345.941 5.1 345.575 6.03333 344.841 6.8C344.108 7.53333 343.141 7.9 341.941 7.9ZM364.545 39.35C361.978 39.35 359.661 38.7833 357.595 37.65C355.561 36.4833 353.961 34.8833 352.795 32.85C351.628 30.8167 351.045 28.4167 351.045 25.65C351.045 22.8833 351.628 20.4833 352.795 18.45C353.961 16.4167 355.561 14.8333 357.595 13.7C359.661 12.5667 361.978 12 364.545 12C366.778 12 368.778 12.5 370.545 13.5C372.311 14.4667 373.711 15.95 374.745 17.95C375.778 19.95 376.295 22.5167 376.295 25.65C376.295 28.75 375.795 31.3167 374.795 33.35C373.795 35.35 372.411 36.85 370.645 37.85C368.878 38.85 366.845 39.35 364.545 39.35ZM365.295 34C366.795 34 368.128 33.6667 369.295 33C370.495 32.3333 371.445 31.3667 372.145 30.1C372.878 28.8333 373.245 27.35 373.245 25.65C373.245 23.9167 372.878 22.4333 372.145 21.2C371.445 19.9333 370.495 18.9667 369.295 18.3C368.128 17.6333 366.795 17.3 365.295 17.3C363.795 17.3 362.445 17.6333 361.245 18.3C360.078 18.9667 359.128 19.9333 358.395 21.2C357.695 22.4333 357.345 23.9167 357.345 25.65C357.345 27.35 357.695 28.8333 358.395 30.1C359.128 31.3667 360.078 32.3333 361.245 33C362.445 33.6667 363.795 34 365.295 34ZM373.395 39V32.7L373.645 25.6L373.145 18.5V1.9H379.345V39H373.395ZM400.121 39.35C397.154 39.35 394.554 38.7667 392.321 37.6C390.121 36.4 388.404 34.7667 387.171 32.7C385.971 30.6333 385.371 28.2833 385.371 25.65C385.371 22.9833 385.954 20.6333 387.121 18.6C388.321 16.5333 389.954 14.9167 392.021 13.75C394.121 12.5833 396.504 12 399.171 12C401.771 12 404.087 12.5667 406.121 13.7C408.154 14.8333 409.754 16.4333 410.921 18.5C412.087 20.5667 412.671 23 412.671 25.8C412.671 26.0667 412.654 26.3667 412.621 26.7C412.621 27.0333 412.604 27.35 412.571 27.65H390.321V23.5H409.271L406.821 24.8C406.854 23.2667 406.537 21.9167 405.871 20.75C405.204 19.5833 404.287 18.6667 403.121 18C401.987 17.3333 400.671 17 399.171 17C397.637 17 396.287 17.3333 395.121 18C393.987 18.6667 393.087 19.6 392.421 20.8C391.787 21.9667 391.471 23.35 391.471 24.95V25.95C391.471 27.55 391.837 28.9667 392.571 30.2C393.304 31.4333 394.337 32.3833 395.671 33.05C397.004 33.7167 398.537 34.05 400.271 34.05C401.771 34.05 403.121 33.8167 404.321 33.35C405.521 32.8833 406.587 32.15 407.521 31.15L410.871 35C409.671 36.4 408.154 37.4833 406.321 38.25C404.521 38.9833 402.454 39.35 400.121 39.35Z" fill="white"/>
</svg>
