<svg width="465" height="73" viewBox="0 0 465 73" fill="none" xmlns="http://www.w3.org/2000/svg">
<path d="M8.19 22L1.11 0.999999H3.39L10.02 20.77H8.88L15.72 0.999999H17.76L24.51 20.77H23.43L30.12 0.999999H32.25L25.17 22H22.83L16.38 3.25H16.98L10.5 22H8.19ZM40.4592 22.15C38.8192 22.15 37.3792 21.81 36.1392 21.13C34.8992 20.43 33.9292 19.48 33.2292 18.28C32.5292 17.06 32.1792 15.67 32.1792 14.11C32.1792 12.55 32.5092 11.17 33.1692 9.97C33.8492 8.77 34.7692 7.83 35.9292 7.15C37.1092 6.45 38.4292 6.1 39.8892 6.1C41.3692 6.1 42.6792 6.44 43.8192 7.12C44.9792 7.78 45.8892 8.72 46.5492 9.94C47.2092 11.14 47.5392 12.53 47.5392 14.11C47.5392 14.21 47.5292 14.32 47.5092 14.44C47.5092 14.54 47.5092 14.65 47.5092 14.77H33.7992V13.18H46.3692L45.5292 13.81C45.5292 12.67 45.2792 11.66 44.7792 10.78C44.2992 9.88 43.6392 9.18 42.7992 8.68C41.9592 8.18 40.9892 7.93 39.8892 7.93C38.8092 7.93 37.8392 8.18 36.9792 8.68C36.1192 9.18 35.4492 9.88 34.9692 10.78C34.4892 11.68 34.2492 12.71 34.2492 13.87V14.2C34.2492 15.4 34.5092 16.46 35.0292 17.38C35.5692 18.28 36.3092 18.99 37.2492 19.51C38.2092 20.01 39.2992 20.26 40.5192 20.26C41.4792 20.26 42.3692 20.09 43.1892 19.75C44.0292 19.41 44.7492 18.89 45.3492 18.19L46.5492 19.57C45.8492 20.41 44.9692 21.05 43.9092 21.49C42.8692 21.93 41.7192 22.15 40.4592 22.15ZM64.6163 22.15C62.9762 22.15 61.5362 21.81 60.2962 21.13C59.0562 20.43 58.0862 19.48 57.3862 18.28C56.6862 17.06 56.3362 15.67 56.3362 14.11C56.3362 12.55 56.6662 11.17 57.3262 9.97C58.0062 8.77 58.9262 7.83 60.0862 7.15C61.2662 6.45 62.5862 6.1 64.0462 6.1C65.5262 6.1 66.8362 6.44 67.9762 7.12C69.1362 7.78 70.0462 8.72 70.7063 9.94C71.3663 11.14 71.6963 12.53 71.6963 14.11C71.6963 14.21 71.6863 14.32 71.6663 14.44C71.6663 14.54 71.6663 14.65 71.6663 14.77H57.9562V13.18H70.5263L69.6863 13.81C69.6863 12.67 69.4362 11.66 68.9362 10.78C68.4563 9.88 67.7962 9.18 66.9562 8.68C66.1162 8.18 65.1462 7.93 64.0462 7.93C62.9662 7.93 61.9962 8.18 61.1362 8.68C60.2762 9.18 59.6062 9.88 59.1262 10.78C58.6462 11.68 58.4062 12.71 58.4062 13.87V14.2C58.4062 15.4 58.6662 16.46 59.1862 17.38C59.7262 18.28 60.4662 18.99 61.4062 19.51C62.3662 20.01 63.4562 20.26 64.6762 20.26C65.6362 20.26 66.5262 20.09 67.3462 19.75C68.1862 19.41 68.9062 18.89 69.5062 18.19L70.7063 19.57C70.0062 20.41 69.1262 21.05 68.0662 21.49C67.0262 21.93 65.8762 22.15 64.6163 22.15ZM94.8117 6.1C96.0917 6.1 97.2017 6.35 98.1417 6.85C99.1017 7.33 99.8417 8.07 100.362 9.07C100.902 10.07 101.172 11.33 101.172 12.85V22H99.0417V13.06C99.0417 11.4 98.6417 10.15 97.8417 9.31C97.0617 8.45 95.9517 8.02 94.5117 8.02C93.4317 8.02 92.4917 8.25 91.6917 8.71C90.9117 9.15 90.3017 9.8 89.8617 10.66C89.4417 11.5 89.2317 12.52 89.2317 13.72V22H87.1017V13.06C87.1017 11.4 86.7017 10.15 85.9017 9.31C85.1017 8.45 83.9817 8.02 82.5417 8.02C81.4817 8.02 80.5517 8.25 79.7517 8.71C78.9517 9.15 78.3317 9.8 77.8917 10.66C77.4717 11.5 77.2617 12.52 77.2617 13.72V22H75.1317V6.25H77.1717V10.51L76.8417 9.76C77.3217 8.62 78.0917 7.73 79.1517 7.09C80.2317 6.43 81.5017 6.1 82.9617 6.1C84.5017 6.1 85.8117 6.49 86.8917 7.27C87.9717 8.03 88.6717 9.18 88.9917 10.72L88.1517 10.39C88.6117 9.11 89.4217 8.08 90.5817 7.3C91.7617 6.5 93.1717 6.1 94.8117 6.1ZM114.178 22.15C112.818 22.15 111.588 21.84 110.488 21.22C109.388 20.58 108.508 19.67 107.848 18.49C107.208 17.29 106.888 15.83 106.888 14.11C106.888 12.39 107.208 10.94 107.848 9.76C108.488 8.56 109.358 7.65 110.458 7.03C111.558 6.41 112.798 6.1 114.178 6.1C115.678 6.1 117.018 6.44 118.198 7.12C119.398 7.78 120.338 8.72 121.018 9.94C121.698 11.14 122.038 12.53 122.038 14.11C122.038 15.71 121.698 17.11 121.018 18.31C120.338 19.51 119.398 20.45 118.198 21.13C117.018 21.81 115.678 22.15 114.178 22.15ZM106.048 27.82V6.25H108.088V10.99L107.878 14.14L108.178 17.32V27.82H106.048ZM114.028 20.26C115.148 20.26 116.148 20.01 117.028 19.51C117.908 18.99 118.608 18.27 119.128 17.35C119.648 16.41 119.908 15.33 119.908 14.11C119.908 12.89 119.648 11.82 119.128 10.9C118.608 9.98 117.908 9.26 117.028 8.74C116.148 8.22 115.148 7.96 114.028 7.96C112.908 7.96 111.898 8.22 110.998 8.74C110.118 9.26 109.418 9.98 108.898 10.9C108.398 11.82 108.148 12.89 108.148 14.11C108.148 15.33 108.398 16.41 108.898 17.35C109.418 18.27 110.118 18.99 110.998 19.51C111.898 20.01 112.908 20.26 114.028 20.26ZM131.9 22.15C130.38 22.15 129.01 21.81 127.79 21.13C126.59 20.43 125.64 19.48 124.94 18.28C124.24 17.06 123.89 15.67 123.89 14.11C123.89 12.53 124.24 11.14 124.94 9.94C125.64 8.74 126.59 7.8 127.79 7.12C128.99 6.44 130.36 6.1 131.9 6.1C133.46 6.1 134.84 6.44 136.04 7.12C137.26 7.8 138.21 8.74 138.89 9.94C139.59 11.14 139.94 12.53 139.94 14.11C139.94 15.67 139.59 17.06 138.89 18.28C138.21 19.48 137.26 20.43 136.04 21.13C134.82 21.81 133.44 22.15 131.9 22.15ZM131.9 20.26C133.04 20.26 134.05 20.01 134.93 19.51C135.81 18.99 136.5 18.27 137 17.35C137.52 16.41 137.78 15.33 137.78 14.11C137.78 12.87 137.52 11.79 137 10.87C136.5 9.95 135.81 9.24 134.93 8.74C134.05 8.22 133.05 7.96 131.93 7.96C130.81 7.96 129.81 8.22 128.93 8.74C128.05 9.24 127.35 9.95 126.83 10.87C126.31 11.79 126.05 12.87 126.05 14.11C126.05 15.33 126.31 16.41 126.83 17.35C127.35 18.27 128.05 18.99 128.93 19.51C129.81 20.01 130.8 20.26 131.9 20.26ZM146.159 22L140.219 6.25H142.259L147.659 20.86H146.729L152.279 6.25H154.109L159.599 20.86H158.669L164.159 6.25H166.109L160.139 22H158.129L152.849 8.26H153.479L148.169 22H146.159ZM174.667 22.15C173.027 22.15 171.587 21.81 170.347 21.13C169.107 20.43 168.137 19.48 167.437 18.28C166.737 17.06 166.387 15.67 166.387 14.11C166.387 12.55 166.717 11.17 167.377 9.97C168.057 8.77 168.977 7.83 170.137 7.15C171.317 6.45 172.637 6.1 174.097 6.1C175.577 6.1 176.887 6.44 178.027 7.12C179.187 7.78 180.097 8.72 180.757 9.94C181.417 11.14 181.747 12.53 181.747 14.11C181.747 14.21 181.737 14.32 181.717 14.44C181.717 14.54 181.717 14.65 181.717 14.77H168.007V13.18H180.577L179.737 13.81C179.737 12.67 179.487 11.66 178.987 10.78C178.507 9.88 177.847 9.18 177.007 8.68C176.167 8.18 175.197 7.93 174.097 7.93C173.017 7.93 172.047 8.18 171.187 8.68C170.327 9.18 169.657 9.88 169.177 10.78C168.697 11.68 168.457 12.71 168.457 13.87V14.2C168.457 15.4 168.717 16.46 169.237 17.38C169.777 18.28 170.517 18.99 171.457 19.51C172.417 20.01 173.507 20.26 174.727 20.26C175.687 20.26 176.577 20.09 177.397 19.75C178.237 19.41 178.957 18.89 179.557 18.19L180.757 19.57C180.057 20.41 179.177 21.05 178.117 21.49C177.077 21.93 175.927 22.15 174.667 22.15ZM185.182 22V6.25H187.222V10.54L187.012 9.79C187.452 8.59 188.192 7.68 189.232 7.06C190.272 6.42 191.562 6.1 193.102 6.1V8.17C193.022 8.17 192.942 8.17 192.862 8.17C192.782 8.15 192.702 8.14 192.622 8.14C190.962 8.14 189.662 8.65 188.722 9.67C187.782 10.67 187.312 12.1 187.312 13.96V22H185.182ZM205.645 16.78L205.555 14.08L218.275 0.999999H220.825L211.555 10.72L210.295 12.07L205.645 16.78ZM203.725 22V0.999999H205.945V22H203.725ZM218.815 22L209.755 11.56L211.255 9.94L221.455 22H218.815ZM229.391 22.15C227.871 22.15 226.501 21.81 225.281 21.13C224.081 20.43 223.131 19.48 222.431 18.28C221.731 17.06 221.381 15.67 221.381 14.11C221.381 12.53 221.731 11.14 222.431 9.94C223.131 8.74 224.081 7.8 225.281 7.12C226.481 6.44 227.851 6.1 229.391 6.1C230.951 6.1 232.331 6.44 233.531 7.12C234.751 7.8 235.701 8.74 236.381 9.94C237.081 11.14 237.431 12.53 237.431 14.11C237.431 15.67 237.081 17.06 236.381 18.28C235.701 19.48 234.751 20.43 233.531 21.13C232.311 21.81 230.931 22.15 229.391 22.15ZM229.391 20.26C230.531 20.26 231.541 20.01 232.421 19.51C233.301 18.99 233.991 18.27 234.491 17.35C235.011 16.41 235.271 15.33 235.271 14.11C235.271 12.87 235.011 11.79 234.491 10.87C233.991 9.95 233.301 9.24 232.421 8.74C231.541 8.22 230.541 7.96 229.421 7.96C228.301 7.96 227.301 8.22 226.421 8.74C225.541 9.24 224.841 9.95 224.321 10.87C223.801 11.79 223.541 12.87 223.541 14.11C223.541 15.33 223.801 16.41 224.321 17.35C224.841 18.27 225.541 18.99 226.421 19.51C227.301 20.01 228.291 20.26 229.391 20.26ZM240.879 22V6.25H242.919V10.54L242.709 9.79C243.149 8.59 243.889 7.68 244.929 7.06C245.969 6.42 247.259 6.1 248.799 6.1V8.17C248.719 8.17 248.639 8.17 248.559 8.17C248.479 8.15 248.399 8.14 248.319 8.14C246.659 8.14 245.359 8.65 244.419 9.67C243.479 10.67 243.009 12.1 243.009 13.96V22H240.879ZM258.33 22.15C256.69 22.15 255.25 21.81 254.01 21.13C252.77 20.43 251.8 19.48 251.1 18.28C250.4 17.06 250.05 15.67 250.05 14.11C250.05 12.55 250.38 11.17 251.04 9.97C251.72 8.77 252.64 7.83 253.8 7.15C254.98 6.45 256.3 6.1 257.76 6.1C259.24 6.1 260.55 6.44 261.69 7.12C262.85 7.78 263.76 8.72 264.42 9.94C265.08 11.14 265.41 12.53 265.41 14.11C265.41 14.21 265.4 14.32 265.38 14.44C265.38 14.54 265.38 14.65 265.38 14.77H251.67V13.18H264.24L263.4 13.81C263.4 12.67 263.15 11.66 262.65 10.78C262.17 9.88 261.51 9.18 260.67 8.68C259.83 8.18 258.86 7.93 257.76 7.93C256.68 7.93 255.71 8.18 254.85 8.68C253.99 9.18 253.32 9.88 252.84 10.78C252.36 11.68 252.12 12.71 252.12 13.87V14.2C252.12 15.4 252.38 16.46 252.9 17.38C253.44 18.28 254.18 18.99 255.12 19.51C256.08 20.01 257.17 20.26 258.39 20.26C259.35 20.26 260.24 20.09 261.06 19.75C261.9 19.41 262.62 18.89 263.22 18.19L264.42 19.57C263.72 20.41 262.84 21.05 261.78 21.49C260.74 21.93 259.59 22.15 258.33 22.15ZM278.276 22V18.52L278.186 17.95V12.13C278.186 10.79 277.806 9.76 277.046 9.04C276.306 8.32 275.196 7.96 273.716 7.96C272.696 7.96 271.726 8.13 270.806 8.47C269.886 8.81 269.106 9.26 268.466 9.82L267.506 8.23C268.306 7.55 269.266 7.03 270.386 6.67C271.506 6.29 272.686 6.1 273.926 6.1C275.966 6.1 277.536 6.61 278.636 7.63C279.756 8.63 280.316 10.16 280.316 12.22V22H278.276ZM272.846 22.15C271.666 22.15 270.636 21.96 269.756 21.58C268.896 21.18 268.236 20.64 267.776 19.96C267.316 19.26 267.086 18.46 267.086 17.56C267.086 16.74 267.276 16 267.656 15.34C268.056 14.66 268.696 14.12 269.576 13.72C270.476 13.3 271.676 13.09 273.176 13.09H278.606V14.68H273.236C271.716 14.68 270.656 14.95 270.056 15.49C269.476 16.03 269.186 16.7 269.186 17.5C269.186 18.4 269.536 19.12 270.236 19.66C270.936 20.2 271.916 20.47 273.176 20.47C274.376 20.47 275.406 20.2 276.266 19.66C277.146 19.1 277.786 18.3 278.186 17.26L278.666 18.73C278.266 19.77 277.566 20.6 276.566 21.22C275.586 21.84 274.346 22.15 272.846 22.15ZM293.241 6.1C294.521 6.1 295.641 6.35 296.601 6.85C297.581 7.33 298.341 8.07 298.881 9.07C299.441 10.07 299.721 11.33 299.721 12.85V22H297.591V13.06C297.591 11.4 297.171 10.15 296.331 9.31C295.511 8.45 294.351 8.02 292.851 8.02C291.731 8.02 290.751 8.25 289.911 8.71C289.091 9.15 288.451 9.8 287.991 10.66C287.551 11.5 287.331 12.52 287.331 13.72V22H285.201V6.25H287.241V10.57L286.911 9.76C287.411 8.62 288.211 7.73 289.311 7.09C290.411 6.43 291.721 6.1 293.241 6.1ZM317.766 22.18C316.206 22.18 314.706 21.93 313.266 21.43C311.846 20.91 310.746 20.25 309.966 19.45L310.836 17.74C311.576 18.46 312.566 19.07 313.806 19.57C315.066 20.05 316.386 20.29 317.766 20.29C319.086 20.29 320.156 20.13 320.976 19.81C321.816 19.47 322.426 19.02 322.806 18.46C323.206 17.9 323.406 17.28 323.406 16.6C323.406 15.78 323.166 15.12 322.686 14.62C322.226 14.12 321.616 13.73 320.856 13.45C320.096 13.15 319.256 12.89 318.336 12.67C317.416 12.45 316.496 12.22 315.576 11.98C314.656 11.72 313.806 11.38 313.026 10.96C312.266 10.54 311.646 9.99 311.166 9.31C310.706 8.61 310.476 7.7 310.476 6.58C310.476 5.54 310.746 4.59 311.286 3.73C311.846 2.85 312.696 2.15 313.836 1.63C314.976 1.09 316.436 0.819999 318.216 0.819999C319.396 0.819999 320.566 0.989999 321.726 1.33C322.886 1.65 323.886 2.1 324.726 2.68L323.976 4.45C323.076 3.85 322.116 3.41 321.096 3.13C320.096 2.85 319.126 2.71 318.186 2.71C316.926 2.71 315.886 2.88 315.066 3.22C314.246 3.56 313.636 4.02 313.236 4.6C312.856 5.16 312.666 5.8 312.666 6.52C312.666 7.34 312.896 8 313.356 8.5C313.836 9 314.456 9.39 315.216 9.67C315.996 9.95 316.846 10.2 317.766 10.42C318.686 10.64 319.596 10.88 320.496 11.14C321.416 11.4 322.256 11.74 323.016 12.16C323.796 12.56 324.416 13.1 324.876 13.78C325.356 14.46 325.596 15.35 325.596 16.45C325.596 17.47 325.316 18.42 324.756 19.3C324.196 20.16 323.336 20.86 322.176 21.4C321.036 21.92 319.566 22.18 317.766 22.18ZM334.063 22.15C332.583 22.15 331.443 21.75 330.643 20.95C329.843 20.15 329.443 19.02 329.443 17.56V2.77H331.573V17.44C331.573 18.36 331.803 19.07 332.263 19.57C332.743 20.07 333.423 20.32 334.303 20.32C335.243 20.32 336.023 20.05 336.643 19.51L337.393 21.04C336.973 21.42 336.463 21.7 335.863 21.88C335.283 22.06 334.683 22.15 334.063 22.15ZM326.623 8.02V6.25H336.373V8.02H326.623ZM350.24 22V18.52L350.15 17.95V12.13C350.15 10.79 349.77 9.76 349.01 9.04C348.27 8.32 347.16 7.96 345.68 7.96C344.66 7.96 343.69 8.13 342.77 8.47C341.85 8.81 341.07 9.26 340.43 9.82L339.47 8.23C340.27 7.55 341.23 7.03 342.35 6.67C343.47 6.29 344.65 6.1 345.89 6.1C347.93 6.1 349.5 6.61 350.6 7.63C351.72 8.63 352.28 10.16 352.28 12.22V22H350.24ZM344.81 22.15C343.63 22.15 342.6 21.96 341.72 21.58C340.86 21.18 340.2 20.64 339.74 19.96C339.28 19.26 339.05 18.46 339.05 17.56C339.05 16.74 339.24 16 339.62 15.34C340.02 14.66 340.66 14.12 341.54 13.72C342.44 13.3 343.64 13.09 345.14 13.09H350.57V14.68H345.2C343.68 14.68 342.62 14.95 342.02 15.49C341.44 16.03 341.15 16.7 341.15 17.5C341.15 18.4 341.5 19.12 342.2 19.66C342.9 20.2 343.88 20.47 345.14 20.47C346.34 20.47 347.37 20.2 348.23 19.66C349.11 19.1 349.75 18.3 350.15 17.26L350.63 18.73C350.23 19.77 349.53 20.6 348.53 21.22C347.55 21.84 346.31 22.15 344.81 22.15ZM357.166 22V6.25H359.206V10.54L358.996 9.79C359.436 8.59 360.176 7.68 361.216 7.06C362.256 6.42 363.546 6.1 365.086 6.1V8.17C365.006 8.17 364.926 8.17 364.846 8.17C364.766 8.15 364.686 8.14 364.606 8.14C362.946 8.14 361.646 8.65 360.706 9.67C359.766 10.67 359.296 12.1 359.296 13.96V22H357.166ZM373.726 22.15C372.246 22.15 371.106 21.75 370.306 20.95C369.506 20.15 369.106 19.02 369.106 17.56V2.77H371.236V17.44C371.236 18.36 371.466 19.07 371.926 19.57C372.406 20.07 373.086 20.32 373.966 20.32C374.906 20.32 375.686 20.05 376.306 19.51L377.056 21.04C376.636 21.42 376.126 21.7 375.526 21.88C374.946 22.06 374.346 22.15 373.726 22.15ZM366.286 8.02V6.25H376.036V8.02H366.286ZM386.544 22.15C385.204 22.15 384.034 21.9 383.034 21.4C382.034 20.9 381.254 20.15 380.694 19.15C380.154 18.15 379.884 16.9 379.884 15.4V6.25H382.014V15.16C382.014 16.84 382.424 18.11 383.244 18.97C384.084 19.81 385.254 20.23 386.754 20.23C387.854 20.23 388.804 20.01 389.604 19.57C390.424 19.11 391.044 18.45 391.464 17.59C391.904 16.73 392.124 15.7 392.124 14.5V6.25H394.254V22H392.214V17.68L392.544 18.46C392.044 19.62 391.264 20.53 390.204 21.19C389.164 21.83 387.944 22.15 386.544 22.15ZM407.42 22.15C406.06 22.15 404.83 21.84 403.73 21.22C402.63 20.58 401.75 19.67 401.09 18.49C400.45 17.29 400.13 15.83 400.13 14.11C400.13 12.39 400.45 10.94 401.09 9.76C401.73 8.56 402.6 7.65 403.7 7.03C404.8 6.41 406.04 6.1 407.42 6.1C408.92 6.1 410.26 6.44 411.44 7.12C412.64 7.78 413.58 8.72 414.26 9.94C414.94 11.14 415.28 12.53 415.28 14.11C415.28 15.71 414.94 17.11 414.26 18.31C413.58 19.51 412.64 20.45 411.44 21.13C410.26 21.81 408.92 22.15 407.42 22.15ZM399.29 27.82V6.25H401.33V10.99L401.12 14.14L401.42 17.32V27.82H399.29ZM407.27 20.26C408.39 20.26 409.39 20.01 410.27 19.51C411.15 18.99 411.85 18.27 412.37 17.35C412.89 16.41 413.15 15.33 413.15 14.11C413.15 12.89 412.89 11.82 412.37 10.9C411.85 9.98 411.15 9.26 410.27 8.74C409.39 8.22 408.39 7.96 407.27 7.96C406.15 7.96 405.14 8.22 404.24 8.74C403.36 9.26 402.66 9.98 402.14 10.9C401.64 11.82 401.39 12.89 401.39 14.11C401.39 15.33 401.64 16.41 402.14 17.35C402.66 18.27 403.36 18.99 404.24 19.51C405.14 20.01 406.15 20.26 407.27 20.26ZM422.952 22.15C421.652 22.15 420.422 21.97 419.262 21.61C418.102 21.23 417.192 20.76 416.532 20.2L417.492 18.52C418.132 19 418.952 19.42 419.952 19.78C420.952 20.12 422.002 20.29 423.102 20.29C424.602 20.29 425.682 20.06 426.342 19.6C427.002 19.12 427.332 18.49 427.332 17.71C427.332 17.13 427.142 16.68 426.762 16.36C426.402 16.02 425.922 15.77 425.322 15.61C424.722 15.43 424.052 15.28 423.312 15.16C422.572 15.04 421.832 14.9 421.092 14.74C420.372 14.58 419.712 14.35 419.112 14.05C418.512 13.73 418.022 13.3 417.642 12.76C417.282 12.22 417.102 11.5 417.102 10.6C417.102 9.74 417.342 8.97 417.822 8.29C418.302 7.61 419.002 7.08 419.922 6.7C420.862 6.3 422.002 6.1 423.342 6.1C424.362 6.1 425.382 6.24 426.402 6.52C427.422 6.78 428.262 7.13 428.922 7.57L427.992 9.28C427.292 8.8 426.542 8.46 425.742 8.26C424.942 8.04 424.142 7.93 423.342 7.93C421.922 7.93 420.872 8.18 420.192 8.68C419.532 9.16 419.202 9.78 419.202 10.54C419.202 11.14 419.382 11.61 419.742 11.95C420.122 12.29 420.612 12.56 421.212 12.76C421.832 12.94 422.502 13.09 423.222 13.21C423.962 13.33 424.692 13.48 425.412 13.66C426.152 13.82 426.822 14.05 427.422 14.35C428.042 14.63 428.532 15.04 428.892 15.58C429.272 16.1 429.462 16.79 429.462 17.65C429.462 18.57 429.202 19.37 428.682 20.05C428.182 20.71 427.442 21.23 426.462 21.61C425.502 21.97 424.332 22.15 422.952 22.15ZM444.402 22.15C442.922 22.15 441.782 21.75 440.982 20.95C440.182 20.15 439.782 19.02 439.782 17.56V2.77H441.912V17.44C441.912 18.36 442.142 19.07 442.602 19.57C443.082 20.07 443.762 20.32 444.642 20.32C445.582 20.32 446.362 20.05 446.982 19.51L447.732 21.04C447.312 21.42 446.802 21.7 446.202 21.88C445.622 22.06 445.022 22.15 444.402 22.15ZM436.962 8.02V6.25H446.712V8.02H436.962ZM456.573 22.15C455.053 22.15 453.683 21.81 452.463 21.13C451.263 20.43 450.313 19.48 449.613 18.28C448.913 17.06 448.563 15.67 448.563 14.11C448.563 12.53 448.913 11.14 449.613 9.94C450.313 8.74 451.263 7.8 452.463 7.12C453.663 6.44 455.033 6.1 456.573 6.1C458.133 6.1 459.513 6.44 460.713 7.12C461.933 7.8 462.883 8.74 463.563 9.94C464.263 11.14 464.613 12.53 464.613 14.11C464.613 15.67 464.263 17.06 463.563 18.28C462.883 19.48 461.933 20.43 460.713 21.13C459.493 21.81 458.113 22.15 456.573 22.15ZM456.573 20.26C457.713 20.26 458.723 20.01 459.603 19.51C460.483 18.99 461.173 18.27 461.673 17.35C462.193 16.41 462.453 15.33 462.453 14.11C462.453 12.87 462.193 11.79 461.673 10.87C461.173 9.95 460.483 9.24 459.603 8.74C458.723 8.22 457.723 7.96 456.603 7.96C455.483 7.96 454.483 8.22 453.603 8.74C452.723 9.24 452.023 9.95 451.503 10.87C450.983 11.79 450.723 12.87 450.723 14.11C450.723 15.33 450.983 16.41 451.503 17.35C452.023 18.27 452.723 18.99 453.603 19.51C454.483 20.01 455.473 20.26 456.573 20.26ZM7.95 67.15C6.47 67.15 5.33 66.75 4.53 65.95C3.73 65.15 3.33 64.02 3.33 62.56V47.77H5.46V62.44C5.46 63.36 5.69 64.07 6.15 64.57C6.63 65.07 7.31 65.32 8.19 65.32C9.13 65.32 9.91 65.05 10.53 64.51L11.28 66.04C10.86 66.42 10.35 66.7 9.75 66.88C9.17 67.06 8.57 67.15 7.95 67.15ZM0.51 53.02V51.25H10.26V53.02H0.51ZM22.2975 51.1C23.5775 51.1 24.6975 51.35 25.6575 51.85C26.6375 52.33 27.3975 53.07 27.9375 54.07C28.4975 55.07 28.7775 56.33 28.7775 57.85V67H26.6475V58.06C26.6475 56.4 26.2275 55.15 25.3875 54.31C24.5675 53.45 23.4075 53.02 21.9075 53.02C20.7875 53.02 19.8075 53.25 18.9675 53.71C18.1475 54.15 17.5075 54.8 17.0475 55.66C16.6075 56.5 16.3875 57.52 16.3875 58.72V67H14.2575V44.74H16.3875V55.57L15.9675 54.76C16.4675 53.62 17.2675 52.73 18.3675 52.09C19.4675 51.43 20.7775 51.1 22.2975 51.1ZM33.6309 67V51.25H35.6709V55.54L35.4609 54.79C35.9009 53.59 36.6409 52.68 37.6809 52.06C38.7209 51.42 40.0109 51.1 41.5509 51.1V53.17C41.4709 53.17 41.3909 53.17 41.3109 53.17C41.2309 53.15 41.1509 53.14 41.0709 53.14C39.4109 53.14 38.1109 53.65 37.1709 54.67C36.2309 55.67 35.7609 57.1 35.7609 58.96V67H33.6309ZM44.5376 67V51.25H46.6676V67H44.5376ZM45.6176 47.77C45.1776 47.77 44.8076 47.62 44.5076 47.32C44.2076 47.02 44.0576 46.66 44.0576 46.24C44.0576 45.82 44.2076 45.47 44.5076 45.19C44.8076 44.89 45.1776 44.74 45.6176 44.74C46.0576 44.74 46.4276 44.88 46.7276 45.16C47.0276 45.44 47.1776 45.79 47.1776 46.21C47.1776 46.65 47.0276 47.02 46.7276 47.32C46.4476 47.62 46.0776 47.77 45.6176 47.77ZM55.7442 67L48.7542 51.25H50.9742L57.3942 65.86H56.3442L62.8542 51.25H64.9542L57.9342 67H55.7442ZM73.3045 67.15C71.6645 67.15 70.2245 66.81 68.9845 66.13C67.7445 65.43 66.7745 64.48 66.0745 63.28C65.3745 62.06 65.0245 60.67 65.0245 59.11C65.0245 57.55 65.3545 56.17 66.0145 54.97C66.6945 53.77 67.6145 52.83 68.7745 52.15C69.9545 51.45 71.2745 51.1 72.7345 51.1C74.2145 51.1 75.5245 51.44 76.6645 52.12C77.8245 52.78 78.7345 53.72 79.3945 54.94C80.0545 56.14 80.3845 57.53 80.3845 59.11C80.3845 59.21 80.3745 59.32 80.3545 59.44C80.3545 59.54 80.3545 59.65 80.3545 59.77H66.6445V58.18H79.2145L78.3745 58.81C78.3745 57.67 78.1245 56.66 77.6245 55.78C77.1445 54.88 76.4845 54.18 75.6445 53.68C74.8045 53.18 73.8345 52.93 72.7345 52.93C71.6545 52.93 70.6845 53.18 69.8245 53.68C68.9645 54.18 68.2945 54.88 67.8145 55.78C67.3345 56.68 67.0945 57.71 67.0945 58.87V59.2C67.0945 60.4 67.3545 61.46 67.8745 62.38C68.4145 63.28 69.1545 63.99 70.0945 64.51C71.0545 65.01 72.1445 65.26 73.3645 65.26C74.3245 65.26 75.2145 65.09 76.0345 64.75C76.8745 64.41 77.5945 63.89 78.1945 63.19L79.3945 64.57C78.6945 65.41 77.8145 66.05 76.7545 66.49C75.7145 66.93 74.5645 67.15 73.3045 67.15ZM97.1916 67.15C95.6716 67.15 94.3016 66.81 93.0816 66.13C91.8816 65.43 90.9316 64.48 90.2316 63.28C89.5316 62.06 89.1816 60.67 89.1816 59.11C89.1816 57.53 89.5316 56.14 90.2316 54.94C90.9316 53.74 91.8816 52.8 93.0816 52.12C94.2816 51.44 95.6516 51.1 97.1916 51.1C98.7516 51.1 100.132 51.44 101.332 52.12C102.552 52.8 103.502 53.74 104.182 54.94C104.882 56.14 105.232 57.53 105.232 59.11C105.232 60.67 104.882 62.06 104.182 63.28C103.502 64.48 102.552 65.43 101.332 66.13C100.112 66.81 98.7316 67.15 97.1916 67.15ZM97.1916 65.26C98.3316 65.26 99.3416 65.01 100.222 64.51C101.102 63.99 101.792 63.27 102.292 62.35C102.812 61.41 103.072 60.33 103.072 59.11C103.072 57.87 102.812 56.79 102.292 55.87C101.792 54.95 101.102 54.24 100.222 53.74C99.3416 53.22 98.3416 52.96 97.2216 52.96C96.1016 52.96 95.1016 53.22 94.2216 53.74C93.3416 54.24 92.6416 54.95 92.1216 55.87C91.6016 56.79 91.3416 57.87 91.3416 59.11C91.3416 60.33 91.6016 61.41 92.1216 62.35C92.6416 63.27 93.3416 63.99 94.2216 64.51C95.1016 65.01 96.0916 65.26 97.1916 65.26ZM116.72 51.1C118 51.1 119.12 51.35 120.08 51.85C121.06 52.33 121.82 53.07 122.36 54.07C122.92 55.07 123.2 56.33 123.2 57.85V67H121.07V58.06C121.07 56.4 120.65 55.15 119.81 54.31C118.99 53.45 117.83 53.02 116.33 53.02C115.21 53.02 114.23 53.25 113.39 53.71C112.57 54.15 111.93 54.8 111.47 55.66C111.03 56.5 110.81 57.52 110.81 58.72V67H108.68V51.25H110.72V55.57L110.39 54.76C110.89 53.62 111.69 52.73 112.79 52.09C113.89 51.43 115.2 51.1 116.72 51.1ZM144.875 67V63.52L144.785 62.95V57.13C144.785 55.79 144.405 54.76 143.645 54.04C142.905 53.32 141.795 52.96 140.315 52.96C139.295 52.96 138.325 53.13 137.405 53.47C136.485 53.81 135.705 54.26 135.065 54.82L134.105 53.23C134.905 52.55 135.865 52.03 136.985 51.67C138.105 51.29 139.285 51.1 140.525 51.1C142.565 51.1 144.135 51.61 145.235 52.63C146.355 53.63 146.915 55.16 146.915 57.22V67H144.875ZM139.445 67.15C138.265 67.15 137.235 66.96 136.355 66.58C135.495 66.18 134.835 65.64 134.375 64.96C133.915 64.26 133.685 63.46 133.685 62.56C133.685 61.74 133.875 61 134.255 60.34C134.655 59.66 135.295 59.12 136.175 58.72C137.075 58.3 138.275 58.09 139.775 58.09H145.205V59.68H139.835C138.315 59.68 137.255 59.95 136.655 60.49C136.075 61.03 135.785 61.7 135.785 62.5C135.785 63.4 136.135 64.12 136.835 64.66C137.535 65.2 138.515 65.47 139.775 65.47C140.975 65.47 142.005 65.2 142.865 64.66C143.745 64.1 144.385 63.3 144.785 62.26L145.265 63.73C144.865 64.77 144.165 65.6 143.165 66.22C142.185 66.84 140.945 67.15 139.445 67.15ZM165.472 72.97C164.032 72.97 162.652 72.76 161.332 72.34C160.012 71.92 158.942 71.32 158.122 70.54L159.202 68.92C159.942 69.58 160.852 70.1 161.932 70.48C163.032 70.88 164.192 71.08 165.412 71.08C167.412 71.08 168.882 70.61 169.822 69.67C170.762 68.75 171.232 67.31 171.232 65.35V61.42L171.532 58.72L171.322 56.02V51.25H173.362V65.08C173.362 67.8 172.692 69.79 171.352 71.05C170.032 72.33 168.072 72.97 165.472 72.97ZM165.082 66.4C163.582 66.4 162.232 66.08 161.032 65.44C159.832 64.78 158.882 63.87 158.182 62.71C157.502 61.55 157.162 60.22 157.162 58.72C157.162 57.22 157.502 55.9 158.182 54.76C158.882 53.6 159.832 52.7 161.032 52.06C162.232 51.42 163.582 51.1 165.082 51.1C166.482 51.1 167.742 51.39 168.862 51.97C169.982 52.55 170.872 53.41 171.532 54.55C172.192 55.69 172.522 57.08 172.522 58.72C172.522 60.36 172.192 61.75 171.532 62.89C170.872 64.03 169.982 64.9 168.862 65.5C167.742 66.1 166.482 66.4 165.082 66.4ZM165.292 64.51C166.452 64.51 167.482 64.27 168.382 63.79C169.282 63.29 169.992 62.61 170.512 61.75C171.032 60.87 171.292 59.86 171.292 58.72C171.292 57.58 171.032 56.58 170.512 55.72C169.992 54.86 169.282 54.19 168.382 53.71C167.482 53.21 166.452 52.96 165.292 52.96C164.152 52.96 163.122 53.21 162.202 53.71C161.302 54.19 160.592 54.86 160.072 55.72C159.572 56.58 159.322 57.58 159.322 58.72C159.322 59.86 159.572 60.87 160.072 61.75C160.592 62.61 161.302 63.29 162.202 63.79C163.122 64.27 164.152 64.51 165.292 64.51ZM178.389 67V44.74H180.519V67H178.389ZM191.966 67.15C190.446 67.15 189.076 66.81 187.856 66.13C186.656 65.43 185.706 64.48 185.006 63.28C184.306 62.06 183.956 60.67 183.956 59.11C183.956 57.53 184.306 56.14 185.006 54.94C185.706 53.74 186.656 52.8 187.856 52.12C189.056 51.44 190.426 51.1 191.966 51.1C193.526 51.1 194.906 51.44 196.106 52.12C197.326 52.8 198.276 53.74 198.956 54.94C199.656 56.14 200.006 57.53 200.006 59.11C200.006 60.67 199.656 62.06 198.956 63.28C198.276 64.48 197.326 65.43 196.106 66.13C194.886 66.81 193.506 67.15 191.966 67.15ZM191.966 65.26C193.106 65.26 194.116 65.01 194.996 64.51C195.876 63.99 196.566 63.27 197.066 62.35C197.586 61.41 197.846 60.33 197.846 59.11C197.846 57.87 197.586 56.79 197.066 55.87C196.566 54.95 195.876 54.24 194.996 53.74C194.116 53.22 193.116 52.96 191.996 52.96C190.876 52.96 189.876 53.22 188.996 53.74C188.116 54.24 187.416 54.95 186.896 55.87C186.376 56.79 186.116 57.87 186.116 59.11C186.116 60.33 186.376 61.41 186.896 62.35C187.416 63.27 188.116 63.99 188.996 64.51C189.876 65.01 190.866 65.26 191.966 65.26ZM211.584 67.15C210.204 67.15 208.964 66.84 207.864 66.22C206.764 65.58 205.894 64.66 205.254 63.46C204.614 62.26 204.294 60.81 204.294 59.11C204.294 57.39 204.614 55.94 205.254 54.76C205.914 53.56 206.794 52.65 207.894 52.03C208.994 51.41 210.224 51.1 211.584 51.1C213.084 51.1 214.424 51.44 215.604 52.12C216.804 52.78 217.744 53.71 218.424 54.91C219.104 56.11 219.444 57.51 219.444 59.11C219.444 60.69 219.104 62.09 218.424 63.31C217.744 64.51 216.804 65.45 215.604 66.13C214.424 66.81 213.084 67.15 211.584 67.15ZM203.454 67V44.74H205.584V55.9L205.284 59.08L205.494 62.26V67H203.454ZM211.434 65.26C212.554 65.26 213.554 65.01 214.434 64.51C215.314 63.99 216.014 63.27 216.534 62.35C217.054 61.41 217.314 60.33 217.314 59.11C217.314 57.87 217.054 56.79 216.534 55.87C216.014 54.95 215.314 54.24 214.434 53.74C213.554 53.22 212.554 52.96 211.434 52.96C210.314 52.96 209.304 53.22 208.404 53.74C207.524 54.24 206.824 54.95 206.304 55.87C205.804 56.79 205.554 57.87 205.554 59.11C205.554 60.33 205.804 61.41 206.304 62.35C206.824 63.27 207.524 63.99 208.404 64.51C209.304 65.01 210.314 65.26 211.434 65.26ZM232.669 67V63.52L232.579 62.95V57.13C232.579 55.79 232.199 54.76 231.439 54.04C230.699 53.32 229.589 52.96 228.109 52.96C227.089 52.96 226.119 53.13 225.199 53.47C224.279 53.81 223.499 54.26 222.859 54.82L221.899 53.23C222.699 52.55 223.659 52.03 224.779 51.67C225.899 51.29 227.079 51.1 228.319 51.1C230.359 51.1 231.929 51.61 233.029 52.63C234.149 53.63 234.709 55.16 234.709 57.22V67H232.669ZM227.239 67.15C226.059 67.15 225.029 66.96 224.149 66.58C223.289 66.18 222.629 65.64 222.169 64.96C221.709 64.26 221.479 63.46 221.479 62.56C221.479 61.74 221.669 61 222.049 60.34C222.449 59.66 223.089 59.12 223.969 58.72C224.869 58.3 226.069 58.09 227.569 58.09H232.999V59.68H227.629C226.109 59.68 225.049 59.95 224.449 60.49C223.869 61.03 223.579 61.7 223.579 62.5C223.579 63.4 223.929 64.12 224.629 64.66C225.329 65.2 226.309 65.47 227.569 65.47C228.769 65.47 229.799 65.2 230.659 64.66C231.539 64.1 232.179 63.3 232.579 62.26L233.059 63.73C232.659 64.77 231.959 65.6 230.959 66.22C229.979 66.84 228.739 67.15 227.239 67.15ZM239.594 67V44.74H241.724V67H239.594ZM257.932 67.15C256.632 67.15 255.402 66.97 254.242 66.61C253.082 66.23 252.172 65.76 251.512 65.2L252.472 63.52C253.112 64 253.932 64.42 254.932 64.78C255.932 65.12 256.982 65.29 258.082 65.29C259.582 65.29 260.662 65.06 261.322 64.6C261.982 64.12 262.312 63.49 262.312 62.71C262.312 62.13 262.122 61.68 261.742 61.36C261.382 61.02 260.902 60.77 260.302 60.61C259.702 60.43 259.032 60.28 258.292 60.16C257.552 60.04 256.812 59.9 256.072 59.74C255.352 59.58 254.692 59.35 254.092 59.05C253.492 58.73 253.002 58.3 252.622 57.76C252.262 57.22 252.082 56.5 252.082 55.6C252.082 54.74 252.322 53.97 252.802 53.29C253.282 52.61 253.982 52.08 254.902 51.7C255.842 51.3 256.982 51.1 258.322 51.1C259.342 51.1 260.362 51.24 261.382 51.52C262.402 51.78 263.242 52.13 263.902 52.57L262.972 54.28C262.272 53.8 261.522 53.46 260.722 53.26C259.922 53.04 259.122 52.93 258.322 52.93C256.902 52.93 255.852 53.18 255.172 53.68C254.512 54.16 254.182 54.78 254.182 55.54C254.182 56.14 254.362 56.61 254.722 56.95C255.102 57.29 255.592 57.56 256.192 57.76C256.812 57.94 257.482 58.09 258.202 58.21C258.942 58.33 259.672 58.48 260.392 58.66C261.132 58.82 261.802 59.05 262.402 59.35C263.022 59.63 263.512 60.04 263.872 60.58C264.252 61.1 264.442 61.79 264.442 62.65C264.442 63.57 264.182 64.37 263.662 65.05C263.162 65.71 262.422 66.23 261.442 66.61C260.482 66.97 259.312 67.15 257.932 67.15ZM273.99 67.15C272.43 67.15 271.03 66.81 269.79 66.13C268.57 65.43 267.61 64.48 266.91 63.28C266.21 62.06 265.86 60.67 265.86 59.11C265.86 57.53 266.21 56.14 266.91 54.94C267.61 53.74 268.57 52.8 269.79 52.12C271.03 51.44 272.43 51.1 273.99 51.1C275.33 51.1 276.54 51.36 277.62 51.88C278.7 52.4 279.55 53.18 280.17 54.22L278.58 55.3C278.04 54.5 277.37 53.91 276.57 53.53C275.77 53.15 274.9 52.96 273.96 52.96C272.84 52.96 271.83 53.22 270.93 53.74C270.03 54.24 269.32 54.95 268.8 55.87C268.28 56.79 268.02 57.87 268.02 59.11C268.02 60.35 268.28 61.43 268.8 62.35C269.32 63.27 270.03 63.99 270.93 64.51C271.83 65.01 272.84 65.26 273.96 65.26C274.9 65.26 275.77 65.07 276.57 64.69C277.37 64.31 278.04 63.73 278.58 62.95L280.17 64.03C279.55 65.05 278.7 65.83 277.62 66.37C276.54 66.89 275.33 67.15 273.99 67.15ZM293.325 67V63.52L293.235 62.95V57.13C293.235 55.79 292.855 54.76 292.095 54.04C291.355 53.32 290.245 52.96 288.765 52.96C287.745 52.96 286.775 53.13 285.855 53.47C284.935 53.81 284.155 54.26 283.515 54.82L282.555 53.23C283.355 52.55 284.315 52.03 285.435 51.67C286.555 51.29 287.735 51.1 288.975 51.1C291.015 51.1 292.585 51.61 293.685 52.63C294.805 53.63 295.365 55.16 295.365 57.22V67H293.325ZM287.895 67.15C286.715 67.15 285.685 66.96 284.805 66.58C283.945 66.18 283.285 65.64 282.825 64.96C282.365 64.26 282.135 63.46 282.135 62.56C282.135 61.74 282.325 61 282.705 60.34C283.105 59.66 283.745 59.12 284.625 58.72C285.525 58.3 286.725 58.09 288.225 58.09H293.655V59.68H288.285C286.765 59.68 285.705 59.95 285.105 60.49C284.525 61.03 284.235 61.7 284.235 62.5C284.235 63.4 284.585 64.12 285.285 64.66C285.985 65.2 286.965 65.47 288.225 65.47C289.425 65.47 290.455 65.2 291.315 64.66C292.195 64.1 292.835 63.3 293.235 62.26L293.715 63.73C293.315 64.77 292.615 65.6 291.615 66.22C290.635 66.84 289.395 67.15 287.895 67.15ZM300.25 67V44.74H302.38V67H300.25ZM314.097 67.15C312.457 67.15 311.017 66.81 309.777 66.13C308.537 65.43 307.567 64.48 306.867 63.28C306.167 62.06 305.817 60.67 305.817 59.11C305.817 57.55 306.147 56.17 306.807 54.97C307.487 53.77 308.407 52.83 309.567 52.15C310.747 51.45 312.067 51.1 313.527 51.1C315.007 51.1 316.317 51.44 317.457 52.12C318.617 52.78 319.527 53.72 320.187 54.94C320.847 56.14 321.177 57.53 321.177 59.11C321.177 59.21 321.167 59.32 321.147 59.44C321.147 59.54 321.147 59.65 321.147 59.77H307.437V58.18H320.007L319.167 58.81C319.167 57.67 318.917 56.66 318.417 55.78C317.937 54.88 317.277 54.18 316.437 53.68C315.597 53.18 314.627 52.93 313.527 52.93C312.447 52.93 311.477 53.18 310.617 53.68C309.757 54.18 309.087 54.88 308.607 55.78C308.127 56.68 307.887 57.71 307.887 58.87V59.2C307.887 60.4 308.147 61.46 308.667 62.38C309.207 63.28 309.947 63.99 310.887 64.51C311.847 65.01 312.937 65.26 314.157 65.26C315.117 65.26 316.007 65.09 316.827 64.75C317.667 64.41 318.387 63.89 318.987 63.19L320.187 64.57C319.487 65.41 318.607 66.05 317.547 66.49C316.507 66.93 315.357 67.15 314.097 67.15Z" fill="black"/>
</svg>
