<svg width="630" height="178" viewBox="0 0 630 178" fill="none" xmlns="http://www.w3.org/2000/svg">
<path d="M5.46 67V4H17.16V57.1H50.1V67H5.46ZM80.4075 67.63C75.0675 67.63 70.3875 66.58 66.3675 64.48C62.4075 62.32 59.3175 59.38 57.0975 55.66C54.9375 51.94 53.8575 47.71 53.8575 42.97C53.8575 38.17 54.9075 33.94 57.0075 30.28C59.1675 26.56 62.1075 23.65 65.8275 21.55C69.6075 19.45 73.8975 18.4 78.6975 18.4C83.3775 18.4 87.5475 19.42 91.2075 21.46C94.8675 23.5 97.7475 26.38 99.8475 30.1C101.948 33.82 102.998 38.2 102.998 43.24C102.998 43.72 102.968 44.26 102.908 44.86C102.908 45.46 102.878 46.03 102.818 46.57H62.7675V39.1H96.8775L92.4675 41.44C92.5275 38.68 91.9575 36.25 90.7575 34.15C89.5575 32.05 87.9075 30.4 85.8075 29.2C83.7675 28 81.3975 27.4 78.6975 27.4C75.9375 27.4 73.5075 28 71.4075 29.2C69.3675 30.4 67.7475 32.08 66.5475 34.24C65.4075 36.34 64.8375 38.83 64.8375 41.71V43.51C64.8375 46.39 65.4975 48.94 66.8175 51.16C68.1375 53.38 69.9975 55.09 72.3975 56.29C74.7975 57.49 77.5575 58.09 80.6775 58.09C83.3775 58.09 85.8075 57.67 87.9675 56.83C90.1275 55.99 92.0475 54.67 93.7275 52.87L99.7575 59.8C97.5975 62.32 94.8675 64.27 91.5675 65.65C88.3275 66.97 84.6075 67.63 80.4075 67.63ZM125.705 67L105.095 18.94H116.795L134.525 61.33H128.765L147.125 18.94H157.925L137.315 67H125.705ZM186.228 67.63C180.888 67.63 176.208 66.58 172.188 64.48C168.228 62.32 165.138 59.38 162.918 55.66C160.758 51.94 159.678 47.71 159.678 42.97C159.678 38.17 160.728 33.94 162.828 30.28C164.988 26.56 167.928 23.65 171.648 21.55C175.428 19.45 179.718 18.4 184.518 18.4C189.198 18.4 193.368 19.42 197.028 21.46C200.688 23.5 203.568 26.38 205.668 30.1C207.768 33.82 208.818 38.2 208.818 43.24C208.818 43.72 208.788 44.26 208.728 44.86C208.728 45.46 208.698 46.03 208.638 46.57H168.588V39.1H202.698L198.288 41.44C198.348 38.68 197.778 36.25 196.578 34.15C195.378 32.05 193.728 30.4 191.628 29.2C189.588 28 187.218 27.4 184.518 27.4C181.758 27.4 179.328 28 177.228 29.2C175.188 30.4 173.568 32.08 172.368 34.24C171.228 36.34 170.658 38.83 170.658 41.71V43.51C170.658 46.39 171.318 48.94 172.638 51.16C173.958 53.38 175.818 55.09 178.218 56.29C180.618 57.49 183.378 58.09 186.498 58.09C189.198 58.09 191.628 57.67 193.788 56.83C195.948 55.99 197.868 54.67 199.548 52.87L205.578 59.8C203.418 62.32 200.688 64.27 197.388 65.65C194.148 66.97 190.428 67.63 186.228 67.63ZM219.624 67V0.219996H230.874V67H219.624ZM298.683 67.9C290.043 67.9 283.263 65.47 278.343 60.61C273.483 55.75 271.053 48.73 271.053 39.55V4H282.753V39.1C282.753 45.58 284.133 50.29 286.893 53.23C289.713 56.17 293.673 57.64 298.773 57.64C303.873 57.64 307.803 56.17 310.563 53.23C313.323 50.29 314.703 45.58 314.703 39.1V4H326.223V39.55C326.223 48.73 323.763 55.75 318.843 60.61C313.983 65.47 307.263 67.9 298.683 67.9ZM368.168 67.63C364.268 67.63 360.698 66.73 357.458 64.93C354.278 63.13 351.728 60.43 349.808 56.83C347.948 53.17 347.018 48.55 347.018 42.97C347.018 37.33 347.918 32.71 349.718 29.11C351.578 25.51 354.098 22.84 357.278 21.1C360.458 19.3 364.088 18.4 368.168 18.4C372.908 18.4 377.078 19.42 380.678 21.46C384.338 23.5 387.218 26.35 389.318 30.01C391.478 33.67 392.558 37.99 392.558 42.97C392.558 47.95 391.478 52.3 389.318 56.02C387.218 59.68 384.338 62.53 380.678 64.57C377.078 66.61 372.908 67.63 368.168 67.63ZM341.528 84.46V18.94H352.238V30.28L351.878 43.06L352.778 55.84V84.46H341.528ZM366.908 58C369.608 58 372.008 57.4 374.108 56.2C376.268 55 377.978 53.26 379.238 50.98C380.498 48.7 381.128 46.03 381.128 42.97C381.128 39.85 380.498 37.18 379.238 34.96C377.978 32.68 376.268 30.94 374.108 29.74C372.008 28.54 369.608 27.94 366.908 27.94C364.208 27.94 361.778 28.54 359.618 29.74C357.458 30.94 355.748 32.68 354.488 34.96C353.228 37.18 352.598 39.85 352.598 42.97C352.598 46.03 353.228 48.7 354.488 50.98C355.748 53.26 357.458 55 359.618 56.2C361.778 57.4 364.208 58 366.908 58ZM444.661 67V42.07L447.271 49.27L419.911 4H432.421L454.381 40.45H447.361L469.501 4H481.021L453.661 49.27L456.361 42.07V67H444.661ZM503.841 67.63C498.921 67.63 494.541 66.58 490.701 64.48C486.861 62.32 483.831 59.38 481.611 55.66C479.391 51.94 478.281 47.71 478.281 42.97C478.281 38.17 479.391 33.94 481.611 30.28C483.831 26.56 486.861 23.65 490.701 21.55C494.541 19.45 498.921 18.4 503.841 18.4C508.821 18.4 513.231 19.45 517.071 21.55C520.971 23.65 524.001 26.53 526.161 30.19C528.381 33.85 529.491 38.11 529.491 42.97C529.491 47.71 528.381 51.94 526.161 55.66C524.001 59.38 520.971 62.32 517.071 64.48C513.231 66.58 508.821 67.63 503.841 67.63ZM503.841 58C506.601 58 509.061 57.4 511.221 56.2C513.381 55 515.061 53.26 516.261 50.98C517.521 48.7 518.151 46.03 518.151 42.97C518.151 39.85 517.521 37.18 516.261 34.96C515.061 32.68 513.381 30.94 511.221 29.74C509.061 28.54 506.631 27.94 503.931 27.94C501.171 27.94 498.711 28.54 496.551 29.74C494.451 30.94 492.771 32.68 491.511 34.96C490.251 37.18 489.621 39.85 489.621 42.97C489.621 46.03 490.251 48.7 491.511 50.98C492.771 53.26 494.451 55 496.551 56.2C498.711 57.4 501.141 58 503.841 58ZM560.589 67.63C556.509 67.63 552.909 66.88 549.789 65.38C546.669 63.82 544.239 61.48 542.499 58.36C540.759 55.18 539.889 51.19 539.889 46.39V18.94H551.139V44.86C551.139 49.18 552.099 52.42 554.019 54.58C555.999 56.68 558.789 57.73 562.389 57.73C565.029 57.73 567.309 57.19 569.229 56.11C571.209 55.03 572.739 53.41 573.819 51.25C574.959 49.09 575.529 46.42 575.529 43.24V18.94H586.779V67H576.069V54.04L577.959 58C576.339 61.12 573.969 63.52 570.849 65.2C567.729 66.82 564.309 67.63 560.589 67.63ZM601.509 67V18.94H612.219V32.17L610.959 28.3C612.399 25.06 614.649 22.6 617.709 20.92C620.829 19.24 624.699 18.4 629.319 18.4V29.11C628.839 28.99 628.389 28.93 627.969 28.93C627.549 28.87 627.129 28.84 626.709 28.84C622.449 28.84 619.059 30.1 616.539 32.62C614.019 35.08 612.759 38.77 612.759 43.69V67H601.509ZM34.62 177.9C29.82 177.9 25.35 177.12 21.21 175.56C17.13 173.94 13.56 171.69 10.5 168.81C7.5 165.87 5.16 162.42 3.48 158.46C1.8 154.5 0.96 150.18 0.96 145.5C0.96 140.82 1.8 136.5 3.48 132.54C5.16 128.58 7.53 125.16 10.59 122.28C13.65 119.34 17.22 117.09 21.3 115.53C25.38 113.91 29.85 113.1 34.71 113.1C39.87 113.1 44.58 114 48.84 115.8C53.1 117.54 56.7 120.15 59.64 123.63L52.08 130.74C49.8 128.28 47.25 126.45 44.43 125.25C41.61 123.99 38.55 123.36 35.25 123.36C31.95 123.36 28.92 123.9 26.16 124.98C23.46 126.06 21.09 127.59 19.05 129.57C17.07 131.55 15.51 133.89 14.37 136.59C13.29 139.29 12.75 142.26 12.75 145.5C12.75 148.74 13.29 151.71 14.37 154.41C15.51 157.11 17.07 159.45 19.05 161.43C21.09 163.41 23.46 164.94 26.16 166.02C28.92 167.1 31.95 167.64 35.25 167.64C38.55 167.64 41.61 167.04 44.43 165.84C47.25 164.58 49.8 162.69 52.08 160.17L59.64 167.37C56.7 170.79 53.1 173.4 48.84 175.2C44.58 177 39.84 177.9 34.62 177.9ZM89.5249 177.63C84.6049 177.63 80.2249 176.58 76.3849 174.48C72.5449 172.32 69.5149 169.38 67.2949 165.66C65.0749 161.94 63.9649 157.71 63.9649 152.97C63.9649 148.17 65.0749 143.94 67.2949 140.28C69.5149 136.56 72.5449 133.65 76.3849 131.55C80.2249 129.45 84.6049 128.4 89.5249 128.4C94.5049 128.4 98.9149 129.45 102.755 131.55C106.655 133.65 109.685 136.53 111.845 140.19C114.065 143.85 115.175 148.11 115.175 152.97C115.175 157.71 114.065 161.94 111.845 165.66C109.685 169.38 106.655 172.32 102.755 174.48C98.9149 176.58 94.5049 177.63 89.5249 177.63ZM89.5249 168C92.2849 168 94.7449 167.4 96.9049 166.2C99.0649 165 100.745 163.26 101.945 160.98C103.205 158.7 103.835 156.03 103.835 152.97C103.835 149.85 103.205 147.18 101.945 144.96C100.745 142.68 99.0649 140.94 96.9049 139.74C94.7449 138.54 92.3149 137.94 89.6149 137.94C86.8549 137.94 84.3949 138.54 82.2349 139.74C80.1349 140.94 78.4549 142.68 77.1949 144.96C75.9349 147.18 75.3049 149.85 75.3049 152.97C75.3049 156.03 75.9349 158.7 77.1949 160.98C78.4549 163.26 80.1349 165 82.2349 166.2C84.3949 167.4 86.8249 168 89.5249 168ZM153.203 128.4C157.043 128.4 160.463 129.15 163.463 130.65C166.523 132.15 168.923 134.46 170.663 137.58C172.403 140.64 173.273 144.6 173.273 149.46V177H162.023V150.9C162.023 146.64 161.003 143.46 158.963 141.36C156.983 139.26 154.193 138.21 150.593 138.21C147.953 138.21 145.613 138.75 143.573 139.83C141.533 140.91 139.943 142.53 138.803 144.69C137.723 146.79 137.183 149.46 137.183 152.7V177H125.933V128.94H136.643V141.9L134.753 137.94C136.433 134.88 138.863 132.54 142.043 130.92C145.283 129.24 149.003 128.4 153.203 128.4ZM214.814 128.4C218.654 128.4 222.074 129.15 225.074 130.65C228.134 132.15 230.534 134.46 232.274 137.58C234.014 140.64 234.884 144.6 234.884 149.46V177H223.634V150.9C223.634 146.64 222.614 143.46 220.574 141.36C218.594 139.26 215.804 138.21 212.204 138.21C209.564 138.21 207.224 138.75 205.184 139.83C203.144 140.91 201.554 142.53 200.414 144.69C199.334 146.79 198.794 149.46 198.794 152.7V177H187.544V128.94H198.254V141.9L196.364 137.94C198.044 134.88 200.474 132.54 203.654 130.92C206.894 129.24 210.614 128.4 214.814 128.4ZM271.833 177.63C266.493 177.63 261.813 176.58 257.793 174.48C253.833 172.32 250.743 169.38 248.523 165.66C246.363 161.94 245.283 157.71 245.283 152.97C245.283 148.17 246.333 143.94 248.433 140.28C250.593 136.56 253.533 133.65 257.253 131.55C261.033 129.45 265.323 128.4 270.123 128.4C274.803 128.4 278.973 129.42 282.633 131.46C286.293 133.5 289.173 136.38 291.273 140.1C293.373 143.82 294.423 148.2 294.423 153.24C294.423 153.72 294.393 154.26 294.333 154.86C294.333 155.46 294.303 156.03 294.243 156.57H254.193V149.1H288.303L283.893 151.44C283.953 148.68 283.383 146.25 282.183 144.15C280.983 142.05 279.333 140.4 277.233 139.2C275.193 138 272.823 137.4 270.123 137.4C267.363 137.4 264.933 138 262.833 139.2C260.793 140.4 259.173 142.08 257.973 144.24C256.833 146.34 256.263 148.83 256.263 151.71V153.51C256.263 156.39 256.923 158.94 258.243 161.16C259.563 163.38 261.423 165.09 263.823 166.29C266.223 167.49 268.983 168.09 272.103 168.09C274.803 168.09 277.233 167.67 279.393 166.83C281.553 165.99 283.473 164.67 285.153 162.87L291.183 169.8C289.023 172.32 286.293 174.27 282.993 175.65C279.753 176.97 276.033 177.63 271.833 177.63ZM327.28 177.63C322.24 177.63 317.74 176.58 313.78 174.48C309.88 172.32 306.82 169.38 304.6 165.66C302.38 161.94 301.27 157.71 301.27 152.97C301.27 148.17 302.38 143.94 304.6 140.28C306.82 136.56 309.88 133.65 313.78 131.55C317.74 129.45 322.24 128.4 327.28 128.4C331.96 128.4 336.07 129.36 339.61 131.28C343.21 133.14 345.94 135.9 347.8 139.56L339.16 144.6C337.72 142.32 335.95 140.64 333.85 139.56C331.81 138.48 329.59 137.94 327.19 137.94C324.43 137.94 321.94 138.54 319.72 139.74C317.5 140.94 315.76 142.68 314.5 144.96C313.24 147.18 312.61 149.85 312.61 152.97C312.61 156.09 313.24 158.79 314.5 161.07C315.76 163.29 317.5 165 319.72 166.2C321.94 167.4 324.43 168 327.19 168C329.59 168 331.81 167.46 333.85 166.38C335.95 165.3 337.72 163.62 339.16 161.34L347.8 166.38C345.94 169.98 343.21 172.77 339.61 174.75C336.07 176.67 331.96 177.63 327.28 177.63ZM376.23 177.63C370.95 177.63 366.87 176.28 363.99 173.58C361.11 170.82 359.67 166.77 359.67 161.43V118.32H370.92V161.16C370.92 163.44 371.49 165.21 372.63 166.47C373.83 167.73 375.48 168.36 377.58 168.36C380.1 168.36 382.2 167.7 383.88 166.38L387.03 174.39C385.71 175.47 384.09 176.28 382.17 176.82C380.25 177.36 378.27 177.63 376.23 177.63ZM351.75 138.3V129.3H383.79V138.3H351.75ZM396.284 177V128.94H407.534V177H396.284ZM401.954 121.02C399.854 121.02 398.114 120.36 396.734 119.04C395.414 117.72 394.754 116.13 394.754 114.27C394.754 112.35 395.414 110.76 396.734 109.5C398.114 108.18 399.854 107.52 401.954 107.52C404.054 107.52 405.764 108.15 407.084 109.41C408.464 110.61 409.154 112.14 409.154 114C409.154 115.98 408.494 117.66 407.174 119.04C405.854 120.36 404.114 121.02 401.954 121.02ZM443.9 177.63C438.98 177.63 434.6 176.58 430.76 174.48C426.92 172.32 423.89 169.38 421.67 165.66C419.45 161.94 418.34 157.71 418.34 152.97C418.34 148.17 419.45 143.94 421.67 140.28C423.89 136.56 426.92 133.65 430.76 131.55C434.6 129.45 438.98 128.4 443.9 128.4C448.88 128.4 453.29 129.45 457.13 131.55C461.03 133.65 464.06 136.53 466.22 140.19C468.44 143.85 469.55 148.11 469.55 152.97C469.55 157.71 468.44 161.94 466.22 165.66C464.06 169.38 461.03 172.32 457.13 174.48C453.29 176.58 448.88 177.63 443.9 177.63ZM443.9 168C446.66 168 449.12 167.4 451.28 166.2C453.44 165 455.12 163.26 456.32 160.98C457.58 158.7 458.21 156.03 458.21 152.97C458.21 149.85 457.58 147.18 456.32 144.96C455.12 142.68 453.44 140.94 451.28 139.74C449.12 138.54 446.69 137.94 443.99 137.94C441.23 137.94 438.77 138.54 436.61 139.74C434.51 140.94 432.83 142.68 431.57 144.96C430.31 147.18 429.68 149.85 429.68 152.97C429.68 156.03 430.31 158.7 431.57 160.98C432.83 163.26 434.51 165 436.61 166.2C438.77 167.4 441.2 168 443.9 168ZM507.578 128.4C511.418 128.4 514.838 129.15 517.838 130.65C520.898 132.15 523.298 134.46 525.038 137.58C526.778 140.64 527.648 144.6 527.648 149.46V177H516.398V150.9C516.398 146.64 515.378 143.46 513.338 141.36C511.358 139.26 508.568 138.21 504.968 138.21C502.328 138.21 499.988 138.75 497.948 139.83C495.908 140.91 494.318 142.53 493.178 144.69C492.098 146.79 491.558 149.46 491.558 152.7V177H480.308V128.94H491.018V141.9L489.128 137.94C490.808 134.88 493.238 132.54 496.418 130.92C499.658 129.24 503.378 128.4 507.578 128.4ZM556.769 177.63C552.749 177.63 548.879 177.12 545.159 176.1C541.499 175.02 538.589 173.73 536.429 172.23L540.749 163.68C542.909 165.06 545.489 166.2 548.489 167.1C551.489 168 554.489 168.45 557.489 168.45C561.029 168.45 563.579 167.97 565.139 167.01C566.759 166.05 567.569 164.76 567.569 163.14C567.569 161.82 567.029 160.83 565.949 160.17C564.869 159.45 563.459 158.91 561.719 158.55C559.979 158.19 558.029 157.86 555.869 157.56C553.769 157.26 551.639 156.87 549.479 156.39C547.379 155.85 545.459 155.1 543.719 154.14C541.979 153.12 540.569 151.77 539.489 150.09C538.409 148.41 537.869 146.19 537.869 143.43C537.869 140.37 538.739 137.73 540.479 135.51C542.219 133.23 544.649 131.49 547.769 130.29C550.949 129.03 554.699 128.4 559.019 128.4C562.259 128.4 565.529 128.76 568.829 129.48C572.129 130.2 574.859 131.22 577.019 132.54L572.699 141.09C570.419 139.71 568.109 138.78 565.769 138.3C563.489 137.76 561.209 137.49 558.929 137.49C555.509 137.49 552.959 138 551.279 139.02C549.659 140.04 548.849 141.33 548.849 142.89C548.849 144.33 549.389 145.41 550.469 146.13C551.549 146.85 552.959 147.42 554.699 147.84C556.439 148.26 558.359 148.62 560.459 148.92C562.619 149.16 564.749 149.55 566.849 150.09C568.949 150.63 570.869 151.38 572.609 152.34C574.409 153.24 575.849 154.53 576.929 156.21C578.009 157.89 578.549 160.08 578.549 162.78C578.549 165.78 577.649 168.39 575.849 170.61C574.109 172.83 571.619 174.57 568.379 175.83C565.139 177.03 561.269 177.63 556.769 177.63Z" fill="#020126"/>
</svg>
