<svg width="597" height="198" viewBox="0 0 597 198" fill="none" xmlns="http://www.w3.org/2000/svg">
<path d="M0.46 70V7H29.98C37.54 7 43.3 8.5 47.26 11.5C51.22 14.44 53.2 18.4 53.2 23.38C53.2 26.74 52.42 29.62 50.86 32.02C49.3 34.36 47.2 36.19 44.56 37.51C41.98 38.77 39.16 39.4 36.1 39.4L37.72 36.16C41.26 36.16 44.44 36.82 47.26 38.14C50.08 39.4 52.3 41.26 53.92 43.72C55.6 46.18 56.44 49.24 56.44 52.9C56.44 58.3 54.37 62.5 50.23 65.5C46.09 68.5 39.94 70 31.78 70H0.46ZM12.16 60.82H31.06C35.44 60.82 38.8 60.1 41.14 58.66C43.48 57.22 44.65 54.91 44.65 51.73C44.65 48.61 43.48 46.33 41.14 44.89C38.8 43.39 35.44 42.64 31.06 42.64H11.26V33.55H28.72C32.8 33.55 35.92 32.83 38.08 31.39C40.3 29.95 41.41 27.79 41.41 24.91C41.41 21.97 40.3 19.78 38.08 18.34C35.92 16.9 32.8 16.18 28.72 16.18H12.16V60.82ZM88.1868 70.63C84.1068 70.63 80.5068 69.88 77.3868 68.38C74.2668 66.82 71.8368 64.48 70.0968 61.36C68.3568 58.18 67.4868 54.19 67.4868 49.39V21.94H78.7368V47.86C78.7368 52.18 79.6968 55.42 81.6168 57.58C83.5968 59.68 86.3868 60.73 89.9868 60.73C92.6268 60.73 94.9068 60.19 96.8268 59.11C98.8068 58.03 100.337 56.41 101.417 54.25C102.557 52.09 103.127 49.42 103.127 46.24V21.94H114.377V70H103.667V57.04L105.557 61C103.937 64.12 101.567 66.52 98.4468 68.2C95.3268 69.82 91.9068 70.63 88.1868 70.63ZM129.107 70V21.94H140.357V70H129.107ZM134.777 14.02C132.677 14.02 130.937 13.36 129.557 12.04C128.237 10.72 127.577 9.13 127.577 7.27C127.577 5.35 128.237 3.76 129.557 2.49999C130.937 1.18 132.677 0.519999 134.777 0.519999C136.877 0.519999 138.587 1.15 139.907 2.41C141.287 3.61 141.977 5.14 141.977 7C141.977 8.98 141.317 10.66 139.997 12.04C138.677 13.36 136.937 14.02 134.777 14.02ZM155.122 70V3.22H166.372V70H155.122ZM201.478 70.63C196.858 70.63 192.688 69.61 188.968 67.57C185.308 65.47 182.428 62.59 180.328 58.93C178.228 55.27 177.178 50.95 177.178 45.97C177.178 40.99 178.228 36.67 180.328 33.01C182.428 29.35 185.308 26.5 188.968 24.46C192.688 22.42 196.858 21.4 201.478 21.4C205.498 21.4 209.098 22.3 212.278 24.1C215.458 25.84 217.978 28.51 219.838 32.11C221.698 35.71 222.628 40.33 222.628 45.97C222.628 51.55 221.728 56.17 219.928 59.83C218.128 63.43 215.638 66.13 212.458 67.93C209.278 69.73 205.618 70.63 201.478 70.63ZM202.828 61C205.528 61 207.928 60.4 210.028 59.2C212.188 58 213.898 56.26 215.158 53.98C216.478 51.7 217.138 49.03 217.138 45.97C217.138 42.85 216.478 40.18 215.158 37.96C213.898 35.68 212.188 33.94 210.028 32.74C207.928 31.54 205.528 30.94 202.828 30.94C200.128 30.94 197.698 31.54 195.538 32.74C193.438 33.94 191.728 35.68 190.408 37.96C189.148 40.18 188.518 42.85 188.518 45.97C188.518 49.03 189.148 51.7 190.408 53.98C191.728 56.26 193.438 58 195.538 59.2C197.698 60.4 200.128 61 202.828 61ZM217.408 70V58.66L217.858 45.88L216.958 33.1V3.22H228.118V70H217.408ZM268.878 70V7H280.578V60.1H313.518V70H268.878ZM351.373 70V60.28L350.743 58.21V41.2C350.743 37.9 349.753 35.35 347.773 33.55C345.793 31.69 342.793 30.76 338.773 30.76C336.073 30.76 333.403 31.18 330.763 32.02C328.183 32.86 325.993 34.03 324.193 35.53L319.783 27.34C322.363 25.36 325.423 23.89 328.963 22.93C332.563 21.91 336.283 21.4 340.123 21.4C347.083 21.4 352.453 23.08 356.233 26.44C360.073 29.74 361.993 34.87 361.993 41.83V70H351.373ZM336.253 70.63C332.653 70.63 329.503 70.03 326.803 68.83C324.103 67.57 322.003 65.86 320.503 63.7C319.063 61.48 318.343 58.99 318.343 56.23C318.343 53.53 318.973 51.1 320.233 48.94C321.553 46.78 323.683 45.07 326.623 43.81C329.563 42.55 333.463 41.92 338.323 41.92H352.273V49.39H339.133C335.293 49.39 332.713 50.02 331.393 51.28C330.073 52.48 329.413 53.98 329.413 55.78C329.413 57.82 330.223 59.44 331.843 60.64C333.463 61.84 335.713 62.44 338.593 62.44C341.353 62.44 343.813 61.81 345.973 60.55C348.193 59.29 349.783 57.43 350.743 54.97L352.633 61.72C351.553 64.54 349.603 66.73 346.783 68.29C344.023 69.85 340.513 70.63 336.253 70.63ZM391.281 70.63C387.261 70.63 383.391 70.12 379.671 69.1C376.011 68.02 373.101 66.73 370.941 65.23L375.261 56.68C377.421 58.06 380.001 59.2 383.001 60.1C386.001 61 389.001 61.45 392.001 61.45C395.541 61.45 398.091 60.97 399.651 60.01C401.271 59.05 402.081 57.76 402.081 56.14C402.081 54.82 401.541 53.83 400.461 53.17C399.381 52.45 397.971 51.91 396.231 51.55C394.491 51.19 392.541 50.86 390.381 50.56C388.281 50.26 386.151 49.87 383.991 49.39C381.891 48.85 379.971 48.1 378.231 47.14C376.491 46.12 375.081 44.77 374.001 43.09C372.921 41.41 372.381 39.19 372.381 36.43C372.381 33.37 373.251 30.73 374.991 28.51C376.731 26.23 379.161 24.49 382.281 23.29C385.461 22.03 389.211 21.4 393.531 21.4C396.771 21.4 400.041 21.76 403.341 22.48C406.641 23.2 409.371 24.22 411.531 25.54L407.211 34.09C404.931 32.71 402.621 31.78 400.281 31.3C398.001 30.76 395.721 30.49 393.441 30.49C390.021 30.49 387.471 31 385.791 32.02C384.171 33.04 383.361 34.33 383.361 35.89C383.361 37.33 383.901 38.41 384.981 39.13C386.061 39.85 387.471 40.42 389.211 40.84C390.951 41.26 392.871 41.62 394.971 41.92C397.131 42.16 399.261 42.55 401.361 43.09C403.461 43.63 405.381 44.38 407.121 45.34C408.921 46.24 410.361 47.53 411.441 49.21C412.521 50.89 413.061 53.08 413.061 55.78C413.061 58.78 412.161 61.39 410.361 63.61C408.621 65.83 406.131 67.57 402.891 68.83C399.651 70.03 395.781 70.63 391.281 70.63ZM440.839 70.63C435.559 70.63 431.479 69.28 428.599 66.58C425.719 63.82 424.279 59.77 424.279 54.43V11.32H435.529V54.16C435.529 56.44 436.099 58.21 437.239 59.47C438.439 60.73 440.089 61.36 442.189 61.36C444.709 61.36 446.809 60.7 448.489 59.38L451.639 67.39C450.319 68.47 448.699 69.28 446.779 69.82C444.859 70.36 442.879 70.63 440.839 70.63ZM416.359 31.3V22.3H448.399V31.3H416.359ZM460.894 70V21.94H472.144V70H460.894ZM466.564 14.02C464.464 14.02 462.724 13.36 461.344 12.04C460.024 10.72 459.364 9.13 459.364 7.27C459.364 5.35 460.024 3.76 461.344 2.49999C462.724 1.18 464.464 0.519999 466.564 0.519999C468.664 0.519999 470.374 1.15 471.694 2.41C473.074 3.61 473.764 5.14 473.764 7C473.764 8.98 473.104 10.66 471.784 12.04C470.464 13.36 468.724 14.02 466.564 14.02ZM514.179 21.4C518.019 21.4 521.439 22.15 524.439 23.65C527.499 25.15 529.899 27.46 531.639 30.58C533.379 33.64 534.249 37.6 534.249 42.46V70H522.999V43.9C522.999 39.64 521.979 36.46 519.939 34.36C517.959 32.26 515.169 31.21 511.569 31.21C508.929 31.21 506.589 31.75 504.549 32.83C502.509 33.91 500.919 35.53 499.779 37.69C498.699 39.79 498.159 42.46 498.159 45.7V70H486.909V21.94H497.619V34.9L495.729 30.94C497.409 27.88 499.839 25.54 503.019 23.92C506.259 22.24 509.979 21.4 514.179 21.4ZM570.389 88.09C565.949 88.09 561.599 87.49 557.339 86.29C553.139 85.15 549.689 83.47 546.989 81.25L552.029 72.79C554.129 74.53 556.769 75.91 559.949 76.93C563.189 78.01 566.459 78.55 569.759 78.55C575.039 78.55 578.909 77.32 581.369 74.86C583.829 72.46 585.059 68.83 585.059 63.97V55.42L585.959 44.53L585.599 33.64V21.94H596.309V62.71C596.309 71.41 594.089 77.8 589.649 81.88C585.209 86.02 578.789 88.09 570.389 88.09ZM568.949 67.84C564.389 67.84 560.249 66.88 556.529 64.96C552.869 62.98 549.959 60.25 547.799 56.77C545.699 53.29 544.649 49.21 544.649 44.53C544.649 39.91 545.699 35.86 547.799 32.38C549.959 28.9 552.869 26.2 556.529 24.28C560.249 22.36 564.389 21.4 568.949 21.4C573.029 21.4 576.689 22.21 579.929 23.83C583.169 25.45 585.749 27.97 587.669 31.39C589.649 34.81 590.639 39.19 590.639 44.53C590.639 49.87 589.649 54.28 587.669 57.76C585.749 61.18 583.169 63.73 579.929 65.41C576.689 67.03 573.029 67.84 568.949 67.84ZM570.659 58.3C573.479 58.3 575.999 57.73 578.219 56.59C580.439 55.39 582.149 53.77 583.349 51.73C584.609 49.63 585.239 47.23 585.239 44.53C585.239 41.83 584.609 39.46 583.349 37.42C582.149 35.32 580.439 33.73 578.219 32.65C575.999 31.51 573.479 30.94 570.659 30.94C567.839 30.94 565.289 31.51 563.009 32.65C560.789 33.73 559.049 35.32 557.789 37.42C556.589 39.46 555.989 41.83 555.989 44.53C555.989 47.23 556.589 49.63 557.789 51.73C559.049 53.77 560.789 55.39 563.009 56.59C565.289 57.73 567.839 58.3 570.659 58.3ZM0.46 180V117H26.38C31.96 117 36.73 117.9 40.69 119.7C44.71 121.5 47.8 124.08 49.96 127.44C52.12 130.8 53.2 134.79 53.2 139.41C53.2 144.03 52.12 148.02 49.96 151.38C47.8 154.74 44.71 157.32 40.69 159.12C36.73 160.92 31.96 161.82 26.38 161.82H6.94L12.16 156.33V180H0.46ZM12.16 157.59L6.94 151.92H25.84C31 151.92 34.87 150.84 37.45 148.68C40.09 146.46 41.41 143.37 41.41 139.41C41.41 135.39 40.09 132.3 37.45 130.14C34.87 127.98 31 126.9 25.84 126.9H6.94L12.16 121.14V157.59ZM92.9744 180V170.28L92.3444 168.21V151.2C92.3444 147.9 91.3544 145.35 89.3744 143.55C87.3944 141.69 84.3944 140.76 80.3744 140.76C77.6744 140.76 75.0044 141.18 72.3644 142.02C69.7844 142.86 67.5944 144.03 65.7944 145.53L61.3844 137.34C63.9644 135.36 67.0244 133.89 70.5644 132.93C74.1644 131.91 77.8844 131.4 81.7244 131.4C88.6844 131.4 94.0544 133.08 97.8344 136.44C101.674 139.74 103.594 144.87 103.594 151.83V180H92.9744ZM77.8544 180.63C74.2544 180.63 71.1044 180.03 68.4044 178.83C65.7044 177.57 63.6044 175.86 62.1044 173.7C60.6644 171.48 59.9444 168.99 59.9444 166.23C59.9444 163.53 60.5744 161.1 61.8344 158.94C63.1544 156.78 65.2844 155.07 68.2244 153.81C71.1644 152.55 75.0644 151.92 79.9244 151.92H93.8744V159.39H80.7344C76.8944 159.39 74.3144 160.02 72.9944 161.28C71.6744 162.48 71.0144 163.98 71.0144 165.78C71.0144 167.82 71.8244 169.44 73.4444 170.64C75.0644 171.84 77.3144 172.44 80.1944 172.44C82.9544 172.44 85.4144 171.81 87.5744 170.55C89.7944 169.29 91.3844 167.43 92.3444 164.97L94.2344 171.72C93.1544 174.54 91.2044 176.73 88.3844 178.29C85.6244 179.85 82.1144 180.63 77.8544 180.63ZM118.032 180V131.94H128.742V145.17L127.482 141.3C128.922 138.06 131.172 135.6 134.232 133.92C137.352 132.24 141.222 131.4 145.842 131.4V142.11C145.362 141.99 144.912 141.93 144.492 141.93C144.072 141.87 143.652 141.84 143.232 141.84C138.972 141.84 135.582 143.1 133.062 145.62C130.542 148.08 129.282 151.77 129.282 156.69V180H118.032ZM175.234 180.63C169.954 180.63 165.874 179.28 162.994 176.58C160.114 173.82 158.674 169.77 158.674 164.43V121.32H169.924V164.16C169.924 166.44 170.494 168.21 171.634 169.47C172.834 170.73 174.484 171.36 176.584 171.36C179.104 171.36 181.204 170.7 182.884 169.38L186.034 177.39C184.714 178.47 183.094 179.28 181.174 179.82C179.254 180.36 177.274 180.63 175.234 180.63ZM150.754 141.3V132.3H182.794V141.3H150.754ZM222.558 131.4C226.398 131.4 229.818 132.15 232.818 133.65C235.878 135.15 238.278 137.46 240.018 140.58C241.758 143.64 242.628 147.6 242.628 152.46V180H231.378V153.9C231.378 149.64 230.358 146.46 228.318 144.36C226.338 142.26 223.548 141.21 219.948 141.21C217.308 141.21 214.968 141.75 212.928 142.83C210.888 143.91 209.298 145.53 208.158 147.69C207.078 149.79 206.538 152.46 206.538 155.7V180H195.288V131.94H205.998V144.9L204.108 140.94C205.788 137.88 208.218 135.54 211.398 133.92C214.638 132.24 218.358 131.4 222.558 131.4ZM279.577 180.63C274.237 180.63 269.557 179.58 265.537 177.48C261.577 175.32 258.487 172.38 256.267 168.66C254.107 164.94 253.027 160.71 253.027 155.97C253.027 151.17 254.077 146.94 256.177 143.28C258.337 139.56 261.277 136.65 264.997 134.55C268.777 132.45 273.067 131.4 277.867 131.4C282.547 131.4 286.717 132.42 290.377 134.46C294.037 136.5 296.917 139.38 299.017 143.1C301.117 146.82 302.167 151.2 302.167 156.24C302.167 156.72 302.137 157.26 302.077 157.86C302.077 158.46 302.047 159.03 301.987 159.57H261.937V152.1H296.047L291.637 154.44C291.697 151.68 291.127 149.25 289.927 147.15C288.727 145.05 287.077 143.4 284.977 142.2C282.937 141 280.567 140.4 277.867 140.4C275.107 140.4 272.677 141 270.577 142.2C268.537 143.4 266.917 145.08 265.717 147.24C264.577 149.34 264.007 151.83 264.007 154.71V156.51C264.007 159.39 264.667 161.94 265.987 164.16C267.307 166.38 269.167 168.09 271.567 169.29C273.967 170.49 276.727 171.09 279.847 171.09C282.547 171.09 284.977 170.67 287.137 169.83C289.297 168.99 291.217 167.67 292.897 165.87L298.927 172.8C296.767 175.32 294.037 177.27 290.737 178.65C287.497 179.97 283.777 180.63 279.577 180.63ZM312.974 180V131.94H323.684V145.17L322.424 141.3C323.864 138.06 326.114 135.6 329.174 133.92C332.294 132.24 336.164 131.4 340.784 131.4V142.11C340.304 141.99 339.854 141.93 339.434 141.93C339.014 141.87 338.594 141.84 338.174 141.84C333.914 141.84 330.524 143.1 328.004 145.62C325.484 148.08 324.224 151.77 324.224 156.69V180H312.974ZM365.617 180.63C361.597 180.63 357.727 180.12 354.007 179.1C350.347 178.02 347.437 176.73 345.277 175.23L349.597 166.68C351.757 168.06 354.337 169.2 357.337 170.1C360.337 171 363.337 171.45 366.337 171.45C369.877 171.45 372.427 170.97 373.987 170.01C375.607 169.05 376.417 167.76 376.417 166.14C376.417 164.82 375.877 163.83 374.797 163.17C373.717 162.45 372.307 161.91 370.567 161.55C368.827 161.19 366.877 160.86 364.717 160.56C362.617 160.26 360.487 159.87 358.327 159.39C356.227 158.85 354.307 158.1 352.567 157.14C350.827 156.12 349.417 154.77 348.337 153.09C347.257 151.41 346.717 149.19 346.717 146.43C346.717 143.37 347.587 140.73 349.327 138.51C351.067 136.23 353.497 134.49 356.617 133.29C359.797 132.03 363.547 131.4 367.867 131.4C371.107 131.4 374.377 131.76 377.677 132.48C380.977 133.2 383.707 134.22 385.867 135.54L381.547 144.09C379.267 142.71 376.957 141.78 374.617 141.3C372.337 140.76 370.057 140.49 367.777 140.49C364.357 140.49 361.807 141 360.127 142.02C358.507 143.04 357.697 144.33 357.697 145.89C357.697 147.33 358.237 148.41 359.317 149.13C360.397 149.85 361.807 150.42 363.547 150.84C365.287 151.26 367.207 151.62 369.307 151.92C371.467 152.16 373.597 152.55 375.697 153.09C377.797 153.63 379.717 154.38 381.457 155.34C383.257 156.24 384.697 157.53 385.777 159.21C386.857 160.89 387.397 163.08 387.397 165.78C387.397 168.78 386.497 171.39 384.697 173.61C382.957 175.83 380.467 177.57 377.227 178.83C373.987 180.03 370.117 180.63 365.617 180.63ZM424.355 131.4C428.195 131.4 431.615 132.15 434.615 133.65C437.675 135.15 440.075 137.46 441.815 140.58C443.555 143.64 444.425 147.6 444.425 152.46V180H433.175V153.9C433.175 149.64 432.155 146.46 430.115 144.36C428.135 142.26 425.345 141.21 421.745 141.21C419.105 141.21 416.765 141.75 414.725 142.83C412.685 143.91 411.095 145.53 409.955 147.69C408.875 149.79 408.335 152.46 408.335 155.7V180H397.085V113.22H408.335V144.9L405.905 140.94C407.585 137.88 410.015 135.54 413.195 133.92C416.435 132.24 420.155 131.4 424.355 131.4ZM458.696 180V131.94H469.946V180H458.696ZM464.366 124.02C462.266 124.02 460.526 123.36 459.146 122.04C457.826 120.72 457.166 119.13 457.166 117.27C457.166 115.35 457.826 113.76 459.146 112.5C460.526 111.18 462.266 110.52 464.366 110.52C466.466 110.52 468.176 111.15 469.496 112.41C470.876 113.61 471.566 115.14 471.566 117C471.566 118.98 470.906 120.66 469.586 122.04C468.266 123.36 466.526 124.02 464.366 124.02ZM511.352 180.63C507.452 180.63 503.882 179.73 500.642 177.93C497.462 176.13 494.912 173.43 492.992 169.83C491.132 166.17 490.202 161.55 490.202 155.97C490.202 150.33 491.102 145.71 492.902 142.11C494.762 138.51 497.282 135.84 500.462 134.1C503.642 132.3 507.272 131.4 511.352 131.4C516.092 131.4 520.262 132.42 523.862 134.46C527.522 136.5 530.402 139.35 532.502 143.01C534.662 146.67 535.742 150.99 535.742 155.97C535.742 160.95 534.662 165.3 532.502 169.02C530.402 172.68 527.522 175.53 523.862 177.57C520.262 179.61 516.092 180.63 511.352 180.63ZM484.712 197.46V131.94H495.422V143.28L495.062 156.06L495.962 168.84V197.46H484.712ZM510.092 171C512.792 171 515.192 170.4 517.292 169.2C519.452 168 521.162 166.26 522.422 163.98C523.682 161.7 524.312 159.03 524.312 155.97C524.312 152.85 523.682 150.18 522.422 147.96C521.162 145.68 519.452 143.94 517.292 142.74C515.192 141.54 512.792 140.94 510.092 140.94C507.392 140.94 504.962 141.54 502.802 142.74C500.642 143.94 498.932 145.68 497.672 147.96C496.412 150.18 495.782 152.85 495.782 155.97C495.782 159.03 496.412 161.7 497.672 163.98C498.932 166.26 500.642 168 502.802 169.2C504.962 170.4 507.392 171 510.092 171ZM561.261 180.63C557.241 180.63 553.371 180.12 549.651 179.1C545.991 178.02 543.081 176.73 540.921 175.23L545.241 166.68C547.401 168.06 549.981 169.2 552.981 170.1C555.981 171 558.981 171.45 561.981 171.45C565.521 171.45 568.071 170.97 569.631 170.01C571.251 169.05 572.061 167.76 572.061 166.14C572.061 164.82 571.521 163.83 570.441 163.17C569.361 162.45 567.951 161.91 566.211 161.55C564.471 161.19 562.521 160.86 560.361 160.56C558.261 160.26 556.131 159.87 553.971 159.39C551.871 158.85 549.951 158.1 548.211 157.14C546.471 156.12 545.061 154.77 543.981 153.09C542.901 151.41 542.361 149.19 542.361 146.43C542.361 143.37 543.231 140.73 544.971 138.51C546.711 136.23 549.141 134.49 552.261 133.29C555.441 132.03 559.191 131.4 563.511 131.4C566.751 131.4 570.021 131.76 573.321 132.48C576.621 133.2 579.351 134.22 581.511 135.54L577.191 144.09C574.911 142.71 572.601 141.78 570.261 141.3C567.981 140.76 565.701 140.49 563.421 140.49C560.001 140.49 557.451 141 555.771 142.02C554.151 143.04 553.341 144.33 553.341 145.89C553.341 147.33 553.881 148.41 554.961 149.13C556.041 149.85 557.451 150.42 559.191 150.84C560.931 151.26 562.851 151.62 564.951 151.92C567.111 152.16 569.241 152.55 571.341 153.09C573.441 153.63 575.361 154.38 577.101 155.34C578.901 156.24 580.341 157.53 581.421 159.21C582.501 160.89 583.041 163.08 583.041 165.78C583.041 168.78 582.141 171.39 580.341 173.61C578.601 175.83 576.111 177.57 572.871 178.83C569.631 180.03 565.761 180.63 561.261 180.63Z" fill="#020126"/>
</svg>
