<svg width="708" height="360" viewBox="0 0 708 360" fill="none" xmlns="http://www.w3.org/2000/svg">
<path d="M6.3 58V16H24C28.48 16 32.42 16.88 35.82 18.64C39.26 20.4 41.92 22.86 43.8 26.02C45.72 29.18 46.68 32.84 46.68 37C46.68 41.16 45.72 44.82 43.8 47.98C41.92 51.14 39.26 53.6 35.82 55.36C32.42 57.12 28.48 58 24 58H6.3ZM12.3 52.78H23.64C27.12 52.78 30.12 52.12 32.64 50.8C35.2 49.48 37.18 47.64 38.58 45.28C39.98 42.88 40.68 40.12 40.68 37C40.68 33.84 39.98 31.08 38.58 28.72C37.18 26.36 35.2 24.52 32.64 23.2C30.12 21.88 27.12 21.22 23.64 21.22H12.3V52.78ZM55.0303 58V26.2H60.7903V58H55.0303ZM57.9103 20.08C56.7903 20.08 55.8503 19.72 55.0903 19C54.3703 18.28 54.0103 17.4 54.0103 16.36C54.0103 15.28 54.3703 14.38 55.0903 13.66C55.8503 12.94 56.7903 12.58 57.9103 12.58C59.0303 12.58 59.9503 12.94 60.6703 13.66C61.4303 14.34 61.8103 15.2 61.8103 16.24C61.8103 17.32 61.4503 18.24 60.7303 19C60.0103 19.72 59.0703 20.08 57.9103 20.08ZM85.7081 70C82.7881 70 79.9481 69.58 77.1881 68.74C74.4681 67.94 72.2481 66.78 70.5281 65.26L73.2881 60.82C74.7681 62.1 76.5881 63.1 78.7481 63.82C80.9081 64.58 83.1681 64.96 85.5281 64.96C89.2881 64.96 92.0481 64.08 93.8081 62.32C95.5681 60.56 96.4481 57.88 96.4481 54.28V47.56L97.0481 41.26L96.7481 34.9V26.2H102.208V53.68C102.208 59.28 100.808 63.4 98.0081 66.04C95.2081 68.68 91.1081 70 85.7081 70ZM84.9881 56.68C81.9081 56.68 79.1481 56.04 76.7081 54.76C74.3081 53.44 72.3881 51.62 70.9481 49.3C69.5481 46.98 68.8481 44.3 68.8481 41.26C68.8481 38.18 69.5481 35.5 70.9481 33.22C72.3881 30.9 74.3081 29.1 76.7081 27.82C79.1481 26.54 81.9081 25.9 84.9881 25.9C87.7081 25.9 90.1881 26.46 92.4281 27.58C94.6681 28.66 96.4481 30.34 97.7681 32.62C99.1281 34.9 99.8081 37.78 99.8081 41.26C99.8081 44.7 99.1281 47.56 97.7681 49.84C96.4481 52.12 94.6681 53.84 92.4281 55C90.1881 56.12 87.7081 56.68 84.9881 56.68ZM85.6481 51.64C87.7681 51.64 89.6481 51.2 91.2881 50.32C92.9281 49.44 94.2081 48.22 95.1281 46.66C96.0881 45.1 96.5681 43.3 96.5681 41.26C96.5681 39.22 96.0881 37.42 95.1281 35.86C94.2081 34.3 92.9281 33.1 91.2881 32.26C89.6481 31.38 87.7681 30.94 85.6481 30.94C83.5281 30.94 81.6281 31.38 79.9481 32.26C78.3081 33.1 77.0081 34.3 76.0481 35.86C75.1281 37.42 74.6681 39.22 74.6681 41.26C74.6681 43.3 75.1281 45.1 76.0481 46.66C77.0081 48.22 78.3081 49.44 79.9481 50.32C81.6281 51.2 83.5281 51.64 85.6481 51.64ZM113.214 58V26.2H118.974V58H113.214ZM116.094 20.08C114.974 20.08 114.034 19.72 113.274 19C112.554 18.28 112.194 17.4 112.194 16.36C112.194 15.28 112.554 14.38 113.274 13.66C114.034 12.94 114.974 12.58 116.094 12.58C117.214 12.58 118.134 12.94 118.854 13.66C119.614 14.34 119.994 15.2 119.994 16.24C119.994 17.32 119.634 18.24 118.914 19C118.194 19.72 117.254 20.08 116.094 20.08ZM140.892 58.36C137.692 58.36 135.212 57.5 133.452 55.78C131.692 54.06 130.812 51.6 130.812 48.4V19.24H136.572V48.16C136.572 49.88 136.992 51.2 137.832 52.12C138.712 53.04 139.952 53.5 141.552 53.5C143.352 53.5 144.852 53 146.052 52L147.852 56.14C146.972 56.9 145.912 57.46 144.672 57.82C143.472 58.18 142.212 58.36 140.892 58.36ZM125.412 30.94V26.2H145.692V30.94H125.412ZM174.555 58V51.28L174.255 50.02V38.56C174.255 36.12 173.535 34.24 172.095 32.92C170.695 31.56 168.575 30.88 165.735 30.88C163.855 30.88 162.015 31.2 160.215 31.84C158.415 32.44 156.895 33.26 155.655 34.3L153.255 29.98C154.895 28.66 156.855 27.66 159.135 26.98C161.455 26.26 163.875 25.9 166.395 25.9C170.755 25.9 174.115 26.96 176.475 29.08C178.835 31.2 180.015 34.44 180.015 38.8V58H174.555ZM164.115 58.36C161.755 58.36 159.675 57.96 157.875 57.16C156.115 56.36 154.755 55.26 153.795 53.86C152.835 52.42 152.355 50.8 152.355 49C152.355 47.28 152.755 45.72 153.555 44.32C154.395 42.92 155.735 41.8 157.575 40.96C159.455 40.12 161.975 39.7 165.135 39.7H175.215V43.84H165.375C162.495 43.84 160.555 44.32 159.555 45.28C158.555 46.24 158.055 47.4 158.055 48.76C158.055 50.32 158.675 51.58 159.915 52.54C161.155 53.46 162.875 53.92 165.075 53.92C167.235 53.92 169.115 53.44 170.715 52.48C172.355 51.52 173.535 50.12 174.255 48.28L175.395 52.24C174.635 54.12 173.295 55.62 171.375 56.74C169.455 57.82 167.035 58.36 164.115 58.36ZM190.675 58V13.48H196.435V58H190.675ZM254.506 16H260.506V58H254.506V16ZM230.386 58H224.386V16H230.386V58ZM255.046 39.28H229.786V34.06H255.046V39.28ZM286.397 58.36C282.997 58.36 279.997 57.66 277.397 56.26C274.837 54.86 272.837 52.94 271.397 50.5C269.997 48.06 269.297 45.26 269.297 42.1C269.297 38.94 269.977 36.14 271.337 33.7C272.737 31.26 274.637 29.36 277.037 28C279.477 26.6 282.217 25.9 285.257 25.9C288.337 25.9 291.057 26.58 293.417 27.94C295.777 29.3 297.617 31.22 298.937 33.7C300.297 36.14 300.977 39 300.977 42.28C300.977 42.52 300.957 42.8 300.917 43.12C300.917 43.44 300.897 43.74 300.857 44.02H273.797V39.88H297.857L295.517 41.32C295.557 39.28 295.137 37.46 294.257 35.86C293.377 34.26 292.157 33.02 290.597 32.14C289.077 31.22 287.297 30.76 285.257 30.76C283.257 30.76 281.477 31.22 279.917 32.14C278.357 33.02 277.137 34.28 276.257 35.92C275.377 37.52 274.937 39.36 274.937 41.44V42.4C274.937 44.52 275.417 46.42 276.377 48.1C277.377 49.74 278.757 51.02 280.517 51.94C282.277 52.86 284.297 53.32 286.577 53.32C288.457 53.32 290.157 53 291.677 52.36C293.237 51.72 294.597 50.76 295.757 49.48L298.937 53.2C297.497 54.88 295.697 56.16 293.537 57.04C291.417 57.92 289.037 58.36 286.397 58.36ZM327.837 58V51.28L327.537 50.02V38.56C327.537 36.12 326.817 34.24 325.377 32.92C323.977 31.56 321.857 30.88 319.017 30.88C317.137 30.88 315.297 31.2 313.497 31.84C311.697 32.44 310.177 33.26 308.937 34.3L306.537 29.98C308.177 28.66 310.137 27.66 312.417 26.98C314.737 26.26 317.157 25.9 319.677 25.9C324.037 25.9 327.397 26.96 329.757 29.08C332.117 31.2 333.297 34.44 333.297 38.8V58H327.837ZM317.397 58.36C315.037 58.36 312.957 57.96 311.157 57.16C309.397 56.36 308.037 55.26 307.077 53.86C306.117 52.42 305.637 50.8 305.637 49C305.637 47.28 306.037 45.72 306.837 44.32C307.677 42.92 309.017 41.8 310.857 40.96C312.737 40.12 315.257 39.7 318.417 39.7H328.497V43.84H318.657C315.777 43.84 313.837 44.32 312.837 45.28C311.837 46.24 311.337 47.4 311.337 48.76C311.337 50.32 311.957 51.58 313.197 52.54C314.437 53.46 316.157 53.92 318.357 53.92C320.517 53.92 322.397 53.44 323.997 52.48C325.637 51.52 326.817 50.12 327.537 48.28L328.677 52.24C327.917 54.12 326.577 55.62 324.657 56.74C322.737 57.82 320.317 58.36 317.397 58.36ZM343.956 58V13.48H349.716V58H343.956ZM372.454 58.36C369.254 58.36 366.774 57.5 365.014 55.78C363.254 54.06 362.374 51.6 362.374 48.4V19.24H368.134V48.16C368.134 49.88 368.554 51.2 369.394 52.12C370.274 53.04 371.514 53.5 373.114 53.5C374.914 53.5 376.414 53 377.614 52L379.414 56.14C378.534 56.9 377.474 57.46 376.234 57.82C375.034 58.18 373.774 58.36 372.454 58.36ZM356.974 30.94V26.2H377.254V30.94H356.974ZM403.358 25.9C405.958 25.9 408.238 26.4 410.198 27.4C412.198 28.4 413.758 29.92 414.878 31.96C415.998 34 416.558 36.58 416.558 39.7V58H410.798V40.36C410.798 37.28 410.038 34.96 408.518 33.4C407.038 31.84 404.938 31.06 402.218 31.06C400.178 31.06 398.398 31.46 396.878 32.26C395.358 33.06 394.178 34.24 393.338 35.8C392.538 37.36 392.138 39.3 392.138 41.62V58H386.378V13.48H392.138V34.78L390.998 32.5C392.038 30.42 393.638 28.8 395.798 27.64C397.958 26.48 400.478 25.9 403.358 25.9Z" fill="black"/>
<path d="M3.71 205V186.73H5.46V205H3.71ZM4.585 182.285C4.18833 182.285 3.85 182.145 3.57 181.865C3.29 181.585 3.15 181.258 3.15 180.885C3.15 180.488 3.29 180.15 3.57 179.87C3.85 179.59 4.18833 179.45 4.585 179.45C5.005 179.45 5.34333 179.59 5.6 179.87C5.88 180.127 6.02 180.453 6.02 180.85C6.02 181.247 5.88 181.585 5.6 181.865C5.34333 182.145 5.005 182.285 4.585 182.285ZM21.761 186.59C23.2543 186.59 24.5493 186.882 25.646 187.465C26.766 188.025 27.6293 188.888 28.236 190.055C28.866 191.198 29.181 192.622 29.181 194.325V205H27.431V194.465C27.431 192.412 26.906 190.848 25.856 189.775C24.8293 188.702 23.3826 188.165 21.516 188.165C20.0926 188.165 18.856 188.457 17.806 189.04C16.756 189.623 15.951 190.44 15.391 191.49C14.8543 192.54 14.586 193.8 14.586 195.27V205H12.836V186.73H14.516V191.805L14.271 191.245C14.831 189.798 15.7526 188.667 17.036 187.85C18.3193 187.01 19.8943 186.59 21.761 186.59ZM45.3108 186.59C46.8041 186.59 48.0991 186.882 49.1958 187.465C50.3158 188.025 51.1791 188.888 51.7858 190.055C52.4158 191.198 52.7308 192.622 52.7308 194.325V205H50.9808V194.465C50.9808 192.412 50.4558 190.848 49.4058 189.775C48.3791 188.702 46.9324 188.165 45.0658 188.165C43.6424 188.165 42.4058 188.457 41.3558 189.04C40.3058 189.623 39.5008 190.44 38.9408 191.49C38.4041 192.54 38.1358 193.8 38.1358 195.27V205H36.3858V186.73H38.0658V191.805L37.8208 191.245C38.3808 189.798 39.3024 188.667 40.5858 187.85C41.8691 187.01 43.4441 186.59 45.3108 186.59ZM67.0756 205.14C65.3256 205.14 63.7623 204.743 62.3856 203.95C61.0323 203.157 59.9473 202.06 59.1306 200.66C58.3373 199.26 57.9406 197.662 57.9406 195.865C57.9406 194.045 58.3373 192.447 59.1306 191.07C59.9473 189.67 61.0323 188.573 62.3856 187.78C63.7623 186.987 65.3256 186.59 67.0756 186.59C68.8256 186.59 70.3889 186.987 71.7656 187.78C73.1423 188.573 74.2273 189.67 75.0206 191.07C75.8139 192.447 76.2106 194.045 76.2106 195.865C76.2106 197.662 75.8139 199.26 75.0206 200.66C74.2273 202.06 73.1423 203.157 71.7656 203.95C70.3889 204.743 68.8256 205.14 67.0756 205.14ZM67.0756 203.565C68.4756 203.565 69.7356 203.25 70.8556 202.62C71.9756 201.967 72.8506 201.057 73.4806 199.89C74.1106 198.723 74.4256 197.382 74.4256 195.865C74.4256 194.325 74.1106 192.983 73.4806 191.84C72.8506 190.673 71.9756 189.775 70.8556 189.145C69.7356 188.492 68.4756 188.165 67.0756 188.165C65.6756 188.165 64.4156 188.492 63.2956 189.145C62.1989 189.775 61.3239 190.673 60.6706 191.84C60.0406 192.983 59.7256 194.325 59.7256 195.865C59.7256 197.382 60.0406 198.723 60.6706 199.89C61.3239 201.057 62.1989 201.967 63.2956 202.62C64.4156 203.25 65.6756 203.565 67.0756 203.565ZM85.747 205L77.522 186.73H79.377L87.077 204.02H86.237L94.007 186.73H95.792L87.532 205H85.747ZM110.586 205V200.835L110.516 200.205V193.345C110.516 191.642 110.05 190.347 109.116 189.46C108.206 188.573 106.865 188.13 105.091 188.13C103.831 188.13 102.653 188.352 101.556 188.795C100.483 189.215 99.5613 189.763 98.7913 190.44L97.9163 189.18C98.8263 188.363 99.923 187.733 101.206 187.29C102.49 186.823 103.831 186.59 105.231 186.59C107.495 186.59 109.233 187.162 110.446 188.305C111.66 189.448 112.266 191.152 112.266 193.415V205H110.586ZM104.006 205.14C102.653 205.14 101.475 204.93 100.471 204.51C99.4913 204.067 98.733 203.448 98.1963 202.655C97.683 201.862 97.4263 200.952 97.4263 199.925C97.4263 198.992 97.6363 198.152 98.0563 197.405C98.4997 196.635 99.223 196.017 100.226 195.55C101.23 195.06 102.571 194.815 104.251 194.815H110.971V196.18H104.286C102.396 196.18 101.066 196.53 100.296 197.23C99.5497 197.93 99.1763 198.805 99.1763 199.855C99.1763 201.022 99.6197 201.955 100.506 202.655C101.393 203.355 102.641 203.705 104.251 203.705C105.791 203.705 107.086 203.355 108.136 202.655C109.21 201.955 110.003 200.94 110.516 199.61L111.006 200.8C110.516 202.13 109.676 203.192 108.486 203.985C107.32 204.755 105.826 205.14 104.006 205.14ZM124.797 205.14C123.187 205.14 121.95 204.697 121.087 203.81C120.247 202.923 119.827 201.71 119.827 200.17V182.74H121.577V199.995C121.577 201.162 121.868 202.06 122.452 202.69C123.035 203.32 123.875 203.635 124.972 203.635C126.115 203.635 127.06 203.297 127.807 202.62L128.542 203.845C128.075 204.288 127.503 204.615 126.827 204.825C126.173 205.035 125.497 205.14 124.797 205.14ZM116.467 188.235V186.73H127.387V188.235H116.467ZM133.422 205V186.73H135.172V205H133.422ZM134.297 182.285C133.9 182.285 133.562 182.145 133.282 181.865C133.002 181.585 132.862 181.258 132.862 180.885C132.862 180.488 133.002 180.15 133.282 179.87C133.562 179.59 133.9 179.45 134.297 179.45C134.717 179.45 135.055 179.59 135.312 179.87C135.592 180.127 135.732 180.453 135.732 180.85C135.732 181.247 135.592 181.585 135.312 181.865C135.055 182.145 134.717 182.285 134.297 182.285ZM149.688 205.14C147.938 205.14 146.375 204.743 144.998 203.95C143.645 203.157 142.56 202.06 141.743 200.66C140.95 199.26 140.553 197.662 140.553 195.865C140.553 194.045 140.95 192.447 141.743 191.07C142.56 189.67 143.645 188.573 144.998 187.78C146.375 186.987 147.938 186.59 149.688 186.59C151.438 186.59 153.001 186.987 154.378 187.78C155.755 188.573 156.84 189.67 157.633 191.07C158.426 192.447 158.823 194.045 158.823 195.865C158.823 197.662 158.426 199.26 157.633 200.66C156.84 202.06 155.755 203.157 154.378 203.95C153.001 204.743 151.438 205.14 149.688 205.14ZM149.688 203.565C151.088 203.565 152.348 203.25 153.468 202.62C154.588 201.967 155.463 201.057 156.093 199.89C156.723 198.723 157.038 197.382 157.038 195.865C157.038 194.325 156.723 192.983 156.093 191.84C155.463 190.673 154.588 189.775 153.468 189.145C152.348 188.492 151.088 188.165 149.688 188.165C148.288 188.165 147.028 188.492 145.908 189.145C144.811 189.775 143.936 190.673 143.283 191.84C142.653 192.983 142.338 194.325 142.338 195.865C142.338 197.382 142.653 198.723 143.283 199.89C143.936 201.057 144.811 201.967 145.908 202.62C147.028 203.25 148.288 203.565 149.688 203.565ZM173.177 186.59C174.67 186.59 175.965 186.882 177.062 187.465C178.182 188.025 179.045 188.888 179.652 190.055C180.282 191.198 180.597 192.622 180.597 194.325V205H178.847V194.465C178.847 192.412 178.322 190.848 177.272 189.775C176.245 188.702 174.799 188.165 172.932 188.165C171.509 188.165 170.272 188.457 169.222 189.04C168.172 189.623 167.367 190.44 166.807 191.49C166.27 192.54 166.002 193.8 166.002 195.27V205H164.252V186.73H165.932V191.805L165.687 191.245C166.247 189.798 167.169 188.667 168.452 187.85C169.735 187.01 171.31 186.59 173.177 186.59ZM196.791 205V186.73H198.541V205H196.791ZM197.666 182.285C197.269 182.285 196.931 182.145 196.651 181.865C196.371 181.585 196.231 181.258 196.231 180.885C196.231 180.488 196.371 180.15 196.651 179.87C196.931 179.59 197.269 179.45 197.666 179.45C198.086 179.45 198.424 179.59 198.681 179.87C198.961 180.127 199.101 180.453 199.101 180.85C199.101 181.247 198.961 181.585 198.681 181.865C198.424 182.145 198.086 182.285 197.666 182.285ZM210.537 205.14C209.02 205.14 207.597 204.918 206.267 204.475C204.96 204.032 203.945 203.472 203.222 202.795L204.027 201.395C204.727 202.002 205.66 202.527 206.827 202.97C207.994 203.39 209.254 203.6 210.607 203.6C212.52 203.6 213.897 203.285 214.737 202.655C215.577 202.025 215.997 201.197 215.997 200.17C215.997 199.423 215.775 198.84 215.332 198.42C214.912 197.977 214.34 197.638 213.617 197.405C212.894 197.172 212.1 196.985 211.237 196.845C210.374 196.682 209.51 196.507 208.647 196.32C207.784 196.133 206.99 195.865 206.267 195.515C205.544 195.165 204.96 194.687 204.517 194.08C204.097 193.45 203.887 192.622 203.887 191.595C203.887 190.662 204.144 189.822 204.657 189.075C205.17 188.328 205.94 187.733 206.967 187.29C207.994 186.823 209.277 186.59 210.817 186.59C211.96 186.59 213.104 186.753 214.247 187.08C215.414 187.407 216.359 187.838 217.082 188.375L216.277 189.775C215.507 189.192 214.644 188.772 213.687 188.515C212.73 188.258 211.762 188.13 210.782 188.13C209.009 188.13 207.702 188.457 206.862 189.11C206.045 189.763 205.637 190.58 205.637 191.56C205.637 192.33 205.847 192.948 206.267 193.415C206.71 193.858 207.294 194.208 208.017 194.465C208.74 194.698 209.534 194.897 210.397 195.06C211.26 195.2 212.124 195.363 212.987 195.55C213.85 195.737 214.644 196.005 215.367 196.355C216.09 196.682 216.662 197.148 217.082 197.755C217.525 198.338 217.747 199.132 217.747 200.135C217.747 201.138 217.467 202.013 216.907 202.76C216.37 203.507 215.565 204.09 214.492 204.51C213.419 204.93 212.1 205.14 210.537 205.14ZM236.94 205.14C235.33 205.14 234.093 204.697 233.23 203.81C232.39 202.923 231.97 201.71 231.97 200.17V182.74H233.72V199.995C233.72 201.162 234.012 202.06 234.595 202.69C235.178 203.32 236.018 203.635 237.115 203.635C238.258 203.635 239.203 203.297 239.95 202.62L240.685 203.845C240.218 204.288 239.647 204.615 238.97 204.825C238.317 205.035 237.64 205.14 236.94 205.14ZM228.61 188.235V186.73H239.53V188.235H228.61ZM245.565 205V186.73H247.245V191.735L247.07 191.175C247.584 189.705 248.447 188.573 249.66 187.78C250.874 186.987 252.39 186.59 254.21 186.59V188.305C254.14 188.305 254.07 188.305 254 188.305C253.93 188.282 253.86 188.27 253.79 188.27C251.76 188.27 250.174 188.912 249.03 190.195C247.887 191.455 247.315 193.217 247.315 195.48V205H245.565ZM269.18 205V200.835L269.11 200.205V193.345C269.11 191.642 268.643 190.347 267.71 189.46C266.8 188.573 265.458 188.13 263.685 188.13C262.425 188.13 261.247 188.352 260.15 188.795C259.077 189.215 258.155 189.763 257.385 190.44L256.51 189.18C257.42 188.363 258.517 187.733 259.8 187.29C261.083 186.823 262.425 186.59 263.825 186.59C266.088 186.59 267.827 187.162 269.04 188.305C270.253 189.448 270.86 191.152 270.86 193.415V205H269.18ZM262.6 205.14C261.247 205.14 260.068 204.93 259.065 204.51C258.085 204.067 257.327 203.448 256.79 202.655C256.277 201.862 256.02 200.952 256.02 199.925C256.02 198.992 256.23 198.152 256.65 197.405C257.093 196.635 257.817 196.017 258.82 195.55C259.823 195.06 261.165 194.815 262.845 194.815H269.565V196.18H262.88C260.99 196.18 259.66 196.53 258.89 197.23C258.143 197.93 257.77 198.805 257.77 199.855C257.77 201.022 258.213 201.955 259.1 202.655C259.987 203.355 261.235 203.705 262.845 203.705C264.385 203.705 265.68 203.355 266.73 202.655C267.803 201.955 268.597 200.94 269.11 199.61L269.6 200.8C269.11 202.13 268.27 203.192 267.08 203.985C265.913 204.755 264.42 205.14 262.6 205.14ZM286.995 186.59C288.489 186.59 289.784 186.882 290.88 187.465C292 188.025 292.864 188.888 293.47 190.055C294.1 191.198 294.415 192.622 294.415 194.325V205H292.665V194.465C292.665 192.412 292.14 190.848 291.09 189.775C290.064 188.702 288.617 188.165 286.75 188.165C285.327 188.165 284.09 188.457 283.04 189.04C281.99 189.623 281.185 190.44 280.625 191.49C280.089 192.54 279.82 193.8 279.82 195.27V205H278.07V186.73H279.75V191.805L279.505 191.245C280.065 189.798 280.987 188.667 282.27 187.85C283.554 187.01 285.129 186.59 286.995 186.59ZM306.24 205.14C304.723 205.14 303.3 204.918 301.97 204.475C300.663 204.032 299.648 203.472 298.925 202.795L299.73 201.395C300.43 202.002 301.363 202.527 302.53 202.97C303.697 203.39 304.957 203.6 306.31 203.6C308.223 203.6 309.6 203.285 310.44 202.655C311.28 202.025 311.7 201.197 311.7 200.17C311.7 199.423 311.478 198.84 311.035 198.42C310.615 197.977 310.043 197.638 309.32 197.405C308.597 197.172 307.803 196.985 306.94 196.845C306.077 196.682 305.213 196.507 304.35 196.32C303.487 196.133 302.693 195.865 301.97 195.515C301.247 195.165 300.663 194.687 300.22 194.08C299.8 193.45 299.59 192.622 299.59 191.595C299.59 190.662 299.847 189.822 300.36 189.075C300.873 188.328 301.643 187.733 302.67 187.29C303.697 186.823 304.98 186.59 306.52 186.59C307.663 186.59 308.807 186.753 309.95 187.08C311.117 187.407 312.062 187.838 312.785 188.375L311.98 189.775C311.21 189.192 310.347 188.772 309.39 188.515C308.433 188.258 307.465 188.13 306.485 188.13C304.712 188.13 303.405 188.457 302.565 189.11C301.748 189.763 301.34 190.58 301.34 191.56C301.34 192.33 301.55 192.948 301.97 193.415C302.413 193.858 302.997 194.208 303.72 194.465C304.443 194.698 305.237 194.897 306.1 195.06C306.963 195.2 307.827 195.363 308.69 195.55C309.553 195.737 310.347 196.005 311.07 196.355C311.793 196.682 312.365 197.148 312.785 197.755C313.228 198.338 313.45 199.132 313.45 200.135C313.45 201.138 313.17 202.013 312.61 202.76C312.073 203.507 311.268 204.09 310.195 204.51C309.122 204.93 307.803 205.14 306.24 205.14ZM318.684 205V183.93C318.684 182.413 319.116 181.2 319.979 180.29C320.866 179.357 322.126 178.89 323.759 178.89C324.436 178.89 325.101 178.995 325.754 179.205C326.407 179.392 326.944 179.683 327.364 180.08L326.664 181.41C326.314 181.06 325.894 180.803 325.404 180.64C324.914 180.477 324.389 180.395 323.829 180.395C322.709 180.395 321.857 180.71 321.274 181.34C320.691 181.947 320.399 182.857 320.399 184.07V187.15L320.434 187.99V205H318.684ZM315.324 188.235V186.73H326.244V188.235H315.324ZM336.651 205.14C334.901 205.14 333.337 204.743 331.961 203.95C330.607 203.157 329.522 202.06 328.706 200.66C327.912 199.26 327.516 197.662 327.516 195.865C327.516 194.045 327.912 192.447 328.706 191.07C329.522 189.67 330.607 188.573 331.961 187.78C333.337 186.987 334.901 186.59 336.651 186.59C338.401 186.59 339.964 186.987 341.341 187.78C342.717 188.573 343.802 189.67 344.596 191.07C345.389 192.447 345.786 194.045 345.786 195.865C345.786 197.662 345.389 199.26 344.596 200.66C343.802 202.06 342.717 203.157 341.341 203.95C339.964 204.743 338.401 205.14 336.651 205.14ZM336.651 203.565C338.051 203.565 339.311 203.25 340.431 202.62C341.551 201.967 342.426 201.057 343.056 199.89C343.686 198.723 344.001 197.382 344.001 195.865C344.001 194.325 343.686 192.983 343.056 191.84C342.426 190.673 341.551 189.775 340.431 189.145C339.311 188.492 338.051 188.165 336.651 188.165C335.251 188.165 333.991 188.492 332.871 189.145C331.774 189.775 330.899 190.673 330.246 191.84C329.616 192.983 329.301 194.325 329.301 195.865C329.301 197.382 329.616 198.723 330.246 199.89C330.899 201.057 331.774 201.967 332.871 202.62C333.991 203.25 335.251 203.565 336.651 203.565ZM351.215 205V186.73H352.895V191.735L352.72 191.175C353.233 189.705 354.097 188.573 355.31 187.78C356.523 186.987 358.04 186.59 359.86 186.59V188.305C359.79 188.305 359.72 188.305 359.65 188.305C359.58 188.282 359.51 188.27 359.44 188.27C357.41 188.27 355.823 188.912 354.68 190.195C353.537 191.455 352.965 193.217 352.965 195.48V205H351.215ZM387.432 186.59C388.902 186.59 390.173 186.882 391.247 187.465C392.343 188.025 393.195 188.888 393.802 190.055C394.408 191.198 394.712 192.622 394.712 194.325V205H392.962V194.465C392.962 192.412 392.46 190.848 391.457 189.775C390.453 188.702 389.053 188.165 387.257 188.165C385.88 188.165 384.69 188.457 383.687 189.04C382.683 189.623 381.913 190.44 381.377 191.49C380.84 192.54 380.572 193.8 380.572 195.27V205H378.822V194.465C378.822 192.412 378.32 190.848 377.317 189.775C376.313 188.702 374.913 188.165 373.117 188.165C371.74 188.165 370.55 188.457 369.547 189.04C368.543 189.623 367.773 190.44 367.237 191.49C366.7 192.54 366.432 193.8 366.432 195.27V205H364.682V186.73H366.362V191.77L366.117 191.21C366.653 189.787 367.552 188.667 368.812 187.85C370.072 187.01 371.588 186.59 373.362 186.59C375.182 186.59 376.71 187.057 377.947 187.99C379.207 188.9 380 190.265 380.327 192.085L379.732 191.84C380.222 190.277 381.143 189.017 382.497 188.06C383.85 187.08 385.495 186.59 387.432 186.59ZM401.938 205V186.73H403.688V205H401.938ZM402.813 182.285C402.416 182.285 402.078 182.145 401.798 181.865C401.518 181.585 401.378 181.258 401.378 180.885C401.378 180.488 401.518 180.15 401.798 179.87C402.078 179.59 402.416 179.45 402.813 179.45C403.233 179.45 403.571 179.59 403.828 179.87C404.108 180.127 404.248 180.453 404.248 180.85C404.248 181.247 404.108 181.585 403.828 181.865C403.571 182.145 403.233 182.285 402.813 182.285ZM419.989 186.59C421.482 186.59 422.777 186.882 423.874 187.465C424.994 188.025 425.857 188.888 426.464 190.055C427.094 191.198 427.409 192.622 427.409 194.325V205H425.659V194.465C425.659 192.412 425.134 190.848 424.084 189.775C423.057 188.702 421.61 188.165 419.744 188.165C418.32 188.165 417.084 188.457 416.034 189.04C414.984 189.623 414.179 190.44 413.619 191.49C413.082 192.54 412.814 193.8 412.814 195.27V205H411.064V186.73H412.744V191.805L412.499 191.245C413.059 189.798 413.98 188.667 415.264 187.85C416.547 187.01 418.122 186.59 419.989 186.59ZM442.208 211.93C440.552 211.93 438.977 211.673 437.483 211.16C435.99 210.647 434.777 209.935 433.843 209.025L434.788 207.695C435.698 208.535 436.783 209.188 438.043 209.655C439.327 210.122 440.703 210.355 442.173 210.355C444.623 210.355 446.42 209.783 447.563 208.64C448.73 207.497 449.313 205.7 449.313 203.25V198.175L449.663 195.445L449.383 192.715V186.73H451.063V203.04C451.063 206.097 450.317 208.337 448.823 209.76C447.353 211.207 445.148 211.93 442.208 211.93ZM441.718 204.335C439.992 204.335 438.44 203.962 437.063 203.215C435.71 202.445 434.625 201.395 433.808 200.065C433.015 198.712 432.618 197.172 432.618 195.445C432.618 193.695 433.015 192.155 433.808 190.825C434.625 189.495 435.71 188.457 437.063 187.71C438.44 186.963 439.992 186.59 441.718 186.59C443.375 186.59 444.857 186.952 446.163 187.675C447.493 188.375 448.543 189.39 449.313 190.72C450.083 192.027 450.468 193.602 450.468 195.445C450.468 197.265 450.083 198.84 449.313 200.17C448.543 201.5 447.493 202.527 446.163 203.25C444.857 203.973 443.375 204.335 441.718 204.335ZM441.858 202.76C443.328 202.76 444.623 202.457 445.743 201.85C446.863 201.22 447.738 200.357 448.368 199.26C449.022 198.14 449.348 196.868 449.348 195.445C449.348 193.998 449.022 192.727 448.368 191.63C447.738 190.533 446.863 189.682 445.743 189.075C444.623 188.468 443.328 188.165 441.858 188.165C440.435 188.165 439.152 188.468 438.008 189.075C436.888 189.682 436.002 190.533 435.348 191.63C434.718 192.727 434.403 193.998 434.403 195.445C434.403 196.868 434.718 198.14 435.348 199.26C436.002 200.357 436.888 201.22 438.008 201.85C439.152 202.457 440.435 202.76 441.858 202.76ZM472.78 205.14C471.17 205.14 469.933 204.697 469.07 203.81C468.23 202.923 467.81 201.71 467.81 200.17V182.74H469.56V199.995C469.56 201.162 469.852 202.06 470.435 202.69C471.018 203.32 471.858 203.635 472.955 203.635C474.098 203.635 475.043 203.297 475.79 202.62L476.525 203.845C476.058 204.288 475.487 204.615 474.81 204.825C474.157 205.035 473.48 205.14 472.78 205.14ZM464.45 188.235V186.73H475.37V188.235H464.45ZM490.33 186.59C491.824 186.59 493.119 186.882 494.215 187.465C495.335 188.025 496.199 188.888 496.805 190.055C497.435 191.198 497.75 192.622 497.75 194.325V205H496V194.465C496 192.412 495.475 190.848 494.425 189.775C493.399 188.702 491.952 188.165 490.085 188.165C488.662 188.165 487.425 188.457 486.375 189.04C485.325 189.623 484.52 190.44 483.96 191.49C483.424 192.54 483.155 193.8 483.155 195.27V205H481.405V179.03H483.155V191.805L482.84 191.245C483.4 189.798 484.322 188.667 485.605 187.85C486.889 187.01 488.464 186.59 490.33 186.59ZM512.375 205.14C510.532 205.14 508.898 204.743 507.475 203.95C506.075 203.157 504.967 202.06 504.15 200.66C503.357 199.26 502.96 197.662 502.96 195.865C502.96 194.045 503.333 192.447 504.08 191.07C504.85 189.67 505.9 188.573 507.23 187.78C508.56 186.987 510.053 186.59 511.71 186.59C513.367 186.59 514.848 186.975 516.155 187.745C517.485 188.515 518.523 189.6 519.27 191C520.04 192.377 520.425 193.975 520.425 195.795C520.425 195.865 520.413 195.947 520.39 196.04C520.39 196.11 520.39 196.192 520.39 196.285H504.255V194.92H519.445L518.745 195.585C518.768 194.162 518.465 192.89 517.835 191.77C517.228 190.627 516.4 189.74 515.35 189.11C514.3 188.457 513.087 188.13 511.71 188.13C510.357 188.13 509.143 188.457 508.07 189.11C507.02 189.74 506.192 190.627 505.585 191.77C504.978 192.89 504.675 194.173 504.675 195.62V195.935C504.675 197.428 505.002 198.758 505.655 199.925C506.332 201.068 507.253 201.967 508.42 202.62C509.587 203.25 510.917 203.565 512.41 203.565C513.577 203.565 514.662 203.355 515.665 202.935C516.692 202.515 517.555 201.873 518.255 201.01L519.27 202.165C518.477 203.145 517.473 203.892 516.26 204.405C515.07 204.895 513.775 205.14 512.375 205.14ZM12.635 234.59C14.1283 234.59 15.4233 234.882 16.52 235.465C17.64 236.025 18.5033 236.888 19.11 238.055C19.74 239.198 20.055 240.622 20.055 242.325V253H18.305V242.465C18.305 240.412 17.78 238.848 16.73 237.775C15.7033 236.702 14.2567 236.165 12.39 236.165C10.9667 236.165 9.73 236.457 8.68 237.04C7.63 237.623 6.825 238.44 6.265 239.49C5.72833 240.54 5.46 241.8 5.46 243.27V253H3.71V227.03H5.46V239.805L5.145 239.245C5.705 237.798 6.62667 236.667 7.91 235.85C9.19333 235.01 10.7683 234.59 12.635 234.59ZM34.6798 253.14C32.8365 253.14 31.2031 252.743 29.7798 251.95C28.3798 251.157 27.2715 250.06 26.4548 248.66C25.6615 247.26 25.2648 245.662 25.2648 243.865C25.2648 242.045 25.6381 240.447 26.3848 239.07C27.1548 237.67 28.2048 236.573 29.5348 235.78C30.8648 234.987 32.3581 234.59 34.0148 234.59C35.6715 234.59 37.1531 234.975 38.4598 235.745C39.7898 236.515 40.8281 237.6 41.5748 239C42.3448 240.377 42.7298 241.975 42.7298 243.795C42.7298 243.865 42.7181 243.947 42.6948 244.04C42.6948 244.11 42.6948 244.192 42.6948 244.285H26.5598V242.92H41.7498L41.0498 243.585C41.0731 242.162 40.7698 240.89 40.1398 239.77C39.5331 238.627 38.7048 237.74 37.6548 237.11C36.6048 236.457 35.3915 236.13 34.0148 236.13C32.6615 236.13 31.4481 236.457 30.3748 237.11C29.3248 237.74 28.4965 238.627 27.8898 239.77C27.2831 240.89 26.9798 242.173 26.9798 243.62V243.935C26.9798 245.428 27.3065 246.758 27.9598 247.925C28.6365 249.068 29.5581 249.967 30.7248 250.62C31.8915 251.25 33.2215 251.565 34.7148 251.565C35.8815 251.565 36.9665 251.355 37.9698 250.935C38.9965 250.515 39.8598 249.873 40.5598 249.01L41.5748 250.165C40.7815 251.145 39.7781 251.892 38.5648 252.405C37.3748 252.895 36.0798 253.14 34.6798 253.14ZM59.1459 253V248.835L59.0759 248.205V241.345C59.0759 239.642 58.6092 238.347 57.6759 237.46C56.7659 236.573 55.4242 236.13 53.6509 236.13C52.3909 236.13 51.2126 236.352 50.1159 236.795C49.0426 237.215 48.1209 237.763 47.3509 238.44L46.4759 237.18C47.3859 236.363 48.4826 235.733 49.7659 235.29C51.0492 234.823 52.3909 234.59 53.7909 234.59C56.0542 234.59 57.7926 235.162 59.0059 236.305C60.2192 237.448 60.8259 239.152 60.8259 241.415V253H59.1459ZM52.5659 253.14C51.2126 253.14 50.0342 252.93 49.0309 252.51C48.0509 252.067 47.2926 251.448 46.7559 250.655C46.2426 249.862 45.9859 248.952 45.9859 247.925C45.9859 246.992 46.1959 246.152 46.6159 245.405C47.0592 244.635 47.7826 244.017 48.7859 243.55C49.7892 243.06 51.1309 242.815 52.8109 242.815H59.5309V244.18H52.8459C50.9559 244.18 49.6259 244.53 48.8559 245.23C48.1092 245.93 47.7359 246.805 47.7359 247.855C47.7359 249.022 48.1792 249.955 49.0659 250.655C49.9526 251.355 51.2009 251.705 52.8109 251.705C54.3509 251.705 55.6459 251.355 56.6959 250.655C57.7692 249.955 58.5626 248.94 59.0759 247.61L59.5659 248.8C59.0759 250.13 58.2359 251.192 57.0459 251.985C55.8792 252.755 54.3859 253.14 52.5659 253.14ZM68.0362 253V227.03H69.7862V253H68.0362ZM82.2429 253.14C80.6329 253.14 79.3962 252.697 78.5329 251.81C77.6929 250.923 77.2729 249.71 77.2729 248.17V230.74H79.0229V247.995C79.0229 249.162 79.3146 250.06 79.8979 250.69C80.4812 251.32 81.3212 251.635 82.4179 251.635C83.5612 251.635 84.5062 251.297 85.2529 250.62L85.9879 251.845C85.5212 252.288 84.9496 252.615 84.2729 252.825C83.6196 253.035 82.9429 253.14 82.2429 253.14ZM73.9129 236.235V234.73H84.8329V236.235H73.9129ZM99.7932 234.59C101.287 234.59 102.582 234.882 103.678 235.465C104.798 236.025 105.662 236.888 106.268 238.055C106.898 239.198 107.213 240.622 107.213 242.325V253H105.463V242.465C105.463 240.412 104.938 238.848 103.888 237.775C102.862 236.702 101.415 236.165 99.5482 236.165C98.1249 236.165 96.8882 236.457 95.8382 237.04C94.7882 237.623 93.9832 238.44 93.4232 239.49C92.8865 240.54 92.6182 241.8 92.6182 243.27V253H90.8682V227.03H92.6182V239.805L92.3032 239.245C92.8632 237.798 93.7849 236.667 95.0682 235.85C96.3515 235.01 97.9265 234.59 99.7932 234.59ZM121.663 253.14C119.89 253.14 118.303 252.743 116.903 251.95C115.526 251.157 114.43 250.06 113.613 248.66C112.82 247.26 112.423 245.662 112.423 243.865C112.423 242.045 112.82 240.435 113.613 239.035C114.43 237.635 115.526 236.55 116.903 235.78C118.303 234.987 119.89 234.59 121.663 234.59C123.133 234.59 124.463 234.87 125.653 235.43C126.866 235.99 127.846 236.83 128.593 237.95L127.298 238.895C126.645 237.962 125.828 237.273 124.848 236.83C123.868 236.387 122.806 236.165 121.663 236.165C120.24 236.165 118.956 236.492 117.813 237.145C116.693 237.775 115.806 238.673 115.153 239.84C114.523 240.983 114.208 242.325 114.208 243.865C114.208 245.405 114.523 246.758 115.153 247.925C115.806 249.068 116.693 249.967 117.813 250.62C118.956 251.25 120.24 251.565 121.663 251.565C122.806 251.565 123.868 251.343 124.848 250.9C125.828 250.457 126.645 249.768 127.298 248.835L128.593 249.78C127.846 250.9 126.866 251.74 125.653 252.3C124.463 252.86 123.133 253.14 121.663 253.14ZM145.347 253V248.835L145.277 248.205V241.345C145.277 239.642 144.81 238.347 143.877 237.46C142.967 236.573 141.625 236.13 139.852 236.13C138.592 236.13 137.414 236.352 136.317 236.795C135.244 237.215 134.322 237.763 133.552 238.44L132.677 237.18C133.587 236.363 134.684 235.733 135.967 235.29C137.25 234.823 138.592 234.59 139.992 234.59C142.255 234.59 143.994 235.162 145.207 236.305C146.42 237.448 147.027 239.152 147.027 241.415V253H145.347ZM138.767 253.14C137.414 253.14 136.235 252.93 135.232 252.51C134.252 252.067 133.494 251.448 132.957 250.655C132.444 249.862 132.187 248.952 132.187 247.925C132.187 246.992 132.397 246.152 132.817 245.405C133.26 244.635 133.984 244.017 134.987 243.55C135.99 243.06 137.332 242.815 139.012 242.815H145.732V244.18H139.047C137.157 244.18 135.827 244.53 135.057 245.23C134.31 245.93 133.937 246.805 133.937 247.855C133.937 249.022 134.38 249.955 135.267 250.655C136.154 251.355 137.402 251.705 139.012 251.705C140.552 251.705 141.847 251.355 142.897 250.655C143.97 249.955 144.764 248.94 145.277 247.61L145.767 248.8C145.277 250.13 144.437 251.192 143.247 251.985C142.08 252.755 140.587 253.14 138.767 253.14ZM154.237 253V234.73H155.917V239.735L155.742 239.175C156.256 237.705 157.119 236.573 158.332 235.78C159.546 234.987 161.062 234.59 162.882 234.59V236.305C162.812 236.305 162.742 236.305 162.672 236.305C162.602 236.282 162.532 236.27 162.462 236.27C160.432 236.27 158.846 236.912 157.702 238.195C156.559 239.455 155.987 241.217 155.987 243.48V253H154.237ZM174.953 253.14C173.11 253.14 171.477 252.743 170.053 251.95C168.653 251.157 167.545 250.06 166.728 248.66C165.935 247.26 165.538 245.662 165.538 243.865C165.538 242.045 165.912 240.447 166.658 239.07C167.428 237.67 168.478 236.573 169.808 235.78C171.138 234.987 172.632 234.59 174.288 234.59C175.945 234.59 177.427 234.975 178.733 235.745C180.063 236.515 181.102 237.6 181.848 239C182.618 240.377 183.003 241.975 183.003 243.795C183.003 243.865 182.992 243.947 182.968 244.04C182.968 244.11 182.968 244.192 182.968 244.285H166.833V242.92H182.023L181.323 243.585C181.347 242.162 181.043 240.89 180.413 239.77C179.807 238.627 178.978 237.74 177.928 237.11C176.878 236.457 175.665 236.13 174.288 236.13C172.935 236.13 171.722 236.457 170.648 237.11C169.598 237.74 168.77 238.627 168.163 239.77C167.557 240.89 167.253 242.173 167.253 243.62V243.935C167.253 245.428 167.58 246.758 168.233 247.925C168.91 249.068 169.832 249.967 170.998 250.62C172.165 251.25 173.495 251.565 174.988 251.565C176.155 251.565 177.24 251.355 178.243 250.935C179.27 250.515 180.133 249.873 180.833 249.01L181.848 250.165C181.055 251.145 180.052 251.892 178.838 252.405C177.648 252.895 176.353 253.14 174.953 253.14ZM197.406 253V227.03H199.156V253H197.406ZM218.047 253V248.835L217.977 248.205V241.345C217.977 239.642 217.511 238.347 216.577 237.46C215.667 236.573 214.326 236.13 212.552 236.13C211.292 236.13 210.114 236.352 209.017 236.795C207.944 237.215 207.022 237.763 206.252 238.44L205.377 237.18C206.287 236.363 207.384 235.733 208.667 235.29C209.951 234.823 211.292 234.59 212.692 234.59C214.956 234.59 216.694 235.162 217.907 236.305C219.121 237.448 219.727 239.152 219.727 241.415V253H218.047ZM211.467 253.14C210.114 253.14 208.936 252.93 207.932 252.51C206.952 252.067 206.194 251.448 205.657 250.655C205.144 249.862 204.887 248.952 204.887 247.925C204.887 246.992 205.097 246.152 205.517 245.405C205.961 244.635 206.684 244.017 207.687 243.55C208.691 243.06 210.032 242.815 211.712 242.815H218.432V244.18H211.747C209.857 244.18 208.527 244.53 207.757 245.23C207.011 245.93 206.637 246.805 206.637 247.855C206.637 249.022 207.081 249.955 207.967 250.655C208.854 251.355 210.102 251.705 211.712 251.705C213.252 251.705 214.547 251.355 215.597 250.655C216.671 249.955 217.464 248.94 217.977 247.61L218.467 248.8C217.977 250.13 217.137 251.192 215.947 251.985C214.781 252.755 213.287 253.14 211.467 253.14ZM235.863 234.59C237.356 234.59 238.651 234.882 239.748 235.465C240.868 236.025 241.731 236.888 242.338 238.055C242.968 239.198 243.283 240.622 243.283 242.325V253H241.533V242.465C241.533 240.412 241.008 238.848 239.958 237.775C238.931 236.702 237.484 236.165 235.618 236.165C234.194 236.165 232.958 236.457 231.908 237.04C230.858 237.623 230.053 238.44 229.493 239.49C228.956 240.54 228.688 241.8 228.688 243.27V253H226.938V234.73H228.618V239.805L228.373 239.245C228.933 237.798 229.854 236.667 231.138 235.85C232.421 235.01 233.996 234.59 235.863 234.59ZM257.522 253.14C255.819 253.14 254.279 252.755 252.902 251.985C251.549 251.192 250.476 250.095 249.682 248.695C248.889 247.295 248.492 245.685 248.492 243.865C248.492 242.022 248.889 240.412 249.682 239.035C250.476 237.635 251.549 236.55 252.902 235.78C254.279 234.987 255.819 234.59 257.522 234.59C259.132 234.59 260.579 234.963 261.862 235.71C263.169 236.457 264.196 237.518 264.942 238.895C265.712 240.272 266.097 241.928 266.097 243.865C266.097 245.755 265.724 247.4 264.977 248.8C264.231 250.2 263.204 251.273 261.897 252.02C260.614 252.767 259.156 253.14 257.522 253.14ZM257.627 251.565C259.027 251.565 260.276 251.25 261.372 250.62C262.492 249.967 263.367 249.057 263.997 247.89C264.651 246.723 264.977 245.382 264.977 243.865C264.977 242.325 264.651 240.983 263.997 239.84C263.367 238.673 262.492 237.775 261.372 237.145C260.276 236.492 259.027 236.165 257.627 236.165C256.227 236.165 254.967 236.492 253.847 237.145C252.751 237.775 251.876 238.673 251.222 239.84C250.592 240.983 250.277 242.325 250.277 243.865C250.277 245.382 250.592 246.723 251.222 247.89C251.876 249.057 252.751 249.967 253.847 250.62C254.967 251.25 256.227 251.565 257.627 251.565ZM265.012 253V247.015L265.327 243.83L264.977 240.645V227.03H266.727V253H265.012ZM278.726 253.14C277.209 253.14 275.786 252.918 274.456 252.475C273.149 252.032 272.134 251.472 271.411 250.795L272.216 249.395C272.916 250.002 273.849 250.527 275.016 250.97C276.182 251.39 277.442 251.6 278.796 251.6C280.709 251.6 282.086 251.285 282.926 250.655C283.766 250.025 284.186 249.197 284.186 248.17C284.186 247.423 283.964 246.84 283.521 246.42C283.101 245.977 282.529 245.638 281.806 245.405C281.082 245.172 280.289 244.985 279.426 244.845C278.562 244.682 277.699 244.507 276.836 244.32C275.972 244.133 275.179 243.865 274.456 243.515C273.732 243.165 273.149 242.687 272.706 242.08C272.286 241.45 272.076 240.622 272.076 239.595C272.076 238.662 272.332 237.822 272.846 237.075C273.359 236.328 274.129 235.733 275.156 235.29C276.182 234.823 277.466 234.59 279.006 234.59C280.149 234.59 281.292 234.753 282.436 235.08C283.602 235.407 284.547 235.838 285.271 236.375L284.466 237.775C283.696 237.192 282.832 236.772 281.876 236.515C280.919 236.258 279.951 236.13 278.971 236.13C277.197 236.13 275.891 236.457 275.051 237.11C274.234 237.763 273.826 238.58 273.826 239.56C273.826 240.33 274.036 240.948 274.456 241.415C274.899 241.858 275.482 242.208 276.206 242.465C276.929 242.698 277.722 242.897 278.586 243.06C279.449 243.2 280.312 243.363 281.176 243.55C282.039 243.737 282.832 244.005 283.556 244.355C284.279 244.682 284.851 245.148 285.271 245.755C285.714 246.338 285.936 247.132 285.936 248.135C285.936 249.138 285.656 250.013 285.096 250.76C284.559 251.507 283.754 252.09 282.681 252.51C281.607 252.93 280.289 253.14 278.726 253.14ZM298.064 253.14C296.291 253.14 294.704 252.743 293.304 251.95C291.928 251.157 290.831 250.06 290.014 248.66C289.221 247.26 288.824 245.662 288.824 243.865C288.824 242.045 289.221 240.435 290.014 239.035C290.831 237.635 291.928 236.55 293.304 235.78C294.704 234.987 296.291 234.59 298.064 234.59C299.534 234.59 300.864 234.87 302.054 235.43C303.268 235.99 304.248 236.83 304.994 237.95L303.699 238.895C303.046 237.962 302.229 237.273 301.249 236.83C300.269 236.387 299.208 236.165 298.064 236.165C296.641 236.165 295.358 236.492 294.214 237.145C293.094 237.775 292.208 238.673 291.554 239.84C290.924 240.983 290.609 242.325 290.609 243.865C290.609 245.405 290.924 246.758 291.554 247.925C292.208 249.068 293.094 249.967 294.214 250.62C295.358 251.25 296.641 251.565 298.064 251.565C299.208 251.565 300.269 251.343 301.249 250.9C302.229 250.457 303.046 249.768 303.699 248.835L304.994 249.78C304.248 250.9 303.268 251.74 302.054 252.3C300.864 252.86 299.534 253.14 298.064 253.14ZM321.748 253V248.835L321.678 248.205V241.345C321.678 239.642 321.212 238.347 320.278 237.46C319.368 236.573 318.027 236.13 316.253 236.13C314.993 236.13 313.815 236.352 312.718 236.795C311.645 237.215 310.723 237.763 309.953 238.44L309.078 237.18C309.988 236.363 311.085 235.733 312.368 235.29C313.652 234.823 314.993 234.59 316.393 234.59C318.657 234.59 320.395 235.162 321.608 236.305C322.822 237.448 323.428 239.152 323.428 241.415V253H321.748ZM315.168 253.14C313.815 253.14 312.637 252.93 311.633 252.51C310.653 252.067 309.895 251.448 309.358 250.655C308.845 249.862 308.588 248.952 308.588 247.925C308.588 246.992 308.798 246.152 309.218 245.405C309.662 244.635 310.385 244.017 311.388 243.55C312.392 243.06 313.733 242.815 315.413 242.815H322.133V244.18H315.448C313.558 244.18 312.228 244.53 311.458 245.23C310.712 245.93 310.338 246.805 310.338 247.855C310.338 249.022 310.782 249.955 311.668 250.655C312.555 251.355 313.803 251.705 315.413 251.705C316.953 251.705 318.248 251.355 319.298 250.655C320.372 249.955 321.165 248.94 321.678 247.61L322.168 248.8C321.678 250.13 320.838 251.192 319.648 251.985C318.482 252.755 316.988 253.14 315.168 253.14ZM339.809 253.14C338.199 253.14 336.74 252.767 335.434 252.02C334.15 251.273 333.124 250.212 332.354 248.835C331.607 247.435 331.234 245.778 331.234 243.865C331.234 241.952 331.607 240.307 332.354 238.93C333.124 237.53 334.15 236.457 335.434 235.71C336.74 234.963 338.199 234.59 339.809 234.59C341.535 234.59 343.075 234.987 344.429 235.78C345.805 236.55 346.879 237.635 347.649 239.035C348.442 240.435 348.839 242.045 348.839 243.865C348.839 245.685 348.442 247.295 347.649 248.695C346.879 250.095 345.805 251.192 344.429 251.985C343.075 252.755 341.535 253.14 339.809 253.14ZM330.639 259.79V234.73H332.319V240.715L332.039 243.9L332.389 247.085V259.79H330.639ZM339.704 251.565C341.104 251.565 342.364 251.25 343.484 250.62C344.604 249.967 345.479 249.057 346.109 247.89C346.762 246.723 347.089 245.382 347.089 243.865C347.089 242.325 346.762 240.983 346.109 239.84C345.479 238.673 344.604 237.775 343.484 237.145C342.364 236.492 341.104 236.165 339.704 236.165C338.304 236.165 337.044 236.492 335.924 237.145C334.827 237.775 333.952 238.673 333.299 239.84C332.669 240.983 332.354 242.325 332.354 243.865C332.354 245.382 332.669 246.723 333.299 247.89C333.952 249.057 334.827 249.967 335.924 250.62C337.044 251.25 338.304 251.565 339.704 251.565ZM361.677 253.14C359.834 253.14 358.2 252.743 356.777 251.95C355.377 251.157 354.269 250.06 353.452 248.66C352.659 247.26 352.262 245.662 352.262 243.865C352.262 242.045 352.635 240.447 353.382 239.07C354.152 237.67 355.202 236.573 356.532 235.78C357.862 234.987 359.355 234.59 361.012 234.59C362.669 234.59 364.15 234.975 365.457 235.745C366.787 236.515 367.825 237.6 368.572 239C369.342 240.377 369.727 241.975 369.727 243.795C369.727 243.865 369.715 243.947 369.692 244.04C369.692 244.11 369.692 244.192 369.692 244.285H353.557V242.92H368.747L368.047 243.585C368.07 242.162 367.767 240.89 367.137 239.77C366.53 238.627 365.702 237.74 364.652 237.11C363.602 236.457 362.389 236.13 361.012 236.13C359.659 236.13 358.445 236.457 357.372 237.11C356.322 237.74 355.494 238.627 354.887 239.77C354.28 240.89 353.977 242.173 353.977 243.62V243.935C353.977 245.428 354.304 246.758 354.957 247.925C355.634 249.068 356.555 249.967 357.722 250.62C358.889 251.25 360.219 251.565 361.712 251.565C362.879 251.565 363.964 251.355 364.967 250.935C365.994 250.515 366.857 249.873 367.557 249.01L368.572 250.165C367.779 251.145 366.775 251.892 365.562 252.405C364.372 252.895 363.077 253.14 361.677 253.14ZM373.461 258.005L374.826 252.09L375.001 253.105C374.557 253.105 374.184 252.965 373.881 252.685C373.601 252.405 373.461 252.055 373.461 251.635C373.461 251.215 373.601 250.865 373.881 250.585C374.184 250.305 374.534 250.165 374.931 250.165C375.374 250.165 375.724 250.317 375.981 250.62C376.261 250.9 376.401 251.238 376.401 251.635C376.401 251.798 376.389 251.962 376.366 252.125C376.342 252.288 376.307 252.452 376.261 252.615C376.214 252.778 376.156 252.988 376.086 253.245L374.721 258.005H373.461ZM400.062 234.59C401.555 234.59 402.85 234.882 403.947 235.465C405.067 236.025 405.93 236.888 406.537 238.055C407.167 239.198 407.482 240.622 407.482 242.325V253H405.732V242.465C405.732 240.412 405.207 238.848 404.157 237.775C403.13 236.702 401.683 236.165 399.817 236.165C398.393 236.165 397.157 236.457 396.107 237.04C395.057 237.623 394.252 238.44 393.692 239.49C393.155 240.54 392.887 241.8 392.887 243.27V253H391.137V227.03H392.887V239.805L392.572 239.245C393.132 237.798 394.053 236.667 395.337 235.85C396.62 235.01 398.195 234.59 400.062 234.59ZM422.107 253.14C420.263 253.14 418.63 252.743 417.207 251.95C415.807 251.157 414.698 250.06 413.882 248.66C413.088 247.26 412.692 245.662 412.692 243.865C412.692 242.045 413.065 240.447 413.812 239.07C414.582 237.67 415.632 236.573 416.962 235.78C418.292 234.987 419.785 234.59 421.442 234.59C423.098 234.59 424.58 234.975 425.887 235.745C427.217 236.515 428.255 237.6 429.002 239C429.772 240.377 430.157 241.975 430.157 243.795C430.157 243.865 430.145 243.947 430.122 244.04C430.122 244.11 430.122 244.192 430.122 244.285H413.987V242.92H429.177L428.477 243.585C428.5 242.162 428.197 240.89 427.567 239.77C426.96 238.627 426.132 237.74 425.082 237.11C424.032 236.457 422.818 236.13 421.442 236.13C420.088 236.13 418.875 236.457 417.802 237.11C416.752 237.74 415.923 238.627 415.317 239.77C414.71 240.89 414.407 242.173 414.407 243.62V243.935C414.407 245.428 414.733 246.758 415.387 247.925C416.063 249.068 416.985 249.967 418.152 250.62C419.318 251.25 420.648 251.565 422.142 251.565C423.308 251.565 424.393 251.355 425.397 250.935C426.423 250.515 427.287 249.873 427.987 249.01L429.002 250.165C428.208 251.145 427.205 251.892 425.992 252.405C424.802 252.895 423.507 253.14 422.107 253.14ZM435.57 253V227.03H437.32V253H435.57ZM453.866 253.14C452.256 253.14 450.798 252.767 449.491 252.02C448.208 251.273 447.181 250.212 446.411 248.835C445.665 247.435 445.291 245.778 445.291 243.865C445.291 241.952 445.665 240.307 446.411 238.93C447.181 237.53 448.208 236.457 449.491 235.71C450.798 234.963 452.256 234.59 453.866 234.59C455.593 234.59 457.133 234.987 458.486 235.78C459.863 236.55 460.936 237.635 461.706 239.035C462.5 240.435 462.896 242.045 462.896 243.865C462.896 245.685 462.5 247.295 461.706 248.695C460.936 250.095 459.863 251.192 458.486 251.985C457.133 252.755 455.593 253.14 453.866 253.14ZM444.696 259.79V234.73H446.376V240.715L446.096 243.9L446.446 247.085V259.79H444.696ZM453.761 251.565C455.161 251.565 456.421 251.25 457.541 250.62C458.661 249.967 459.536 249.057 460.166 247.89C460.82 246.723 461.146 245.382 461.146 243.865C461.146 242.325 460.82 240.983 460.166 239.84C459.536 238.673 458.661 237.775 457.541 237.145C456.421 236.492 455.161 236.165 453.761 236.165C452.361 236.165 451.101 236.492 449.981 237.145C448.885 237.775 448.01 238.673 447.356 239.84C446.726 240.983 446.411 242.325 446.411 243.865C446.411 245.382 446.726 246.723 447.356 247.89C448.01 249.057 448.885 249.967 449.981 250.62C451.101 251.25 452.361 251.565 453.761 251.565ZM468.314 253V234.73H470.064V253H468.314ZM469.189 230.285C468.793 230.285 468.454 230.145 468.174 229.865C467.894 229.585 467.754 229.258 467.754 228.885C467.754 228.488 467.894 228.15 468.174 227.87C468.454 227.59 468.793 227.45 469.189 227.45C469.609 227.45 469.948 227.59 470.204 227.87C470.484 228.127 470.624 228.453 470.624 228.85C470.624 229.247 470.484 229.585 470.204 229.865C469.948 230.145 469.609 230.285 469.189 230.285ZM486.365 234.59C487.859 234.59 489.154 234.882 490.25 235.465C491.37 236.025 492.234 236.888 492.84 238.055C493.47 239.198 493.785 240.622 493.785 242.325V253H492.035V242.465C492.035 240.412 491.51 238.848 490.46 237.775C489.434 236.702 487.987 236.165 486.12 236.165C484.697 236.165 483.46 236.457 482.41 237.04C481.36 237.623 480.555 238.44 479.995 239.49C479.459 240.54 479.19 241.8 479.19 243.27V253H477.44V234.73H479.12V239.805L478.875 239.245C479.435 237.798 480.357 236.667 481.64 235.85C482.924 235.01 484.499 234.59 486.365 234.59ZM508.585 259.93C506.929 259.93 505.354 259.673 503.86 259.16C502.367 258.647 501.154 257.935 500.22 257.025L501.165 255.695C502.075 256.535 503.16 257.188 504.42 257.655C505.704 258.122 507.08 258.355 508.55 258.355C511 258.355 512.797 257.783 513.94 256.64C515.107 255.497 515.69 253.7 515.69 251.25V246.175L516.04 243.445L515.76 240.715V234.73H517.44V251.04C517.44 254.097 516.694 256.337 515.2 257.76C513.73 259.207 511.525 259.93 508.585 259.93ZM508.095 252.335C506.369 252.335 504.817 251.962 503.44 251.215C502.087 250.445 501.002 249.395 500.185 248.065C499.392 246.712 498.995 245.172 498.995 243.445C498.995 241.695 499.392 240.155 500.185 238.825C501.002 237.495 502.087 236.457 503.44 235.71C504.817 234.963 506.369 234.59 508.095 234.59C509.752 234.59 511.234 234.952 512.54 235.675C513.87 236.375 514.92 237.39 515.69 238.72C516.46 240.027 516.845 241.602 516.845 243.445C516.845 245.265 516.46 246.84 515.69 248.17C514.92 249.5 513.87 250.527 512.54 251.25C511.234 251.973 509.752 252.335 508.095 252.335ZM508.235 250.76C509.705 250.76 511 250.457 512.12 249.85C513.24 249.22 514.115 248.357 514.745 247.26C515.399 246.14 515.725 244.868 515.725 243.445C515.725 241.998 515.399 240.727 514.745 239.63C514.115 238.533 513.24 237.682 512.12 237.075C511 236.468 509.705 236.165 508.235 236.165C506.812 236.165 505.529 236.468 504.385 237.075C503.265 237.682 502.379 238.533 501.725 239.63C501.095 240.727 500.78 241.998 500.78 243.445C500.78 244.868 501.095 246.14 501.725 247.26C502.379 248.357 503.265 249.22 504.385 249.85C505.529 250.457 506.812 250.76 508.235 250.76ZM543.007 253.14C541.397 253.14 539.939 252.767 538.632 252.02C537.349 251.273 536.322 250.212 535.552 248.835C534.805 247.435 534.432 245.778 534.432 243.865C534.432 241.952 534.805 240.307 535.552 238.93C536.322 237.53 537.349 236.457 538.632 235.71C539.939 234.963 541.397 234.59 543.007 234.59C544.734 234.59 546.274 234.987 547.627 235.78C549.004 236.55 550.077 237.635 550.847 239.035C551.64 240.435 552.037 242.045 552.037 243.865C552.037 245.685 551.64 247.295 550.847 248.695C550.077 250.095 549.004 251.192 547.627 251.985C546.274 252.755 544.734 253.14 543.007 253.14ZM533.837 259.79V234.73H535.517V240.715L535.237 243.9L535.587 247.085V259.79H533.837ZM542.902 251.565C544.302 251.565 545.562 251.25 546.682 250.62C547.802 249.967 548.677 249.057 549.307 247.89C549.96 246.723 550.287 245.382 550.287 243.865C550.287 242.325 549.96 240.983 549.307 239.84C548.677 238.673 547.802 237.775 546.682 237.145C545.562 236.492 544.302 236.165 542.902 236.165C541.502 236.165 540.242 236.492 539.122 237.145C538.025 237.775 537.15 238.673 536.497 239.84C535.867 240.983 535.552 242.325 535.552 243.865C535.552 245.382 535.867 246.723 536.497 247.89C537.15 249.057 538.025 249.967 539.122 250.62C540.242 251.25 541.502 251.565 542.902 251.565ZM557.455 253V234.73H559.135V239.735L558.96 239.175C559.473 237.705 560.337 236.573 561.55 235.78C562.763 234.987 564.28 234.59 566.1 234.59V236.305C566.03 236.305 565.96 236.305 565.89 236.305C565.82 236.282 565.75 236.27 565.68 236.27C563.65 236.27 562.063 236.912 560.92 238.195C559.777 239.455 559.205 241.217 559.205 243.48V253H557.455ZM577.891 253.14C576.141 253.14 574.578 252.743 573.201 251.95C571.848 251.157 570.763 250.06 569.946 248.66C569.153 247.26 568.756 245.662 568.756 243.865C568.756 242.045 569.153 240.447 569.946 239.07C570.763 237.67 571.848 236.573 573.201 235.78C574.578 234.987 576.141 234.59 577.891 234.59C579.641 234.59 581.204 234.987 582.581 235.78C583.958 236.573 585.043 237.67 585.836 239.07C586.629 240.447 587.026 242.045 587.026 243.865C587.026 245.662 586.629 247.26 585.836 248.66C585.043 250.06 583.958 251.157 582.581 251.95C581.204 252.743 579.641 253.14 577.891 253.14ZM577.891 251.565C579.291 251.565 580.551 251.25 581.671 250.62C582.791 249.967 583.666 249.057 584.296 247.89C584.926 246.723 585.241 245.382 585.241 243.865C585.241 242.325 584.926 240.983 584.296 239.84C583.666 238.673 582.791 237.775 581.671 237.145C580.551 236.492 579.291 236.165 577.891 236.165C576.491 236.165 575.231 236.492 574.111 237.145C573.014 237.775 572.139 238.673 571.486 239.84C570.856 240.983 570.541 242.325 570.541 243.865C570.541 245.382 570.856 246.723 571.486 247.89C572.139 249.057 573.014 249.967 574.111 250.62C575.231 251.25 576.491 251.565 577.891 251.565ZM596.562 253L588.337 234.73H590.192L597.892 252.02H597.052L604.822 234.73H606.607L598.347 253H596.562ZM610.434 253V234.73H612.184V253H610.434ZM611.309 230.285C610.912 230.285 610.574 230.145 610.294 229.865C610.014 229.585 609.874 229.258 609.874 228.885C609.874 228.488 610.014 228.15 610.294 227.87C610.574 227.59 610.912 227.45 611.309 227.45C611.729 227.45 612.067 227.59 612.324 227.87C612.604 228.127 612.744 228.453 612.744 228.85C612.744 229.247 612.604 229.585 612.324 229.865C612.067 230.145 611.729 230.285 611.309 230.285ZM626.595 253.14C624.891 253.14 623.351 252.755 621.975 251.985C620.621 251.192 619.548 250.095 618.755 248.695C617.961 247.295 617.565 245.685 617.565 243.865C617.565 242.022 617.961 240.412 618.755 239.035C619.548 237.635 620.621 236.55 621.975 235.78C623.351 234.987 624.891 234.59 626.595 234.59C628.205 234.59 629.651 234.963 630.935 235.71C632.241 236.457 633.268 237.518 634.015 238.895C634.785 240.272 635.17 241.928 635.17 243.865C635.17 245.755 634.796 247.4 634.05 248.8C633.303 250.2 632.276 251.273 630.97 252.02C629.686 252.767 628.228 253.14 626.595 253.14ZM626.7 251.565C628.1 251.565 629.348 251.25 630.445 250.62C631.565 249.967 632.44 249.057 633.07 247.89C633.723 246.723 634.05 245.382 634.05 243.865C634.05 242.325 633.723 240.983 633.07 239.84C632.44 238.673 631.565 237.775 630.445 237.145C629.348 236.492 628.1 236.165 626.7 236.165C625.3 236.165 624.04 236.492 622.92 237.145C621.823 237.775 620.948 238.673 620.295 239.84C619.665 240.983 619.35 242.325 619.35 243.865C619.35 245.382 619.665 246.723 620.295 247.89C620.948 249.057 621.823 249.967 622.92 250.62C624.04 251.25 625.3 251.565 626.7 251.565ZM634.085 253V247.015L634.4 243.83L634.05 240.645V227.03H635.8V253H634.085ZM650.598 253.14C648.754 253.14 647.121 252.743 645.698 251.95C644.298 251.157 643.189 250.06 642.373 248.66C641.579 247.26 641.183 245.662 641.183 243.865C641.183 242.045 641.556 240.447 642.303 239.07C643.073 237.67 644.123 236.573 645.453 235.78C646.783 234.987 648.276 234.59 649.933 234.59C651.589 234.59 653.071 234.975 654.378 235.745C655.708 236.515 656.746 237.6 657.493 239C658.263 240.377 658.648 241.975 658.648 243.795C658.648 243.865 658.636 243.947 658.613 244.04C658.613 244.11 658.613 244.192 658.613 244.285H642.478V242.92H657.668L656.968 243.585C656.991 242.162 656.688 240.89 656.058 239.77C655.451 238.627 654.623 237.74 653.573 237.11C652.523 236.457 651.309 236.13 649.933 236.13C648.579 236.13 647.366 236.457 646.293 237.11C645.243 237.74 644.414 238.627 643.808 239.77C643.201 240.89 642.898 242.173 642.898 243.62V243.935C642.898 245.428 643.224 246.758 643.878 247.925C644.554 249.068 645.476 249.967 646.643 250.62C647.809 251.25 649.139 251.565 650.633 251.565C651.799 251.565 652.884 251.355 653.888 250.935C654.914 250.515 655.778 249.873 656.478 249.01L657.493 250.165C656.699 251.145 655.696 251.892 654.483 252.405C653.293 252.895 651.998 253.14 650.598 253.14ZM664.062 253V234.73H665.742V239.735L665.567 239.175C666.08 237.705 666.943 236.573 668.157 235.78C669.37 234.987 670.887 234.59 672.707 234.59V236.305C672.637 236.305 672.567 236.305 672.497 236.305C672.427 236.282 672.357 236.27 672.287 236.27C670.257 236.27 668.67 236.912 667.527 238.195C666.383 239.455 665.812 241.217 665.812 243.48V253H664.062ZM682.353 253.14C680.837 253.14 679.413 252.918 678.083 252.475C676.777 252.032 675.762 251.472 675.038 250.795L675.843 249.395C676.543 250.002 677.477 250.527 678.643 250.97C679.81 251.39 681.07 251.6 682.423 251.6C684.337 251.6 685.713 251.285 686.553 250.655C687.393 250.025 687.813 249.197 687.813 248.17C687.813 247.423 687.592 246.84 687.148 246.42C686.728 245.977 686.157 245.638 685.433 245.405C684.71 245.172 683.917 244.985 683.053 244.845C682.19 244.682 681.327 244.507 680.463 244.32C679.6 244.133 678.807 243.865 678.083 243.515C677.36 243.165 676.777 242.687 676.333 242.08C675.913 241.45 675.703 240.622 675.703 239.595C675.703 238.662 675.96 237.822 676.473 237.075C676.987 236.328 677.757 235.733 678.783 235.29C679.81 234.823 681.093 234.59 682.633 234.59C683.777 234.59 684.92 234.753 686.063 235.08C687.23 235.407 688.175 235.838 688.898 236.375L688.093 237.775C687.323 237.192 686.46 236.772 685.503 236.515C684.547 236.258 683.578 236.13 682.598 236.13C680.825 236.13 679.518 236.457 678.678 237.11C677.862 237.763 677.453 238.58 677.453 239.56C677.453 240.33 677.663 240.948 678.083 241.415C678.527 241.858 679.11 242.208 679.833 242.465C680.557 242.698 681.35 242.897 682.213 243.06C683.077 243.2 683.94 243.363 684.803 243.55C685.667 243.737 686.46 244.005 687.183 244.355C687.907 244.682 688.478 245.148 688.898 245.755C689.342 246.338 689.563 247.132 689.563 248.135C689.563 249.138 689.283 250.013 688.723 250.76C688.187 251.507 687.382 252.09 686.308 252.51C685.235 252.93 683.917 253.14 682.353 253.14ZM26.46 282.59C27.93 282.59 29.2017 282.882 30.275 283.465C31.3717 284.025 32.2233 284.888 32.83 286.055C33.4367 287.198 33.74 288.622 33.74 290.325V301H31.99V290.465C31.99 288.412 31.4883 286.848 30.485 285.775C29.4817 284.702 28.0817 284.165 26.285 284.165C24.9083 284.165 23.7183 284.457 22.715 285.04C21.7117 285.623 20.9417 286.44 20.405 287.49C19.8683 288.54 19.6 289.8 19.6 291.27V301H17.85V290.465C17.85 288.412 17.3483 286.848 16.345 285.775C15.3417 284.702 13.9417 284.165 12.145 284.165C10.7683 284.165 9.57833 284.457 8.575 285.04C7.57167 285.623 6.80167 286.44 6.265 287.49C5.72833 288.54 5.46 289.8 5.46 291.27V301H3.71V282.73H5.39V287.77L5.145 287.21C5.68167 285.787 6.58 284.667 7.84 283.85C9.1 283.01 10.6167 282.59 12.39 282.59C14.21 282.59 15.7383 283.057 16.975 283.99C18.235 284.9 19.0283 286.265 19.355 288.085L18.76 287.84C19.25 286.277 20.1717 285.017 21.525 284.06C22.8783 283.08 24.5233 282.59 26.46 282.59ZM52.4809 301V296.835L52.4109 296.205V289.345C52.4109 287.642 51.9442 286.347 51.0109 285.46C50.1009 284.573 48.7592 284.13 46.9859 284.13C45.7259 284.13 44.5475 284.352 43.4509 284.795C42.3775 285.215 41.4559 285.763 40.6859 286.44L39.8109 285.18C40.7209 284.363 41.8175 283.733 43.1009 283.29C44.3842 282.823 45.7259 282.59 47.1259 282.59C49.3892 282.59 51.1275 283.162 52.3409 284.305C53.5542 285.448 54.1609 287.152 54.1609 289.415V301H52.4809ZM45.9009 301.14C44.5475 301.14 43.3692 300.93 42.3659 300.51C41.3859 300.067 40.6275 299.448 40.0909 298.655C39.5775 297.862 39.3209 296.952 39.3209 295.925C39.3209 294.992 39.5309 294.152 39.9509 293.405C40.3942 292.635 41.1175 292.017 42.1209 291.55C43.1242 291.06 44.4659 290.815 46.1459 290.815H52.8659V292.18H46.1809C44.2909 292.18 42.9609 292.53 42.1909 293.23C41.4442 293.93 41.0709 294.805 41.0709 295.855C41.0709 297.022 41.5142 297.955 42.4009 298.655C43.2875 299.355 44.5359 299.705 46.1459 299.705C47.6859 299.705 48.9809 299.355 50.0309 298.655C51.1042 297.955 51.8975 296.94 52.4109 295.61L52.9009 296.8C52.4109 298.13 51.5709 299.192 50.3809 299.985C49.2142 300.755 47.7209 301.14 45.9009 301.14ZM62.7011 295.96L62.7361 293.755L74.8111 282.73H77.0511L69.0361 290.255L67.9861 291.13L62.7011 295.96ZM61.3711 301V275.03H63.1211V301H61.3711ZM75.6511 301L67.6711 290.99L68.8611 289.695L77.8211 301H75.6511ZM88.6495 301.14C86.8062 301.14 85.1729 300.743 83.7495 299.95C82.3495 299.157 81.2412 298.06 80.4245 296.66C79.6312 295.26 79.2345 293.662 79.2345 291.865C79.2345 290.045 79.6079 288.447 80.3545 287.07C81.1245 285.67 82.1745 284.573 83.5045 283.78C84.8345 282.987 86.3279 282.59 87.9845 282.59C89.6412 282.59 91.1229 282.975 92.4295 283.745C93.7595 284.515 94.7979 285.6 95.5445 287C96.3145 288.377 96.6995 289.975 96.6995 291.795C96.6995 291.865 96.6879 291.947 96.6645 292.04C96.6645 292.11 96.6645 292.192 96.6645 292.285H80.5295V290.92H95.7195L95.0195 291.585C95.0429 290.162 94.7395 288.89 94.1095 287.77C93.5029 286.627 92.6745 285.74 91.6245 285.11C90.5745 284.457 89.3612 284.13 87.9845 284.13C86.6312 284.13 85.4179 284.457 84.3445 285.11C83.2945 285.74 82.4662 286.627 81.8595 287.77C81.2529 288.89 80.9495 290.173 80.9495 291.62V291.935C80.9495 293.428 81.2762 294.758 81.9295 295.925C82.6062 297.068 83.5279 297.967 84.6945 298.62C85.8612 299.25 87.1912 299.565 88.6845 299.565C89.8512 299.565 90.9362 299.355 91.9395 298.935C92.9662 298.515 93.8295 297.873 94.5295 297.01L95.5445 298.165C94.7512 299.145 93.7479 299.892 92.5345 300.405C91.3445 300.895 90.0495 301.14 88.6495 301.14ZM120.273 301.14C118.663 301.14 117.204 300.767 115.898 300.02C114.614 299.273 113.588 298.2 112.818 296.8C112.071 295.4 111.698 293.755 111.698 291.865C111.698 289.928 112.071 288.272 112.818 286.895C113.588 285.518 114.614 284.457 115.898 283.71C117.204 282.963 118.663 282.59 120.273 282.59C121.999 282.59 123.539 282.987 124.893 283.78C126.269 284.55 127.343 285.635 128.113 287.035C128.906 288.412 129.303 290.022 129.303 291.865C129.303 293.685 128.906 295.295 128.113 296.695C127.343 298.095 126.269 299.192 124.893 299.985C123.539 300.755 121.999 301.14 120.273 301.14ZM111.103 301V275.03H112.853V288.645L112.503 291.83L112.783 295.015V301H111.103ZM120.168 299.565C121.568 299.565 122.828 299.25 123.948 298.62C125.068 297.967 125.943 297.057 126.573 295.89C127.226 294.723 127.553 293.382 127.553 291.865C127.553 290.325 127.226 288.983 126.573 287.84C125.943 286.673 125.068 285.775 123.948 285.145C122.828 284.492 121.568 284.165 120.168 284.165C118.768 284.165 117.508 284.492 116.388 285.145C115.291 285.775 114.416 286.673 113.763 287.84C113.133 288.983 112.818 290.325 112.818 291.865C112.818 293.382 113.133 294.723 113.763 295.89C114.416 297.057 115.291 297.967 116.388 298.62C117.508 299.25 118.768 299.565 120.168 299.565ZM142.141 301.14C140.297 301.14 138.664 300.743 137.241 299.95C135.841 299.157 134.732 298.06 133.916 296.66C133.122 295.26 132.726 293.662 132.726 291.865C132.726 290.045 133.099 288.447 133.846 287.07C134.616 285.67 135.666 284.573 136.996 283.78C138.326 282.987 139.819 282.59 141.476 282.59C143.132 282.59 144.614 282.975 145.921 283.745C147.251 284.515 148.289 285.6 149.036 287C149.806 288.377 150.191 289.975 150.191 291.795C150.191 291.865 150.179 291.947 150.156 292.04C150.156 292.11 150.156 292.192 150.156 292.285H134.021V290.92H149.211L148.511 291.585C148.534 290.162 148.231 288.89 147.601 287.77C146.994 286.627 146.166 285.74 145.116 285.11C144.066 284.457 142.852 284.13 141.476 284.13C140.122 284.13 138.909 284.457 137.836 285.11C136.786 285.74 135.957 286.627 135.351 287.77C134.744 288.89 134.441 290.173 134.441 291.62V291.935C134.441 293.428 134.767 294.758 135.421 295.925C136.097 297.068 137.019 297.967 138.186 298.62C139.352 299.25 140.682 299.565 142.176 299.565C143.342 299.565 144.427 299.355 145.431 298.935C146.457 298.515 147.321 297.873 148.021 297.01L149.036 298.165C148.242 299.145 147.239 299.892 146.026 300.405C144.836 300.895 143.541 301.14 142.141 301.14ZM160.925 301.14C159.315 301.14 158.078 300.697 157.215 299.81C156.375 298.923 155.955 297.71 155.955 296.17V278.74H157.705V295.995C157.705 297.162 157.996 298.06 158.58 298.69C159.163 299.32 160.003 299.635 161.1 299.635C162.243 299.635 163.188 299.297 163.935 298.62L164.67 299.845C164.203 300.288 163.631 300.615 162.955 300.825C162.301 301.035 161.625 301.14 160.925 301.14ZM152.595 284.235V282.73H163.515V284.235H152.595ZM174.391 301.14C172.781 301.14 171.545 300.697 170.681 299.81C169.841 298.923 169.421 297.71 169.421 296.17V278.74H171.171V295.995C171.171 297.162 171.463 298.06 172.046 298.69C172.63 299.32 173.47 299.635 174.566 299.635C175.71 299.635 176.655 299.297 177.401 298.62L178.136 299.845C177.67 300.288 177.098 300.615 176.421 300.825C175.768 301.035 175.091 301.14 174.391 301.14ZM166.061 284.235V282.73H176.981V284.235H166.061ZM189.787 301.14C187.944 301.14 186.311 300.743 184.887 299.95C183.487 299.157 182.379 298.06 181.562 296.66C180.769 295.26 180.372 293.662 180.372 291.865C180.372 290.045 180.746 288.447 181.492 287.07C182.262 285.67 183.312 284.573 184.642 283.78C185.972 282.987 187.466 282.59 189.122 282.59C190.779 282.59 192.261 282.975 193.567 283.745C194.897 284.515 195.936 285.6 196.682 287C197.452 288.377 197.837 289.975 197.837 291.795C197.837 291.865 197.826 291.947 197.802 292.04C197.802 292.11 197.802 292.192 197.802 292.285H181.667V290.92H196.857L196.157 291.585C196.181 290.162 195.877 288.89 195.247 287.77C194.641 286.627 193.812 285.74 192.762 285.11C191.712 284.457 190.499 284.13 189.122 284.13C187.769 284.13 186.556 284.457 185.482 285.11C184.432 285.74 183.604 286.627 182.997 287.77C182.391 288.89 182.087 290.173 182.087 291.62V291.935C182.087 293.428 182.414 294.758 183.067 295.925C183.744 297.068 184.666 297.967 185.832 298.62C186.999 299.25 188.329 299.565 189.822 299.565C190.989 299.565 192.074 299.355 193.077 298.935C194.104 298.515 194.967 297.873 195.667 297.01L196.682 298.165C195.889 299.145 194.886 299.892 193.672 300.405C192.482 300.895 191.187 301.14 189.787 301.14ZM203.251 301V282.73H204.931V287.735L204.756 287.175C205.269 285.705 206.133 284.573 207.346 283.78C208.559 282.987 210.076 282.59 211.896 282.59V284.305C211.826 284.305 211.756 284.305 211.686 284.305C211.616 284.282 211.546 284.27 211.476 284.27C209.446 284.27 207.859 284.912 206.716 286.195C205.573 287.455 205.001 289.217 205.001 291.48V301H203.251ZM233.05 301.14C231.346 301.14 229.806 300.755 228.43 299.985C227.076 299.192 226.003 298.095 225.21 296.695C224.416 295.295 224.02 293.685 224.02 291.865C224.02 290.022 224.416 288.412 225.21 287.035C226.003 285.635 227.076 284.55 228.43 283.78C229.806 282.987 231.346 282.59 233.05 282.59C234.66 282.59 236.106 282.963 237.39 283.71C238.696 284.457 239.723 285.518 240.47 286.895C241.24 288.272 241.625 289.928 241.625 291.865C241.625 293.755 241.251 295.4 240.505 296.8C239.758 298.2 238.731 299.273 237.425 300.02C236.141 300.767 234.683 301.14 233.05 301.14ZM233.155 299.565C234.555 299.565 235.803 299.25 236.9 298.62C238.02 297.967 238.895 297.057 239.525 295.89C240.178 294.723 240.505 293.382 240.505 291.865C240.505 290.325 240.178 288.983 239.525 287.84C238.895 286.673 238.02 285.775 236.9 285.145C235.803 284.492 234.555 284.165 233.155 284.165C231.755 284.165 230.495 284.492 229.375 285.145C228.278 285.775 227.403 286.673 226.75 287.84C226.12 288.983 225.805 290.325 225.805 291.865C225.805 293.382 226.12 294.723 226.75 295.89C227.403 297.057 228.278 297.967 229.375 298.62C230.495 299.25 231.755 299.565 233.155 299.565ZM240.54 301V295.015L240.855 291.83L240.505 288.645V275.03H242.255V301H240.54ZM257.053 301.14C255.21 301.14 253.576 300.743 252.153 299.95C250.753 299.157 249.645 298.06 248.828 296.66C248.035 295.26 247.638 293.662 247.638 291.865C247.638 290.045 248.011 288.447 248.758 287.07C249.528 285.67 250.578 284.573 251.908 283.78C253.238 282.987 254.731 282.59 256.388 282.59C258.045 282.59 259.526 282.975 260.833 283.745C262.163 284.515 263.201 285.6 263.948 287C264.718 288.377 265.103 289.975 265.103 291.795C265.103 291.865 265.091 291.947 265.068 292.04C265.068 292.11 265.068 292.192 265.068 292.285H248.933V290.92H264.123L263.423 291.585C263.446 290.162 263.143 288.89 262.513 287.77C261.906 286.627 261.078 285.74 260.028 285.11C258.978 284.457 257.765 284.13 256.388 284.13C255.035 284.13 253.821 284.457 252.748 285.11C251.698 285.74 250.87 286.627 250.263 287.77C249.656 288.89 249.353 290.173 249.353 291.62V291.935C249.353 293.428 249.68 294.758 250.333 295.925C251.01 297.068 251.931 297.967 253.098 298.62C254.265 299.25 255.595 299.565 257.088 299.565C258.255 299.565 259.34 299.355 260.343 298.935C261.37 298.515 262.233 297.873 262.933 297.01L263.948 298.165C263.155 299.145 262.151 299.892 260.938 300.405C259.748 300.895 258.453 301.14 257.053 301.14ZM277.762 301.14C275.988 301.14 274.402 300.743 273.002 299.95C271.625 299.157 270.528 298.06 269.712 296.66C268.918 295.26 268.522 293.662 268.522 291.865C268.522 290.045 268.918 288.435 269.712 287.035C270.528 285.635 271.625 284.55 273.002 283.78C274.402 282.987 275.988 282.59 277.762 282.59C279.232 282.59 280.562 282.87 281.752 283.43C282.965 283.99 283.945 284.83 284.692 285.95L283.397 286.895C282.743 285.962 281.927 285.273 280.947 284.83C279.967 284.387 278.905 284.165 277.762 284.165C276.338 284.165 275.055 284.492 273.912 285.145C272.792 285.775 271.905 286.673 271.252 287.84C270.622 288.983 270.307 290.325 270.307 291.865C270.307 293.405 270.622 294.758 271.252 295.925C271.905 297.068 272.792 297.967 273.912 298.62C275.055 299.25 276.338 299.565 277.762 299.565C278.905 299.565 279.967 299.343 280.947 298.9C281.927 298.457 282.743 297.768 283.397 296.835L284.692 297.78C283.945 298.9 282.965 299.74 281.752 300.3C280.562 300.86 279.232 301.14 277.762 301.14ZM289.623 301V282.73H291.373V301H289.623ZM290.498 278.285C290.101 278.285 289.763 278.145 289.483 277.865C289.203 277.585 289.063 277.258 289.063 276.885C289.063 276.488 289.203 276.15 289.483 275.87C289.763 275.59 290.101 275.45 290.498 275.45C290.918 275.45 291.256 275.59 291.513 275.87C291.793 276.127 291.933 276.453 291.933 276.85C291.933 277.247 291.793 277.585 291.513 277.865C291.256 278.145 290.918 278.285 290.498 278.285ZM303.369 301.14C301.852 301.14 300.429 300.918 299.099 300.475C297.792 300.032 296.777 299.472 296.054 298.795L296.859 297.395C297.559 298.002 298.492 298.527 299.659 298.97C300.826 299.39 302.086 299.6 303.439 299.6C305.352 299.6 306.729 299.285 307.569 298.655C308.409 298.025 308.829 297.197 308.829 296.17C308.829 295.423 308.607 294.84 308.164 294.42C307.744 293.977 307.172 293.638 306.449 293.405C305.726 293.172 304.932 292.985 304.069 292.845C303.206 292.682 302.342 292.507 301.479 292.32C300.616 292.133 299.822 291.865 299.099 291.515C298.376 291.165 297.792 290.687 297.349 290.08C296.929 289.45 296.719 288.622 296.719 287.595C296.719 286.662 296.976 285.822 297.489 285.075C298.002 284.328 298.772 283.733 299.799 283.29C300.826 282.823 302.109 282.59 303.649 282.59C304.792 282.59 305.936 282.753 307.079 283.08C308.246 283.407 309.191 283.838 309.914 284.375L309.109 285.775C308.339 285.192 307.476 284.772 306.519 284.515C305.562 284.258 304.594 284.13 303.614 284.13C301.841 284.13 300.534 284.457 299.694 285.11C298.877 285.763 298.469 286.58 298.469 287.56C298.469 288.33 298.679 288.948 299.099 289.415C299.542 289.858 300.126 290.208 300.849 290.465C301.572 290.698 302.366 290.897 303.229 291.06C304.092 291.2 304.956 291.363 305.819 291.55C306.682 291.737 307.476 292.005 308.199 292.355C308.922 292.682 309.494 293.148 309.914 293.755C310.357 294.338 310.579 295.132 310.579 296.135C310.579 297.138 310.299 298.013 309.739 298.76C309.202 299.507 308.397 300.09 307.324 300.51C306.251 300.93 304.932 301.14 303.369 301.14ZM315.463 301V282.73H317.213V301H315.463ZM316.338 278.285C315.941 278.285 315.603 278.145 315.323 277.865C315.043 277.585 314.903 277.258 314.903 276.885C314.903 276.488 315.043 276.15 315.323 275.87C315.603 275.59 315.941 275.45 316.338 275.45C316.758 275.45 317.096 275.59 317.353 275.87C317.633 276.127 317.773 276.453 317.773 276.85C317.773 277.247 317.633 277.585 317.353 277.865C317.096 278.145 316.758 278.285 316.338 278.285ZM331.729 301.14C329.979 301.14 328.416 300.743 327.039 299.95C325.686 299.157 324.601 298.06 323.784 296.66C322.991 295.26 322.594 293.662 322.594 291.865C322.594 290.045 322.991 288.447 323.784 287.07C324.601 285.67 325.686 284.573 327.039 283.78C328.416 282.987 329.979 282.59 331.729 282.59C333.479 282.59 335.042 282.987 336.419 283.78C337.796 284.573 338.881 285.67 339.674 287.07C340.467 288.447 340.864 290.045 340.864 291.865C340.864 293.662 340.467 295.26 339.674 296.66C338.881 298.06 337.796 299.157 336.419 299.95C335.042 300.743 333.479 301.14 331.729 301.14ZM331.729 299.565C333.129 299.565 334.389 299.25 335.509 298.62C336.629 297.967 337.504 297.057 338.134 295.89C338.764 294.723 339.079 293.382 339.079 291.865C339.079 290.325 338.764 288.983 338.134 287.84C337.504 286.673 336.629 285.775 335.509 285.145C334.389 284.492 333.129 284.165 331.729 284.165C330.329 284.165 329.069 284.492 327.949 285.145C326.852 285.775 325.977 286.673 325.324 287.84C324.694 288.983 324.379 290.325 324.379 291.865C324.379 293.382 324.694 294.723 325.324 295.89C325.977 297.057 326.852 297.967 327.949 298.62C329.069 299.25 330.329 299.565 331.729 299.565ZM355.218 282.59C356.711 282.59 358.006 282.882 359.103 283.465C360.223 284.025 361.086 284.888 361.693 286.055C362.323 287.198 362.638 288.622 362.638 290.325V301H360.888V290.465C360.888 288.412 360.363 286.848 359.313 285.775C358.286 284.702 356.84 284.165 354.973 284.165C353.55 284.165 352.313 284.457 351.263 285.04C350.213 285.623 349.408 286.44 348.848 287.49C348.311 288.54 348.043 289.8 348.043 291.27V301H346.293V282.73H347.973V287.805L347.728 287.245C348.288 285.798 349.21 284.667 350.493 283.85C351.776 283.01 353.351 282.59 355.218 282.59ZM374.463 301.14C372.946 301.14 371.523 300.918 370.193 300.475C368.886 300.032 367.871 299.472 367.148 298.795L367.953 297.395C368.653 298.002 369.586 298.527 370.753 298.97C371.919 299.39 373.179 299.6 374.533 299.6C376.446 299.6 377.823 299.285 378.663 298.655C379.503 298.025 379.923 297.197 379.923 296.17C379.923 295.423 379.701 294.84 379.258 294.42C378.838 293.977 378.266 293.638 377.543 293.405C376.819 293.172 376.026 292.985 375.163 292.845C374.299 292.682 373.436 292.507 372.573 292.32C371.709 292.133 370.916 291.865 370.193 291.515C369.469 291.165 368.886 290.687 368.443 290.08C368.023 289.45 367.813 288.622 367.813 287.595C367.813 286.662 368.069 285.822 368.583 285.075C369.096 284.328 369.866 283.733 370.893 283.29C371.919 282.823 373.203 282.59 374.743 282.59C375.886 282.59 377.029 282.753 378.173 283.08C379.339 283.407 380.284 283.838 381.008 284.375L380.203 285.775C379.433 285.192 378.569 284.772 377.613 284.515C376.656 284.258 375.688 284.13 374.708 284.13C372.934 284.13 371.628 284.457 370.788 285.11C369.971 285.763 369.563 286.58 369.563 287.56C369.563 288.33 369.773 288.948 370.193 289.415C370.636 289.858 371.219 290.208 371.943 290.465C372.666 290.698 373.459 290.897 374.323 291.06C375.186 291.2 376.049 291.363 376.913 291.55C377.776 291.737 378.569 292.005 379.293 292.355C380.016 292.682 380.588 293.148 381.008 293.755C381.451 294.338 381.673 295.132 381.673 296.135C381.673 297.138 381.393 298.013 380.833 298.76C380.296 299.507 379.491 300.09 378.418 300.51C377.344 300.93 376.026 301.14 374.463 301.14ZM407.061 301V296.835L406.991 296.205V289.345C406.991 287.642 406.524 286.347 405.591 285.46C404.681 284.573 403.339 284.13 401.566 284.13C400.306 284.13 399.128 284.352 398.031 284.795C396.958 285.215 396.036 285.763 395.266 286.44L394.391 285.18C395.301 284.363 396.398 283.733 397.681 283.29C398.964 282.823 400.306 282.59 401.706 282.59C403.969 282.59 405.708 283.162 406.921 284.305C408.134 285.448 408.741 287.152 408.741 289.415V301H407.061ZM400.481 301.14C399.128 301.14 397.949 300.93 396.946 300.51C395.966 300.067 395.208 299.448 394.671 298.655C394.158 297.862 393.901 296.952 393.901 295.925C393.901 294.992 394.111 294.152 394.531 293.405C394.974 292.635 395.698 292.017 396.701 291.55C397.704 291.06 399.046 290.815 400.726 290.815H407.446V292.18H400.761C398.871 292.18 397.541 292.53 396.771 293.23C396.024 293.93 395.651 294.805 395.651 295.855C395.651 297.022 396.094 297.955 396.981 298.655C397.868 299.355 399.116 299.705 400.726 299.705C402.266 299.705 403.561 299.355 404.611 298.655C405.684 297.955 406.478 296.94 406.991 295.61L407.481 296.8C406.991 298.13 406.151 299.192 404.961 299.985C403.794 300.755 402.301 301.14 400.481 301.14ZM424.876 282.59C426.37 282.59 427.665 282.882 428.761 283.465C429.881 284.025 430.745 284.888 431.351 286.055C431.981 287.198 432.296 288.622 432.296 290.325V301H430.546V290.465C430.546 288.412 430.021 286.848 428.971 285.775C427.945 284.702 426.498 284.165 424.631 284.165C423.208 284.165 421.971 284.457 420.921 285.04C419.871 285.623 419.066 286.44 418.506 287.49C417.97 288.54 417.701 289.8 417.701 291.27V301H415.951V282.73H417.631V287.805L417.386 287.245C417.946 285.798 418.868 284.667 420.151 283.85C421.435 283.01 423.01 282.59 424.876 282.59ZM446.536 301.14C444.833 301.14 443.293 300.755 441.916 299.985C440.563 299.192 439.489 298.095 438.696 296.695C437.903 295.295 437.506 293.685 437.506 291.865C437.506 290.022 437.903 288.412 438.696 287.035C439.489 285.635 440.563 284.55 441.916 283.78C443.293 282.987 444.833 282.59 446.536 282.59C448.146 282.59 449.593 282.963 450.876 283.71C452.183 284.457 453.209 285.518 453.956 286.895C454.726 288.272 455.111 289.928 455.111 291.865C455.111 293.755 454.738 295.4 453.991 296.8C453.244 298.2 452.218 299.273 450.911 300.02C449.628 300.767 448.169 301.14 446.536 301.14ZM446.641 299.565C448.041 299.565 449.289 299.25 450.386 298.62C451.506 297.967 452.381 297.057 453.011 295.89C453.664 294.723 453.991 293.382 453.991 291.865C453.991 290.325 453.664 288.983 453.011 287.84C452.381 286.673 451.506 285.775 450.386 285.145C449.289 284.492 448.041 284.165 446.641 284.165C445.241 284.165 443.981 284.492 442.861 285.145C441.764 285.775 440.889 286.673 440.236 287.84C439.606 288.983 439.291 290.325 439.291 291.865C439.291 293.382 439.606 294.723 440.236 295.89C440.889 297.057 441.764 297.967 442.861 298.62C443.981 299.25 445.241 299.565 446.641 299.565ZM454.026 301V295.015L454.341 291.83L453.991 288.645V275.03H455.741V301H454.026ZM472.108 301V282.73H473.788V287.735L473.613 287.175C474.127 285.705 474.99 284.573 476.203 283.78C477.417 282.987 478.933 282.59 480.753 282.59V284.305C480.683 284.305 480.613 284.305 480.543 284.305C480.473 284.282 480.403 284.27 480.333 284.27C478.303 284.27 476.717 284.912 475.573 286.195C474.43 287.455 473.858 289.217 473.858 291.48V301H472.108ZM492.824 301.14C490.981 301.14 489.348 300.743 487.924 299.95C486.524 299.157 485.416 298.06 484.599 296.66C483.806 295.26 483.409 293.662 483.409 291.865C483.409 290.045 483.783 288.447 484.529 287.07C485.299 285.67 486.349 284.573 487.679 283.78C489.009 282.987 490.503 282.59 492.159 282.59C493.816 282.59 495.298 282.975 496.604 283.745C497.934 284.515 498.973 285.6 499.719 287C500.489 288.377 500.874 289.975 500.874 291.795C500.874 291.865 500.863 291.947 500.839 292.04C500.839 292.11 500.839 292.192 500.839 292.285H484.704V290.92H499.894L499.194 291.585C499.218 290.162 498.914 288.89 498.284 287.77C497.678 286.627 496.849 285.74 495.799 285.11C494.749 284.457 493.536 284.13 492.159 284.13C490.806 284.13 489.593 284.457 488.519 285.11C487.469 285.74 486.641 286.627 486.034 287.77C485.428 288.89 485.124 290.173 485.124 291.62V291.935C485.124 293.428 485.451 294.758 486.104 295.925C486.781 297.068 487.703 297.967 488.869 298.62C490.036 299.25 491.366 299.565 492.859 299.565C494.026 299.565 495.111 299.355 496.114 298.935C497.141 298.515 498.004 297.873 498.704 297.01L499.719 298.165C498.926 299.145 497.923 299.892 496.709 300.405C495.519 300.895 494.224 301.14 492.824 301.14ZM513.323 301.14C511.62 301.14 510.08 300.755 508.703 299.985C507.35 299.192 506.276 298.095 505.483 296.695C504.69 295.295 504.293 293.685 504.293 291.865C504.293 290.022 504.69 288.412 505.483 287.035C506.276 285.635 507.35 284.55 508.703 283.78C510.08 282.987 511.62 282.59 513.323 282.59C514.933 282.59 516.38 282.963 517.663 283.71C518.97 284.457 519.996 285.518 520.743 286.895C521.513 288.272 521.898 289.928 521.898 291.865C521.898 293.755 521.525 295.4 520.778 296.8C520.031 298.2 519.005 299.273 517.698 300.02C516.415 300.767 514.956 301.14 513.323 301.14ZM513.428 299.565C514.828 299.565 516.076 299.25 517.173 298.62C518.293 297.967 519.168 297.057 519.798 295.89C520.451 294.723 520.778 293.382 520.778 291.865C520.778 290.325 520.451 288.983 519.798 287.84C519.168 286.673 518.293 285.775 517.173 285.145C516.076 284.492 514.828 284.165 513.428 284.165C512.028 284.165 510.768 284.492 509.648 285.145C508.551 285.775 507.676 286.673 507.023 287.84C506.393 288.983 506.078 290.325 506.078 291.865C506.078 293.382 506.393 294.723 507.023 295.89C507.676 297.057 508.551 297.967 509.648 298.62C510.768 299.25 512.028 299.565 513.428 299.565ZM520.813 301V295.015L521.128 291.83L520.778 288.645V275.03H522.528V301H520.813ZM537.326 301.14C535.763 301.14 534.41 300.86 533.266 300.3C532.123 299.717 531.236 298.853 530.606 297.71C530 296.543 529.696 295.108 529.696 293.405V282.73H531.446V293.265C531.446 295.318 531.971 296.882 533.021 297.955C534.071 299.028 535.553 299.565 537.466 299.565C538.843 299.565 540.033 299.273 541.036 298.69C542.04 298.107 542.81 297.29 543.346 296.24C543.883 295.167 544.151 293.907 544.151 292.46V282.73H545.901V301H544.221V295.925L544.466 296.52C543.93 297.943 543.031 299.075 541.771 299.915C540.535 300.732 539.053 301.14 537.326 301.14ZM560.564 301.14C558.791 301.14 557.204 300.743 555.804 299.95C554.428 299.157 553.331 298.06 552.514 296.66C551.721 295.26 551.324 293.662 551.324 291.865C551.324 290.045 551.721 288.435 552.514 287.035C553.331 285.635 554.428 284.55 555.804 283.78C557.204 282.987 558.791 282.59 560.564 282.59C562.034 282.59 563.364 282.87 564.554 283.43C565.768 283.99 566.748 284.83 567.494 285.95L566.199 286.895C565.546 285.962 564.729 285.273 563.749 284.83C562.769 284.387 561.708 284.165 560.564 284.165C559.141 284.165 557.858 284.492 556.714 285.145C555.594 285.775 554.708 286.673 554.054 287.84C553.424 288.983 553.109 290.325 553.109 291.865C553.109 293.405 553.424 294.758 554.054 295.925C554.708 297.068 555.594 297.967 556.714 298.62C557.858 299.25 559.141 299.565 560.564 299.565C561.708 299.565 562.769 299.343 563.749 298.9C564.729 298.457 565.546 297.768 566.199 296.835L567.494 297.78C566.748 298.9 565.768 299.74 564.554 300.3C563.364 300.86 562.034 301.14 560.564 301.14ZM572.426 301V282.73H574.176V301H572.426ZM573.301 278.285C572.904 278.285 572.566 278.145 572.286 277.865C572.006 277.585 571.866 277.258 571.866 276.885C571.866 276.488 572.006 276.15 572.286 275.87C572.566 275.59 572.904 275.45 573.301 275.45C573.721 275.45 574.059 275.59 574.316 275.87C574.596 276.127 574.736 276.453 574.736 276.85C574.736 277.247 574.596 277.585 574.316 277.865C574.059 278.145 573.721 278.285 573.301 278.285ZM590.477 282.59C591.97 282.59 593.265 282.882 594.362 283.465C595.482 284.025 596.345 284.888 596.952 286.055C597.582 287.198 597.897 288.622 597.897 290.325V301H596.147V290.465C596.147 288.412 595.622 286.848 594.572 285.775C593.545 284.702 592.098 284.165 590.232 284.165C588.808 284.165 587.572 284.457 586.522 285.04C585.472 285.623 584.667 286.44 584.107 287.49C583.57 288.54 583.302 289.8 583.302 291.27V301H581.552V282.73H583.232V287.805L582.987 287.245C583.547 285.798 584.468 284.667 585.752 283.85C587.035 283.01 588.61 282.59 590.477 282.59ZM612.697 307.93C611.04 307.93 609.465 307.673 607.972 307.16C606.478 306.647 605.265 305.935 604.332 305.025L605.277 303.695C606.187 304.535 607.272 305.188 608.532 305.655C609.815 306.122 611.192 306.355 612.662 306.355C615.112 306.355 616.908 305.783 618.052 304.64C619.218 303.497 619.802 301.7 619.802 299.25V294.175L620.152 291.445L619.872 288.715V282.73H621.552V299.04C621.552 302.097 620.805 304.337 619.312 305.76C617.842 307.207 615.637 307.93 612.697 307.93ZM612.207 300.335C610.48 300.335 608.928 299.962 607.552 299.215C606.198 298.445 605.113 297.395 604.297 296.065C603.503 294.712 603.107 293.172 603.107 291.445C603.107 289.695 603.503 288.155 604.297 286.825C605.113 285.495 606.198 284.457 607.552 283.71C608.928 282.963 610.48 282.59 612.207 282.59C613.863 282.59 615.345 282.952 616.652 283.675C617.982 284.375 619.032 285.39 619.802 286.72C620.572 288.027 620.957 289.602 620.957 291.445C620.957 293.265 620.572 294.84 619.802 296.17C619.032 297.5 617.982 298.527 616.652 299.25C615.345 299.973 613.863 300.335 612.207 300.335ZM612.347 298.76C613.817 298.76 615.112 298.457 616.232 297.85C617.352 297.22 618.227 296.357 618.857 295.26C619.51 294.14 619.837 292.868 619.837 291.445C619.837 289.998 619.51 288.727 618.857 287.63C618.227 286.533 617.352 285.682 616.232 285.075C615.112 284.468 613.817 284.165 612.347 284.165C610.923 284.165 609.64 284.468 608.497 285.075C607.377 285.682 606.49 286.533 605.837 287.63C605.207 288.727 604.892 289.998 604.892 291.445C604.892 292.868 605.207 294.14 605.837 295.26C606.49 296.357 607.377 297.22 608.497 297.85C609.64 298.457 610.923 298.76 612.347 298.76ZM10.955 349.14C9.18167 349.14 7.595 348.743 6.195 347.95C4.81833 347.157 3.72167 346.06 2.905 344.66C2.11167 343.26 1.715 341.662 1.715 339.865C1.715 338.045 2.11167 336.435 2.905 335.035C3.72167 333.635 4.81833 332.55 6.195 331.78C7.595 330.987 9.18167 330.59 10.955 330.59C12.425 330.59 13.755 330.87 14.945 331.43C16.1583 331.99 17.1383 332.83 17.885 333.95L16.59 334.895C15.9367 333.962 15.12 333.273 14.14 332.83C13.16 332.387 12.0983 332.165 10.955 332.165C9.53167 332.165 8.24833 332.492 7.105 333.145C5.985 333.775 5.09833 334.673 4.445 335.84C3.815 336.983 3.5 338.325 3.5 339.865C3.5 341.405 3.815 342.758 4.445 343.925C5.09833 345.068 5.985 345.967 7.105 346.62C8.24833 347.25 9.53167 347.565 10.955 347.565C12.0983 347.565 13.16 347.343 14.14 346.9C15.12 346.457 15.9367 345.768 16.59 344.835L17.885 345.78C17.1383 346.9 16.1583 347.74 14.945 348.3C13.755 348.86 12.425 349.14 10.955 349.14ZM29.9564 349.14C28.2064 349.14 26.6431 348.743 25.2664 347.95C23.9131 347.157 22.8281 346.06 22.0114 344.66C21.2181 343.26 20.8214 341.662 20.8214 339.865C20.8214 338.045 21.2181 336.447 22.0114 335.07C22.8281 333.67 23.9131 332.573 25.2664 331.78C26.6431 330.987 28.2064 330.59 29.9564 330.59C31.7064 330.59 33.2698 330.987 34.6464 331.78C36.0231 332.573 37.1081 333.67 37.9014 335.07C38.6948 336.447 39.0914 338.045 39.0914 339.865C39.0914 341.662 38.6948 343.26 37.9014 344.66C37.1081 346.06 36.0231 347.157 34.6464 347.95C33.2698 348.743 31.7064 349.14 29.9564 349.14ZM29.9564 347.565C31.3564 347.565 32.6164 347.25 33.7364 346.62C34.8564 345.967 35.7314 345.057 36.3614 343.89C36.9914 342.723 37.3064 341.382 37.3064 339.865C37.3064 338.325 36.9914 336.983 36.3614 335.84C35.7314 334.673 34.8564 333.775 33.7364 333.145C32.6164 332.492 31.3564 332.165 29.9564 332.165C28.5564 332.165 27.2964 332.492 26.1764 333.145C25.0798 333.775 24.2048 334.673 23.5514 335.84C22.9214 336.983 22.6064 338.325 22.6064 339.865C22.6064 341.382 22.9214 342.723 23.5514 343.89C24.2048 345.057 25.0798 345.967 26.1764 346.62C27.2964 347.25 28.5564 347.565 29.9564 347.565ZM49.1405 349.14C47.6239 349.14 46.2005 348.918 44.8705 348.475C43.5639 348.032 42.5489 347.472 41.8255 346.795L42.6305 345.395C43.3305 346.002 44.2639 346.527 45.4305 346.97C46.5972 347.39 47.8572 347.6 49.2105 347.6C51.1239 347.6 52.5005 347.285 53.3405 346.655C54.1805 346.025 54.6005 345.197 54.6005 344.17C54.6005 343.423 54.3789 342.84 53.9355 342.42C53.5155 341.977 52.9439 341.638 52.2205 341.405C51.4972 341.172 50.7039 340.985 49.8405 340.845C48.9772 340.682 48.1139 340.507 47.2505 340.32C46.3872 340.133 45.5939 339.865 44.8705 339.515C44.1472 339.165 43.5639 338.687 43.1205 338.08C42.7005 337.45 42.4905 336.622 42.4905 335.595C42.4905 334.662 42.7472 333.822 43.2605 333.075C43.7739 332.328 44.5439 331.733 45.5705 331.29C46.5972 330.823 47.8805 330.59 49.4205 330.59C50.5639 330.59 51.7072 330.753 52.8505 331.08C54.0172 331.407 54.9622 331.838 55.6855 332.375L54.8805 333.775C54.1105 333.192 53.2472 332.772 52.2905 332.515C51.3339 332.258 50.3655 332.13 49.3855 332.13C47.6122 332.13 46.3055 332.457 45.4655 333.11C44.6489 333.763 44.2405 334.58 44.2405 335.56C44.2405 336.33 44.4505 336.948 44.8705 337.415C45.3139 337.858 45.8972 338.208 46.6205 338.465C47.3439 338.698 48.1372 338.897 49.0005 339.06C49.8639 339.2 50.7272 339.363 51.5905 339.55C52.4539 339.737 53.2472 340.005 53.9705 340.355C54.6939 340.682 55.2655 341.148 55.6855 341.755C56.1289 342.338 56.3505 343.132 56.3505 344.135C56.3505 345.138 56.0705 346.013 55.5105 346.76C54.9739 347.507 54.1689 348.09 53.0955 348.51C52.0222 348.93 50.7039 349.14 49.1405 349.14ZM66.5544 349.14C64.9444 349.14 63.7077 348.697 62.8444 347.81C62.0044 346.923 61.5844 345.71 61.5844 344.17V326.74H63.3344V343.995C63.3344 345.162 63.6261 346.06 64.2094 346.69C64.7927 347.32 65.6327 347.635 66.7294 347.635C67.8727 347.635 68.8177 347.297 69.5644 346.62L70.2994 347.845C69.8327 348.288 69.2611 348.615 68.5844 348.825C67.9311 349.035 67.2544 349.14 66.5544 349.14ZM58.2244 332.235V330.73H69.1444V332.235H58.2244ZM79.7997 349.14C78.2831 349.14 76.8597 348.918 75.5297 348.475C74.2231 348.032 73.2081 347.472 72.4847 346.795L73.2897 345.395C73.9897 346.002 74.9231 346.527 76.0897 346.97C77.2564 347.39 78.5164 347.6 79.8697 347.6C81.7831 347.6 83.1597 347.285 83.9997 346.655C84.8397 346.025 85.2597 345.197 85.2597 344.17C85.2597 343.423 85.0381 342.84 84.5947 342.42C84.1747 341.977 83.6031 341.638 82.8797 341.405C82.1564 341.172 81.3631 340.985 80.4997 340.845C79.6364 340.682 78.7731 340.507 77.9097 340.32C77.0464 340.133 76.2531 339.865 75.5297 339.515C74.8064 339.165 74.2231 338.687 73.7797 338.08C73.3597 337.45 73.1497 336.622 73.1497 335.595C73.1497 334.662 73.4064 333.822 73.9197 333.075C74.4331 332.328 75.2031 331.733 76.2297 331.29C77.2564 330.823 78.5397 330.59 80.0797 330.59C81.2231 330.59 82.3664 330.753 83.5097 331.08C84.6764 331.407 85.6214 331.838 86.3447 332.375L85.5397 333.775C84.7697 333.192 83.9064 332.772 82.9497 332.515C81.9931 332.258 81.0247 332.13 80.0447 332.13C78.2714 332.13 76.9647 332.457 76.1247 333.11C75.3081 333.763 74.8997 334.58 74.8997 335.56C74.8997 336.33 75.1097 336.948 75.5297 337.415C75.9731 337.858 76.5564 338.208 77.2797 338.465C78.0031 338.698 78.7964 338.897 79.6597 339.06C80.5231 339.2 81.3864 339.363 82.2497 339.55C83.1131 339.737 83.9064 340.005 84.6297 340.355C85.3531 340.682 85.9247 341.148 86.3447 341.755C86.7881 342.338 87.0097 343.132 87.0097 344.135C87.0097 345.138 86.7297 346.013 86.1697 346.76C85.6331 347.507 84.8281 348.09 83.7547 348.51C82.6814 348.93 81.3631 349.14 79.7997 349.14ZM91.6836 349.14C91.2869 349.14 90.9369 349 90.6336 348.72C90.3536 348.417 90.2136 348.055 90.2136 347.635C90.2136 347.215 90.3536 346.865 90.6336 346.585C90.9369 346.305 91.2869 346.165 91.6836 346.165C92.0803 346.165 92.4186 346.305 92.6986 346.585C93.0019 346.865 93.1536 347.215 93.1536 347.635C93.1536 348.055 93.0019 348.417 92.6986 348.72C92.4186 349 92.0803 349.14 91.6836 349.14Z" fill="black"/>
</svg>
