<svg
   width="1059"
   height="89"
   viewBox="0 0 1059 89"
   fill="none"
   xmlns="http://www.w3.org/2000/svg">
  <rect
     style="fill:#fd9d74;fill-opacity:1;stroke-width:0.992244"
     id="rect430"
     width="415"
     height="28"
     x="245"
     y="46" />
  <path
     d="M3.255 70V61.909L29.109 37.357C31.279 35.311 32.891 33.513 33.945 31.963C34.999 30.413 35.681 28.987 35.991 27.685C36.363 26.321 36.549 25.05 36.549 23.872C36.549 20.896 35.526 18.602 33.48 16.99C31.434 15.316 28.427 14.479 24.459 14.479C21.297 14.479 18.414 15.037 15.81 16.153C13.268 17.269 11.067 18.974 9.207 21.268L0.744 14.758C3.286 11.348 6.696 8.713 10.974 6.853C15.314 4.931 20.15 3.97 25.482 3.97C30.194 3.97 34.286 4.745 37.758 6.29499C41.292 7.783 43.989 9.922 45.849 12.712C47.771 15.502 48.732 18.819 48.732 22.663C48.732 24.771 48.453 26.879 47.895 28.987C47.337 31.033 46.283 33.203 44.733 35.497C43.183 37.791 40.92 40.364 37.944 43.216L15.717 64.327L13.206 59.77H51.243V70H3.255ZM85.3769 70.93C80.2309 70.93 75.5809 69.628 71.4269 67.024C67.3349 64.42 64.1109 60.638 61.7549 55.678C59.3989 50.656 58.2209 44.58 58.2209 37.45C58.2209 30.32 59.3989 24.275 61.7549 19.315C64.1109 14.293 67.3349 10.48 71.4269 7.876C75.5809 5.272 80.2309 3.97 85.3769 3.97C90.5849 3.97 95.2349 5.272 99.3269 7.876C103.419 10.48 106.643 14.293 108.999 19.315C111.417 24.275 112.626 30.32 112.626 37.45C112.626 44.58 111.417 50.656 108.999 55.678C106.643 60.638 103.419 64.42 99.3269 67.024C95.2349 69.628 90.5849 70.93 85.3769 70.93ZM85.3769 60.421C88.4149 60.421 91.0499 59.615 93.2819 58.003C95.5139 56.329 97.2499 53.787 98.4899 50.377C99.7919 46.967 100.443 42.658 100.443 37.45C100.443 32.18 99.7919 27.871 98.4899 24.523C97.2499 21.113 95.5139 18.602 93.2819 16.99C91.0499 15.316 88.4149 14.479 85.3769 14.479C82.4629 14.479 79.8589 15.316 77.5649 16.99C75.3329 18.602 73.5659 21.113 72.2639 24.523C71.0239 27.871 70.4039 32.18 70.4039 37.45C70.4039 42.658 71.0239 46.967 72.2639 50.377C73.5659 53.787 75.3329 56.329 77.5649 58.003C79.8589 59.615 82.4629 60.421 85.3769 60.421ZM119.868 70V61.909L145.722 37.357C147.892 35.311 149.504 33.513 150.558 31.963C151.612 30.413 152.294 28.987 152.604 27.685C152.976 26.321 153.162 25.05 153.162 23.872C153.162 20.896 152.139 18.602 150.093 16.99C148.047 15.316 145.04 14.479 141.072 14.479C137.91 14.479 135.027 15.037 132.423 16.153C129.881 17.269 127.68 18.974 125.82 21.268L117.357 14.758C119.899 11.348 123.309 8.713 127.587 6.853C131.927 4.931 136.763 3.97 142.095 3.97C146.807 3.97 150.899 4.745 154.371 6.29499C157.905 7.783 160.602 9.922 162.462 12.712C164.384 15.502 165.345 18.819 165.345 22.663C165.345 24.771 165.066 26.879 164.508 28.987C163.95 31.033 162.896 33.203 161.346 35.497C159.796 37.791 157.533 40.364 154.557 43.216L132.33 64.327L129.819 59.77H167.856V70H119.868ZM195.294 70.93C190.706 70.93 186.211 70.279 181.809 68.977C177.469 67.613 173.811 65.753 170.835 63.397L176.043 54.004C178.399 55.926 181.251 57.476 184.599 58.654C187.947 59.832 191.45 60.421 195.108 60.421C199.448 60.421 202.827 59.553 205.245 57.817C207.663 56.019 208.872 53.601 208.872 50.563C208.872 47.587 207.756 45.231 205.524 43.495C203.292 41.759 199.696 40.891 194.736 40.891H188.784V32.614L207.384 10.48L208.965 15.037H173.997V4.9H218.358V12.991L199.758 35.125L193.434 31.405H197.061C205.059 31.405 211.042 33.203 215.01 36.799C219.04 40.333 221.055 44.89 221.055 50.47C221.055 54.128 220.125 57.507 218.265 60.607C216.405 63.707 213.553 66.218 209.709 68.14C205.927 70 201.122 70.93 195.294 70.93ZM270.103 54.655L269.452 40.333L303.583 4.9H317.161L288.796 35.032L282.1 42.379L270.103 54.655ZM259.315 70V4.9H271.405V70H259.315ZM304.699 70L279.775 40.333L287.773 31.498L318.835 70H304.699ZM347.115 70.651C341.597 70.651 336.761 69.566 332.607 67.396C328.515 65.164 325.322 62.126 323.028 58.282C320.796 54.438 319.68 50.067 319.68 45.169C319.68 40.209 320.765 35.838 322.935 32.056C325.167 28.212 328.205 25.205 332.049 23.035C335.955 20.865 340.388 19.78 345.348 19.78C350.184 19.78 354.493 20.834 358.275 22.942C362.057 25.05 365.033 28.026 367.203 31.87C369.373 35.714 370.458 40.24 370.458 45.448C370.458 45.944 370.427 46.502 370.365 47.122C370.365 47.742 370.334 48.331 370.272 48.889H328.887V41.17H364.134L359.577 43.588C359.639 40.736 359.05 38.225 357.81 36.055C356.57 33.885 354.865 32.18 352.695 30.94C350.587 29.7 348.138 29.08 345.348 29.08C342.496 29.08 339.985 29.7 337.815 30.94C335.707 32.18 334.033 33.916 332.793 36.148C331.615 38.318 331.026 40.891 331.026 43.867V45.727C331.026 48.703 331.708 51.338 333.072 53.632C334.436 55.926 336.358 57.693 338.838 58.933C341.318 60.173 344.17 60.793 347.394 60.793C350.184 60.793 352.695 60.359 354.927 59.491C357.159 58.623 359.143 57.259 360.879 55.399L367.11 62.56C364.878 65.164 362.057 67.179 358.647 68.605C355.299 69.969 351.455 70.651 347.115 70.651ZM384.808 88.693C382.39 88.693 379.972 88.29 377.554 87.484C375.136 86.678 373.121 85.562 371.509 84.136L376.159 75.58C377.337 76.634 378.67 77.471 380.158 78.091C381.646 78.711 383.165 79.021 384.715 79.021C386.823 79.021 388.528 78.494 389.83 77.44C391.132 76.386 392.341 74.619 393.457 72.139L396.34 65.629L397.27 64.234L416.056 20.338H427.216L403.966 73.999C402.416 77.719 400.68 80.664 398.758 82.834C396.898 85.004 394.79 86.523 392.434 87.391C390.14 88.259 387.598 88.693 384.808 88.693ZM395.038 71.767L372.625 20.338H384.715L402.943 63.211L395.038 71.767ZM462.66 19.78C466.628 19.78 470.162 20.555 473.262 22.105C476.424 23.655 478.904 26.042 480.702 29.266C482.5 32.428 483.399 36.52 483.399 41.542V70H471.774V43.03C471.774 38.628 470.72 35.342 468.612 33.172C466.566 31.002 463.683 29.917 459.963 29.917C457.235 29.917 454.817 30.475 452.709 31.591C450.601 32.707 448.958 34.381 447.78 36.613C446.664 38.783 446.106 41.542 446.106 44.89V70H434.481V20.338H445.548V33.73L443.595 29.638C445.331 26.476 447.842 24.058 451.128 22.384C454.476 20.648 458.32 19.78 462.66 19.78ZM520.557 70.651C515.473 70.651 510.947 69.566 506.979 67.396C503.011 65.164 499.88 62.126 497.586 58.282C495.292 54.438 494.145 50.067 494.145 45.169C494.145 40.209 495.292 35.838 497.586 32.056C499.88 28.212 503.011 25.205 506.979 23.035C510.947 20.865 515.473 19.78 520.557 19.78C525.703 19.78 530.26 20.865 534.228 23.035C538.258 25.205 541.389 28.181 543.621 31.963C545.915 35.745 547.062 40.147 547.062 45.169C547.062 50.067 545.915 54.438 543.621 58.282C541.389 62.126 538.258 65.164 534.228 67.396C530.26 69.566 525.703 70.651 520.557 70.651ZM520.557 60.7C523.409 60.7 525.951 60.08 528.183 58.84C530.415 57.6 532.151 55.802 533.391 53.446C534.693 51.09 535.344 48.331 535.344 45.169C535.344 41.945 534.693 39.186 533.391 36.892C532.151 34.536 530.415 32.738 528.183 31.498C525.951 30.258 523.44 29.638 520.65 29.638C517.798 29.638 515.256 30.258 513.024 31.498C510.854 32.738 509.118 34.536 507.816 36.892C506.514 39.186 505.863 41.945 505.863 45.169C505.863 48.331 506.514 51.09 507.816 53.446C509.118 55.802 510.854 57.6 513.024 58.84C515.256 60.08 517.767 60.7 520.557 60.7ZM576.872 70.651C571.416 70.651 567.2 69.256 564.224 66.466C561.248 63.614 559.76 59.429 559.76 53.911V9.364H571.385V53.632C571.385 55.988 571.974 57.817 573.152 59.119C574.392 60.421 576.097 61.072 578.267 61.072C580.871 61.072 583.041 60.39 584.777 59.026L588.032 67.303C586.668 68.419 584.994 69.256 583.01 69.814C581.026 70.372 578.98 70.651 576.872 70.651ZM551.576 30.01V20.71H584.684V30.01H551.576ZM619.303 70.651C613.785 70.651 608.949 69.566 604.795 67.396C600.703 65.164 597.51 62.126 595.216 58.282C592.984 54.438 591.868 50.067 591.868 45.169C591.868 40.209 592.953 35.838 595.123 32.056C597.355 28.212 600.393 25.205 604.237 23.035C608.143 20.865 612.576 19.78 617.536 19.78C622.372 19.78 626.681 20.834 630.463 22.942C634.245 25.05 637.221 28.026 639.391 31.87C641.561 35.714 642.646 40.24 642.646 45.448C642.646 45.944 642.615 46.502 642.553 47.122C642.553 47.742 642.522 48.331 642.46 48.889H601.075V41.17H636.322L631.765 43.588C631.827 40.736 631.238 38.225 629.998 36.055C628.758 33.885 627.053 32.18 624.883 30.94C622.775 29.7 620.326 29.08 617.536 29.08C614.684 29.08 612.173 29.7 610.003 30.94C607.895 32.18 606.221 33.916 604.981 36.148C603.803 38.318 603.214 40.891 603.214 43.867V45.727C603.214 48.703 603.896 51.338 605.26 53.632C606.624 55.926 608.546 57.693 611.026 58.933C613.506 60.173 616.358 60.793 619.582 60.793C622.372 60.793 624.883 60.359 627.115 59.491C629.347 58.623 631.331 57.259 633.067 55.399L639.298 62.56C637.066 65.164 634.245 67.179 630.835 68.605C627.487 69.969 623.643 70.651 619.303 70.651ZM700.812 70.93C695.728 70.93 690.861 70.217 686.211 68.791C681.561 67.303 677.872 65.412 675.144 63.118L679.329 53.725C681.933 55.771 685.157 57.476 689.001 58.84C692.845 60.204 696.782 60.886 700.812 60.886C704.222 60.886 706.981 60.514 709.089 59.77C711.197 59.026 712.747 58.034 713.739 56.794C714.731 55.492 715.227 54.035 715.227 52.423C715.227 50.439 714.514 48.858 713.088 47.68C711.662 46.44 709.802 45.479 707.508 44.797C705.276 44.053 702.765 43.371 699.975 42.751C697.247 42.131 694.488 41.418 691.698 40.612C688.97 39.744 686.459 38.659 684.165 37.357C681.933 35.993 680.104 34.195 678.678 31.963C677.252 29.731 676.539 26.879 676.539 23.407C676.539 19.873 677.469 16.649 679.329 13.735C681.251 10.759 684.134 8.40299 687.978 6.66699C691.884 4.869 696.813 3.97 702.765 3.97C706.671 3.97 710.546 4.466 714.39 5.458C718.234 6.45 721.582 7.876 724.434 9.736L720.621 19.129C717.707 17.393 714.7 16.122 711.6 15.316C708.5 14.448 705.524 14.014 702.672 14.014C699.324 14.014 696.596 14.417 694.488 15.223C692.442 16.029 690.923 17.083 689.931 18.385C689.001 19.687 688.536 21.175 688.536 22.849C688.536 24.833 689.218 26.445 690.582 27.685C692.008 28.863 693.837 29.793 696.069 30.475C698.363 31.157 700.905 31.839 703.695 32.521C706.485 33.141 709.244 33.854 711.972 34.66C714.762 35.466 717.273 36.52 719.505 37.822C721.799 39.124 723.628 40.891 724.992 43.123C726.418 45.355 727.131 48.176 727.131 51.586C727.131 55.058 726.17 58.282 724.248 61.258C722.388 64.172 719.505 66.528 715.599 68.326C711.693 70.062 706.764 70.93 700.812 70.93ZM765.531 70.651C761.501 70.651 757.812 69.721 754.464 67.861C751.178 66.001 748.543 63.211 746.559 59.491C744.637 55.709 743.676 50.935 743.676 45.169C743.676 39.341 744.606 34.567 746.466 30.847C748.388 27.127 750.992 24.368 754.278 22.57C757.564 20.71 761.315 19.78 765.531 19.78C770.429 19.78 774.738 20.834 778.458 22.942C782.24 25.05 785.216 27.995 787.386 31.777C789.618 35.559 790.734 40.023 790.734 45.169C790.734 50.315 789.618 54.81 787.386 58.654C785.216 62.436 782.24 65.381 778.458 67.489C774.738 69.597 770.429 70.651 765.531 70.651ZM738.003 88.042V20.338H749.07V32.056L748.698 45.262L749.628 58.468V88.042H738.003ZM764.229 60.7C767.019 60.7 769.499 60.08 771.669 58.84C773.901 57.6 775.668 55.802 776.97 53.446C778.272 51.09 778.923 48.331 778.923 45.169C778.923 41.945 778.272 39.186 776.97 36.892C775.668 34.536 773.901 32.738 771.669 31.498C769.499 30.258 767.019 29.638 764.229 29.638C761.439 29.638 758.928 30.258 756.696 31.498C754.464 32.738 752.697 34.536 751.395 36.892C750.093 39.186 749.442 41.945 749.442 45.169C749.442 48.331 750.093 51.09 751.395 53.446C752.697 55.802 754.464 57.6 756.696 58.84C758.928 60.08 761.439 60.7 764.229 60.7ZM825.102 70.651C819.584 70.651 814.748 69.566 810.594 67.396C806.502 65.164 803.309 62.126 801.015 58.282C798.783 54.438 797.667 50.067 797.667 45.169C797.667 40.209 798.752 35.838 800.922 32.056C803.154 28.212 806.192 25.205 810.036 23.035C813.942 20.865 818.375 19.78 823.335 19.78C828.171 19.78 832.48 20.834 836.262 22.942C840.044 25.05 843.02 28.026 845.19 31.87C847.36 35.714 848.445 40.24 848.445 45.448C848.445 45.944 848.414 46.502 848.352 47.122C848.352 47.742 848.321 48.331 848.259 48.889H806.874V41.17H842.121L837.564 43.588C837.626 40.736 837.037 38.225 835.797 36.055C834.557 33.885 832.852 32.18 830.682 30.94C828.574 29.7 826.125 29.08 823.335 29.08C820.483 29.08 817.972 29.7 815.802 30.94C813.694 32.18 812.02 33.916 810.78 36.148C809.602 38.318 809.013 40.891 809.013 43.867V45.727C809.013 48.703 809.695 51.338 811.059 53.632C812.423 55.926 814.345 57.693 816.825 58.933C819.305 60.173 822.157 60.793 825.381 60.793C828.171 60.793 830.682 60.359 832.914 59.491C835.146 58.623 837.13 57.259 838.866 55.399L845.097 62.56C842.865 65.164 840.044 67.179 836.634 68.605C833.286 69.969 829.442 70.651 825.102 70.651ZM888.846 70V59.956L888.195 57.817V40.24C888.195 36.83 887.172 34.195 885.126 32.335C883.08 30.413 879.98 29.452 875.826 29.452C873.036 29.452 870.277 29.886 867.549 30.754C864.883 31.622 862.62 32.831 860.76 34.381L856.203 25.918C858.869 23.872 862.031 22.353 865.689 21.361C869.409 20.307 873.253 19.78 877.221 19.78C884.413 19.78 889.962 21.516 893.868 24.988C897.836 28.398 899.82 33.699 899.82 40.891V70H888.846ZM873.222 70.651C869.502 70.651 866.247 70.031 863.457 68.791C860.667 67.489 858.497 65.722 856.947 63.49C855.459 61.196 854.715 58.623 854.715 55.771C854.715 52.981 855.366 50.47 856.668 48.238C858.032 46.006 860.233 44.239 863.271 42.937C866.309 41.635 870.339 40.984 875.361 40.984H889.776V48.703H876.198C872.23 48.703 869.564 49.354 868.2 50.656C866.836 51.896 866.154 53.446 866.154 55.306C866.154 57.414 866.991 59.088 868.665 60.328C870.339 61.568 872.664 62.188 875.64 62.188C878.492 62.188 881.034 61.537 883.266 60.235C885.56 58.933 887.203 57.011 888.195 54.469L890.148 61.444C889.032 64.358 887.017 66.621 884.103 68.233C881.251 69.845 877.624 70.651 873.222 70.651ZM924.225 58.933L924.504 44.332L950.451 20.338H964.401L942.36 42.472L936.222 47.587L924.225 58.933ZM914.739 70V0.993996H926.364V70H914.739ZM952.218 70L934.083 47.587L941.43 38.287L966.354 70H952.218ZM995.208 70.651C989.69 70.651 984.854 69.566 980.7 67.396C976.608 65.164 973.415 62.126 971.121 58.282C968.889 54.438 967.773 50.067 967.773 45.169C967.773 40.209 968.858 35.838 971.028 32.056C973.26 28.212 976.298 25.205 980.142 23.035C984.048 20.865 988.481 19.78 993.441 19.78C998.277 19.78 1002.59 20.834 1006.37 22.942C1010.15 25.05 1013.13 28.026 1015.3 31.87C1017.47 35.714 1018.55 40.24 1018.55 45.448C1018.55 45.944 1018.52 46.502 1018.46 47.122C1018.46 47.742 1018.43 48.331 1018.37 48.889H976.98V41.17H1012.23L1007.67 43.588C1007.73 40.736 1007.14 38.225 1005.9 36.055C1004.66 33.885 1002.96 32.18 1000.79 30.94C998.68 29.7 996.231 29.08 993.441 29.08C990.589 29.08 988.078 29.7 985.908 30.94C983.8 32.18 982.126 33.916 980.886 36.148C979.708 38.318 979.119 40.891 979.119 43.867V45.727C979.119 48.703 979.801 51.338 981.165 53.632C982.529 55.926 984.451 57.693 986.931 58.933C989.411 60.173 992.263 60.793 995.487 60.793C998.277 60.793 1000.79 60.359 1003.02 59.491C1005.25 58.623 1007.24 57.259 1008.97 55.399L1015.2 62.56C1012.97 65.164 1010.15 67.179 1006.74 68.605C1003.39 69.969 999.548 70.651 995.208 70.651ZM1029.72 70V20.338H1040.78V34.009L1039.48 30.01C1040.97 26.662 1043.3 24.12 1046.46 22.384C1049.68 20.648 1053.68 19.78 1058.45 19.78V30.847C1057.96 30.723 1057.49 30.661 1057.06 30.661C1056.63 30.599 1056.19 30.568 1055.76 30.568C1051.36 30.568 1047.85 31.87 1045.25 34.474C1042.64 37.016 1041.34 40.829 1041.34 45.913V70H1029.72Z"
     fill="#020126"
     id="path253" />
</svg>
