<svg width="1380" height="29" viewBox="0 0 1380 29" fill="none" xmlns="http://www.w3.org/2000/svg">
<path d="M8.74508 23.12C7.36508 23.12 6.11508 22.8 4.99508 22.16C3.89508 21.52 3.01508 20.61 2.35508 19.43C1.71508 18.23 1.39508 16.81 1.39508 15.17C1.39508 13.53 1.71508 12.12 2.35508 10.94C3.01508 9.74 3.89508 8.82 4.99508 8.18C6.11508 7.54 7.36508 7.22 8.74508 7.22C10.2251 7.22 11.5451 7.56 12.7051 8.24C13.8851 8.9 14.8051 9.83 15.4651 11.03C16.1451 12.23 16.4851 13.61 16.4851 15.17C16.4851 16.73 16.1451 18.11 15.4651 19.31C14.8051 20.51 13.8851 21.45 12.7051 22.13C11.5451 22.79 10.2251 23.12 8.74508 23.12ZM0.885078 28.82V7.34H2.32508V12.47L2.08508 15.2L2.38508 17.93V28.82H0.885078ZM8.65508 21.77C9.85508 21.77 10.9351 21.5 11.8951 20.96C12.8551 20.4 13.6051 19.62 14.1451 18.62C14.7051 17.62 14.9851 16.47 14.9851 15.17C14.9851 13.85 14.7051 12.7 14.1451 11.72C13.6051 10.72 12.8551 9.95 11.8951 9.41C10.9351 8.85 9.85508 8.57 8.65508 8.57C7.45508 8.57 6.37508 8.85 5.41508 9.41C4.47508 9.95 3.72508 10.72 3.16508 11.72C2.62508 12.7 2.35508 13.85 2.35508 15.17C2.35508 16.47 2.62508 17.62 3.16508 18.62C3.72508 19.62 4.47508 20.4 5.41508 20.96C6.37508 21.5 7.45508 21.77 8.65508 21.77ZM21.1292 23V7.34H22.5692V11.63L22.4192 11.15C22.8592 9.89 23.5992 8.92 24.6392 8.24C25.6792 7.56 26.9792 7.22 28.5392 7.22V8.69C28.4792 8.69 28.4192 8.69 28.3592 8.69C28.2992 8.67 28.2392 8.66 28.1792 8.66C26.4392 8.66 25.0792 9.21 24.0992 10.31C23.1192 11.39 22.6292 12.9 22.6292 14.84V23H21.1292ZM38.6457 23.12C37.1457 23.12 35.8057 22.78 34.6257 22.1C33.4657 21.42 32.5357 20.48 31.8357 19.28C31.1557 18.08 30.8157 16.71 30.8157 15.17C30.8157 13.61 31.1557 12.24 31.8357 11.06C32.5357 9.86 33.4657 8.92 34.6257 8.24C35.8057 7.56 37.1457 7.22 38.6457 7.22C40.1457 7.22 41.4857 7.56 42.6657 8.24C43.8457 8.92 44.7757 9.86 45.4557 11.06C46.1357 12.24 46.4757 13.61 46.4757 15.17C46.4757 16.71 46.1357 18.08 45.4557 19.28C44.7757 20.48 43.8457 21.42 42.6657 22.1C41.4857 22.78 40.1457 23.12 38.6457 23.12ZM38.6457 21.77C39.8457 21.77 40.9257 21.5 41.8857 20.96C42.8457 20.4 43.5957 19.62 44.1357 18.62C44.6757 17.62 44.9457 16.47 44.9457 15.17C44.9457 13.85 44.6757 12.7 44.1357 11.72C43.5957 10.72 42.8457 9.95 41.8857 9.41C40.9257 8.85 39.8457 8.57 38.6457 8.57C37.4457 8.57 36.3657 8.85 35.4057 9.41C34.4657 9.95 33.7157 10.72 33.1557 11.72C32.6157 12.7 32.3457 13.85 32.3457 15.17C32.3457 16.47 32.6157 17.62 33.1557 18.62C33.7157 19.62 34.4657 20.4 35.4057 20.96C36.3657 21.5 37.4457 21.77 38.6457 21.77ZM54.6498 23L47.5998 7.34H49.1898L55.7898 22.16H55.0698L61.7298 7.34H63.2598L56.1798 23H54.6498ZM66.5394 23V7.34H68.0394V23H66.5394ZM67.2894 3.53C66.9494 3.53 66.6594 3.41 66.4194 3.17C66.1794 2.93 66.0594 2.65 66.0594 2.33C66.0594 1.99 66.1794 1.7 66.4194 1.46C66.6594 1.22 66.9494 1.1 67.2894 1.1C67.6494 1.1 67.9394 1.22 68.1594 1.46C68.3994 1.68 68.5194 1.96 68.5194 2.3C68.5194 2.64 68.3994 2.93 68.1594 3.17C67.9394 3.41 67.6494 3.53 67.2894 3.53ZM80.3916 23.12C78.9316 23.12 77.6116 22.79 76.4316 22.13C75.2716 21.45 74.3516 20.51 73.6716 19.31C72.9916 18.11 72.6516 16.73 72.6516 15.17C72.6516 13.59 72.9916 12.21 73.6716 11.03C74.3516 9.83 75.2716 8.9 76.4316 8.24C77.6116 7.56 78.9316 7.22 80.3916 7.22C81.7716 7.22 83.0116 7.54 84.1116 8.18C85.2316 8.82 86.1116 9.73 86.7516 10.91C87.4116 12.09 87.7416 13.51 87.7416 15.17C87.7416 16.79 87.4216 18.2 86.7816 19.4C86.1416 20.6 85.2616 21.52 84.1416 22.16C83.0416 22.8 81.7916 23.12 80.3916 23.12ZM80.4816 21.77C81.6816 21.77 82.7516 21.5 83.6916 20.96C84.6516 20.4 85.4016 19.62 85.9416 18.62C86.5016 17.62 86.7816 16.47 86.7816 15.17C86.7816 13.85 86.5016 12.7 85.9416 11.72C85.4016 10.72 84.6516 9.95 83.6916 9.41C82.7516 8.85 81.6816 8.57 80.4816 8.57C79.2816 8.57 78.2016 8.85 77.2416 9.41C76.3016 9.95 75.5516 10.72 74.9916 11.72C74.4516 12.7 74.1816 13.85 74.1816 15.17C74.1816 16.47 74.4516 17.62 74.9916 18.62C75.5516 19.62 76.3016 20.4 77.2416 20.96C78.2016 21.5 79.2816 21.77 80.4816 21.77ZM86.8116 23V17.87L87.0816 15.14L86.7816 12.41V0.739999H88.2816V23H86.8116ZM94.6058 23V7.34H96.1058V23H94.6058ZM95.3558 3.53C95.0158 3.53 94.7258 3.41 94.4858 3.17C94.2458 2.93 94.1258 2.65 94.1258 2.33C94.1258 1.99 94.2458 1.7 94.4858 1.46C94.7258 1.22 95.0158 1.1 95.3558 1.1C95.7158 1.1 96.0058 1.22 96.2258 1.46C96.4658 1.68 96.5858 1.96 96.5858 2.3C96.5858 2.64 96.4658 2.93 96.2258 3.17C96.0058 3.41 95.7158 3.53 95.3558 3.53ZM110.078 7.22C111.358 7.22 112.468 7.47 113.408 7.97C114.368 8.45 115.108 9.19 115.628 10.19C116.168 11.17 116.438 12.39 116.438 13.85V23H114.938V13.97C114.938 12.21 114.488 10.87 113.588 9.95C112.708 9.03 111.468 8.57 109.868 8.57C108.648 8.57 107.588 8.82 106.688 9.32C105.788 9.82 105.098 10.52 104.618 11.42C104.158 12.32 103.928 13.4 103.928 14.66V23H102.428V7.34H103.868V11.69L103.658 11.21C104.138 9.97 104.928 9 106.028 8.3C107.128 7.58 108.478 7.22 110.078 7.22ZM129.124 28.94C127.704 28.94 126.354 28.72 125.074 28.28C123.794 27.84 122.754 27.23 121.954 26.45L122.764 25.31C123.544 26.03 124.474 26.59 125.554 26.99C126.654 27.39 127.834 27.59 129.094 27.59C131.194 27.59 132.734 27.1 133.714 26.12C134.714 25.14 135.214 23.6 135.214 21.5V17.15L135.514 14.81L135.274 12.47V7.34H136.714V21.32C136.714 23.94 136.074 25.86 134.794 27.08C133.534 28.32 131.644 28.94 129.124 28.94ZM128.704 22.43C127.224 22.43 125.894 22.11 124.714 21.47C123.554 20.81 122.624 19.91 121.924 18.77C121.244 17.61 120.904 16.29 120.904 14.81C120.904 13.31 121.244 11.99 121.924 10.85C122.624 9.71 123.554 8.82 124.714 8.18C125.894 7.54 127.224 7.22 128.704 7.22C130.124 7.22 131.394 7.53 132.514 8.15C133.654 8.75 134.554 9.62 135.214 10.76C135.874 11.88 136.204 13.23 136.204 14.81C136.204 16.37 135.874 17.72 135.214 18.86C134.554 20 133.654 20.88 132.514 21.5C131.394 22.12 130.124 22.43 128.704 22.43ZM128.824 21.08C130.084 21.08 131.194 20.82 132.154 20.3C133.114 19.76 133.864 19.02 134.404 18.08C134.964 17.12 135.244 16.03 135.244 14.81C135.244 13.57 134.964 12.48 134.404 11.54C133.864 10.6 133.114 9.87 132.154 9.35C131.194 8.83 130.084 8.57 128.824 8.57C127.604 8.57 126.504 8.83 125.524 9.35C124.564 9.87 123.804 10.6 123.244 11.54C122.704 12.48 122.434 13.57 122.434 14.81C122.434 16.03 122.704 17.12 123.244 18.08C123.804 19.02 124.564 19.76 125.524 20.3C126.504 20.82 127.604 21.08 128.824 21.08ZM154.728 23.12C153.428 23.12 152.208 22.93 151.068 22.55C149.948 22.17 149.078 21.69 148.458 21.11L149.148 19.91C149.748 20.43 150.548 20.88 151.548 21.26C152.548 21.62 153.628 21.8 154.788 21.8C156.428 21.8 157.608 21.53 158.328 20.99C159.048 20.45 159.408 19.74 159.408 18.86C159.408 18.22 159.218 17.72 158.838 17.36C158.478 16.98 157.988 16.69 157.368 16.49C156.748 16.29 156.068 16.13 155.328 16.01C154.588 15.87 153.848 15.72 153.108 15.56C152.368 15.4 151.688 15.17 151.068 14.87C150.448 14.57 149.948 14.16 149.568 13.64C149.208 13.1 149.028 12.39 149.028 11.51C149.028 10.71 149.248 9.99 149.688 9.35C150.128 8.71 150.788 8.2 151.668 7.82C152.548 7.42 153.648 7.22 154.968 7.22C155.948 7.22 156.928 7.36 157.908 7.64C158.908 7.92 159.718 8.29 160.338 8.75L159.648 9.95C158.988 9.45 158.248 9.09 157.428 8.87C156.608 8.65 155.778 8.54 154.938 8.54C153.418 8.54 152.298 8.82 151.578 9.38C150.878 9.94 150.528 10.64 150.528 11.48C150.528 12.14 150.708 12.67 151.068 13.07C151.448 13.45 151.948 13.75 152.568 13.97C153.188 14.17 153.868 14.34 154.608 14.48C155.348 14.6 156.088 14.74 156.828 14.9C157.568 15.06 158.248 15.29 158.868 15.59C159.488 15.87 159.978 16.27 160.338 16.79C160.718 17.29 160.908 17.97 160.908 18.83C160.908 19.69 160.668 20.44 160.188 21.08C159.728 21.72 159.038 22.22 158.118 22.58C157.198 22.94 156.068 23.12 154.728 23.12ZM169.654 23.12C168.274 23.12 167.214 22.74 166.474 21.98C165.754 21.22 165.394 20.18 165.394 18.86V3.92H166.894V18.71C166.894 19.71 167.144 20.48 167.644 21.02C168.144 21.56 168.864 21.83 169.804 21.83C170.784 21.83 171.594 21.54 172.234 20.96L172.864 22.01C172.464 22.39 171.974 22.67 171.394 22.85C170.834 23.03 170.254 23.12 169.654 23.12ZM162.514 8.63V7.34H171.874V8.63H162.514ZM186.917 23V19.43L186.857 18.89V13.01C186.857 11.55 186.457 10.44 185.657 9.68C184.877 8.92 183.727 8.54 182.207 8.54C181.127 8.54 180.117 8.73 179.177 9.11C178.257 9.47 177.467 9.94 176.807 10.52L176.057 9.44C176.837 8.74 177.777 8.2 178.877 7.82C179.977 7.42 181.127 7.22 182.327 7.22C184.267 7.22 185.757 7.71 186.797 8.69C187.837 9.67 188.357 11.13 188.357 13.07V23H186.917ZM181.277 23.12C180.117 23.12 179.107 22.94 178.247 22.58C177.407 22.2 176.757 21.67 176.297 20.99C175.857 20.31 175.637 19.53 175.637 18.65C175.637 17.85 175.817 17.13 176.177 16.49C176.557 15.83 177.177 15.3 178.037 14.9C178.897 14.48 180.047 14.27 181.487 14.27H187.247V15.44H181.517C179.897 15.44 178.757 15.74 178.097 16.34C177.457 16.94 177.137 17.69 177.137 18.59C177.137 19.59 177.517 20.39 178.277 20.99C179.037 21.59 180.107 21.89 181.487 21.89C182.807 21.89 183.917 21.59 184.817 20.99C185.737 20.39 186.417 19.52 186.857 18.38L187.277 19.4C186.857 20.54 186.137 21.45 185.117 22.13C184.117 22.79 182.837 23.12 181.277 23.12ZM194.537 23V7.34H195.977V11.63L195.827 11.15C196.267 9.89 197.007 8.92 198.047 8.24C199.087 7.56 200.387 7.22 201.947 7.22V8.69C201.887 8.69 201.827 8.69 201.767 8.69C201.707 8.67 201.647 8.66 201.587 8.66C199.847 8.66 198.487 9.21 197.507 10.31C196.527 11.39 196.037 12.9 196.037 14.84V23H194.537ZM211.344 23.12C209.964 23.12 208.904 22.74 208.164 21.98C207.444 21.22 207.084 20.18 207.084 18.86V3.92H208.584V18.71C208.584 19.71 208.834 20.48 209.334 21.02C209.834 21.56 210.554 21.83 211.494 21.83C212.474 21.83 213.284 21.54 213.924 20.96L214.554 22.01C214.154 22.39 213.664 22.67 213.084 22.85C212.524 23.03 211.944 23.12 211.344 23.12ZM204.204 8.63V7.34H213.564V8.63H204.204ZM225.097 23.12C223.757 23.12 222.597 22.88 221.617 22.4C220.637 21.9 219.877 21.16 219.337 20.18C218.817 19.18 218.557 17.95 218.557 16.49V7.34H220.057V16.37C220.057 18.13 220.507 19.47 221.407 20.39C222.307 21.31 223.577 21.77 225.217 21.77C226.397 21.77 227.417 21.52 228.277 21.02C229.137 20.52 229.797 19.82 230.257 18.92C230.717 18 230.947 16.92 230.947 15.68V7.34H232.447V23H231.007V18.65L231.217 19.16C230.757 20.38 229.987 21.35 228.907 22.07C227.847 22.77 226.577 23.12 225.097 23.12ZM246.665 23.12C245.285 23.12 244.035 22.8 242.915 22.16C241.815 21.52 240.935 20.61 240.275 19.43C239.635 18.23 239.315 16.81 239.315 15.17C239.315 13.53 239.635 12.12 240.275 10.94C240.935 9.74 241.815 8.82 242.915 8.18C244.035 7.54 245.285 7.22 246.665 7.22C248.145 7.22 249.465 7.56 250.625 8.24C251.805 8.9 252.725 9.83 253.385 11.03C254.065 12.23 254.405 13.61 254.405 15.17C254.405 16.73 254.065 18.11 253.385 19.31C252.725 20.51 251.805 21.45 250.625 22.13C249.465 22.79 248.145 23.12 246.665 23.12ZM238.805 28.82V7.34H240.245V12.47L240.005 15.2L240.305 17.93V28.82H238.805ZM246.575 21.77C247.775 21.77 248.855 21.5 249.815 20.96C250.775 20.4 251.525 19.62 252.065 18.62C252.625 17.62 252.905 16.47 252.905 15.17C252.905 13.85 252.625 12.7 252.065 11.72C251.525 10.72 250.775 9.95 249.815 9.41C248.855 8.85 247.775 8.57 246.575 8.57C245.375 8.57 244.295 8.85 243.335 9.41C242.395 9.95 241.645 10.72 241.085 11.72C240.545 12.7 240.275 13.85 240.275 15.17C240.275 16.47 240.545 17.62 241.085 18.62C241.645 19.62 242.395 20.4 243.335 20.96C244.295 21.5 245.375 21.77 246.575 21.77ZM263.009 23.12C261.709 23.12 260.489 22.93 259.349 22.55C258.229 22.17 257.359 21.69 256.739 21.11L257.429 19.91C258.029 20.43 258.829 20.88 259.829 21.26C260.829 21.62 261.909 21.8 263.069 21.8C264.709 21.8 265.889 21.53 266.609 20.99C267.329 20.45 267.689 19.74 267.689 18.86C267.689 18.22 267.499 17.72 267.119 17.36C266.759 16.98 266.269 16.69 265.649 16.49C265.029 16.29 264.349 16.13 263.609 16.01C262.869 15.87 262.129 15.72 261.389 15.56C260.649 15.4 259.969 15.17 259.349 14.87C258.729 14.57 258.229 14.16 257.849 13.64C257.489 13.1 257.309 12.39 257.309 11.51C257.309 10.71 257.529 9.99 257.969 9.35C258.409 8.71 259.069 8.2 259.949 7.82C260.829 7.42 261.929 7.22 263.249 7.22C264.229 7.22 265.209 7.36 266.189 7.64C267.189 7.92 267.999 8.29 268.619 8.75L267.929 9.95C267.269 9.45 266.529 9.09 265.709 8.87C264.889 8.65 264.059 8.54 263.219 8.54C261.699 8.54 260.579 8.82 259.859 9.38C259.159 9.94 258.809 10.64 258.809 11.48C258.809 12.14 258.989 12.67 259.349 13.07C259.729 13.45 260.229 13.75 260.849 13.97C261.469 14.17 262.149 14.34 262.889 14.48C263.629 14.6 264.369 14.74 265.109 14.9C265.849 15.06 266.529 15.29 267.149 15.59C267.769 15.87 268.259 16.27 268.619 16.79C268.999 17.29 269.189 17.97 269.189 18.83C269.189 19.69 268.949 20.44 268.469 21.08C268.009 21.72 267.319 22.22 266.399 22.58C265.479 22.94 264.349 23.12 263.009 23.12ZM284.14 23L278.2 7.34H279.64L285.16 22.16H284.53L290.2 7.34H291.49L297.13 22.16H296.47L302.08 7.34H303.46L297.52 23H296.11L290.59 8.78H291.07L285.52 23H284.14ZM306.95 23V7.34H308.45V23H306.95ZM307.7 3.53C307.36 3.53 307.07 3.41 306.83 3.17C306.59 2.93 306.47 2.65 306.47 2.33C306.47 1.99 306.59 1.7 306.83 1.46C307.07 1.22 307.36 1.1 307.7 1.1C308.06 1.1 308.35 1.22 308.57 1.46C308.81 1.68 308.93 1.96 308.93 2.3C308.93 2.64 308.81 2.93 308.57 3.17C308.35 3.41 308.06 3.53 307.7 3.53ZM319.332 23.12C317.952 23.12 316.892 22.74 316.152 21.98C315.432 21.22 315.072 20.18 315.072 18.86V3.92H316.572V18.71C316.572 19.71 316.822 20.48 317.322 21.02C317.822 21.56 318.542 21.83 319.482 21.83C320.462 21.83 321.272 21.54 321.912 20.96L322.542 22.01C322.142 22.39 321.652 22.67 321.072 22.85C320.512 23.03 319.932 23.12 319.332 23.12ZM312.192 8.63V7.34H321.552V8.63H312.192ZM334.375 7.22C335.655 7.22 336.765 7.47 337.705 7.97C338.665 8.45 339.405 9.19 339.925 10.19C340.465 11.17 340.735 12.39 340.735 13.85V23H339.235V13.97C339.235 12.21 338.785 10.87 337.885 9.95C337.005 9.03 335.765 8.57 334.165 8.57C332.945 8.57 331.885 8.82 330.985 9.32C330.085 9.82 329.395 10.52 328.915 11.42C328.455 12.32 328.225 13.4 328.225 14.66V23H326.725V0.739999H328.225V11.69L327.955 11.21C328.435 9.97 329.225 9 330.325 8.3C331.425 7.58 332.775 7.22 334.375 7.22ZM354.616 23V7.34H356.116V23H354.616ZM355.366 3.53C355.026 3.53 354.736 3.41 354.496 3.17C354.256 2.93 354.136 2.65 354.136 2.33C354.136 1.99 354.256 1.7 354.496 1.46C354.736 1.22 355.026 1.1 355.366 1.1C355.726 1.1 356.016 1.22 356.236 1.46C356.476 1.68 356.596 1.96 356.596 2.3C356.596 2.64 356.476 2.93 356.236 3.17C356.016 3.41 355.726 3.53 355.366 3.53ZM370.088 7.22C371.368 7.22 372.478 7.47 373.418 7.97C374.378 8.45 375.118 9.19 375.638 10.19C376.178 11.17 376.448 12.39 376.448 13.85V23H374.948V13.97C374.948 12.21 374.498 10.87 373.598 9.95C372.718 9.03 371.478 8.57 369.878 8.57C368.658 8.57 367.598 8.82 366.698 9.32C365.798 9.82 365.108 10.52 364.628 11.42C364.168 12.32 363.938 13.4 363.938 14.66V23H362.438V7.34H363.878V11.69L363.668 11.21C364.148 9.97 364.938 9 366.038 8.3C367.138 7.58 368.488 7.22 370.088 7.22ZM388.653 23.12C387.193 23.12 385.873 22.79 384.693 22.13C383.533 21.45 382.613 20.51 381.933 19.31C381.253 18.11 380.913 16.73 380.913 15.17C380.913 13.59 381.253 12.21 381.933 11.03C382.613 9.83 383.533 8.9 384.693 8.24C385.873 7.56 387.193 7.22 388.653 7.22C390.033 7.22 391.273 7.54 392.373 8.18C393.493 8.82 394.373 9.73 395.013 10.91C395.673 12.09 396.003 13.51 396.003 15.17C396.003 16.79 395.683 18.2 395.043 19.4C394.403 20.6 393.523 21.52 392.403 22.16C391.303 22.8 390.053 23.12 388.653 23.12ZM388.743 21.77C389.943 21.77 391.013 21.5 391.953 20.96C392.913 20.4 393.663 19.62 394.203 18.62C394.763 17.62 395.043 16.47 395.043 15.17C395.043 13.85 394.763 12.7 394.203 11.72C393.663 10.72 392.913 9.95 391.953 9.41C391.013 8.85 389.943 8.57 388.743 8.57C387.543 8.57 386.463 8.85 385.503 9.41C384.563 9.95 383.813 10.72 383.253 11.72C382.713 12.7 382.443 13.85 382.443 15.17C382.443 16.47 382.713 17.62 383.253 18.62C383.813 19.62 384.563 20.4 385.503 20.96C386.463 21.5 387.543 21.77 388.743 21.77ZM395.073 23V17.87L395.343 15.14L395.043 12.41V0.739999H396.543V23H395.073ZM409.228 23.12C407.888 23.12 406.728 22.88 405.748 22.4C404.768 21.9 404.008 21.16 403.468 20.18C402.948 19.18 402.688 17.95 402.688 16.49V7.34H404.188V16.37C404.188 18.13 404.638 19.47 405.538 20.39C406.438 21.31 407.708 21.77 409.348 21.77C410.528 21.77 411.548 21.52 412.408 21.02C413.268 20.52 413.928 19.82 414.388 18.92C414.848 18 415.078 16.92 415.078 15.68V7.34H416.578V23H415.138V18.65L415.348 19.16C414.888 20.38 414.118 21.35 413.038 22.07C411.978 22.77 410.708 23.12 409.228 23.12ZM426.896 23.12C425.596 23.12 424.376 22.93 423.236 22.55C422.116 22.17 421.246 21.69 420.626 21.11L421.316 19.91C421.916 20.43 422.716 20.88 423.716 21.26C424.716 21.62 425.796 21.8 426.956 21.8C428.596 21.8 429.776 21.53 430.496 20.99C431.216 20.45 431.576 19.74 431.576 18.86C431.576 18.22 431.386 17.72 431.006 17.36C430.646 16.98 430.156 16.69 429.536 16.49C428.916 16.29 428.236 16.13 427.496 16.01C426.756 15.87 426.016 15.72 425.276 15.56C424.536 15.4 423.856 15.17 423.236 14.87C422.616 14.57 422.116 14.16 421.736 13.64C421.376 13.1 421.196 12.39 421.196 11.51C421.196 10.71 421.416 9.99 421.856 9.35C422.296 8.71 422.956 8.2 423.836 7.82C424.716 7.42 425.816 7.22 427.136 7.22C428.116 7.22 429.096 7.36 430.076 7.64C431.076 7.92 431.886 8.29 432.506 8.75L431.816 9.95C431.156 9.45 430.416 9.09 429.596 8.87C428.776 8.65 427.946 8.54 427.106 8.54C425.586 8.54 424.466 8.82 423.746 9.38C423.046 9.94 422.696 10.64 422.696 11.48C422.696 12.14 422.876 12.67 423.236 13.07C423.616 13.45 424.116 13.75 424.736 13.97C425.356 14.17 426.036 14.34 426.776 14.48C427.516 14.6 428.256 14.74 428.996 14.9C429.736 15.06 430.416 15.29 431.036 15.59C431.656 15.87 432.146 16.27 432.506 16.79C432.886 17.29 433.076 17.97 433.076 18.83C433.076 19.69 432.836 20.44 432.356 21.08C431.896 21.72 431.206 22.22 430.286 22.58C429.366 22.94 428.236 23.12 426.896 23.12ZM441.822 23.12C440.442 23.12 439.382 22.74 438.642 21.98C437.922 21.22 437.562 20.18 437.562 18.86V3.92H439.062V18.71C439.062 19.71 439.312 20.48 439.812 21.02C440.312 21.56 441.032 21.83 441.972 21.83C442.952 21.83 443.762 21.54 444.402 20.96L445.032 22.01C444.632 22.39 444.142 22.67 443.562 22.85C443.002 23.03 442.422 23.12 441.822 23.12ZM434.682 8.63V7.34H444.042V8.63H434.682ZM449.215 23V7.34H450.655V11.63L450.505 11.15C450.945 9.89 451.685 8.92 452.725 8.24C453.765 7.56 455.065 7.22 456.625 7.22V8.69C456.565 8.69 456.505 8.69 456.445 8.69C456.385 8.67 456.325 8.66 456.265 8.66C454.525 8.66 453.165 9.21 452.185 10.31C451.205 11.39 450.715 12.9 450.715 14.84V23H449.215ZM461.101 28.94C460.381 28.94 459.701 28.82 459.061 28.58C458.441 28.34 457.911 27.99 457.471 27.53L458.221 26.39C458.621 26.81 459.051 27.12 459.511 27.32C459.991 27.52 460.531 27.62 461.131 27.62C461.851 27.62 462.481 27.42 463.021 27.02C463.581 26.62 464.101 25.89 464.581 24.83L465.661 22.43L465.871 22.16L472.501 7.34H474.031L465.991 25.13C465.571 26.09 465.111 26.84 464.611 27.38C464.131 27.94 463.601 28.34 463.021 28.58C462.441 28.82 461.801 28.94 461.101 28.94ZM465.631 23.39L458.371 7.34H459.961L466.561 22.07L465.631 23.39ZM488.976 23.12C487.676 23.12 486.456 22.93 485.316 22.55C484.196 22.17 483.326 21.69 482.706 21.11L483.396 19.91C483.996 20.43 484.796 20.88 485.796 21.26C486.796 21.62 487.876 21.8 489.036 21.8C490.676 21.8 491.856 21.53 492.576 20.99C493.296 20.45 493.656 19.74 493.656 18.86C493.656 18.22 493.466 17.72 493.086 17.36C492.726 16.98 492.236 16.69 491.616 16.49C490.996 16.29 490.316 16.13 489.576 16.01C488.836 15.87 488.096 15.72 487.356 15.56C486.616 15.4 485.936 15.17 485.316 14.87C484.696 14.57 484.196 14.16 483.816 13.64C483.456 13.1 483.276 12.39 483.276 11.51C483.276 10.71 483.496 9.99 483.936 9.35C484.376 8.71 485.036 8.2 485.916 7.82C486.796 7.42 487.896 7.22 489.216 7.22C490.196 7.22 491.176 7.36 492.156 7.64C493.156 7.92 493.966 8.29 494.586 8.75L493.896 9.95C493.236 9.45 492.496 9.09 491.676 8.87C490.856 8.65 490.026 8.54 489.186 8.54C487.666 8.54 486.546 8.82 485.826 9.38C485.126 9.94 484.776 10.64 484.776 11.48C484.776 12.14 484.956 12.67 485.316 13.07C485.696 13.45 486.196 13.75 486.816 13.97C487.436 14.17 488.116 14.34 488.856 14.48C489.596 14.6 490.336 14.74 491.076 14.9C491.816 15.06 492.496 15.29 493.116 15.59C493.736 15.87 494.226 16.27 494.586 16.79C494.966 17.29 495.156 17.97 495.156 18.83C495.156 19.69 494.916 20.44 494.436 21.08C493.976 21.72 493.286 22.22 492.366 22.58C491.446 22.94 490.316 23.12 488.976 23.12ZM507.202 23.12C505.822 23.12 504.572 22.8 503.452 22.16C502.352 21.52 501.472 20.61 500.812 19.43C500.172 18.23 499.852 16.81 499.852 15.17C499.852 13.53 500.172 12.12 500.812 10.94C501.472 9.74 502.352 8.82 503.452 8.18C504.572 7.54 505.822 7.22 507.202 7.22C508.682 7.22 510.002 7.56 511.162 8.24C512.342 8.9 513.262 9.83 513.922 11.03C514.602 12.23 514.942 13.61 514.942 15.17C514.942 16.73 514.602 18.11 513.922 19.31C513.262 20.51 512.342 21.45 511.162 22.13C510.002 22.79 508.682 23.12 507.202 23.12ZM499.342 28.82V7.34H500.782V12.47L500.542 15.2L500.842 17.93V28.82H499.342ZM507.112 21.77C508.312 21.77 509.392 21.5 510.352 20.96C511.312 20.4 512.062 19.62 512.602 18.62C513.162 17.62 513.442 16.47 513.442 15.17C513.442 13.85 513.162 12.7 512.602 11.72C512.062 10.72 511.312 9.95 510.352 9.41C509.392 8.85 508.312 8.57 507.112 8.57C505.912 8.57 504.832 8.85 503.872 9.41C502.932 9.95 502.182 10.72 501.622 11.72C501.082 12.7 500.812 13.85 500.812 15.17C500.812 16.47 501.082 17.62 501.622 18.62C502.182 19.62 502.932 20.4 503.872 20.96C504.832 21.5 505.912 21.77 507.112 21.77ZM525.946 23.12C524.366 23.12 522.966 22.78 521.746 22.1C520.546 21.42 519.596 20.48 518.896 19.28C518.216 18.08 517.876 16.71 517.876 15.17C517.876 13.61 518.196 12.24 518.836 11.06C519.496 9.86 520.396 8.92 521.536 8.24C522.676 7.56 523.956 7.22 525.376 7.22C526.796 7.22 528.066 7.55 529.186 8.21C530.326 8.87 531.216 9.8 531.856 11C532.516 12.18 532.846 13.55 532.846 15.11C532.846 15.17 532.836 15.24 532.816 15.32C532.816 15.38 532.816 15.45 532.816 15.53H518.986V14.36H532.006L531.406 14.93C531.426 13.71 531.166 12.62 530.626 11.66C530.106 10.68 529.396 9.92 528.496 9.38C527.596 8.82 526.556 8.54 525.376 8.54C524.216 8.54 523.176 8.82 522.256 9.38C521.356 9.92 520.646 10.68 520.126 11.66C519.606 12.62 519.346 13.72 519.346 14.96V15.23C519.346 16.51 519.626 17.65 520.186 18.65C520.766 19.63 521.556 20.4 522.556 20.96C523.556 21.5 524.696 21.77 525.976 21.77C526.976 21.77 527.906 21.59 528.766 21.23C529.646 20.87 530.386 20.32 530.986 19.58L531.856 20.57C531.176 21.41 530.316 22.05 529.276 22.49C528.256 22.91 527.146 23.12 525.946 23.12ZM543.697 23.12C542.177 23.12 540.817 22.78 539.617 22.1C538.437 21.42 537.497 20.48 536.797 19.28C536.117 18.08 535.777 16.71 535.777 15.17C535.777 13.61 536.117 12.23 536.797 11.03C537.497 9.83 538.437 8.9 539.617 8.24C540.817 7.56 542.177 7.22 543.697 7.22C544.957 7.22 546.097 7.46 547.117 7.94C548.157 8.42 548.997 9.14 549.637 10.1L548.527 10.91C547.967 10.11 547.267 9.52 546.427 9.14C545.587 8.76 544.677 8.57 543.697 8.57C542.477 8.57 541.377 8.85 540.397 9.41C539.437 9.95 538.677 10.72 538.117 11.72C537.577 12.7 537.307 13.85 537.307 15.17C537.307 16.49 537.577 17.65 538.117 18.65C538.677 19.63 539.437 20.4 540.397 20.96C541.377 21.5 542.477 21.77 543.697 21.77C544.677 21.77 545.587 21.58 546.427 21.2C547.267 20.82 547.967 20.23 548.527 19.43L549.637 20.24C548.997 21.2 548.157 21.92 547.117 22.4C546.097 22.88 544.957 23.12 543.697 23.12ZM553.864 23V7.34H555.364V23H553.864ZM554.614 3.53C554.274 3.53 553.984 3.41 553.744 3.17C553.504 2.93 553.384 2.65 553.384 2.33C553.384 1.99 553.504 1.7 553.744 1.46C553.984 1.22 554.274 1.1 554.614 1.1C554.974 1.1 555.264 1.22 555.484 1.46C555.724 1.68 555.844 1.96 555.844 2.3C555.844 2.64 555.724 2.93 555.484 3.17C555.264 3.41 554.974 3.53 554.614 3.53ZM561.986 23V4.94C561.986 3.64 562.356 2.6 563.096 1.82C563.856 1.02 564.936 0.619998 566.336 0.619998C566.916 0.619998 567.486 0.709998 568.046 0.889999C568.606 1.05 569.066 1.3 569.426 1.64L568.826 2.78C568.526 2.48 568.166 2.26 567.746 2.12C567.326 1.98 566.876 1.91 566.396 1.91C565.436 1.91 564.706 2.18 564.206 2.72C563.706 3.24 563.456 4.02 563.456 5.06V7.7L563.486 8.42V23H561.986ZM559.106 8.63V7.34H568.466V8.63H559.106ZM571.526 23V7.34H573.026V23H571.526ZM572.276 3.53C571.936 3.53 571.646 3.41 571.406 3.17C571.166 2.93 571.046 2.65 571.046 2.33C571.046 1.99 571.166 1.7 571.406 1.46C571.646 1.22 571.936 1.1 572.276 1.1C572.636 1.1 572.926 1.22 573.146 1.46C573.386 1.68 573.506 1.96 573.506 2.3C573.506 2.64 573.386 2.93 573.146 3.17C572.926 3.41 572.636 3.53 572.276 3.53ZM585.562 23.12C584.042 23.12 582.682 22.78 581.482 22.1C580.302 21.42 579.362 20.48 578.662 19.28C577.982 18.08 577.642 16.71 577.642 15.17C577.642 13.61 577.982 12.23 578.662 11.03C579.362 9.83 580.302 8.9 581.482 8.24C582.682 7.56 584.042 7.22 585.562 7.22C586.822 7.22 587.962 7.46 588.982 7.94C590.022 8.42 590.862 9.14 591.502 10.1L590.392 10.91C589.832 10.11 589.132 9.52 588.292 9.14C587.452 8.76 586.542 8.57 585.562 8.57C584.342 8.57 583.242 8.85 582.262 9.41C581.302 9.95 580.542 10.72 579.982 11.72C579.442 12.7 579.172 13.85 579.172 15.17C579.172 16.49 579.442 17.65 579.982 18.65C580.542 19.63 581.302 20.4 582.262 20.96C583.242 21.5 584.342 21.77 585.562 21.77C586.542 21.77 587.452 21.58 588.292 21.2C589.132 20.82 589.832 20.23 590.392 19.43L591.502 20.24C590.862 21.2 590.022 21.92 588.982 22.4C587.962 22.88 586.822 23.12 585.562 23.12ZM609.728 23.12C608.268 23.12 606.948 22.79 605.768 22.13C604.608 21.45 603.688 20.51 603.008 19.31C602.328 18.11 601.988 16.73 601.988 15.17C601.988 13.59 602.328 12.21 603.008 11.03C603.688 9.83 604.608 8.9 605.768 8.24C606.948 7.56 608.268 7.22 609.728 7.22C611.108 7.22 612.348 7.54 613.448 8.18C614.568 8.82 615.448 9.73 616.088 10.91C616.748 12.09 617.078 13.51 617.078 15.17C617.078 16.79 616.758 18.2 616.118 19.4C615.478 20.6 614.598 21.52 613.478 22.16C612.378 22.8 611.128 23.12 609.728 23.12ZM609.818 21.77C611.018 21.77 612.088 21.5 613.028 20.96C613.988 20.4 614.738 19.62 615.278 18.62C615.838 17.62 616.118 16.47 616.118 15.17C616.118 13.85 615.838 12.7 615.278 11.72C614.738 10.72 613.988 9.95 613.028 9.41C612.088 8.85 611.018 8.57 609.818 8.57C608.618 8.57 607.538 8.85 606.578 9.41C605.638 9.95 604.888 10.72 604.328 11.72C603.788 12.7 603.518 13.85 603.518 15.17C603.518 16.47 603.788 17.62 604.328 18.62C604.888 19.62 605.638 20.4 606.578 20.96C607.538 21.5 608.618 21.77 609.818 21.77ZM616.148 23V17.87L616.418 15.14L616.118 12.41V0.739999H617.618V23H616.148ZM623.942 23V7.34H625.442V23H623.942ZM624.692 3.53C624.352 3.53 624.062 3.41 623.822 3.17C623.582 2.93 623.462 2.65 623.462 2.33C623.462 1.99 623.582 1.7 623.822 1.46C624.062 1.22 624.352 1.1 624.692 1.1C625.052 1.1 625.342 1.22 625.562 1.46C625.802 1.68 625.922 1.96 625.922 2.3C625.922 2.64 625.802 2.93 625.562 3.17C625.342 3.41 625.052 3.53 624.692 3.53ZM635.724 23.12C634.424 23.12 633.204 22.93 632.064 22.55C630.944 22.17 630.074 21.69 629.454 21.11L630.144 19.91C630.744 20.43 631.544 20.88 632.544 21.26C633.544 21.62 634.624 21.8 635.784 21.8C637.424 21.8 638.604 21.53 639.324 20.99C640.044 20.45 640.404 19.74 640.404 18.86C640.404 18.22 640.214 17.72 639.834 17.36C639.474 16.98 638.984 16.69 638.364 16.49C637.744 16.29 637.064 16.13 636.324 16.01C635.584 15.87 634.844 15.72 634.104 15.56C633.364 15.4 632.684 15.17 632.064 14.87C631.444 14.57 630.944 14.16 630.564 13.64C630.204 13.1 630.024 12.39 630.024 11.51C630.024 10.71 630.244 9.99 630.684 9.35C631.124 8.71 631.784 8.2 632.664 7.82C633.544 7.42 634.644 7.22 635.964 7.22C636.944 7.22 637.924 7.36 638.904 7.64C639.904 7.92 640.714 8.29 641.334 8.75L640.644 9.95C639.984 9.45 639.244 9.09 638.424 8.87C637.604 8.65 636.774 8.54 635.934 8.54C634.414 8.54 633.294 8.82 632.574 9.38C631.874 9.94 631.524 10.64 631.524 11.48C631.524 12.14 631.704 12.67 632.064 13.07C632.444 13.45 632.944 13.75 633.564 13.97C634.184 14.17 634.864 14.34 635.604 14.48C636.344 14.6 637.084 14.74 637.824 14.9C638.564 15.06 639.244 15.29 639.864 15.59C640.484 15.87 640.974 16.27 641.334 16.79C641.714 17.29 641.904 17.97 641.904 18.83C641.904 19.69 641.664 20.44 641.184 21.08C640.724 21.72 640.034 22.22 639.114 22.58C638.194 22.94 637.064 23.12 635.724 23.12ZM652.3 23.12C650.78 23.12 649.42 22.78 648.22 22.1C647.04 21.42 646.1 20.48 645.4 19.28C644.72 18.08 644.38 16.71 644.38 15.17C644.38 13.61 644.72 12.23 645.4 11.03C646.1 9.83 647.04 8.9 648.22 8.24C649.42 7.56 650.78 7.22 652.3 7.22C653.56 7.22 654.7 7.46 655.72 7.94C656.76 8.42 657.6 9.14 658.24 10.1L657.13 10.91C656.57 10.11 655.87 9.52 655.03 9.14C654.19 8.76 653.28 8.57 652.3 8.57C651.08 8.57 649.98 8.85 649 9.41C648.04 9.95 647.28 10.72 646.72 11.72C646.18 12.7 645.91 13.85 645.91 15.17C645.91 16.49 646.18 17.65 646.72 18.65C647.28 19.63 648.04 20.4 649 20.96C649.98 21.5 651.08 21.77 652.3 21.77C653.28 21.77 654.19 21.58 655.03 21.2C655.87 20.82 656.57 20.23 657.13 19.43L658.24 20.24C657.6 21.2 656.76 21.92 655.72 22.4C654.7 22.88 653.56 23.12 652.3 23.12ZM669.091 23.12C667.751 23.12 666.591 22.88 665.611 22.4C664.631 21.9 663.871 21.16 663.331 20.18C662.811 19.18 662.551 17.95 662.551 16.49V7.34H664.051V16.37C664.051 18.13 664.501 19.47 665.401 20.39C666.301 21.31 667.571 21.77 669.211 21.77C670.391 21.77 671.411 21.52 672.271 21.02C673.131 20.52 673.791 19.82 674.251 18.92C674.711 18 674.941 16.92 674.941 15.68V7.34H676.441V23H675.001V18.65L675.211 19.16C674.751 20.38 673.981 21.35 672.901 22.07C671.841 22.77 670.571 23.12 669.091 23.12ZM686.759 23.12C685.459 23.12 684.239 22.93 683.099 22.55C681.979 22.17 681.109 21.69 680.489 21.11L681.179 19.91C681.779 20.43 682.579 20.88 683.579 21.26C684.579 21.62 685.659 21.8 686.819 21.8C688.459 21.8 689.639 21.53 690.359 20.99C691.079 20.45 691.439 19.74 691.439 18.86C691.439 18.22 691.249 17.72 690.869 17.36C690.509 16.98 690.019 16.69 689.399 16.49C688.779 16.29 688.099 16.13 687.359 16.01C686.619 15.87 685.879 15.72 685.139 15.56C684.399 15.4 683.719 15.17 683.099 14.87C682.479 14.57 681.979 14.16 681.599 13.64C681.239 13.1 681.059 12.39 681.059 11.51C681.059 10.71 681.279 9.99 681.719 9.35C682.159 8.71 682.819 8.2 683.699 7.82C684.579 7.42 685.679 7.22 686.999 7.22C687.979 7.22 688.959 7.36 689.939 7.64C690.939 7.92 691.749 8.29 692.369 8.75L691.679 9.95C691.019 9.45 690.279 9.09 689.459 8.87C688.639 8.65 687.809 8.54 686.969 8.54C685.449 8.54 684.329 8.82 683.609 9.38C682.909 9.94 682.559 10.64 682.559 11.48C682.559 12.14 682.739 12.67 683.099 13.07C683.479 13.45 683.979 13.75 684.599 13.97C685.219 14.17 685.899 14.34 686.639 14.48C687.379 14.6 688.119 14.74 688.859 14.9C689.599 15.06 690.279 15.29 690.899 15.59C691.519 15.87 692.009 16.27 692.369 16.79C692.749 17.29 692.939 17.97 692.939 18.83C692.939 19.69 692.699 20.44 692.219 21.08C691.759 21.72 691.069 22.22 690.149 22.58C689.229 22.94 688.099 23.12 686.759 23.12ZM701.085 23.12C699.785 23.12 698.565 22.93 697.425 22.55C696.305 22.17 695.435 21.69 694.815 21.11L695.505 19.91C696.105 20.43 696.905 20.88 697.905 21.26C698.905 21.62 699.985 21.8 701.145 21.8C702.785 21.8 703.965 21.53 704.685 20.99C705.405 20.45 705.765 19.74 705.765 18.86C705.765 18.22 705.575 17.72 705.195 17.36C704.835 16.98 704.345 16.69 703.725 16.49C703.105 16.29 702.425 16.13 701.685 16.01C700.945 15.87 700.205 15.72 699.465 15.56C698.725 15.4 698.045 15.17 697.425 14.87C696.805 14.57 696.305 14.16 695.925 13.64C695.565 13.1 695.385 12.39 695.385 11.51C695.385 10.71 695.605 9.99 696.045 9.35C696.485 8.71 697.145 8.2 698.025 7.82C698.905 7.42 700.005 7.22 701.325 7.22C702.305 7.22 703.285 7.36 704.265 7.64C705.265 7.92 706.075 8.29 706.695 8.75L706.005 9.95C705.345 9.45 704.605 9.09 703.785 8.87C702.965 8.65 702.135 8.54 701.295 8.54C699.775 8.54 698.655 8.82 697.935 9.38C697.235 9.94 696.885 10.64 696.885 11.48C696.885 12.14 697.065 12.67 697.425 13.07C697.805 13.45 698.305 13.75 698.925 13.97C699.545 14.17 700.225 14.34 700.965 14.48C701.705 14.6 702.445 14.74 703.185 14.9C703.925 15.06 704.605 15.29 705.225 15.59C705.845 15.87 706.335 16.27 706.695 16.79C707.075 17.29 707.265 17.97 707.265 18.83C707.265 19.69 707.025 20.44 706.545 21.08C706.085 21.72 705.395 22.22 704.475 22.58C703.555 22.94 702.425 23.12 701.085 23.12ZM711.451 23V7.34H712.951V23H711.451ZM712.201 3.53C711.861 3.53 711.571 3.41 711.331 3.17C711.091 2.93 710.971 2.65 710.971 2.33C710.971 1.99 711.091 1.7 711.331 1.46C711.571 1.22 711.861 1.1 712.201 1.1C712.561 1.1 712.851 1.22 713.071 1.46C713.311 1.68 713.431 1.96 713.431 2.3C713.431 2.64 713.311 2.93 713.071 3.17C712.851 3.41 712.561 3.53 712.201 3.53ZM725.394 23.12C723.894 23.12 722.554 22.78 721.374 22.1C720.214 21.42 719.284 20.48 718.584 19.28C717.904 18.08 717.564 16.71 717.564 15.17C717.564 13.61 717.904 12.24 718.584 11.06C719.284 9.86 720.214 8.92 721.374 8.24C722.554 7.56 723.894 7.22 725.394 7.22C726.894 7.22 728.234 7.56 729.414 8.24C730.594 8.92 731.524 9.86 732.204 11.06C732.884 12.24 733.224 13.61 733.224 15.17C733.224 16.71 732.884 18.08 732.204 19.28C731.524 20.48 730.594 21.42 729.414 22.1C728.234 22.78 726.894 23.12 725.394 23.12ZM725.394 21.77C726.594 21.77 727.674 21.5 728.634 20.96C729.594 20.4 730.344 19.62 730.884 18.62C731.424 17.62 731.694 16.47 731.694 15.17C731.694 13.85 731.424 12.7 730.884 11.72C730.344 10.72 729.594 9.95 728.634 9.41C727.674 8.85 726.594 8.57 725.394 8.57C724.194 8.57 723.114 8.85 722.154 9.41C721.214 9.95 720.464 10.72 719.904 11.72C719.364 12.7 719.094 13.85 719.094 15.17C719.094 16.47 719.364 17.62 719.904 18.62C720.464 19.62 721.214 20.4 722.154 20.96C723.114 21.5 724.194 21.77 725.394 21.77ZM745.527 7.22C746.807 7.22 747.917 7.47 748.857 7.97C749.817 8.45 750.557 9.19 751.077 10.19C751.617 11.17 751.887 12.39 751.887 13.85V23H750.387V13.97C750.387 12.21 749.937 10.87 749.037 9.95C748.157 9.03 746.917 8.57 745.317 8.57C744.097 8.57 743.037 8.82 742.137 9.32C741.237 9.82 740.547 10.52 740.067 11.42C739.607 12.32 739.377 13.4 739.377 14.66V23H737.877V7.34H739.317V11.69L739.107 11.21C739.587 9.97 740.377 9 741.477 8.3C742.577 7.58 743.927 7.22 745.527 7.22ZM762.023 23.12C760.723 23.12 759.503 22.93 758.363 22.55C757.243 22.17 756.373 21.69 755.753 21.11L756.443 19.91C757.043 20.43 757.843 20.88 758.843 21.26C759.843 21.62 760.923 21.8 762.083 21.8C763.723 21.8 764.903 21.53 765.623 20.99C766.343 20.45 766.703 19.74 766.703 18.86C766.703 18.22 766.513 17.72 766.133 17.36C765.773 16.98 765.283 16.69 764.663 16.49C764.043 16.29 763.363 16.13 762.623 16.01C761.883 15.87 761.143 15.72 760.403 15.56C759.663 15.4 758.983 15.17 758.363 14.87C757.743 14.57 757.243 14.16 756.863 13.64C756.503 13.1 756.323 12.39 756.323 11.51C756.323 10.71 756.543 9.99 756.983 9.35C757.423 8.71 758.083 8.2 758.963 7.82C759.843 7.42 760.943 7.22 762.263 7.22C763.243 7.22 764.223 7.36 765.203 7.64C766.203 7.92 767.013 8.29 767.633 8.75L766.943 9.95C766.283 9.45 765.543 9.09 764.723 8.87C763.903 8.65 763.073 8.54 762.233 8.54C760.713 8.54 759.593 8.82 758.873 9.38C758.173 9.94 757.823 10.64 757.823 11.48C757.823 12.14 758.003 12.67 758.363 13.07C758.743 13.45 759.243 13.75 759.863 13.97C760.483 14.17 761.163 14.34 761.903 14.48C762.643 14.6 763.383 14.74 764.123 14.9C764.863 15.06 765.543 15.29 766.163 15.59C766.783 15.87 767.273 16.27 767.633 16.79C768.013 17.29 768.203 17.97 768.203 18.83C768.203 19.69 767.963 20.44 767.483 21.08C767.023 21.72 766.333 22.22 765.413 22.58C764.493 22.94 763.363 23.12 762.023 23.12ZM770.949 27.29L772.119 22.22L772.269 23.09C771.889 23.09 771.569 22.97 771.309 22.73C771.069 22.49 770.949 22.19 770.949 21.83C770.949 21.47 771.069 21.17 771.309 20.93C771.569 20.69 771.869 20.57 772.209 20.57C772.589 20.57 772.889 20.7 773.109 20.96C773.349 21.2 773.469 21.49 773.469 21.83C773.469 21.97 773.459 22.11 773.439 22.25C773.419 22.39 773.389 22.53 773.349 22.67C773.309 22.81 773.259 22.99 773.199 23.21L772.029 27.29H770.949ZM792.31 23.12C790.79 23.12 789.43 22.78 788.23 22.1C787.05 21.42 786.11 20.48 785.41 19.28C784.73 18.08 784.39 16.71 784.39 15.17C784.39 13.61 784.73 12.23 785.41 11.03C786.11 9.83 787.05 8.9 788.23 8.24C789.43 7.56 790.79 7.22 792.31 7.22C793.57 7.22 794.71 7.46 795.73 7.94C796.77 8.42 797.61 9.14 798.25 10.1L797.14 10.91C796.58 10.11 795.88 9.52 795.04 9.14C794.2 8.76 793.29 8.57 792.31 8.57C791.09 8.57 789.99 8.85 789.01 9.41C788.05 9.95 787.29 10.72 786.73 11.72C786.19 12.7 785.92 13.85 785.92 15.17C785.92 16.49 786.19 17.65 786.73 18.65C787.29 19.63 788.05 20.4 789.01 20.96C789.99 21.5 791.09 21.77 792.31 21.77C793.29 21.77 794.2 21.58 795.04 21.2C795.88 20.82 796.58 20.23 797.14 19.43L798.25 20.24C797.61 21.2 796.77 21.92 795.73 22.4C794.71 22.88 793.57 23.12 792.31 23.12ZM808.597 23.12C807.097 23.12 805.757 22.78 804.577 22.1C803.417 21.42 802.487 20.48 801.787 19.28C801.107 18.08 800.767 16.71 800.767 15.17C800.767 13.61 801.107 12.24 801.787 11.06C802.487 9.86 803.417 8.92 804.577 8.24C805.757 7.56 807.097 7.22 808.597 7.22C810.097 7.22 811.437 7.56 812.617 8.24C813.797 8.92 814.727 9.86 815.407 11.06C816.087 12.24 816.427 13.61 816.427 15.17C816.427 16.71 816.087 18.08 815.407 19.28C814.727 20.48 813.797 21.42 812.617 22.1C811.437 22.78 810.097 23.12 808.597 23.12ZM808.597 21.77C809.797 21.77 810.877 21.5 811.837 20.96C812.797 20.4 813.547 19.62 814.087 18.62C814.627 17.62 814.897 16.47 814.897 15.17C814.897 13.85 814.627 12.7 814.087 11.72C813.547 10.72 812.797 9.95 811.837 9.41C810.877 8.85 809.797 8.57 808.597 8.57C807.397 8.57 806.317 8.85 805.357 9.41C804.417 9.95 803.667 10.72 803.107 11.72C802.567 12.7 802.297 13.85 802.297 15.17C802.297 16.47 802.567 17.62 803.107 18.62C803.667 19.62 804.417 20.4 805.357 20.96C806.317 21.5 807.397 21.77 808.597 21.77ZM830.892 23V19.43L830.832 18.89V13.01C830.832 11.55 830.432 10.44 829.632 9.68C828.852 8.92 827.702 8.54 826.182 8.54C825.102 8.54 824.092 8.73 823.152 9.11C822.232 9.47 821.442 9.94 820.782 10.52L820.032 9.44C820.812 8.74 821.752 8.2 822.852 7.82C823.952 7.42 825.102 7.22 826.302 7.22C828.242 7.22 829.732 7.71 830.772 8.69C831.812 9.67 832.332 11.13 832.332 13.07V23H830.892ZM825.252 23.12C824.092 23.12 823.082 22.94 822.222 22.58C821.382 22.2 820.732 21.67 820.272 20.99C819.832 20.31 819.612 19.53 819.612 18.65C819.612 17.85 819.792 17.13 820.152 16.49C820.532 15.83 821.152 15.3 822.012 14.9C822.872 14.48 824.022 14.27 825.462 14.27H831.222V15.44H825.492C823.872 15.44 822.732 15.74 822.072 16.34C821.432 16.94 821.112 17.69 821.112 18.59C821.112 19.59 821.492 20.39 822.252 20.99C823.012 21.59 824.082 21.89 825.462 21.89C826.782 21.89 827.892 21.59 828.792 20.99C829.712 20.39 830.392 19.52 830.832 18.38L831.252 19.4C830.832 20.54 830.112 21.45 829.092 22.13C828.092 22.79 826.812 23.12 825.252 23.12ZM844.722 23.12C843.202 23.12 841.842 22.78 840.642 22.1C839.462 21.42 838.522 20.48 837.822 19.28C837.142 18.08 836.802 16.71 836.802 15.17C836.802 13.61 837.142 12.23 837.822 11.03C838.522 9.83 839.462 8.9 840.642 8.24C841.842 7.56 843.202 7.22 844.722 7.22C845.982 7.22 847.122 7.46 848.142 7.94C849.182 8.42 850.022 9.14 850.662 10.1L849.552 10.91C848.992 10.11 848.292 9.52 847.452 9.14C846.612 8.76 845.702 8.57 844.722 8.57C843.502 8.57 842.402 8.85 841.422 9.41C840.462 9.95 839.702 10.72 839.142 11.72C838.602 12.7 838.332 13.85 838.332 15.17C838.332 16.49 838.602 17.65 839.142 18.65C839.702 19.63 840.462 20.4 841.422 20.96C842.402 21.5 843.502 21.77 844.722 21.77C845.702 21.77 846.612 21.58 847.452 21.2C848.292 20.82 848.992 20.23 849.552 19.43L850.662 20.24C850.022 21.2 849.182 21.92 848.142 22.4C847.122 22.88 845.982 23.12 844.722 23.12ZM862.539 7.22C863.819 7.22 864.929 7.47 865.869 7.97C866.829 8.45 867.569 9.19 868.089 10.19C868.629 11.17 868.899 12.39 868.899 13.85V23H867.399V13.97C867.399 12.21 866.949 10.87 866.049 9.95C865.169 9.03 863.929 8.57 862.329 8.57C861.109 8.57 860.049 8.82 859.149 9.32C858.249 9.82 857.559 10.52 857.079 11.42C856.619 12.32 856.389 13.4 856.389 14.66V23H854.889V0.739999H856.389V11.69L856.119 11.21C856.599 9.97 857.389 9 858.489 8.3C859.589 7.58 860.939 7.22 862.539 7.22ZM875.075 23V7.34H876.575V23H875.075ZM875.825 3.53C875.485 3.53 875.195 3.41 874.955 3.17C874.715 2.93 874.595 2.65 874.595 2.33C874.595 1.99 874.715 1.7 874.955 1.46C875.195 1.22 875.485 1.1 875.825 1.1C876.185 1.1 876.475 1.22 876.695 1.46C876.935 1.68 877.055 1.96 877.055 2.3C877.055 2.64 876.935 2.93 876.695 3.17C876.475 3.41 876.185 3.53 875.825 3.53ZM890.547 7.22C891.827 7.22 892.937 7.47 893.877 7.97C894.837 8.45 895.577 9.19 896.097 10.19C896.637 11.17 896.907 12.39 896.907 13.85V23H895.407V13.97C895.407 12.21 894.957 10.87 894.057 9.95C893.177 9.03 891.937 8.57 890.337 8.57C889.117 8.57 888.057 8.82 887.157 9.32C886.257 9.82 885.567 10.52 885.087 11.42C884.627 12.32 884.397 13.4 884.397 14.66V23H882.897V7.34H884.337V11.69L884.127 11.21C884.607 9.97 885.397 9 886.497 8.3C887.597 7.58 888.947 7.22 890.547 7.22ZM909.592 28.94C908.172 28.94 906.822 28.72 905.542 28.28C904.262 27.84 903.222 27.23 902.422 26.45L903.232 25.31C904.012 26.03 904.942 26.59 906.022 26.99C907.122 27.39 908.302 27.59 909.562 27.59C911.662 27.59 913.202 27.1 914.182 26.12C915.182 25.14 915.682 23.6 915.682 21.5V17.15L915.982 14.81L915.742 12.47V7.34H917.182V21.32C917.182 23.94 916.542 25.86 915.262 27.08C914.002 28.32 912.112 28.94 909.592 28.94ZM909.172 22.43C907.692 22.43 906.362 22.11 905.182 21.47C904.022 20.81 903.092 19.91 902.392 18.77C901.712 17.61 901.372 16.29 901.372 14.81C901.372 13.31 901.712 11.99 902.392 10.85C903.092 9.71 904.022 8.82 905.182 8.18C906.362 7.54 907.692 7.22 909.172 7.22C910.592 7.22 911.862 7.53 912.982 8.15C914.122 8.75 915.022 9.62 915.682 10.76C916.342 11.88 916.672 13.23 916.672 14.81C916.672 16.37 916.342 17.72 915.682 18.86C915.022 20 914.122 20.88 912.982 21.5C911.862 22.12 910.592 22.43 909.172 22.43ZM909.292 21.08C910.552 21.08 911.662 20.82 912.622 20.3C913.582 19.76 914.332 19.02 914.872 18.08C915.432 17.12 915.712 16.03 915.712 14.81C915.712 13.57 915.432 12.48 914.872 11.54C914.332 10.6 913.582 9.87 912.622 9.35C911.662 8.83 910.552 8.57 909.292 8.57C908.072 8.57 906.972 8.83 905.992 9.35C905.032 9.87 904.272 10.6 903.712 11.54C903.172 12.48 902.902 13.57 902.902 14.81C902.902 16.03 903.172 17.12 903.712 18.08C904.272 19.02 905.032 19.76 905.992 20.3C906.972 20.82 908.072 21.08 909.292 21.08ZM922.092 27.29L923.262 22.22L923.412 23.09C923.032 23.09 922.712 22.97 922.452 22.73C922.212 22.49 922.092 22.19 922.092 21.83C922.092 21.47 922.212 21.17 922.452 20.93C922.712 20.69 923.012 20.57 923.352 20.57C923.732 20.57 924.032 20.7 924.252 20.96C924.492 21.2 924.612 21.49 924.612 21.83C924.612 21.97 924.602 22.11 924.582 22.25C924.562 22.39 924.532 22.53 924.492 22.67C924.452 22.81 924.402 22.99 924.342 23.21L923.172 27.29H922.092ZM947.113 23V19.43L947.053 18.89V13.01C947.053 11.55 946.653 10.44 945.853 9.68C945.073 8.92 943.923 8.54 942.403 8.54C941.323 8.54 940.313 8.73 939.373 9.11C938.453 9.47 937.663 9.94 937.003 10.52L936.253 9.44C937.033 8.74 937.973 8.2 939.073 7.82C940.173 7.42 941.323 7.22 942.523 7.22C944.463 7.22 945.953 7.71 946.993 8.69C948.033 9.67 948.553 11.13 948.553 13.07V23H947.113ZM941.473 23.12C940.313 23.12 939.303 22.94 938.443 22.58C937.603 22.2 936.953 21.67 936.493 20.99C936.053 20.31 935.833 19.53 935.833 18.65C935.833 17.85 936.013 17.13 936.373 16.49C936.753 15.83 937.373 15.3 938.233 14.9C939.093 14.48 940.243 14.27 941.683 14.27H947.443V15.44H941.713C940.093 15.44 938.953 15.74 938.293 16.34C937.653 16.94 937.333 17.69 937.333 18.59C937.333 19.59 937.713 20.39 938.472 20.99C939.233 21.59 940.303 21.89 941.683 21.89C943.003 21.89 944.113 21.59 945.013 20.99C945.933 20.39 946.613 19.52 947.053 18.38L947.473 19.4C947.053 20.54 946.333 21.45 945.313 22.13C944.313 22.79 943.033 23.12 941.473 23.12ZM962.383 7.22C963.663 7.22 964.773 7.47 965.713 7.97C966.673 8.45 967.413 9.19 967.933 10.19C968.473 11.17 968.743 12.39 968.743 13.85V23H967.243V13.97C967.243 12.21 966.793 10.87 965.893 9.95C965.013 9.03 963.773 8.57 962.173 8.57C960.953 8.57 959.893 8.82 958.993 9.32C958.093 9.82 957.403 10.52 956.923 11.42C956.463 12.32 956.233 13.4 956.233 14.66V23H954.733V7.34H956.173V11.69L955.963 11.21C956.443 9.97 957.233 9 958.333 8.3C959.433 7.58 960.783 7.22 962.383 7.22ZM980.948 23.12C979.488 23.12 978.168 22.79 976.988 22.13C975.828 21.45 974.908 20.51 974.228 19.31C973.548 18.11 973.208 16.73 973.208 15.17C973.208 13.59 973.548 12.21 974.228 11.03C974.908 9.83 975.828 8.9 976.988 8.24C978.168 7.56 979.488 7.22 980.948 7.22C982.328 7.22 983.568 7.54 984.668 8.18C985.788 8.82 986.668 9.73 987.308 10.91C987.968 12.09 988.298 13.51 988.298 15.17C988.298 16.79 987.978 18.2 987.338 19.4C986.698 20.6 985.818 21.52 984.698 22.16C983.598 22.8 982.348 23.12 980.948 23.12ZM981.038 21.77C982.238 21.77 983.308 21.5 984.248 20.96C985.208 20.4 985.958 19.62 986.498 18.62C987.058 17.62 987.338 16.47 987.338 15.17C987.338 13.85 987.058 12.7 986.498 11.72C985.958 10.72 985.208 9.95 984.248 9.41C983.308 8.85 982.238 8.57 981.038 8.57C979.838 8.57 978.758 8.85 977.798 9.41C976.858 9.95 976.108 10.72 975.548 11.72C975.008 12.7 974.738 13.85 974.738 15.17C974.738 16.47 975.008 17.62 975.548 18.62C976.108 19.62 976.858 20.4 977.798 20.96C978.758 21.5 979.838 21.77 981.038 21.77ZM987.368 23V17.87L987.638 15.14L987.338 12.41V0.739999H988.838V23H987.368ZM1010.52 7.22C1011.8 7.22 1012.91 7.47 1013.85 7.97C1014.81 8.45 1015.55 9.19 1016.07 10.19C1016.61 11.17 1016.88 12.39 1016.88 13.85V23H1015.38V13.97C1015.38 12.21 1014.93 10.87 1014.03 9.95C1013.15 9.03 1011.91 8.57 1010.31 8.57C1009.09 8.57 1008.03 8.82 1007.13 9.32C1006.23 9.82 1005.54 10.52 1005.06 11.42C1004.6 12.32 1004.37 13.4 1004.37 14.66V23H1002.87V7.34H1004.31V11.69L1004.1 11.21C1004.58 9.97 1005.37 9 1006.47 8.3C1007.57 7.58 1008.92 7.22 1010.52 7.22ZM1029.41 23.12C1027.83 23.12 1026.43 22.78 1025.21 22.1C1024.01 21.42 1023.06 20.48 1022.36 19.28C1021.68 18.08 1021.34 16.71 1021.34 15.17C1021.34 13.61 1021.66 12.24 1022.3 11.06C1022.96 9.86 1023.86 8.92 1025 8.24C1026.14 7.56 1027.42 7.22 1028.84 7.22C1030.26 7.22 1031.53 7.55 1032.65 8.21C1033.79 8.87 1034.68 9.8 1035.32 11C1035.98 12.18 1036.31 13.55 1036.31 15.11C1036.31 15.17 1036.3 15.24 1036.28 15.32C1036.28 15.38 1036.28 15.45 1036.28 15.53H1022.45V14.36H1035.47L1034.87 14.93C1034.89 13.71 1034.63 12.62 1034.09 11.66C1033.57 10.68 1032.86 9.92 1031.96 9.38C1031.06 8.82 1030.02 8.54 1028.84 8.54C1027.68 8.54 1026.64 8.82 1025.72 9.38C1024.82 9.92 1024.11 10.68 1023.59 11.66C1023.07 12.62 1022.81 13.72 1022.81 14.96V15.23C1022.81 16.51 1023.09 17.65 1023.65 18.65C1024.23 19.63 1025.02 20.4 1026.02 20.96C1027.02 21.5 1028.16 21.77 1029.44 21.77C1030.44 21.77 1031.37 21.59 1032.23 21.23C1033.11 20.87 1033.85 20.32 1034.45 19.58L1035.32 20.57C1034.64 21.41 1033.78 22.05 1032.74 22.49C1031.72 22.91 1030.61 23.12 1029.41 23.12ZM1045.51 23.12C1044.13 23.12 1043.07 22.74 1042.33 21.98C1041.61 21.22 1041.25 20.18 1041.25 18.86V3.92H1042.75V18.71C1042.75 19.71 1043 20.48 1043.5 21.02C1044 21.56 1044.72 21.83 1045.66 21.83C1046.64 21.83 1047.45 21.54 1048.09 20.96L1048.72 22.01C1048.32 22.39 1047.83 22.67 1047.25 22.85C1046.69 23.03 1046.11 23.12 1045.51 23.12ZM1038.37 8.63V7.34H1047.73V8.63H1038.37ZM1055.67 23L1049.73 7.34H1051.17L1056.69 22.16H1056.06L1061.73 7.34H1063.02L1068.66 22.16H1068L1073.61 7.34H1074.99L1069.05 23H1067.64L1062.12 8.78H1062.6L1057.05 23H1055.67ZM1084.16 23.12C1082.66 23.12 1081.32 22.78 1080.14 22.1C1078.98 21.42 1078.05 20.48 1077.35 19.28C1076.67 18.08 1076.33 16.71 1076.33 15.17C1076.33 13.61 1076.67 12.24 1077.35 11.06C1078.05 9.86 1078.98 8.92 1080.14 8.24C1081.32 7.56 1082.66 7.22 1084.16 7.22C1085.66 7.22 1087 7.56 1088.18 8.24C1089.36 8.92 1090.29 9.86 1090.97 11.06C1091.65 12.24 1091.99 13.61 1091.99 15.17C1091.99 16.71 1091.65 18.08 1090.97 19.28C1090.29 20.48 1089.36 21.42 1088.18 22.1C1087 22.78 1085.66 23.12 1084.16 23.12ZM1084.16 21.77C1085.36 21.77 1086.44 21.5 1087.4 20.96C1088.36 20.4 1089.11 19.62 1089.65 18.62C1090.19 17.62 1090.46 16.47 1090.46 15.17C1090.46 13.85 1090.19 12.7 1089.65 11.72C1089.11 10.72 1088.36 9.95 1087.4 9.41C1086.44 8.85 1085.36 8.57 1084.16 8.57C1082.96 8.57 1081.88 8.85 1080.92 9.41C1079.98 9.95 1079.23 10.72 1078.67 11.72C1078.13 12.7 1077.86 13.85 1077.86 15.17C1077.86 16.47 1078.13 17.62 1078.67 18.62C1079.23 19.62 1079.98 20.4 1080.92 20.96C1081.88 21.5 1082.96 21.77 1084.16 21.77ZM1096.65 23V7.34H1098.09V11.63L1097.94 11.15C1098.38 9.89 1099.12 8.92 1100.16 8.24C1101.2 7.56 1102.5 7.22 1104.06 7.22V8.69C1104 8.69 1103.94 8.69 1103.88 8.69C1103.82 8.67 1103.76 8.66 1103.7 8.66C1101.96 8.66 1100.6 9.21 1099.62 10.31C1098.64 11.39 1098.15 12.9 1098.15 14.84V23H1096.65ZM1109.33 18.68L1109.36 16.79L1119.71 7.34H1121.63L1114.76 13.79L1113.86 14.54L1109.33 18.68ZM1108.19 23V0.739999H1109.69V23H1108.19ZM1120.43 23L1113.59 14.42L1114.61 13.31L1122.29 23H1120.43ZM1125.83 23V7.34H1127.33V23H1125.83ZM1126.58 3.53C1126.24 3.53 1125.95 3.41 1125.71 3.17C1125.47 2.93 1125.35 2.65 1125.35 2.33C1125.35 1.99 1125.47 1.7 1125.71 1.46C1125.95 1.22 1126.24 1.1 1126.58 1.1C1126.94 1.1 1127.23 1.22 1127.45 1.46C1127.69 1.68 1127.81 1.96 1127.81 2.3C1127.81 2.64 1127.69 2.93 1127.45 3.17C1127.23 3.41 1126.94 3.53 1126.58 3.53ZM1141.3 7.22C1142.58 7.22 1143.69 7.47 1144.63 7.97C1145.59 8.45 1146.33 9.19 1146.85 10.19C1147.39 11.17 1147.66 12.39 1147.66 13.85V23H1146.16V13.97C1146.16 12.21 1145.71 10.87 1144.81 9.95C1143.93 9.03 1142.69 8.57 1141.09 8.57C1139.87 8.57 1138.81 8.82 1137.91 9.32C1137.01 9.82 1136.32 10.52 1135.84 11.42C1135.38 12.32 1135.15 13.4 1135.15 14.66V23H1133.65V7.34H1135.09V11.69L1134.88 11.21C1135.36 9.97 1136.15 9 1137.25 8.3C1138.35 7.58 1139.7 7.22 1141.3 7.22ZM1160.34 28.94C1158.92 28.94 1157.57 28.72 1156.29 28.28C1155.01 27.84 1153.97 27.23 1153.17 26.45L1153.98 25.31C1154.76 26.03 1155.69 26.59 1156.77 26.99C1157.87 27.39 1159.05 27.59 1160.31 27.59C1162.41 27.59 1163.95 27.1 1164.93 26.12C1165.93 25.14 1166.43 23.6 1166.43 21.5V17.15L1166.73 14.81L1166.49 12.47V7.34H1167.93V21.32C1167.93 23.94 1167.29 25.86 1166.01 27.08C1164.75 28.32 1162.86 28.94 1160.34 28.94ZM1159.92 22.43C1158.44 22.43 1157.11 22.11 1155.93 21.47C1154.77 20.81 1153.84 19.91 1153.14 18.77C1152.46 17.61 1152.12 16.29 1152.12 14.81C1152.12 13.31 1152.46 11.99 1153.14 10.85C1153.84 9.71 1154.77 8.82 1155.93 8.18C1157.11 7.54 1158.44 7.22 1159.92 7.22C1161.34 7.22 1162.61 7.53 1163.73 8.15C1164.87 8.75 1165.77 9.62 1166.43 10.76C1167.09 11.88 1167.42 13.23 1167.42 14.81C1167.42 16.37 1167.09 17.72 1166.43 18.86C1165.77 20 1164.87 20.88 1163.73 21.5C1162.61 22.12 1161.34 22.43 1159.92 22.43ZM1160.04 21.08C1161.3 21.08 1162.41 20.82 1163.37 20.3C1164.33 19.76 1165.08 19.02 1165.62 18.08C1166.18 17.12 1166.46 16.03 1166.46 14.81C1166.46 13.57 1166.18 12.48 1165.62 11.54C1165.08 10.6 1164.33 9.87 1163.37 9.35C1162.41 8.83 1161.3 8.57 1160.04 8.57C1158.82 8.57 1157.72 8.83 1156.74 9.35C1155.78 9.87 1155.02 10.6 1154.46 11.54C1153.92 12.48 1153.65 13.57 1153.65 14.81C1153.65 16.03 1153.92 17.12 1154.46 18.08C1155.02 19.02 1155.78 19.76 1156.74 20.3C1157.72 20.82 1158.82 21.08 1160.04 21.08ZM1188.11 23.12C1186.61 23.12 1185.27 22.78 1184.09 22.1C1182.93 21.42 1182 20.48 1181.3 19.28C1180.62 18.08 1180.28 16.71 1180.28 15.17C1180.28 13.61 1180.62 12.24 1181.3 11.06C1182 9.86 1182.93 8.92 1184.09 8.24C1185.27 7.56 1186.61 7.22 1188.11 7.22C1189.61 7.22 1190.95 7.56 1192.13 8.24C1193.31 8.92 1194.24 9.86 1194.92 11.06C1195.6 12.24 1195.94 13.61 1195.94 15.17C1195.94 16.71 1195.6 18.08 1194.92 19.28C1194.24 20.48 1193.31 21.42 1192.13 22.1C1190.95 22.78 1189.61 23.12 1188.11 23.12ZM1188.11 21.77C1189.31 21.77 1190.39 21.5 1191.35 20.96C1192.31 20.4 1193.06 19.62 1193.6 18.62C1194.14 17.62 1194.41 16.47 1194.41 15.17C1194.41 13.85 1194.14 12.7 1193.6 11.72C1193.06 10.72 1192.31 9.95 1191.35 9.41C1190.39 8.85 1189.31 8.57 1188.11 8.57C1186.91 8.57 1185.83 8.85 1184.87 9.41C1183.93 9.95 1183.18 10.72 1182.62 11.72C1182.08 12.7 1181.81 13.85 1181.81 15.17C1181.81 16.47 1182.08 17.62 1182.62 18.62C1183.18 19.62 1183.93 20.4 1184.87 20.96C1185.83 21.5 1186.91 21.77 1188.11 21.77ZM1208.45 23.12C1207.07 23.12 1205.82 22.8 1204.7 22.16C1203.6 21.52 1202.72 20.61 1202.06 19.43C1201.42 18.23 1201.1 16.81 1201.1 15.17C1201.1 13.53 1201.42 12.12 1202.06 10.94C1202.72 9.74 1203.6 8.82 1204.7 8.18C1205.82 7.54 1207.07 7.22 1208.45 7.22C1209.93 7.22 1211.25 7.56 1212.41 8.24C1213.59 8.9 1214.51 9.83 1215.17 11.03C1215.85 12.23 1216.19 13.61 1216.19 15.17C1216.19 16.73 1215.85 18.11 1215.17 19.31C1214.51 20.51 1213.59 21.45 1212.41 22.13C1211.25 22.79 1209.93 23.12 1208.45 23.12ZM1200.59 28.82V7.34H1202.03V12.47L1201.79 15.2L1202.09 17.93V28.82H1200.59ZM1208.36 21.77C1209.56 21.77 1210.64 21.5 1211.6 20.96C1212.56 20.4 1213.31 19.62 1213.85 18.62C1214.41 17.62 1214.69 16.47 1214.69 15.17C1214.69 13.85 1214.41 12.7 1213.85 11.72C1213.31 10.72 1212.56 9.95 1211.6 9.41C1210.64 8.85 1209.56 8.57 1208.36 8.57C1207.16 8.57 1206.08 8.85 1205.12 9.41C1204.18 9.95 1203.43 10.72 1202.87 11.72C1202.33 12.7 1202.06 13.85 1202.06 15.17C1202.06 16.47 1202.33 17.62 1202.87 18.62C1203.43 19.62 1204.18 20.4 1205.12 20.96C1206.08 21.5 1207.16 21.77 1208.36 21.77ZM1228.7 23.12C1227.32 23.12 1226.07 22.8 1224.95 22.16C1223.85 21.52 1222.97 20.61 1222.31 19.43C1221.67 18.23 1221.35 16.81 1221.35 15.17C1221.35 13.53 1221.67 12.12 1222.31 10.94C1222.97 9.74 1223.85 8.82 1224.95 8.18C1226.07 7.54 1227.32 7.22 1228.7 7.22C1230.18 7.22 1231.5 7.56 1232.66 8.24C1233.84 8.9 1234.76 9.83 1235.42 11.03C1236.1 12.23 1236.44 13.61 1236.44 15.17C1236.44 16.73 1236.1 18.11 1235.42 19.31C1234.76 20.51 1233.84 21.45 1232.66 22.13C1231.5 22.79 1230.18 23.12 1228.7 23.12ZM1220.84 28.82V7.34H1222.28V12.47L1222.04 15.2L1222.34 17.93V28.82H1220.84ZM1228.61 21.77C1229.81 21.77 1230.89 21.5 1231.85 20.96C1232.81 20.4 1233.56 19.62 1234.1 18.62C1234.66 17.62 1234.94 16.47 1234.94 15.17C1234.94 13.85 1234.66 12.7 1234.1 11.72C1233.56 10.72 1232.81 9.95 1231.85 9.41C1230.89 8.85 1229.81 8.57 1228.61 8.57C1227.41 8.57 1226.33 8.85 1225.37 9.41C1224.43 9.95 1223.68 10.72 1223.12 11.72C1222.58 12.7 1222.31 13.85 1222.31 15.17C1222.31 16.47 1222.58 17.62 1223.12 18.62C1223.68 19.62 1224.43 20.4 1225.37 20.96C1226.33 21.5 1227.41 21.77 1228.61 21.77ZM1247.2 23.12C1245.7 23.12 1244.36 22.78 1243.18 22.1C1242.02 21.42 1241.09 20.48 1240.39 19.28C1239.71 18.08 1239.37 16.71 1239.37 15.17C1239.37 13.61 1239.71 12.24 1240.39 11.06C1241.09 9.86 1242.02 8.92 1243.18 8.24C1244.36 7.56 1245.7 7.22 1247.2 7.22C1248.7 7.22 1250.04 7.56 1251.22 8.24C1252.4 8.92 1253.33 9.86 1254.01 11.06C1254.69 12.24 1255.03 13.61 1255.03 15.17C1255.03 16.71 1254.69 18.08 1254.01 19.28C1253.33 20.48 1252.4 21.42 1251.22 22.1C1250.04 22.78 1248.7 23.12 1247.2 23.12ZM1247.2 21.77C1248.4 21.77 1249.48 21.5 1250.44 20.96C1251.4 20.4 1252.15 19.62 1252.69 18.62C1253.23 17.62 1253.5 16.47 1253.5 15.17C1253.5 13.85 1253.23 12.7 1252.69 11.72C1252.15 10.72 1251.4 9.95 1250.44 9.41C1249.48 8.85 1248.4 8.57 1247.2 8.57C1246 8.57 1244.92 8.85 1243.96 9.41C1243.02 9.95 1242.27 10.72 1241.71 11.72C1241.17 12.7 1240.9 13.85 1240.9 15.17C1240.9 16.47 1241.17 17.62 1241.71 18.62C1242.27 19.62 1243.02 20.4 1243.96 20.96C1244.92 21.5 1246 21.77 1247.2 21.77ZM1259.68 23V7.34H1261.12V11.63L1260.97 11.15C1261.41 9.89 1262.15 8.92 1263.19 8.24C1264.23 7.56 1265.53 7.22 1267.09 7.22V8.69C1267.03 8.69 1266.97 8.69 1266.91 8.69C1266.85 8.67 1266.79 8.66 1266.73 8.66C1264.99 8.66 1263.63 9.21 1262.65 10.31C1261.67 11.39 1261.18 12.9 1261.18 14.84V23H1259.68ZM1276.49 23.12C1275.11 23.12 1274.05 22.74 1273.31 21.98C1272.59 21.22 1272.23 20.18 1272.23 18.86V3.92H1273.73V18.71C1273.73 19.71 1273.98 20.48 1274.48 21.02C1274.98 21.56 1275.7 21.83 1276.64 21.83C1277.62 21.83 1278.43 21.54 1279.07 20.96L1279.7 22.01C1279.3 22.39 1278.81 22.67 1278.23 22.85C1277.67 23.03 1277.09 23.12 1276.49 23.12ZM1269.35 8.63V7.34H1278.71V8.63H1269.35ZM1290.24 23.12C1288.9 23.12 1287.74 22.88 1286.76 22.4C1285.78 21.9 1285.02 21.16 1284.48 20.18C1283.96 19.18 1283.7 17.95 1283.7 16.49V7.34H1285.2V16.37C1285.2 18.13 1285.65 19.47 1286.55 20.39C1287.45 21.31 1288.72 21.77 1290.36 21.77C1291.54 21.77 1292.56 21.52 1293.42 21.02C1294.28 20.52 1294.94 19.82 1295.4 18.92C1295.86 18 1296.09 16.92 1296.09 15.68V7.34H1297.59V23H1296.15V18.65L1296.36 19.16C1295.9 20.38 1295.13 21.35 1294.05 22.07C1292.99 22.77 1291.72 23.12 1290.24 23.12ZM1311.6 7.22C1312.88 7.22 1313.99 7.47 1314.93 7.97C1315.89 8.45 1316.63 9.19 1317.15 10.19C1317.69 11.17 1317.96 12.39 1317.96 13.85V23H1316.46V13.97C1316.46 12.21 1316.01 10.87 1315.11 9.95C1314.23 9.03 1312.99 8.57 1311.39 8.57C1310.17 8.57 1309.11 8.82 1308.21 9.32C1307.31 9.82 1306.62 10.52 1306.14 11.42C1305.68 12.32 1305.45 13.4 1305.45 14.66V23H1303.95V7.34H1305.39V11.69L1305.18 11.21C1305.66 9.97 1306.45 9 1307.55 8.3C1308.65 7.58 1310 7.22 1311.6 7.22ZM1324.14 23V7.34H1325.64V23H1324.14ZM1324.89 3.53C1324.55 3.53 1324.26 3.41 1324.02 3.17C1323.78 2.93 1323.66 2.65 1323.66 2.33C1323.66 1.99 1323.78 1.7 1324.02 1.46C1324.26 1.22 1324.55 1.1 1324.89 1.1C1325.25 1.1 1325.54 1.22 1325.76 1.46C1326 1.68 1326.12 1.96 1326.12 2.3C1326.12 2.64 1326 2.93 1325.76 3.17C1325.54 3.41 1325.25 3.53 1324.89 3.53ZM1336.52 23.12C1335.14 23.12 1334.08 22.74 1333.34 21.98C1332.62 21.22 1332.26 20.18 1332.26 18.86V3.92H1333.76V18.71C1333.76 19.71 1334.01 20.48 1334.51 21.02C1335.01 21.56 1335.73 21.83 1336.67 21.83C1337.65 21.83 1338.46 21.54 1339.1 20.96L1339.73 22.01C1339.33 22.39 1338.84 22.67 1338.26 22.85C1337.7 23.03 1337.12 23.12 1336.52 23.12ZM1329.38 8.63V7.34H1338.74V8.63H1329.38ZM1343.91 23V7.34H1345.41V23H1343.91ZM1344.66 3.53C1344.32 3.53 1344.03 3.41 1343.79 3.17C1343.55 2.93 1343.43 2.65 1343.43 2.33C1343.43 1.99 1343.55 1.7 1343.79 1.46C1344.03 1.22 1344.32 1.1 1344.66 1.1C1345.02 1.1 1345.31 1.22 1345.53 1.46C1345.77 1.68 1345.89 1.96 1345.89 2.3C1345.89 2.64 1345.77 2.93 1345.53 3.17C1345.31 3.41 1345.02 3.53 1344.66 3.53ZM1358.09 23.12C1356.51 23.12 1355.11 22.78 1353.89 22.1C1352.69 21.42 1351.74 20.48 1351.04 19.28C1350.36 18.08 1350.02 16.71 1350.02 15.17C1350.02 13.61 1350.34 12.24 1350.98 11.06C1351.64 9.86 1352.54 8.92 1353.68 8.24C1354.82 7.56 1356.1 7.22 1357.52 7.22C1358.94 7.22 1360.21 7.55 1361.33 8.21C1362.47 8.87 1363.36 9.8 1364 11C1364.66 12.18 1364.99 13.55 1364.99 15.11C1364.99 15.17 1364.98 15.24 1364.96 15.32C1364.96 15.38 1364.96 15.45 1364.96 15.53H1351.13V14.36H1364.15L1363.55 14.93C1363.57 13.71 1363.31 12.62 1362.77 11.66C1362.25 10.68 1361.54 9.92 1360.64 9.38C1359.74 8.82 1358.7 8.54 1357.52 8.54C1356.36 8.54 1355.32 8.82 1354.4 9.38C1353.5 9.92 1352.79 10.68 1352.27 11.66C1351.75 12.62 1351.49 13.72 1351.49 14.96V15.23C1351.49 16.51 1351.77 17.65 1352.33 18.65C1352.91 19.63 1353.7 20.4 1354.7 20.96C1355.7 21.5 1356.84 21.77 1358.12 21.77C1359.12 21.77 1360.05 21.59 1360.91 21.23C1361.79 20.87 1362.53 20.32 1363.13 19.58L1364 20.57C1363.32 21.41 1362.46 22.05 1361.42 22.49C1360.4 22.91 1359.29 23.12 1358.09 23.12ZM1373.6 23.12C1372.3 23.12 1371.08 22.93 1369.94 22.55C1368.82 22.17 1367.95 21.69 1367.33 21.11L1368.02 19.91C1368.62 20.43 1369.42 20.88 1370.42 21.26C1371.42 21.62 1372.5 21.8 1373.66 21.8C1375.3 21.8 1376.48 21.53 1377.2 20.99C1377.92 20.45 1378.28 19.74 1378.28 18.86C1378.28 18.22 1378.09 17.72 1377.71 17.36C1377.35 16.98 1376.86 16.69 1376.24 16.49C1375.62 16.29 1374.94 16.13 1374.2 16.01C1373.46 15.87 1372.72 15.72 1371.98 15.56C1371.24 15.4 1370.56 15.17 1369.94 14.87C1369.32 14.57 1368.82 14.16 1368.44 13.64C1368.08 13.1 1367.9 12.39 1367.9 11.51C1367.9 10.71 1368.12 9.99 1368.56 9.35C1369 8.71 1369.66 8.2 1370.54 7.82C1371.42 7.42 1372.52 7.22 1373.84 7.22C1374.82 7.22 1375.8 7.36 1376.78 7.64C1377.78 7.92 1378.59 8.29 1379.21 8.75L1378.52 9.95C1377.86 9.45 1377.12 9.09 1376.3 8.87C1375.48 8.65 1374.65 8.54 1373.81 8.54C1372.29 8.54 1371.17 8.82 1370.45 9.38C1369.75 9.94 1369.4 10.64 1369.4 11.48C1369.4 12.14 1369.58 12.67 1369.94 13.07C1370.32 13.45 1370.82 13.75 1371.44 13.97C1372.06 14.17 1372.74 14.34 1373.48 14.48C1374.22 14.6 1374.96 14.74 1375.7 14.9C1376.44 15.06 1377.12 15.29 1377.74 15.59C1378.36 15.87 1378.85 16.27 1379.21 16.79C1379.59 17.29 1379.78 17.97 1379.78 18.83C1379.78 19.69 1379.54 20.44 1379.06 21.08C1378.6 21.72 1377.91 22.22 1376.99 22.58C1376.07 22.94 1374.94 23.12 1373.6 23.12Z" fill="black"/>
</svg>
