<svg width="1515" height="292" viewBox="0 0 1515 292" fill="none" xmlns="http://www.w3.org/2000/svg">
<path d="M33.6 128.6L32.48 103.96L91.2 43H114.56L65.76 94.84L54.24 107.48L33.6 128.6ZM15.04 155V43H35.84V155H15.04ZM93.12 155L50.24 103.96L64 88.76L117.44 155H93.12ZM119.738 118.84V102.2H163.738V118.84H119.738ZM187.54 155V43H236.5C248.66 43 259.327 45.3467 268.5 50.04C277.673 54.7333 284.82 61.24 289.94 69.56C295.06 77.88 297.62 87.6933 297.62 99C297.62 110.2 295.06 120.013 289.94 128.44C284.82 136.76 277.673 143.267 268.5 147.96C259.327 152.653 248.66 155 236.5 155H187.54ZM208.34 137.4H235.54C243.967 137.4 251.22 135.8 257.3 132.6C263.487 129.4 268.233 124.92 271.54 119.16C274.953 113.4 276.66 106.68 276.66 99C276.66 91.2133 274.953 84.4933 271.54 78.84C268.233 73.08 263.487 68.6 257.3 65.4C251.22 62.2 243.967 60.6 235.54 60.6H208.34V137.4ZM370.448 155V137.72L369.328 134.04V103.8C369.328 97.9333 367.568 93.4 364.048 90.2C360.528 86.8933 355.194 85.24 348.048 85.24C343.248 85.24 338.501 85.9867 333.808 87.48C329.221 88.9733 325.328 91.0533 322.128 93.72L314.288 79.16C318.874 75.64 324.314 73.0267 330.608 71.32C337.008 69.5067 343.621 68.6 350.448 68.6C362.821 68.6 372.368 71.5867 379.088 77.56C385.914 83.4267 389.328 92.5467 389.328 104.92V155H370.448ZM343.568 156.12C337.168 156.12 331.568 155.053 326.768 152.92C321.968 150.68 318.234 147.64 315.568 143.8C313.008 139.853 311.728 135.427 311.728 130.52C311.728 125.72 312.848 121.4 315.088 117.56C317.434 113.72 321.221 110.68 326.448 108.44C331.674 106.2 338.608 105.08 347.248 105.08H372.048V118.36H348.688C341.861 118.36 337.274 119.48 334.928 121.72C332.581 123.853 331.408 126.52 331.408 129.72C331.408 133.347 332.848 136.227 335.728 138.36C338.608 140.493 342.608 141.56 347.728 141.56C352.634 141.56 357.008 140.44 360.848 138.2C364.794 135.96 367.621 132.653 369.328 128.28L372.688 140.28C370.768 145.293 367.301 149.187 362.288 151.96C357.381 154.733 351.141 156.12 343.568 156.12ZM420.473 187.16C416.313 187.16 412.153 186.467 407.993 185.08C403.833 183.693 400.366 181.773 397.592 179.32L405.592 164.6C407.619 166.413 409.913 167.853 412.473 168.92C415.033 169.987 417.646 170.52 420.312 170.52C423.939 170.52 426.873 169.613 429.113 167.8C431.353 165.987 433.433 162.947 435.353 158.68L440.312 147.48L441.913 145.08L474.233 69.56H493.433L453.433 161.88C450.766 168.28 447.779 173.347 444.473 177.08C441.273 180.813 437.646 183.427 433.593 184.92C429.646 186.413 425.273 187.16 420.473 187.16ZM438.073 158.04L399.512 69.56H420.312L451.673 143.32L438.073 158.04ZM556.551 95.16C552.925 95.16 549.831 93.9333 547.271 91.48C544.711 88.92 543.431 85.72 543.431 81.88C543.431 77.8267 544.711 74.6267 547.271 72.28C549.831 69.8267 552.925 68.6 556.551 68.6C560.178 68.6 563.271 69.8267 565.831 72.28C568.391 74.6267 569.671 77.8267 569.671 81.88C569.671 85.72 568.391 88.92 565.831 91.48C563.271 93.9333 560.178 95.16 556.551 95.16ZM556.551 156.12C552.925 156.12 549.831 154.893 547.271 152.44C544.711 149.88 543.431 146.68 543.431 142.84C543.431 138.787 544.711 135.587 547.271 133.24C549.831 130.787 552.925 129.56 556.551 129.56C560.178 129.56 563.271 130.787 565.831 133.24C568.391 135.587 569.671 138.787 569.671 142.84C569.671 146.68 568.391 149.88 565.831 152.44C563.271 154.893 560.178 156.12 556.551 156.12Z" fill="#447EA3"/>
<path d="M9.48 252V249.28L20.88 238.28C21.8933 237.32 22.64 236.48 23.12 235.76C23.6267 235.013 23.96 234.333 24.12 233.72C24.3067 233.08 24.4 232.467 24.4 231.88C24.4 230.44 23.8933 229.307 22.88 228.48C21.8667 227.653 20.3867 227.24 18.44 227.24C16.9467 227.24 15.6 227.493 14.4 228C13.2 228.48 12.16 229.24 11.28 230.28L8.56 227.92C9.62667 226.56 11.0533 225.52 12.84 224.8C14.6533 224.053 16.64 223.68 18.8 223.68C20.7467 223.68 22.44 224 23.88 224.64C25.32 225.253 26.4267 226.147 27.2 227.32C28 228.493 28.4 229.88 28.4 231.48C28.4 232.387 28.28 233.28 28.04 234.16C27.8 235.04 27.3467 235.973 26.68 236.96C26.0133 237.947 25.0533 239.053 23.8 240.28L13.64 250.08L12.68 248.52H29.6V252H9.48ZM44.2897 252.32C42.103 252.32 40.143 251.76 38.4097 250.64C36.703 249.52 35.343 247.893 34.3297 245.76C33.343 243.627 32.8497 241.04 32.8497 238C32.8497 234.96 33.343 232.373 34.3297 230.24C35.343 228.107 36.703 226.48 38.4097 225.36C40.143 224.24 42.103 223.68 44.2897 223.68C46.4497 223.68 48.3964 224.24 50.1297 225.36C51.863 226.48 53.223 228.107 54.2097 230.24C55.1964 232.373 55.6897 234.96 55.6897 238C55.6897 241.04 55.1964 243.627 54.2097 245.76C53.223 247.893 51.863 249.52 50.1297 250.64C48.3964 251.76 46.4497 252.32 44.2897 252.32ZM44.2897 248.76C45.7564 248.76 47.0364 248.36 48.1297 247.56C49.2497 246.76 50.1164 245.56 50.7297 243.96C51.3697 242.36 51.6897 240.373 51.6897 238C51.6897 235.627 51.3697 233.64 50.7297 232.04C50.1164 230.44 49.2497 229.24 48.1297 228.44C47.0364 227.64 45.7564 227.24 44.2897 227.24C42.823 227.24 41.5297 227.64 40.4097 228.44C39.2897 229.24 38.4097 230.44 37.7697 232.04C37.1564 233.64 36.8497 235.627 36.8497 238C36.8497 240.373 37.1564 242.36 37.7697 243.96C38.4097 245.56 39.2897 246.76 40.4097 247.56C41.5297 248.36 42.823 248.76 44.2897 248.76ZM59.0894 252V249.28L70.4894 238.28C71.5027 237.32 72.2494 236.48 72.7294 235.76C73.236 235.013 73.5694 234.333 73.7294 233.72C73.916 233.08 74.0094 232.467 74.0094 231.88C74.0094 230.44 73.5027 229.307 72.4894 228.48C71.476 227.653 69.996 227.24 68.0494 227.24C66.556 227.24 65.2094 227.493 64.0094 228C62.8094 228.48 61.7694 229.24 60.8894 230.28L58.1694 227.92C59.236 226.56 60.6627 225.52 62.4494 224.8C64.2627 224.053 66.2494 223.68 68.4094 223.68C70.356 223.68 72.0494 224 73.4894 224.64C74.9294 225.253 76.036 226.147 76.8094 227.32C77.6094 228.493 78.0094 229.88 78.0094 231.48C78.0094 232.387 77.8894 233.28 77.6494 234.16C77.4094 235.04 76.956 235.973 76.2894 236.96C75.6227 237.947 74.6627 239.053 73.4094 240.28L63.2494 250.08L62.2894 248.52H79.2094V252H59.0894ZM91.0581 252.32C89.0848 252.32 87.1648 252.013 85.2981 251.4C83.4581 250.787 81.9515 249.96 80.7781 248.92L82.6181 245.76C83.5515 246.64 84.7648 247.36 86.2581 247.92C87.7515 248.48 89.3515 248.76 91.0581 248.76C93.1381 248.76 94.7515 248.32 95.8981 247.44C97.0715 246.533 97.6581 245.32 97.6581 243.8C97.6581 242.333 97.0981 241.16 95.9781 240.28C94.8848 239.373 93.1381 238.92 90.7381 238.92H88.4981V236.12L96.8181 225.88L97.3781 227.48H82.0581V224H100.538V226.72L92.2581 236.92L90.1781 235.68H91.4981C94.8848 235.68 97.4181 236.44 99.0981 237.96C100.805 239.48 101.658 241.413 101.658 243.76C101.658 245.333 101.271 246.773 100.498 248.08C99.7248 249.387 98.5515 250.427 96.9781 251.2C95.4315 251.947 93.4581 252.32 91.0581 252.32ZM126.571 252.32C124.438 252.32 122.398 252 120.451 251.36C118.504 250.693 116.971 249.84 115.851 248.8L117.331 245.68C118.398 246.613 119.758 247.387 121.411 248C123.064 248.613 124.784 248.92 126.571 248.92C128.198 248.92 129.518 248.733 130.531 248.36C131.544 247.987 132.291 247.48 132.771 246.84C133.251 246.173 133.491 245.427 133.491 244.6C133.491 243.64 133.171 242.867 132.531 242.28C131.918 241.693 131.104 241.227 130.091 240.88C129.104 240.507 128.011 240.187 126.811 239.92C125.611 239.653 124.398 239.347 123.171 239C121.971 238.627 120.864 238.16 119.851 237.6C118.864 237.04 118.064 236.293 117.451 235.36C116.838 234.4 116.531 233.173 116.531 231.68C116.531 230.24 116.904 228.92 117.651 227.72C118.424 226.493 119.598 225.52 121.171 224.8C122.771 224.053 124.798 223.68 127.251 223.68C128.878 223.68 130.491 223.893 132.091 224.32C133.691 224.747 135.078 225.36 136.251 226.16L134.931 229.36C133.731 228.56 132.464 227.987 131.131 227.64C129.798 227.267 128.504 227.08 127.251 227.08C125.678 227.08 124.384 227.28 123.371 227.68C122.358 228.08 121.611 228.613 121.131 229.28C120.678 229.947 120.451 230.693 120.451 231.52C120.451 232.507 120.758 233.293 121.371 233.88C122.011 234.467 122.824 234.933 123.811 235.28C124.824 235.627 125.931 235.947 127.131 236.24C128.331 236.507 129.531 236.813 130.731 237.16C131.958 237.507 133.064 237.96 134.051 238.52C135.064 239.08 135.878 239.827 136.491 240.76C137.104 241.693 137.411 242.893 137.411 244.36C137.411 245.773 137.024 247.093 136.251 248.32C135.478 249.52 134.278 250.493 132.651 251.24C131.051 251.96 129.024 252.32 126.571 252.32ZM152.135 252.24C149.868 252.24 147.868 251.773 146.135 250.84C144.428 249.907 143.095 248.627 142.135 247C141.201 245.373 140.735 243.507 140.735 241.4C140.735 239.293 141.188 237.427 142.095 235.8C143.028 234.173 144.295 232.907 145.895 232C147.521 231.067 149.348 230.6 151.375 230.6C153.428 230.6 155.241 231.053 156.815 231.96C158.388 232.867 159.615 234.147 160.495 235.8C161.401 237.427 161.855 239.333 161.855 241.52C161.855 241.68 161.841 241.867 161.815 242.08C161.815 242.293 161.801 242.493 161.775 242.68H143.735V239.92H159.775L158.215 240.88C158.241 239.52 157.961 238.307 157.375 237.24C156.788 236.173 155.975 235.347 154.935 234.76C153.921 234.147 152.735 233.84 151.375 233.84C150.041 233.84 148.855 234.147 147.815 234.76C146.775 235.347 145.961 236.187 145.375 237.28C144.788 238.347 144.495 239.573 144.495 240.96V241.6C144.495 243.013 144.815 244.28 145.455 245.4C146.121 246.493 147.041 247.347 148.215 247.96C149.388 248.573 150.735 248.88 152.255 248.88C153.508 248.88 154.641 248.667 155.655 248.24C156.695 247.813 157.601 247.173 158.375 246.32L160.495 248.8C159.535 249.92 158.335 250.773 156.895 251.36C155.481 251.947 153.895 252.24 152.135 252.24ZM178.427 252.24C176.667 252.24 175.054 251.84 173.587 251.04C172.147 250.213 170.987 249 170.107 247.4C169.254 245.8 168.827 243.8 168.827 241.4C168.827 239 169.24 237 170.067 235.4C170.92 233.8 172.067 232.6 173.507 231.8C174.974 231 176.614 230.6 178.427 230.6C180.507 230.6 182.347 231.053 183.947 231.96C185.547 232.867 186.814 234.133 187.747 235.76C188.68 237.36 189.147 239.24 189.147 241.4C189.147 243.56 188.68 245.453 187.747 247.08C186.814 248.707 185.547 249.973 183.947 250.88C182.347 251.787 180.507 252.24 178.427 252.24ZM167.187 259.76V230.8H170.867V236.52L170.627 241.44L171.027 246.36V259.76H167.187ZM178.107 248.88C179.467 248.88 180.68 248.573 181.747 247.96C182.84 247.347 183.694 246.48 184.307 245.36C184.947 244.213 185.267 242.893 185.267 241.4C185.267 239.88 184.947 238.573 184.307 237.48C183.694 236.36 182.84 235.493 181.747 234.88C180.68 234.267 179.467 233.96 178.107 233.96C176.774 233.96 175.56 234.267 174.467 234.88C173.4 235.493 172.547 236.36 171.907 237.48C171.294 238.573 170.987 239.88 170.987 241.4C170.987 242.893 171.294 244.213 171.907 245.36C172.547 246.48 173.4 247.347 174.467 247.96C175.56 248.573 176.774 248.88 178.107 248.88ZM201.733 252.24C199.599 252.24 197.946 251.667 196.773 250.52C195.599 249.373 195.013 247.733 195.013 245.6V226.16H198.853V245.44C198.853 246.587 199.133 247.467 199.693 248.08C200.279 248.693 201.106 249 202.173 249C203.373 249 204.373 248.667 205.173 248L206.373 250.76C205.786 251.267 205.079 251.64 204.253 251.88C203.453 252.12 202.613 252.24 201.733 252.24ZM191.413 233.96V230.8H204.933V233.96H191.413ZM219.752 252.24C217.485 252.24 215.485 251.773 213.752 250.84C212.045 249.907 210.712 248.627 209.752 247C208.819 245.373 208.352 243.507 208.352 241.4C208.352 239.293 208.805 237.427 209.712 235.8C210.645 234.173 211.912 232.907 213.512 232C215.139 231.067 216.965 230.6 218.992 230.6C221.045 230.6 222.859 231.053 224.432 231.96C226.005 232.867 227.232 234.147 228.112 235.8C229.019 237.427 229.472 239.333 229.472 241.52C229.472 241.68 229.459 241.867 229.432 242.08C229.432 242.293 229.419 242.493 229.392 242.68H211.352V239.92H227.392L225.832 240.88C225.859 239.52 225.579 238.307 224.992 237.24C224.405 236.173 223.592 235.347 222.552 234.76C221.539 234.147 220.352 233.84 218.992 233.84C217.659 233.84 216.472 234.147 215.432 234.76C214.392 235.347 213.579 236.187 212.992 237.28C212.405 238.347 212.112 239.573 212.112 240.96V241.6C212.112 243.013 212.432 244.28 213.072 245.4C213.739 246.493 214.659 247.347 215.832 247.96C217.005 248.573 218.352 248.88 219.872 248.88C221.125 248.88 222.259 248.667 223.272 248.24C224.312 247.813 225.219 247.173 225.992 246.32L228.112 248.8C227.152 249.92 225.952 250.773 224.512 251.36C223.099 251.947 221.512 252.24 219.752 252.24ZM261.324 230.6C263.031 230.6 264.537 230.933 265.844 231.6C267.151 232.267 268.164 233.28 268.884 234.64C269.631 236 270.004 237.72 270.004 239.8V252H266.164V240.24C266.164 238.187 265.684 236.64 264.724 235.6C263.764 234.56 262.417 234.04 260.684 234.04C259.404 234.04 258.284 234.307 257.324 234.84C256.364 235.373 255.617 236.16 255.084 237.2C254.577 238.24 254.324 239.533 254.324 241.08V252H250.484V240.24C250.484 238.187 250.004 236.64 249.044 235.6C248.111 234.56 246.764 234.04 245.004 234.04C243.751 234.04 242.644 234.307 241.684 234.84C240.724 235.373 239.977 236.16 239.444 237.2C238.911 238.24 238.644 239.533 238.644 241.08V252H234.804V230.8H238.484V236.44L237.884 235C238.551 233.613 239.577 232.533 240.964 231.76C242.351 230.987 243.964 230.6 245.804 230.6C247.831 230.6 249.577 231.107 251.044 232.12C252.511 233.107 253.471 234.613 253.924 236.64L252.364 236C253.004 234.373 254.124 233.067 255.724 232.08C257.324 231.093 259.191 230.6 261.324 230.6ZM288.31 252.24C286.496 252.24 284.856 251.84 283.39 251.04C281.95 250.213 280.803 249 279.95 247.4C279.123 245.8 278.71 243.8 278.71 241.4C278.71 239 279.136 237 279.99 235.4C280.87 233.8 282.03 232.6 283.47 231.8C284.936 231 286.55 230.6 288.31 230.6C290.39 230.6 292.23 231.053 293.83 231.96C295.43 232.867 296.696 234.133 297.63 235.76C298.563 237.36 299.03 239.24 299.03 241.4C299.03 243.56 298.563 245.453 297.63 247.08C296.696 248.707 295.43 249.973 293.83 250.88C292.23 251.787 290.39 252.24 288.31 252.24ZM277.07 252V222.32H280.91V236.44L280.51 241.36L280.75 246.28V252H277.07ZM287.99 248.88C289.35 248.88 290.563 248.573 291.63 247.96C292.723 247.347 293.576 246.48 294.19 245.36C294.83 244.213 295.15 242.893 295.15 241.4C295.15 239.88 294.83 238.573 294.19 237.48C293.576 236.36 292.723 235.493 291.63 234.88C290.563 234.267 289.35 233.96 287.99 233.96C286.656 233.96 285.443 234.267 284.35 234.88C283.283 235.493 282.43 236.36 281.79 237.48C281.176 238.573 280.87 239.88 280.87 241.4C280.87 242.893 281.176 244.213 281.79 245.36C282.43 246.48 283.283 247.347 284.35 247.96C285.443 248.573 286.656 248.88 287.99 248.88ZM313.775 252.24C311.509 252.24 309.509 251.773 307.775 250.84C306.069 249.907 304.735 248.627 303.775 247C302.842 245.373 302.375 243.507 302.375 241.4C302.375 239.293 302.829 237.427 303.735 235.8C304.669 234.173 305.935 232.907 307.535 232C309.162 231.067 310.989 230.6 313.015 230.6C315.069 230.6 316.882 231.053 318.455 231.96C320.029 232.867 321.255 234.147 322.135 235.8C323.042 237.427 323.495 239.333 323.495 241.52C323.495 241.68 323.482 241.867 323.455 242.08C323.455 242.293 323.442 242.493 323.415 242.68H305.375V239.92H321.415L319.855 240.88C319.882 239.52 319.602 238.307 319.015 237.24C318.429 236.173 317.615 235.347 316.575 234.76C315.562 234.147 314.375 233.84 313.015 233.84C311.682 233.84 310.495 234.147 309.455 234.76C308.415 235.347 307.602 236.187 307.015 237.28C306.429 238.347 306.135 239.573 306.135 240.96V241.6C306.135 243.013 306.455 244.28 307.095 245.4C307.762 246.493 308.682 247.347 309.855 247.96C311.029 248.573 312.375 248.88 313.895 248.88C315.149 248.88 316.282 248.667 317.295 248.24C318.335 247.813 319.242 247.173 320.015 246.32L322.135 248.8C321.175 249.92 319.975 250.773 318.535 251.36C317.122 251.947 315.535 252.24 313.775 252.24ZM328.828 252V230.8H332.508V236.56L332.148 235.12C332.734 233.653 333.721 232.533 335.108 231.76C336.494 230.987 338.201 230.6 340.228 230.6V234.32C340.068 234.293 339.908 234.28 339.748 234.28C339.614 234.28 339.481 234.28 339.348 234.28C337.294 234.28 335.668 234.893 334.468 236.12C333.268 237.347 332.668 239.12 332.668 241.44V252H328.828ZM358.976 252V225.6L360.696 227.48H352.656V224H362.936V252H358.976ZM368.661 245.12V242.32L382.981 224H387.301L373.101 242.32L371.061 241.68H393.421V245.12H368.661ZM384.221 252V245.12L384.341 241.68V235.6H388.101V252H384.221ZM406.921 242.68V239.36H417.681V242.68H406.921ZM437.335 252V225.6L439.055 227.48H431.015V224H441.295V252H437.335ZM456.46 252.32C454.487 252.32 452.567 252.013 450.7 251.4C448.86 250.787 447.353 249.96 446.18 248.92L448.02 245.76C448.953 246.64 450.167 247.36 451.66 247.92C453.153 248.48 454.74 248.76 456.42 248.76C458.553 248.76 460.193 248.307 461.34 247.4C462.487 246.493 463.06 245.28 463.06 243.76C463.06 242.72 462.807 241.813 462.3 241.04C461.793 240.267 460.913 239.68 459.66 239.28C458.433 238.853 456.74 238.64 454.58 238.64H448.22L449.7 224H465.5V227.48H451.18L453.26 225.52L452.1 237.08L450.02 235.16H455.42C458.22 235.16 460.473 235.52 462.18 236.24C463.887 236.96 465.127 237.96 465.9 239.24C466.673 240.493 467.06 241.947 467.06 243.6C467.06 245.2 466.673 246.667 465.9 248C465.127 249.307 463.953 250.36 462.38 251.16C460.833 251.933 458.86 252.32 456.46 252.32ZM475.261 239.168C473.853 239.168 472.765 238.808 471.997 238.088C471.229 237.352 470.845 236.272 470.845 234.848V223.352H473.845V234.776C473.845 235.384 473.997 235.856 474.301 236.192C474.621 236.528 475.061 236.696 475.621 236.696C476.293 236.696 476.853 236.52 477.301 236.168L478.141 238.304C477.789 238.592 477.357 238.808 476.845 238.952C476.333 239.096 475.805 239.168 475.261 239.168ZM468.733 228.68V226.28H477.277V228.68H468.733ZM488.601 226.04C489.625 226.04 490.537 226.24 491.337 226.64C492.153 227.04 492.793 227.656 493.257 228.488C493.721 229.304 493.953 230.36 493.953 231.656V239H490.953V232.04C490.953 230.904 490.681 230.056 490.137 229.496C489.609 228.936 488.865 228.656 487.905 228.656C487.201 228.656 486.577 228.8 486.033 229.088C485.489 229.376 485.065 229.808 484.761 230.384C484.473 230.944 484.329 231.656 484.329 232.52V239H481.329V221.192H484.329V229.64L483.681 228.584C484.129 227.768 484.777 227.144 485.625 226.712C486.489 226.264 487.481 226.04 488.601 226.04Z" fill="#020126"/>
<path d="M639.25 94V59H654C657.733 59 661.017 59.7333 663.85 61.2C666.717 62.6667 668.933 64.7167 670.5 67.35C672.1 69.9833 672.9 73.0333 672.9 76.5C672.9 79.9667 672.1 83.0167 670.5 85.65C668.933 88.2833 666.717 90.3333 663.85 91.8C661.017 93.2667 657.733 94 654 94H639.25ZM644.25 89.65H653.7C656.6 89.65 659.1 89.1 661.2 88C663.333 86.9 664.983 85.3667 666.15 83.4C667.317 81.4 667.9 79.1 667.9 76.5C667.9 73.8667 667.317 71.5667 666.15 69.6C664.983 67.6333 663.333 66.1 661.2 65C659.1 63.9 656.6 63.35 653.7 63.35H644.25V89.65ZM679.859 94V67.5H684.659V94H679.859ZM682.259 62.4C681.325 62.4 680.542 62.1 679.909 61.5C679.309 60.9 679.009 60.1667 679.009 59.3C679.009 58.4 679.309 57.65 679.909 57.05C680.542 56.45 681.325 56.15 682.259 56.15C683.192 56.15 683.959 56.45 684.559 57.05C685.192 57.6167 685.509 58.3333 685.509 59.2C685.509 60.1 685.209 60.8667 684.609 61.5C684.009 62.1 683.225 62.4 682.259 62.4ZM701.423 94.3C699.223 94.3 697.123 94 695.123 93.4C693.157 92.8 691.607 92.0667 690.473 91.2L692.473 87.4C693.607 88.1667 695.007 88.8167 696.673 89.35C698.34 89.8833 700.04 90.15 701.773 90.15C704.007 90.15 705.607 89.8333 706.573 89.2C707.573 88.5667 708.073 87.6833 708.073 86.55C708.073 85.7167 707.773 85.0667 707.173 84.6C706.573 84.1333 705.773 83.7833 704.773 83.55C703.807 83.3167 702.723 83.1167 701.523 82.95C700.323 82.75 699.123 82.5167 697.923 82.25C696.723 81.95 695.623 81.55 694.623 81.05C693.623 80.5167 692.823 79.8 692.223 78.9C691.623 77.9667 691.323 76.7333 691.323 75.2C691.323 73.6 691.773 72.2 692.673 71C693.573 69.8 694.84 68.8833 696.473 68.25C698.14 67.5833 700.107 67.25 702.373 67.25C704.107 67.25 705.857 67.4667 707.623 67.9C709.423 68.3 710.89 68.8833 712.023 69.65L709.973 73.45C708.773 72.65 707.523 72.1 706.223 71.8C704.923 71.5 703.623 71.35 702.323 71.35C700.223 71.35 698.657 71.7 697.623 72.4C696.59 73.0667 696.073 73.9333 696.073 75C696.073 75.9 696.373 76.6 696.973 77.1C697.607 77.5667 698.407 77.9333 699.373 78.2C700.373 78.4667 701.473 78.7 702.673 78.9C703.873 79.0667 705.073 79.3 706.273 79.6C707.473 79.8667 708.557 80.25 709.523 80.75C710.523 81.25 711.323 81.95 711.923 82.85C712.557 83.75 712.873 84.95 712.873 86.45C712.873 88.05 712.407 89.4333 711.473 90.6C710.54 91.7667 709.223 92.6833 707.523 93.35C705.823 93.9833 703.79 94.3 701.423 94.3ZM730.422 94.3C727.722 94.3 725.306 93.7167 723.172 92.55C721.072 91.3833 719.422 89.7833 718.222 87.75C717.022 85.7167 716.422 83.3833 716.422 80.75C716.422 78.1167 717.022 75.7833 718.222 73.75C719.422 71.7167 721.072 70.1333 723.172 69C725.306 67.8333 727.722 67.25 730.422 67.25C732.822 67.25 734.956 67.7333 736.822 68.7C738.722 69.6333 740.189 71.0333 741.222 72.9L737.572 75.25C736.706 73.95 735.639 73 734.372 72.4C733.139 71.7667 731.806 71.45 730.372 71.45C728.639 71.45 727.089 71.8333 725.722 72.6C724.356 73.3667 723.272 74.45 722.472 75.85C721.672 77.2167 721.272 78.85 721.272 80.75C721.272 82.65 721.672 84.3 722.472 85.7C723.272 87.1 724.356 88.1833 725.722 88.95C727.089 89.7167 728.639 90.1 730.372 90.1C731.806 90.1 733.139 89.8 734.372 89.2C735.639 88.5667 736.706 87.6 737.572 86.3L741.222 88.6C740.189 90.4333 738.722 91.85 736.822 92.85C734.956 93.8167 732.822 94.3 730.422 94.3ZM758.396 94.3C755.729 94.3 753.363 93.7167 751.296 92.55C749.229 91.3833 747.596 89.7833 746.396 87.75C745.196 85.6833 744.596 83.35 744.596 80.75C744.596 78.1167 745.196 75.7833 746.396 73.75C747.596 71.7167 749.229 70.1333 751.296 69C753.363 67.8333 755.729 67.25 758.396 67.25C761.029 67.25 763.379 67.8333 765.446 69C767.546 70.1333 769.179 71.7167 770.346 73.75C771.546 75.75 772.146 78.0833 772.146 80.75C772.146 83.3833 771.546 85.7167 770.346 87.75C769.179 89.7833 767.546 91.3833 765.446 92.55C763.379 93.7167 761.029 94.3 758.396 94.3ZM758.396 90.1C760.096 90.1 761.613 89.7167 762.946 88.95C764.313 88.1833 765.379 87.1 766.146 85.7C766.913 84.2667 767.296 82.6167 767.296 80.75C767.296 78.85 766.913 77.2167 766.146 75.85C765.379 74.45 764.313 73.3667 762.946 72.6C761.613 71.8333 760.096 71.45 758.396 71.45C756.696 71.45 755.179 71.8333 753.846 72.6C752.513 73.3667 751.446 74.45 750.646 75.85C749.846 77.2167 749.446 78.85 749.446 80.75C749.446 82.6167 749.846 84.2667 750.646 85.7C751.446 87.1 752.513 88.1833 753.846 88.95C755.179 89.7167 756.696 90.1 758.396 90.1ZM785.002 94L773.402 67.5H778.402L788.702 91.5H786.302L796.802 67.5H801.502L789.902 94H785.002ZM817.049 94.3C814.216 94.3 811.716 93.7167 809.549 92.55C807.416 91.3833 805.749 89.7833 804.549 87.75C803.383 85.7167 802.799 83.3833 802.799 80.75C802.799 78.1167 803.366 75.7833 804.499 73.75C805.666 71.7167 807.249 70.1333 809.249 69C811.283 67.8333 813.566 67.25 816.099 67.25C818.666 67.25 820.933 67.8167 822.899 68.95C824.866 70.0833 826.399 71.6833 827.499 73.75C828.633 75.7833 829.199 78.1667 829.199 80.9C829.199 81.1 829.183 81.3333 829.149 81.6C829.149 81.8667 829.133 82.1167 829.099 82.35H806.549V78.9H826.599L824.649 80.1C824.683 78.4 824.333 76.8833 823.599 75.55C822.866 74.2167 821.849 73.1833 820.549 72.45C819.283 71.6833 817.799 71.3 816.099 71.3C814.433 71.3 812.949 71.6833 811.649 72.45C810.349 73.1833 809.333 74.2333 808.599 75.6C807.866 76.9333 807.499 78.4667 807.499 80.2V81C807.499 82.7667 807.899 84.35 808.699 85.75C809.533 87.1167 810.683 88.1833 812.149 88.95C813.616 89.7167 815.299 90.1 817.199 90.1C818.766 90.1 820.183 89.8333 821.449 89.3C822.749 88.7667 823.883 87.9667 824.849 86.9L827.499 90C826.299 91.4 824.799 92.4667 822.999 93.2C821.233 93.9333 819.249 94.3 817.049 94.3ZM835.864 94V67.5H840.464V74.7L840.014 72.9C840.748 71.0667 841.981 69.6667 843.714 68.7C845.448 67.7333 847.581 67.25 850.114 67.25V71.9C849.914 71.8667 849.714 71.85 849.514 71.85C849.348 71.85 849.181 71.85 849.014 71.85C846.448 71.85 844.414 72.6167 842.914 74.15C841.414 75.6833 840.664 77.9 840.664 80.8V94H835.864ZM878.9 94.3C876.233 94.3 874.167 93.5833 872.7 92.15C871.233 90.7167 870.5 88.6667 870.5 86V61.7H875.3V85.8C875.3 87.2333 875.65 88.3333 876.35 89.1C877.083 89.8667 878.117 90.25 879.45 90.25C880.95 90.25 882.2 89.8333 883.2 89L884.7 92.45C883.967 93.0833 883.083 93.55 882.05 93.85C881.05 94.15 880 94.3 878.9 94.3ZM866 71.45V67.5H882.9V71.45H866ZM904.653 67.25C906.82 67.25 908.72 67.6667 910.353 68.5C912.02 69.3333 913.32 70.6 914.253 72.3C915.186 74 915.653 76.15 915.653 78.75V94H910.853V79.3C910.853 76.7333 910.22 74.8 908.953 73.5C907.72 72.2 905.97 71.55 903.703 71.55C902.003 71.55 900.52 71.8833 899.253 72.55C897.986 73.2167 897.003 74.2 896.303 75.5C895.636 76.8 895.303 78.4167 895.303 80.35V94H890.503V56.9H895.303V74.65L894.353 72.75C895.22 71.0167 896.553 69.6667 898.353 68.7C900.153 67.7333 902.253 67.25 904.653 67.25ZM936.336 94.3C933.503 94.3 931.003 93.7167 928.836 92.55C926.703 91.3833 925.036 89.7833 923.836 87.75C922.67 85.7167 922.086 83.3833 922.086 80.75C922.086 78.1167 922.653 75.7833 923.786 73.75C924.953 71.7167 926.536 70.1333 928.536 69C930.57 67.8333 932.853 67.25 935.386 67.25C937.953 67.25 940.22 67.8167 942.186 68.95C944.153 70.0833 945.686 71.6833 946.786 73.75C947.92 75.7833 948.486 78.1667 948.486 80.9C948.486 81.1 948.47 81.3333 948.436 81.6C948.436 81.8667 948.42 82.1167 948.386 82.35H925.836V78.9H945.886L943.936 80.1C943.97 78.4 943.62 76.8833 942.886 75.55C942.153 74.2167 941.136 73.1833 939.836 72.45C938.57 71.6833 937.086 71.3 935.386 71.3C933.72 71.3 932.236 71.6833 930.936 72.45C929.636 73.1833 928.62 74.2333 927.886 75.6C927.153 76.9333 926.786 78.4667 926.786 80.2V81C926.786 82.7667 927.186 84.35 927.986 85.75C928.82 87.1167 929.97 88.1833 931.436 88.95C932.903 89.7167 934.586 90.1 936.486 90.1C938.053 90.1 939.47 89.8333 940.736 89.3C942.036 88.7667 943.17 87.9667 944.136 86.9L946.786 90C945.586 91.4 944.086 92.4667 942.286 93.2C940.52 93.9333 938.536 94.3 936.336 94.3ZM973.679 85.55L973.429 79.45L993.279 59H998.979L983.629 75.2L980.829 78.3L973.679 85.55ZM969.279 94V59H974.279V94H969.279ZM994.079 94L979.729 77.3L983.079 73.6L999.929 94H994.079ZM1014.69 94.3C1012.03 94.3 1009.66 93.7167 1007.59 92.55C1005.53 91.3833 1003.89 89.7833 1002.69 87.75C1001.49 85.6833 1000.89 83.35 1000.89 80.75C1000.89 78.1167 1001.49 75.7833 1002.69 73.75C1003.89 71.7167 1005.53 70.1333 1007.59 69C1009.66 67.8333 1012.03 67.25 1014.69 67.25C1017.33 67.25 1019.68 67.8333 1021.74 69C1023.84 70.1333 1025.48 71.7167 1026.64 73.75C1027.84 75.75 1028.44 78.0833 1028.44 80.75C1028.44 83.3833 1027.84 85.7167 1026.64 87.75C1025.48 89.7833 1023.84 91.3833 1021.74 92.55C1019.68 93.7167 1017.33 94.3 1014.69 94.3ZM1014.69 90.1C1016.39 90.1 1017.91 89.7167 1019.24 88.95C1020.61 88.1833 1021.68 87.1 1022.44 85.7C1023.21 84.2667 1023.59 82.6167 1023.59 80.75C1023.59 78.85 1023.21 77.2167 1022.44 75.85C1021.68 74.45 1020.61 73.3667 1019.24 72.6C1017.91 71.8333 1016.39 71.45 1014.69 71.45C1012.99 71.45 1011.48 71.8333 1010.14 72.6C1008.81 73.3667 1007.74 74.45 1006.94 75.85C1006.14 77.2167 1005.74 78.85 1005.74 80.75C1005.74 82.6167 1006.14 84.2667 1006.94 85.7C1007.74 87.1 1008.81 88.1833 1010.14 88.95C1011.48 89.7167 1012.99 90.1 1014.69 90.1ZM1035.08 94V67.5H1039.68V74.7L1039.23 72.9C1039.97 71.0667 1041.2 69.6667 1042.93 68.7C1044.67 67.7333 1046.8 67.25 1049.33 67.25V71.9C1049.13 71.8667 1048.93 71.85 1048.73 71.85C1048.57 71.85 1048.4 71.85 1048.23 71.85C1045.67 71.85 1043.63 72.6167 1042.13 74.15C1040.63 75.6833 1039.88 77.9 1039.88 80.8V94H1035.08ZM1066.81 94.3C1063.97 94.3 1061.47 93.7167 1059.31 92.55C1057.17 91.3833 1055.51 89.7833 1054.31 87.75C1053.14 85.7167 1052.56 83.3833 1052.56 80.75C1052.56 78.1167 1053.12 75.7833 1054.26 73.75C1055.42 71.7167 1057.01 70.1333 1059.01 69C1061.04 67.8333 1063.32 67.25 1065.86 67.25C1068.42 67.25 1070.69 67.8167 1072.66 68.95C1074.62 70.0833 1076.16 71.6833 1077.26 73.75C1078.39 75.7833 1078.96 78.1667 1078.96 80.9C1078.96 81.1 1078.94 81.3333 1078.91 81.6C1078.91 81.8667 1078.89 82.1167 1078.86 82.35H1056.31V78.9H1076.36L1074.41 80.1C1074.44 78.4 1074.09 76.8833 1073.36 75.55C1072.62 74.2167 1071.61 73.1833 1070.31 72.45C1069.04 71.6833 1067.56 71.3 1065.86 71.3C1064.19 71.3 1062.71 71.6833 1061.41 72.45C1060.11 73.1833 1059.09 74.2333 1058.36 75.6C1057.62 76.9333 1057.26 78.4667 1057.26 80.2V81C1057.26 82.7667 1057.66 84.35 1058.46 85.75C1059.29 87.1167 1060.44 88.1833 1061.91 88.95C1063.37 89.7167 1065.06 90.1 1066.96 90.1C1068.52 90.1 1069.94 89.8333 1071.21 89.3C1072.51 88.7667 1073.64 87.9667 1074.61 86.9L1077.26 90C1076.06 91.4 1074.56 92.4667 1072.76 93.2C1070.99 93.9333 1069.01 94.3 1066.81 94.3ZM1101.34 94V88.4L1101.09 87.35V77.8C1101.09 75.7667 1100.49 74.2 1099.29 73.1C1098.12 71.9667 1096.35 71.4 1093.99 71.4C1092.42 71.4 1090.89 71.6667 1089.39 72.2C1087.89 72.7 1086.62 73.3833 1085.59 74.25L1083.59 70.65C1084.95 69.55 1086.59 68.7167 1088.49 68.15C1090.42 67.55 1092.44 67.25 1094.54 67.25C1098.17 67.25 1100.97 68.1333 1102.94 69.9C1104.9 71.6667 1105.89 74.3667 1105.89 78V94H1101.34ZM1092.64 94.3C1090.67 94.3 1088.94 93.9667 1087.44 93.3C1085.97 92.6333 1084.84 91.7167 1084.04 90.55C1083.24 89.35 1082.84 88 1082.84 86.5C1082.84 85.0667 1083.17 83.7667 1083.84 82.6C1084.54 81.4333 1085.65 80.5 1087.19 79.8C1088.75 79.1 1090.85 78.75 1093.49 78.75H1101.89V82.2H1093.69C1091.29 82.2 1089.67 82.6 1088.84 83.4C1088 84.2 1087.59 85.1667 1087.59 86.3C1087.59 87.6 1088.1 88.65 1089.14 89.45C1090.17 90.2167 1091.6 90.6 1093.44 90.6C1095.24 90.6 1096.8 90.2 1098.14 89.4C1099.5 88.6 1100.49 87.4333 1101.09 85.9L1102.04 89.2C1101.4 90.7667 1100.29 92.0167 1098.69 92.95C1097.09 93.85 1095.07 94.3 1092.64 94.3ZM1128.92 67.25C1131.09 67.25 1132.99 67.6667 1134.62 68.5C1136.29 69.3333 1137.59 70.6 1138.52 72.3C1139.45 74 1139.92 76.15 1139.92 78.75V94H1135.12V79.3C1135.12 76.7333 1134.49 74.8 1133.22 73.5C1131.99 72.2 1130.24 71.55 1127.97 71.55C1126.27 71.55 1124.79 71.8833 1123.52 72.55C1122.25 73.2167 1121.27 74.2 1120.57 75.5C1119.9 76.8 1119.57 78.4167 1119.57 80.35V94H1114.77V67.5H1119.37V74.65L1118.62 72.75C1119.49 71.0167 1120.82 69.6667 1122.62 68.7C1124.42 67.7333 1126.52 67.25 1128.92 67.25ZM1173.13 94.4C1170.46 94.4 1167.91 94 1165.48 93.2C1163.05 92.3667 1161.13 91.3 1159.73 90L1161.58 86.1C1162.91 87.2667 1164.61 88.2333 1166.68 89C1168.75 89.7667 1170.9 90.15 1173.13 90.15C1175.16 90.15 1176.81 89.9167 1178.08 89.45C1179.35 88.9833 1180.28 88.35 1180.88 87.55C1181.48 86.7167 1181.78 85.7833 1181.78 84.75C1181.78 83.55 1181.38 82.5833 1180.58 81.85C1179.81 81.1167 1178.8 80.5333 1177.53 80.1C1176.3 79.6333 1174.93 79.2333 1173.43 78.9C1171.93 78.5667 1170.41 78.1833 1168.88 77.75C1167.38 77.2833 1166 76.7 1164.73 76C1163.5 75.3 1162.5 74.3667 1161.73 73.2C1160.96 72 1160.58 70.4667 1160.58 68.6C1160.58 66.8 1161.05 65.15 1161.98 63.65C1162.95 62.1167 1164.41 60.9 1166.38 60C1168.38 59.0667 1170.91 58.6 1173.98 58.6C1176.01 58.6 1178.03 58.8667 1180.03 59.4C1182.03 59.9333 1183.76 60.7 1185.23 61.7L1183.58 65.7C1182.08 64.7 1180.5 63.9833 1178.83 63.55C1177.16 63.0833 1175.55 62.85 1173.98 62.85C1172.01 62.85 1170.4 63.1 1169.13 63.6C1167.86 64.1 1166.93 64.7667 1166.33 65.6C1165.76 66.4333 1165.48 67.3667 1165.48 68.4C1165.48 69.6333 1165.86 70.6167 1166.63 71.35C1167.43 72.0833 1168.45 72.6667 1169.68 73.1C1170.95 73.5333 1172.33 73.9333 1173.83 74.3C1175.33 74.6333 1176.83 75.0167 1178.33 75.45C1179.86 75.8833 1181.25 76.45 1182.48 77.15C1183.75 77.85 1184.76 78.7833 1185.53 79.95C1186.3 81.1167 1186.68 82.6167 1186.68 84.45C1186.68 86.2167 1186.2 87.8667 1185.23 89.4C1184.26 90.9 1182.76 92.1167 1180.73 93.05C1178.73 93.95 1176.2 94.4 1173.13 94.4ZM1202.39 94.3C1199.72 94.3 1197.65 93.5833 1196.19 92.15C1194.72 90.7167 1193.99 88.6667 1193.99 86V61.7H1198.79V85.8C1198.79 87.2333 1199.14 88.3333 1199.84 89.1C1200.57 89.8667 1201.6 90.25 1202.94 90.25C1204.44 90.25 1205.69 89.8333 1206.69 89L1208.19 92.45C1207.45 93.0833 1206.57 93.55 1205.54 93.85C1204.54 94.15 1203.49 94.3 1202.39 94.3ZM1189.49 71.45V67.5H1206.39V71.45H1189.49ZM1230.44 94V88.4L1230.19 87.35V77.8C1230.19 75.7667 1229.59 74.2 1228.39 73.1C1227.22 71.9667 1225.46 71.4 1223.09 71.4C1221.52 71.4 1219.99 71.6667 1218.49 72.2C1216.99 72.7 1215.72 73.3833 1214.69 74.25L1212.69 70.65C1214.06 69.55 1215.69 68.7167 1217.59 68.15C1219.52 67.55 1221.54 67.25 1223.64 67.25C1227.27 67.25 1230.07 68.1333 1232.04 69.9C1234.01 71.6667 1234.99 74.3667 1234.99 78V94H1230.44ZM1221.74 94.3C1219.77 94.3 1218.04 93.9667 1216.54 93.3C1215.07 92.6333 1213.94 91.7167 1213.14 90.55C1212.34 89.35 1211.94 88 1211.94 86.5C1211.94 85.0667 1212.27 83.7667 1212.94 82.6C1213.64 81.4333 1214.76 80.5 1216.29 79.8C1217.86 79.1 1219.96 78.75 1222.59 78.75H1230.99V82.2H1222.79C1220.39 82.2 1218.77 82.6 1217.94 83.4C1217.11 84.2 1216.69 85.1667 1216.69 86.3C1216.69 87.6 1217.21 88.65 1218.24 89.45C1219.27 90.2167 1220.71 90.6 1222.54 90.6C1224.34 90.6 1225.91 90.2 1227.24 89.4C1228.61 88.6 1229.59 87.4333 1230.19 85.9L1231.14 89.2C1230.51 90.7667 1229.39 92.0167 1227.79 92.95C1226.19 93.85 1224.17 94.3 1221.74 94.3ZM1243.87 94V67.5H1248.47V74.7L1248.02 72.9C1248.76 71.0667 1249.99 69.6667 1251.72 68.7C1253.46 67.7333 1255.59 67.25 1258.12 67.25V71.9C1257.92 71.8667 1257.72 71.85 1257.52 71.85C1257.36 71.85 1257.19 71.85 1257.02 71.85C1254.46 71.85 1252.42 72.6167 1250.92 74.15C1249.42 75.6833 1248.67 77.9 1248.67 80.8V94H1243.87ZM1274.21 94.3C1271.55 94.3 1269.48 93.5833 1268.01 92.15C1266.55 90.7167 1265.81 88.6667 1265.81 86V61.7H1270.61V85.8C1270.61 87.2333 1270.96 88.3333 1271.66 89.1C1272.4 89.8667 1273.43 90.25 1274.76 90.25C1276.26 90.25 1277.51 89.8333 1278.51 89L1280.01 92.45C1279.28 93.0833 1278.4 93.55 1277.36 93.85C1276.36 94.15 1275.31 94.3 1274.21 94.3ZM1261.31 71.45V67.5H1278.21V71.45H1261.31ZM1296.97 94.3C1294.7 94.3 1292.7 93.8833 1290.97 93.05C1289.27 92.2167 1287.93 90.95 1286.97 89.25C1286.03 87.5167 1285.57 85.35 1285.57 82.75V67.5H1290.37V82.2C1290.37 84.8 1290.98 86.75 1292.22 88.05C1293.48 89.35 1295.25 90 1297.52 90C1299.18 90 1300.63 89.6667 1301.87 89C1303.1 88.3 1304.05 87.3 1304.72 86C1305.38 84.6667 1305.72 83.0667 1305.72 81.2V67.5H1310.52V94H1305.97V86.85L1306.72 88.75C1305.85 90.5167 1304.55 91.8833 1302.82 92.85C1301.08 93.8167 1299.13 94.3 1296.97 94.3ZM1333.7 94.3C1331.5 94.3 1329.49 93.8 1327.65 92.8C1325.85 91.7667 1324.4 90.25 1323.3 88.25C1322.24 86.25 1321.7 83.75 1321.7 80.75C1321.7 77.75 1322.22 75.25 1323.25 73.25C1324.32 71.25 1325.75 69.75 1327.55 68.75C1329.39 67.75 1331.44 67.25 1333.7 67.25C1336.3 67.25 1338.6 67.8167 1340.6 68.95C1342.6 70.0833 1344.19 71.6667 1345.35 73.7C1346.52 75.7 1347.1 78.05 1347.1 80.75C1347.1 83.45 1346.52 85.8167 1345.35 87.85C1344.19 89.8833 1342.6 91.4667 1340.6 92.6C1338.6 93.7333 1336.3 94.3 1333.7 94.3ZM1319.65 103.7V67.5H1324.25V74.65L1323.95 80.8L1324.45 86.95V103.7H1319.65ZM1333.3 90.1C1335 90.1 1336.52 89.7167 1337.85 88.95C1339.22 88.1833 1340.29 87.1 1341.05 85.7C1341.85 84.2667 1342.25 82.6167 1342.25 80.75C1342.25 78.85 1341.85 77.2167 1341.05 75.85C1340.29 74.45 1339.22 73.3667 1337.85 72.6C1336.52 71.8333 1335 71.45 1333.3 71.45C1331.64 71.45 1330.12 71.8333 1328.75 72.6C1327.42 73.3667 1326.35 74.45 1325.55 75.85C1324.79 77.2167 1324.4 78.85 1324.4 80.75C1324.4 82.6167 1324.79 84.2667 1325.55 85.7C1326.35 87.1 1327.42 88.1833 1328.75 88.95C1330.12 89.7167 1331.64 90.1 1333.3 90.1ZM1361.34 94.3C1359.14 94.3 1357.04 94 1355.04 93.4C1353.07 92.8 1351.52 92.0667 1350.39 91.2L1352.39 87.4C1353.52 88.1667 1354.92 88.8167 1356.59 89.35C1358.25 89.8833 1359.95 90.15 1361.69 90.15C1363.92 90.15 1365.52 89.8333 1366.49 89.2C1367.49 88.5667 1367.99 87.6833 1367.99 86.55C1367.99 85.7167 1367.69 85.0667 1367.09 84.6C1366.49 84.1333 1365.69 83.7833 1364.69 83.55C1363.72 83.3167 1362.64 83.1167 1361.44 82.95C1360.24 82.75 1359.04 82.5167 1357.84 82.25C1356.64 81.95 1355.54 81.55 1354.54 81.05C1353.54 80.5167 1352.74 79.8 1352.14 78.9C1351.54 77.9667 1351.24 76.7333 1351.24 75.2C1351.24 73.6 1351.69 72.2 1352.59 71C1353.49 69.8 1354.75 68.8833 1356.39 68.25C1358.05 67.5833 1360.02 67.25 1362.29 67.25C1364.02 67.25 1365.77 67.4667 1367.54 67.9C1369.34 68.3 1370.8 68.8833 1371.94 69.65L1369.89 73.45C1368.69 72.65 1367.44 72.1 1366.14 71.8C1364.84 71.5 1363.54 71.35 1362.24 71.35C1360.14 71.35 1358.57 71.7 1357.54 72.4C1356.5 73.0667 1355.99 73.9333 1355.99 75C1355.99 75.9 1356.29 76.6 1356.89 77.1C1357.52 77.5667 1358.32 77.9333 1359.29 78.2C1360.29 78.4667 1361.39 78.7 1362.59 78.9C1363.79 79.0667 1364.99 79.3 1366.19 79.6C1367.39 79.8667 1368.47 80.25 1369.44 80.75C1370.44 81.25 1371.24 81.95 1371.84 82.85C1372.47 83.75 1372.79 84.95 1372.79 86.45C1372.79 88.05 1372.32 89.4333 1371.39 90.6C1370.45 91.7667 1369.14 92.6833 1367.44 93.35C1365.74 93.9833 1363.7 94.3 1361.34 94.3ZM649.45 155.4C646.783 155.4 644.233 155 641.8 154.2C639.367 153.367 637.45 152.3 636.05 151L637.9 147.1C639.233 148.267 640.933 149.233 643 150C645.067 150.767 647.217 151.15 649.45 151.15C651.483 151.15 653.133 150.917 654.4 150.45C655.667 149.983 656.6 149.35 657.2 148.55C657.8 147.717 658.1 146.783 658.1 145.75C658.1 144.55 657.7 143.583 656.9 142.85C656.133 142.117 655.117 141.533 653.85 141.1C652.617 140.633 651.25 140.233 649.75 139.9C648.25 139.567 646.733 139.183 645.2 138.75C643.7 138.283 642.317 137.7 641.05 137C639.817 136.3 638.817 135.367 638.05 134.2C637.283 133 636.9 131.467 636.9 129.6C636.9 127.8 637.367 126.15 638.3 124.65C639.267 123.117 640.733 121.9 642.7 121C644.7 120.067 647.233 119.6 650.3 119.6C652.333 119.6 654.35 119.867 656.35 120.4C658.35 120.933 660.083 121.7 661.55 122.7L659.9 126.7C658.4 125.7 656.817 124.983 655.15 124.55C653.483 124.083 651.867 123.85 650.3 123.85C648.333 123.85 646.717 124.1 645.45 124.6C644.183 125.1 643.25 125.767 642.65 126.6C642.083 127.433 641.8 128.367 641.8 129.4C641.8 130.633 642.183 131.617 642.95 132.35C643.75 133.083 644.767 133.667 646 134.1C647.267 134.533 648.65 134.933 650.15 135.3C651.65 135.633 653.15 136.017 654.65 136.45C656.183 136.883 657.567 137.45 658.8 138.15C660.067 138.85 661.083 139.783 661.85 140.95C662.617 142.117 663 143.617 663 145.45C663 147.217 662.517 148.867 661.55 150.4C660.583 151.9 659.083 153.117 657.05 154.05C655.05 154.95 652.517 155.4 649.45 155.4ZM683.755 128.25C685.921 128.25 687.821 128.667 689.455 129.5C691.121 130.333 692.421 131.6 693.355 133.3C694.288 135 694.755 137.15 694.755 139.75V155H689.955V140.3C689.955 137.733 689.321 135.8 688.055 134.5C686.821 133.2 685.071 132.55 682.805 132.55C681.105 132.55 679.621 132.883 678.355 133.55C677.088 134.217 676.105 135.2 675.405 136.5C674.738 137.8 674.405 139.417 674.405 141.35V155H669.605V117.9H674.405V135.65L673.455 133.75C674.321 132.017 675.655 130.667 677.455 129.7C679.255 128.733 681.355 128.25 683.755 128.25ZM720.088 155V149.4L719.838 148.35V138.8C719.838 136.767 719.238 135.2 718.038 134.1C716.871 132.967 715.105 132.4 712.738 132.4C711.171 132.4 709.638 132.667 708.138 133.2C706.638 133.7 705.371 134.383 704.338 135.25L702.338 131.65C703.705 130.55 705.338 129.717 707.238 129.15C709.171 128.55 711.188 128.25 713.288 128.25C716.921 128.25 719.721 129.133 721.688 130.9C723.655 132.667 724.638 135.367 724.638 139V155H720.088ZM711.388 155.3C709.421 155.3 707.688 154.967 706.188 154.3C704.721 153.633 703.588 152.717 702.788 151.55C701.988 150.35 701.588 149 701.588 147.5C701.588 146.067 701.921 144.767 702.588 143.6C703.288 142.433 704.405 141.5 705.938 140.8C707.505 140.1 709.605 139.75 712.238 139.75H720.638V143.2H712.438C710.038 143.2 708.421 143.6 707.588 144.4C706.755 145.2 706.338 146.167 706.338 147.3C706.338 148.6 706.855 149.65 707.888 150.45C708.921 151.217 710.355 151.6 712.188 151.6C713.988 151.6 715.555 151.2 716.888 150.4C718.255 149.6 719.238 148.433 719.838 146.9L720.788 150.2C720.155 151.767 719.038 153.017 717.438 153.95C715.838 154.85 713.821 155.3 711.388 155.3ZM747.571 155.3C745.371 155.3 743.354 154.8 741.521 153.8C739.721 152.767 738.271 151.25 737.171 149.25C736.104 147.25 735.571 144.75 735.571 141.75C735.571 138.75 736.087 136.25 737.121 134.25C738.187 132.25 739.621 130.75 741.421 129.75C743.254 128.75 745.304 128.25 747.571 128.25C750.171 128.25 752.471 128.817 754.471 129.95C756.471 131.083 758.054 132.667 759.221 134.7C760.387 136.7 760.971 139.05 760.971 141.75C760.971 144.45 760.387 146.817 759.221 148.85C758.054 150.883 756.471 152.467 754.471 153.6C752.471 154.733 750.171 155.3 747.571 155.3ZM733.521 164.7V128.5H738.121V135.65L737.821 141.8L738.321 147.95V164.7H733.521ZM747.171 151.1C748.871 151.1 750.387 150.717 751.721 149.95C753.087 149.183 754.154 148.1 754.921 146.7C755.721 145.267 756.121 143.617 756.121 141.75C756.121 139.85 755.721 138.217 754.921 136.85C754.154 135.45 753.087 134.367 751.721 133.6C750.387 132.833 748.871 132.45 747.171 132.45C745.504 132.45 743.987 132.833 742.621 133.6C741.287 134.367 740.221 135.45 739.421 136.85C738.654 138.217 738.271 139.85 738.271 141.75C738.271 143.617 738.654 145.267 739.421 146.7C740.221 148.1 741.287 149.183 742.621 149.95C743.987 150.717 745.504 151.1 747.171 151.1ZM767.603 155V128.5H772.403V155H767.603ZM770.003 123.4C769.069 123.4 768.286 123.1 767.653 122.5C767.053 121.9 766.753 121.167 766.753 120.3C766.753 119.4 767.053 118.65 767.653 118.05C768.286 117.45 769.069 117.15 770.003 117.15C770.936 117.15 771.703 117.45 772.303 118.05C772.936 118.617 773.253 119.333 773.253 120.2C773.253 121.1 772.953 121.867 772.353 122.5C771.753 123.1 770.969 123.4 770.003 123.4ZM795.718 128.25C797.884 128.25 799.784 128.667 801.418 129.5C803.084 130.333 804.384 131.6 805.318 133.3C806.251 135 806.718 137.15 806.718 139.75V155H801.918V140.3C801.918 137.733 801.284 135.8 800.018 134.5C798.784 133.2 797.034 132.55 794.768 132.55C793.068 132.55 791.584 132.883 790.318 133.55C789.051 134.217 788.068 135.2 787.368 136.5C786.701 137.8 786.368 139.417 786.368 141.35V155H781.568V128.5H786.168V135.65L785.418 133.75C786.284 132.017 787.618 130.667 789.418 129.7C791.218 128.733 793.318 128.25 795.718 128.25ZM827.201 165C824.767 165 822.401 164.65 820.101 163.95C817.834 163.283 815.984 162.317 814.551 161.05L816.851 157.35C818.084 158.417 819.601 159.25 821.401 159.85C823.201 160.483 825.084 160.8 827.051 160.8C830.184 160.8 832.484 160.067 833.951 158.6C835.417 157.133 836.151 154.9 836.151 151.9V146.3L836.651 141.05L836.401 135.75V128.5H840.951V151.4C840.951 156.067 839.784 159.5 837.451 161.7C835.117 163.9 831.701 165 827.201 165ZM826.601 153.9C824.034 153.9 821.734 153.367 819.701 152.3C817.701 151.2 816.101 149.683 814.901 147.75C813.734 145.817 813.151 143.583 813.151 141.05C813.151 138.483 813.734 136.25 814.901 134.35C816.101 132.417 817.701 130.917 819.701 129.85C821.734 128.783 824.034 128.25 826.601 128.25C828.867 128.25 830.934 128.717 832.801 129.65C834.667 130.55 836.151 131.95 837.251 133.85C838.384 135.75 838.951 138.15 838.951 141.05C838.951 143.917 838.384 146.3 837.251 148.2C836.151 150.1 834.667 151.533 832.801 152.5C830.934 153.433 828.867 153.9 826.601 153.9ZM827.151 149.7C828.917 149.7 830.484 149.333 831.851 148.6C833.217 147.867 834.284 146.85 835.051 145.55C835.851 144.25 836.251 142.75 836.251 141.05C836.251 139.35 835.851 137.85 835.051 136.55C834.284 135.25 833.217 134.25 831.851 133.55C830.484 132.817 828.917 132.45 827.151 132.45C825.384 132.45 823.801 132.817 822.401 133.55C821.034 134.25 819.951 135.25 819.151 136.55C818.384 137.85 818.001 139.35 818.001 141.05C818.001 142.75 818.384 144.25 819.151 145.55C819.951 146.85 821.034 147.867 822.401 148.6C823.801 149.333 825.384 149.7 827.151 149.7ZM872.65 155.3C869.983 155.3 867.917 154.583 866.45 153.15C864.983 151.717 864.25 149.667 864.25 147V122.7H869.05V146.8C869.05 148.233 869.4 149.333 870.1 150.1C870.833 150.867 871.867 151.25 873.2 151.25C874.7 151.25 875.95 150.833 876.95 150L878.45 153.45C877.717 154.083 876.833 154.55 875.8 154.85C874.8 155.15 873.75 155.3 872.65 155.3ZM859.75 132.45V128.5H876.65V132.45H859.75ZM898.403 128.25C900.57 128.25 902.47 128.667 904.103 129.5C905.77 130.333 907.07 131.6 908.003 133.3C908.936 135 909.403 137.15 909.403 139.75V155H904.603V140.3C904.603 137.733 903.97 135.8 902.703 134.5C901.47 133.2 899.72 132.55 897.453 132.55C895.753 132.55 894.27 132.883 893.003 133.55C891.736 134.217 890.753 135.2 890.053 136.5C889.386 137.8 889.053 139.417 889.053 141.35V155H884.253V117.9H889.053V135.65L888.103 133.75C888.97 132.017 890.303 130.667 892.103 129.7C893.903 128.733 896.003 128.25 898.403 128.25ZM930.086 155.3C927.253 155.3 924.753 154.717 922.586 153.55C920.453 152.383 918.786 150.783 917.586 148.75C916.42 146.717 915.836 144.383 915.836 141.75C915.836 139.117 916.403 136.783 917.536 134.75C918.703 132.717 920.286 131.133 922.286 130C924.32 128.833 926.603 128.25 929.136 128.25C931.703 128.25 933.97 128.817 935.936 129.95C937.903 131.083 939.436 132.683 940.536 134.75C941.67 136.783 942.236 139.167 942.236 141.9C942.236 142.1 942.22 142.333 942.186 142.6C942.186 142.867 942.17 143.117 942.136 143.35H919.586V139.9H939.636L937.686 141.1C937.72 139.4 937.37 137.883 936.636 136.55C935.903 135.217 934.886 134.183 933.586 133.45C932.32 132.683 930.836 132.3 929.136 132.3C927.47 132.3 925.986 132.683 924.686 133.45C923.386 134.183 922.37 135.233 921.636 136.6C920.903 137.933 920.536 139.467 920.536 141.2V142C920.536 143.767 920.936 145.35 921.736 146.75C922.57 148.117 923.72 149.183 925.186 149.95C926.653 150.717 928.336 151.1 930.236 151.1C931.803 151.1 933.22 150.833 934.486 150.3C935.786 149.767 936.92 148.967 937.886 147.9L940.536 151C939.336 152.4 937.836 153.467 936.036 154.2C934.27 154.933 932.286 155.3 930.086 155.3ZM967.529 136.55H985.579V140.85H967.529V136.55ZM968.029 155H963.029V120H987.729V124.35H968.029V155ZM1004.39 155.3C1002.12 155.3 1000.12 154.883 998.388 154.05C996.688 153.217 995.354 151.95 994.388 150.25C993.454 148.517 992.988 146.35 992.988 143.75V128.5H997.788V143.2C997.788 145.8 998.404 147.75 999.638 149.05C1000.9 150.35 1002.67 151 1004.94 151C1006.6 151 1008.05 150.667 1009.29 150C1010.52 149.3 1011.47 148.3 1012.14 147C1012.8 145.667 1013.14 144.067 1013.14 142.2V128.5H1017.94V155H1013.39V147.85L1014.14 149.75C1013.27 151.517 1011.97 152.883 1010.24 153.85C1008.5 154.817 1006.55 155.3 1004.39 155.3ZM1036.18 155.3C1033.51 155.3 1031.44 154.583 1029.98 153.15C1028.51 151.717 1027.78 149.667 1027.78 147V122.7H1032.58V146.8C1032.58 148.233 1032.93 149.333 1033.63 150.1C1034.36 150.867 1035.39 151.25 1036.73 151.25C1038.23 151.25 1039.48 150.833 1040.48 150L1041.98 153.45C1041.24 154.083 1040.36 154.55 1039.33 154.85C1038.33 155.15 1037.28 155.3 1036.18 155.3ZM1023.28 132.45V128.5H1040.18V132.45H1023.28ZM1058.93 155.3C1056.66 155.3 1054.66 154.883 1052.93 154.05C1051.23 153.217 1049.9 151.95 1048.93 150.25C1048 148.517 1047.53 146.35 1047.53 143.75V128.5H1052.33V143.2C1052.33 145.8 1052.95 147.75 1054.18 149.05C1055.45 150.35 1057.21 151 1059.48 151C1061.15 151 1062.6 150.667 1063.83 150C1065.06 149.3 1066.01 148.3 1066.68 147C1067.35 145.667 1067.68 144.067 1067.68 142.2V128.5H1072.48V155H1067.93V147.85L1068.68 149.75C1067.81 151.517 1066.51 152.883 1064.78 153.85C1063.05 154.817 1061.1 155.3 1058.93 155.3ZM1081.62 155V128.5H1086.22V135.7L1085.77 133.9C1086.5 132.067 1087.73 130.667 1089.47 129.7C1091.2 128.733 1093.33 128.25 1095.87 128.25V132.9C1095.67 132.867 1095.47 132.85 1095.27 132.85C1095.1 132.85 1094.93 132.85 1094.77 132.85C1092.2 132.85 1090.17 133.617 1088.67 135.15C1087.17 136.683 1086.42 138.9 1086.42 141.8V155H1081.62ZM1113.34 155.3C1110.5 155.3 1108 154.717 1105.84 153.55C1103.7 152.383 1102.04 150.783 1100.84 148.75C1099.67 146.717 1099.09 144.383 1099.09 141.75C1099.09 139.117 1099.65 136.783 1100.79 134.75C1101.95 132.717 1103.54 131.133 1105.54 130C1107.57 128.833 1109.85 128.25 1112.39 128.25C1114.95 128.25 1117.22 128.817 1119.19 129.95C1121.15 131.083 1122.69 132.683 1123.79 134.75C1124.92 136.783 1125.49 139.167 1125.49 141.9C1125.49 142.1 1125.47 142.333 1125.44 142.6C1125.44 142.867 1125.42 143.117 1125.39 143.35H1102.84V139.9H1122.89L1120.94 141.1C1120.97 139.4 1120.62 137.883 1119.89 136.55C1119.15 135.217 1118.14 134.183 1116.84 133.45C1115.57 132.683 1114.09 132.3 1112.39 132.3C1110.72 132.3 1109.24 132.683 1107.94 133.45C1106.64 134.183 1105.62 135.233 1104.89 136.6C1104.15 137.933 1103.79 139.467 1103.79 141.2V142C1103.79 143.767 1104.19 145.35 1104.99 146.75C1105.82 148.117 1106.97 149.183 1108.44 149.95C1109.9 150.717 1111.59 151.1 1113.49 151.1C1115.05 151.1 1116.47 150.833 1117.74 150.3C1119.04 149.767 1120.17 148.967 1121.14 147.9L1123.79 151C1122.59 152.4 1121.09 153.467 1119.29 154.2C1117.52 154.933 1115.54 155.3 1113.34 155.3Z" fill="#020126"/>
</svg>
