<svg width="1515" height="292" viewBox="0 0 1515 292" fill="none" xmlns="http://www.w3.org/2000/svg">
<path d="M33.6 128.6L32.48 103.96L91.2 43H114.56L65.76 94.84L54.24 107.48L33.6 128.6ZM15.04 155V43H35.84V155H15.04ZM93.12 155L50.24 103.96L64 88.76L117.44 155H93.12ZM119.738 118.84V102.2H163.738V118.84H119.738ZM187.54 155V43H236.5C248.66 43 259.327 45.3467 268.5 50.04C277.673 54.7333 284.82 61.24 289.94 69.56C295.06 77.88 297.62 87.6933 297.62 99C297.62 110.2 295.06 120.013 289.94 128.44C284.82 136.76 277.673 143.267 268.5 147.96C259.327 152.653 248.66 155 236.5 155H187.54ZM208.34 137.4H235.54C243.967 137.4 251.22 135.8 257.3 132.6C263.487 129.4 268.233 124.92 271.54 119.16C274.953 113.4 276.66 106.68 276.66 99C276.66 91.2133 274.953 84.4933 271.54 78.84C268.233 73.08 263.487 68.6 257.3 65.4C251.22 62.2 243.967 60.6 235.54 60.6H208.34V137.4ZM370.448 155V137.72L369.328 134.04V103.8C369.328 97.9333 367.568 93.4 364.048 90.2C360.528 86.8933 355.194 85.24 348.048 85.24C343.248 85.24 338.501 85.9867 333.808 87.48C329.221 88.9733 325.328 91.0533 322.128 93.72L314.288 79.16C318.874 75.64 324.314 73.0267 330.608 71.32C337.008 69.5067 343.621 68.6 350.448 68.6C362.821 68.6 372.368 71.5867 379.088 77.56C385.914 83.4267 389.328 92.5467 389.328 104.92V155H370.448ZM343.568 156.12C337.168 156.12 331.568 155.053 326.768 152.92C321.968 150.68 318.234 147.64 315.568 143.8C313.008 139.853 311.728 135.427 311.728 130.52C311.728 125.72 312.848 121.4 315.088 117.56C317.434 113.72 321.221 110.68 326.448 108.44C331.674 106.2 338.608 105.08 347.248 105.08H372.048V118.36H348.688C341.861 118.36 337.274 119.48 334.928 121.72C332.581 123.853 331.408 126.52 331.408 129.72C331.408 133.347 332.848 136.227 335.728 138.36C338.608 140.493 342.608 141.56 347.728 141.56C352.634 141.56 357.008 140.44 360.848 138.2C364.794 135.96 367.621 132.653 369.328 128.28L372.688 140.28C370.768 145.293 367.301 149.187 362.288 151.96C357.381 154.733 351.141 156.12 343.568 156.12ZM420.473 187.16C416.313 187.16 412.153 186.467 407.993 185.08C403.833 183.693 400.366 181.773 397.592 179.32L405.592 164.6C407.619 166.413 409.913 167.853 412.473 168.92C415.033 169.987 417.646 170.52 420.312 170.52C423.939 170.52 426.873 169.613 429.113 167.8C431.353 165.987 433.433 162.947 435.353 158.68L440.312 147.48L441.913 145.08L474.233 69.56H493.433L453.433 161.88C450.766 168.28 447.779 173.347 444.473 177.08C441.273 180.813 437.646 183.427 433.593 184.92C429.646 186.413 425.273 187.16 420.473 187.16ZM438.073 158.04L399.512 69.56H420.312L451.673 143.32L438.073 158.04ZM556.551 95.16C552.925 95.16 549.831 93.9333 547.271 91.48C544.711 88.92 543.431 85.72 543.431 81.88C543.431 77.8267 544.711 74.6267 547.271 72.28C549.831 69.8267 552.925 68.6 556.551 68.6C560.178 68.6 563.271 69.8267 565.831 72.28C568.391 74.6267 569.671 77.8267 569.671 81.88C569.671 85.72 568.391 88.92 565.831 91.48C563.271 93.9333 560.178 95.16 556.551 95.16ZM556.551 156.12C552.925 156.12 549.831 154.893 547.271 152.44C544.711 149.88 543.431 146.68 543.431 142.84C543.431 138.787 544.711 135.587 547.271 133.24C549.831 130.787 552.925 129.56 556.551 129.56C560.178 129.56 563.271 130.787 565.831 133.24C568.391 135.587 569.671 138.787 569.671 142.84C569.671 146.68 568.391 149.88 565.831 152.44C563.271 154.893 560.178 156.12 556.551 156.12Z" fill="#447EA3"/>
<path d="M9.48 252V249.28L20.88 238.28C21.8933 237.32 22.64 236.48 23.12 235.76C23.6267 235.013 23.96 234.333 24.12 233.72C24.3067 233.08 24.4 232.467 24.4 231.88C24.4 230.44 23.8933 229.307 22.88 228.48C21.8667 227.653 20.3867 227.24 18.44 227.24C16.9467 227.24 15.6 227.493 14.4 228C13.2 228.48 12.16 229.24 11.28 230.28L8.56 227.92C9.62667 226.56 11.0533 225.52 12.84 224.8C14.6533 224.053 16.64 223.68 18.8 223.68C20.7467 223.68 22.44 224 23.88 224.64C25.32 225.253 26.4267 226.147 27.2 227.32C28 228.493 28.4 229.88 28.4 231.48C28.4 232.387 28.28 233.28 28.04 234.16C27.8 235.04 27.3467 235.973 26.68 236.96C26.0133 237.947 25.0533 239.053 23.8 240.28L13.64 250.08L12.68 248.52H29.6V252H9.48ZM44.2897 252.32C42.103 252.32 40.143 251.76 38.4097 250.64C36.703 249.52 35.343 247.893 34.3297 245.76C33.343 243.627 32.8497 241.04 32.8497 238C32.8497 234.96 33.343 232.373 34.3297 230.24C35.343 228.107 36.703 226.48 38.4097 225.36C40.143 224.24 42.103 223.68 44.2897 223.68C46.4497 223.68 48.3964 224.24 50.1297 225.36C51.863 226.48 53.223 228.107 54.2097 230.24C55.1964 232.373 55.6897 234.96 55.6897 238C55.6897 241.04 55.1964 243.627 54.2097 245.76C53.223 247.893 51.863 249.52 50.1297 250.64C48.3964 251.76 46.4497 252.32 44.2897 252.32ZM44.2897 248.76C45.7564 248.76 47.0364 248.36 48.1297 247.56C49.2497 246.76 50.1164 245.56 50.7297 243.96C51.3697 242.36 51.6897 240.373 51.6897 238C51.6897 235.627 51.3697 233.64 50.7297 232.04C50.1164 230.44 49.2497 229.24 48.1297 228.44C47.0364 227.64 45.7564 227.24 44.2897 227.24C42.823 227.24 41.5297 227.64 40.4097 228.44C39.2897 229.24 38.4097 230.44 37.7697 232.04C37.1564 233.64 36.8497 235.627 36.8497 238C36.8497 240.373 37.1564 242.36 37.7697 243.96C38.4097 245.56 39.2897 246.76 40.4097 247.56C41.5297 248.36 42.823 248.76 44.2897 248.76ZM59.0894 252V249.28L70.4894 238.28C71.5027 237.32 72.2494 236.48 72.7294 235.76C73.236 235.013 73.5694 234.333 73.7294 233.72C73.916 233.08 74.0094 232.467 74.0094 231.88C74.0094 230.44 73.5027 229.307 72.4894 228.48C71.476 227.653 69.996 227.24 68.0494 227.24C66.556 227.24 65.2094 227.493 64.0094 228C62.8094 228.48 61.7694 229.24 60.8894 230.28L58.1694 227.92C59.236 226.56 60.6627 225.52 62.4494 224.8C64.2627 224.053 66.2494 223.68 68.4094 223.68C70.356 223.68 72.0494 224 73.4894 224.64C74.9294 225.253 76.036 226.147 76.8094 227.32C77.6094 228.493 78.0094 229.88 78.0094 231.48C78.0094 232.387 77.8894 233.28 77.6494 234.16C77.4094 235.04 76.956 235.973 76.2894 236.96C75.6227 237.947 74.6627 239.053 73.4094 240.28L63.2494 250.08L62.2894 248.52H79.2094V252H59.0894ZM91.0581 252.32C89.0848 252.32 87.1648 252.013 85.2981 251.4C83.4581 250.787 81.9515 249.96 80.7781 248.92L82.6181 245.76C83.5515 246.64 84.7648 247.36 86.2581 247.92C87.7515 248.48 89.3515 248.76 91.0581 248.76C93.1381 248.76 94.7515 248.32 95.8981 247.44C97.0715 246.533 97.6581 245.32 97.6581 243.8C97.6581 242.333 97.0981 241.16 95.9781 240.28C94.8848 239.373 93.1381 238.92 90.7381 238.92H88.4981V236.12L96.8181 225.88L97.3781 227.48H82.0581V224H100.538V226.72L92.2581 236.92L90.1781 235.68H91.4981C94.8848 235.68 97.4181 236.44 99.0981 237.96C100.805 239.48 101.658 241.413 101.658 243.76C101.658 245.333 101.271 246.773 100.498 248.08C99.7248 249.387 98.5515 250.427 96.9781 251.2C95.4315 251.947 93.4581 252.32 91.0581 252.32ZM126.571 252.32C124.438 252.32 122.398 252 120.451 251.36C118.504 250.693 116.971 249.84 115.851 248.8L117.331 245.68C118.398 246.613 119.758 247.387 121.411 248C123.064 248.613 124.784 248.92 126.571 248.92C128.198 248.92 129.518 248.733 130.531 248.36C131.544 247.987 132.291 247.48 132.771 246.84C133.251 246.173 133.491 245.427 133.491 244.6C133.491 243.64 133.171 242.867 132.531 242.28C131.918 241.693 131.104 241.227 130.091 240.88C129.104 240.507 128.011 240.187 126.811 239.92C125.611 239.653 124.398 239.347 123.171 239C121.971 238.627 120.864 238.16 119.851 237.6C118.864 237.04 118.064 236.293 117.451 235.36C116.838 234.4 116.531 233.173 116.531 231.68C116.531 230.24 116.904 228.92 117.651 227.72C118.424 226.493 119.598 225.52 121.171 224.8C122.771 224.053 124.798 223.68 127.251 223.68C128.878 223.68 130.491 223.893 132.091 224.32C133.691 224.747 135.078 225.36 136.251 226.16L134.931 229.36C133.731 228.56 132.464 227.987 131.131 227.64C129.798 227.267 128.504 227.08 127.251 227.08C125.678 227.08 124.384 227.28 123.371 227.68C122.358 228.08 121.611 228.613 121.131 229.28C120.678 229.947 120.451 230.693 120.451 231.52C120.451 232.507 120.758 233.293 121.371 233.88C122.011 234.467 122.824 234.933 123.811 235.28C124.824 235.627 125.931 235.947 127.131 236.24C128.331 236.507 129.531 236.813 130.731 237.16C131.958 237.507 133.064 237.96 134.051 238.52C135.064 239.08 135.878 239.827 136.491 240.76C137.104 241.693 137.411 242.893 137.411 244.36C137.411 245.773 137.024 247.093 136.251 248.32C135.478 249.52 134.278 250.493 132.651 251.24C131.051 251.96 129.024 252.32 126.571 252.32ZM152.135 252.24C149.868 252.24 147.868 251.773 146.135 250.84C144.428 249.907 143.095 248.627 142.135 247C141.201 245.373 140.735 243.507 140.735 241.4C140.735 239.293 141.188 237.427 142.095 235.8C143.028 234.173 144.295 232.907 145.895 232C147.521 231.067 149.348 230.6 151.375 230.6C153.428 230.6 155.241 231.053 156.815 231.96C158.388 232.867 159.615 234.147 160.495 235.8C161.401 237.427 161.855 239.333 161.855 241.52C161.855 241.68 161.841 241.867 161.815 242.08C161.815 242.293 161.801 242.493 161.775 242.68H143.735V239.92H159.775L158.215 240.88C158.241 239.52 157.961 238.307 157.375 237.24C156.788 236.173 155.975 235.347 154.935 234.76C153.921 234.147 152.735 233.84 151.375 233.84C150.041 233.84 148.855 234.147 147.815 234.76C146.775 235.347 145.961 236.187 145.375 237.28C144.788 238.347 144.495 239.573 144.495 240.96V241.6C144.495 243.013 144.815 244.28 145.455 245.4C146.121 246.493 147.041 247.347 148.215 247.96C149.388 248.573 150.735 248.88 152.255 248.88C153.508 248.88 154.641 248.667 155.655 248.24C156.695 247.813 157.601 247.173 158.375 246.32L160.495 248.8C159.535 249.92 158.335 250.773 156.895 251.36C155.481 251.947 153.895 252.24 152.135 252.24ZM178.427 252.24C176.667 252.24 175.054 251.84 173.587 251.04C172.147 250.213 170.987 249 170.107 247.4C169.254 245.8 168.827 243.8 168.827 241.4C168.827 239 169.24 237 170.067 235.4C170.92 233.8 172.067 232.6 173.507 231.8C174.974 231 176.614 230.6 178.427 230.6C180.507 230.6 182.347 231.053 183.947 231.96C185.547 232.867 186.814 234.133 187.747 235.76C188.68 237.36 189.147 239.24 189.147 241.4C189.147 243.56 188.68 245.453 187.747 247.08C186.814 248.707 185.547 249.973 183.947 250.88C182.347 251.787 180.507 252.24 178.427 252.24ZM167.187 259.76V230.8H170.867V236.52L170.627 241.44L171.027 246.36V259.76H167.187ZM178.107 248.88C179.467 248.88 180.68 248.573 181.747 247.96C182.84 247.347 183.694 246.48 184.307 245.36C184.947 244.213 185.267 242.893 185.267 241.4C185.267 239.88 184.947 238.573 184.307 237.48C183.694 236.36 182.84 235.493 181.747 234.88C180.68 234.267 179.467 233.96 178.107 233.96C176.774 233.96 175.56 234.267 174.467 234.88C173.4 235.493 172.547 236.36 171.907 237.48C171.294 238.573 170.987 239.88 170.987 241.4C170.987 242.893 171.294 244.213 171.907 245.36C172.547 246.48 173.4 247.347 174.467 247.96C175.56 248.573 176.774 248.88 178.107 248.88ZM201.733 252.24C199.599 252.24 197.946 251.667 196.773 250.52C195.599 249.373 195.013 247.733 195.013 245.6V226.16H198.853V245.44C198.853 246.587 199.133 247.467 199.693 248.08C200.279 248.693 201.106 249 202.173 249C203.373 249 204.373 248.667 205.173 248L206.373 250.76C205.786 251.267 205.079 251.64 204.253 251.88C203.453 252.12 202.613 252.24 201.733 252.24ZM191.413 233.96V230.8H204.933V233.96H191.413ZM219.752 252.24C217.485 252.24 215.485 251.773 213.752 250.84C212.045 249.907 210.712 248.627 209.752 247C208.819 245.373 208.352 243.507 208.352 241.4C208.352 239.293 208.805 237.427 209.712 235.8C210.645 234.173 211.912 232.907 213.512 232C215.139 231.067 216.965 230.6 218.992 230.6C221.045 230.6 222.859 231.053 224.432 231.96C226.005 232.867 227.232 234.147 228.112 235.8C229.019 237.427 229.472 239.333 229.472 241.52C229.472 241.68 229.459 241.867 229.432 242.08C229.432 242.293 229.419 242.493 229.392 242.68H211.352V239.92H227.392L225.832 240.88C225.859 239.52 225.579 238.307 224.992 237.24C224.405 236.173 223.592 235.347 222.552 234.76C221.539 234.147 220.352 233.84 218.992 233.84C217.659 233.84 216.472 234.147 215.432 234.76C214.392 235.347 213.579 236.187 212.992 237.28C212.405 238.347 212.112 239.573 212.112 240.96V241.6C212.112 243.013 212.432 244.28 213.072 245.4C213.739 246.493 214.659 247.347 215.832 247.96C217.005 248.573 218.352 248.88 219.872 248.88C221.125 248.88 222.259 248.667 223.272 248.24C224.312 247.813 225.219 247.173 225.992 246.32L228.112 248.8C227.152 249.92 225.952 250.773 224.512 251.36C223.099 251.947 221.512 252.24 219.752 252.24ZM261.324 230.6C263.031 230.6 264.537 230.933 265.844 231.6C267.151 232.267 268.164 233.28 268.884 234.64C269.631 236 270.004 237.72 270.004 239.8V252H266.164V240.24C266.164 238.187 265.684 236.64 264.724 235.6C263.764 234.56 262.417 234.04 260.684 234.04C259.404 234.04 258.284 234.307 257.324 234.84C256.364 235.373 255.617 236.16 255.084 237.2C254.577 238.24 254.324 239.533 254.324 241.08V252H250.484V240.24C250.484 238.187 250.004 236.64 249.044 235.6C248.111 234.56 246.764 234.04 245.004 234.04C243.751 234.04 242.644 234.307 241.684 234.84C240.724 235.373 239.977 236.16 239.444 237.2C238.911 238.24 238.644 239.533 238.644 241.08V252H234.804V230.8H238.484V236.44L237.884 235C238.551 233.613 239.577 232.533 240.964 231.76C242.351 230.987 243.964 230.6 245.804 230.6C247.831 230.6 249.577 231.107 251.044 232.12C252.511 233.107 253.471 234.613 253.924 236.64L252.364 236C253.004 234.373 254.124 233.067 255.724 232.08C257.324 231.093 259.191 230.6 261.324 230.6ZM288.31 252.24C286.496 252.24 284.856 251.84 283.39 251.04C281.95 250.213 280.803 249 279.95 247.4C279.123 245.8 278.71 243.8 278.71 241.4C278.71 239 279.136 237 279.99 235.4C280.87 233.8 282.03 232.6 283.47 231.8C284.936 231 286.55 230.6 288.31 230.6C290.39 230.6 292.23 231.053 293.83 231.96C295.43 232.867 296.696 234.133 297.63 235.76C298.563 237.36 299.03 239.24 299.03 241.4C299.03 243.56 298.563 245.453 297.63 247.08C296.696 248.707 295.43 249.973 293.83 250.88C292.23 251.787 290.39 252.24 288.31 252.24ZM277.07 252V222.32H280.91V236.44L280.51 241.36L280.75 246.28V252H277.07ZM287.99 248.88C289.35 248.88 290.563 248.573 291.63 247.96C292.723 247.347 293.576 246.48 294.19 245.36C294.83 244.213 295.15 242.893 295.15 241.4C295.15 239.88 294.83 238.573 294.19 237.48C293.576 236.36 292.723 235.493 291.63 234.88C290.563 234.267 289.35 233.96 287.99 233.96C286.656 233.96 285.443 234.267 284.35 234.88C283.283 235.493 282.43 236.36 281.79 237.48C281.176 238.573 280.87 239.88 280.87 241.4C280.87 242.893 281.176 244.213 281.79 245.36C282.43 246.48 283.283 247.347 284.35 247.96C285.443 248.573 286.656 248.88 287.99 248.88ZM313.775 252.24C311.509 252.24 309.509 251.773 307.775 250.84C306.069 249.907 304.735 248.627 303.775 247C302.842 245.373 302.375 243.507 302.375 241.4C302.375 239.293 302.829 237.427 303.735 235.8C304.669 234.173 305.935 232.907 307.535 232C309.162 231.067 310.989 230.6 313.015 230.6C315.069 230.6 316.882 231.053 318.455 231.96C320.029 232.867 321.255 234.147 322.135 235.8C323.042 237.427 323.495 239.333 323.495 241.52C323.495 241.68 323.482 241.867 323.455 242.08C323.455 242.293 323.442 242.493 323.415 242.68H305.375V239.92H321.415L319.855 240.88C319.882 239.52 319.602 238.307 319.015 237.24C318.429 236.173 317.615 235.347 316.575 234.76C315.562 234.147 314.375 233.84 313.015 233.84C311.682 233.84 310.495 234.147 309.455 234.76C308.415 235.347 307.602 236.187 307.015 237.28C306.429 238.347 306.135 239.573 306.135 240.96V241.6C306.135 243.013 306.455 244.28 307.095 245.4C307.762 246.493 308.682 247.347 309.855 247.96C311.029 248.573 312.375 248.88 313.895 248.88C315.149 248.88 316.282 248.667 317.295 248.24C318.335 247.813 319.242 247.173 320.015 246.32L322.135 248.8C321.175 249.92 319.975 250.773 318.535 251.36C317.122 251.947 315.535 252.24 313.775 252.24ZM328.828 252V230.8H332.508V236.56L332.148 235.12C332.734 233.653 333.721 232.533 335.108 231.76C336.494 230.987 338.201 230.6 340.228 230.6V234.32C340.068 234.293 339.908 234.28 339.748 234.28C339.614 234.28 339.481 234.28 339.348 234.28C337.294 234.28 335.668 234.893 334.468 236.12C333.268 237.347 332.668 239.12 332.668 241.44V252H328.828ZM358.976 252V225.6L360.696 227.48H352.656V224H362.936V252H358.976ZM377.621 252.32C375.647 252.32 373.727 252.013 371.861 251.4C370.021 250.787 368.514 249.96 367.341 248.92L369.181 245.76C370.114 246.64 371.327 247.36 372.821 247.92C374.314 248.48 375.914 248.76 377.621 248.76C379.701 248.76 381.314 248.32 382.461 247.44C383.634 246.533 384.221 245.32 384.221 243.8C384.221 242.333 383.661 241.16 382.541 240.28C381.447 239.373 379.701 238.92 377.301 238.92H375.061V236.12L383.381 225.88L383.941 227.48H368.621V224H387.101V226.72L378.821 236.92L376.741 235.68H378.061C381.447 235.68 383.981 236.44 385.661 237.96C387.367 239.48 388.221 241.413 388.221 243.76C388.221 245.333 387.834 246.773 387.061 248.08C386.287 249.387 385.114 250.427 383.541 251.2C381.994 251.947 380.021 252.32 377.621 252.32ZM403.053 242.68V239.36H413.813V242.68H403.053ZM433.468 252V225.6L435.188 227.48H427.148V224H437.428V252H433.468ZM452.593 252.32C450.619 252.32 448.699 252.013 446.833 251.4C444.993 250.787 443.486 249.96 442.313 248.92L444.153 245.76C445.086 246.64 446.299 247.36 447.793 247.92C449.286 248.48 450.873 248.76 452.553 248.76C454.686 248.76 456.326 248.307 457.473 247.4C458.619 246.493 459.193 245.28 459.193 243.76C459.193 242.72 458.939 241.813 458.433 241.04C457.926 240.267 457.046 239.68 455.793 239.28C454.566 238.853 452.873 238.64 450.713 238.64H444.353L445.833 224H461.633V227.48H447.313L449.393 225.52L448.233 237.08L446.153 235.16H451.553C454.353 235.16 456.606 235.52 458.313 236.24C460.019 236.96 461.259 237.96 462.033 239.24C462.806 240.493 463.193 241.947 463.193 243.6C463.193 245.2 462.806 246.667 462.033 248C461.259 249.307 460.086 250.36 458.513 251.16C456.966 251.933 454.993 252.32 452.593 252.32ZM471.394 239.168C469.986 239.168 468.898 238.808 468.13 238.088C467.362 237.352 466.978 236.272 466.978 234.848V223.352H469.978V234.776C469.978 235.384 470.13 235.856 470.434 236.192C470.754 236.528 471.194 236.696 471.754 236.696C472.426 236.696 472.986 236.52 473.434 236.168L474.274 238.304C473.922 238.592 473.49 238.808 472.978 238.952C472.466 239.096 471.938 239.168 471.394 239.168ZM464.866 228.68V226.28H473.41V228.68H464.866ZM484.733 226.04C485.757 226.04 486.669 226.24 487.469 226.64C488.285 227.04 488.925 227.656 489.389 228.488C489.853 229.304 490.085 230.36 490.085 231.656V239H487.085V232.04C487.085 230.904 486.813 230.056 486.269 229.496C485.741 228.936 484.997 228.656 484.037 228.656C483.333 228.656 482.709 228.8 482.165 229.088C481.621 229.376 481.197 229.808 480.893 230.384C480.605 230.944 480.461 231.656 480.461 232.52V239H477.461V221.192H480.461V229.64L479.813 228.584C480.261 227.768 480.909 227.144 481.757 226.712C482.621 226.264 483.613 226.04 484.733 226.04Z" fill="#020126"/>
<path d="M649.45 94.4C646.783 94.4 644.233 94 641.8 93.2C639.367 92.3667 637.45 91.3 636.05 90L637.9 86.1C639.233 87.2667 640.933 88.2333 643 89C645.067 89.7667 647.217 90.15 649.45 90.15C651.483 90.15 653.133 89.9167 654.4 89.45C655.667 88.9833 656.6 88.35 657.2 87.55C657.8 86.7167 658.1 85.7833 658.1 84.75C658.1 83.55 657.7 82.5833 656.9 81.85C656.133 81.1167 655.117 80.5333 653.85 80.1C652.617 79.6333 651.25 79.2333 649.75 78.9C648.25 78.5667 646.733 78.1833 645.2 77.75C643.7 77.2833 642.317 76.7 641.05 76C639.817 75.3 638.817 74.3667 638.05 73.2C637.283 72 636.9 70.4667 636.9 68.6C636.9 66.8 637.367 65.15 638.3 63.65C639.267 62.1167 640.733 60.9 642.7 60C644.7 59.0667 647.233 58.6 650.3 58.6C652.333 58.6 654.35 58.8667 656.35 59.4C658.35 59.9333 660.083 60.7 661.55 61.7L659.9 65.7C658.4 64.7 656.817 63.9833 655.15 63.55C653.483 63.0833 651.867 62.85 650.3 62.85C648.333 62.85 646.717 63.1 645.45 63.6C644.183 64.1 643.25 64.7667 642.65 65.6C642.083 66.4333 641.8 67.3667 641.8 68.4C641.8 69.6333 642.183 70.6167 642.95 71.35C643.75 72.0833 644.767 72.6667 646 73.1C647.267 73.5333 648.65 73.9333 650.15 74.3C651.65 74.6333 653.15 75.0167 654.65 75.45C656.183 75.8833 657.567 76.45 658.8 77.15C660.067 77.85 661.083 78.7833 661.85 79.95C662.617 81.1167 663 82.6167 663 84.45C663 86.2167 662.517 87.8667 661.55 89.4C660.583 90.9 659.083 92.1167 657.05 93.05C655.05 93.95 652.517 94.4 649.45 94.4ZM669.605 94V67.5H674.405V94H669.605ZM672.005 62.4C671.071 62.4 670.288 62.1 669.655 61.5C669.055 60.9 668.755 60.1667 668.755 59.3C668.755 58.4 669.055 57.65 669.655 57.05C670.288 56.45 671.071 56.15 672.005 56.15C672.938 56.15 673.705 56.45 674.305 57.05C674.938 57.6167 675.255 58.3333 675.255 59.2C675.255 60.1 674.955 60.8667 674.355 61.5C673.755 62.1 672.971 62.4 672.005 62.4ZM683.57 94V56.9H688.37V94H683.57ZM697.534 94V67.5H702.334V94H697.534ZM699.934 62.4C699.001 62.4 698.218 62.1 697.584 61.5C696.984 60.9 696.684 60.1667 696.684 59.3C696.684 58.4 696.984 57.65 697.584 57.05C698.218 56.45 699.001 56.15 699.934 56.15C700.868 56.15 701.634 56.45 702.234 57.05C702.868 57.6167 703.184 58.3333 703.184 59.2C703.184 60.1 702.884 60.8667 702.284 61.5C701.684 62.1 700.901 62.4 699.934 62.4ZM723.049 94.3C720.349 94.3 717.933 93.7167 715.799 92.55C713.699 91.3833 712.049 89.7833 710.849 87.75C709.649 85.7167 709.049 83.3833 709.049 80.75C709.049 78.1167 709.649 75.7833 710.849 73.75C712.049 71.7167 713.699 70.1333 715.799 69C717.933 67.8333 720.349 67.25 723.049 67.25C725.449 67.25 727.583 67.7333 729.449 68.7C731.349 69.6333 732.816 71.0333 733.849 72.9L730.199 75.25C729.333 73.95 728.266 73 726.999 72.4C725.766 71.7667 724.433 71.45 722.999 71.45C721.266 71.45 719.716 71.8333 718.349 72.6C716.983 73.3667 715.899 74.45 715.099 75.85C714.299 77.2167 713.899 78.85 713.899 80.75C713.899 82.65 714.299 84.3 715.099 85.7C715.899 87.1 716.983 88.1833 718.349 88.95C719.716 89.7167 721.266 90.1 722.999 90.1C724.433 90.1 725.766 89.8 726.999 89.2C728.266 88.5667 729.333 87.6 730.199 86.3L733.849 88.6C732.816 90.4333 731.349 91.85 729.449 92.85C727.583 93.8167 725.449 94.3 723.049 94.3ZM751.023 94.3C748.356 94.3 745.99 93.7167 743.923 92.55C741.856 91.3833 740.223 89.7833 739.023 87.75C737.823 85.6833 737.223 83.35 737.223 80.75C737.223 78.1167 737.823 75.7833 739.023 73.75C740.223 71.7167 741.856 70.1333 743.923 69C745.99 67.8333 748.356 67.25 751.023 67.25C753.656 67.25 756.006 67.8333 758.073 69C760.173 70.1333 761.806 71.7167 762.973 73.75C764.173 75.75 764.773 78.0833 764.773 80.75C764.773 83.3833 764.173 85.7167 762.973 87.75C761.806 89.7833 760.173 91.3833 758.073 92.55C756.006 93.7167 753.656 94.3 751.023 94.3ZM751.023 90.1C752.723 90.1 754.24 89.7167 755.573 88.95C756.94 88.1833 758.006 87.1 758.773 85.7C759.54 84.2667 759.923 82.6167 759.923 80.75C759.923 78.85 759.54 77.2167 758.773 75.85C758.006 74.45 756.94 73.3667 755.573 72.6C754.24 71.8333 752.723 71.45 751.023 71.45C749.323 71.45 747.806 71.8333 746.473 72.6C745.14 73.3667 744.073 74.45 743.273 75.85C742.473 77.2167 742.073 78.85 742.073 80.75C742.073 82.6167 742.473 84.2667 743.273 85.7C744.073 87.1 745.14 88.1833 746.473 88.95C747.806 89.7167 749.323 90.1 751.023 90.1ZM785.561 67.25C787.728 67.25 789.628 67.6667 791.261 68.5C792.928 69.3333 794.228 70.6 795.161 72.3C796.095 74 796.561 76.15 796.561 78.75V94H791.761V79.3C791.761 76.7333 791.128 74.8 789.861 73.5C788.628 72.2 786.878 71.55 784.611 71.55C782.911 71.55 781.428 71.8833 780.161 72.55C778.895 73.2167 777.911 74.2 777.211 75.5C776.545 76.8 776.211 78.4167 776.211 80.35V94H771.411V67.5H776.011V74.65L775.261 72.75C776.128 71.0167 777.461 69.6667 779.261 68.7C781.061 67.7333 783.161 67.25 785.561 67.25ZM829.672 94L814.272 59H819.672L833.822 91.3H830.722L844.972 59H849.972L834.622 94H829.672ZM868.184 94V88.4L867.934 87.35V77.8C867.934 75.7667 867.334 74.2 866.134 73.1C864.967 71.9667 863.2 71.4 860.834 71.4C859.267 71.4 857.734 71.6667 856.234 72.2C854.734 72.7 853.467 73.3833 852.434 74.25L850.434 70.65C851.8 69.55 853.434 68.7167 855.334 68.15C857.267 67.55 859.284 67.25 861.384 67.25C865.017 67.25 867.817 68.1333 869.784 69.9C871.75 71.6667 872.734 74.3667 872.734 78V94H868.184ZM859.484 94.3C857.517 94.3 855.784 93.9667 854.284 93.3C852.817 92.6333 851.684 91.7167 850.884 90.55C850.084 89.35 849.684 88 849.684 86.5C849.684 85.0667 850.017 83.7667 850.684 82.6C851.384 81.4333 852.5 80.5 854.034 79.8C855.6 79.1 857.7 78.75 860.334 78.75H868.734V82.2H860.534C858.134 82.2 856.517 82.6 855.684 83.4C854.85 84.2 854.434 85.1667 854.434 86.3C854.434 87.6 854.95 88.65 855.984 89.45C857.017 90.2167 858.45 90.6 860.284 90.6C862.084 90.6 863.65 90.2 864.984 89.4C866.35 88.6 867.334 87.4333 867.934 85.9L868.884 89.2C868.25 90.7667 867.134 92.0167 865.534 92.95C863.934 93.85 861.917 94.3 859.484 94.3ZM881.616 94V56.9H886.416V94H881.616ZM895.581 94V56.9H900.381V94H895.581ZM921.346 94.3C918.513 94.3 916.013 93.7167 913.846 92.55C911.713 91.3833 910.046 89.7833 908.846 87.75C907.679 85.7167 907.096 83.3833 907.096 80.75C907.096 78.1167 907.663 75.7833 908.796 73.75C909.963 71.7167 911.546 70.1333 913.546 69C915.579 67.8333 917.863 67.25 920.396 67.25C922.963 67.25 925.229 67.8167 927.196 68.95C929.163 70.0833 930.696 71.6833 931.796 73.75C932.929 75.7833 933.496 78.1667 933.496 80.9C933.496 81.1 933.479 81.3333 933.446 81.6C933.446 81.8667 933.429 82.1167 933.396 82.35H910.846V78.9H930.896L928.946 80.1C928.979 78.4 928.629 76.8833 927.896 75.55C927.163 74.2167 926.146 73.1833 924.846 72.45C923.579 71.6833 922.096 71.3 920.396 71.3C918.729 71.3 917.246 71.6833 915.946 72.45C914.646 73.1833 913.629 74.2333 912.896 75.6C912.163 76.9333 911.796 78.4667 911.796 80.2V81C911.796 82.7667 912.196 84.35 912.996 85.75C913.829 87.1167 914.979 88.1833 916.446 88.95C917.913 89.7167 919.596 90.1 921.496 90.1C923.063 90.1 924.479 89.8333 925.746 89.3C927.046 88.7667 928.179 87.9667 929.146 86.9L931.796 90C930.596 91.4 929.096 92.4667 927.296 93.2C925.529 93.9333 923.546 94.3 921.346 94.3ZM940.823 104C939.556 104 938.323 103.783 937.123 103.35C935.923 102.95 934.89 102.35 934.023 101.55L936.073 97.95C936.74 98.5833 937.473 99.0667 938.273 99.4C939.073 99.7333 939.923 99.9 940.823 99.9C941.99 99.9 942.956 99.6 943.723 99C944.49 98.4 945.206 97.3333 945.873 95.8L947.523 92.15L948.023 91.55L958.423 67.5H963.123L950.273 96.65C949.506 98.5167 948.64 99.9833 947.673 101.05C946.74 102.117 945.706 102.867 944.573 103.3C943.44 103.767 942.19 104 940.823 104ZM947.123 94.85L935.023 67.5H940.023L950.323 91.1L947.123 94.85ZM966.533 70.55L969.033 60.4L969.683 63.3C968.716 63.3 967.899 63 967.233 62.4C966.599 61.8 966.283 61 966.283 60C966.283 58.9667 966.599 58.15 967.233 57.55C967.899 56.9167 968.699 56.6 969.633 56.6C970.599 56.6 971.383 56.9333 971.983 57.6C972.583 58.2333 972.883 59.0333 972.883 60C972.883 60.3 972.866 60.6167 972.833 60.95C972.799 61.25 972.716 61.6 972.583 62C972.483 62.4 972.316 62.9167 972.083 63.55L969.683 70.55H966.533ZM986.531 94.3C984.331 94.3 982.231 94 980.231 93.4C978.264 92.8 976.714 92.0667 975.581 91.2L977.581 87.4C978.714 88.1667 980.114 88.8167 981.781 89.35C983.448 89.8833 985.148 90.15 986.881 90.15C989.114 90.15 990.714 89.8333 991.681 89.2C992.681 88.5667 993.181 87.6833 993.181 86.55C993.181 85.7167 992.881 85.0667 992.281 84.6C991.681 84.1333 990.881 83.7833 989.881 83.55C988.914 83.3167 987.831 83.1167 986.631 82.95C985.431 82.75 984.231 82.5167 983.031 82.25C981.831 81.95 980.731 81.55 979.731 81.05C978.731 80.5167 977.931 79.8 977.331 78.9C976.731 77.9667 976.431 76.7333 976.431 75.2C976.431 73.6 976.881 72.2 977.781 71C978.681 69.8 979.948 68.8833 981.581 68.25C983.248 67.5833 985.214 67.25 987.481 67.25C989.214 67.25 990.964 67.4667 992.731 67.9C994.531 68.3 995.998 68.8833 997.131 69.65L995.081 73.45C993.881 72.65 992.631 72.1 991.331 71.8C990.031 71.5 988.731 71.35 987.431 71.35C985.331 71.35 983.764 71.7 982.731 72.4C981.698 73.0667 981.181 73.9333 981.181 75C981.181 75.9 981.481 76.6 982.081 77.1C982.714 77.5667 983.514 77.9333 984.481 78.2C985.481 78.4667 986.581 78.7 987.781 78.9C988.981 79.0667 990.181 79.3 991.381 79.6C992.581 79.8667 993.664 80.25 994.631 80.75C995.631 81.25 996.431 81.95 997.031 82.85C997.664 83.75 997.981 84.95 997.981 86.45C997.981 88.05 997.514 89.4333 996.581 90.6C995.648 91.7667 994.331 92.6833 992.631 93.35C990.931 93.9833 988.898 94.3 986.531 94.3ZM1031.46 94.3C1029.26 94.3 1027.24 93.8 1025.41 92.8C1023.61 91.7667 1022.16 90.25 1021.06 88.25C1019.99 86.25 1019.46 83.75 1019.46 80.75C1019.46 77.75 1019.97 75.25 1021.01 73.25C1022.07 71.25 1023.51 69.75 1025.31 68.75C1027.14 67.75 1029.19 67.25 1031.46 67.25C1034.06 67.25 1036.36 67.8167 1038.36 68.95C1040.36 70.0833 1041.94 71.6667 1043.11 73.7C1044.27 75.7 1044.86 78.05 1044.86 80.75C1044.86 83.45 1044.27 85.8167 1043.11 87.85C1041.94 89.8833 1040.36 91.4667 1038.36 92.6C1036.36 93.7333 1034.06 94.3 1031.46 94.3ZM1017.41 103.7V67.5H1022.01V74.65L1021.71 80.8L1022.21 86.95V103.7H1017.41ZM1031.06 90.1C1032.76 90.1 1034.27 89.7167 1035.61 88.95C1036.97 88.1833 1038.04 87.1 1038.81 85.7C1039.61 84.2667 1040.01 82.6167 1040.01 80.75C1040.01 78.85 1039.61 77.2167 1038.81 75.85C1038.04 74.45 1036.97 73.3667 1035.61 72.6C1034.27 71.8333 1032.76 71.45 1031.06 71.45C1029.39 71.45 1027.87 71.8333 1026.51 72.6C1025.17 73.3667 1024.11 74.45 1023.31 75.85C1022.54 77.2167 1022.16 78.85 1022.16 80.75C1022.16 82.6167 1022.54 84.2667 1023.31 85.7C1024.11 87.1 1025.17 88.1833 1026.51 88.95C1027.87 89.7167 1029.39 90.1 1031.06 90.1ZM1051.49 94V67.5H1056.09V74.7L1055.64 72.9C1056.37 71.0667 1057.61 69.6667 1059.34 68.7C1061.07 67.7333 1063.21 67.25 1065.74 67.25V71.9C1065.54 71.8667 1065.34 71.85 1065.14 71.85C1064.97 71.85 1064.81 71.85 1064.64 71.85C1062.07 71.85 1060.04 72.6167 1058.54 74.15C1057.04 75.6833 1056.29 77.9 1056.29 80.8V94H1051.49ZM1083.21 94.3C1080.38 94.3 1077.88 93.7167 1075.71 92.55C1073.58 91.3833 1071.91 89.7833 1070.71 87.75C1069.54 85.7167 1068.96 83.3833 1068.96 80.75C1068.96 78.1167 1069.53 75.7833 1070.66 73.75C1071.83 71.7167 1073.41 70.1333 1075.41 69C1077.44 67.8333 1079.73 67.25 1082.26 67.25C1084.83 67.25 1087.09 67.8167 1089.06 68.95C1091.03 70.0833 1092.56 71.6833 1093.66 73.75C1094.79 75.7833 1095.36 78.1667 1095.36 80.9C1095.36 81.1 1095.34 81.3333 1095.31 81.6C1095.31 81.8667 1095.29 82.1167 1095.26 82.35H1072.71V78.9H1092.76L1090.81 80.1C1090.84 78.4 1090.49 76.8833 1089.76 75.55C1089.03 74.2167 1088.01 73.1833 1086.71 72.45C1085.44 71.6833 1083.96 71.3 1082.26 71.3C1080.59 71.3 1079.11 71.6833 1077.81 72.45C1076.51 73.1833 1075.49 74.2333 1074.76 75.6C1074.03 76.9333 1073.66 78.4667 1073.66 80.2V81C1073.66 82.7667 1074.06 84.35 1074.86 85.75C1075.69 87.1167 1076.84 88.1833 1078.31 88.95C1079.78 89.7167 1081.46 90.1 1083.36 90.1C1084.93 90.1 1086.34 89.8333 1087.61 89.3C1088.91 88.7667 1090.04 87.9667 1091.01 86.9L1093.66 90C1092.46 91.4 1090.96 92.4667 1089.16 93.2C1087.39 93.9333 1085.41 94.3 1083.21 94.3ZM1135.18 67.25C1137.31 67.25 1139.19 67.6667 1140.83 68.5C1142.46 69.3333 1143.73 70.6 1144.63 72.3C1145.56 74 1146.03 76.15 1146.03 78.75V94H1141.23V79.3C1141.23 76.7333 1140.63 74.8 1139.43 73.5C1138.23 72.2 1136.54 71.55 1134.38 71.55C1132.78 71.55 1131.38 71.8833 1130.18 72.55C1128.98 73.2167 1128.04 74.2 1127.38 75.5C1126.74 76.8 1126.43 78.4167 1126.43 80.35V94H1121.63V79.3C1121.63 76.7333 1121.03 74.8 1119.83 73.5C1118.66 72.2 1116.98 71.55 1114.78 71.55C1113.21 71.55 1111.83 71.8833 1110.63 72.55C1109.43 73.2167 1108.49 74.2 1107.83 75.5C1107.16 76.8 1106.83 78.4167 1106.83 80.35V94H1102.03V67.5H1106.63V74.55L1105.88 72.75C1106.71 71.0167 1107.99 69.6667 1109.73 68.7C1111.46 67.7333 1113.48 67.25 1115.78 67.25C1118.31 67.25 1120.49 67.8833 1122.33 69.15C1124.16 70.3833 1125.36 72.2667 1125.93 74.8L1123.98 74C1124.78 71.9667 1126.18 70.3333 1128.18 69.1C1130.18 67.8667 1132.51 67.25 1135.18 67.25ZM1154.86 94V67.5H1159.66V94H1154.86ZM1157.26 62.4C1156.33 62.4 1155.54 62.1 1154.91 61.5C1154.31 60.9 1154.01 60.1667 1154.01 59.3C1154.01 58.4 1154.31 57.65 1154.91 57.05C1155.54 56.45 1156.33 56.15 1157.26 56.15C1158.19 56.15 1158.96 56.45 1159.56 57.05C1160.19 57.6167 1160.51 58.3333 1160.51 59.2C1160.51 60.1 1160.21 60.8667 1159.61 61.5C1159.01 62.1 1158.23 62.4 1157.26 62.4ZM1180.62 94.3C1177.79 94.3 1175.29 93.7167 1173.12 92.55C1170.99 91.3833 1169.32 89.7833 1168.12 87.75C1166.96 85.7167 1166.37 83.3833 1166.37 80.75C1166.37 78.1167 1166.94 75.7833 1168.07 73.75C1169.24 71.7167 1170.82 70.1333 1172.82 69C1174.86 67.8333 1177.14 67.25 1179.67 67.25C1182.24 67.25 1184.51 67.8167 1186.47 68.95C1188.44 70.0833 1189.97 71.6833 1191.07 73.75C1192.21 75.7833 1192.77 78.1667 1192.77 80.9C1192.77 81.1 1192.76 81.3333 1192.72 81.6C1192.72 81.8667 1192.71 82.1167 1192.67 82.35H1170.12V78.9H1190.17L1188.22 80.1C1188.26 78.4 1187.91 76.8833 1187.17 75.55C1186.44 74.2167 1185.42 73.1833 1184.12 72.45C1182.86 71.6833 1181.37 71.3 1179.67 71.3C1178.01 71.3 1176.52 71.6833 1175.22 72.45C1173.92 73.1833 1172.91 74.2333 1172.17 75.6C1171.44 76.9333 1171.07 78.4667 1171.07 80.2V81C1171.07 82.7667 1171.47 84.35 1172.27 85.75C1173.11 87.1167 1174.26 88.1833 1175.72 88.95C1177.19 89.7167 1178.87 90.1 1180.77 90.1C1182.34 90.1 1183.76 89.8333 1185.02 89.3C1186.32 88.7667 1187.46 87.9667 1188.42 86.9L1191.07 90C1189.87 91.4 1188.37 92.4667 1186.57 93.2C1184.81 93.9333 1182.82 94.3 1180.62 94.3ZM1199.44 94V67.5H1204.04V74.7L1203.59 72.9C1204.32 71.0667 1205.56 69.6667 1207.29 68.7C1209.02 67.7333 1211.16 67.25 1213.69 67.25V71.9C1213.49 71.8667 1213.29 71.85 1213.09 71.85C1212.92 71.85 1212.76 71.85 1212.59 71.85C1210.02 71.85 1207.99 72.6167 1206.49 74.15C1204.99 75.6833 1204.24 77.9 1204.24 80.8V94H1199.44ZM643.65 146.55L643.4 140.45L663.25 120H668.95L653.6 136.2L650.8 139.3L643.65 146.55ZM639.25 155V120H644.25V155H639.25ZM664.05 155L649.7 138.3L653.05 134.6L669.9 155H664.05ZM684.666 155.3C681.999 155.3 679.632 154.717 677.566 153.55C675.499 152.383 673.866 150.783 672.666 148.75C671.466 146.683 670.866 144.35 670.866 141.75C670.866 139.117 671.466 136.783 672.666 134.75C673.866 132.717 675.499 131.133 677.566 130C679.632 128.833 681.999 128.25 684.666 128.25C687.299 128.25 689.649 128.833 691.716 130C693.816 131.133 695.449 132.717 696.616 134.75C697.816 136.75 698.416 139.083 698.416 141.75C698.416 144.383 697.816 146.717 696.616 148.75C695.449 150.783 693.816 152.383 691.716 153.55C689.649 154.717 687.299 155.3 684.666 155.3ZM684.666 151.1C686.366 151.1 687.882 150.717 689.216 149.95C690.582 149.183 691.649 148.1 692.416 146.7C693.182 145.267 693.566 143.617 693.566 141.75C693.566 139.85 693.182 138.217 692.416 136.85C691.649 135.45 690.582 134.367 689.216 133.6C687.882 132.833 686.366 132.45 684.666 132.45C682.966 132.45 681.449 132.833 680.116 133.6C678.782 134.367 677.716 135.45 676.916 136.85C676.116 138.217 675.716 139.85 675.716 141.75C675.716 143.617 676.116 145.267 676.916 146.7C677.716 148.1 678.782 149.183 680.116 149.95C681.449 150.717 682.966 151.1 684.666 151.1ZM705.054 155V128.5H709.654V135.7L709.204 133.9C709.937 132.067 711.171 130.667 712.904 129.7C714.637 128.733 716.771 128.25 719.304 128.25V132.9C719.104 132.867 718.904 132.85 718.704 132.85C718.537 132.85 718.371 132.85 718.204 132.85C715.637 132.85 713.604 133.617 712.104 135.15C710.604 136.683 709.854 138.9 709.854 141.8V155H705.054ZM736.776 155.3C733.942 155.3 731.442 154.717 729.276 153.55C727.142 152.383 725.476 150.783 724.276 148.75C723.109 146.717 722.526 144.383 722.526 141.75C722.526 139.117 723.092 136.783 724.226 134.75C725.392 132.717 726.976 131.133 728.976 130C731.009 128.833 733.292 128.25 735.826 128.25C738.392 128.25 740.659 128.817 742.626 129.95C744.592 131.083 746.126 132.683 747.226 134.75C748.359 136.783 748.926 139.167 748.926 141.9C748.926 142.1 748.909 142.333 748.876 142.6C748.876 142.867 748.859 143.117 748.826 143.35H726.276V139.9H746.326L744.376 141.1C744.409 139.4 744.059 137.883 743.326 136.55C742.592 135.217 741.576 134.183 740.276 133.45C739.009 132.683 737.526 132.3 735.826 132.3C734.159 132.3 732.676 132.683 731.376 133.45C730.076 134.183 729.059 135.233 728.326 136.6C727.592 137.933 727.226 139.467 727.226 141.2V142C727.226 143.767 727.626 145.35 728.426 146.75C729.259 148.117 730.409 149.183 731.876 149.95C733.342 150.717 735.026 151.1 736.926 151.1C738.492 151.1 739.909 150.833 741.176 150.3C742.476 149.767 743.609 148.967 744.576 147.9L747.226 151C746.026 152.4 744.526 153.467 742.726 154.2C740.959 154.933 738.976 155.3 736.776 155.3ZM771.309 155V149.4L771.059 148.35V138.8C771.059 136.767 770.459 135.2 769.259 134.1C768.092 132.967 766.325 132.4 763.959 132.4C762.392 132.4 760.859 132.667 759.359 133.2C757.859 133.7 756.592 134.383 755.559 135.25L753.559 131.65C754.925 130.55 756.559 129.717 758.459 129.15C760.392 128.55 762.409 128.25 764.509 128.25C768.142 128.25 770.942 129.133 772.909 130.9C774.875 132.667 775.859 135.367 775.859 139V155H771.309ZM762.609 155.3C760.642 155.3 758.909 154.967 757.409 154.3C755.942 153.633 754.809 152.717 754.009 151.55C753.209 150.35 752.809 149 752.809 147.5C752.809 146.067 753.142 144.767 753.809 143.6C754.509 142.433 755.625 141.5 757.159 140.8C758.725 140.1 760.825 139.75 763.459 139.75H771.859V143.2H763.659C761.259 143.2 759.642 143.6 758.809 144.4C757.975 145.2 757.559 146.167 757.559 147.3C757.559 148.6 758.075 149.65 759.109 150.45C760.142 151.217 761.575 151.6 763.409 151.6C765.209 151.6 766.775 151.2 768.109 150.4C769.475 149.6 770.459 148.433 771.059 146.9L772.009 150.2C771.375 151.767 770.259 153.017 768.659 153.95C767.059 154.85 765.042 155.3 762.609 155.3ZM798.891 128.25C801.058 128.25 802.958 128.667 804.591 129.5C806.258 130.333 807.558 131.6 808.491 133.3C809.425 135 809.891 137.15 809.891 139.75V155H805.091V140.3C805.091 137.733 804.458 135.8 803.191 134.5C801.958 133.2 800.208 132.55 797.941 132.55C796.241 132.55 794.758 132.883 793.491 133.55C792.225 134.217 791.241 135.2 790.541 136.5C789.875 137.8 789.541 139.417 789.541 141.35V155H784.741V128.5H789.341V135.65L788.591 133.75C789.458 132.017 790.791 130.667 792.591 129.7C794.391 128.733 796.491 128.25 798.891 128.25ZM827.602 155L843.452 120H848.402L864.302 155H859.052L844.902 122.8H846.902L832.752 155H827.602ZM834.352 146.25L835.702 142.25H855.402L856.852 146.25H834.352ZM901.973 128.25C904.107 128.25 905.99 128.667 907.623 129.5C909.257 130.333 910.523 131.6 911.423 133.3C912.357 135 912.823 137.15 912.823 139.75V155H908.023V140.3C908.023 137.733 907.423 135.8 906.223 134.5C905.023 133.2 903.34 132.55 901.173 132.55C899.573 132.55 898.173 132.883 896.973 133.55C895.773 134.217 894.84 135.2 894.173 136.5C893.54 137.8 893.223 139.417 893.223 141.35V155H888.423V140.3C888.423 137.733 887.823 135.8 886.623 134.5C885.457 133.2 883.773 132.55 881.573 132.55C880.007 132.55 878.623 132.883 877.423 133.55C876.223 134.217 875.29 135.2 874.623 136.5C873.957 137.8 873.623 139.417 873.623 141.35V155H868.823V128.5H873.423V135.55L872.673 133.75C873.507 132.017 874.79 130.667 876.523 129.7C878.257 128.733 880.273 128.25 882.573 128.25C885.107 128.25 887.29 128.883 889.123 130.15C890.957 131.383 892.157 133.267 892.723 135.8L890.773 135C891.573 132.967 892.973 131.333 894.973 130.1C896.973 128.867 899.307 128.25 901.973 128.25ZM933.455 155.3C930.622 155.3 928.122 154.717 925.955 153.55C923.822 152.383 922.155 150.783 920.955 148.75C919.789 146.717 919.205 144.383 919.205 141.75C919.205 139.117 919.772 136.783 920.905 134.75C922.072 132.717 923.655 131.133 925.655 130C927.689 128.833 929.972 128.25 932.505 128.25C935.072 128.25 937.339 128.817 939.305 129.95C941.272 131.083 942.805 132.683 943.905 134.75C945.039 136.783 945.605 139.167 945.605 141.9C945.605 142.1 945.589 142.333 945.555 142.6C945.555 142.867 945.539 143.117 945.505 143.35H922.955V139.9H943.005L941.055 141.1C941.089 139.4 940.739 137.883 940.005 136.55C939.272 135.217 938.255 134.183 936.955 133.45C935.689 132.683 934.205 132.3 932.505 132.3C930.839 132.3 929.355 132.683 928.055 133.45C926.755 134.183 925.739 135.233 925.005 136.6C924.272 137.933 923.905 139.467 923.905 141.2V142C923.905 143.767 924.305 145.35 925.105 146.75C925.939 148.117 927.089 149.183 928.555 149.95C930.022 150.717 931.705 151.1 933.605 151.1C935.172 151.1 936.589 150.833 937.855 150.3C939.155 149.767 940.289 148.967 941.255 147.9L943.905 151C942.705 152.4 941.205 153.467 939.405 154.2C937.639 154.933 935.655 155.3 933.455 155.3ZM952.271 155V128.5H956.871V135.7L956.421 133.9C957.154 132.067 958.387 130.667 960.121 129.7C961.854 128.733 963.987 128.25 966.521 128.25V132.9C966.321 132.867 966.121 132.85 965.921 132.85C965.754 132.85 965.587 132.85 965.421 132.85C962.854 132.85 960.821 133.617 959.321 135.15C957.821 136.683 957.071 138.9 957.071 141.8V155H952.271ZM972.437 155V128.5H977.237V155H972.437ZM974.837 123.4C973.903 123.4 973.12 123.1 972.487 122.5C971.887 121.9 971.587 121.167 971.587 120.3C971.587 119.4 971.887 118.65 972.487 118.05C973.12 117.45 973.903 117.15 974.837 117.15C975.77 117.15 976.537 117.45 977.137 118.05C977.77 118.617 978.087 119.333 978.087 120.2C978.087 121.1 977.787 121.867 977.187 122.5C976.587 123.1 975.803 123.4 974.837 123.4ZM997.952 155.3C995.252 155.3 992.835 154.717 990.702 153.55C988.602 152.383 986.952 150.783 985.752 148.75C984.552 146.717 983.952 144.383 983.952 141.75C983.952 139.117 984.552 136.783 985.752 134.75C986.952 132.717 988.602 131.133 990.702 130C992.835 128.833 995.252 128.25 997.952 128.25C1000.35 128.25 1002.48 128.733 1004.35 129.7C1006.25 130.633 1007.72 132.033 1008.75 133.9L1005.1 136.25C1004.23 134.95 1003.17 134 1001.9 133.4C1000.67 132.767 999.335 132.45 997.902 132.45C996.168 132.45 994.618 132.833 993.252 133.6C991.885 134.367 990.802 135.45 990.002 136.85C989.202 138.217 988.802 139.85 988.802 141.75C988.802 143.65 989.202 145.3 990.002 146.7C990.802 148.1 991.885 149.183 993.252 149.95C994.618 150.717 996.168 151.1 997.902 151.1C999.335 151.1 1000.67 150.8 1001.9 150.2C1003.17 149.567 1004.23 148.6 1005.1 147.3L1008.75 149.6C1007.72 151.433 1006.25 152.85 1004.35 153.85C1002.48 154.817 1000.35 155.3 997.952 155.3ZM1031.42 155V149.4L1031.17 148.35V138.8C1031.17 136.767 1030.57 135.2 1029.37 134.1C1028.2 132.967 1026.43 132.4 1024.07 132.4C1022.5 132.4 1020.97 132.667 1019.47 133.2C1017.97 133.7 1016.7 134.383 1015.67 135.25L1013.67 131.65C1015.03 130.55 1016.67 129.717 1018.57 129.15C1020.5 128.55 1022.52 128.25 1024.62 128.25C1028.25 128.25 1031.05 129.133 1033.02 130.9C1034.98 132.667 1035.97 135.367 1035.97 139V155H1031.42ZM1022.72 155.3C1020.75 155.3 1019.02 154.967 1017.52 154.3C1016.05 153.633 1014.92 152.717 1014.12 151.55C1013.32 150.35 1012.92 149 1012.92 147.5C1012.92 146.067 1013.25 144.767 1013.92 143.6C1014.62 142.433 1015.73 141.5 1017.27 140.8C1018.83 140.1 1020.93 139.75 1023.57 139.75H1031.97V143.2H1023.77C1021.37 143.2 1019.75 143.6 1018.92 144.4C1018.08 145.2 1017.67 146.167 1017.67 147.3C1017.67 148.6 1018.18 149.65 1019.22 150.45C1020.25 151.217 1021.68 151.6 1023.52 151.6C1025.32 151.6 1026.88 151.2 1028.22 150.4C1029.58 149.6 1030.57 148.433 1031.17 146.9L1032.12 150.2C1031.48 151.767 1030.37 153.017 1028.77 153.95C1027.17 154.85 1025.15 155.3 1022.72 155.3ZM1059 128.25C1061.17 128.25 1063.07 128.667 1064.7 129.5C1066.37 130.333 1067.67 131.6 1068.6 133.3C1069.53 135 1070 137.15 1070 139.75V155H1065.2V140.3C1065.2 137.733 1064.57 135.8 1063.3 134.5C1062.07 133.2 1060.32 132.55 1058.05 132.55C1056.35 132.55 1054.87 132.883 1053.6 133.55C1052.33 134.217 1051.35 135.2 1050.65 136.5C1049.98 137.8 1049.65 139.417 1049.65 141.35V155H1044.85V128.5H1049.45V135.65L1048.7 133.75C1049.57 132.017 1050.9 130.667 1052.7 129.7C1054.5 128.733 1056.6 128.25 1059 128.25ZM1099.91 155.3C1097.71 155.3 1095.61 155 1093.61 154.4C1091.64 153.8 1090.09 153.067 1088.96 152.2L1090.96 148.4C1092.09 149.167 1093.49 149.817 1095.16 150.35C1096.83 150.883 1098.53 151.15 1100.26 151.15C1102.49 151.15 1104.09 150.833 1105.06 150.2C1106.06 149.567 1106.56 148.683 1106.56 147.55C1106.56 146.717 1106.26 146.067 1105.66 145.6C1105.06 145.133 1104.26 144.783 1103.26 144.55C1102.29 144.317 1101.21 144.117 1100.01 143.95C1098.81 143.75 1097.61 143.517 1096.41 143.25C1095.21 142.95 1094.11 142.55 1093.11 142.05C1092.11 141.517 1091.31 140.8 1090.71 139.9C1090.11 138.967 1089.81 137.733 1089.81 136.2C1089.81 134.6 1090.26 133.2 1091.16 132C1092.06 130.8 1093.33 129.883 1094.96 129.25C1096.63 128.583 1098.59 128.25 1100.86 128.25C1102.59 128.25 1104.34 128.467 1106.11 128.9C1107.91 129.3 1109.38 129.883 1110.51 130.65L1108.46 134.45C1107.26 133.65 1106.01 133.1 1104.71 132.8C1103.41 132.5 1102.11 132.35 1100.81 132.35C1098.71 132.35 1097.14 132.7 1096.11 133.4C1095.08 134.067 1094.56 134.933 1094.56 136C1094.56 136.9 1094.86 137.6 1095.46 138.1C1096.09 138.567 1096.89 138.933 1097.86 139.2C1098.86 139.467 1099.96 139.7 1101.16 139.9C1102.36 140.067 1103.56 140.3 1104.76 140.6C1105.96 140.867 1107.04 141.25 1108.01 141.75C1109.01 142.25 1109.81 142.95 1110.41 143.85C1111.04 144.75 1111.36 145.95 1111.36 147.45C1111.36 149.05 1110.89 150.433 1109.96 151.6C1109.03 152.767 1107.71 153.683 1106.01 154.35C1104.31 154.983 1102.28 155.3 1099.91 155.3ZM1126.46 155.3C1123.79 155.3 1121.73 154.583 1120.26 153.15C1118.79 151.717 1118.06 149.667 1118.06 147V122.7H1122.86V146.8C1122.86 148.233 1123.21 149.333 1123.91 150.1C1124.64 150.867 1125.68 151.25 1127.01 151.25C1128.51 151.25 1129.76 150.833 1130.76 150L1132.26 153.45C1131.53 154.083 1130.64 154.55 1129.61 154.85C1128.61 155.15 1127.56 155.3 1126.46 155.3ZM1113.56 132.45V128.5H1130.46V132.45H1113.56ZM1154.51 155V149.4L1154.26 148.35V138.8C1154.26 136.767 1153.66 135.2 1152.46 134.1C1151.3 132.967 1149.53 132.4 1147.16 132.4C1145.6 132.4 1144.06 132.667 1142.56 133.2C1141.06 133.7 1139.8 134.383 1138.76 135.25L1136.76 131.65C1138.13 130.55 1139.76 129.717 1141.66 129.15C1143.6 128.55 1145.61 128.25 1147.71 128.25C1151.35 128.25 1154.15 129.133 1156.11 130.9C1158.08 132.667 1159.06 135.367 1159.06 139V155H1154.51ZM1145.81 155.3C1143.85 155.3 1142.11 154.967 1140.61 154.3C1139.15 153.633 1138.01 152.717 1137.21 151.55C1136.41 150.35 1136.01 149 1136.01 147.5C1136.01 146.067 1136.35 144.767 1137.01 143.6C1137.71 142.433 1138.83 141.5 1140.36 140.8C1141.93 140.1 1144.03 139.75 1146.66 139.75H1155.06V143.2H1146.86C1144.46 143.2 1142.85 143.6 1142.01 144.4C1141.18 145.2 1140.76 146.167 1140.76 147.3C1140.76 148.6 1141.28 149.65 1142.31 150.45C1143.35 151.217 1144.78 151.6 1146.61 151.6C1148.41 151.6 1149.98 151.2 1151.31 150.4C1152.68 149.6 1153.66 148.433 1154.26 146.9L1155.21 150.2C1154.58 151.767 1153.46 153.017 1151.86 153.95C1150.26 154.85 1148.25 155.3 1145.81 155.3ZM1167.94 155V128.5H1172.54V135.7L1172.09 133.9C1172.83 132.067 1174.06 130.667 1175.79 129.7C1177.53 128.733 1179.66 128.25 1182.19 128.25V132.9C1181.99 132.867 1181.79 132.85 1181.59 132.85C1181.43 132.85 1181.26 132.85 1181.09 132.85C1178.53 132.85 1176.49 133.617 1174.99 135.15C1173.49 136.683 1172.74 138.9 1172.74 141.8V155H1167.94ZM1198.28 155.3C1195.62 155.3 1193.55 154.583 1192.08 153.15C1190.62 151.717 1189.88 149.667 1189.88 147V122.7H1194.68V146.8C1194.68 148.233 1195.03 149.333 1195.73 150.1C1196.47 150.867 1197.5 151.25 1198.83 151.25C1200.33 151.25 1201.58 150.833 1202.58 150L1204.08 153.45C1203.35 154.083 1202.47 154.55 1201.43 154.85C1200.43 155.15 1199.38 155.3 1198.28 155.3ZM1185.38 132.45V128.5H1202.28V132.45H1185.38ZM1221.04 155.3C1218.77 155.3 1216.77 154.883 1215.04 154.05C1213.34 153.217 1212 151.95 1211.04 150.25C1210.1 148.517 1209.64 146.35 1209.64 143.75V128.5H1214.44V143.2C1214.44 145.8 1215.05 147.75 1216.29 149.05C1217.55 150.35 1219.32 151 1221.59 151C1223.25 151 1224.7 150.667 1225.94 150C1227.17 149.3 1228.12 148.3 1228.79 147C1229.45 145.667 1229.79 144.067 1229.79 142.2V128.5H1234.59V155H1230.04V147.85L1230.79 149.75C1229.92 151.517 1228.62 152.883 1226.89 153.85C1225.15 154.817 1223.2 155.3 1221.04 155.3ZM1257.78 155.3C1255.58 155.3 1253.56 154.8 1251.73 153.8C1249.93 152.767 1248.48 151.25 1247.38 149.25C1246.31 147.25 1245.78 144.75 1245.78 141.75C1245.78 138.75 1246.29 136.25 1247.33 134.25C1248.39 132.25 1249.83 130.75 1251.63 129.75C1253.46 128.75 1255.51 128.25 1257.78 128.25C1260.38 128.25 1262.68 128.817 1264.68 129.95C1266.68 131.083 1268.26 132.667 1269.43 134.7C1270.59 136.7 1271.18 139.05 1271.18 141.75C1271.18 144.45 1270.59 146.817 1269.43 148.85C1268.26 150.883 1266.68 152.467 1264.68 153.6C1262.68 154.733 1260.38 155.3 1257.78 155.3ZM1243.73 164.7V128.5H1248.33V135.65L1248.03 141.8L1248.53 147.95V164.7H1243.73ZM1257.38 151.1C1259.08 151.1 1260.59 150.717 1261.93 149.95C1263.29 149.183 1264.36 148.1 1265.13 146.7C1265.93 145.267 1266.33 143.617 1266.33 141.75C1266.33 139.85 1265.93 138.217 1265.13 136.85C1264.36 135.45 1263.29 134.367 1261.93 133.6C1260.59 132.833 1259.08 132.45 1257.38 132.45C1255.71 132.45 1254.19 132.833 1252.83 133.6C1251.49 134.367 1250.43 135.45 1249.63 136.85C1248.86 138.217 1248.48 139.85 1248.48 141.75C1248.48 143.617 1248.86 145.267 1249.63 146.7C1250.43 148.1 1251.49 149.183 1252.83 149.95C1254.19 150.717 1255.71 151.1 1257.38 151.1ZM1291.94 155V126.15C1291.94 123.55 1292.69 121.483 1294.19 119.95C1295.72 118.383 1297.89 117.6 1300.69 117.6C1301.72 117.6 1302.7 117.733 1303.64 118C1304.6 118.233 1305.42 118.617 1306.09 119.15L1304.64 122.8C1304.14 122.4 1303.57 122.1 1302.94 121.9C1302.3 121.667 1301.64 121.55 1300.94 121.55C1299.54 121.55 1298.47 121.95 1297.74 122.75C1297 123.517 1296.64 124.667 1296.64 126.2V129.75L1296.74 131.95V155H1291.94ZM1287.44 132.45V128.5H1304.34V132.45H1287.44ZM1320.27 155.3C1317.44 155.3 1314.94 154.717 1312.77 153.55C1310.64 152.383 1308.97 150.783 1307.77 148.75C1306.61 146.717 1306.02 144.383 1306.02 141.75C1306.02 139.117 1306.59 136.783 1307.72 134.75C1308.89 132.717 1310.47 131.133 1312.47 130C1314.51 128.833 1316.79 128.25 1319.32 128.25C1321.89 128.25 1324.16 128.817 1326.12 129.95C1328.09 131.083 1329.62 132.683 1330.72 134.75C1331.86 136.783 1332.42 139.167 1332.42 141.9C1332.42 142.1 1332.41 142.333 1332.37 142.6C1332.37 142.867 1332.36 143.117 1332.32 143.35H1309.77V139.9H1329.82L1327.87 141.1C1327.91 139.4 1327.56 137.883 1326.82 136.55C1326.09 135.217 1325.07 134.183 1323.77 133.45C1322.51 132.683 1321.02 132.3 1319.32 132.3C1317.66 132.3 1316.17 132.683 1314.87 133.45C1313.57 134.183 1312.56 135.233 1311.82 136.6C1311.09 137.933 1310.72 139.467 1310.72 141.2V142C1310.72 143.767 1311.12 145.35 1311.92 146.75C1312.76 148.117 1313.91 149.183 1315.37 149.95C1316.84 150.717 1318.52 151.1 1320.42 151.1C1321.99 151.1 1323.41 150.833 1324.67 150.3C1325.97 149.767 1327.11 148.967 1328.07 147.9L1330.72 151C1329.52 152.4 1328.02 153.467 1326.22 154.2C1324.46 154.933 1322.47 155.3 1320.27 155.3ZM1346.69 155.3C1344.49 155.3 1342.39 155 1340.39 154.4C1338.42 153.8 1336.87 153.067 1335.74 152.2L1337.74 148.4C1338.87 149.167 1340.27 149.817 1341.94 150.35C1343.6 150.883 1345.3 151.15 1347.04 151.15C1349.27 151.15 1350.87 150.833 1351.84 150.2C1352.84 149.567 1353.34 148.683 1353.34 147.55C1353.34 146.717 1353.04 146.067 1352.44 145.6C1351.84 145.133 1351.04 144.783 1350.04 144.55C1349.07 144.317 1347.99 144.117 1346.79 143.95C1345.59 143.75 1344.39 143.517 1343.19 143.25C1341.99 142.95 1340.89 142.55 1339.89 142.05C1338.89 141.517 1338.09 140.8 1337.49 139.9C1336.89 138.967 1336.59 137.733 1336.59 136.2C1336.59 134.6 1337.04 133.2 1337.94 132C1338.84 130.8 1340.1 129.883 1341.74 129.25C1343.4 128.583 1345.37 128.25 1347.64 128.25C1349.37 128.25 1351.12 128.467 1352.89 128.9C1354.69 129.3 1356.15 129.883 1357.29 130.65L1355.24 134.45C1354.04 133.65 1352.79 133.1 1351.49 132.8C1350.19 132.5 1348.89 132.35 1347.59 132.35C1345.49 132.35 1343.92 132.7 1342.89 133.4C1341.85 134.067 1341.34 134.933 1341.34 136C1341.34 136.9 1341.64 137.6 1342.24 138.1C1342.87 138.567 1343.67 138.933 1344.64 139.2C1345.64 139.467 1346.74 139.7 1347.94 139.9C1349.14 140.067 1350.34 140.3 1351.54 140.6C1352.74 140.867 1353.82 141.25 1354.79 141.75C1355.79 142.25 1356.59 142.95 1357.19 143.85C1357.82 144.75 1358.14 145.95 1358.14 147.45C1358.14 149.05 1357.67 150.433 1356.74 151.6C1355.8 152.767 1354.49 153.683 1352.79 154.35C1351.09 154.983 1349.05 155.3 1346.69 155.3ZM1373.24 155.3C1370.57 155.3 1368.5 154.583 1367.04 153.15C1365.57 151.717 1364.84 149.667 1364.84 147V122.7H1369.64V146.8C1369.64 148.233 1369.99 149.333 1370.69 150.1C1371.42 150.867 1372.45 151.25 1373.79 151.25C1375.29 151.25 1376.54 150.833 1377.54 150L1379.04 153.45C1378.3 154.083 1377.42 154.55 1376.39 154.85C1375.39 155.15 1374.34 155.3 1373.24 155.3ZM1360.34 132.45V128.5H1377.24V132.45H1360.34ZM1384.84 155V128.5H1389.64V155H1384.84ZM1387.24 123.4C1386.31 123.4 1385.52 123.1 1384.89 122.5C1384.29 121.9 1383.99 121.167 1383.99 120.3C1383.99 119.4 1384.29 118.65 1384.89 118.05C1385.52 117.45 1386.31 117.15 1387.24 117.15C1388.17 117.15 1388.94 117.45 1389.54 118.05C1390.17 118.617 1390.49 119.333 1390.49 120.2C1390.49 121.1 1390.19 121.867 1389.59 122.5C1388.99 123.1 1388.21 123.4 1387.24 123.4ZM1405.75 155L1394.15 128.5H1399.15L1409.45 152.5H1407.05L1417.55 128.5H1422.25L1410.65 155H1405.75ZM1442.35 155V149.4L1442.1 148.35V138.8C1442.1 136.767 1441.5 135.2 1440.3 134.1C1439.14 132.967 1437.37 132.4 1435 132.4C1433.44 132.4 1431.9 132.667 1430.4 133.2C1428.9 133.7 1427.64 134.383 1426.6 135.25L1424.6 131.65C1425.97 130.55 1427.6 129.717 1429.5 129.15C1431.44 128.55 1433.45 128.25 1435.55 128.25C1439.19 128.25 1441.99 129.133 1443.95 130.9C1445.92 132.667 1446.9 135.367 1446.9 139V155H1442.35ZM1433.65 155.3C1431.69 155.3 1429.95 154.967 1428.45 154.3C1426.99 153.633 1425.85 152.717 1425.05 151.55C1424.25 150.35 1423.85 149 1423.85 147.5C1423.85 146.067 1424.19 144.767 1424.85 143.6C1425.55 142.433 1426.67 141.5 1428.2 140.8C1429.77 140.1 1431.87 139.75 1434.5 139.75H1442.9V143.2H1434.7C1432.3 143.2 1430.69 143.6 1429.85 144.4C1429.02 145.2 1428.6 146.167 1428.6 147.3C1428.6 148.6 1429.12 149.65 1430.15 150.45C1431.19 151.217 1432.62 151.6 1434.45 151.6C1436.25 151.6 1437.82 151.2 1439.15 150.4C1440.52 149.6 1441.5 148.433 1442.1 146.9L1443.05 150.2C1442.42 151.767 1441.3 153.017 1439.7 153.95C1438.1 154.85 1436.09 155.3 1433.65 155.3ZM1455.79 155V117.9H1460.59V155H1455.79Z" fill="#020126"/>
</svg>
