<svg width="1376" height="199" viewBox="0 0 1376 199" fill="none" xmlns="http://www.w3.org/2000/svg">
<path d="M0.305704 70V7H12.0057V70H0.305704ZM55.2359 21.4C59.0759 21.4 62.4959 22.15 65.4959 23.65C68.5559 25.15 70.9559 27.46 72.6959 30.58C74.4359 33.64 75.3059 37.6 75.3059 42.46V70H64.0559V43.9C64.0559 39.64 63.0359 36.46 60.9959 34.36C59.0159 32.26 56.2259 31.21 52.6259 31.21C49.9859 31.21 47.6459 31.75 45.6059 32.83C43.5659 33.91 41.9759 35.53 40.8359 37.69C39.7559 39.79 39.2159 42.46 39.2159 45.7V70H27.9659V21.94H38.6759V34.9L36.7859 30.94C38.4659 27.88 40.8959 25.54 44.0759 23.92C47.3159 22.24 51.0359 21.4 55.2359 21.4ZM110.005 70.63C105.385 70.63 101.215 69.61 97.4952 67.57C93.8352 65.47 90.9552 62.59 88.8552 58.93C86.7552 55.27 85.7052 50.95 85.7052 45.97C85.7052 40.99 86.7552 36.67 88.8552 33.01C90.9552 29.35 93.8352 26.5 97.4952 24.46C101.215 22.42 105.385 21.4 110.005 21.4C114.025 21.4 117.625 22.3 120.805 24.1C123.985 25.84 126.505 28.51 128.365 32.11C130.225 35.71 131.155 40.33 131.155 45.97C131.155 51.55 130.255 56.17 128.455 59.83C126.655 63.43 124.165 66.13 120.985 67.93C117.805 69.73 114.145 70.63 110.005 70.63ZM111.355 61C114.055 61 116.455 60.4 118.555 59.2C120.715 58 122.425 56.26 123.685 53.98C125.005 51.7 125.665 49.03 125.665 45.97C125.665 42.85 125.005 40.18 123.685 37.96C122.425 35.68 120.715 33.94 118.555 32.74C116.455 31.54 114.055 30.94 111.355 30.94C108.655 30.94 106.225 31.54 104.065 32.74C101.965 33.94 100.255 35.68 98.9352 37.96C97.6752 40.18 97.0452 42.85 97.0452 45.97C97.0452 49.03 97.6752 51.7 98.9352 53.98C100.255 56.26 101.965 58 104.065 59.2C106.225 60.4 108.655 61 111.355 61ZM125.935 70V58.66L126.385 45.88L125.485 33.1V3.22H136.645V70H125.935ZM171.792 70.63C167.712 70.63 164.112 69.88 160.992 68.38C157.872 66.82 155.442 64.48 153.702 61.36C151.962 58.18 151.092 54.19 151.092 49.39V21.94H162.342V47.86C162.342 52.18 163.302 55.42 165.222 57.58C167.202 59.68 169.992 60.73 173.592 60.73C176.232 60.73 178.512 60.19 180.432 59.11C182.412 58.03 183.942 56.41 185.022 54.25C186.162 52.09 186.732 49.42 186.732 46.24V21.94H197.982V70H187.272V57.04L189.162 61C187.542 64.12 185.172 66.52 182.052 68.2C178.932 69.82 175.512 70.63 171.792 70.63ZM227.562 70.63C223.542 70.63 219.672 70.12 215.952 69.1C212.292 68.02 209.382 66.73 207.222 65.23L211.542 56.68C213.702 58.06 216.282 59.2 219.282 60.1C222.282 61 225.282 61.45 228.282 61.45C231.822 61.45 234.372 60.97 235.932 60.01C237.552 59.05 238.362 57.76 238.362 56.14C238.362 54.82 237.822 53.83 236.742 53.17C235.662 52.45 234.252 51.91 232.512 51.55C230.772 51.19 228.822 50.86 226.662 50.56C224.562 50.26 222.432 49.87 220.272 49.39C218.172 48.85 216.252 48.1 214.512 47.14C212.772 46.12 211.362 44.77 210.282 43.09C209.202 41.41 208.662 39.19 208.662 36.43C208.662 33.37 209.532 30.73 211.272 28.51C213.012 26.23 215.442 24.49 218.562 23.29C221.742 22.03 225.492 21.4 229.812 21.4C233.052 21.4 236.322 21.76 239.622 22.48C242.922 23.2 245.652 24.22 247.812 25.54L243.492 34.09C241.212 32.71 238.902 31.78 236.562 31.3C234.282 30.76 232.002 30.49 229.722 30.49C226.302 30.49 223.752 31 222.072 32.02C220.452 33.04 219.642 34.33 219.642 35.89C219.642 37.33 220.182 38.41 221.262 39.13C222.342 39.85 223.752 40.42 225.492 40.84C227.232 41.26 229.152 41.62 231.252 41.92C233.412 42.16 235.542 42.55 237.642 43.09C239.742 43.63 241.662 44.38 243.402 45.34C245.202 46.24 246.642 47.53 247.722 49.21C248.802 50.89 249.342 53.08 249.342 55.78C249.342 58.78 248.442 61.39 246.642 63.61C244.902 65.83 242.412 67.57 239.172 68.83C235.932 70.03 232.062 70.63 227.562 70.63ZM277.12 70.63C271.84 70.63 267.76 69.28 264.88 66.58C262 63.82 260.56 59.77 260.56 54.43V11.32H271.81V54.16C271.81 56.44 272.38 58.21 273.52 59.47C274.72 60.73 276.37 61.36 278.47 61.36C280.99 61.36 283.09 60.7 284.77 59.38L287.92 67.39C286.6 68.47 284.98 69.28 283.06 69.82C281.14 70.36 279.16 70.63 277.12 70.63ZM252.64 31.3V22.3H284.68V31.3H252.64ZM297.175 70V21.94H307.885V35.17L306.625 31.3C308.065 28.06 310.315 25.6 313.375 23.92C316.495 22.24 320.365 21.4 324.985 21.4V32.11C324.505 31.99 324.055 31.93 323.635 31.93C323.215 31.87 322.795 31.84 322.375 31.84C318.115 31.84 314.725 33.1 312.205 35.62C309.685 38.08 308.425 41.77 308.425 46.69V70H297.175ZM340.246 88.09C337.906 88.09 335.566 87.7 333.226 86.92C330.886 86.14 328.936 85.06 327.376 83.68L331.876 75.4C333.016 76.42 334.306 77.23 335.746 77.83C337.186 78.43 338.656 78.73 340.156 78.73C342.196 78.73 343.846 78.22 345.106 77.2C346.366 76.18 347.536 74.47 348.616 72.07L351.406 65.77L352.306 64.42L370.486 21.94H381.286L358.786 73.87C357.286 77.47 355.606 80.32 353.746 82.42C351.946 84.52 349.906 85.99 347.626 86.83C345.406 87.67 342.946 88.09 340.246 88.09ZM350.146 71.71L328.456 21.94H340.156L357.796 63.43L350.146 71.71ZM424.981 35.98H456.391V45.88H424.981V35.98ZM425.971 70H414.271V7H460.261V16.81H425.971V70ZM490.777 70.63C485.857 70.63 481.477 69.58 477.637 67.48C473.797 65.32 470.767 62.38 468.547 58.66C466.327 54.94 465.217 50.71 465.217 45.97C465.217 41.17 466.327 36.94 468.547 33.28C470.767 29.56 473.797 26.65 477.637 24.55C481.477 22.45 485.857 21.4 490.777 21.4C495.757 21.4 500.167 22.45 504.007 24.55C507.907 26.65 510.937 29.53 513.097 33.19C515.317 36.85 516.427 41.11 516.427 45.97C516.427 50.71 515.317 54.94 513.097 58.66C510.937 62.38 507.907 65.32 504.007 67.48C500.167 69.58 495.757 70.63 490.777 70.63ZM490.777 61C493.537 61 495.997 60.4 498.157 59.2C500.317 58 501.997 56.26 503.197 53.98C504.457 51.7 505.087 49.03 505.087 45.97C505.087 42.85 504.457 40.18 503.197 37.96C501.997 35.68 500.317 33.94 498.157 32.74C495.997 31.54 493.567 30.94 490.867 30.94C488.107 30.94 485.647 31.54 483.487 32.74C481.387 33.94 479.707 35.68 478.447 37.96C477.187 40.18 476.557 42.85 476.557 45.97C476.557 49.03 477.187 51.7 478.447 53.98C479.707 56.26 481.387 58 483.487 59.2C485.647 60.4 488.077 61 490.777 61ZM527.185 70V21.94H537.895V35.17L536.635 31.3C538.075 28.06 540.325 25.6 543.385 23.92C546.505 22.24 550.375 21.4 554.995 21.4V32.11C554.515 31.99 554.065 31.93 553.645 31.93C553.225 31.87 552.805 31.84 552.385 31.84C548.125 31.84 544.735 33.1 542.215 35.62C539.695 38.08 538.435 41.77 538.435 46.69V70H527.185ZM585.318 70.63C581.238 70.63 577.638 69.88 574.518 68.38C571.398 66.82 568.968 64.48 567.228 61.36C565.488 58.18 564.618 54.19 564.618 49.39V21.94H575.868V47.86C575.868 52.18 576.828 55.42 578.748 57.58C580.728 59.68 583.518 60.73 587.118 60.73C589.758 60.73 592.038 60.19 593.958 59.11C595.938 58.03 597.468 56.41 598.548 54.25C599.688 52.09 600.258 49.42 600.258 46.24V21.94H611.508V70H600.798V57.04L602.688 61C601.068 64.12 598.698 66.52 595.578 68.2C592.458 69.82 589.038 70.63 585.318 70.63ZM686.897 21.4C690.737 21.4 694.127 22.15 697.067 23.65C700.067 25.15 702.407 27.46 704.087 30.58C705.767 33.64 706.607 37.6 706.607 42.46V70H695.357V43.9C695.357 39.64 694.427 36.46 692.567 34.36C690.707 32.26 688.037 31.21 684.557 31.21C682.097 31.21 679.907 31.75 677.987 32.83C676.127 33.91 674.657 35.5 673.577 37.6C672.557 39.7 672.047 42.37 672.047 45.61V70H660.797V43.9C660.797 39.64 659.867 36.46 658.007 34.36C656.147 32.26 653.477 31.21 649.997 31.21C647.537 31.21 645.347 31.75 643.427 32.83C641.567 33.91 640.097 35.5 639.017 37.6C637.997 39.7 637.487 42.37 637.487 45.61V70H626.237V21.94H636.947V34.72L635.057 30.94C636.677 27.82 639.017 25.45 642.077 23.83C645.197 22.21 648.737 21.4 652.697 21.4C657.197 21.4 661.097 22.51 664.397 24.73C667.757 26.95 669.977 30.31 671.057 34.81L666.647 33.28C668.207 29.68 670.787 26.8 674.387 24.64C677.987 22.48 682.157 21.4 686.897 21.4ZM735.834 70.63C731.814 70.63 727.944 70.12 724.224 69.1C720.564 68.02 717.654 66.73 715.494 65.23L719.814 56.68C721.974 58.06 724.554 59.2 727.554 60.1C730.554 61 733.554 61.45 736.554 61.45C740.094 61.45 742.644 60.97 744.204 60.01C745.824 59.05 746.634 57.76 746.634 56.14C746.634 54.82 746.094 53.83 745.014 53.17C743.934 52.45 742.524 51.91 740.784 51.55C739.044 51.19 737.094 50.86 734.934 50.56C732.834 50.26 730.704 49.87 728.544 49.39C726.444 48.85 724.524 48.1 722.784 47.14C721.044 46.12 719.634 44.77 718.554 43.09C717.474 41.41 716.934 39.19 716.934 36.43C716.934 33.37 717.804 30.73 719.544 28.51C721.284 26.23 723.714 24.49 726.834 23.29C730.014 22.03 733.764 21.4 738.084 21.4C741.324 21.4 744.594 21.76 747.894 22.48C751.194 23.2 753.924 24.22 756.084 25.54L751.764 34.09C749.484 32.71 747.174 31.78 744.834 31.3C742.554 30.76 740.274 30.49 737.994 30.49C734.574 30.49 732.024 31 730.344 32.02C728.724 33.04 727.914 34.33 727.914 35.89C727.914 37.33 728.454 38.41 729.534 39.13C730.614 39.85 732.024 40.42 733.764 40.84C735.504 41.26 737.424 41.62 739.524 41.92C741.684 42.16 743.814 42.55 745.914 43.09C748.014 43.63 749.934 44.38 751.674 45.34C753.474 46.24 754.914 47.53 755.994 49.21C757.074 50.89 757.614 53.08 757.614 55.78C757.614 58.78 756.714 61.39 754.914 63.61C753.174 65.83 750.684 67.57 747.444 68.83C744.204 70.03 740.334 70.63 735.834 70.63ZM804.055 33.19H835.375V42.82H804.055V33.19ZM804.955 60.19H840.505V70H793.255V7H839.245V16.81H804.955V60.19ZM913.128 21.4C916.968 21.4 920.358 22.15 923.298 23.65C926.298 25.15 928.638 27.46 930.318 30.58C931.998 33.64 932.838 37.6 932.838 42.46V70H921.588V43.9C921.588 39.64 920.658 36.46 918.798 34.36C916.938 32.26 914.268 31.21 910.788 31.21C908.328 31.21 906.138 31.75 904.218 32.83C902.358 33.91 900.888 35.5 899.808 37.6C898.788 39.7 898.278 42.37 898.278 45.61V70H887.028V43.9C887.028 39.64 886.098 36.46 884.238 34.36C882.378 32.26 879.708 31.21 876.228 31.21C873.768 31.21 871.578 31.75 869.658 32.83C867.798 33.91 866.328 35.5 865.248 37.6C864.228 39.7 863.718 42.37 863.718 45.61V70H852.468V21.94H863.178V34.72L861.288 30.94C862.908 27.82 865.248 25.45 868.308 23.83C871.428 22.21 874.968 21.4 878.928 21.4C883.428 21.4 887.328 22.51 890.628 24.73C893.988 26.95 896.208 30.31 897.288 34.81L892.878 33.28C894.438 29.68 897.018 26.8 900.618 24.64C904.218 22.48 908.388 21.4 913.128 21.4ZM973.854 70.63C969.954 70.63 966.384 69.73 963.144 67.93C959.964 66.13 957.414 63.43 955.494 59.83C953.634 56.17 952.704 51.55 952.704 45.97C952.704 40.33 953.604 35.71 955.404 32.11C957.264 28.51 959.784 25.84 962.964 24.1C966.144 22.3 969.774 21.4 973.854 21.4C978.594 21.4 982.764 22.42 986.364 24.46C990.024 26.5 992.904 29.35 995.004 33.01C997.164 36.67 998.244 40.99 998.244 45.97C998.244 50.95 997.164 55.3 995.004 59.02C992.904 62.68 990.024 65.53 986.364 67.57C982.764 69.61 978.594 70.63 973.854 70.63ZM947.214 87.46V21.94H957.924V33.28L957.564 46.06L958.464 58.84V87.46H947.214ZM972.594 61C975.294 61 977.694 60.4 979.794 59.2C981.954 58 983.664 56.26 984.924 53.98C986.184 51.7 986.814 49.03 986.814 45.97C986.814 42.85 986.184 40.18 984.924 37.96C983.664 35.68 981.954 33.94 979.794 32.74C977.694 31.54 975.294 30.94 972.594 30.94C969.894 30.94 967.464 31.54 965.304 32.74C963.144 33.94 961.434 35.68 960.174 37.96C958.914 40.18 958.284 42.85 958.284 45.97C958.284 49.03 958.914 51.7 960.174 53.98C961.434 56.26 963.144 58 965.304 59.2C967.464 60.4 969.894 61 972.594 61ZM1030.51 70.63C1025.59 70.63 1021.21 69.58 1017.37 67.48C1013.53 65.32 1010.5 62.38 1008.28 58.66C1006.06 54.94 1004.95 50.71 1004.95 45.97C1004.95 41.17 1006.06 36.94 1008.28 33.28C1010.5 29.56 1013.53 26.65 1017.37 24.55C1021.21 22.45 1025.59 21.4 1030.51 21.4C1035.49 21.4 1039.9 22.45 1043.74 24.55C1047.64 26.65 1050.67 29.53 1052.83 33.19C1055.05 36.85 1056.16 41.11 1056.16 45.97C1056.16 50.71 1055.05 54.94 1052.83 58.66C1050.67 62.38 1047.64 65.32 1043.74 67.48C1039.9 69.58 1035.49 70.63 1030.51 70.63ZM1030.51 61C1033.27 61 1035.73 60.4 1037.89 59.2C1040.05 58 1041.73 56.26 1042.93 53.98C1044.19 51.7 1044.82 49.03 1044.82 45.97C1044.82 42.85 1044.19 40.18 1042.93 37.96C1041.73 35.68 1040.05 33.94 1037.89 32.74C1035.73 31.54 1033.3 30.94 1030.6 30.94C1027.84 30.94 1025.38 31.54 1023.22 32.74C1021.12 33.94 1019.44 35.68 1018.18 37.96C1016.92 40.18 1016.29 42.85 1016.29 45.97C1016.29 49.03 1016.92 51.7 1018.18 53.98C1019.44 56.26 1021.12 58 1023.22 59.2C1025.38 60.4 1027.81 61 1030.51 61ZM1076.22 70L1058.58 21.94H1069.2L1084.32 64.33H1079.28L1095.12 21.94H1104.57L1119.96 64.33H1115.01L1130.58 21.94H1140.57L1122.84 70H1112.04L1098 32.47H1101.33L1087.02 70H1076.22ZM1169.58 70.63C1164.24 70.63 1159.56 69.58 1155.54 67.48C1151.58 65.32 1148.49 62.38 1146.27 58.66C1144.11 54.94 1143.03 50.71 1143.03 45.97C1143.03 41.17 1144.08 36.94 1146.18 33.28C1148.34 29.56 1151.28 26.65 1155 24.55C1158.78 22.45 1163.07 21.4 1167.87 21.4C1172.55 21.4 1176.72 22.42 1180.38 24.46C1184.04 26.5 1186.92 29.38 1189.02 33.1C1191.12 36.82 1192.17 41.2 1192.17 46.24C1192.17 46.72 1192.14 47.26 1192.08 47.86C1192.08 48.46 1192.05 49.03 1191.99 49.57H1151.94V42.1H1186.05L1181.64 44.44C1181.7 41.68 1181.13 39.25 1179.93 37.15C1178.73 35.05 1177.08 33.4 1174.98 32.2C1172.94 31 1170.57 30.4 1167.87 30.4C1165.11 30.4 1162.68 31 1160.58 32.2C1158.54 33.4 1156.92 35.08 1155.72 37.24C1154.58 39.34 1154.01 41.83 1154.01 44.71V46.51C1154.01 49.39 1154.67 51.94 1155.99 54.16C1157.31 56.38 1159.17 58.09 1161.57 59.29C1163.97 60.49 1166.73 61.09 1169.85 61.09C1172.55 61.09 1174.98 60.67 1177.14 59.83C1179.3 58.99 1181.22 57.67 1182.9 55.87L1188.93 62.8C1186.77 65.32 1184.04 67.27 1180.74 68.65C1177.5 69.97 1173.78 70.63 1169.58 70.63ZM1202.98 70V21.94H1213.69V35.17L1212.43 31.3C1213.87 28.06 1216.12 25.6 1219.18 23.92C1222.3 22.24 1226.17 21.4 1230.79 21.4V32.11C1230.31 31.99 1229.86 31.93 1229.44 31.93C1229.02 31.87 1228.6 31.84 1228.18 31.84C1223.92 31.84 1220.53 33.1 1218.01 35.62C1215.49 38.08 1214.23 41.77 1214.23 46.69V70H1202.98ZM1240.33 70V21.94H1251.58V70H1240.33ZM1246 14.02C1243.9 14.02 1242.16 13.36 1240.78 12.04C1239.46 10.72 1238.8 9.13 1238.8 7.27C1238.8 5.35 1239.46 3.76 1240.78 2.49999C1242.16 1.18 1243.9 0.519999 1246 0.519999C1248.1 0.519999 1249.81 1.15 1251.13 2.41C1252.51 3.61 1253.2 5.14 1253.2 7C1253.2 8.98 1252.54 10.66 1251.22 12.04C1249.9 13.36 1248.16 14.02 1246 14.02ZM1293.61 21.4C1297.45 21.4 1300.87 22.15 1303.87 23.65C1306.93 25.15 1309.33 27.46 1311.07 30.58C1312.81 33.64 1313.68 37.6 1313.68 42.46V70H1302.43V43.9C1302.43 39.64 1301.41 36.46 1299.37 34.36C1297.39 32.26 1294.6 31.21 1291 31.21C1288.36 31.21 1286.02 31.75 1283.98 32.83C1281.94 33.91 1280.35 35.53 1279.21 37.69C1278.13 39.79 1277.59 42.46 1277.59 45.7V70H1266.34V21.94H1277.05V34.9L1275.16 30.94C1276.84 27.88 1279.27 25.54 1282.45 23.92C1285.69 22.24 1289.41 21.4 1293.61 21.4ZM1349.82 88.09C1345.38 88.09 1341.03 87.49 1336.77 86.29C1332.57 85.15 1329.12 83.47 1326.42 81.25L1331.46 72.79C1333.56 74.53 1336.2 75.91 1339.38 76.93C1342.62 78.01 1345.89 78.55 1349.19 78.55C1354.47 78.55 1358.34 77.32 1360.8 74.86C1363.26 72.46 1364.49 68.83 1364.49 63.97V55.42L1365.39 44.53L1365.03 33.64V21.94H1375.74V62.71C1375.74 71.41 1373.52 77.8 1369.08 81.88C1364.64 86.02 1358.22 88.09 1349.82 88.09ZM1348.38 67.84C1343.82 67.84 1339.68 66.88 1335.96 64.96C1332.3 62.98 1329.39 60.25 1327.23 56.77C1325.13 53.29 1324.08 49.21 1324.08 44.53C1324.08 39.91 1325.13 35.86 1327.23 32.38C1329.39 28.9 1332.3 26.2 1335.96 24.28C1339.68 22.36 1343.82 21.4 1348.38 21.4C1352.46 21.4 1356.12 22.21 1359.36 23.83C1362.6 25.45 1365.18 27.97 1367.1 31.39C1369.08 34.81 1370.07 39.19 1370.07 44.53C1370.07 49.87 1369.08 54.28 1367.1 57.76C1365.18 61.18 1362.6 63.73 1359.36 65.41C1356.12 67.03 1352.46 67.84 1348.38 67.84ZM1350.09 58.3C1352.91 58.3 1355.43 57.73 1357.65 56.59C1359.87 55.39 1361.58 53.77 1362.78 51.73C1364.04 49.63 1364.67 47.23 1364.67 44.53C1364.67 41.83 1364.04 39.46 1362.78 37.42C1361.58 35.32 1359.87 33.73 1357.65 32.65C1355.43 31.51 1352.91 30.94 1350.09 30.94C1347.27 30.94 1344.72 31.51 1342.44 32.65C1340.22 33.73 1338.48 35.32 1337.22 37.42C1336.02 39.46 1335.42 41.83 1335.42 44.53C1335.42 47.23 1336.02 49.63 1337.22 51.73C1338.48 53.77 1340.22 55.39 1342.44 56.59C1344.72 57.73 1347.27 58.3 1350.09 58.3ZM151.496 180.9C146.576 180.9 141.866 180.21 137.366 178.83C132.866 177.39 129.296 175.56 126.656 173.34L130.706 164.25C133.226 166.23 136.346 167.88 140.066 169.2C143.786 170.52 147.596 171.18 151.496 171.18C154.796 171.18 157.466 170.82 159.506 170.1C161.546 169.38 163.046 168.42 164.006 167.22C164.966 165.96 165.446 164.55 165.446 162.99C165.446 161.07 164.756 159.54 163.376 158.4C161.996 157.2 160.196 156.27 157.976 155.61C155.816 154.89 153.386 154.23 150.686 153.63C148.046 153.03 145.376 152.34 142.676 151.56C140.036 150.72 137.606 149.67 135.386 148.41C133.226 147.09 131.456 145.35 130.076 143.19C128.696 141.03 128.006 138.27 128.006 134.91C128.006 131.49 128.906 128.37 130.706 125.55C132.566 122.67 135.356 120.39 139.076 118.71C142.856 116.97 147.626 116.1 153.386 116.1C157.166 116.1 160.916 116.58 164.636 117.54C168.356 118.5 171.596 119.88 174.356 121.68L170.666 130.77C167.846 129.09 164.936 127.86 161.936 127.08C158.936 126.24 156.056 125.82 153.296 125.82C150.056 125.82 147.416 126.21 145.376 126.99C143.396 127.77 141.926 128.79 140.966 130.05C140.066 131.31 139.616 132.75 139.616 134.37C139.616 136.29 140.276 137.85 141.596 139.05C142.976 140.19 144.746 141.09 146.906 141.75C149.126 142.41 151.586 143.07 154.286 143.73C156.986 144.33 159.656 145.02 162.296 145.8C164.996 146.58 167.426 147.6 169.586 148.86C171.806 150.12 173.576 151.83 174.896 153.99C176.276 156.15 176.966 158.88 176.966 162.18C176.966 165.54 176.036 168.66 174.176 171.54C172.376 174.36 169.586 176.64 165.806 178.38C162.026 180.06 157.256 180.9 151.496 180.9ZM205.577 180.63C200.297 180.63 196.217 179.28 193.337 176.58C190.457 173.82 189.017 169.77 189.017 164.43V121.32H200.267V164.16C200.267 166.44 200.837 168.21 201.977 169.47C203.177 170.73 204.827 171.36 206.927 171.36C209.447 171.36 211.547 170.7 213.227 169.38L216.377 177.39C215.057 178.47 213.437 179.28 211.517 179.82C209.597 180.36 207.617 180.63 205.577 180.63ZM181.097 141.3V132.3H213.137V141.3H181.097ZM255.242 180V170.28L254.612 168.21V151.2C254.612 147.9 253.622 145.35 251.642 143.55C249.662 141.69 246.662 140.76 242.642 140.76C239.942 140.76 237.272 141.18 234.632 142.02C232.052 142.86 229.862 144.03 228.062 145.53L223.652 137.34C226.232 135.36 229.292 133.89 232.832 132.93C236.432 131.91 240.152 131.4 243.992 131.4C250.952 131.4 256.322 133.08 260.102 136.44C263.942 139.74 265.862 144.87 265.862 151.83V180H255.242ZM240.122 180.63C236.522 180.63 233.372 180.03 230.672 178.83C227.972 177.57 225.872 175.86 224.372 173.7C222.932 171.48 222.212 168.99 222.212 166.23C222.212 163.53 222.842 161.1 224.102 158.94C225.422 156.78 227.552 155.07 230.492 153.81C233.432 152.55 237.332 151.92 242.192 151.92H256.142V159.39H243.002C239.162 159.39 236.582 160.02 235.262 161.28C233.942 162.48 233.282 163.98 233.282 165.78C233.282 167.82 234.092 169.44 235.712 170.64C237.332 171.84 239.582 172.44 242.462 172.44C245.222 172.44 247.682 171.81 249.842 170.55C252.062 169.29 253.652 167.43 254.612 164.97L256.502 171.72C255.422 174.54 253.472 176.73 250.652 178.29C247.892 179.85 244.382 180.63 240.122 180.63ZM280.3 180V131.94H291.01V145.17L289.75 141.3C291.19 138.06 293.44 135.6 296.5 133.92C299.62 132.24 303.49 131.4 308.11 131.4V142.11C307.63 141.99 307.18 141.93 306.76 141.93C306.34 141.87 305.92 141.84 305.5 141.84C301.24 141.84 297.85 143.1 295.33 145.62C292.81 148.08 291.55 151.77 291.55 156.69V180H280.3ZM337.501 180.63C332.221 180.63 328.141 179.28 325.261 176.58C322.381 173.82 320.941 169.77 320.941 164.43V121.32H332.191V164.16C332.191 166.44 332.761 168.21 333.901 169.47C335.101 170.73 336.751 171.36 338.851 171.36C341.371 171.36 343.471 170.7 345.151 169.38L348.301 177.39C346.981 178.47 345.361 179.28 343.441 179.82C341.521 180.36 339.541 180.63 337.501 180.63ZM313.021 141.3V132.3H345.061V141.3H313.021ZM377.896 180.63C373.816 180.63 370.216 179.88 367.096 178.38C363.976 176.82 361.546 174.48 359.806 171.36C358.066 168.18 357.196 164.19 357.196 159.39V131.94H368.446V157.86C368.446 162.18 369.406 165.42 371.326 167.58C373.306 169.68 376.096 170.73 379.696 170.73C382.336 170.73 384.616 170.19 386.536 169.11C388.516 168.03 390.046 166.41 391.126 164.25C392.266 162.09 392.836 159.42 392.836 156.24V131.94H404.086V180H393.376V167.04L395.266 171C393.646 174.12 391.276 176.52 388.156 178.2C385.036 179.82 381.616 180.63 377.896 180.63ZM445.456 180.63C441.556 180.63 437.986 179.73 434.746 177.93C431.566 176.13 429.016 173.43 427.096 169.83C425.236 166.17 424.306 161.55 424.306 155.97C424.306 150.33 425.206 145.71 427.006 142.11C428.866 138.51 431.386 135.84 434.566 134.1C437.746 132.3 441.376 131.4 445.456 131.4C450.196 131.4 454.366 132.42 457.966 134.46C461.626 136.5 464.506 139.35 466.606 143.01C468.766 146.67 469.846 150.99 469.846 155.97C469.846 160.95 468.766 165.3 466.606 169.02C464.506 172.68 461.626 175.53 457.966 177.57C454.366 179.61 450.196 180.63 445.456 180.63ZM418.816 197.46V131.94H429.526V143.28L429.166 156.06L430.066 168.84V197.46H418.816ZM444.196 171C446.896 171 449.296 170.4 451.396 169.2C453.556 168 455.266 166.26 456.526 163.98C457.786 161.7 458.416 159.03 458.416 155.97C458.416 152.85 457.786 150.18 456.526 147.96C455.266 145.68 453.556 143.94 451.396 142.74C449.296 141.54 446.896 140.94 444.196 140.94C441.496 140.94 439.066 141.54 436.906 142.74C434.746 143.94 433.036 145.68 431.776 147.96C430.516 150.18 429.886 152.85 429.886 155.97C429.886 159.03 430.516 161.7 431.776 163.98C433.036 166.26 434.746 168 436.906 169.2C439.066 170.4 441.496 171 444.196 171ZM495.365 180.63C491.345 180.63 487.475 180.12 483.755 179.1C480.095 178.02 477.185 176.73 475.025 175.23L479.345 166.68C481.505 168.06 484.085 169.2 487.085 170.1C490.085 171 493.085 171.45 496.085 171.45C499.625 171.45 502.175 170.97 503.735 170.01C505.355 169.05 506.165 167.76 506.165 166.14C506.165 164.82 505.625 163.83 504.545 163.17C503.465 162.45 502.055 161.91 500.315 161.55C498.575 161.19 496.625 160.86 494.465 160.56C492.365 160.26 490.235 159.87 488.075 159.39C485.975 158.85 484.055 158.1 482.315 157.14C480.575 156.12 479.165 154.77 478.085 153.09C477.005 151.41 476.465 149.19 476.465 146.43C476.465 143.37 477.335 140.73 479.075 138.51C480.815 136.23 483.245 134.49 486.365 133.29C489.545 132.03 493.295 131.4 497.615 131.4C500.855 131.4 504.125 131.76 507.425 132.48C510.725 133.2 513.455 134.22 515.615 135.54L511.295 144.09C509.015 142.71 506.705 141.78 504.365 141.3C502.085 140.76 499.805 140.49 497.525 140.49C494.105 140.49 491.555 141 489.875 142.02C488.255 143.04 487.445 144.33 487.445 145.89C487.445 147.33 487.985 148.41 489.065 149.13C490.145 149.85 491.555 150.42 493.295 150.84C495.035 151.26 496.955 151.62 499.055 151.92C501.215 152.16 503.345 152.55 505.445 153.09C507.545 153.63 509.465 154.38 511.205 155.34C513.005 156.24 514.445 157.53 515.525 159.21C516.605 160.89 517.145 163.08 517.145 165.78C517.145 168.78 516.245 171.39 514.445 173.61C512.705 175.83 510.215 177.57 506.975 178.83C503.735 180.03 499.865 180.63 495.365 180.63ZM551.706 180V131.94H562.956V180H551.706ZM557.376 124.02C555.276 124.02 553.536 123.36 552.156 122.04C550.836 120.72 550.176 119.13 550.176 117.27C550.176 115.35 550.836 113.76 552.156 112.5C553.536 111.18 555.276 110.52 557.376 110.52C559.476 110.52 561.186 111.15 562.506 112.41C563.886 113.61 564.576 115.14 564.576 117C564.576 118.98 563.916 120.66 562.596 122.04C561.276 123.36 559.536 124.02 557.376 124.02ZM604.992 131.4C608.832 131.4 612.252 132.15 615.252 133.65C618.312 135.15 620.712 137.46 622.452 140.58C624.192 143.64 625.062 147.6 625.062 152.46V180H613.812V153.9C613.812 149.64 612.792 146.46 610.752 144.36C608.772 142.26 605.982 141.21 602.382 141.21C599.742 141.21 597.402 141.75 595.362 142.83C593.322 143.91 591.732 145.53 590.592 147.69C589.512 149.79 588.972 152.46 588.972 155.7V180H577.722V131.94H588.432V144.9L586.542 140.94C588.222 137.88 590.652 135.54 593.832 133.92C597.072 132.24 600.792 131.4 604.992 131.4ZM675.726 165.15L675.096 151.29L708.126 117H721.266L693.816 146.16L687.336 153.27L675.726 165.15ZM665.286 180V117H676.986V180H665.286ZM709.206 180L685.086 151.29L692.826 142.74L722.886 180H709.206ZM750.253 180.63C744.913 180.63 740.233 179.58 736.213 177.48C732.253 175.32 729.163 172.38 726.943 168.66C724.783 164.94 723.703 160.71 723.703 155.97C723.703 151.17 724.753 146.94 726.853 143.28C729.013 139.56 731.953 136.65 735.673 134.55C739.453 132.45 743.743 131.4 748.543 131.4C753.223 131.4 757.393 132.42 761.053 134.46C764.713 136.5 767.593 139.38 769.693 143.1C771.793 146.82 772.843 151.2 772.843 156.24C772.843 156.72 772.813 157.26 772.753 157.86C772.753 158.46 772.723 159.03 772.663 159.57H732.613V152.1H766.723L762.313 154.44C762.373 151.68 761.803 149.25 760.603 147.15C759.403 145.05 757.753 143.4 755.653 142.2C753.613 141 751.243 140.4 748.543 140.4C745.783 140.4 743.353 141 741.253 142.2C739.213 143.4 737.593 145.08 736.393 147.24C735.253 149.34 734.683 151.83 734.683 154.71V156.51C734.683 159.39 735.343 161.94 736.663 164.16C737.983 166.38 739.843 168.09 742.243 169.29C744.643 170.49 747.403 171.09 750.523 171.09C753.223 171.09 755.653 170.67 757.813 169.83C759.973 168.99 761.893 167.67 763.573 165.87L769.603 172.8C767.443 175.32 764.713 177.27 761.413 178.65C758.173 179.97 754.453 180.63 750.253 180.63ZM786.731 198.09C784.391 198.09 782.051 197.7 779.711 196.92C777.371 196.14 775.421 195.06 773.861 193.68L778.361 185.4C779.501 186.42 780.791 187.23 782.231 187.83C783.671 188.43 785.141 188.73 786.641 188.73C788.681 188.73 790.331 188.22 791.591 187.2C792.851 186.18 794.021 184.47 795.101 182.07L797.891 175.77L798.791 174.42L816.971 131.94H827.771L805.271 183.87C803.771 187.47 802.091 190.32 800.231 192.42C798.431 194.52 796.391 195.99 794.111 196.83C791.891 197.67 789.431 198.09 786.731 198.09ZM796.631 181.71L774.941 131.94H786.641L804.281 173.43L796.631 181.71ZM879.385 180L851.845 117H864.535L889.105 173.97H881.815L906.655 117H918.355L890.905 180H879.385ZM942.909 180.63C937.569 180.63 932.889 179.58 928.869 177.48C924.909 175.32 921.819 172.38 919.599 168.66C917.439 164.94 916.359 160.71 916.359 155.97C916.359 151.17 917.409 146.94 919.509 143.28C921.669 139.56 924.609 136.65 928.329 134.55C932.109 132.45 936.399 131.4 941.199 131.4C945.879 131.4 950.049 132.42 953.709 134.46C957.369 136.5 960.249 139.38 962.349 143.1C964.449 146.82 965.499 151.2 965.499 156.24C965.499 156.72 965.469 157.26 965.409 157.86C965.409 158.46 965.379 159.03 965.319 159.57H925.269V152.1H959.379L954.969 154.44C955.029 151.68 954.459 149.25 953.259 147.15C952.059 145.05 950.409 143.4 948.309 142.2C946.269 141 943.899 140.4 941.199 140.4C938.439 140.4 936.009 141 933.909 142.2C931.869 143.4 930.249 145.08 929.049 147.24C927.909 149.34 927.339 151.83 927.339 154.71V156.51C927.339 159.39 927.999 161.94 929.319 164.16C930.639 166.38 932.499 168.09 934.899 169.29C937.299 170.49 940.059 171.09 943.179 171.09C945.879 171.09 948.309 170.67 950.469 169.83C952.629 168.99 954.549 167.67 956.229 165.87L962.259 172.8C960.099 175.32 957.369 177.27 954.069 178.65C950.829 179.97 947.109 180.63 942.909 180.63ZM976.306 180V131.94H987.016V145.17L985.756 141.3C987.196 138.06 989.446 135.6 992.506 133.92C995.626 132.24 999.496 131.4 1004.12 131.4V142.11C1003.64 141.99 1003.19 141.93 1002.77 141.93C1002.35 141.87 1001.93 141.84 1001.51 141.84C997.246 141.84 993.856 143.1 991.336 145.62C988.816 148.08 987.556 151.77 987.556 156.69V180H976.306ZM1033.51 180.63C1028.23 180.63 1024.15 179.28 1021.27 176.58C1018.39 173.82 1016.95 169.77 1016.95 164.43V121.32H1028.2V164.16C1028.2 166.44 1028.77 168.21 1029.91 169.47C1031.11 170.73 1032.76 171.36 1034.86 171.36C1037.38 171.36 1039.48 170.7 1041.16 169.38L1044.31 177.39C1042.99 178.47 1041.37 179.28 1039.45 179.82C1037.53 180.36 1035.55 180.63 1033.51 180.63ZM1009.03 141.3V132.3H1041.07V141.3H1009.03ZM1053.56 180V131.94H1064.81V180H1053.56ZM1059.23 124.02C1057.13 124.02 1055.39 123.36 1054.01 122.04C1052.69 120.72 1052.03 119.13 1052.03 117.27C1052.03 115.35 1052.69 113.76 1054.01 112.5C1055.39 111.18 1057.13 110.52 1059.23 110.52C1061.33 110.52 1063.04 111.15 1064.36 112.41C1065.74 113.61 1066.43 115.14 1066.43 117C1066.43 118.98 1065.77 120.66 1064.45 122.04C1063.13 123.36 1061.39 124.02 1059.23 124.02ZM1101.63 180.63C1096.59 180.63 1092.09 179.58 1088.13 177.48C1084.23 175.32 1081.17 172.38 1078.95 168.66C1076.73 164.94 1075.62 160.71 1075.62 155.97C1075.62 151.17 1076.73 146.94 1078.95 143.28C1081.17 139.56 1084.23 136.65 1088.13 134.55C1092.09 132.45 1096.59 131.4 1101.63 131.4C1106.31 131.4 1110.42 132.36 1113.96 134.28C1117.56 136.14 1120.29 138.9 1122.15 142.56L1113.51 147.6C1112.07 145.32 1110.3 143.64 1108.2 142.56C1106.16 141.48 1103.94 140.94 1101.54 140.94C1098.78 140.94 1096.29 141.54 1094.07 142.74C1091.85 143.94 1090.11 145.68 1088.85 147.96C1087.59 150.18 1086.96 152.85 1086.96 155.97C1086.96 159.09 1087.59 161.79 1088.85 164.07C1090.11 166.29 1091.85 168 1094.07 169.2C1096.29 170.4 1098.78 171 1101.54 171C1103.94 171 1106.16 170.46 1108.2 169.38C1110.3 168.3 1112.07 166.62 1113.51 164.34L1122.15 169.38C1120.29 172.98 1117.56 175.77 1113.96 177.75C1110.42 179.67 1106.31 180.63 1101.63 180.63ZM1161.48 180V170.28L1160.85 168.21V151.2C1160.85 147.9 1159.86 145.35 1157.88 143.55C1155.9 141.69 1152.9 140.76 1148.88 140.76C1146.18 140.76 1143.51 141.18 1140.87 142.02C1138.29 142.86 1136.1 144.03 1134.3 145.53L1129.89 137.34C1132.47 135.36 1135.53 133.89 1139.07 132.93C1142.67 131.91 1146.39 131.4 1150.23 131.4C1157.19 131.4 1162.56 133.08 1166.34 136.44C1170.18 139.74 1172.1 144.87 1172.1 151.83V180H1161.48ZM1146.36 180.63C1142.76 180.63 1139.61 180.03 1136.91 178.83C1134.21 177.57 1132.11 175.86 1130.61 173.7C1129.17 171.48 1128.45 168.99 1128.45 166.23C1128.45 163.53 1129.08 161.1 1130.34 158.94C1131.66 156.78 1133.79 155.07 1136.73 153.81C1139.67 152.55 1143.57 151.92 1148.43 151.92H1162.38V159.39H1149.24C1145.4 159.39 1142.82 160.02 1141.5 161.28C1140.18 162.48 1139.52 163.98 1139.52 165.78C1139.52 167.82 1140.33 169.44 1141.95 170.64C1143.57 171.84 1145.82 172.44 1148.7 172.44C1151.46 172.44 1153.92 171.81 1156.08 170.55C1158.3 169.29 1159.89 167.43 1160.85 164.97L1162.74 171.72C1161.66 174.54 1159.71 176.73 1156.89 178.29C1154.13 179.85 1150.62 180.63 1146.36 180.63ZM1186.54 180V113.22H1197.79V180H1186.54ZM1227.41 180.63C1223.39 180.63 1219.52 180.12 1215.8 179.1C1212.14 178.02 1209.23 176.73 1207.07 175.23L1211.39 166.68C1213.55 168.06 1216.13 169.2 1219.13 170.1C1222.13 171 1225.13 171.45 1228.13 171.45C1231.67 171.45 1234.22 170.97 1235.78 170.01C1237.4 169.05 1238.21 167.76 1238.21 166.14C1238.21 164.82 1237.67 163.83 1236.59 163.17C1235.51 162.45 1234.1 161.91 1232.36 161.55C1230.62 161.19 1228.67 160.86 1226.51 160.56C1224.41 160.26 1222.28 159.87 1220.12 159.39C1218.02 158.85 1216.1 158.1 1214.36 157.14C1212.62 156.12 1211.21 154.77 1210.13 153.09C1209.05 151.41 1208.51 149.19 1208.51 146.43C1208.51 143.37 1209.38 140.73 1211.12 138.51C1212.86 136.23 1215.29 134.49 1218.41 133.29C1221.59 132.03 1225.34 131.4 1229.66 131.4C1232.9 131.4 1236.17 131.76 1239.47 132.48C1242.77 133.2 1245.5 134.22 1247.66 135.54L1243.34 144.09C1241.06 142.71 1238.75 141.78 1236.41 141.3C1234.13 140.76 1231.85 140.49 1229.57 140.49C1226.15 140.49 1223.6 141 1221.92 142.02C1220.3 143.04 1219.49 144.33 1219.49 145.89C1219.49 147.33 1220.03 148.41 1221.11 149.13C1222.19 149.85 1223.6 150.42 1225.34 150.84C1227.08 151.26 1229 151.62 1231.1 151.92C1233.26 152.16 1235.39 152.55 1237.49 153.09C1239.59 153.63 1241.51 154.38 1243.25 155.34C1245.05 156.24 1246.49 157.53 1247.57 159.21C1248.65 160.89 1249.19 163.08 1249.19 165.78C1249.19 168.78 1248.29 171.39 1246.49 173.61C1244.75 175.83 1242.26 177.57 1239.02 178.83C1235.78 180.03 1231.91 180.63 1227.41 180.63Z" fill="black"/>
</svg>
