<svg width="1427" height="91" viewBox="0 0 1427 91" fill="none" xmlns="http://www.w3.org/2000/svg">
<path d="M0.535 72L29.83 6.9H41.734L71.122 72H58.474L33.271 13.317H38.107L12.997 72H0.535ZM14.02 56.934L17.275 47.448H52.429L55.684 56.934H14.02ZM106.464 21.78C110.432 21.78 113.966 22.555 117.066 24.105C120.228 25.655 122.708 28.042 124.506 31.266C126.304 34.428 127.203 38.52 127.203 43.542V72H115.578V45.03C115.578 40.628 114.524 37.342 112.416 35.172C110.37 33.002 107.487 31.917 103.767 31.917C101.039 31.917 98.6212 32.475 96.5132 33.591C94.4052 34.707 92.7622 36.381 91.5842 38.613C90.4682 40.783 89.9102 43.542 89.9102 46.89V72H78.2852V22.338H89.3522V35.73L87.3992 31.638C89.1352 28.476 91.6462 26.058 94.9322 24.384C98.2802 22.648 102.124 21.78 106.464 21.78ZM179.928 33.963H212.292V43.914H179.928V33.963ZM180.858 61.863H217.593V72H168.768V6.9H216.291V17.037H180.858V61.863ZM222.349 72L244.204 43.542L244.018 49.773L223.186 22.338H236.113L250.714 41.868H245.785L260.479 22.338H273.034L252.016 49.773L252.109 43.542L273.871 72H260.758L245.413 51.261L250.249 51.912L235.183 72H222.349ZM301.142 72.651C295.686 72.651 291.47 71.256 288.494 68.466C285.518 65.614 284.03 61.429 284.03 55.911V11.364H295.655V55.632C295.655 57.988 296.244 59.817 297.422 61.119C298.662 62.421 300.367 63.072 302.537 63.072C305.141 63.072 307.311 62.39 309.047 61.026L312.302 69.303C310.938 70.419 309.264 71.256 307.28 71.814C305.296 72.372 303.25 72.651 301.142 72.651ZM275.846 32.01V22.71H308.954V32.01H275.846ZM321.865 72V22.338H332.932V36.009L331.63 32.01C333.118 28.662 335.443 26.12 338.605 24.384C341.829 22.648 345.828 21.78 350.602 21.78V32.847C350.106 32.723 349.641 32.661 349.207 32.661C348.773 32.599 348.339 32.568 347.905 32.568C343.503 32.568 340 33.87 337.396 36.474C334.792 39.016 333.49 42.829 333.49 47.913V72H321.865ZM387.519 72V61.956L386.868 59.817V42.24C386.868 38.83 385.845 36.195 383.799 34.335C381.753 32.413 378.653 31.452 374.499 31.452C371.709 31.452 368.95 31.886 366.222 32.754C363.556 33.622 361.293 34.831 359.433 36.381L354.876 27.918C357.542 25.872 360.704 24.353 364.362 23.361C368.082 22.307 371.926 21.78 375.894 21.78C383.086 21.78 388.635 23.516 392.541 26.988C396.509 30.398 398.493 35.699 398.493 42.891V72H387.519ZM371.895 72.651C368.175 72.651 364.92 72.031 362.13 70.791C359.34 69.489 357.17 67.722 355.62 65.49C354.132 63.196 353.388 60.623 353.388 57.771C353.388 54.981 354.039 52.47 355.341 50.238C356.705 48.006 358.906 46.239 361.944 44.937C364.982 43.635 369.012 42.984 374.034 42.984H388.449V50.703H374.871C370.903 50.703 368.237 51.354 366.873 52.656C365.509 53.896 364.827 55.446 364.827 57.306C364.827 59.414 365.664 61.088 367.338 62.328C369.012 63.568 371.337 64.188 374.313 64.188C377.165 64.188 379.707 63.537 381.939 62.235C384.233 60.933 385.876 59.011 386.868 56.469L388.821 63.444C387.705 66.358 385.69 68.621 382.776 70.233C379.924 71.845 376.297 72.651 371.895 72.651ZM435.823 72.651C430.739 72.651 426.213 71.566 422.245 69.396C418.277 67.164 415.146 64.126 412.852 60.282C410.558 56.438 409.411 52.067 409.411 47.169C409.411 42.209 410.558 37.838 412.852 34.056C415.146 30.212 418.277 27.205 422.245 25.035C426.213 22.865 430.739 21.78 435.823 21.78C440.969 21.78 445.526 22.865 449.494 25.035C453.524 27.205 456.655 30.181 458.887 33.963C461.181 37.745 462.328 42.147 462.328 47.169C462.328 52.067 461.181 56.438 458.887 60.282C456.655 64.126 453.524 67.164 449.494 69.396C445.526 71.566 440.969 72.651 435.823 72.651ZM435.823 62.7C438.675 62.7 441.217 62.08 443.449 60.84C445.681 59.6 447.417 57.802 448.657 55.446C449.959 53.09 450.61 50.331 450.61 47.169C450.61 43.945 449.959 41.186 448.657 38.892C447.417 36.536 445.681 34.738 443.449 33.498C441.217 32.258 438.706 31.638 435.916 31.638C433.064 31.638 430.522 32.258 428.29 33.498C426.12 34.738 424.384 36.536 423.082 38.892C421.78 41.186 421.129 43.945 421.129 47.169C421.129 50.331 421.78 53.09 423.082 55.446C424.384 57.802 426.12 59.6 428.29 60.84C430.522 62.08 433.033 62.7 435.823 62.7ZM473.444 72V22.338H484.511V36.009L483.209 32.01C484.697 28.662 487.022 26.12 490.184 24.384C493.408 22.648 497.407 21.78 502.181 21.78V32.847C501.685 32.723 501.22 32.661 500.786 32.661C500.352 32.599 499.918 32.568 499.484 32.568C495.082 32.568 491.579 33.87 488.975 36.474C486.371 39.016 485.069 42.829 485.069 47.913V72H473.444ZM532.607 72.651C527.833 72.651 523.524 71.597 519.68 69.489C515.898 67.319 512.922 64.343 510.752 60.561C508.582 56.779 507.497 52.315 507.497 47.169C507.497 42.023 508.582 37.559 510.752 33.777C512.922 29.995 515.898 27.05 519.68 24.942C523.524 22.834 527.833 21.78 532.607 21.78C536.761 21.78 540.481 22.71 543.767 24.57C547.053 26.368 549.657 29.127 551.579 32.847C553.501 36.567 554.462 41.341 554.462 47.169C554.462 52.935 553.532 57.709 551.672 61.491C549.812 65.211 547.239 68.001 543.953 69.861C540.667 71.721 536.885 72.651 532.607 72.651ZM534.002 62.7C536.792 62.7 539.272 62.08 541.442 60.84C543.674 59.6 545.441 57.802 546.743 55.446C548.107 53.09 548.789 50.331 548.789 47.169C548.789 43.945 548.107 41.186 546.743 38.892C545.441 36.536 543.674 34.738 541.442 33.498C539.272 32.258 536.792 31.638 534.002 31.638C531.212 31.638 528.701 32.258 526.469 33.498C524.299 34.738 522.532 36.536 521.168 38.892C519.866 41.186 519.215 43.945 519.215 47.169C519.215 50.331 519.866 53.09 521.168 55.446C522.532 57.802 524.299 59.6 526.469 60.84C528.701 62.08 531.212 62.7 534.002 62.7ZM549.068 72V60.282L549.533 47.076L548.603 33.87V2.994H560.135V72H549.068ZM575.436 72V22.338H587.061V72H575.436ZM581.295 14.154C579.125 14.154 577.327 13.472 575.901 12.108C574.537 10.744 573.855 9.101 573.855 7.179C573.855 5.195 574.537 3.552 575.901 2.24999C577.327 0.885997 579.125 0.203999 581.295 0.203999C583.465 0.203999 585.232 0.854998 586.596 2.157C588.022 3.397 588.735 4.978 588.735 6.9C588.735 8.946 588.053 10.682 586.689 12.108C585.325 13.472 583.527 14.154 581.295 14.154ZM630.497 21.78C634.465 21.78 637.999 22.555 641.099 24.105C644.261 25.655 646.741 28.042 648.539 31.266C650.337 34.428 651.236 38.52 651.236 43.542V72H639.611V45.03C639.611 40.628 638.557 37.342 636.449 35.172C634.403 33.002 631.52 31.917 627.8 31.917C625.072 31.917 622.654 32.475 620.546 33.591C618.438 34.707 616.795 36.381 615.617 38.613C614.501 40.783 613.943 43.542 613.943 46.89V72H602.318V22.338H613.385V35.73L611.432 31.638C613.168 28.476 615.679 26.058 618.965 24.384C622.313 22.648 626.157 21.78 630.497 21.78ZM696.58 72V61.956L695.929 59.817V42.24C695.929 38.83 694.906 36.195 692.86 34.335C690.814 32.413 687.714 31.452 683.56 31.452C680.77 31.452 678.011 31.886 675.283 32.754C672.617 33.622 670.354 34.831 668.494 36.381L663.937 27.918C666.603 25.872 669.765 24.353 673.423 23.361C677.143 22.307 680.987 21.78 684.955 21.78C692.147 21.78 697.696 23.516 701.602 26.988C705.57 30.398 707.554 35.699 707.554 42.891V72H696.58ZM680.956 72.651C677.236 72.651 673.981 72.031 671.191 70.791C668.401 69.489 666.231 67.722 664.681 65.49C663.193 63.196 662.449 60.623 662.449 57.771C662.449 54.981 663.1 52.47 664.402 50.238C665.766 48.006 667.967 46.239 671.005 44.937C674.043 43.635 678.073 42.984 683.095 42.984H697.51V50.703H683.932C679.964 50.703 677.298 51.354 675.934 52.656C674.57 53.896 673.888 55.446 673.888 57.306C673.888 59.414 674.725 61.088 676.399 62.328C678.073 63.568 680.398 64.188 683.374 64.188C686.226 64.188 688.768 63.537 691 62.235C693.294 60.933 694.937 59.011 695.929 56.469L697.882 63.444C696.766 66.358 694.751 68.621 691.837 70.233C688.985 71.845 685.358 72.651 680.956 72.651ZM722.474 72V22.338H733.541V36.009L732.239 32.01C733.727 28.662 736.052 26.12 739.214 24.384C742.438 22.648 746.437 21.78 751.211 21.78V32.847C750.715 32.723 750.25 32.661 749.816 32.661C749.382 32.599 748.948 32.568 748.514 32.568C744.112 32.568 740.609 33.87 738.005 36.474C735.401 39.016 734.099 42.829 734.099 47.913V72H722.474ZM766.981 90.693C764.563 90.693 762.145 90.29 759.727 89.484C757.309 88.678 755.294 87.562 753.682 86.136L758.332 77.58C759.51 78.634 760.843 79.471 762.331 80.091C763.819 80.711 765.338 81.021 766.888 81.021C768.996 81.021 770.701 80.494 772.003 79.44C773.305 78.386 774.514 76.619 775.63 74.139L778.513 67.629L779.443 66.234L798.229 22.338H809.389L786.139 75.999C784.589 79.719 782.853 82.664 780.931 84.834C779.071 87.004 776.963 88.523 774.607 89.391C772.313 90.259 769.771 90.693 766.981 90.693ZM777.211 73.767L754.798 22.338H766.888L785.116 65.211L777.211 73.767ZM873.976 72.93C868.892 72.93 864.211 72.093 859.933 70.419C855.655 68.745 851.935 66.42 848.773 63.444C845.611 60.406 843.162 56.872 841.426 52.842C839.69 48.75 838.822 44.286 838.822 39.45C838.822 34.614 839.69 30.181 841.426 26.151C843.162 22.059 845.611 18.525 848.773 15.549C851.935 12.511 855.655 10.155 859.933 8.481C864.211 6.807 868.861 5.97 873.883 5.97C878.967 5.97 883.617 6.807 887.833 8.481C892.111 10.155 895.831 12.511 898.993 15.549C902.155 18.525 904.604 22.059 906.34 26.151C908.076 30.181 908.944 34.614 908.944 39.45C908.944 44.286 908.076 48.75 906.34 52.842C904.604 56.934 902.155 60.468 898.993 63.444C895.831 66.42 892.111 68.745 887.833 70.419C883.617 72.093 878.998 72.93 873.976 72.93ZM873.883 62.328C877.169 62.328 880.207 61.77 882.997 60.654C885.787 59.538 888.205 57.957 890.251 55.911C892.297 53.803 893.878 51.385 894.994 48.657C896.172 45.867 896.761 42.798 896.761 39.45C896.761 36.102 896.172 33.064 894.994 30.336C893.878 27.546 892.297 25.128 890.251 23.082C888.205 20.974 885.787 19.362 882.997 18.246C880.207 17.13 877.169 16.572 873.883 16.572C870.597 16.572 867.559 17.13 864.769 18.246C862.041 19.362 859.623 20.974 857.515 23.082C855.469 25.128 853.857 27.546 852.679 30.336C851.563 33.064 851.005 36.102 851.005 39.45C851.005 42.736 851.563 45.774 852.679 48.564C853.857 51.354 855.469 53.803 857.515 55.911C859.561 57.957 861.979 59.538 864.769 60.654C867.559 61.77 870.597 62.328 873.883 62.328ZM948.172 72.651C944.142 72.651 940.453 71.721 937.105 69.861C933.819 68.001 931.184 65.211 929.2 61.491C927.278 57.709 926.317 52.935 926.317 47.169C926.317 41.341 927.247 36.567 929.107 32.847C931.029 29.127 933.633 26.368 936.919 24.57C940.205 22.71 943.956 21.78 948.172 21.78C953.07 21.78 957.379 22.834 961.099 24.942C964.881 27.05 967.857 29.995 970.027 33.777C972.259 37.559 973.375 42.023 973.375 47.169C973.375 52.315 972.259 56.81 970.027 60.654C967.857 64.436 964.881 67.381 961.099 69.489C957.379 71.597 953.07 72.651 948.172 72.651ZM920.644 90.042V22.338H931.711V34.056L931.339 47.262L932.269 60.468V90.042H920.644ZM946.87 62.7C949.66 62.7 952.14 62.08 954.31 60.84C956.542 59.6 958.309 57.802 959.611 55.446C960.913 53.09 961.564 50.331 961.564 47.169C961.564 43.945 960.913 41.186 959.611 38.892C958.309 36.536 956.542 34.738 954.31 33.498C952.14 32.258 949.66 31.638 946.87 31.638C944.08 31.638 941.569 32.258 939.337 33.498C937.105 34.738 935.338 36.536 934.036 38.892C932.734 41.186 932.083 43.945 932.083 47.169C932.083 50.331 932.734 53.09 934.036 55.446C935.338 57.802 937.105 59.6 939.337 60.84C941.569 62.08 944.08 62.7 946.87 62.7ZM1011.93 72.651C1007.9 72.651 1004.21 71.721 1000.86 69.861C997.574 68.001 994.939 65.211 992.955 61.491C991.033 57.709 990.072 52.935 990.072 47.169C990.072 41.341 991.002 36.567 992.862 32.847C994.784 29.127 997.388 26.368 1000.67 24.57C1003.96 22.71 1007.71 21.78 1011.93 21.78C1016.83 21.78 1021.13 22.834 1024.85 24.942C1028.64 27.05 1031.61 29.995 1033.78 33.777C1036.01 37.559 1037.13 42.023 1037.13 47.169C1037.13 52.315 1036.01 56.81 1033.78 60.654C1031.61 64.436 1028.64 67.381 1024.85 69.489C1021.13 71.597 1016.83 72.651 1011.93 72.651ZM984.399 90.042V22.338H995.466V34.056L995.094 47.262L996.024 60.468V90.042H984.399ZM1010.63 62.7C1013.42 62.7 1015.9 62.08 1018.07 60.84C1020.3 59.6 1022.06 57.802 1023.37 55.446C1024.67 53.09 1025.32 50.331 1025.32 47.169C1025.32 43.945 1024.67 41.186 1023.37 38.892C1022.06 36.536 1020.3 34.738 1018.07 33.498C1015.9 32.258 1013.42 31.638 1010.63 31.638C1007.84 31.638 1005.32 32.258 1003.09 33.498C1000.86 34.738 999.093 36.536 997.791 38.892C996.489 41.186 995.838 43.945 995.838 47.169C995.838 50.331 996.489 53.09 997.791 55.446C999.093 57.802 1000.86 59.6 1003.09 60.84C1005.32 62.08 1007.84 62.7 1010.63 62.7ZM1070.48 72.651C1065.39 72.651 1060.87 71.566 1056.9 69.396C1052.93 67.164 1049.8 64.126 1047.5 60.282C1045.21 56.438 1044.06 52.067 1044.06 47.169C1044.06 42.209 1045.21 37.838 1047.5 34.056C1049.8 30.212 1052.93 27.205 1056.9 25.035C1060.87 22.865 1065.39 21.78 1070.48 21.78C1075.62 21.78 1080.18 22.865 1084.15 25.035C1088.18 27.205 1091.31 30.181 1093.54 33.963C1095.83 37.745 1096.98 42.147 1096.98 47.169C1096.98 52.067 1095.83 56.438 1093.54 60.282C1091.31 64.126 1088.18 67.164 1084.15 69.396C1080.18 71.566 1075.62 72.651 1070.48 72.651ZM1070.48 62.7C1073.33 62.7 1075.87 62.08 1078.1 60.84C1080.33 59.6 1082.07 57.802 1083.31 55.446C1084.61 53.09 1085.26 50.331 1085.26 47.169C1085.26 43.945 1084.61 41.186 1083.31 38.892C1082.07 36.536 1080.33 34.738 1078.1 33.498C1075.87 32.258 1073.36 31.638 1070.57 31.638C1067.72 31.638 1065.17 32.258 1062.94 33.498C1060.77 34.738 1059.04 36.536 1057.73 38.892C1056.43 41.186 1055.78 43.945 1055.78 47.169C1055.78 50.331 1056.43 53.09 1057.73 55.446C1059.04 57.802 1060.77 59.6 1062.94 60.84C1065.17 62.08 1067.69 62.7 1070.48 62.7ZM1108.1 72V22.338H1119.16V36.009L1117.86 32.01C1119.35 28.662 1121.67 26.12 1124.84 24.384C1128.06 22.648 1132.06 21.78 1136.83 21.78V32.847C1136.34 32.723 1135.87 32.661 1135.44 32.661C1135 32.599 1134.57 32.568 1134.14 32.568C1129.73 32.568 1126.23 33.87 1123.63 36.474C1121.02 39.016 1119.72 42.829 1119.72 47.913V72H1108.1ZM1167.2 72.651C1161.75 72.651 1157.53 71.256 1154.56 68.466C1151.58 65.614 1150.09 61.429 1150.09 55.911V11.364H1161.72V55.632C1161.72 57.988 1162.31 59.817 1163.48 61.119C1164.72 62.421 1166.43 63.072 1168.6 63.072C1171.2 63.072 1173.37 62.39 1175.11 61.026L1178.36 69.303C1177 70.419 1175.33 71.256 1173.34 71.814C1171.36 72.372 1169.31 72.651 1167.2 72.651ZM1141.91 32.01V22.71H1175.02V32.01H1141.91ZM1208.95 72.651C1204.73 72.651 1201.01 71.876 1197.79 70.326C1194.56 68.714 1192.05 66.296 1190.25 63.072C1188.45 59.786 1187.56 55.663 1187.56 50.703V22.338H1199.18V49.122C1199.18 53.586 1200.17 56.934 1202.16 59.166C1204.2 61.336 1207.09 62.421 1210.81 62.421C1213.53 62.421 1215.89 61.863 1217.87 60.747C1219.92 59.631 1221.5 57.957 1222.62 55.725C1223.79 53.493 1224.38 50.734 1224.38 47.448V22.338H1236.01V72H1224.94V58.608L1226.89 62.7C1225.22 65.924 1222.77 68.404 1219.55 70.14C1216.32 71.814 1212.79 72.651 1208.95 72.651ZM1279.41 21.78C1283.38 21.78 1286.91 22.555 1290.01 24.105C1293.17 25.655 1295.65 28.042 1297.45 31.266C1299.25 34.428 1300.15 38.52 1300.15 43.542V72H1288.52V45.03C1288.52 40.628 1287.47 37.342 1285.36 35.172C1283.31 33.002 1280.43 31.917 1276.71 31.917C1273.98 31.917 1271.57 32.475 1269.46 33.591C1267.35 34.707 1265.71 36.381 1264.53 38.613C1263.41 40.783 1262.85 43.542 1262.85 46.89V72H1251.23V22.338H1262.3V35.73L1260.34 31.638C1262.08 28.476 1264.59 26.058 1267.88 24.384C1271.22 22.648 1275.07 21.78 1279.41 21.78ZM1314.89 72V22.338H1326.52V72H1314.89ZM1320.75 14.154C1318.58 14.154 1316.79 13.472 1315.36 12.108C1314 10.744 1313.31 9.101 1313.31 7.179C1313.31 5.195 1314 3.552 1315.36 2.24999C1316.79 0.885997 1318.58 0.203999 1320.75 0.203999C1322.92 0.203999 1324.69 0.854998 1326.05 2.157C1327.48 3.397 1328.19 4.978 1328.19 6.9C1328.19 8.946 1327.51 10.682 1326.15 12.108C1324.78 13.472 1322.99 14.154 1320.75 14.154ZM1360.47 72.651C1355.01 72.651 1350.8 71.256 1347.82 68.466C1344.85 65.614 1343.36 61.429 1343.36 55.911V11.364H1354.98V55.632C1354.98 57.988 1355.57 59.817 1356.75 61.119C1357.99 62.421 1359.7 63.072 1361.87 63.072C1364.47 63.072 1366.64 62.39 1368.38 61.026L1371.63 69.303C1370.27 70.419 1368.59 71.256 1366.61 71.814C1364.62 72.372 1362.58 72.651 1360.47 72.651ZM1335.17 32.01V22.71H1368.28V32.01H1335.17ZM1384.38 90.693C1381.96 90.693 1379.54 90.29 1377.12 89.484C1374.71 88.678 1372.69 87.562 1371.08 86.136L1375.73 77.58C1376.91 78.634 1378.24 79.471 1379.73 80.091C1381.22 80.711 1382.73 81.021 1384.28 81.021C1386.39 81.021 1388.1 80.494 1389.4 79.44C1390.7 78.386 1391.91 76.619 1393.03 74.139L1395.91 67.629L1396.84 66.234L1415.63 22.338H1426.79L1403.54 75.999C1401.99 79.719 1400.25 82.664 1398.33 84.834C1396.47 87.004 1394.36 88.523 1392 89.391C1389.71 90.259 1387.17 90.693 1384.38 90.693ZM1394.61 73.767L1372.19 22.338H1384.28L1402.51 65.211L1394.61 73.767Z" fill="#020126"/>
</svg>
