<svg width="250" height="250" viewBox="0 0 250 250" fill="none" xmlns="http://www.w3.org/2000/svg">
<circle cx="125" cy="125" r="123.5" stroke="#020126" stroke-width="3"/>
<path d="M39.4531 125V100.5H49.5331C51.7031 100.5 53.5581 100.85 55.0981 101.55C56.6614 102.25 57.8631 103.253 58.7031 104.56C59.5431 105.867 59.9631 107.418 59.9631 109.215C59.9631 111.012 59.5431 112.563 58.7031 113.87C57.8631 115.153 56.6614 116.145 55.0981 116.845C53.5581 117.522 51.7031 117.86 49.5331 117.86H41.9731L44.0031 115.795V125H39.4531ZM55.4831 125L49.2881 116.11H54.1531L60.3831 125H55.4831ZM44.0031 116.285L41.9731 114.115H49.3231C51.3298 114.115 52.8348 113.683 53.8381 112.82C54.8648 111.957 55.3781 110.755 55.3781 109.215C55.3781 107.652 54.8648 106.45 53.8381 105.61C52.8348 104.77 51.3298 104.35 49.3231 104.35H41.9731L44.0031 102.11V116.285ZM73.0337 125.245C71.1203 125.245 69.417 124.837 67.9237 124.02C66.4303 123.18 65.252 122.037 64.3887 120.59C63.5253 119.143 63.0937 117.498 63.0937 115.655C63.0937 113.788 63.5253 112.143 64.3887 110.72C65.252 109.273 66.4303 108.142 67.9237 107.325C69.417 106.508 71.1203 106.1 73.0337 106.1C74.9703 106.1 76.6853 106.508 78.1787 107.325C79.6953 108.142 80.8737 109.262 81.7137 110.685C82.577 112.108 83.0087 113.765 83.0087 115.655C83.0087 117.498 82.577 119.143 81.7137 120.59C80.8737 122.037 79.6953 123.18 78.1787 124.02C76.6853 124.837 74.9703 125.245 73.0337 125.245ZM73.0337 121.5C74.107 121.5 75.0637 121.267 75.9037 120.8C76.7437 120.333 77.397 119.657 77.8637 118.77C78.3537 117.883 78.5987 116.845 78.5987 115.655C78.5987 114.442 78.3537 113.403 77.8637 112.54C77.397 111.653 76.7437 110.977 75.9037 110.51C75.0637 110.043 74.1187 109.81 73.0687 109.81C71.9953 109.81 71.0387 110.043 70.1987 110.51C69.382 110.977 68.7287 111.653 68.2387 112.54C67.7487 113.403 67.5037 114.442 67.5037 115.655C67.5037 116.845 67.7487 117.883 68.2387 118.77C68.7287 119.657 69.382 120.333 70.1987 120.8C71.0387 121.267 71.9837 121.5 73.0337 121.5ZM97.5523 125.245C95.9656 125.245 94.5539 124.895 93.3173 124.195C92.0806 123.495 91.1006 122.445 90.3773 121.045C89.6773 119.622 89.3273 117.825 89.3273 115.655C89.3273 113.462 89.6889 111.665 90.4123 110.265C91.1589 108.865 92.1506 107.827 93.3873 107.15C94.6473 106.45 96.0356 106.1 97.5523 106.1C99.3956 106.1 101.017 106.497 102.417 107.29C103.841 108.083 104.961 109.192 105.777 110.615C106.617 112.038 107.037 113.718 107.037 115.655C107.037 117.592 106.617 119.272 105.777 120.695C104.961 122.118 103.841 123.238 102.417 124.055C101.017 124.848 99.3956 125.245 97.5523 125.245ZM87.1923 125V99.03H91.5673V110.65L91.2173 115.62L91.3573 120.59V125H87.1923ZM97.0623 121.5C98.1123 121.5 99.0456 121.267 99.8623 120.8C100.702 120.333 101.367 119.657 101.857 118.77C102.347 117.883 102.592 116.845 102.592 115.655C102.592 114.442 102.347 113.403 101.857 112.54C101.367 111.653 100.702 110.977 99.8623 110.51C99.0456 110.043 98.1123 109.81 97.0623 109.81C96.0123 109.81 95.0673 110.043 94.2273 110.51C93.3873 110.977 92.7223 111.653 92.2323 112.54C91.7423 113.403 91.4973 114.442 91.4973 115.655C91.4973 116.845 91.7423 117.883 92.2323 118.77C92.7223 119.657 93.3873 120.333 94.2273 120.8C95.0673 121.267 96.0123 121.5 97.0623 121.5ZM119.586 125.245C117.673 125.245 115.97 124.837 114.476 124.02C112.983 123.18 111.805 122.037 110.941 120.59C110.078 119.143 109.646 117.498 109.646 115.655C109.646 113.788 110.078 112.143 110.941 110.72C111.805 109.273 112.983 108.142 114.476 107.325C115.97 106.508 117.673 106.1 119.586 106.1C121.523 106.1 123.238 106.508 124.731 107.325C126.248 108.142 127.426 109.262 128.266 110.685C129.13 112.108 129.561 113.765 129.561 115.655C129.561 117.498 129.13 119.143 128.266 120.59C127.426 122.037 126.248 123.18 124.731 124.02C123.238 124.837 121.523 125.245 119.586 125.245ZM119.586 121.5C120.66 121.5 121.616 121.267 122.456 120.8C123.296 120.333 123.95 119.657 124.416 118.77C124.906 117.883 125.151 116.845 125.151 115.655C125.151 114.442 124.906 113.403 124.416 112.54C123.95 111.653 123.296 110.977 122.456 110.51C121.616 110.043 120.671 109.81 119.621 109.81C118.548 109.81 117.591 110.043 116.751 110.51C115.935 110.977 115.281 111.653 114.791 112.54C114.301 113.403 114.056 114.442 114.056 115.655C114.056 116.845 114.301 117.883 114.791 118.77C115.281 119.657 115.935 120.333 116.751 120.8C117.591 121.267 118.536 121.5 119.586 121.5ZM140.78 125.245C138.727 125.245 137.14 124.72 136.02 123.67C134.9 122.597 134.34 121.022 134.34 118.945V102.18H138.715V118.84C138.715 119.727 138.937 120.415 139.38 120.905C139.847 121.395 140.488 121.64 141.305 121.64C142.285 121.64 143.102 121.383 143.755 120.87L144.98 123.985C144.467 124.405 143.837 124.72 143.09 124.93C142.343 125.14 141.573 125.245 140.78 125.245ZM131.26 109.95V106.45H143.72V109.95H131.26ZM148.579 125V106.31H152.954V125H148.579ZM150.784 103.23C149.967 103.23 149.291 102.973 148.754 102.46C148.241 101.947 147.984 101.328 147.984 100.605C147.984 99.8583 148.241 99.24 148.754 98.75C149.291 98.2367 149.967 97.98 150.784 97.98C151.601 97.98 152.266 98.225 152.779 98.715C153.316 99.1817 153.584 99.7767 153.584 100.5C153.584 101.27 153.327 101.923 152.814 102.46C152.301 102.973 151.624 103.23 150.784 103.23ZM167.271 125.245C165.311 125.245 163.561 124.837 162.021 124.02C160.505 123.18 159.315 122.037 158.451 120.59C157.588 119.143 157.156 117.498 157.156 115.655C157.156 113.788 157.588 112.143 158.451 110.72C159.315 109.273 160.505 108.142 162.021 107.325C163.561 106.508 165.311 106.1 167.271 106.1C169.091 106.1 170.69 106.473 172.066 107.22C173.466 107.943 174.528 109.017 175.251 110.44L171.891 112.4C171.331 111.513 170.643 110.86 169.826 110.44C169.033 110.02 168.17 109.81 167.236 109.81C166.163 109.81 165.195 110.043 164.331 110.51C163.468 110.977 162.791 111.653 162.301 112.54C161.811 113.403 161.566 114.442 161.566 115.655C161.566 116.868 161.811 117.918 162.301 118.805C162.791 119.668 163.468 120.333 164.331 120.8C165.195 121.267 166.163 121.5 167.236 121.5C168.17 121.5 169.033 121.29 169.826 120.87C170.643 120.45 171.331 119.797 171.891 118.91L175.251 120.87C174.528 122.27 173.466 123.355 172.066 124.125C170.69 124.872 169.091 125.245 167.271 125.245ZM184.808 125.245C183.245 125.245 181.74 125.047 180.293 124.65C178.87 124.23 177.738 123.728 176.898 123.145L178.578 119.82C179.418 120.357 180.421 120.8 181.588 121.15C182.755 121.5 183.921 121.675 185.088 121.675C186.465 121.675 187.456 121.488 188.063 121.115C188.693 120.742 189.008 120.24 189.008 119.61C189.008 119.097 188.798 118.712 188.378 118.455C187.958 118.175 187.41 117.965 186.733 117.825C186.056 117.685 185.298 117.557 184.458 117.44C183.641 117.323 182.813 117.172 181.973 116.985C181.156 116.775 180.41 116.483 179.733 116.11C179.056 115.713 178.508 115.188 178.088 114.535C177.668 113.882 177.458 113.018 177.458 111.945C177.458 110.755 177.796 109.728 178.473 108.865C179.15 107.978 180.095 107.302 181.308 106.835C182.545 106.345 184.003 106.1 185.683 106.1C186.943 106.1 188.215 106.24 189.498 106.52C190.781 106.8 191.843 107.197 192.683 107.71L191.003 111.035C190.116 110.498 189.218 110.137 188.308 109.95C187.421 109.74 186.535 109.635 185.648 109.635C184.318 109.635 183.326 109.833 182.673 110.23C182.043 110.627 181.728 111.128 181.728 111.735C181.728 112.295 181.938 112.715 182.358 112.995C182.778 113.275 183.326 113.497 184.003 113.66C184.68 113.823 185.426 113.963 186.243 114.08C187.083 114.173 187.911 114.325 188.728 114.535C189.545 114.745 190.291 115.037 190.968 115.41C191.668 115.76 192.228 116.262 192.648 116.915C193.068 117.568 193.278 118.42 193.278 119.47C193.278 120.637 192.928 121.652 192.228 122.515C191.551 123.378 190.583 124.055 189.323 124.545C188.063 125.012 186.558 125.245 184.808 125.245ZM202.799 128.5L214.349 95.53H218.269L206.719 128.5H202.799ZM57.2607 168V143.5H61.0057L71.7157 161.385H69.7557L80.2907 143.5H84.0357L84.0707 168H79.7657L79.7307 150.255H80.6407L71.6807 165.2H69.6507L60.5507 150.255H61.6007V168H57.2607ZM98.6684 168.245C96.7551 168.245 95.0518 167.837 93.5584 167.02C92.0651 166.18 90.8868 165.037 90.0234 163.59C89.1601 162.143 88.7284 160.498 88.7284 158.655C88.7284 156.788 89.1601 155.143 90.0234 153.72C90.8868 152.273 92.0651 151.142 93.5584 150.325C95.0518 149.508 96.7551 149.1 98.6684 149.1C100.605 149.1 102.32 149.508 103.813 150.325C105.33 151.142 106.508 152.262 107.348 153.685C108.212 155.108 108.643 156.765 108.643 158.655C108.643 160.498 108.212 162.143 107.348 163.59C106.508 165.037 105.33 166.18 103.813 167.02C102.32 167.837 100.605 168.245 98.6684 168.245ZM98.6684 164.5C99.7418 164.5 100.698 164.267 101.538 163.8C102.378 163.333 103.032 162.657 103.498 161.77C103.988 160.883 104.233 159.845 104.233 158.655C104.233 157.442 103.988 156.403 103.498 155.54C103.032 154.653 102.378 153.977 101.538 153.51C100.698 153.043 99.7534 152.81 98.7034 152.81C97.6301 152.81 96.6734 153.043 95.8334 153.51C95.0168 153.977 94.3634 154.653 93.8734 155.54C93.3834 156.403 93.1384 157.442 93.1384 158.655C93.1384 159.845 93.3834 160.883 93.8734 161.77C94.3634 162.657 95.0168 163.333 95.8334 163.8C96.6734 164.267 97.6184 164.5 98.6684 164.5ZM123.187 168.245C121.6 168.245 120.189 167.895 118.952 167.195C117.715 166.495 116.735 165.445 116.012 164.045C115.312 162.622 114.962 160.825 114.962 158.655C114.962 156.462 115.324 154.665 116.047 153.265C116.794 151.865 117.785 150.827 119.022 150.15C120.282 149.45 121.67 149.1 123.187 149.1C125.03 149.1 126.652 149.497 128.052 150.29C129.475 151.083 130.595 152.192 131.412 153.615C132.252 155.038 132.672 156.718 132.672 158.655C132.672 160.592 132.252 162.272 131.412 163.695C130.595 165.118 129.475 166.238 128.052 167.055C126.652 167.848 125.03 168.245 123.187 168.245ZM112.827 168V142.03H117.202V153.65L116.852 158.62L116.992 163.59V168H112.827ZM122.697 164.5C123.747 164.5 124.68 164.267 125.497 163.8C126.337 163.333 127.002 162.657 127.492 161.77C127.982 160.883 128.227 159.845 128.227 158.655C128.227 157.442 127.982 156.403 127.492 155.54C127.002 154.653 126.337 153.977 125.497 153.51C124.68 153.043 123.747 152.81 122.697 152.81C121.647 152.81 120.702 153.043 119.862 153.51C119.022 153.977 118.357 154.653 117.867 155.54C117.377 156.403 117.132 157.442 117.132 158.655C117.132 159.845 117.377 160.883 117.867 161.77C118.357 162.657 119.022 163.333 119.862 163.8C120.702 164.267 121.647 164.5 122.697 164.5ZM136.821 168V149.31H141.196V168H136.821ZM139.026 146.23C138.21 146.23 137.533 145.973 136.996 145.46C136.483 144.947 136.226 144.328 136.226 143.605C136.226 142.858 136.483 142.24 136.996 141.75C137.533 141.237 138.21 140.98 139.026 140.98C139.843 140.98 140.508 141.225 141.021 141.715C141.558 142.182 141.826 142.777 141.826 143.5C141.826 144.27 141.57 144.923 141.056 145.46C140.543 145.973 139.866 146.23 139.026 146.23ZM146.938 168V142.03H151.313V168H146.938ZM157.056 168V149.31H161.431V168H157.056ZM159.261 146.23C158.444 146.23 157.767 145.973 157.231 145.46C156.717 144.947 156.461 144.328 156.461 143.605C156.461 142.858 156.717 142.24 157.231 141.75C157.767 141.237 158.444 140.98 159.261 140.98C160.077 140.98 160.742 141.225 161.256 141.715C161.792 142.182 162.061 142.777 162.061 143.5C162.061 144.27 161.804 144.923 161.291 145.46C160.777 145.973 160.101 146.23 159.261 146.23ZM174.208 168.245C172.154 168.245 170.568 167.72 169.448 166.67C168.328 165.597 167.768 164.022 167.768 161.945V145.18H172.143V161.84C172.143 162.727 172.364 163.415 172.808 163.905C173.274 164.395 173.916 164.64 174.733 164.64C175.713 164.64 176.529 164.383 177.183 163.87L178.408 166.985C177.894 167.405 177.264 167.72 176.518 167.93C175.771 168.14 175.001 168.245 174.208 168.245ZM164.688 152.95V149.45H177.148V152.95H164.688ZM183.205 175.035C182.295 175.035 181.385 174.883 180.475 174.58C179.565 174.277 178.807 173.857 178.2 173.32L179.95 170.1C180.393 170.497 180.895 170.812 181.455 171.045C182.015 171.278 182.587 171.395 183.17 171.395C183.963 171.395 184.605 171.197 185.095 170.8C185.585 170.403 186.04 169.738 186.46 168.805L187.545 166.355L187.895 165.83L194.965 149.31H199.165L190.415 169.505C189.832 170.905 189.178 172.013 188.455 172.83C187.755 173.647 186.962 174.218 186.075 174.545C185.212 174.872 184.255 175.035 183.205 175.035ZM187.055 168.665L178.62 149.31H183.17L190.03 165.445L187.055 168.665Z" fill="black"/>
</svg>
