<svg width="250" height="250" viewBox="0 0 250 250" fill="none" xmlns="http://www.w3.org/2000/svg">
<circle cx="125" cy="125" r="123.5" stroke="#020126" stroke-width="3"/>
<path d="M34.3256 137V112.5H38.0706L48.7806 130.385H46.8206L57.3556 112.5H61.1006L61.1356 137H56.8306L56.7956 119.255H57.7056L48.7456 134.2H46.7156L37.6156 119.255H38.6656V137H34.3256ZM76.1184 137.245C74.0417 137.245 72.2217 136.837 70.6584 136.02C69.1184 135.18 67.9167 134.037 67.0534 132.59C66.2134 131.143 65.7934 129.498 65.7934 127.655C65.7934 125.788 66.2017 124.143 67.0184 122.72C67.8584 121.273 69.0017 120.142 70.4484 119.325C71.9184 118.508 73.5867 118.1 75.4534 118.1C77.2734 118.1 78.895 118.497 80.3184 119.29C81.7417 120.083 82.8617 121.203 83.6784 122.65C84.495 124.097 84.9034 125.8 84.9034 127.76C84.9034 127.947 84.8917 128.157 84.8684 128.39C84.8684 128.623 84.8567 128.845 84.8334 129.055H69.2584V126.15H82.5234L80.8084 127.06C80.8317 125.987 80.61 125.042 80.1434 124.225C79.6767 123.408 79.035 122.767 78.2184 122.3C77.425 121.833 76.5034 121.6 75.4534 121.6C74.38 121.6 73.435 121.833 72.6184 122.3C71.825 122.767 71.195 123.42 70.7284 124.26C70.285 125.077 70.0634 126.045 70.0634 127.165V127.865C70.0634 128.985 70.32 129.977 70.8334 130.84C71.3467 131.703 72.07 132.368 73.0034 132.835C73.9367 133.302 75.01 133.535 76.2234 133.535C77.2734 133.535 78.2184 133.372 79.0584 133.045C79.8984 132.718 80.645 132.205 81.2984 131.505L83.6434 134.2C82.8034 135.18 81.7417 135.938 80.4584 136.475C79.1984 136.988 77.7517 137.245 76.1184 137.245ZM96.1408 137.245C94.0875 137.245 92.5008 136.72 91.3808 135.67C90.2608 134.597 89.7008 133.022 89.7008 130.945V114.18H94.0758V130.84C94.0758 131.727 94.2975 132.415 94.7408 132.905C95.2075 133.395 95.8492 133.64 96.6658 133.64C97.6458 133.64 98.4625 133.383 99.1158 132.87L100.341 135.985C99.8275 136.405 99.1975 136.72 98.4508 136.93C97.7042 137.14 96.9342 137.245 96.1408 137.245ZM86.6208 121.95V118.45H99.0808V121.95H86.6208ZM115.455 137V133.22L115.21 132.415V125.8C115.21 124.517 114.825 123.525 114.055 122.825C113.285 122.102 112.118 121.74 110.555 121.74C109.505 121.74 108.466 121.903 107.44 122.23C106.436 122.557 105.585 123.012 104.885 123.595L103.17 120.41C104.173 119.64 105.363 119.068 106.74 118.695C108.14 118.298 109.586 118.1 111.08 118.1C113.786 118.1 115.875 118.753 117.345 120.06C118.838 121.343 119.585 123.338 119.585 126.045V137H115.455ZM109.575 137.245C108.175 137.245 106.95 137.012 105.9 136.545C104.85 136.055 104.033 135.39 103.45 134.55C102.89 133.687 102.61 132.718 102.61 131.645C102.61 130.595 102.855 129.65 103.345 128.81C103.858 127.97 104.686 127.305 105.83 126.815C106.973 126.325 108.49 126.08 110.38 126.08H115.805V128.985H110.695C109.201 128.985 108.198 129.23 107.685 129.72C107.171 130.187 106.915 130.77 106.915 131.47C106.915 132.263 107.23 132.893 107.86 133.36C108.49 133.827 109.365 134.06 110.485 134.06C111.558 134.06 112.515 133.815 113.355 133.325C114.218 132.835 114.836 132.112 115.21 131.155L115.945 133.78C115.525 134.877 114.766 135.728 113.67 136.335C112.596 136.942 111.231 137.245 109.575 137.245ZM129.828 137L121.813 118.31H126.363L133.258 134.795H131.018L138.158 118.31H142.358L134.343 137H129.828ZM153.364 137.245C151.288 137.245 149.468 136.837 147.904 136.02C146.364 135.18 145.163 134.037 144.299 132.59C143.459 131.143 143.039 129.498 143.039 127.655C143.039 125.788 143.448 124.143 144.264 122.72C145.104 121.273 146.248 120.142 147.694 119.325C149.164 118.508 150.833 118.1 152.699 118.1C154.519 118.1 156.141 118.497 157.564 119.29C158.988 120.083 160.108 121.203 160.924 122.65C161.741 124.097 162.149 125.8 162.149 127.76C162.149 127.947 162.138 128.157 162.114 128.39C162.114 128.623 162.103 128.845 162.079 129.055H146.504V126.15H159.769L158.054 127.06C158.078 125.987 157.856 125.042 157.389 124.225C156.923 123.408 156.281 122.767 155.464 122.3C154.671 121.833 153.749 121.6 152.699 121.6C151.626 121.6 150.681 121.833 149.864 122.3C149.071 122.767 148.441 123.42 147.974 124.26C147.531 125.077 147.309 126.045 147.309 127.165V127.865C147.309 128.985 147.566 129.977 148.079 130.84C148.593 131.703 149.316 132.368 150.249 132.835C151.183 133.302 152.256 133.535 153.469 133.535C154.519 133.535 155.464 133.372 156.304 133.045C157.144 132.718 157.891 132.205 158.544 131.505L160.889 134.2C160.049 135.18 158.988 135.938 157.704 136.475C156.444 136.988 154.998 137.245 153.364 137.245ZM166.352 137V118.31H170.517V123.455L170.027 121.95C170.587 120.69 171.462 119.733 172.652 119.08C173.865 118.427 175.37 118.1 177.167 118.1V122.265C176.98 122.218 176.805 122.195 176.642 122.195C176.479 122.172 176.315 122.16 176.152 122.16C174.495 122.16 173.177 122.65 172.197 123.63C171.217 124.587 170.727 126.022 170.727 127.935V137H166.352ZM186.824 137.245C185.261 137.245 183.756 137.047 182.309 136.65C180.886 136.23 179.754 135.728 178.914 135.145L180.594 131.82C181.434 132.357 182.438 132.8 183.604 133.15C184.771 133.5 185.938 133.675 187.104 133.675C188.481 133.675 189.473 133.488 190.079 133.115C190.709 132.742 191.024 132.24 191.024 131.61C191.024 131.097 190.814 130.712 190.394 130.455C189.974 130.175 189.426 129.965 188.749 129.825C188.073 129.685 187.314 129.557 186.474 129.44C185.658 129.323 184.829 129.172 183.989 128.985C183.173 128.775 182.426 128.483 181.749 128.11C181.073 127.713 180.524 127.188 180.104 126.535C179.684 125.882 179.474 125.018 179.474 123.945C179.474 122.755 179.813 121.728 180.489 120.865C181.166 119.978 182.111 119.302 183.324 118.835C184.561 118.345 186.019 118.1 187.699 118.1C188.959 118.1 190.231 118.24 191.514 118.52C192.798 118.8 193.859 119.197 194.699 119.71L193.019 123.035C192.133 122.498 191.234 122.137 190.324 121.95C189.438 121.74 188.551 121.635 187.664 121.635C186.334 121.635 185.343 121.833 184.689 122.23C184.059 122.627 183.744 123.128 183.744 123.735C183.744 124.295 183.954 124.715 184.374 124.995C184.794 125.275 185.343 125.497 186.019 125.66C186.696 125.823 187.443 125.963 188.259 126.08C189.099 126.173 189.928 126.325 190.744 126.535C191.561 126.745 192.308 127.037 192.984 127.41C193.684 127.76 194.244 128.262 194.664 128.915C195.084 129.568 195.294 130.42 195.294 131.47C195.294 132.637 194.944 133.652 194.244 134.515C193.568 135.378 192.599 136.055 191.339 136.545C190.079 137.012 188.574 137.245 186.824 137.245ZM207.847 137.245C205.77 137.245 203.95 136.837 202.387 136.02C200.847 135.18 199.645 134.037 198.782 132.59C197.942 131.143 197.522 129.498 197.522 127.655C197.522 125.788 197.93 124.143 198.747 122.72C199.587 121.273 200.73 120.142 202.177 119.325C203.647 118.508 205.315 118.1 207.182 118.1C209.002 118.1 210.624 118.497 212.047 119.29C213.47 120.083 214.59 121.203 215.407 122.65C216.224 124.097 216.632 125.8 216.632 127.76C216.632 127.947 216.62 128.157 216.597 128.39C216.597 128.623 216.585 128.845 216.562 129.055H200.987V126.15H214.252L212.537 127.06C212.56 125.987 212.339 125.042 211.872 124.225C211.405 123.408 210.764 122.767 209.947 122.3C209.154 121.833 208.232 121.6 207.182 121.6C206.109 121.6 205.164 121.833 204.347 122.3C203.554 122.767 202.924 123.42 202.457 124.26C202.014 125.077 201.792 126.045 201.792 127.165V127.865C201.792 128.985 202.049 129.977 202.562 130.84C203.075 131.703 203.799 132.368 204.732 132.835C205.665 133.302 206.739 133.535 207.952 133.535C209.002 133.535 209.947 133.372 210.787 133.045C211.627 132.718 212.374 132.205 213.027 131.505L215.372 134.2C214.532 135.18 213.47 135.938 212.187 136.475C210.927 136.988 209.48 137.245 207.847 137.245Z" fill="black"/>
</svg>
