<svg width="250" height="250" viewBox="0 0 250 250" fill="none" xmlns="http://www.w3.org/2000/svg">
<circle cx="125" cy="125" r="123.5" stroke="#020126" stroke-width="3"/>
<path d="M38.8162 107.685H50.9962V111.43H38.8162V107.685ZM39.1662 118.185H52.9912V122H34.6162V97.5H52.5012V101.315H39.1662V118.185ZM68.2484 103.1C69.7418 103.1 71.0718 103.392 72.2384 103.975C73.4284 104.558 74.3618 105.457 75.0384 106.67C75.7151 107.86 76.0534 109.4 76.0534 111.29V122H71.6784V111.85C71.6784 110.193 71.2818 108.957 70.4884 108.14C69.7184 107.323 68.6334 106.915 67.2334 106.915C66.2068 106.915 65.2968 107.125 64.5034 107.545C63.7101 107.965 63.0918 108.595 62.6484 109.435C62.2284 110.252 62.0184 111.29 62.0184 112.55V122H57.6434V103.31H61.8084V108.35L61.0734 106.81C61.7268 105.62 62.6718 104.71 63.9084 104.08C65.1684 103.427 66.6151 103.1 68.2484 103.1ZM88.6384 122.245C86.5851 122.245 84.9984 121.72 83.8784 120.67C82.7584 119.597 82.1984 118.022 82.1984 115.945V99.18H86.5734V115.84C86.5734 116.727 86.7951 117.415 87.2384 117.905C87.7051 118.395 88.3467 118.64 89.1634 118.64C90.1434 118.64 90.9601 118.383 91.6134 117.87L92.8384 120.985C92.3251 121.405 91.6951 121.72 90.9484 121.93C90.2017 122.14 89.4317 122.245 88.6384 122.245ZM79.1184 106.95V103.45H91.5784V106.95H79.1184ZM104.607 122.245C102.53 122.245 100.71 121.837 99.1471 121.02C97.6071 120.18 96.4055 119.037 95.5421 117.59C94.7021 116.143 94.2821 114.498 94.2821 112.655C94.2821 110.788 94.6905 109.143 95.5071 107.72C96.3471 106.273 97.4905 105.142 98.9371 104.325C100.407 103.508 102.075 103.1 103.942 103.1C105.762 103.1 107.384 103.497 108.807 104.29C110.23 105.083 111.35 106.203 112.167 107.65C112.984 109.097 113.392 110.8 113.392 112.76C113.392 112.947 113.38 113.157 113.357 113.39C113.357 113.623 113.345 113.845 113.322 114.055H97.7471V111.15H111.012L109.297 112.06C109.32 110.987 109.099 110.042 108.632 109.225C108.165 108.408 107.524 107.767 106.707 107.3C105.914 106.833 104.992 106.6 103.942 106.6C102.869 106.6 101.924 106.833 101.107 107.3C100.314 107.767 99.6838 108.42 99.2171 109.26C98.7738 110.077 98.5521 111.045 98.5521 112.165V112.865C98.5521 113.985 98.8088 114.977 99.3221 115.84C99.8355 116.703 100.559 117.368 101.492 117.835C102.425 118.302 103.499 118.535 104.712 118.535C105.762 118.535 106.707 118.372 107.547 118.045C108.387 117.718 109.134 117.205 109.787 116.505L112.132 119.2C111.292 120.18 110.23 120.938 108.947 121.475C107.687 121.988 106.24 122.245 104.607 122.245ZM117.595 122V103.31H121.76V108.455L121.27 106.95C121.83 105.69 122.705 104.733 123.895 104.08C125.108 103.427 126.613 103.1 128.41 103.1V107.265C128.223 107.218 128.048 107.195 127.885 107.195C127.721 107.172 127.558 107.16 127.395 107.16C125.738 107.16 124.42 107.65 123.44 108.63C122.46 109.587 121.97 111.022 121.97 112.935V122H117.595ZM142.481 122.245C140.964 122.245 139.576 121.895 138.316 121.195C137.079 120.495 136.088 119.445 135.341 118.045C134.618 116.622 134.256 114.825 134.256 112.655C134.256 110.462 134.606 108.665 135.306 107.265C136.029 105.865 137.009 104.827 138.246 104.15C139.483 103.45 140.894 103.1 142.481 103.1C144.324 103.1 145.946 103.497 147.346 104.29C148.769 105.083 149.889 106.192 150.706 107.615C151.546 109.038 151.966 110.718 151.966 112.655C151.966 114.592 151.546 116.283 150.706 117.73C149.889 119.153 148.769 120.262 147.346 121.055C145.946 121.848 144.324 122.245 142.481 122.245ZM132.121 128.79V103.31H136.286V107.72L136.146 112.69L136.496 117.66V128.79H132.121ZM141.991 118.5C143.041 118.5 143.974 118.267 144.791 117.8C145.631 117.333 146.296 116.657 146.786 115.77C147.276 114.883 147.521 113.845 147.521 112.655C147.521 111.442 147.276 110.403 146.786 109.54C146.296 108.653 145.631 107.977 144.791 107.51C143.974 107.043 143.041 106.81 141.991 106.81C140.941 106.81 139.996 107.043 139.156 107.51C138.316 107.977 137.651 108.653 137.161 109.54C136.671 110.403 136.426 111.442 136.426 112.655C136.426 113.845 136.671 114.883 137.161 115.77C137.651 116.657 138.316 117.333 139.156 117.8C139.996 118.267 140.941 118.5 141.991 118.5ZM156.115 122V103.31H160.28V108.455L159.79 106.95C160.35 105.69 161.225 104.733 162.415 104.08C163.628 103.427 165.133 103.1 166.93 103.1V107.265C166.743 107.218 166.568 107.195 166.405 107.195C166.242 107.172 166.078 107.16 165.915 107.16C164.258 107.16 162.94 107.65 161.96 108.63C160.98 109.587 160.49 111.022 160.49 112.935V122H156.115ZM170.641 122V103.31H175.016V122H170.641ZM172.846 100.23C172.03 100.23 171.353 99.9733 170.816 99.46C170.303 98.9467 170.046 98.3283 170.046 97.605C170.046 96.8583 170.303 96.24 170.816 95.75C171.353 95.2367 172.03 94.98 172.846 94.98C173.663 94.98 174.328 95.225 174.841 95.715C175.378 96.1817 175.646 96.7767 175.646 97.5C175.646 98.27 175.39 98.9233 174.876 99.46C174.363 99.9733 173.686 100.23 172.846 100.23ZM186.534 122.245C184.97 122.245 183.465 122.047 182.019 121.65C180.595 121.23 179.464 120.728 178.624 120.145L180.304 116.82C181.144 117.357 182.147 117.8 183.314 118.15C184.48 118.5 185.647 118.675 186.814 118.675C188.19 118.675 189.182 118.488 189.789 118.115C190.419 117.742 190.734 117.24 190.734 116.61C190.734 116.097 190.524 115.712 190.104 115.455C189.684 115.175 189.135 114.965 188.459 114.825C187.782 114.685 187.024 114.557 186.184 114.44C185.367 114.323 184.539 114.172 183.699 113.985C182.882 113.775 182.135 113.483 181.459 113.11C180.782 112.713 180.234 112.188 179.814 111.535C179.394 110.882 179.184 110.018 179.184 108.945C179.184 107.755 179.522 106.728 180.199 105.865C180.875 104.978 181.82 104.302 183.034 103.835C184.27 103.345 185.729 103.1 187.409 103.1C188.669 103.1 189.94 103.24 191.224 103.52C192.507 103.8 193.569 104.197 194.409 104.71L192.729 108.035C191.842 107.498 190.944 107.137 190.034 106.95C189.147 106.74 188.26 106.635 187.374 106.635C186.044 106.635 185.052 106.833 184.399 107.23C183.769 107.627 183.454 108.128 183.454 108.735C183.454 109.295 183.664 109.715 184.084 109.995C184.504 110.275 185.052 110.497 185.729 110.66C186.405 110.823 187.152 110.963 187.969 111.08C188.809 111.173 189.637 111.325 190.454 111.535C191.27 111.745 192.017 112.037 192.694 112.41C193.394 112.76 193.954 113.262 194.374 113.915C194.794 114.568 195.004 115.42 195.004 116.47C195.004 117.637 194.654 118.652 193.954 119.515C193.277 120.378 192.309 121.055 191.049 121.545C189.789 122.012 188.284 122.245 186.534 122.245ZM207.556 122.245C205.48 122.245 203.66 121.837 202.096 121.02C200.556 120.18 199.355 119.037 198.491 117.59C197.651 116.143 197.231 114.498 197.231 112.655C197.231 110.788 197.64 109.143 198.456 107.72C199.296 106.273 200.44 105.142 201.886 104.325C203.356 103.508 205.025 103.1 206.891 103.1C208.711 103.1 210.333 103.497 211.756 104.29C213.18 105.083 214.3 106.203 215.116 107.65C215.933 109.097 216.341 110.8 216.341 112.76C216.341 112.947 216.33 113.157 216.306 113.39C216.306 113.623 216.295 113.845 216.271 114.055H200.696V111.15H213.961L212.246 112.06C212.27 110.987 212.048 110.042 211.581 109.225C211.115 108.408 210.473 107.767 209.656 107.3C208.863 106.833 207.941 106.6 206.891 106.6C205.818 106.6 204.873 106.833 204.056 107.3C203.263 107.767 202.633 108.42 202.166 109.26C201.723 110.077 201.501 111.045 201.501 112.165V112.865C201.501 113.985 201.758 114.977 202.271 115.84C202.785 116.703 203.508 117.368 204.441 117.835C205.375 118.302 206.448 118.535 207.661 118.535C208.711 118.535 209.656 118.372 210.496 118.045C211.336 117.718 212.083 117.205 212.736 116.505L215.081 119.2C214.241 120.18 213.18 120.938 211.896 121.475C210.636 121.988 209.19 122.245 207.556 122.245ZM60.3948 165.35C58.4814 165.35 56.6498 165.082 54.8998 164.545C53.1498 163.985 51.7614 163.273 50.7348 162.41L52.3098 158.875C53.2898 159.645 54.5031 160.287 55.9498 160.8C57.3964 161.313 58.8781 161.57 60.3948 161.57C61.6781 161.57 62.7164 161.43 63.5098 161.15C64.3031 160.87 64.8864 160.497 65.2598 160.03C65.6331 159.54 65.8198 158.992 65.8198 158.385C65.8198 157.638 65.5514 157.043 65.0148 156.6C64.4781 156.133 63.7781 155.772 62.9148 155.515C62.0748 155.235 61.1298 154.978 60.0798 154.745C59.0531 154.512 58.0148 154.243 56.9648 153.94C55.9381 153.613 54.9931 153.205 54.1298 152.715C53.2898 152.202 52.6014 151.525 52.0648 150.685C51.5281 149.845 51.2598 148.772 51.2598 147.465C51.2598 146.135 51.6098 144.922 52.3098 143.825C53.0331 142.705 54.1181 141.818 55.5648 141.165C57.0348 140.488 58.8898 140.15 61.1298 140.15C62.5998 140.15 64.0581 140.337 65.5048 140.71C66.9514 141.083 68.2114 141.62 69.2848 142.32L67.8498 145.855C66.7531 145.202 65.6214 144.723 64.4548 144.42C63.2881 144.093 62.1681 143.93 61.0948 143.93C59.8348 143.93 58.8081 144.082 58.0148 144.385C57.2448 144.688 56.6731 145.085 56.2998 145.575C55.9498 146.065 55.7748 146.625 55.7748 147.255C55.7748 148.002 56.0314 148.608 56.5448 149.075C57.0814 149.518 57.7698 149.868 58.6098 150.125C59.4731 150.382 60.4298 150.638 61.4798 150.895C62.5298 151.128 63.5681 151.397 64.5948 151.7C65.6448 152.003 66.5898 152.4 67.4298 152.89C68.2931 153.38 68.9814 154.045 69.4948 154.885C70.0314 155.725 70.2998 156.787 70.2998 158.07C70.2998 159.377 69.9381 160.59 69.2148 161.71C68.5148 162.807 67.4298 163.693 65.9598 164.37C64.4898 165.023 62.6348 165.35 60.3948 165.35ZM82.7915 165.245C80.8782 165.245 79.1748 164.837 77.6815 164.02C76.1882 163.18 75.0098 162.037 74.1465 160.59C73.2832 159.143 72.8515 157.498 72.8515 155.655C72.8515 153.788 73.2832 152.143 74.1465 150.72C75.0098 149.273 76.1882 148.142 77.6815 147.325C79.1748 146.508 80.8782 146.1 82.7915 146.1C84.7282 146.1 86.4432 146.508 87.9365 147.325C89.4532 148.142 90.6315 149.262 91.4715 150.685C92.3348 152.108 92.7665 153.765 92.7665 155.655C92.7665 157.498 92.3348 159.143 91.4715 160.59C90.6315 162.037 89.4532 163.18 87.9365 164.02C86.4432 164.837 84.7282 165.245 82.7915 165.245ZM82.7915 161.5C83.8648 161.5 84.8215 161.267 85.6615 160.8C86.5015 160.333 87.1548 159.657 87.6215 158.77C88.1115 157.883 88.3565 156.845 88.3565 155.655C88.3565 154.442 88.1115 153.403 87.6215 152.54C87.1548 151.653 86.5015 150.977 85.6615 150.51C84.8215 150.043 83.8765 149.81 82.8265 149.81C81.7532 149.81 80.7965 150.043 79.9565 150.51C79.1398 150.977 78.4865 151.653 77.9965 152.54C77.5065 153.403 77.2615 154.442 77.2615 155.655C77.2615 156.845 77.5065 157.883 77.9965 158.77C78.4865 159.657 79.1398 160.333 79.9565 160.8C80.7965 161.267 81.7415 161.5 82.7915 161.5ZM96.9501 165V139.03H101.325V165H96.9501ZM114.977 165.245C113.391 165.245 111.991 164.953 110.777 164.37C109.564 163.763 108.619 162.853 107.942 161.64C107.266 160.403 106.927 158.852 106.927 156.985V146.31H111.302V156.39C111.302 158.07 111.676 159.33 112.422 160.17C113.192 160.987 114.277 161.395 115.677 161.395C116.704 161.395 117.591 161.185 118.337 160.765C119.107 160.345 119.702 159.715 120.122 158.875C120.566 158.035 120.787 156.997 120.787 155.76V146.31H125.162V165H120.997V159.96L121.732 161.5C121.102 162.713 120.181 163.647 118.967 164.3C117.754 164.93 116.424 165.245 114.977 165.245ZM137.926 165.245C135.872 165.245 134.286 164.72 133.166 163.67C132.046 162.597 131.486 161.022 131.486 158.945V142.18H135.861V158.84C135.861 159.727 136.082 160.415 136.526 160.905C136.992 161.395 137.634 161.64 138.451 161.64C139.431 161.64 140.247 161.383 140.901 160.87L142.126 163.985C141.612 164.405 140.982 164.72 140.236 164.93C139.489 165.14 138.719 165.245 137.926 165.245ZM128.406 149.95V146.45H140.866V149.95H128.406ZM145.724 165V146.31H150.099V165H145.724ZM147.929 143.23C147.113 143.23 146.436 142.973 145.899 142.46C145.386 141.947 145.129 141.328 145.129 140.605C145.129 139.858 145.386 139.24 145.899 138.75C146.436 138.237 147.113 137.98 147.929 137.98C148.746 137.98 149.411 138.225 149.924 138.715C150.461 139.182 150.729 139.777 150.729 140.5C150.729 141.27 150.473 141.923 149.959 142.46C149.446 142.973 148.769 143.23 147.929 143.23ZM164.242 165.245C162.328 165.245 160.625 164.837 159.132 164.02C157.638 163.18 156.46 162.037 155.597 160.59C154.733 159.143 154.302 157.498 154.302 155.655C154.302 153.788 154.733 152.143 155.597 150.72C156.46 149.273 157.638 148.142 159.132 147.325C160.625 146.508 162.328 146.1 164.242 146.1C166.178 146.1 167.893 146.508 169.387 147.325C170.903 148.142 172.082 149.262 172.922 150.685C173.785 152.108 174.217 153.765 174.217 155.655C174.217 157.498 173.785 159.143 172.922 160.59C172.082 162.037 170.903 163.18 169.387 164.02C167.893 164.837 166.178 165.245 164.242 165.245ZM164.242 161.5C165.315 161.5 166.272 161.267 167.112 160.8C167.952 160.333 168.605 159.657 169.072 158.77C169.562 157.883 169.807 156.845 169.807 155.655C169.807 154.442 169.562 153.403 169.072 152.54C168.605 151.653 167.952 150.977 167.112 150.51C166.272 150.043 165.327 149.81 164.277 149.81C163.203 149.81 162.247 150.043 161.407 150.51C160.59 150.977 159.937 151.653 159.447 152.54C158.957 153.403 158.712 154.442 158.712 155.655C158.712 156.845 158.957 157.883 159.447 158.77C159.937 159.657 160.59 160.333 161.407 160.8C162.247 161.267 163.192 161.5 164.242 161.5ZM189.005 146.1C190.499 146.1 191.829 146.392 192.995 146.975C194.185 147.558 195.119 148.457 195.795 149.67C196.472 150.86 196.81 152.4 196.81 154.29V165H192.435V154.85C192.435 153.193 192.039 151.957 191.245 151.14C190.475 150.323 189.39 149.915 187.99 149.915C186.964 149.915 186.054 150.125 185.26 150.545C184.467 150.965 183.849 151.595 183.405 152.435C182.985 153.252 182.775 154.29 182.775 155.55V165H178.4V146.31H182.565V151.35L181.83 149.81C182.484 148.62 183.429 147.71 184.665 147.08C185.925 146.427 187.372 146.1 189.005 146.1Z" fill="black"/>
</svg>
