<svg width="250" height="250" viewBox="0 0 250 250" fill="none" xmlns="http://www.w3.org/2000/svg">
<circle cx="125" cy="125" r="123.5" stroke="#020126" stroke-width="3"/>
<path d="M62.622 122V97.5H73.332C75.992 97.5 78.3254 98.0133 80.332 99.04C82.3387 100.067 83.902 101.49 85.022 103.31C86.142 105.13 86.702 107.277 86.702 109.75C86.702 112.2 86.142 114.347 85.022 116.19C83.902 118.01 82.3387 119.433 80.332 120.46C78.3254 121.487 75.992 122 73.332 122H62.622ZM67.172 118.15H73.122C74.9654 118.15 76.552 117.8 77.882 117.1C79.2354 116.4 80.2737 115.42 80.997 114.16C81.7437 112.9 82.117 111.43 82.117 109.75C82.117 108.047 81.7437 106.577 80.997 105.34C80.2737 104.08 79.2354 103.1 77.882 102.4C76.552 101.7 74.9654 101.35 73.122 101.35H67.172V118.15ZM91.118 122V103.31H95.493V122H91.118ZM93.323 100.23C92.5064 100.23 91.8297 99.9733 91.293 99.46C90.7797 98.9467 90.523 98.3283 90.523 97.605C90.523 96.8583 90.7797 96.24 91.293 95.75C91.8297 95.2367 92.5064 94.98 93.323 94.98C94.1397 94.98 94.8047 95.225 95.318 95.715C95.8547 96.1817 96.123 96.7767 96.123 97.5C96.123 98.27 95.8664 98.9233 95.353 99.46C94.8397 99.9733 94.163 100.23 93.323 100.23ZM109.705 129.035C107.979 129.035 106.287 128.802 104.63 128.335C102.997 127.892 101.655 127.238 100.605 126.375L102.565 123.085C103.382 123.762 104.409 124.298 105.645 124.695C106.905 125.115 108.177 125.325 109.46 125.325C111.514 125.325 113.019 124.847 113.975 123.89C114.932 122.957 115.41 121.545 115.41 119.655V116.33L115.76 112.095L115.62 107.86V103.31H119.785V119.165C119.785 122.548 118.922 125.033 117.195 126.62C115.469 128.23 112.972 129.035 109.705 129.035ZM109.145 121.16C107.372 121.16 105.762 120.787 104.315 120.04C102.892 119.27 101.76 118.208 100.92 116.855C100.104 115.502 99.6952 113.915 99.6952 112.095C99.6952 110.298 100.104 108.723 100.92 107.37C101.76 106.017 102.892 104.967 104.315 104.22C105.762 103.473 107.372 103.1 109.145 103.1C110.732 103.1 112.155 103.415 113.415 104.045C114.675 104.675 115.679 105.655 116.425 106.985C117.195 108.315 117.58 110.018 117.58 112.095C117.58 114.172 117.195 115.887 116.425 117.24C115.679 118.57 114.675 119.562 113.415 120.215C112.155 120.845 110.732 121.16 109.145 121.16ZM109.81 117.45C110.907 117.45 111.887 117.228 112.75 116.785C113.614 116.318 114.279 115.688 114.745 114.895C115.235 114.078 115.48 113.145 115.48 112.095C115.48 111.045 115.235 110.123 114.745 109.33C114.279 108.513 113.614 107.895 112.75 107.475C111.887 107.032 110.907 106.81 109.81 106.81C108.714 106.81 107.722 107.032 106.835 107.475C105.972 107.895 105.295 108.513 104.805 109.33C104.339 110.123 104.105 111.045 104.105 112.095C104.105 113.145 104.339 114.078 104.805 114.895C105.295 115.688 105.972 116.318 106.835 116.785C107.722 117.228 108.714 117.45 109.81 117.45ZM125.537 122V103.31H129.912V122H125.537ZM127.742 100.23C126.925 100.23 126.249 99.9733 125.712 99.46C125.199 98.9467 124.942 98.3283 124.942 97.605C124.942 96.8583 125.199 96.24 125.712 95.75C126.249 95.2367 126.925 94.98 127.742 94.98C128.559 94.98 129.224 95.225 129.737 95.715C130.274 96.1817 130.542 96.7767 130.542 97.5C130.542 98.27 130.285 98.9233 129.772 99.46C129.259 99.9733 128.582 100.23 127.742 100.23ZM142.689 122.245C140.636 122.245 139.049 121.72 137.929 120.67C136.809 119.597 136.249 118.022 136.249 115.945V99.18H140.624V115.84C140.624 116.727 140.846 117.415 141.289 117.905C141.756 118.395 142.398 118.64 143.214 118.64C144.194 118.64 145.011 118.383 145.664 117.87L146.889 120.985C146.376 121.405 145.746 121.72 144.999 121.93C144.253 122.14 143.483 122.245 142.689 122.245ZM133.169 106.95V103.45H145.629V106.95H133.169ZM162.003 122V118.22L161.758 117.415V110.8C161.758 109.517 161.373 108.525 160.603 107.825C159.833 107.102 158.666 106.74 157.103 106.74C156.053 106.74 155.015 106.903 153.988 107.23C152.985 107.557 152.133 108.012 151.433 108.595L149.718 105.41C150.721 104.64 151.911 104.068 153.288 103.695C154.688 103.298 156.135 103.1 157.628 103.1C160.335 103.1 162.423 103.753 163.893 105.06C165.386 106.343 166.133 108.338 166.133 111.045V122H162.003ZM156.123 122.245C154.723 122.245 153.498 122.012 152.448 121.545C151.398 121.055 150.581 120.39 149.998 119.55C149.438 118.687 149.158 117.718 149.158 116.645C149.158 115.595 149.403 114.65 149.893 113.81C150.406 112.97 151.235 112.305 152.378 111.815C153.521 111.325 155.038 111.08 156.928 111.08H162.353V113.985H157.243C155.75 113.985 154.746 114.23 154.233 114.72C153.72 115.187 153.463 115.77 153.463 116.47C153.463 117.263 153.778 117.893 154.408 118.36C155.038 118.827 155.913 119.06 157.033 119.06C158.106 119.06 159.063 118.815 159.903 118.325C160.766 117.835 161.385 117.112 161.758 116.155L162.493 118.78C162.073 119.877 161.315 120.728 160.218 121.335C159.145 121.942 157.78 122.245 156.123 122.245ZM171.748 122V96.03H176.123V122H171.748ZM84.1658 140.5H88.7158V165H84.1658V140.5ZM71.4958 165H66.9458V140.5H71.4958V165ZM84.5158 154.5H71.1108V150.615H84.5158V154.5ZM103.646 165.245C101.569 165.245 99.7491 164.837 98.1857 164.02C96.6457 163.18 95.4441 162.037 94.5807 160.59C93.7407 159.143 93.3207 157.498 93.3207 155.655C93.3207 153.788 93.7291 152.143 94.5457 150.72C95.3857 149.273 96.5291 148.142 97.9757 147.325C99.4457 146.508 101.114 146.1 102.981 146.1C104.801 146.1 106.422 146.497 107.846 147.29C109.269 148.083 110.389 149.203 111.206 150.65C112.022 152.097 112.431 153.8 112.431 155.76C112.431 155.947 112.419 156.157 112.396 156.39C112.396 156.623 112.384 156.845 112.361 157.055H96.7857V154.15H110.051L108.336 155.06C108.359 153.987 108.137 153.042 107.671 152.225C107.204 151.408 106.562 150.767 105.746 150.3C104.952 149.833 104.031 149.6 102.981 149.6C101.907 149.6 100.962 149.833 100.146 150.3C99.3524 150.767 98.7224 151.42 98.2557 152.26C97.8124 153.077 97.5907 154.045 97.5907 155.165V155.865C97.5907 156.985 97.8474 157.977 98.3607 158.84C98.8741 159.703 99.5974 160.368 100.531 160.835C101.464 161.302 102.537 161.535 103.751 161.535C104.801 161.535 105.746 161.372 106.586 161.045C107.426 160.718 108.172 160.205 108.826 159.505L111.171 162.2C110.331 163.18 109.269 163.938 107.986 164.475C106.726 164.988 105.279 165.245 103.646 165.245ZM127.635 165V161.22L127.39 160.415V153.8C127.39 152.517 127.005 151.525 126.235 150.825C125.465 150.102 124.299 149.74 122.735 149.74C121.685 149.74 120.647 149.903 119.62 150.23C118.617 150.557 117.765 151.012 117.065 151.595L115.35 148.41C116.354 147.64 117.544 147.068 118.92 146.695C120.32 146.298 121.767 146.1 123.26 146.1C125.967 146.1 128.055 146.753 129.525 148.06C131.019 149.343 131.765 151.338 131.765 154.045V165H127.635ZM121.755 165.245C120.355 165.245 119.13 165.012 118.08 164.545C117.03 164.055 116.214 163.39 115.63 162.55C115.07 161.687 114.79 160.718 114.79 159.645C114.79 158.595 115.035 157.65 115.525 156.81C116.039 155.97 116.867 155.305 118.01 154.815C119.154 154.325 120.67 154.08 122.56 154.08H127.985V156.985H122.875C121.382 156.985 120.379 157.23 119.865 157.72C119.352 158.187 119.095 158.77 119.095 159.47C119.095 160.263 119.41 160.893 120.04 161.36C120.67 161.827 121.545 162.06 122.665 162.06C123.739 162.06 124.695 161.815 125.535 161.325C126.399 160.835 127.017 160.112 127.39 159.155L128.125 161.78C127.705 162.877 126.947 163.728 125.85 164.335C124.777 164.942 123.412 165.245 121.755 165.245ZM137.38 165V139.03H141.755V165H137.38ZM155.455 165.245C153.402 165.245 151.815 164.72 150.695 163.67C149.575 162.597 149.015 161.022 149.015 158.945V142.18H153.39V158.84C153.39 159.727 153.612 160.415 154.055 160.905C154.522 161.395 155.164 161.64 155.98 161.64C156.96 161.64 157.777 161.383 158.43 160.87L159.655 163.985C159.142 164.405 158.512 164.72 157.765 164.93C157.019 165.14 156.249 165.245 155.455 165.245ZM145.935 149.95V146.45H158.395V149.95H145.935ZM173.859 146.1C175.353 146.1 176.683 146.392 177.849 146.975C179.039 147.558 179.973 148.457 180.649 149.67C181.326 150.86 181.664 152.4 181.664 154.29V165H177.289V154.85C177.289 153.193 176.893 151.957 176.099 151.14C175.329 150.323 174.244 149.915 172.844 149.915C171.818 149.915 170.908 150.125 170.114 150.545C169.321 150.965 168.703 151.595 168.259 152.435C167.839 153.252 167.629 154.29 167.629 155.55V165H163.254V139.03H167.629V151.35L166.684 149.81C167.338 148.62 168.283 147.71 169.519 147.08C170.779 146.427 172.226 146.1 173.859 146.1Z" fill="black"/>
</svg>
